<svg width="14" height="14" viewBox="0 0 14 14" fill="none" xmlns="http://www.w3.org/2000/svg">
<g opacity="0.01">
<rect width="14" height="14" fill="#D8D8D8"/>
<rect x="0.5" y="0.5" width="13" height="13" stroke="#3C3C43" stroke-opacity="0.6"/>
</g>
<path fill-rule="evenodd" clip-rule="evenodd" d="M3.16553 8.32568C3.37679 8.32568 3.57104 8.27197 3.74829 8.16455C3.92554 8.05713 4.06787 7.91569 4.17529 7.74023C4.28271 7.56478 4.33643 7.37142 4.33643 7.16016C4.33643 6.83073 4.22453 6.55501 4.00073 6.33301C3.77694 6.111 3.49854 6 3.16553 6C2.95068 6 2.75553 6.05192 2.58008 6.15576C2.40462 6.2596 2.26408 6.39925 2.15845 6.57471C2.05282 6.75016 2 6.94531 2 7.16016C2 7.37142 2.05282 7.56478 2.15845 7.74023C2.26408 7.91569 2.40462 8.05713 2.58008 8.16455C2.75553 8.27197 2.95068 8.32568 3.16553 8.32568ZM6.99512 8.32568C7.2028 8.32568 7.39437 8.27197 7.56982 8.16455C7.74528 8.05713 7.88672 7.91569 7.99414 7.74023C8.10156 7.56478 8.15527 7.37142 8.15527 7.16016C8.15527 6.83073 8.04427 6.55501 7.82227 6.33301C7.60026 6.111 7.32454 6 6.99512 6C6.78027 6 6.58512 6.05192 6.40967 6.15576C6.23421 6.2596 6.09367 6.39925 5.98804 6.57471C5.88241 6.75016 5.82959 6.94531 5.82959 7.16016C5.82959 7.37142 5.88241 7.56478 5.98804 7.74023C6.09367 7.91569 6.23421 8.05713 6.40967 8.16455C6.58512 8.27197 6.78027 8.32568 6.99512 8.32568ZM11.3994 8.16455C11.224 8.27197 11.0306 8.32568 10.8193 8.32568C10.6045 8.32568 10.4084 8.27197 10.2312 8.16455C10.054 8.05713 9.91252 7.91569 9.80688 7.74023C9.70125 7.56478 9.64844 7.37142 9.64844 7.16016C9.64844 6.94531 9.70125 6.75016 9.80688 6.57471C9.91252 6.39925 10.054 6.2596 10.2312 6.15576C10.4084 6.05192 10.6045 6 10.8193 6C11.1488 6 11.4254 6.111 11.6492 6.33301C11.873 6.55501 11.9849 6.83073 11.9849 7.16016C11.9849 7.37142 11.9312 7.56478 11.8237 7.74023C11.7163 7.91569 11.5749 8.05713 11.3994 8.16455Z" fill="#3C3C43" fill-opacity="0.6"/>
</svg>
