<svg width="320" height="320" viewBox="0 0 320 320" fill="none" xmlns="http://www.w3.org/2000/svg">
<path d="M131.328 80.8324C133.504 68.8004 137.728 57.2164 143.808 46.5284C145.344 43.6484 147.2 40.9604 149.312 38.4644L149.056 38.7844C151.232 36.3524 153.92 34.4964 156.928 33.2804C159.936 32.1924 163.008 31.2964 166.144 30.7204C169.408 29.9524 172.736 29.4404 176.064 29.0564C176.896 28.9924 177.728 28.8644 178.624 28.8644C178.496 28.8644 178.048 28.8644 178.688 28.8644H179.264C179.712 28.8644 180.224 28.8004 180.672 28.8004C181.44 28.8004 182.272 28.8004 183.04 28.8004C183.424 28.8004 183.872 28.8004 184.32 28.8644C184.512 28.8644 184.704 28.9284 184.896 28.9284C183.936 28.9924 184.768 28.9284 185.024 28.9284C185.792 28.9924 186.56 29.1204 187.328 29.2484C187.52 29.2484 188.096 29.3124 187.456 29.2484C186.816 29.1844 187.584 29.2484 187.712 29.3124L189.056 29.6324C189.376 29.6964 189.824 29.9524 188.608 29.5044C188.8 29.5684 188.992 29.6324 189.12 29.6324C189.504 29.7604 189.824 29.8244 190.208 29.9524C191.168 30.2084 189.312 29.6324 189.888 29.8244L190.4 30.0164C190.848 30.1444 191.296 30.3364 191.68 30.5284C192.256 30.7844 190.656 30.0804 191.552 30.4644L192 30.6564C192.32 30.7844 192.576 30.9124 192.896 31.1044C193.024 31.1684 193.152 31.2964 193.344 31.2964C192.896 31.2964 192.704 30.9124 193.216 31.2324C193.536 31.4244 193.92 31.6164 194.24 31.8724C194.816 32.2564 195.392 32.6404 195.968 33.0244C196.416 33.3444 195.968 33.0244 195.904 32.9604L196.288 33.2804C196.608 33.5364 196.928 33.7924 197.248 34.0484C201.6 37.7604 205.184 42.3684 207.616 47.4884C211.072 54.2724 212.864 61.7604 214.08 69.2484L214.016 68.8644C214.72 73.4724 215.232 78.1444 215.744 82.7524C215.808 83.3924 216.32 83.7124 216.832 84.0964C217.792 84.6724 218.88 85.1204 219.968 85.4404C221.056 85.8244 222.208 86.0164 223.36 86.0164C223.68 86.0164 225.024 86.0164 224.96 85.5044C223.744 74.1764 222.528 62.5284 217.92 52.0324C213.888 42.7524 207.168 34.8164 198.08 30.2084C186.752 24.4484 173.76 24.1924 161.536 26.5604C158.848 27.0724 156.16 27.7124 153.472 28.4164C150.784 29.0564 148.16 30.0164 145.728 31.2964C141.056 33.9204 137.92 38.4004 135.296 42.9444C129.664 52.6724 125.504 63.1684 123.072 74.1764C122.752 75.5204 122.496 76.9284 122.24 78.2724C122.112 78.8484 123.008 79.3604 123.328 79.6164C125.312 80.7684 127.552 81.4084 129.856 81.5364C130.112 81.3444 131.264 81.3444 131.328 80.8324Z" fill="#CECECE"/>
<path d="M88.2561 81.1526C88.2561 81.1526 241.344 68.4806 253.76 85.4406C266.176 102.401 269.888 235.841 252.032 242.689C234.176 249.537 92.2881 254.849 92.0961 232.577C91.9041 210.305 77.7601 81.9846 88.2561 81.1526Z" fill="#3D3D3D"/>
<path d="M89.28 81.8565L92.672 81.6005C95.808 81.3445 98.944 81.1525 102.08 80.8965C106.752 80.5765 111.488 80.2565 116.224 79.9365C122.112 79.5525 128.064 79.2325 133.952 78.9125C140.608 78.5925 147.264 78.2725 153.92 78.0165C160.896 77.7605 167.936 77.5685 174.976 77.4405C182.016 77.3125 188.992 77.2485 195.968 77.3125C202.432 77.3765 208.832 77.5045 215.296 77.8245C220.928 78.0805 226.56 78.4645 232.192 79.1685L234.048 79.4245L234.432 79.4885H234.688L235.648 79.6165C236.8 79.8085 237.952 79.9365 239.104 80.1925C240.256 80.4485 241.216 80.5765 242.24 80.8325L242.88 80.9605L243.264 81.0245C243.52 81.0885 242.88 80.8965 243.328 81.0245L244.672 81.4085C245.12 81.5365 245.504 81.6645 245.952 81.7925L246.528 81.9845L246.848 82.1125C247.552 82.3685 248.256 82.6245 248.96 82.9445C248.64 82.8165 249.28 83.0725 248.96 82.9445L249.152 83.0725L249.6 83.3285C249.728 83.3925 249.92 83.4565 250.048 83.5845C250.176 83.7125 250.56 83.8405 250.368 83.7765C250.176 83.7125 250.56 83.9045 250.624 83.9685C250.688 84.0325 250.88 84.1605 251.008 84.2245L251.328 84.4805L251.456 84.6085C251.264 84.4165 251.52 84.6725 251.456 84.6085C252.224 85.3125 252.864 86.1445 253.312 87.1045C254.016 88.5125 254.592 89.9845 255.04 91.4565C256.384 95.7445 257.408 100.097 258.112 104.513C259.136 110.337 259.84 116.161 260.48 121.985C261.184 128.769 261.696 135.617 262.08 142.401C262.464 149.697 262.72 157.057 262.848 164.353C262.912 171.649 262.912 178.945 262.656 186.113C262.464 192.833 262.08 199.617 261.44 206.273C260.928 212.033 260.224 217.729 259.2 223.425C258.496 227.713 257.344 231.873 255.744 235.905C254.72 238.337 253.504 240.833 251.136 242.113L250.944 242.177C250.816 242.241 251.136 242.113 250.944 242.177L250.624 242.305C250.368 242.369 250.112 242.497 249.92 242.561C249.344 242.753 248.768 242.881 248.128 243.073C246.592 243.457 244.992 243.713 243.456 244.033C241.344 244.353 239.68 244.609 237.632 244.865C235.2 245.185 232.832 245.441 230.4 245.697C224.64 246.273 218.88 246.721 213.12 247.041C206.464 247.425 199.744 247.745 193.024 247.937C185.92 248.129 178.816 248.257 171.648 248.193C164.608 248.193 157.568 248.001 150.528 247.681C143.872 247.361 137.216 246.977 130.56 246.337C124.736 245.761 119.488 245.121 113.664 243.969C112.448 243.713 111.168 243.457 109.952 243.201L109.568 243.137L109.312 243.073H109.376L108.48 242.881L106.88 242.433C105.856 242.177 104.832 241.857 103.744 241.537C103.616 241.537 103.168 241.345 103.68 241.537L103.36 241.409L102.656 241.153C102.208 240.961 101.76 240.833 101.312 240.641L100.672 240.385L100.416 240.257L100.224 240.193C100.48 240.321 100.16 240.129 100.096 240.129L99.776 240.001L99.2 239.681C98.816 239.489 98.496 239.297 98.112 239.105L97.856 238.977C97.92 238.977 98.24 239.169 97.856 238.977L97.344 238.657C97.024 238.465 96.768 238.273 96.448 238.017L96.064 237.697C96.32 237.889 95.936 237.569 95.872 237.505C95.424 237.121 95.04 236.673 94.656 236.161C94.784 236.353 94.592 236.033 94.528 235.969C94.464 235.905 94.4 235.713 94.336 235.585C93.952 234.945 93.76 234.177 93.696 233.409C93.632 232.001 93.632 230.529 93.568 229.057C93.376 224.641 93.056 220.289 92.736 215.937C92.288 209.985 91.84 204.033 91.392 198.081C90.816 191.169 90.304 184.193 89.792 177.281C89.216 169.921 88.704 162.561 88.192 155.137C87.68 147.841 87.232 140.545 86.848 133.249C86.528 126.593 86.208 120.001 86.08 113.345C85.952 107.905 85.952 102.465 86.144 97.0885C86.208 93.3765 86.592 89.6645 87.36 86.0165C87.552 84.9925 87.936 84.0325 88.384 83.0725C88.512 82.7525 88.704 82.5605 88.96 82.3685C89.024 81.9845 89.152 81.9205 89.28 81.8565C89.216 81.8565 89.024 81.9845 89.28 81.8565C89.536 81.8565 89.152 81.8565 89.28 81.8565C89.856 81.7925 89.92 81.4725 89.472 81.0885C88.832 80.6405 88.064 80.4485 87.296 80.4485C85.248 80.6405 84.608 83.1365 84.224 84.8645C83.456 88.5765 83.072 92.2885 83.008 96.0645C82.752 101.569 82.816 107.073 82.944 112.513C83.072 119.233 83.392 125.953 83.712 132.673C84.096 140.033 84.544 147.457 85.056 154.817C85.568 162.177 86.144 169.601 86.656 177.089C87.168 184.065 87.744 191.041 88.32 198.017C88.768 203.905 89.28 209.857 89.664 215.809C89.984 220.097 90.304 224.385 90.432 228.673C90.496 230.017 90.432 231.489 90.56 232.833C90.752 233.985 91.2 235.009 91.968 235.905C93.952 238.465 97.28 240.001 100.224 241.153C104.64 242.817 109.248 244.097 113.92 244.929C119.68 246.081 125.568 246.785 131.456 247.361C138.112 248.001 144.832 248.449 151.552 248.769C158.784 249.089 166.016 249.217 173.248 249.281C180.48 249.345 187.584 249.217 194.752 249.025C201.472 248.833 208.256 248.513 214.976 248.129C220.8 247.809 226.624 247.361 232.384 246.785C236.864 246.337 241.408 245.825 245.888 245.057C247.488 244.801 249.024 244.481 250.56 244.097C251.712 243.841 252.8 243.521 253.888 243.009C256.32 241.793 257.664 238.913 258.688 236.609C260.288 232.577 261.44 228.353 262.144 224.065C263.232 218.369 263.936 212.545 264.448 206.721C265.088 199.937 265.408 193.153 265.6 186.305C265.856 178.945 265.856 171.585 265.792 164.225C265.728 156.865 265.408 149.505 265.024 142.145C264.64 135.297 264.128 128.385 263.424 121.537C262.784 115.713 262.08 109.889 261.056 104.065C260.352 99.7125 259.328 95.3605 257.92 91.1365C257.088 88.5765 256 85.8885 253.888 84.0965C251.392 82.0485 248.064 81.0245 244.992 80.1925C240.512 79.0405 235.904 78.2085 231.296 77.6965C225.664 76.9925 219.968 76.6085 214.272 76.3525C207.68 76.0325 201.088 75.9045 194.496 75.8405C187.456 75.7765 180.416 75.8405 173.376 75.9685C166.336 76.0965 159.232 76.2885 152.192 76.6085C145.472 76.8645 138.752 77.1845 131.968 77.5045C126.016 77.8245 120.064 78.1445 114.112 78.5285C109.376 78.8485 104.64 79.1685 99.904 79.4885C96.768 79.6805 93.696 79.9365 90.56 80.1925L87.296 80.4485C86.72 80.5125 86.592 80.8325 87.104 81.2165C87.744 81.6645 88.512 81.9205 89.28 81.8565Z" fill="#3D3D3D"/>
<path d="M156.224 163.072C156.224 163.072 127.872 135.36 149.888 122.88C171.904 110.4 202.24 131.456 193.088 148.544C183.936 165.632 176.256 167.424 176.256 167.424C176.256 167.424 182.848 214.016 178.304 215.36C173.76 216.704 144.896 216.384 143.744 207.936C142.592 199.488 156.224 163.072 156.224 163.072Z" fill="white"/>
<path d="M43.0079 275.968L42.3679 278.464C42.3679 278.464 35.9679 283.264 34.4959 283.84C33.0239 284.416 24.1279 288 27.2639 288.896C30.3999 289.792 59.0719 290.752 59.7759 288.448C60.4799 286.144 56.8959 276.928 56.8959 276.928L43.0079 275.968Z" fill="#909090"/>
<path d="M41.5359 276.48L40.8959 278.976L41.6639 278.016C39.8719 279.36 38.0159 280.704 36.0959 281.984C35.5839 282.304 35.0719 282.624 34.5599 283.008C34.2399 283.2 34.7519 282.944 34.5599 283.008L34.3679 283.136C34.1119 283.264 34.4319 283.136 34.4959 283.072L34.2399 283.2C33.0879 283.712 31.9359 284.16 30.7839 284.672C29.5039 285.248 28.2239 285.888 27.0719 286.656C26.4319 287.104 24.8319 288.192 25.2799 289.152C25.7279 290.112 28.2879 290.112 29.1839 290.24C34.6239 290.752 40.0639 290.88 45.5039 290.88C48.2559 290.88 50.9439 290.816 53.6959 290.624C55.5519 290.624 57.4079 290.304 59.1999 289.728C60.0319 289.408 61.1199 288.832 61.3119 287.872C61.5679 286.784 61.1839 285.504 60.9919 284.48C60.3519 281.856 59.5839 279.296 58.5599 276.736C58.4959 276.544 58.4319 276.352 58.3679 276.224C58.3039 276.096 57.9199 275.968 57.7279 275.968L45.5679 275.136L43.8399 275.008C43.0719 275.008 42.3039 275.392 41.7919 276.032C41.4079 276.544 41.5999 276.928 42.2399 276.928L54.3999 277.76L56.1279 277.888L55.4879 277.632C56.2559 279.552 56.8959 281.536 57.4719 283.52C57.9199 284.864 58.2399 286.208 58.3679 287.616C58.3679 287.872 58.3679 288.128 58.3679 288.384C58.3679 288.512 58.3679 288.576 58.3679 288.704C58.3679 288.96 58.3039 288.832 58.3679 288.768C58.4959 288.64 58.6239 288.512 58.7519 288.384C59.1359 288.064 58.5599 288.512 58.9439 288.256C59.3279 288 58.6879 288.448 59.1359 288.192C59.4559 288 59.0719 288.192 59.0079 288.256C58.7519 288.384 59.3279 288.192 59.0719 288.256C59.0079 288.256 58.8799 288.32 58.8159 288.32C58.4319 288.384 58.0479 288.448 57.6639 288.512L57.3439 288.576C57.0879 288.64 57.5359 288.576 57.2799 288.576L56.5119 288.64C55.9999 288.704 55.4239 288.704 54.8479 288.768C52.0959 288.96 49.4079 288.96 46.6559 288.96C41.4079 288.96 36.0959 288.832 30.9759 288.384C30.2719 288.32 29.5679 288.256 28.8639 288.128C28.6719 288.064 28.3519 288 28.2879 288C28.2239 287.936 28.1599 287.936 28.0959 287.872C28.2239 288 28.0959 287.808 28.0959 287.808C28.0959 288 28.1599 287.808 28.0319 287.936C28.0959 287.808 28.1599 287.808 28.0319 287.936C28.0959 287.872 28.1599 287.808 28.2239 287.744C28.4159 287.616 28.0319 287.872 28.3519 287.68C28.4799 287.616 28.6079 287.488 28.7359 287.424L29.0559 287.232L29.2479 287.104C29.5679 286.976 29.8239 286.784 30.1439 286.656C30.7839 286.336 31.4239 286.016 32.0639 285.76L32.8319 285.44L33.2799 285.248C32.9599 285.376 33.2799 285.248 33.4079 285.184C35.6479 284.16 37.6959 282.944 39.6159 281.472C40.6399 280.768 41.5999 280.064 42.6239 279.296C42.9439 279.104 43.1999 278.912 43.4559 278.656C43.7759 278.144 44.0319 277.568 44.0959 276.992L44.4799 275.584C44.6719 274.944 43.3279 275.2 43.0719 275.264C42.4319 275.392 41.8559 275.84 41.5359 276.48Z" fill="#909090"/>
<path d="M108.672 278.208C108.672 278.208 115.136 290.88 113.152 291.136C111.168 291.392 90.9439 291.904 91.1359 289.664C91.3279 287.424 95.1039 277.504 95.1039 277.504L108.672 278.208Z" fill="#909090"/>
<path d="M107.136 278.4C108.544 281.088 109.76 283.84 110.912 286.656C111.232 287.488 111.552 288.32 111.744 289.152C111.808 289.408 111.872 289.664 111.872 289.984C111.872 290.176 111.872 290.624 111.872 290.624C111.872 290.496 111.872 290.688 111.808 290.752C112.128 290.56 112.192 290.24 112.704 290.368H112.64C112.448 290.368 112.256 290.368 112.064 290.432H111.744C111.296 290.432 112.128 290.432 111.68 290.432L110.592 290.496C106.496 290.624 102.4 290.624 98.304 290.432L96.96 290.368L96.256 290.304H96.192L95.744 290.24C94.976 290.176 94.208 290.048 93.44 289.92C93.184 289.856 93.76 289.984 93.312 289.92L92.928 289.792L92.736 289.728C92.8 289.728 92.992 289.92 92.864 289.792C92.736 289.664 92.8 289.728 92.736 289.728C92.544 289.6 92.864 289.92 92.8 289.792C92.672 289.792 92.736 289.664 92.8 289.792C92.672 289.728 92.8 289.792 92.8 289.856C92.864 289.6 92.928 289.28 92.928 289.024C93.824 285.184 95.36 281.472 96.704 277.824L95.168 278.4L108.672 279.168C109.184 279.168 110.272 279.04 110.272 278.4C110.272 277.76 109.12 277.568 108.672 277.568L95.168 276.8C94.784 276.8 93.824 276.864 93.632 277.376C92.288 280.96 90.944 284.608 89.92 288.32C89.792 288.832 89.408 289.6 89.664 290.176C89.984 290.688 90.56 291.072 91.2 291.2C92.928 291.712 94.656 291.968 96.448 292.032C100.864 292.352 105.28 292.416 109.76 292.224C111.04 292.224 112.384 292.16 113.664 292.032C115.712 291.712 115.2 289.856 114.752 288.448C113.536 284.864 112.064 281.472 110.272 278.144C109.76 277.056 106.624 277.312 107.136 278.4Z" fill="#909090"/>
<path d="M96.64 179.136C96.64 179.136 103.488 216.32 112.192 280.512C112.192 280.512 89.216 282.624 88.704 279.808C88.192 276.992 81.728 228.224 76.416 206.08C76.416 206.08 59.968 262.208 59.968 279.104C59.968 279.104 39.296 280.064 38.336 277.696C37.376 275.328 50.56 199.04 58.944 179.904L96.64 179.136Z" fill="white"/>
<path d="M95.104 179.328C95.36 180.736 95.616 182.08 95.872 183.488C96.192 185.216 96.448 186.944 96.768 188.608C96.832 188.864 96.832 189.12 96.896 189.312V189.44C96.832 189.248 96.896 189.632 96.896 189.44C96.9599 189.632 96.96 189.76 96.96 189.888C97.088 190.464 97.152 191.04 97.28 191.616L97.92 195.392C99.008 201.984 100.096 208.576 101.12 215.232C102.528 224.192 103.872 233.152 105.216 242.176C106.88 253.312 108.416 264.448 109.952 275.648C110.144 277.248 110.4 278.784 110.592 280.384L111.744 279.232C110.08 279.36 108.352 279.488 106.688 279.616C103.36 279.808 99.968 280 96.896 280C95.36 280 93.824 279.936 92.352 279.808C92.032 279.808 91.776 279.744 91.456 279.68L91.072 279.616C90.88 279.616 90.56 279.488 90.944 279.616C90.752 279.552 90.496 279.552 90.304 279.424C90.24 279.36 90.112 279.36 90.048 279.296C89.856 279.296 90.432 279.552 90.112 279.296C89.792 279.04 90.368 279.552 90.112 279.296C90.304 279.424 90.368 279.616 90.368 279.872C90.368 279.68 90.304 279.552 90.304 279.36L90.048 277.376C89.216 271.36 88.32 265.344 87.424 259.328C86.144 250.56 84.8 241.856 83.328 233.152C81.92 224.832 80.512 216.512 78.656 208.32L78.08 205.952C77.76 204.736 75.456 204.288 75.0079 205.632C74.4319 207.552 73.92 209.472 73.344 211.392C72 216.128 70.72 220.928 69.44 225.664C67.776 231.872 66.176 238.08 64.704 244.352C63.232 250.624 61.76 256.768 60.608 263.04C59.584 267.84 58.88 272.768 58.56 277.696C58.56 278.144 58.56 278.592 58.56 279.04L59.712 277.888C56.576 278.016 53.824 278.08 50.816 278.08C48.512 278.08 46.208 278.016 43.904 277.824C42.944 277.76 42.048 277.632 41.088 277.504C40.96 277.504 40.256 277.312 40.768 277.44L40.32 277.312C40.192 277.248 40 277.248 39.872 277.184C39.36 277.056 40.064 277.312 39.808 277.184C39.616 277.12 39.488 276.864 39.872 277.248C39.616 277.056 40.064 277.568 39.936 277.312C40.128 277.568 40.064 277.632 40.064 277.504C40.064 277.568 40.064 277.952 40.128 277.76C40.192 277.568 40.128 277.312 40.128 277.12C40.128 276.288 40.256 275.52 40.32 274.688C40.448 273.408 40.64 272.192 40.832 270.912C41.088 269.12 41.28 267.904 41.536 266.24C42.944 256.96 44.608 247.744 46.336 238.528C48.384 227.84 50.56 217.152 53.056 206.528C54.976 198.4 56.896 190.144 59.904 182.272C60.16 181.632 60.416 180.992 60.672 180.352L59.584 181.184L72.32 180.928L92.608 180.544L97.28 180.48C97.92 180.48 98.432 179.904 98.432 179.264C98.432 179.2 98.432 179.072 98.368 179.008C98.048 178.24 97.28 177.792 96.448 177.92L83.712 178.176L63.424 178.56L58.752 178.624C58.24 178.688 57.856 179.008 57.664 179.456C56.384 182.592 55.232 185.856 54.336 189.12C52.992 193.6 51.84 198.08 50.752 202.624C48.192 213.248 45.952 224 43.904 234.688C42.048 244.352 40.256 254.016 38.784 263.808C38.272 267.008 37.76 270.272 37.376 273.536C37.248 274.496 37.184 275.456 37.056 276.352C36.992 276.864 36.992 277.44 37.12 277.952C37.632 279.552 39.872 279.872 41.28 280.128C43.392 280.448 45.504 280.576 47.616 280.64C51.712 280.768 55.872 280.704 60.032 280.512H60.736C61.376 280.448 61.824 280 61.888 279.36C61.888 274.752 62.656 270.336 63.488 265.92C64.576 259.776 65.984 253.632 67.392 247.552C68.864 241.28 70.464 235.008 72.128 228.736C73.472 223.744 74.816 218.752 76.224 213.76C76.672 212.16 77.1199 210.624 77.568 209.024C77.76 208.32 78.08 207.552 78.208 206.784V206.72L75.136 206.4C77.056 214.4 78.528 222.528 79.872 230.592C81.408 239.552 82.816 248.512 84.096 257.472C84.992 263.808 85.888 270.208 86.784 276.608L87.104 278.912C87.104 279.552 87.296 280.128 87.552 280.704C88.128 281.6 89.28 281.984 90.304 282.24C91.712 282.496 93.12 282.688 94.528 282.752C100.48 282.944 106.432 282.688 112.32 282.112L112.704 282.048C113.216 281.984 113.92 281.536 113.856 280.896C112.256 269.376 110.656 257.856 108.992 246.4C107.648 237.12 106.24 227.84 104.768 218.56C103.68 211.648 102.592 204.8 101.44 197.888C100.672 193.408 99.9039 188.928 99.136 184.448C98.944 182.72 98.624 180.992 98.24 179.264V179.2C97.856 177.344 94.784 177.472 95.104 179.328Z" fill="#909090"/>
<path d="M113.28 148.799C113.28 148.799 110.208 126.975 77.5038 121.983C44.7998 116.991 41.1518 142.975 41.4078 155.839L57.0878 156.095C57.0878 156.095 55.2958 179.711 56.9598 180.543C58.6238 181.375 97.9838 179.839 97.9838 179.839L96.8318 151.295L113.28 148.799Z" fill="#909090"/>
<path d="M114.496 148.928C114.048 145.792 112.512 142.72 110.912 140.032C106.88 133.376 100.544 128.384 93.5039 125.184C88.1279 122.816 82.4319 121.216 76.6079 120.384C71.4239 119.616 65.9839 119.488 60.8639 120.704C56.9599 121.6 53.3119 123.392 50.3039 126.016C47.6159 128.384 45.5039 131.264 44.0319 134.464C41.2799 140.352 40.1919 146.88 40.1279 153.344C40.1279 153.984 40.1279 154.624 40.1279 155.264C40.1279 156.032 40.8959 157.184 41.7279 157.184L55.4239 157.44L57.4079 157.504L55.8079 155.584C55.4879 159.872 55.2319 164.16 55.0399 168.448C54.9119 171.264 54.8479 174.08 54.9759 176.896C55.0399 178.56 55.1039 181.248 57.0239 181.952C58.2399 182.4 59.7119 182.208 60.9919 182.272C63.4879 182.272 65.9199 182.272 68.4159 182.208C74.5599 182.08 80.7039 181.888 86.8479 181.696C89.4079 181.632 91.9679 181.504 94.5279 181.44C95.8079 181.376 97.0879 181.44 98.3679 181.312H98.5599C99.0079 181.312 99.1999 180.736 99.1999 180.416L98.8159 170.816L98.1759 155.456L98.0479 151.936L97.4079 152.832L111.808 150.656L113.92 150.336C115.392 150.08 113.984 147.264 112.64 147.456L98.2399 149.632L96.1279 149.952C95.7439 150.08 95.4239 150.464 95.4879 150.848L95.8719 160.512L96.5119 175.872L96.6399 179.392L97.2159 178.496C94.1439 178.624 91.4559 178.688 88.4479 178.816C82.4959 179.008 76.4799 179.2 70.5279 179.328C66.1759 179.392 61.7599 179.648 57.4719 179.328C57.2799 179.328 57.0239 179.264 56.8319 179.264C56.6399 179.264 56.8319 179.264 56.9599 179.328C57.2799 179.456 57.5359 179.712 57.7279 179.968C57.7919 180.096 57.9199 180.352 57.7919 180.032C57.9839 180.48 57.8559 180.16 57.7919 179.904C57.7279 179.648 57.7279 179.584 57.7279 179.392C57.7919 179.84 57.7279 179.136 57.6639 179.008C57.4719 176.448 57.4719 173.888 57.5999 171.328C57.7279 166.528 58.1759 161.728 58.3679 156.928V156.672C58.4319 155.904 57.5999 154.752 56.7679 154.752L43.0719 154.496L41.0879 154.432L42.6879 156.352C42.5599 150.4 43.1999 144.64 45.3759 138.944C47.8079 132.544 52.5439 127.04 59.1359 124.608C63.5519 123.072 68.2239 122.496 72.8319 122.88C78.6559 123.264 84.4159 124.416 89.8559 126.464C94.0799 128 98.0479 130.112 101.568 132.864C102.912 133.952 104.192 135.104 105.344 136.32C105.6 136.64 105.92 136.896 106.176 137.216C106.304 137.344 106.432 137.472 106.496 137.6C106.368 137.408 106.752 137.92 106.496 137.6L106.688 137.856C107.136 138.432 107.584 139.072 108.032 139.648C108.48 140.224 108.8 140.8 109.184 141.376L109.376 141.76C109.632 142.144 109.248 141.504 109.44 141.952C109.568 142.208 109.696 142.464 109.824 142.72C110.336 143.68 110.72 144.64 111.104 145.6C111.168 145.792 111.232 145.984 111.296 146.176C111.104 145.728 111.296 146.24 111.36 146.432C111.424 146.752 111.552 147.072 111.616 147.392C111.68 147.712 111.808 148.16 111.872 148.544C111.872 148.608 111.872 148.672 111.872 148.672C112 149.44 112.64 150.08 113.408 150.272C114.432 150.336 114.624 149.568 114.496 148.928Z" fill="#909090"/>
<path d="M62.9119 154.24C62.9119 154.24 80.2559 170.56 95.5519 170.944C110.848 171.328 117.376 162.432 113.28 148.8L96.7679 151.296L95.9999 153.92C90.4959 151.808 84.8639 150.208 79.0399 149.184C73.1519 148.096 67.1359 149.952 62.9119 154.24Z" fill="white"/>
<path d="M62.3998 155.136C64.4478 156.992 66.5598 158.72 68.7358 160.384C73.2158 163.84 78.1438 166.784 83.3278 169.152C88.9598 171.648 94.8478 172.864 100.992 172.16C105.792 171.584 110.656 169.6 113.408 165.504C116.672 160.64 116.096 154.304 114.496 148.992C114.24 148.224 113.472 147.328 112.64 147.456L98.2398 149.632L96.1278 149.952C95.8718 150.016 95.6798 150.272 95.6158 150.528L94.7838 153.216L95.9358 152.704C91.7758 151.04 87.4238 149.696 83.0718 148.8C79.4238 147.968 75.7758 147.2 71.9998 147.84C69.5038 148.288 67.0718 149.248 64.9598 150.656C63.8078 151.36 62.7838 152.256 61.8878 153.216C61.3118 153.664 62.0158 154.752 62.3998 155.136C62.9118 155.584 63.6158 155.84 64.0638 155.328C63.6798 155.712 63.9358 155.456 64.0638 155.328C64.1918 155.2 64.3838 155.008 64.5758 154.88C65.0878 154.368 65.6638 153.92 66.2398 153.536C68.1598 152.192 70.2718 151.232 72.5758 150.72C76.0318 149.952 79.3598 150.592 82.8158 151.296C85.9518 152 89.0878 152.832 92.1598 153.856C93.5038 154.304 94.9118 154.752 96.2558 155.328C96.6398 155.52 97.0878 155.392 97.2798 155.008C97.3438 154.944 97.3438 154.88 97.3438 154.816L98.1758 152.128L97.6638 152.704L112.064 150.528L114.176 150.208L112.32 148.672C113.664 153.088 114.176 158.144 111.872 162.368C109.696 166.336 105.472 168.384 101.184 169.152C89.9198 171.136 79.2958 165.312 70.4638 158.848C68.0958 157.12 65.7918 155.264 63.6158 153.28C63.1678 152.896 62.3998 152.512 61.9518 153.088C61.5038 153.664 61.9518 154.688 62.3998 155.136Z" fill="#909090"/>
<path d="M41.408 155.775C41.408 155.775 42.048 166.143 50.112 171.967C58.176 177.791 80.512 166.207 80.512 166.207L62.912 154.239L57.088 156.095L41.408 155.775Z" fill="white"/>
<path d="M39.9358 155.456C40.4478 160.704 42.4958 165.696 45.8238 169.728C47.3598 171.456 49.2799 173.248 51.3919 174.08C55.1039 175.488 59.3278 175.04 63.1678 174.208C67.1998 173.312 71.1039 171.968 74.8799 170.368C77.1199 169.472 79.2959 168.448 81.4719 167.36C82.3679 166.912 81.7279 165.632 81.1519 165.248L65.4719 154.56C64.8319 154.112 64.1919 153.664 63.5519 153.28C62.6559 152.704 62.0159 152.96 61.1199 153.216L58.3038 154.112L57.0878 154.496C56.8318 154.56 56.5758 154.624 56.3198 154.752C56.2558 154.816 56.8319 154.752 56.5119 154.688C56.3199 154.688 56.1278 154.688 55.9998 154.688L51.3278 154.624L40.9598 154.432C40.4478 154.432 39.9358 154.88 39.9358 155.456C39.9358 155.584 39.9358 155.712 39.9998 155.84C40.2558 156.608 40.9599 157.184 41.7919 157.184L50.7519 157.312L56.1278 157.376C56.9598 157.44 57.7918 157.376 58.5599 157.12L63.6159 155.456L62.1438 155.136L77.5038 165.632L79.6799 167.104L79.3599 164.992C77.8239 165.76 76.2239 166.528 74.7519 167.104C71.2959 168.64 67.7118 169.92 64.0638 170.944C62.2078 171.456 60.3519 171.84 58.4319 172.096C56.7039 172.288 54.9759 172.288 53.3119 172.032C52.9279 171.968 52.5438 171.84 52.1598 171.712C51.9038 171.648 52.2878 171.776 51.9038 171.648L51.3919 171.392C51.1999 171.328 51.0718 171.2 50.8798 171.136C51.1998 171.328 50.8158 171.072 50.6878 171.008C50.1758 170.624 49.6638 170.24 49.2158 169.792C47.4879 168.192 46.1438 166.272 45.1198 164.224C44.2238 162.432 43.5838 160.512 43.1998 158.528C43.1358 158.144 43.0718 157.76 43.0078 157.376C43.0718 157.696 43.0078 157.312 43.0078 157.184C43.0078 157.056 42.9438 156.928 42.9438 156.8C42.9438 156.544 42.8798 156.352 42.8798 156.096C42.8158 155.264 42.1758 154.624 41.4078 154.432C40.7038 154.368 39.8718 154.688 39.9358 155.456Z" fill="#909090"/>
<path d="M64.256 106.624C64.256 106.624 61.056 91.3917 74.048 87.5517C87.04 83.7117 101.76 95.3597 100.48 111.616C99.2 127.872 79.296 127.232 79.296 127.232L64.256 106.624Z" fill="white"/>
<path d="M65.7919 105.984C64.9599 102.08 65.4079 97.9835 66.9439 94.2715C67.5839 92.8635 68.4799 91.5835 69.5679 90.4955C70.6559 89.4075 72.0639 88.5755 73.5359 88.1275C77.1839 87.1035 81.0239 87.2955 84.4799 88.7035C92.2239 91.5835 97.7279 98.8795 98.8799 106.944C99.3919 110.848 99.1359 115.072 97.2159 118.592C96.5119 119.936 95.5519 121.088 94.4639 122.112C93.5039 122.944 92.4799 123.712 91.3279 124.288L90.8799 124.48L90.6239 124.608C90.6879 124.544 90.9439 124.48 90.6239 124.608L89.6639 124.992C89.4719 125.056 89.7279 124.992 89.7279 124.928L89.4719 124.992L89.0239 125.12L88.5759 125.248C88.4479 125.312 88.3839 125.312 88.2559 125.376C87.6159 125.568 87.0399 125.696 86.3999 125.824L86.2079 125.888L85.7599 126.08L84.8639 126.208C84.3519 126.272 83.9039 126.336 83.3919 126.4L82.6879 126.464H82.5599H82.2399C81.7279 126.528 81.1519 126.464 80.6399 126.528C80.5759 126.528 80.5119 126.528 80.4479 126.528L80.7039 126.656L67.5839 108.544L65.7919 105.984C65.3439 105.344 62.5919 106.88 62.7839 107.2L75.1359 124.224L77.4399 127.424C77.6319 127.68 77.6959 127.872 78.0159 127.936C78.1439 127.936 78.3359 127.936 78.4639 127.936C81.3439 127.872 84.2239 127.488 86.9759 126.656C91.3919 125.376 95.8719 123.264 98.6879 119.552C102.208 115.008 102.592 108.736 101.248 103.296C99.8399 97.5355 96.1919 92.4795 91.1999 89.2795C86.3359 86.1435 80.3199 85.2475 74.7519 86.7835C71.7439 87.5515 68.9279 89.0875 66.6879 91.1995C65.0879 92.7995 63.8719 94.7835 63.2319 97.0235C62.2719 100.16 62.0799 103.424 62.5919 106.624C62.5919 106.816 62.6559 107.008 62.7199 107.2C62.9119 107.584 65.9199 106.688 65.7919 105.984Z" fill="#909090"/>
<path d="M62.912 119.807C59.136 113.599 65.984 94.1434 65.984 94.1434C69.952 89.4714 86.464 94.9754 86.464 94.9754C83.392 99.7754 83.008 108.351 83.008 108.351C85.632 103.999 90.752 106.751 89.856 111.167C88.96 115.583 83.456 116.223 83.456 116.223C83.456 116.223 83.648 126.015 83.008 127.743C82.368 129.471 73.6 130.943 69.824 125.247C69.888 125.247 66.24 125.247 62.912 119.807Z" fill="white"/>
<path d="M63.872 119.487C63.68 119.103 63.872 119.551 63.808 119.359C63.744 119.167 63.68 119.039 63.616 118.847C63.488 118.591 63.424 118.271 63.36 118.015C63.168 117.247 63.104 116.479 63.104 115.711C63.04 113.727 63.168 111.807 63.488 109.887C64.064 106.175 64.96 102.463 66.048 98.8792C66.368 97.7912 66.688 96.7032 67.072 95.6792C67.136 95.4872 67.2 95.2952 67.264 95.1672C67.136 95.4232 67.264 95.2312 67.328 95.1032L67.648 94.7832C67.904 94.5912 68.16 94.4632 68.416 94.3352C69.952 93.7592 71.552 93.5032 73.152 93.6312C75.072 93.6952 76.928 93.8872 78.784 94.2712C81.472 94.7832 84.096 95.4232 86.72 96.2552L85.248 94.0152C83.648 96.6392 82.88 99.7112 82.304 102.655C81.984 104.319 81.792 105.983 81.728 107.647C81.664 108.607 83.456 110.591 84.224 109.311C84.992 108.031 86.656 107.007 87.936 107.775C87.68 107.647 88.32 108.095 88.064 107.839C88.128 107.903 88.384 108.223 88.192 107.967C88.384 108.223 88.512 108.543 88.576 108.863C88.704 109.695 88.64 110.527 88.256 111.295C87.616 112.703 86.4 113.727 84.992 114.239C84.48 114.431 83.968 114.623 83.392 114.751C83.264 114.751 82.24 114.943 82.88 114.879C82.496 114.943 82.176 115.071 82.176 115.519C82.24 117.311 82.24 119.167 82.176 120.959C82.176 122.303 82.112 123.583 82.048 124.927C81.984 125.375 81.984 125.823 81.92 126.271C81.92 126.335 81.92 126.463 81.856 126.527C81.92 126.271 81.856 126.527 81.856 126.591C81.856 126.655 81.792 126.719 81.792 126.783C81.728 126.975 81.92 126.655 81.792 126.783C81.216 127.295 80.512 127.615 79.744 127.679C78.528 127.935 77.312 127.935 76.16 127.807C74.816 127.679 73.536 127.231 72.448 126.463C72 126.143 71.552 125.759 71.232 125.311C70.72 124.735 70.272 123.903 69.312 123.775H69.056C68.992 123.775 68.8 123.711 69.12 123.775L68.8 123.711C68.608 123.647 68.416 123.583 68.224 123.519C68.224 123.519 67.84 123.391 68.096 123.455C67.904 123.391 67.776 123.327 67.584 123.199C66.048 122.431 64.768 121.087 63.872 119.487C63.552 118.975 62.72 118.271 62.08 118.527C61.44 118.783 61.696 119.679 61.952 120.127C63.296 122.431 65.216 124.351 67.52 125.695C68.416 126.207 69.44 126.527 70.464 126.591L68.928 125.567C71.808 129.663 76.928 131.583 81.856 130.303C82.56 130.175 83.264 129.855 83.84 129.407C84.288 128.959 84.544 128.383 84.544 127.743C84.8 125.759 84.928 123.711 84.864 121.727C84.864 120.127 84.864 118.591 84.864 116.991L84.16 117.631C86.464 117.375 88.832 116.287 90.176 114.431C92.48 111.231 91.072 106.111 87.104 104.959C84.928 104.319 83.072 105.535 81.92 107.327L84.416 108.991C84.608 104.575 85.44 99.6472 87.808 95.8712C88.32 95.0392 86.976 93.8232 86.336 93.6312C84.032 92.8632 81.664 92.2872 79.296 91.7752C75.584 91.0072 71.232 90.2392 67.584 91.3912C66.56 91.7112 65.28 92.2872 64.832 93.3112C64.448 94.1432 64.256 95.1032 63.936 95.9992C62.784 99.7112 61.824 103.551 61.184 107.391C60.544 111.423 59.84 116.415 62.08 120.127C62.4 120.639 63.232 121.407 63.872 121.151C64.512 120.895 64.128 119.935 63.872 119.487Z" fill="#909090"/>
<path d="M70.784 100.735C71.232 100.927 71.424 101.503 71.232 101.951C71.232 101.951 71.232 102.015 71.168 102.015C70.656 102.847 69.632 102.207 69.824 101.375C69.888 100.991 70.272 100.671 70.656 100.735C70.72 100.671 70.784 100.735 70.784 100.735Z" fill="#909090"/>
<path d="M77.3118 102.144C77.7598 102.336 77.9518 102.912 77.7598 103.36C77.7598 103.36 77.7598 103.424 77.6958 103.424C77.1838 104.256 76.1598 103.616 76.3518 102.784C76.4158 102.4 76.7998 102.08 77.1838 102.144C77.1838 102.144 77.2478 102.144 77.3118 102.144Z" fill="#909090"/>
<path d="M75.6479 115.199H76.9279C77.1199 115.199 77.3759 115.199 77.5679 115.135C77.7599 115.071 77.9519 115.007 78.1439 114.879C78.3359 114.751 78.4639 114.623 78.5919 114.431C78.7199 114.303 78.7839 114.111 78.8479 113.919V113.535C78.8479 113.279 78.7199 113.023 78.5919 112.831L78.3359 112.575C78.1439 112.447 77.8879 112.319 77.6319 112.319H76.3519C76.1599 112.319 75.9039 112.319 75.7119 112.383C75.5199 112.447 75.3279 112.511 75.1359 112.639C74.9439 112.767 74.8159 112.895 74.6879 113.087C74.5599 113.215 74.4959 113.407 74.4319 113.599L74.3679 113.983C74.3679 114.239 74.4959 114.495 74.6239 114.687L74.8799 114.943C75.1359 115.071 75.3279 115.199 75.6479 115.199Z" fill="#909090"/>
<path d="M74.4959 100.544C74.4959 100.544 84.3519 99.6479 84.4159 100.8C84.4799 101.952 85.5039 107.52 79.4239 107.392C73.3439 107.264 74.4959 100.544 74.4959 100.544Z" fill="#3D3D3D"/>
<path d="M71.936 100.287C71.936 100.287 64.128 97.7914 63.808 98.9434C63.488 100.095 61.568 105.343 66.56 106.239C71.552 107.135 71.936 100.287 71.936 100.287Z" fill="#3D3D3D"/>
<path d="M69.888 112.192C69.888 112.192 59.008 111.808 58.112 105.92C57.216 100.032 65.28 98.8157 70.4 104.512" fill="white"/>
<path d="M69.504 110.847C69.248 110.847 68.992 110.847 68.736 110.783C68.48 110.719 68.16 110.719 67.84 110.719L67.328 110.655C67.2 110.655 66.624 110.527 67.008 110.591C66.112 110.463 65.216 110.207 64.32 109.951L63.68 109.759L63.36 109.631L63.104 109.567L62.912 109.503L62.592 109.375C62.336 109.247 62.144 109.119 61.888 109.055L61.568 108.863C61.312 108.671 61.44 108.799 61.568 108.863C61.376 108.735 61.184 108.607 60.992 108.415L60.736 108.223C60.48 108.031 60.8 108.287 60.736 108.223C60.608 108.031 60.416 107.839 60.288 107.711C60.224 107.647 60.224 107.647 60.16 107.583C60.032 107.391 60.288 107.839 60.224 107.647C60.16 107.455 60.096 107.455 60.032 107.391L59.904 107.071C59.84 106.943 59.904 107.135 59.904 107.135C59.904 107.135 59.84 107.007 59.84 106.943C59.776 106.751 59.712 106.495 59.648 106.303C59.712 106.495 59.648 106.175 59.648 106.111C59.648 105.983 59.648 105.791 59.648 105.663C59.648 105.535 59.648 105.407 59.648 105.279V105.087C59.712 104.831 59.776 104.575 59.84 104.383C59.904 104.255 59.904 104.191 59.968 104.063C59.84 104.255 59.968 103.999 60.032 103.935C60.16 103.743 60.352 103.551 60.48 103.359L60.608 103.231C60.672 103.167 60.8 103.103 60.864 103.039C61.056 102.911 61.312 102.783 61.504 102.655C61.568 102.655 61.824 102.527 61.632 102.591L61.952 102.463C62.208 102.399 62.464 102.335 62.72 102.335C62.784 102.335 63.168 102.271 62.976 102.335C63.104 102.335 63.296 102.335 63.424 102.335C63.744 102.335 64.064 102.335 64.384 102.399L64.576 102.463C64.448 102.463 64.576 102.463 64.64 102.463L65.152 102.591C65.408 102.655 65.92 102.847 66.048 102.847C67.328 103.359 68.544 104.191 69.504 105.279C69.952 105.791 70.848 106.303 71.552 105.855C72.256 105.407 72 104.511 71.552 104.063C69.312 101.631 66.24 99.7753 62.848 99.6473C60.416 99.5833 57.728 100.607 56.96 103.167C56.192 105.727 57.408 108.479 59.392 110.143C61.312 111.615 63.552 112.575 65.92 113.023C67.392 113.343 68.864 113.599 70.4 113.663C70.912 113.727 71.424 113.343 71.488 112.767C71.488 112.639 71.488 112.511 71.424 112.383C71.104 111.487 70.4 110.911 69.504 110.847Z" fill="#909090"/>
<path d="M71.552 102.656C72.96 102.72 74.368 102.912 75.776 103.168C76.096 103.232 76.48 103.104 76.672 102.784C76.864 102.528 76.992 102.144 76.928 101.76C76.864 100.928 76.224 100.288 75.456 100.096C74.048 99.8397 72.64 99.6477 71.232 99.5837C70.912 99.5197 70.528 99.7117 70.336 99.9677C70.08 100.224 70.016 100.608 70.08 100.992C70.144 101.44 70.336 101.824 70.592 102.144C70.784 102.4 71.168 102.592 71.552 102.656Z" fill="#3D3D3D"/>
<path d="M276.992 277.824L277.632 280.32C277.632 280.32 284.032 285.12 285.504 285.696C286.976 286.272 295.872 289.856 292.672 290.752C289.472 291.648 260.864 292.608 260.16 290.304C259.456 288 263.04 278.784 263.04 278.784L276.992 277.824Z" fill="white"/>
<path d="M275.456 277.76L275.84 279.168C275.904 279.744 276.096 280.256 276.48 280.704C277.056 281.216 277.696 281.664 278.336 282.048C280.448 283.584 282.624 285.44 285.056 286.464C286.08 286.912 286.784 287.168 287.616 287.552C288.256 287.872 288.896 288.128 289.536 288.448C289.792 288.576 290.048 288.704 290.304 288.896C290.432 288.96 290.624 289.088 290.752 289.152C290.88 289.216 291.136 289.408 290.944 289.28C291.136 289.408 291.328 289.6 291.584 289.728C291.648 289.728 291.84 289.984 291.712 289.856C291.584 289.728 291.776 289.984 291.84 289.984C291.904 289.984 291.904 289.984 291.84 289.984C291.712 289.984 291.52 290.048 291.392 290.112L291.072 290.176L290.496 290.24C285.568 290.752 280.576 291.008 275.584 290.944C273.024 290.944 270.016 290.944 267.264 290.816C266.112 290.752 265.024 290.688 263.872 290.56L263.168 290.496H263.04C263.296 290.496 262.912 290.496 262.784 290.432C262.4 290.368 262.08 290.304 261.696 290.24C261.44 290.176 262.08 290.368 261.632 290.24C261.568 290.24 261.504 290.176 261.44 290.176C261.248 290.176 261.824 290.368 261.568 290.24C261.248 290.048 261.76 290.368 261.568 290.24C261.632 290.304 261.696 290.368 261.76 290.432C261.76 290.048 261.696 289.664 261.76 289.216C261.824 288.576 261.952 287.936 262.08 287.296C262.72 284.672 263.488 282.112 264.448 279.616L264.64 279.104L263.744 279.616L275.904 278.784L277.632 278.656C278.144 278.592 278.784 278.272 278.4 277.696C278.016 277.12 276.928 276.928 276.288 276.992L264.128 277.824L262.4 277.952C262.016 277.952 261.632 278.144 261.504 278.464C260.736 280.448 260.096 282.432 259.52 284.48C259.072 285.824 258.816 287.232 258.624 288.64C258.56 289.472 258.496 290.368 259.2 290.944C260.544 292.032 262.72 292.16 264.384 292.288C266.944 292.544 269.504 292.608 272.064 292.608C277.696 292.672 283.392 292.544 289.024 292.16C290.624 292.16 292.16 291.968 293.696 291.584C294.656 291.264 295.296 290.624 294.656 289.664C294.016 288.704 292.736 288.128 291.712 287.616C290.432 286.976 289.152 286.336 287.808 285.824L286.4 285.248L286.208 285.184C285.952 285.056 286.528 285.376 286.272 285.248C286.016 285.12 285.888 285.056 285.76 284.928C284.736 284.352 283.648 283.52 282.496 282.752C281.344 281.984 280.384 281.216 279.296 280.448L278.784 280.064L279.104 280.512L278.464 278.08C278.272 276.928 275.136 276.608 275.456 277.76Z" fill="#909090"/>
<path d="M211.328 280.064C211.328 280.064 204.864 292.736 206.848 292.992C208.832 293.248 229.056 293.76 228.864 291.52C228.672 289.28 224.896 279.36 224.896 279.36L211.328 280.064Z" fill="white"/>
<path d="M209.728 280.384C208.192 283.264 206.848 286.272 205.696 289.344C205.376 290.176 205.12 291.008 204.928 291.84C204.864 292.224 204.672 292.864 204.992 293.184C205.312 293.504 205.76 293.376 206.144 293.44C206.784 293.504 207.488 293.504 208.128 293.504C212.48 293.632 216.896 293.632 221.312 293.376C223.424 293.312 225.6 292.992 227.648 292.544C228.48 292.352 230.464 292.032 230.272 290.816C229.888 288.448 228.928 286.144 228.096 283.84C227.52 282.176 226.944 280.576 226.304 278.912C226.24 278.784 225.856 278.848 225.792 278.848L212.288 279.616C211.52 279.68 210.752 279.808 210.048 280.064C209.6 280.256 209.536 280.384 210.112 280.384L223.616 279.616L223.104 279.552C224.384 282.88 225.6 286.272 226.624 289.728C226.88 290.368 227.072 291.072 227.072 291.776C227.072 291.904 227.008 291.968 226.944 292.032C226.88 292.096 226.816 292.096 226.88 292.096C226.816 292.096 226.816 292.16 226.752 292.16C226.56 292.288 226.944 292.032 226.752 292.16C226.56 292.288 226.944 292.096 226.816 292.16C226.688 292.224 226.496 292.224 226.88 292.16C226.432 292.224 227.2 292.096 226.752 292.16C227.136 292.096 226.752 292.16 226.624 292.16C226.304 292.224 226.56 292.16 226.624 292.16L226.304 292.224C225.408 292.352 224.704 292.416 223.744 292.48C219.584 292.736 215.424 292.736 211.264 292.608C210.56 292.608 209.856 292.608 209.216 292.544L208.512 292.48H208.256C208.064 292.48 208.256 292.544 208.192 292.48C207.488 291.84 208.32 289.984 208.512 289.28C209.728 285.952 211.136 282.752 212.8 279.616C212.288 279.616 211.712 279.616 211.2 279.744C210.88 279.936 209.92 280 209.728 280.384Z" fill="#909090"/>
<path d="M223.36 180.992C223.36 180.992 216.512 218.176 207.808 282.368C207.808 282.368 230.784 284.48 231.296 281.664C231.808 278.848 238.272 230.08 243.584 207.936C243.584 207.936 259.968 264.128 259.968 280.96C259.968 280.96 280.64 281.92 281.6 279.552C282.56 277.184 269.44 200.96 261.056 181.76L223.36 180.992Z" fill="#909090"/>
<path d="M222.08 180.224C221.824 181.632 221.568 183.04 221.312 184.384C220.608 188.48 219.904 192.512 219.2 196.608C218.112 203.2 217.024 209.792 216 216.384C214.592 225.344 213.248 234.304 211.904 243.264C210.24 254.464 208.64 265.664 207.104 276.864C206.912 278.464 206.656 280 206.464 281.6C206.464 282.624 207.168 283.52 208.256 283.712C213.376 284.16 218.56 284.48 223.68 284.48C225.28 284.48 226.88 284.416 228.48 284.224C229.504 284.16 230.528 283.968 231.488 283.584C232.768 282.944 232.704 281.536 232.832 280.32C233.664 274.432 234.56 268.608 235.392 262.72C236.672 253.824 238.08 244.992 239.552 236.16C240.96 227.776 242.432 219.392 244.288 211.136C244.48 210.304 244.672 209.472 244.864 208.64L242.432 207.872C243.008 209.792 243.52 211.648 244.032 213.568C245.376 218.304 246.656 223.04 247.936 227.712C249.536 233.792 251.136 239.872 252.608 246.016C254.08 252.224 255.488 258.432 256.704 264.64C257.728 269.376 258.368 274.24 258.688 279.104C258.688 279.296 258.688 279.552 258.688 279.744C258.688 279.872 258.688 280 258.688 280.064V280.128C258.688 281.088 259.456 282.176 260.48 282.24C263.616 282.368 266.688 282.432 269.824 282.432C272.192 282.432 274.496 282.368 276.864 282.176C278.464 282.048 280.32 281.984 281.856 281.28C282.56 281.024 283.008 280.384 282.944 279.616C282.944 278.784 282.88 277.952 282.816 277.184C282.496 274.368 282.112 271.552 281.664 268.736C280.256 259.392 278.592 250.112 276.864 240.896C274.816 230.08 272.64 219.264 270.144 208.576C268.224 200.192 266.24 191.68 263.168 183.68C262.912 183.04 262.656 182.4 262.4 181.76C262.144 181.12 261.504 180.352 260.736 180.288L248 180.032L227.712 179.648L223.04 179.584C221.376 179.52 222.784 182.336 224 182.336L236.736 182.592L257.024 182.976L261.696 183.04L259.968 181.632C261.248 184.704 262.336 187.904 263.296 191.168C264.576 195.456 265.728 199.872 266.752 204.096C269.312 214.592 271.488 225.216 273.536 235.776C275.392 245.376 277.12 255.04 278.656 264.64C279.168 267.84 279.68 271.104 280.064 274.304C280.192 275.328 280.32 276.352 280.384 277.376C280.384 277.696 280.448 278.016 280.448 278.336C280.448 278.656 280.448 278.336 280.448 278.208C280.448 278.272 280.448 278.336 280.448 278.4C280.448 278.464 280.448 278.592 280.448 278.656C280.512 278.912 280.448 278.272 280.448 278.592C280.448 278.336 280.64 278.464 280.448 278.592C280.384 278.592 280.384 278.656 280.32 278.656C280.192 278.72 280.576 278.592 280.256 278.656C279.616 278.912 278.976 279.04 278.336 279.168C276.288 279.488 274.24 279.616 272.128 279.616C268.16 279.744 264.256 279.68 260.288 279.488H259.584L261.376 281.6C261.376 276.928 260.608 272.256 259.776 267.712C258.688 261.504 257.28 255.424 255.872 249.28C254.336 242.88 252.736 236.544 251.072 230.208C249.728 225.152 248.384 220.096 246.976 215.04C246.336 212.672 245.76 210.304 244.992 208C244.992 208 244.992 207.936 244.992 207.872C244.736 207.04 242.88 205.568 242.56 207.104C240.64 214.976 239.232 222.912 237.888 230.912C236.352 239.808 234.944 248.704 233.664 257.6C232.704 264.064 231.744 270.528 230.848 277.056C230.656 278.336 230.528 279.616 230.272 280.896C230.272 281.088 230.336 280.576 230.272 280.832C230.272 280.896 230.464 280.64 230.272 280.768C230.08 280.896 229.824 281.024 230.144 280.896C229.76 281.088 229.312 281.216 228.864 281.28C227.648 281.536 226.368 281.664 225.088 281.664C219.328 281.792 213.632 281.6 207.872 281.024H207.552L209.344 283.136C210.88 271.616 212.544 260.096 214.208 248.64C215.552 239.36 216.96 230.144 218.432 220.864C219.52 213.952 220.608 207.104 221.76 200.192C222.464 195.776 223.232 191.424 224 187.008C224.32 185.28 224.768 183.552 224.96 181.824V181.76C224.896 180.48 222.4 178.624 222.08 180.224Z" fill="#909090"/>
<path d="M206.72 150.656C206.72 150.656 209.792 128.832 242.496 123.776C275.2 118.72 278.848 144.768 278.592 157.632L262.912 157.888C262.912 157.888 264.768 181.504 263.04 182.336C261.312 183.168 222.016 181.696 222.016 181.696L223.168 153.152L206.72 150.656Z" fill="white"/>
<path d="M207.68 151.744C207.808 150.976 208 150.208 208.256 149.44C208.32 149.248 208.384 149.12 208.448 148.928C208.576 148.608 208.512 148.8 208.64 148.416C208.768 148.032 208.96 147.52 209.216 147.072C209.664 145.984 210.24 144.96 210.816 143.936C214.528 137.664 220.416 133.056 226.944 129.984C232.064 127.68 237.504 126.08 243.072 125.248C248.192 124.48 253.44 124.288 258.496 125.376C262.208 126.144 265.728 127.808 268.608 130.24C269.248 130.752 269.824 131.328 270.336 131.904C270.592 132.16 270.848 132.48 271.104 132.8C271.168 132.864 271.36 133.056 271.168 132.864L271.36 133.056C271.488 133.248 271.616 133.44 271.744 133.632C272 133.952 272.256 134.272 272.448 134.656L272.768 135.104L272.896 135.296L273.024 135.488C273.472 136.192 273.856 136.96 274.24 137.728C274.304 137.92 274.432 138.112 274.496 138.304C274.368 137.984 274.56 138.496 274.624 138.624C274.816 139.008 274.944 139.392 275.136 139.84C275.456 140.608 275.712 141.376 275.904 142.144L275.968 142.464C276.032 142.656 276.096 142.848 276.096 143.04C276.224 143.424 276.288 143.872 276.416 144.256C276.608 145.024 276.736 145.856 276.928 146.624C277.184 148.032 277.312 149.248 277.504 150.848C277.632 152.256 277.696 153.664 277.696 155.072C277.696 155.712 277.696 156.288 277.696 156.928L278.144 156.224L264.448 156.48L262.464 156.544C262.08 156.544 262.016 156.928 262.016 157.248C262.336 161.408 262.592 165.568 262.72 169.728C262.848 172.544 262.912 175.36 262.784 178.176C262.784 179.008 262.656 179.84 262.528 180.608C262.528 180.736 262.336 181.056 262.464 180.8C262.464 180.928 262.4 180.992 262.336 181.056C262.144 181.056 262.464 180.928 262.336 181.056C260.992 181.248 259.648 181.312 258.24 181.248C255.744 181.248 253.248 181.248 250.752 181.184C244.672 181.056 238.656 180.864 232.576 180.672C230.208 180.608 227.776 180.544 225.408 180.416C224.192 180.352 222.912 180.224 221.696 180.288H221.504L223.04 182.528L223.424 172.928L224.064 157.568L224.192 154.048C224.192 153.28 223.488 151.936 222.656 151.808L208.256 149.632L206.144 149.312C205.44 149.184 205.76 150.464 205.888 150.72C206.08 151.296 206.592 152.128 207.232 152.192L221.632 154.368L223.744 154.688L222.208 152.448L221.824 162.112L221.184 177.472L221.056 180.992C221.056 181.696 221.76 183.168 222.592 183.232L231.872 183.552C237.952 183.744 244.032 183.936 250.176 184.064C252.864 184.128 255.552 184.128 258.176 184.128C259.776 184.192 261.376 184.128 262.976 184C263.36 184 263.808 183.872 264.064 183.552C264.384 182.912 264.576 182.272 264.576 181.568C264.768 178.944 264.832 176.384 264.704 173.76C264.64 170.752 264.448 167.68 264.32 164.672C264.192 162.816 264.192 160.832 263.936 158.976C263.936 158.912 263.936 158.784 263.936 158.72L263.488 159.424L277.184 159.168H279.168C279.552 159.168 279.616 158.784 279.616 158.464C279.744 152.128 278.976 145.728 276.672 139.84C273.92 132.736 268.864 126.656 261.632 123.84C257.088 122.176 252.288 121.536 247.488 121.856C241.472 122.176 235.52 123.392 229.888 125.44C222.208 128.192 215.04 132.8 210.304 139.584C208.896 141.568 207.744 143.744 206.912 145.984C206.4 147.136 206.08 148.352 205.824 149.568C205.824 149.632 205.824 149.696 205.824 149.696C205.76 150.464 206.08 151.232 206.592 151.744C206.784 152 207.552 152.448 207.68 151.744Z" fill="#909090"/>
<path d="M257.088 156.096C257.088 156.096 239.744 172.416 224.448 172.8C209.152 173.184 202.56 164.288 206.72 150.656L223.232 153.152L224.064 155.84C229.568 153.728 235.2 152.128 241.024 151.104C246.848 149.952 252.864 151.808 257.088 156.096Z" fill="white"/>
<path d="M256.128 154.752C254.336 156.416 252.416 158.016 250.432 159.488C246.272 162.752 241.728 165.568 236.928 167.872C231.744 170.304 226.176 171.776 220.352 171.328C217.856 171.2 215.488 170.56 213.184 169.6C212.224 169.152 211.328 168.64 210.56 167.936C209.92 167.36 209.28 166.72 208.768 166.016C208.192 165.248 207.744 164.352 207.424 163.456C207.04 162.368 206.784 161.216 206.72 160.064C206.528 157.184 206.912 154.24 207.872 151.488L207.04 152.064L221.44 154.24L223.552 154.56L221.952 153.024L222.784 155.712C222.976 156.288 223.872 157.568 224.64 157.248C228.544 155.648 232.576 154.432 236.736 153.536C240.192 152.704 243.776 151.872 247.36 152.384C249.728 152.704 251.968 153.6 253.952 154.88C254.336 155.136 254.72 155.456 255.104 155.712C255.168 155.776 255.488 156.032 255.168 155.776L255.424 155.968C255.552 156.096 255.68 156.224 255.808 156.352C256.064 156.544 256.32 156.8 256.512 157.056C256.896 157.504 257.792 157.824 258.176 157.248C258.56 156.672 257.984 155.712 257.6 155.264C255.232 152.576 251.584 150.848 248.192 150.016C244.608 149.12 241.152 149.632 237.568 150.4C234.24 151.104 230.976 152 227.712 153.024C226.24 153.536 224.768 153.984 223.296 154.624L225.152 156.16L224.32 153.472C224.128 152.704 223.488 152.128 222.72 151.936L208.32 149.76L206.208 149.44C205.824 149.376 205.44 149.632 205.376 150.016C203.904 155.008 203.456 160.512 205.824 165.312C208.128 169.92 212.544 172.672 217.408 173.76C229.312 176.448 240.832 170.496 250.24 163.712C252.928 161.792 255.488 159.744 257.92 157.504C258.496 156.992 258.176 156.16 257.792 155.648C257.6 155.072 256.704 154.304 256.128 154.752Z" fill="#909090"/>
<path d="M278.592 157.633C278.592 157.633 277.952 168.001 269.952 173.825C261.952 179.649 239.552 168.065 239.552 168.065L257.088 156.097L262.912 157.953L278.592 157.633Z" fill="white"/>
<path d="M277.12 157.312C277.12 157.504 277.056 157.696 277.056 157.888C277.056 158.08 277.12 157.632 277.056 157.952C277.056 158.08 277.056 158.208 276.992 158.272C276.928 158.592 276.928 158.912 276.864 159.168C276.544 160.896 276.032 162.56 275.328 164.224C274.432 166.336 273.28 168.32 271.744 170.048C270.912 171.008 269.952 171.84 268.928 172.608C268.352 173.056 267.712 173.376 267.072 173.568C263.808 174.656 260.096 174.016 256.704 173.248C252.992 172.352 249.344 171.136 245.76 169.6C243.776 168.768 241.792 167.872 239.808 166.912L240.512 169.28L256 158.72L258.176 157.248L257.152 157.376L261.632 158.784C262.208 159.04 262.784 159.168 263.36 159.232C263.68 159.232 263.936 159.232 264.256 159.232L275.52 159.04L279.04 158.976C279.616 158.976 280.064 158.528 280.128 157.952C280.128 157.824 280.128 157.696 280.064 157.568C279.808 156.8 279.104 156.224 278.272 156.224L269.376 156.352L264.064 156.416C263.616 156.416 263.168 156.416 262.72 156.416C262.4 156.48 262.912 156.48 262.912 156.416C262.72 156.288 262.464 156.224 262.208 156.16C260.544 155.648 258.944 155.008 257.216 154.56C256.256 154.304 255.68 154.944 254.976 155.456L245.888 161.664L238.528 166.656C237.504 167.36 238.464 168.64 239.232 169.024C244.544 171.776 250.112 173.952 255.872 175.424C259.712 176.384 263.936 177.152 267.84 176.192C269.76 175.68 271.552 174.656 272.96 173.184C274.816 171.392 276.352 169.344 277.504 167.04C278.976 164.16 279.872 161.024 280.128 157.824C280.128 156.48 277.248 155.456 277.12 157.312Z" fill="#909090"/>
<path d="M255.68 108.48C255.68 108.48 258.88 93.2483 245.888 89.4083C232.896 85.5683 218.24 97.2803 219.52 113.472C220.8 129.664 240.704 129.088 240.704 129.088L255.68 108.48Z" fill="#909090"/>
<path d="M256.768 109.568C258.304 102.272 255.68 93.8242 249.152 89.8562C244.288 86.8482 238.08 86.7202 232.832 88.7682C227.328 90.9442 222.912 95.1682 220.416 100.608C217.92 106.048 217.408 112.832 219.712 118.4C221.632 122.944 225.472 126.336 229.888 128.256C233.024 129.536 236.352 130.304 239.744 130.432C240.192 130.496 241.088 130.688 241.536 130.432C241.728 130.368 241.856 130.112 241.92 129.984L242.88 128.704L256.256 110.272L256.576 109.824C257.152 108.992 254.976 106.752 254.592 107.328L242.944 123.392L240.32 127.04C240.064 127.296 239.872 127.616 239.68 127.936C239.68 128 239.616 128 239.616 128.064C239.744 127.936 239.872 128 239.68 128C238.912 127.936 238.144 127.936 237.376 127.936C235.904 127.808 234.496 127.616 233.088 127.296C231.36 126.912 229.632 126.336 228.032 125.568C227.2 125.184 226.368 124.672 225.6 124.16C224.832 123.648 224.064 123.008 223.424 122.304C223.104 121.92 223.552 122.432 223.36 122.24L223.104 121.984C222.976 121.792 222.784 121.6 222.656 121.344C222.784 121.536 222.464 121.024 222.4 120.896C222.272 120.704 222.144 120.448 222.016 120.256C221.504 119.232 221.12 118.208 220.864 117.12C220.224 114.24 220.224 111.232 220.864 108.288C221.952 102.656 225.152 97.6002 229.824 94.2082C234.112 91.0722 239.68 89.4722 244.928 90.5602C246.272 90.8162 247.616 91.2642 248.832 91.8402C249.856 92.3522 250.752 92.9922 251.584 93.7602C251.648 93.8242 252.096 94.3363 251.968 94.1443C252.16 94.3363 252.288 94.5283 252.48 94.7843C252.608 94.9123 252.672 95.0402 252.8 95.2322L252.928 95.4882C252.928 95.5522 253.248 96.0002 253.12 95.8082C253.568 96.6402 253.952 97.5362 254.208 98.4322C254.976 101.248 255.104 104.192 254.656 107.072C254.656 107.264 254.592 107.392 254.592 107.584C254.464 108.224 255.04 108.992 255.488 109.376C255.68 109.312 256.64 110.144 256.768 109.568Z" fill="#909090"/>
<path d="M257.088 121.664C260.864 115.456 254.016 95.9998 254.016 95.9998C250.112 91.3278 233.536 96.8319 233.536 96.8319C236.608 101.632 236.992 110.208 236.992 110.208C234.368 105.856 229.248 108.608 230.144 113.024C231.04 117.44 236.544 118.08 236.544 118.08C236.544 118.08 236.352 127.872 236.992 129.6C237.632 131.328 246.4 132.8 250.176 127.104C250.112 127.104 253.76 127.104 257.088 121.664Z" fill="white"/>
<path d="M258.304 122.624C259.072 121.152 259.456 119.552 259.456 117.888C259.52 115.84 259.392 113.728 259.072 111.68C258.496 107.712 257.536 103.808 256.384 99.9684C256.064 98.8164 255.68 97.6644 255.296 96.5124C254.848 95.2964 253.888 94.3364 252.736 93.8244C249.28 92.0964 244.864 92.7364 241.216 93.3764C238.272 93.8884 235.456 94.5924 232.64 95.5524C231.936 95.8084 232.256 96.7044 232.512 97.1524C233.984 99.5204 234.624 102.336 235.136 105.024C235.328 106.112 235.456 107.2 235.584 108.352C235.584 108.544 235.584 108.736 235.648 108.928C235.648 108.8 235.648 109.248 235.648 108.928C235.648 108.992 235.648 109.056 235.648 109.12V109.504L237.888 109.888C236.8 108.16 234.944 106.56 232.768 106.624C231.104 106.752 229.632 107.776 229.056 109.312C227.52 113.088 230.464 117.056 233.856 118.528C234.88 118.976 235.904 119.296 237.056 119.424L235.2 117.376C235.072 120.896 235.136 124.416 235.456 127.872C235.456 129.664 236.672 131.264 238.4 131.776C240.32 132.48 242.432 132.672 244.416 132.288C247.232 131.904 249.728 130.368 251.328 128L250.688 128.384C251.584 128.32 252.48 128.064 253.248 127.616C255.296 126.464 257.088 124.736 258.304 122.624C258.88 121.6 256.576 119.424 255.808 120.704C254.336 123.072 252.352 125.12 249.6 125.76C249.28 125.824 249.792 125.696 249.472 125.76C249.088 125.888 248.768 126.144 248.576 126.464C248.32 126.784 248 127.104 247.744 127.424C246.656 128.384 245.376 129.088 243.968 129.472C242.752 129.792 241.472 129.92 240.256 129.792C239.808 129.792 239.296 129.728 238.848 129.6C238.592 129.536 238.4 129.472 238.144 129.408C238.08 129.408 237.76 129.216 238.08 129.408C237.952 129.344 237.824 129.28 237.76 129.216C237.376 129.024 237.952 129.344 237.696 129.152C238.016 129.344 237.824 129.216 238.016 129.536C238.272 129.984 238.144 129.792 238.08 129.664C238.272 129.984 238.08 129.664 238.08 129.472C238.08 129.28 238.016 129.024 238.016 128.832C237.888 127.68 237.888 126.464 237.824 125.248C237.76 123.136 237.76 121.024 237.824 118.912C237.76 117.888 236.992 117.056 235.968 116.864H235.776C236.16 116.928 235.712 116.864 235.52 116.8C234.944 116.672 234.432 116.48 233.856 116.288C232.768 115.904 231.872 115.072 231.488 113.984C230.976 112.512 231.488 110.848 232.768 109.952C233.664 109.248 235.008 109.376 235.776 110.336C235.84 110.464 235.904 110.528 235.968 110.656C236.288 111.168 236.8 111.552 237.376 111.68C237.76 111.744 238.272 111.552 238.272 111.04C238.08 106.176 237.12 100.864 234.496 96.7044L234.368 98.3044C236.48 97.6004 238.656 97.0244 240.832 96.5764C244.224 95.8724 248.256 95.1044 251.584 95.9364L252.096 96.0644L252.416 96.1924C252.224 96.1284 252.608 96.2564 252.416 96.1924C252.608 96.2564 252.736 96.3204 252.864 96.4484C253.184 96.5764 252.736 96.3844 253.056 96.5764C253.12 96.6404 253.184 96.7044 253.248 96.7044C252.928 96.4484 253.12 96.5764 253.184 96.6404C253.44 97.0884 252.864 95.8084 252.864 96.1284C252.864 96.1924 252.928 96.2564 252.928 96.3204C252.992 96.6404 253.12 96.9604 253.248 97.2804C253.376 97.6004 253.376 97.7924 253.504 98.0484C253.568 98.1764 253.568 98.3044 253.632 98.4324V98.5604C253.568 98.3684 253.696 98.6884 253.696 98.7524C254.784 102.272 255.68 105.856 256.32 109.504C256.704 111.616 256.896 113.792 256.896 115.968C256.96 117.696 256.576 119.36 255.808 120.832C255.232 121.728 257.536 123.904 258.304 122.624Z" fill="#909090"/>
<path d="M249.216 102.592C248.768 102.784 248.576 103.36 248.768 103.808C248.768 103.808 248.768 103.872 248.832 103.872C249.344 104.704 250.368 104.064 250.176 103.232C250.112 102.848 249.728 102.528 249.344 102.592C249.28 102.592 249.216 102.592 249.216 102.592Z" fill="#909090"/>
<path d="M242.688 104C242.24 104.192 242.048 104.768 242.24 105.216C242.24 105.216 242.24 105.28 242.304 105.28C242.816 106.112 243.84 105.472 243.648 104.64C243.584 104.256 243.2 103.936 242.816 104C242.816 104 242.752 104 242.688 104Z" fill="#909090"/>
<path d="M244.352 114.24H243.072C242.88 114.24 242.624 114.24 242.432 114.304C242.24 114.368 242.048 114.432 241.856 114.56C241.664 114.688 241.536 114.816 241.472 115.008C241.344 115.136 241.28 115.328 241.216 115.52V115.904C241.216 116.16 241.344 116.416 241.472 116.608L241.728 116.864C241.92 116.992 242.176 117.12 242.432 117.12H243.712C243.904 117.12 244.16 117.12 244.352 117.056C244.544 116.992 244.736 116.928 244.928 116.8C245.12 116.672 245.248 116.544 245.312 116.352C245.44 116.224 245.504 116.032 245.568 115.84V115.456C245.568 115.2 245.44 114.944 245.312 114.752L245.056 114.496C244.864 114.368 244.608 114.24 244.352 114.24Z" fill="#909090"/>
<path d="M245.504 102.4C245.504 102.4 235.648 101.504 235.584 102.656C235.52 103.808 234.496 109.376 240.576 109.248C246.656 109.12 245.504 102.4 245.504 102.4Z" fill="#3D3D3D"/>
<path d="M248.064 102.144C248.064 102.144 255.872 99.6478 256.192 100.8C256.512 101.952 258.432 107.2 253.44 108.096C248.448 108.992 248.064 102.144 248.064 102.144Z" fill="#3D3D3D"/>
<path d="M250.112 114.048C250.112 114.048 260.992 113.664 261.888 107.776C262.784 101.888 254.72 100.672 249.6 106.368" fill="white"/>
<path d="M250.496 115.392C253.824 115.264 257.664 114.56 260.416 112.64C262.528 111.36 263.616 108.928 263.296 106.496C262.848 103.616 260.288 101.824 257.536 101.44C254.016 101.056 250.624 102.912 248.32 105.408C247.296 106.56 249.728 108.544 250.816 107.392C251.776 106.368 252.864 105.472 254.144 104.896C254.656 104.64 255.232 104.448 255.808 104.32C256.128 104.256 256.384 104.192 256.704 104.128L257.088 104.064C256.896 104.064 257.28 104.064 257.344 104.064C257.6 104.064 257.856 104.064 258.112 104.064L258.368 104.128L258.688 104.192L259.008 104.256C259.136 104.32 259.328 104.384 259.072 104.256L259.392 104.384C259.456 104.448 259.776 104.64 259.584 104.512C259.392 104.384 260.032 104.896 259.84 104.704C259.648 104.512 259.904 104.768 259.968 104.832C260.032 104.896 260.16 105.152 260.032 104.896L260.16 105.152C260.224 105.28 260.288 105.472 260.224 105.216C260.288 105.344 260.288 105.408 260.352 105.536C260.416 105.664 260.416 105.92 260.416 105.856C260.416 105.92 260.416 106.048 260.416 106.112C260.416 106.24 260.416 106.368 260.416 106.496C260.416 106.624 260.416 106.752 260.416 106.88C260.416 106.944 260.416 107.072 260.352 107.136C260.288 107.328 260.224 107.584 260.16 107.776C260.096 107.904 260.096 107.968 260.032 108.096C260.032 108.16 259.968 108.224 259.968 108.224C259.904 108.416 260.032 108.096 259.968 108.224C259.712 108.608 259.456 108.992 259.072 109.376L258.816 109.632L258.688 109.76C258.496 109.888 258.304 110.08 258.112 110.208C257.728 110.464 257.28 110.72 256.832 110.912C256.64 111.04 256.384 111.104 256.192 111.168C256 111.232 255.808 111.296 255.68 111.36C254.784 111.68 253.888 111.936 252.928 112.128C252.096 112.32 251.264 112.384 250.368 112.512L249.92 112.576C249.792 112.576 250.24 112.576 249.92 112.576H249.664C247.68 112.64 248.896 115.328 250.432 115.264L250.496 115.392Z" fill="#909090"/>
<path d="M248.128 101.504C246.72 101.568 245.312 101.76 243.904 102.016C243.2 102.208 242.88 102.976 243.072 103.616C243.072 103.68 243.136 103.68 243.136 103.744C243.392 104.448 244.096 105.152 244.864 105.024C246.272 104.768 247.68 104.576 249.088 104.512C249.408 104.448 249.728 104.192 249.856 103.872C249.984 103.488 249.984 103.104 249.856 102.72C249.728 102.336 249.472 101.952 249.152 101.696L248.832 101.504C248.576 101.504 248.384 101.504 248.128 101.504Z" fill="#3D3D3D"/>
</svg>
