<svg width="320" height="320" viewBox="0 0 320 320" fill="none" xmlns="http://www.w3.org/2000/svg">
<path d="M118.208 167.296C115.264 154.624 99.5842 146.624 88.0002 153.472C85.5042 154.944 83.1362 157.184 82.1122 160C81.0242 162.88 81.7282 166.016 84.7362 167.296C86.1442 167.808 87.6162 168.064 89.1522 168C90.8802 168 92.5442 167.424 93.2482 165.76C94.3362 163.072 92.9282 160 91.2642 157.952C87.4242 153.216 78.5282 150.208 73.6002 155.008C73.1522 155.456 73.1522 156.224 73.6002 156.672C73.6642 156.736 73.7282 156.8 73.7922 156.864C74.4962 157.312 75.4562 157.184 76.0322 156.608C77.5042 155.136 79.8082 155.072 81.7282 155.52C83.8402 155.968 85.8242 156.992 87.4242 158.4C88.9602 159.744 90.3682 161.792 90.4322 163.904C90.4322 164.608 90.3682 165.44 89.5362 165.44C88.4482 165.504 87.3602 165.376 86.2722 164.992C84.2242 164.16 84.6082 161.664 85.4402 160.064C86.5922 158.016 88.3202 156.352 90.4322 155.328C94.7842 153.024 99.9042 153.28 104.32 155.264C109.44 157.568 113.792 162.304 115.072 167.808C115.264 168.576 116.032 169.088 116.8 168.896C117.44 168.704 118.4 168.064 118.208 167.296Z" fill="#CECECE"/>
<path d="M112.064 180.415C105.024 179.839 98.3041 182.527 92.9281 186.879C90.2401 189.055 87.8081 191.615 85.7601 194.431C84.6721 195.967 83.3921 197.631 83.0721 199.551C82.8161 201.471 83.3921 203.391 84.7361 204.799C85.5041 205.695 86.9121 206.591 88.1921 206.015C89.7281 205.247 89.3441 203.199 88.8321 201.919C88.2561 200.191 86.8481 198.783 85.1201 198.207C83.3281 197.695 81.4721 197.503 79.6161 197.503C71.9361 197.183 64.3841 199.423 58.0481 203.839C51.5841 208.511 46.8481 215.167 44.6721 222.847C44.5441 223.423 45.0561 224.255 45.3121 224.767C45.3761 224.895 46.1441 225.983 46.2721 225.535C50.8801 209.151 66.6881 198.591 83.5841 200.575C84.4161 200.639 85.1841 200.767 86.0161 200.959C86.4001 201.023 86.7201 201.151 87.0401 201.279C87.1681 201.343 87.3601 201.407 87.4881 201.471C87.5521 201.535 88.0001 201.919 88.1281 201.919L87.8081 201.279C87.8081 201.343 87.8081 201.343 87.8081 201.407C87.8081 201.599 87.7441 201.727 87.7441 201.919C87.6801 202.239 87.5521 202.495 87.3601 202.687C86.9121 203.135 86.3361 203.327 85.6961 203.199C85.4401 203.135 85.1841 203.071 84.9281 202.943C84.7361 202.879 84.4801 202.495 84.3521 202.495L84.7361 203.391L84.6721 203.071C84.7361 202.815 84.6721 202.559 84.7361 202.303C84.8001 201.791 84.9921 201.279 85.1841 200.831C85.8881 199.295 86.7841 197.887 87.8721 196.607C89.7281 194.111 91.9041 191.871 94.3361 189.887C99.7121 185.535 106.432 182.655 113.472 183.231C113.984 183.295 113.472 182.207 113.408 182.015C113.024 181.759 112.576 180.479 112.064 180.415Z" fill="#CECECE"/>
<path d="M198.336 182.465C215.424 151.297 226.624 93.4409 226.624 93.4409C210.368 77.4409 184.768 75.7129 184.768 75.7129C184.768 75.7129 151.168 124.417 138.688 167.681C133.824 184.641 132.16 199.297 132.16 211.137C132.736 210.689 133.312 210.241 133.952 209.793C139.136 205.889 146.112 202.049 151.744 205.249C157.632 208.641 157.504 217.217 155.584 223.809C155.072 225.537 154.496 227.265 153.856 228.929C157.376 226.753 161.216 224.961 165.12 223.617C177.088 212.161 190.272 197.121 198.336 182.465Z" fill="#CECECE"/>
<path d="M199.872 182.464C205.056 172.992 208.96 162.816 212.48 152.576C216 142.336 219.008 131.84 221.76 121.344C223.744 113.792 225.536 106.176 227.136 98.5602C227.456 96.9602 227.84 95.2962 228.16 93.6962C228.224 93.5682 228.224 93.5042 228.224 93.3762C228.16 93.1842 227.968 92.9922 227.84 92.8642C227.264 92.2882 226.688 91.7762 226.048 91.2642C223.808 89.3442 221.44 87.5522 218.88 86.0162C210.496 80.8322 200.896 77.6322 191.232 76.0322C189.376 75.7122 187.456 75.4562 185.6 75.2642C184.576 75.2002 183.616 75.3282 183.04 76.1602C182.656 76.6722 182.336 77.2482 181.952 77.7602C178.048 83.5842 174.336 89.5362 170.752 95.5522C164.8 105.472 159.232 115.584 154.112 125.888C148.224 137.472 143.168 149.504 139.072 161.856C134.656 175.104 131.904 188.928 130.944 202.88C130.752 205.696 130.624 208.512 130.624 211.328C130.624 212.096 133.248 211.584 133.632 211.328C136.256 209.28 139.008 207.232 142.016 205.888C144.64 204.672 147.392 204.096 150.08 205.504C154.816 208 155.584 214.016 155.072 218.816C154.624 222.336 153.728 225.728 152.384 228.992C152.064 229.888 155.008 229.312 155.328 229.12C157.248 227.968 159.168 226.88 161.216 225.984C162.176 225.536 163.2 225.152 164.16 224.768C165.12 224.384 166.272 224.192 167.04 223.424C170.048 220.544 172.992 217.536 175.872 214.464C181.824 208.192 187.328 201.472 192.384 194.432C195.072 190.528 197.632 186.56 199.872 182.464C200.192 181.888 197.248 181.696 196.8 182.464C190.08 194.624 181.184 205.504 171.648 215.552C169.024 218.304 166.336 220.992 163.584 223.616L164.288 223.232C160.128 224.64 156.224 226.496 152.512 228.736L155.456 228.864C157.632 223.104 159.68 216.384 157.632 210.304C156.8 207.616 154.816 205.44 152.256 204.288C148.864 202.816 144.896 203.264 141.44 204.48C137.472 205.888 134.08 208.32 130.816 210.88H133.824C133.888 198.784 135.424 186.688 138.368 174.912C141.376 163.008 145.408 151.424 150.4 140.224C155.008 129.664 160.192 119.424 165.824 109.376C170.176 101.568 174.72 93.8242 179.52 86.2082C181.056 83.7762 182.592 81.4082 184.128 79.0402C184.832 77.9522 185.664 76.8642 186.304 75.7762C186.304 75.7122 186.368 75.6482 186.368 75.6482L184.064 76.1602C185.92 76.2882 187.776 76.5442 189.568 76.8642C194.112 77.6322 198.656 78.8482 203.008 80.3842C208.704 82.3682 214.144 85.1202 219.136 88.5762C220.48 89.5362 221.76 90.5602 223.04 91.6482C223.616 92.1602 224.192 92.7362 224.832 93.2482C224.96 93.3762 225.088 93.3762 225.088 93.5042C225.088 93.9522 224.96 94.4002 224.832 94.7842C223.552 101.184 222.08 107.52 220.544 113.856C217.92 124.736 214.976 135.552 211.52 146.176C207.936 157.312 203.904 168.448 198.656 178.944C198.08 180.096 197.504 181.184 196.864 182.336C196.48 183.04 199.424 183.232 199.872 182.464Z" fill="#CECECE"/>
<path d="M163.072 188.479C163.968 188.735 164.928 188.799 165.824 188.735C169.856 188.415 181.12 186.303 184.384 172.287C188.352 155.071 167.104 146.751 157.312 158.207C147.84 169.279 151.616 185.279 163.072 188.479Z" fill="white"/>
<path d="M161.664 189.12C164.48 189.888 167.808 189.184 170.56 188.288C173.952 187.264 177.088 185.536 179.712 183.168C182.848 180.096 185.024 176.192 185.92 171.904C186.88 168.256 186.496 164.416 184.96 161.024C181.952 154.944 175.04 151.808 168.448 152.384C164.608 152.704 161.024 154.176 158.016 156.544C154.688 159.36 152.32 163.2 151.232 167.424C149.248 175.04 151.616 184.192 158.976 188.032C159.808 188.48 160.704 188.864 161.664 189.12C162.304 189.184 163.008 189.056 163.584 188.672C163.712 188.608 164.864 187.968 164.48 187.84C157.056 185.728 153.152 178.24 153.472 170.88C153.664 166.656 155.136 162.624 157.632 159.232C158.656 157.76 159.872 156.48 161.344 155.456C161.856 155.072 162.432 154.752 163.008 154.496C163.2 154.432 163.328 154.368 163.52 154.304C163.264 154.432 163.712 154.24 163.776 154.24C163.84 154.176 163.968 154.176 164.032 154.176L164.608 153.984C165.248 153.856 165.824 153.728 166.464 153.728C167.168 153.664 167.936 153.664 168.64 153.728C170.176 153.792 171.648 154.112 173.12 154.624C176 155.648 178.496 157.44 180.416 159.808C185.088 165.888 183.68 174.528 179.648 180.544C178.688 182.016 177.536 183.296 176.192 184.448C175.616 184.96 174.976 185.408 174.336 185.792C174.08 185.92 173.888 186.048 173.632 186.176L173.184 186.432L172.928 186.56C173.056 186.496 172.928 186.56 172.864 186.56C172.544 186.688 172.224 186.816 171.968 186.944C172.288 186.816 171.776 187.008 171.712 187.008L171.2 187.2L171.008 187.264C170.752 187.328 171.264 187.2 171.008 187.264L170.56 187.392L170.112 187.52L169.92 187.584C169.664 187.648 170.048 187.52 169.92 187.584C169.408 187.712 168.896 187.84 168.384 187.904C168.704 187.84 168.064 187.968 167.936 187.968C167.744 187.968 167.488 188.032 167.296 188.032C166.336 188.16 165.376 188.096 164.48 187.84C163.84 187.776 163.136 187.904 162.56 188.224C162.432 188.352 161.216 188.992 161.664 189.12Z" fill="#CECECE"/>
<path d="M164.416 184.704C165.12 184.896 165.888 184.96 166.592 184.896C169.792 184.64 178.624 182.976 181.248 171.904C184.384 158.336 167.616 151.744 159.872 160.832C152.448 169.6 155.392 182.144 164.416 184.704Z" fill="#CECECE"/>
<path d="M159.168 118.784C159.168 118.784 158.528 53.3755 162.752 53.7595C166.976 54.1435 184.768 75.7115 184.768 75.7115L159.168 118.784Z" fill="white"/>
<path d="M160.768 118.784C160.704 114.752 160.704 110.656 160.704 106.624C160.704 98.1119 160.832 89.5999 161.088 81.1519C161.28 73.7279 161.472 66.2399 162.56 58.8799C162.624 58.3039 162.752 57.7279 162.816 57.1519C162.88 56.8959 162.88 56.6399 162.944 56.4479C162.944 56.3199 163.008 56.2559 163.008 56.1279C163.008 55.9999 163.136 55.6799 163.072 55.9359C163.136 55.6159 163.264 55.2319 163.456 54.9119C163.52 54.7839 163.584 54.6559 163.648 54.5279C163.648 54.4639 163.712 54.4639 163.712 54.3999C163.84 54.2079 163.52 54.5279 163.712 54.4639C163.968 54.2719 163.456 54.5919 163.392 54.5919C163.328 54.5919 162.816 54.6559 162.752 54.6559C162.816 54.6559 162.24 54.5919 162.432 54.6559C162.624 54.7199 161.984 54.5279 162.304 54.6559C162.624 54.7839 162.24 54.5919 162.368 54.6559C162.496 54.7199 162.624 54.7839 162.688 54.7839C162.752 54.7839 162.944 54.9119 163.072 54.9759L163.2 55.0399C163.456 55.2319 163.136 54.9759 163.328 55.1039C164.736 56.1279 166.08 57.2159 167.296 58.4319C172.992 63.8079 178.112 69.7599 183.104 75.7759C182.912 75.6479 183.232 75.9679 183.104 75.7759L183.232 75.9039L183.296 76.0319V75.5199L174.592 90.1759L160.768 113.28L157.632 118.592C157.056 119.552 160.128 120 160.704 119.04L169.408 104.384L183.168 81.2799L186.304 75.9679C186.368 75.8399 186.368 75.6479 186.304 75.5199C181.76 70.0159 177.024 64.5759 171.968 59.5199C170.56 58.0479 169.024 56.7039 167.488 55.4239C166.464 54.3999 165.184 53.6319 163.84 53.1199C162.688 52.7999 161.28 52.9279 160.576 53.9519C160.192 54.6559 159.936 55.3599 159.808 56.1919C159.232 58.9439 158.848 61.6959 158.72 64.5119C158.4 68.5439 158.208 72.5759 158.016 76.6719C157.696 85.5039 157.568 94.3999 157.504 103.296C157.504 106.688 157.504 110.08 157.504 113.472C157.504 115.136 157.44 116.864 157.504 118.592C157.504 118.656 157.504 118.72 157.504 118.848C157.568 119.936 160.768 119.936 160.768 118.784Z" fill="#CECECE"/>
<path d="M214.272 142.145C214.272 142.145 263.936 98.049 256.896 95.105C249.856 92.161 226.56 93.441 226.56 93.441L214.272 142.145Z" fill="white"/>
<path d="M215.488 142.528C218.432 139.904 221.312 137.28 224.256 134.592C230.272 129.088 236.16 123.456 241.984 117.632C247.104 112.512 252.416 107.264 256.64 101.312C257.664 99.84 259.2 97.92 259.2 96.064C259.264 95.424 258.88 94.848 258.368 94.528C256.896 93.632 254.848 93.44 253.248 93.184C248.256 92.48 243.2 92.224 238.208 92.352C234.624 92.352 231.04 92.416 227.52 92.608H226.944C226.432 92.672 225.28 92.8 225.088 93.504L220.928 110.016L214.272 136.256L212.736 142.208C212.416 143.36 215.616 143.104 215.872 142.144L220.032 125.632L226.688 99.392L228.224 93.44L226.368 94.336C233.728 93.824 241.088 93.888 248.384 94.4C250.368 94.528 252.352 94.848 254.336 95.296C254.72 95.424 255.104 95.488 255.488 95.68C255.552 95.68 256.128 95.872 255.744 95.744C255.808 95.744 255.872 95.808 255.936 95.808C256 95.872 255.808 95.616 256 95.872C256 95.936 256.064 95.936 256.064 96C256.064 95.808 256.064 96.064 256.064 96C256.064 96.192 256.128 96.256 256.128 96.32C256.128 96.384 256.128 96.448 256.128 96.512C256.128 96.32 256.128 96.704 256.128 96.512C256.064 96.896 255.936 97.216 255.808 97.536C255.616 97.92 255.424 98.304 255.232 98.688C254.976 99.136 254.72 99.584 254.464 99.968C252.736 102.464 250.88 104.768 248.832 107.008C246.208 109.952 243.52 112.768 240.768 115.584C235.072 121.408 229.12 127.04 223.168 132.544C220.992 134.592 218.752 136.64 216.512 138.624L215.872 139.2L215.552 139.456L215.36 139.584L214.4 140.48L213.248 141.504L213.12 141.632C212.672 142.016 212.672 142.528 213.312 142.72C214.016 143.104 214.848 142.976 215.488 142.528Z" fill="#CECECE"/>
<path d="M186.816 130.495C186.816 130.495 212.032 71.6154 209.92 70.7194C207.808 69.8234 185.088 127.167 183.744 129.151C182.4 131.135 186.816 130.495 186.816 130.495Z" fill="white"/>
<path d="M188.16 131.392C189.056 129.28 189.952 127.168 190.848 125.056C192.96 120.064 195.072 115.072 197.12 110.08C199.552 104.192 201.984 98.3042 204.352 92.3522C206.272 87.4242 208.192 82.5602 209.92 77.5682C210.432 76.0962 210.88 74.5602 211.264 73.0242C211.392 72.6402 211.456 72.1922 211.456 71.8082C211.392 70.8482 210.368 70.1442 209.536 69.8882C208.384 69.5042 207.872 70.4002 207.36 71.2962C206.464 72.7042 205.76 74.2402 205.056 75.7122C202.688 80.6402 200.448 85.6962 198.336 90.7522C195.776 96.7042 193.28 102.72 190.72 108.736C188.672 113.6 186.624 118.528 184.576 123.392C184 124.736 183.424 126.144 182.784 127.488C182.656 127.808 182.528 128.064 182.336 128.384C182.016 128.768 181.952 129.28 182.08 129.728C182.464 130.624 183.616 131.264 184.512 131.52C185.6 131.776 186.688 131.84 187.776 131.584C188.48 131.456 188.096 130.816 187.776 130.496C187.328 130.048 186.496 129.408 185.792 129.536C185.408 129.6 185.088 129.6 184.704 129.664C184.384 129.664 184.128 129.664 183.808 129.664C183.872 129.664 183.552 129.6 183.552 129.6C183.424 129.664 183.616 129.536 183.616 129.6C184 129.856 184.384 130.176 184.768 130.496C184.96 130.496 184.64 130.688 184.832 130.432C184.896 130.304 184.96 130.176 185.024 130.048C185.088 129.92 185.088 129.984 185.088 129.92L185.28 129.536C185.792 128.448 186.24 127.296 186.752 126.208C188.608 121.792 190.464 117.376 192.32 112.96C194.752 107.2 197.12 101.44 199.552 95.6802C201.792 90.4322 204.032 85.2482 206.4 80.0642C207.232 78.2722 208.128 76.4162 209.024 74.6242C209.536 73.6002 210.112 72.7042 210.752 71.8082C210.816 71.7442 210.88 71.7442 210.88 71.6802C210.688 71.8722 210.816 71.6802 210.88 71.6802H210.944C210.752 71.7442 210.56 71.7442 210.368 71.6802C209.664 71.4242 209.088 70.9762 208.576 70.4002C208.448 70.2722 208.576 70.1442 208.576 70.3362C208.576 70.5282 208.576 70.4642 208.576 70.5282C208.576 70.7202 208.512 70.9122 208.512 71.0402C208.448 71.5522 208.32 72.0642 208.128 72.5122C207.936 73.2802 207.68 73.9842 207.424 74.6882C205.888 79.2962 204.16 83.8402 202.368 88.3842C200.128 94.0802 197.824 99.7762 195.52 105.408C193.408 110.528 191.232 115.712 189.12 120.832C187.968 123.648 186.752 126.4 185.6 129.216L185.408 129.6C185.088 130.624 187.84 132.16 188.16 131.392Z" fill="#CECECE"/>
<path d="M162.88 173.567C165.44 171.711 167.936 169.791 170.304 167.679C170.816 167.231 169.92 167.039 169.6 167.039C168.832 166.975 168.128 167.167 167.488 167.615C165.12 169.663 162.624 171.647 160.064 173.503C159.488 173.951 160.448 174.143 160.768 174.143C161.472 174.207 162.24 174.015 162.88 173.567Z" fill="white"/>
<path d="M169.664 177.472L175.36 173.056C175.808 172.672 175.808 171.968 175.424 171.52C175.36 171.456 175.296 171.392 175.168 171.328C174.528 170.816 173.632 170.752 172.928 171.2L167.232 175.616C166.784 176 166.72 176.704 167.168 177.152C167.232 177.216 167.296 177.28 167.424 177.344C168.064 177.92 168.96 177.92 169.664 177.472Z" fill="white"/>
<path d="M183.04 88.9584C187.264 89.9824 191.296 91.3904 195.264 93.1824C195.776 93.4384 195.968 93.2464 195.648 92.7344C195.2 92.0944 194.624 91.5824 193.92 91.2624C189.824 89.4064 185.536 87.9344 181.184 86.8464C180.544 86.7184 181.12 87.4864 181.248 87.6144C181.76 88.2544 182.336 88.7024 183.04 88.9584Z" fill="white"/>
<path d="M204.16 98.5592L211.136 101.631L214.464 103.103L216.256 103.871L217.024 104.191L217.536 104.447C217.856 104.575 217.856 104.575 217.536 104.447L217.024 103.807V103.743V103.103L216.96 103.231C216.448 104.447 219.008 106.367 219.584 104.959C220.288 103.295 218.048 102.207 216.896 101.695L212.608 99.7752L204.032 96.0632C203.456 95.8072 202.688 95.9352 202.688 96.7032C202.88 97.5992 203.392 98.3032 204.16 98.5592Z" fill="white"/>
<path d="M214.08 97.92L217.344 88.2559C217.536 87.6799 216.832 86.848 216.512 86.4C216.32 86.208 215.424 85.376 215.232 85.952L211.968 95.68C211.776 96.256 212.48 97.0879 212.8 97.5359C212.992 97.6639 213.888 98.496 214.08 97.92Z" fill="white"/>
<path d="M189.888 88.0634C190.976 85.1194 192.384 82.2394 194.112 79.6154C194.496 78.9754 193.856 78.2714 193.28 78.0794C192.704 77.8874 191.616 77.8234 191.232 78.4634C189.44 81.2794 187.904 84.3514 186.816 87.4874C186.752 87.8074 186.88 88.1274 187.136 88.3834C187.392 88.6394 187.776 88.8314 188.16 88.8954C188.864 89.0874 189.632 88.7674 189.888 88.0634Z" fill="white"/>
<path d="M169.216 214.207C175.68 206.143 181.568 197.567 186.752 188.607C191.936 179.583 196.48 170.239 200.256 160.511C202.368 155.071 204.288 149.503 205.888 143.935C206.08 143.295 203.008 142.527 202.752 143.231C199.872 153.151 196.224 162.751 191.872 172.095C187.456 181.503 182.4 190.527 176.64 199.103C173.376 203.967 169.92 208.703 166.272 213.247C165.824 213.823 168.768 214.783 169.216 214.207Z" fill="white"/>
<path d="M37.4402 261.568C40.3202 256.128 43.3922 249.664 49.0242 246.592C50.2402 245.888 51.5202 245.44 52.9282 245.312C53.1842 245.312 52.9282 245.312 52.8642 245.312C53.1842 245.376 53.4402 245.376 53.7602 245.504C54.4642 245.696 55.1042 245.952 55.7442 246.272C57.8562 247.36 59.1362 249.6 59.0722 251.968C59.0082 254.272 57.6642 256.896 55.2322 257.472L58.2402 257.6C59.2002 252.288 62.1442 247.68 65.6642 243.648C67.4562 241.6 69.3122 239.744 71.2322 237.888C73.2162 235.84 75.3922 233.92 77.6322 232.192C79.7442 230.528 82.1762 229.44 84.8002 228.864C86.8482 228.608 88.9602 228.928 90.8162 229.888C95.2322 231.744 98.4962 235.648 99.5202 240.32C100.608 245.632 98.9442 251.136 95.0402 254.912L98.2402 254.976C96.0002 252.352 97.7282 248.704 99.3922 246.272C101.568 243.2 103.936 240.192 106.432 237.376C111.488 231.616 116.864 226.176 122.624 221.12C125.568 218.56 128.512 216.064 131.584 213.632C134.656 211.2 137.536 208.832 140.864 206.976C142.4 206.08 144.064 205.312 145.792 204.8C146.56 204.544 147.328 204.416 148.16 204.352C147.584 204.352 148.608 204.48 148.736 204.48C149.248 204.608 149.696 204.8 150.144 204.992C152.704 206.208 154.624 208.512 155.328 211.264C157.12 217.472 154.944 224.192 152.704 229.952C151.936 231.872 151.168 233.664 150.272 235.52C149.504 237.248 148.608 238.848 147.52 240.32C147.008 240.96 146.368 241.472 145.536 241.792C145.408 241.856 145.216 241.856 145.088 241.92C147.008 241.152 147.072 242.24 146.304 241.856C145.92 241.728 145.6 241.472 145.344 241.216C144.192 239.808 145.472 237.952 146.496 236.864C151.424 231.68 157.888 227.648 164.48 224.96C167.808 223.616 171.264 222.592 174.848 221.952C176.576 221.632 178.304 221.44 180.032 221.248C181.76 221.056 183.488 221.056 185.152 221.376C192 222.976 193.536 231.616 192.64 237.568C191.744 243.648 188.416 249.152 183.424 252.736C182.208 253.568 180.928 254.272 179.584 254.848L182.72 254.976C182.656 252.288 184.192 249.728 186.624 248.64C187.84 247.936 189.312 247.744 190.72 248.064C191.936 248.384 193.088 248.832 194.176 249.408C198.656 251.84 201.664 256.32 202.304 261.376C202.368 261.76 205.504 261.568 205.504 261.44C204.928 256.896 202.432 252.736 198.592 250.176C196.608 248.832 194.368 248 191.936 247.68C189.248 247.296 186.048 247.296 183.552 248.448C181.056 249.6 179.328 252.16 179.52 254.912C179.52 255.232 182.336 255.168 182.656 255.04C188.736 252.48 193.216 247.04 195.136 240.832C196.096 237.632 196.352 234.304 195.776 230.976C195.2 227.648 193.728 224.128 190.72 222.336C188.992 221.312 186.88 220.992 184.896 220.864C182.72 220.736 180.544 220.8 178.368 220.928C174.592 221.184 170.816 221.824 167.168 222.848C159.744 224.96 152.832 228.544 146.88 233.536C145.28 234.752 143.872 236.096 142.656 237.632C141.696 238.976 141.312 240.896 143.04 241.792C143.744 242.112 144.512 242.24 145.28 242.24C146.304 242.304 147.264 242.304 148.288 242.112C149.952 241.728 151.04 240.192 151.808 238.784C153.984 234.944 155.776 230.848 157.184 226.624C158.336 223.424 159.04 220.032 159.168 216.64C159.232 213.632 158.72 210.432 156.928 207.936C154.816 205.056 151.552 204.096 148.16 204.032C139.904 203.84 133.44 209.6 127.36 214.464C120.832 219.648 114.624 225.28 108.8 231.296C105.856 234.368 103.04 237.504 100.416 240.768C99.1362 242.368 97.8562 243.968 96.6402 245.632C95.5522 247.04 94.7202 248.64 94.2082 250.368C93.6962 251.968 94.0162 253.696 95.0402 254.976C95.2962 255.296 96.2562 255.168 96.6402 255.168C97.0242 255.168 97.9202 255.296 98.2402 255.04C101.952 251.456 103.68 246.272 102.848 241.152C102.016 236.096 98.6242 231.872 93.9522 229.888C91.5202 228.864 88.8962 228.416 86.2722 228.416C83.5202 228.288 80.8322 228.8 78.3362 229.888C75.7122 231.168 73.3442 232.896 71.2322 234.944C69.0562 236.928 66.8802 239.04 64.8322 241.216C60.3522 245.824 56.3202 251.2 55.1042 257.664C55.0402 257.92 57.8562 257.856 58.1122 257.792C60.6082 257.216 62.0802 255.104 62.3362 252.608C62.5922 249.92 61.1202 247.36 58.6882 246.208C57.3442 245.568 55.9362 245.184 54.4642 245.12C52.7362 244.928 50.9442 245.056 49.2802 245.376C46.0802 246.08 43.3282 248.192 41.2162 250.624C38.4002 253.888 36.3522 257.792 34.3682 261.632C34.8802 261.76 35.3922 261.824 35.9682 261.888C36.0962 261.76 37.3122 261.888 37.4402 261.568Z" fill="#CECECE"/>
<path d="M266.88 121.471C268.032 124.671 269.568 127.807 271.36 130.687C271.68 131.199 272.64 131.391 273.152 131.519C273.28 131.519 274.624 131.775 274.368 131.391C272.576 128.447 271.04 125.375 269.888 122.175C269.824 121.983 269.376 121.791 269.248 121.727C268.864 121.535 268.48 121.407 268.096 121.343C267.904 121.343 266.752 121.023 266.88 121.471Z" fill="#3D3D3D"/>
<path d="M271.616 118.912C272.64 123.136 273.92 127.36 275.456 131.456C275.84 132.48 278.912 131.648 278.592 130.752C277.12 126.656 275.776 122.496 274.752 118.208C274.496 117.184 271.36 117.888 271.616 118.912Z" fill="#3D3D3D"/>
<path d="M276.096 138.815L275.456 138.239C275.328 138.111 275.136 137.983 275.008 137.855C274.88 137.727 274.688 137.599 274.496 137.471C274.304 137.343 274.176 137.279 274.048 137.151C273.92 137.087 273.792 137.023 273.664 136.959L273.536 136.895C273.472 136.895 273.408 136.895 273.472 136.959L273.536 137.087C273.664 137.215 273.792 137.343 273.92 137.471L274.56 138.047C274.688 138.175 274.88 138.303 275.008 138.431C275.136 138.559 275.328 138.687 275.52 138.815C275.712 138.943 275.84 139.007 275.968 139.135C276.096 139.199 276.224 139.263 276.352 139.327L276.48 139.391C276.544 139.391 276.608 139.391 276.544 139.327L276.48 139.199C276.352 139.071 276.224 138.943 276.096 138.815Z" fill="#3D3D3D"/>
<path d="M276.8 136.192L276.864 137.024C276.864 137.216 276.928 137.344 277.056 137.472C277.12 137.664 277.248 137.792 277.44 137.92L277.76 138.176C278.016 138.304 278.272 138.432 278.528 138.432C278.656 138.432 278.784 138.432 278.912 138.432H278.976L279.296 138.368H279.36H279.424L279.744 138.24L279.808 138.176C279.872 138.112 279.936 137.984 280.064 137.92L280.128 137.856C280.192 137.792 280.192 137.728 280.192 137.6C280.256 137.536 280.256 137.472 280.256 137.344C280.256 137.216 280.256 137.088 280.256 136.96C280.256 136.768 280.192 136.64 280.064 136.448C280 136.256 279.872 136.128 279.68 136C279.552 135.872 279.36 135.744 279.168 135.68C278.976 135.552 278.784 135.488 278.592 135.488H278.208C278.016 135.488 277.76 135.552 277.632 135.68L277.44 135.872C277.312 136.064 277.312 136.256 277.376 136.448V136.512V136.192C277.376 136.256 277.376 136.256 277.376 136.32L277.504 136.064C277.504 136.128 277.44 136.192 277.44 136.192L277.632 135.936C277.568 136 277.568 136 277.504 136.064L277.76 135.936L277.632 136L277.952 135.936H277.888H278.272H278.208L279.872 137.408L279.808 136.576C279.808 136.384 279.744 136.256 279.616 136.128C279.552 135.936 279.424 135.808 279.232 135.68C279.104 135.552 278.912 135.424 278.72 135.296C278.528 135.168 278.336 135.104 278.144 135.104H277.76C277.568 135.104 277.312 135.168 277.184 135.296L276.992 135.488C276.8 135.808 276.736 136 276.8 136.192Z" fill="#3D3D3D"/>
<path d="M97.0241 81.2148C99.4561 91.8388 102.4 102.463 103.104 113.343C103.168 114.303 106.112 115.391 106.048 114.367C105.28 103.487 102.4 92.8628 99.9681 82.2388C99.8401 81.5988 99.0081 81.1508 98.4321 80.9588C98.1761 80.8948 96.8961 80.5748 97.0241 81.2148Z" fill="#3D3D3D"/>
<path d="M107.392 77.5684C107.2 89.0884 109.248 100.48 113.408 111.232C113.664 111.872 114.24 112.704 115.008 112.576C115.776 112.448 115.904 111.552 115.712 110.912C111.744 100.672 109.76 89.7284 109.888 78.7844C109.952 77.9524 109.568 77.1844 108.864 76.8004C108.416 76.5444 107.904 76.6724 107.584 77.1204C107.456 77.2484 107.392 77.3764 107.392 77.5684Z" fill="#3D3D3D"/>
<path d="M106.304 120.319L106.368 121.343V121.471C106.368 121.663 106.432 121.919 106.496 122.047C106.624 122.239 106.816 122.431 107.008 122.559C107.136 122.623 107.328 122.751 107.52 122.815C107.712 122.879 107.968 122.943 108.224 122.943C108.608 123.007 108.928 122.943 109.312 122.879C109.504 122.815 109.696 122.751 109.888 122.623C110.08 122.495 110.208 122.367 110.4 122.239C110.528 122.111 110.592 121.983 110.656 121.855C110.72 121.727 110.784 121.599 110.784 121.407C110.784 121.279 110.784 121.087 110.72 120.959C110.656 120.767 110.592 120.639 110.464 120.575C110.336 120.447 110.144 120.319 110.016 120.255C109.888 120.191 109.76 120.127 109.632 120.063C109.504 119.999 109.376 119.935 109.248 119.935C109.12 119.935 108.864 119.807 108.608 119.807C108.544 119.807 108.48 119.807 108.416 119.807C108.224 119.807 107.968 119.807 107.776 119.807C107.712 119.807 107.648 119.807 107.584 119.807C107.392 119.807 107.2 119.871 107.008 119.935C106.816 119.999 106.688 120.063 106.496 120.191C106.368 120.255 106.24 120.383 106.176 120.575C106.112 120.703 106.048 120.895 106.112 121.023C106.112 121.215 106.176 121.343 106.24 121.471C106.432 121.791 106.752 121.983 107.136 122.111C107.52 122.239 107.968 122.239 108.352 122.175L108.48 122.111L108.096 122.175C108.224 122.175 108.352 122.175 108.48 122.175H108.032C108.16 122.175 108.288 122.175 108.416 122.239L108.032 122.175C108.16 122.175 108.288 122.239 108.416 122.303L108.032 122.175C108.16 122.239 108.224 122.303 108.352 122.367L108.032 122.175L107.648 121.279L107.712 120.959C107.712 121.023 107.648 121.087 107.584 121.151L107.776 120.895C107.712 120.959 107.648 121.023 107.584 121.023L107.84 120.831C107.776 120.895 107.712 120.895 107.648 120.959L107.968 120.831C107.904 120.831 107.84 120.895 107.776 120.895L108.16 120.831H107.968H108.416H108.288L108.672 120.895L108.544 120.831L108.928 121.023C108.864 121.023 108.864 120.959 108.8 120.959L109.44 122.047L109.376 120.895C109.376 120.767 109.376 120.575 109.312 120.447C109.248 120.255 109.184 120.127 109.056 120.063C108.928 119.935 108.736 119.807 108.544 119.743C108.352 119.615 108.16 119.551 107.968 119.551C107.584 119.487 107.136 119.551 106.816 119.743L106.56 119.935C106.432 120.063 106.304 120.255 106.304 120.511V120.319Z" fill="#3D3D3D"/>
<path d="M113.536 116.992C113.472 117.056 113.472 117.184 113.472 117.248C113.472 117.376 113.408 117.44 113.408 117.568C113.408 117.696 113.408 117.824 113.408 117.952C113.408 118.016 113.408 118.016 113.408 118.08C113.472 118.272 113.536 118.4 113.6 118.592C113.664 118.656 113.664 118.784 113.728 118.848C114.176 119.36 114.816 119.68 115.456 119.616C115.776 119.616 116.096 119.552 116.416 119.424C116.928 119.168 117.376 118.848 117.76 118.4C117.824 118.272 117.952 118.144 118.016 118.016C118.016 117.952 118.08 117.952 118.08 117.888C118.208 117.568 118.272 117.184 118.208 116.8C118.208 116.736 118.208 116.608 118.144 116.544C118.08 116.352 118.016 116.224 117.952 116.032C117.888 115.968 117.824 115.84 117.76 115.776C117.632 115.648 117.504 115.52 117.376 115.392C117.248 115.328 117.12 115.264 116.992 115.2C116.928 115.2 116.928 115.2 116.864 115.136C116.736 115.072 116.544 115.072 116.416 115.072C116.352 115.072 116.288 115.072 116.288 115.072C116.096 115.072 115.904 115.136 115.712 115.2C115.52 115.264 115.328 115.328 115.136 115.456C114.944 115.584 114.816 115.712 114.688 115.904C114.56 116.032 114.432 116.224 114.368 116.352C114.24 116.608 114.24 116.928 114.368 117.248C114.56 117.504 114.88 117.632 115.2 117.632C115.264 117.632 115.328 117.632 115.392 117.632L115.072 117.568C115.136 117.568 115.2 117.632 115.328 117.632L115.072 117.504C115.2 117.568 115.264 117.632 115.328 117.696L115.136 117.504C115.264 117.632 115.328 117.76 115.392 117.888L115.264 117.632C115.328 117.76 115.328 117.952 115.328 118.08V117.76C115.328 117.888 115.328 117.952 115.264 118.016L115.328 117.696C115.328 117.76 115.264 117.824 115.264 117.888L115.456 117.568C115.456 117.632 115.392 117.632 115.392 117.696L115.648 117.376C115.584 117.44 115.584 117.44 115.52 117.504L115.84 117.248L115.712 117.312L116.096 117.12L115.968 117.184L116.352 117.056L116.224 117.12L116.608 117.056H116.416L116.736 117.12C116.608 117.12 116.544 117.056 116.416 117.056L116.672 117.184C116.544 117.12 116.416 117.056 116.288 116.928L116.48 117.12C116.352 116.992 116.288 116.864 116.224 116.736L116.352 116.992C116.288 116.928 116.288 116.8 116.288 116.672V116.992C116.288 116.928 116.288 116.864 116.288 116.736L116.224 117.056C116.224 116.992 116.224 116.992 116.288 116.928C116.416 116.672 116.416 116.352 116.288 116.032C116.096 115.776 115.776 115.648 115.52 115.648C115.136 115.648 114.752 115.776 114.432 116.032C113.92 116.288 113.664 116.608 113.536 116.992Z" fill="#3D3D3D"/>
<path d="M205.568 65.3434C205.568 62.3994 205.568 59.4554 205.568 56.5114C205.568 55.8714 205.696 55.3594 206.464 55.4874C207.168 55.6794 207.808 55.8714 208.448 56.1274L212.8 57.5994C213.312 57.8554 213.888 57.9834 214.464 57.9194C215.04 57.7274 215.232 57.1514 215.488 56.7034L217.536 52.7354L221.696 44.6714C222.016 44.0314 219.456 42.2394 219.328 42.5594L215.104 50.7514C214.464 52.0954 213.76 53.3754 213.056 54.7194C212.736 55.3594 212.48 55.8714 211.712 55.7434C210.944 55.5514 210.24 55.3594 209.536 55.0394C208.064 54.5274 206.656 54.0794 205.184 53.5674C204.224 53.2474 203.264 53.0554 203.2 54.3354C203.072 57.3434 203.2 60.4154 203.2 63.4874C203.2 64.0634 204.096 64.7034 204.48 65.0234C204.544 65.0874 205.568 65.7914 205.568 65.3434Z" fill="#3D3D3D"/>
<path d="M221.12 73.0231C224.704 66.9431 229.056 61.3111 234.048 56.2551L231.104 56.1271L233.728 62.7831C234.048 63.6151 236.16 63.4231 236.672 62.9111C241.984 57.5991 246.848 51.9671 251.264 45.9511C251.648 45.3751 250.432 45.0551 250.112 45.0551C249.472 44.9911 248.576 45.0551 248.128 45.6311C243.776 51.5191 239.04 57.0871 233.856 62.2712L236.8 62.3991L234.176 55.6791C233.856 54.8471 231.744 55.0391 231.232 55.5511C226.112 60.6712 221.696 66.4311 217.984 72.7031C217.472 73.5991 220.544 73.9191 221.12 73.0231Z" fill="#3D3D3D"/>
<path d="M227.264 78.9116L240.256 74.4316C240.704 74.3036 240.96 73.8556 240.832 73.4716C240.768 73.2796 240.704 73.1516 240.576 73.0236C240 72.4476 239.168 72.2556 238.336 72.5116L225.344 76.9916C224.896 77.1196 224.64 77.5036 224.768 77.9516C224.832 78.1436 224.896 78.2716 225.024 78.3996C225.6 78.9756 226.496 79.1676 227.264 78.9116Z" fill="#3D3D3D"/>
<path d="M265.216 143.806C264.704 143.038 258.944 137.726 256.704 134.782C254.464 131.838 251.52 132.414 247.872 133.886C244.224 135.358 244.864 138.558 248.128 137.598C251.392 136.638 251.968 137.15 251.968 137.15C250.176 137.918 248.512 139.07 247.296 140.542C245.568 142.846 245.504 145.214 246.848 145.15C248.192 145.086 249.536 142.654 251.072 142.142C251.072 142.142 248.192 146.686 249.92 148.35C251.648 150.014 253.76 145.15 253.76 145.15C253.76 145.15 255.168 149.566 258.56 150.334C260.672 150.782 262.848 150.846 265.024 150.462C264.96 150.398 270.272 151.23 265.216 143.806Z" fill="white"/>
<path d="M266.624 143.102C266.176 142.526 265.664 141.95 265.088 141.502C264.192 140.606 263.296 139.71 262.4 138.814C261.376 137.79 260.352 136.766 259.392 135.678C258.496 134.718 257.792 133.502 256.768 132.734C254.208 130.814 250.688 131.966 248 132.99C246.528 133.566 244.864 134.462 244.16 135.934C243.648 136.766 243.84 137.79 244.672 138.366C246.08 139.262 247.936 138.366 249.344 138.11C249.6 138.046 249.856 138.046 250.112 137.982H250.432H250.496C250.56 137.982 250.56 137.982 250.624 137.982C250.816 137.982 250.624 137.918 250.56 137.982C250.496 138.046 250.624 137.982 250.624 137.982L251.968 136.318C248.768 137.534 245.376 140.094 244.48 143.55C244.224 144.254 244.288 144.958 244.672 145.598C245.184 146.302 246.272 146.174 246.976 145.918C247.936 145.534 248.768 145.022 249.472 144.318L250.368 143.422C250.496 143.294 250.688 143.166 250.816 143.038C250.944 142.91 251.008 142.91 250.816 142.974L249.472 142.462C248.448 144.062 246.4 148.03 248.704 149.438C250.304 150.334 252.352 148.798 253.312 147.646C254.016 146.814 254.528 145.918 254.976 144.894L252.16 145.918C252.608 147.262 253.312 148.478 254.272 149.502C256.256 151.614 259.264 151.806 262.016 151.678C262.592 151.678 263.168 151.614 263.808 151.486C263.936 151.486 264.064 151.486 264.256 151.422C264.768 151.294 263.936 151.486 263.808 151.422C263.936 151.55 264.448 151.486 264.64 151.486C266.048 151.422 267.776 150.782 268.48 149.438C269.632 147.39 267.712 144.638 266.624 143.102C266.048 142.206 263.232 143.742 263.744 144.574C264.448 145.598 265.088 146.686 265.536 147.838C265.792 148.414 265.92 149.054 265.856 149.694C265.856 149.822 265.856 149.694 265.792 149.886C265.728 150.078 265.92 149.758 265.728 149.95C265.92 149.758 266.112 149.63 266.368 149.502C266.176 149.566 266.752 149.438 266.432 149.502C266.112 149.566 266.368 149.502 266.496 149.502H266.048C265.792 149.502 266.304 149.502 266.048 149.502C265.792 149.502 265.6 149.502 265.344 149.502C264.832 149.566 264.256 149.63 263.744 149.694C261.44 149.822 258.816 149.694 257.152 147.966C256.192 146.942 255.488 145.79 255.104 144.446C254.976 143.998 254.016 144.254 253.76 144.382C253.184 144.574 252.608 144.958 252.288 145.47C252.032 146.046 251.712 146.622 251.328 147.198C251.136 147.454 251.008 147.71 250.752 147.902C250.688 147.966 250.688 148.03 250.624 148.03C250.56 148.03 251.52 147.518 251.52 147.71C251.52 147.774 251.264 147.582 251.328 147.646C251.136 147.518 251.008 147.326 250.88 147.134C250.112 145.598 251.52 143.166 252.352 141.886C252.864 141.054 251.328 141.246 251.008 141.374C249.472 141.95 248.512 143.038 247.296 144.126C247.168 144.254 246.912 144.446 246.912 144.446C246.912 144.446 247.488 144.318 247.488 144.254C247.488 144.19 247.424 144.19 247.36 144.126C247.296 143.934 247.232 143.742 247.168 143.55C247.168 143.23 247.168 142.91 247.296 142.59C247.744 141.118 248.704 139.838 250.048 139.006C250.496 138.686 250.944 138.43 251.392 138.238C251.456 138.174 251.968 137.982 251.712 138.11H251.776C252.224 137.918 253.888 137.086 253.12 136.446C252.8 136.254 252.352 136.19 251.968 136.19C250.752 136.254 249.6 136.446 248.448 136.83C247.808 137.022 246.848 137.086 246.72 136.19C246.592 135.422 247.36 134.974 247.936 134.782C250.176 133.886 252.736 133.182 254.72 135.166C255.488 135.934 256.192 136.894 256.896 137.726C257.728 138.622 258.624 139.582 259.52 140.414C260.416 141.246 261.376 142.27 262.272 143.166C262.784 143.614 263.296 144.19 263.744 144.702C264.384 145.406 267.2 143.87 266.624 143.102Z" fill="#CECECE"/>
<path d="M255.424 265.854C255.424 265.854 254.912 276.094 255.232 276.094C255.552 276.094 260.096 275.966 260.096 275.966V271.87L262.336 276.35L277.568 275.518C277.568 275.518 278.08 274.046 274.624 272.382C271.168 270.718 265.664 268.414 265.664 268.414L265.6 262.398L255.424 265.854Z" fill="white"/>
<path d="M253.888 266.238C253.76 268.35 253.696 270.462 253.632 272.638C253.568 273.79 253.504 274.878 253.632 276.03C253.632 276.478 253.696 276.926 254.208 277.182C254.72 277.31 255.296 277.374 255.808 277.31L259.776 277.182C260.544 277.182 261.696 276.542 261.696 275.646V271.55L258.688 272.574L260.928 277.054C261.184 277.438 261.568 277.63 262.016 277.566L275.328 276.862L277.248 276.734C278.08 276.734 278.784 276.222 279.104 275.518C279.232 274.75 279.04 273.982 278.528 273.47C277.44 272.062 275.648 271.358 274.048 270.654C271.616 269.566 269.184 268.478 266.752 267.454L267.264 268.158L267.136 262.078C267.136 261.054 265.792 261.246 265.152 261.438L254.976 264.894C254.4 265.086 253.696 265.854 253.952 266.494C254.208 267.134 255.296 267.006 255.872 266.814L266.048 263.358L264.064 262.718L264.192 268.798C264.192 269.118 264.384 269.374 264.704 269.502C266.88 270.398 269.056 271.358 271.168 272.318C272.64 272.958 274.368 273.534 275.52 274.686C275.776 274.942 276.032 275.198 276.16 275.582C276.096 275.39 276.16 275.774 276.16 275.838C276.16 275.902 276.224 275.582 276.16 275.71L278.016 274.494L264.704 275.198L262.784 275.326L263.872 275.838L261.632 271.358C260.992 270.078 258.624 271.166 258.624 272.382V276.478L260.544 274.942C258.944 275.006 257.28 275.07 255.68 275.07L256.384 275.198C256.448 275.198 256.896 275.582 256.832 275.774V275.646C256.832 275.518 256.832 275.39 256.832 275.262C256.832 274.878 256.832 274.43 256.832 274.046C256.832 272.894 256.896 271.742 256.896 270.526C256.96 268.926 257.024 267.262 257.088 265.662C257.024 263.998 253.952 264.83 253.888 266.238Z" fill="#CECECE"/>
<path d="M253.632 265.471C253.632 265.471 254.144 275.711 253.824 275.711C253.504 275.711 248.96 275.583 248.96 275.583V271.487L246.72 275.967L231.488 275.135C231.488 275.135 230.976 273.663 234.432 271.999C237.888 270.335 243.392 268.031 243.392 268.031L243.52 261.951L253.632 265.471Z" fill="white"/>
<path d="M252.16 266.047C252.224 267.647 252.288 269.311 252.352 270.911C252.416 272.063 252.416 273.215 252.416 274.303C252.416 274.687 252.416 275.135 252.416 275.519C252.416 275.647 252.416 275.775 252.416 275.903C252.416 276.031 252.288 276.159 252.48 275.903L253.696 275.135L254.784 274.879C253.184 274.879 251.52 274.815 249.92 274.751L250.496 275.071V270.975C250.496 269.951 247.808 271.295 247.488 271.807L245.248 276.287L247.936 275.071L234.624 274.367L232.704 274.239L233.024 274.431C232.96 274.239 232.96 274.303 233.024 274.111C233.088 273.727 233.28 273.407 233.6 273.151C234.624 272.127 236.288 271.615 237.568 271.039C239.552 270.143 241.6 269.247 243.648 268.415C243.968 268.287 244.928 267.903 244.928 267.455L245.056 261.375L242.176 262.527L252.352 265.983C253.056 266.111 253.76 265.983 254.336 265.599C254.464 265.535 255.68 264.767 255.104 264.575L244.928 261.119C244.416 260.991 243.84 261.055 243.328 261.311C243.008 261.439 242.048 261.823 242.048 262.271L241.92 268.351L243.2 267.391C240.64 268.479 238.08 269.567 235.52 270.719C233.856 271.487 231.936 272.255 230.656 273.727C230.272 274.175 229.824 274.879 230.016 275.519C230.08 275.647 230.208 275.711 230.336 275.711L243.648 276.415L245.568 276.543C246.464 276.607 247.808 276.223 248.256 275.327L250.496 270.847L247.488 271.679V275.775C247.488 276.095 247.808 276.095 248.064 276.095L251.584 276.223C252.096 276.287 252.608 276.287 253.12 276.223C253.888 276.159 255.168 275.711 255.424 274.879C255.552 273.855 255.552 272.831 255.424 271.807C255.424 270.335 255.36 268.863 255.296 267.327C255.232 266.431 255.232 265.471 255.168 264.575C255.104 264.319 252.096 265.087 252.16 266.047Z" fill="#CECECE"/>
<path d="M261.888 200.254C261.888 200.254 269.312 265.79 267.2 267.454C265.088 269.118 255.424 266.686 255.424 266.686L254.784 252.926L255.04 266.814C255.04 266.814 243.008 266.622 239.744 265.406C239.744 265.406 234.432 206.59 234.432 197.566C234.432 188.542 261.888 200.254 261.888 200.254Z" fill="#3D3D3D"/>
<path d="M260.736 199.742C261.056 202.494 261.376 205.31 261.632 208.062C262.336 214.526 262.976 220.99 263.616 227.39C264.32 234.558 265.024 241.79 265.6 249.022C265.856 252.03 266.048 255.038 266.24 258.046C266.304 259.198 266.368 260.414 266.368 261.566C266.368 261.694 266.368 261.822 266.368 261.95C266.368 262.078 266.368 262.334 266.368 262.206C266.368 262.078 266.368 262.398 266.368 262.462C266.368 262.526 266.368 262.718 266.368 262.846C266.368 263.294 266.368 263.678 266.368 264.126C266.368 264.702 266.304 265.342 266.24 265.918C266.24 265.982 266.176 266.11 266.176 266.174C266.176 266.238 266.304 265.918 266.176 266.174C266.048 266.43 266.112 266.174 266.24 266.11C266.048 266.238 265.92 266.302 265.856 266.366C264.32 266.942 262.4 266.622 260.8 266.43C259.136 266.238 257.408 265.918 255.744 265.534L254.912 265.342L256.576 267.198L256 255.166V253.438C255.872 252.734 255.424 252.094 254.784 251.71C254.4 251.518 253.568 251.39 253.568 252.094L253.824 264.254V265.982L254.528 265.406C252.416 265.342 250.304 265.278 248.192 265.15C246.528 265.022 244.864 264.894 243.136 264.766C242.432 264.702 241.664 264.574 240.96 264.446C240.64 264.382 240.384 264.318 240.064 264.254C239.872 264.19 239.68 264.19 239.488 264.062L240.896 265.854C240.512 261.758 240.128 257.598 239.808 253.502C239.04 244.734 238.272 236.03 237.568 227.262C236.928 219.326 236.288 211.39 235.776 203.454C235.712 202.238 235.648 200.958 235.584 199.742C235.584 199.486 235.584 199.294 235.584 199.038C235.584 198.974 235.584 198.846 235.584 198.782C235.584 198.974 235.584 198.91 235.584 198.718C235.584 198.526 235.584 198.27 235.584 198.078C235.584 197.886 235.584 197.758 235.648 197.63C235.648 197.566 235.648 197.502 235.648 197.438C235.584 197.694 235.648 197.438 235.712 197.374C235.84 196.926 236.16 196.542 236.608 196.286C236.672 196.222 236.8 196.158 236.928 196.094C237.12 195.966 236.992 196.03 237.12 196.03C237.44 195.902 237.76 195.774 238.08 195.71C239.552 195.454 241.088 195.39 242.56 195.646C246.464 196.222 250.24 197.118 253.952 198.462C256.576 199.294 259.136 200.254 261.632 201.342L262.016 201.534C262.656 201.79 263.104 201.406 263.04 200.766C262.912 199.998 262.4 199.294 261.632 198.974C256.064 196.542 250.24 194.686 244.224 193.406C242.432 193.022 240.64 192.83 238.848 192.83C237.376 192.766 235.968 193.086 234.688 193.79C232.64 195.134 233.088 197.886 233.216 199.934C233.536 207.358 234.176 214.782 234.816 222.27C235.52 231.358 236.288 240.382 237.12 249.47C237.568 254.526 237.888 259.646 238.464 264.702C238.464 264.766 238.464 264.83 238.464 264.958C238.592 265.726 239.104 266.43 239.872 266.75C242.688 267.774 245.952 267.774 248.96 267.966C251.136 268.094 253.312 268.222 255.488 268.222C255.808 268.222 256.256 268.094 256.192 267.646L256 255.486V253.758L253.568 252.478L254.144 264.51L254.208 266.238C254.336 267.134 255.04 267.902 255.872 268.094C258.816 268.926 261.824 269.31 264.832 269.438C265.856 269.438 267.776 269.502 268.352 268.478C268.544 268.03 268.672 267.582 268.672 267.134C268.8 265.342 268.8 263.486 268.672 261.694C268.544 258.878 268.352 256.126 268.16 253.31C267.648 246.142 267.008 238.974 266.304 231.806C265.664 224.958 264.96 218.174 264.192 211.326C263.808 207.87 263.552 204.35 263.04 200.894V200.766C262.912 199.998 262.4 199.294 261.632 198.974C261.312 198.782 260.864 198.91 260.672 199.23C260.672 199.358 260.672 199.55 260.736 199.742Z" fill="#3D3D3D"/>
<path d="M251.52 214.207L252.288 232.063L253.568 260.543L253.888 267.071C253.952 267.903 257.024 267.327 256.96 266.239L256.192 248.383L254.912 219.903L254.592 213.375C254.592 212.607 251.456 213.119 251.52 214.207Z" fill="white"/>
<path d="M245.376 145.598C245.376 145.598 241.152 148.03 237.952 146.75C234.752 145.47 228.8 142.142 227.008 145.086C225.216 148.03 229.12 150.782 232.128 151.23C232.128 151.23 228.416 159.55 232.64 163.646C236.864 167.742 239.68 167.166 238.848 170.75C238.848 170.75 243.008 178.942 245.952 172.606C246.4 171.646 253.312 159.87 246.976 153.086C246.912 153.022 243.2 149.502 245.376 145.598Z" fill="white"/>
<path d="M244.608 144.191C243.264 144.959 241.728 145.407 240.192 145.599C238.016 145.791 236.032 144.511 234.112 143.743C232.192 142.975 229.888 142.015 227.776 142.655C225.408 143.359 224.768 146.175 225.664 148.287C226.752 150.783 229.568 152.383 232.192 152.831L230.912 150.399C229.248 154.111 228.416 159.103 230.4 162.815C231.296 164.287 232.512 165.567 233.92 166.527C235.008 167.359 236.224 167.999 237.248 168.767L237.44 168.959C237.76 169.215 237.184 168.767 237.504 169.023C237.568 169.087 237.568 169.151 237.632 169.215C237.312 168.831 237.632 169.343 237.568 169.087C237.504 168.831 237.568 169.407 237.568 168.959C237.568 169.087 237.568 169.215 237.568 169.279C237.568 169.535 237.632 168.959 237.568 169.407C237.568 169.599 237.504 169.727 237.504 169.919C237.44 170.687 237.696 171.455 238.144 172.031C239.104 173.631 240.384 175.487 242.24 176.191C244.608 177.151 246.08 175.295 247.104 173.311C248.96 169.599 250.624 165.695 250.816 161.471C250.944 158.143 250.112 154.687 247.808 152.191C247.68 152.063 247.552 151.935 247.488 151.807C247.424 151.679 247.808 152.191 247.68 151.999C247.552 151.871 247.488 151.743 247.36 151.615C247.232 151.423 247.04 151.231 246.912 151.039C246.72 150.783 246.912 150.975 246.912 151.039C246.784 150.847 246.72 150.719 246.592 150.527C245.888 149.247 245.952 147.775 246.656 146.495C247.36 145.215 245.184 142.975 244.352 144.575C242.688 147.647 243.84 151.295 246.08 153.727C246.144 153.791 246.592 154.239 246.4 154.047C246.208 153.855 246.592 154.303 246.656 154.367C246.784 154.559 246.976 154.751 247.104 154.943C247.488 155.519 247.744 156.159 247.936 156.799C248.32 158.207 248.448 159.743 248.256 161.215C247.872 164.031 247.04 166.847 245.76 169.407C245.44 170.047 245.12 170.751 244.736 171.391C244.48 171.903 244.224 172.415 243.84 172.863C243.584 173.183 243.2 173.375 242.752 173.375C242.944 173.375 242.624 173.375 242.56 173.311C242.496 173.247 242.56 173.311 242.624 173.311C242.56 173.311 242.496 173.247 242.432 173.247C242.368 173.247 242.048 173.055 242.176 173.119C242.304 173.183 241.92 172.927 241.856 172.863C241.792 172.799 241.6 172.671 241.536 172.543C241.728 172.735 241.472 172.479 241.408 172.415C241.216 172.159 241.024 171.967 240.832 171.711L240.576 171.327L240.448 171.135C240.576 171.327 240.384 171.007 240.32 170.943L240.128 170.687C240 170.495 239.872 170.303 239.808 170.111L240.064 171.263C240.512 169.535 240 167.743 238.656 166.527C237.376 165.311 235.648 164.543 234.304 163.455C233.536 162.879 232.896 162.175 232.448 161.407C232.128 160.767 231.936 160.063 231.936 159.295C231.808 157.695 232 156.095 232.448 154.559C232.704 153.727 232.96 152.895 233.28 152.127C233.6 151.103 233.088 150.015 232.064 149.695H232C231.04 149.567 230.144 149.183 229.312 148.671C228.736 148.351 228.224 147.839 227.904 147.263C227.84 147.071 227.84 146.815 227.904 146.623C228.032 146.239 228.224 145.919 228.544 145.727C229.056 145.471 229.632 145.343 230.208 145.407C232.128 145.535 233.984 146.495 235.712 147.199C237.632 148.031 239.424 148.735 241.6 148.479C243.2 148.287 244.736 147.711 246.144 146.943C247.488 146.239 245.952 143.423 244.608 144.191Z" fill="#3D3D3D"/>
<path d="M251.2 166.782C251.2 166.782 254.528 170.366 256.576 168.574C258.624 166.782 255.68 165.694 255.68 165.694C255.68 165.694 261.44 163.134 257.856 159.742C257.856 159.742 263.36 158.526 262.656 153.662C261.952 148.798 255.296 147.518 255.296 147.518C255.296 147.518 258.432 142.782 253.888 140.734C249.344 138.686 248.512 142.27 248.512 142.27C248.512 142.27 245.632 140.926 244.544 142.59C243.456 144.254 245.056 146.11 245.056 146.11C245.056 146.11 242.816 151.358 246.912 152.894L246.72 161.086C245.12 162.046 244.16 163.71 244.096 165.566C243.968 168.766 249.472 169.982 251.2 166.782Z" fill="#3D3D3D"/>
<path d="M249.664 166.59C251.392 168.446 253.952 169.79 256.576 169.598C257.664 169.47 259.328 168.446 258.752 167.166C258.432 166.334 257.344 165.822 256.576 165.566L257.216 166.206C258.176 165.758 259.008 165.182 259.712 164.414C260.992 162.942 260.736 161.342 259.392 160.062L259.136 160.382C261.248 159.87 263.552 158.398 264.064 156.158C265.024 152.446 261.824 149.694 258.816 148.35C257.664 147.838 256.512 147.454 255.296 147.198L256.768 147.966C257.728 146.43 258.304 144.254 257.28 142.654C256.256 141.054 254.016 140.286 252.224 139.966C250.816 139.71 249.088 139.582 247.936 140.542C247.424 140.99 247.04 141.566 246.912 142.206L249.664 142.462C248.32 141.822 246.848 141.502 245.376 141.502C244.608 141.438 243.776 141.694 243.2 142.206C242.624 142.846 242.432 143.742 242.688 144.574C242.752 144.894 242.88 145.214 243.072 145.534C243.2 145.726 243.328 145.918 243.456 146.11C243.456 146.11 243.456 145.982 243.392 146.11C243.328 146.238 243.328 146.366 243.264 146.494C242.88 147.518 242.752 148.606 242.88 149.694C243.136 151.55 244.352 152.638 246.016 153.342L245.312 152.83L245.248 156.606L245.184 159.422C245.248 159.934 245.184 160.446 245.12 160.958C245.12 161.022 245.248 160.894 245.056 161.022C244.8 161.214 244.544 161.342 244.352 161.598C243.584 162.302 243.008 163.262 242.688 164.286C242.368 165.246 242.496 166.334 243.072 167.166C243.84 167.998 244.8 168.638 245.888 168.894C248.256 169.598 251.456 169.662 252.864 167.23C253.056 166.91 250.176 165.886 249.728 166.59C249.28 167.358 248.512 167.934 247.68 168.19C247.424 168.254 247.232 168.254 246.976 168.254C246.976 168.318 246.912 168.126 247.04 168.254C247.168 168.382 247.104 168.254 247.104 168.254C246.976 168.19 246.848 168.126 246.784 168.062C245.12 166.91 245.76 164.542 246.72 163.134C247.168 162.622 247.616 162.174 248.128 161.79C248.384 161.598 248.32 161.598 248.384 161.278C248.512 159.934 248.448 158.462 248.512 157.118L248.576 153.406C248.576 153.15 248.064 152.958 247.872 152.894C245.504 151.934 245.952 148.478 246.72 146.622V146.494C245.952 145.598 245.504 144.126 246.272 143.102C246.592 142.718 246.976 142.526 247.488 142.526C247.232 142.526 247.36 142.398 247.424 142.526C247.552 142.59 247.616 142.59 247.488 142.526C247.36 142.462 247.424 142.526 247.552 142.526C247.68 142.526 248.128 142.782 247.616 142.526C247.936 142.654 250.176 143.422 250.368 142.782C250.496 142.27 250.816 141.758 251.2 141.374C252.224 140.478 253.12 140.798 254.08 141.63C255.68 143.102 255.04 145.662 253.952 147.326C253.76 147.646 255.36 148.03 255.424 148.03L255.552 148.094C255.168 147.966 255.296 148.03 255.616 148.094L255.872 148.158C256.192 148.222 255.68 148.094 255.936 148.158C256.192 148.222 256.512 148.35 256.768 148.478C257.984 148.99 259.072 149.694 259.968 150.718C261.824 152.766 261.696 155.966 259.648 157.822C259.392 158.014 259.136 158.206 258.88 158.398C258.24 158.846 257.472 159.166 256.704 159.358C256.64 159.358 256.32 159.486 256.448 159.678C257.728 160.958 257.984 162.43 256.704 163.774C256.064 164.478 255.232 164.99 254.4 165.374C254.016 165.566 254.976 166.014 255.04 166.014C254.592 165.822 255.104 166.078 255.104 166.078C255.36 166.206 255.616 166.462 255.808 166.718C256 167.038 256 167.422 255.808 167.742C255.68 167.998 255.424 168.19 255.232 168.382C255.104 168.446 254.848 168.51 254.784 168.638H254.656C254.848 168.638 255.104 168.638 255.296 168.702C255.36 168.702 255.168 168.638 255.04 168.574C254.656 168.382 254.336 168.19 254.016 167.934C253.632 167.678 253.312 167.358 252.992 167.038C252.48 166.59 251.776 166.398 251.136 166.334C250.752 166.27 249.344 166.27 249.664 166.59Z" fill="#3D3D3D"/>
<path d="M244.032 154.112C244.032 154.112 248.256 150.656 250.176 152.768C252.096 154.88 248.384 162.752 244.352 159.936" fill="white"/>
<path d="M244.927 155.453C245.631 154.877 246.335 154.429 247.167 154.045C247.359 153.981 246.847 154.173 247.039 154.109L247.167 154.045L247.423 153.917C247.551 153.853 247.743 153.789 247.935 153.725C248.127 153.661 248.255 153.661 248.383 153.597C248.447 153.597 248.767 153.533 248.447 153.597C248.127 153.661 248.511 153.597 248.575 153.597C248.639 153.597 248.895 153.597 249.023 153.597C249.023 153.597 248.639 153.533 248.831 153.597H248.895C248.959 153.597 249.087 153.661 249.151 153.661C249.215 153.661 248.959 153.597 248.959 153.597L249.023 153.661C249.087 153.725 249.151 153.725 249.215 153.789C249.215 153.789 248.959 153.533 249.023 153.661C249.087 153.789 249.087 153.725 249.151 153.725L249.215 153.789C249.407 153.917 249.023 153.597 249.023 153.597L249.215 153.853C249.215 153.853 249.023 153.405 249.087 153.661C249.087 153.725 249.151 153.789 249.151 153.853C249.151 153.917 249.215 154.173 249.151 153.853C249.087 153.533 249.151 153.789 249.151 153.853C249.151 153.981 249.215 154.109 249.215 154.237C249.215 154.301 249.215 154.365 249.215 154.429C249.215 154.493 249.215 154.045 249.215 154.301C249.215 154.429 249.215 154.621 249.151 154.749C249.087 154.877 249.087 155.005 249.087 155.197C249.087 155.389 249.087 155.325 249.023 155.453C248.959 155.581 249.023 155.517 249.023 155.581C249.023 155.709 249.151 155.197 249.087 155.453C248.895 156.093 248.639 156.669 248.319 157.245C248.255 157.373 248.447 157.053 248.447 157.053L248.383 157.181L248.255 157.373C248.127 157.501 248.063 157.629 247.935 157.821C247.807 158.013 247.743 158.077 247.615 158.141L247.423 158.333L247.359 158.397C247.167 158.589 247.615 158.205 247.487 158.333C247.231 158.525 246.975 158.717 246.655 158.909L246.591 158.973C246.463 159.037 246.975 158.845 246.719 158.909L246.527 158.973L246.271 159.037C246.207 159.037 245.887 159.101 246.207 159.037C246.527 158.973 246.207 159.037 246.143 159.037H245.823C245.631 159.037 246.015 159.037 246.015 159.037C245.951 159.037 245.823 158.973 245.759 158.973L245.503 158.909C245.439 158.909 245.311 158.845 245.567 158.909C245.631 158.909 245.823 158.973 245.567 158.909C245.375 158.845 245.183 158.717 245.055 158.589C244.415 158.205 243.583 158.461 243.199 159.101C243.199 159.165 243.135 159.165 243.135 159.229C242.879 159.997 243.199 160.893 243.903 161.341C245.375 162.365 247.359 162.365 248.895 161.341C250.239 160.381 251.263 158.973 251.775 157.373C252.351 155.837 252.607 154.045 251.839 152.573C251.391 151.613 250.495 150.909 249.471 150.653C248.575 150.461 247.615 150.525 246.719 150.845C245.439 151.293 244.223 151.933 243.199 152.765C242.559 153.277 242.431 154.237 242.879 154.877C243.327 155.453 244.287 155.965 244.927 155.453Z" fill="#3D3D3D"/>
<path d="M240.896 149.758C240.576 149.694 240.192 149.886 240.128 150.206V150.27C240.064 150.974 240.896 151.038 241.152 150.526C241.28 150.27 241.216 149.95 240.896 149.758Z" fill="#3D3D3D"/>
<path d="M210.56 144.447C210.624 143.551 213.184 138.559 213.568 134.975C213.952 131.391 216.704 130.367 220.48 129.727C224.256 129.087 225.344 132.095 222.144 132.991C218.944 133.887 218.752 134.527 218.752 134.527C220.672 134.207 222.592 134.399 224.384 135.039C227.008 136.063 228.224 138.047 227.136 138.687C226.048 139.327 223.616 137.983 222.08 138.303C222.08 138.303 226.816 140.671 226.176 142.911C225.536 145.151 221.312 142.207 221.312 142.207C221.312 142.207 222.4 146.559 219.904 148.927C218.368 150.399 216.576 151.487 214.592 152.255C214.528 152.255 210.112 153.215 210.56 144.447Z" fill="white"/>
<path d="M212.16 144.767C212.288 144.127 212.48 143.487 212.8 142.911C213.248 141.823 213.696 140.735 214.08 139.647C214.528 138.495 214.848 137.279 215.104 135.999C215.296 134.975 215.36 133.951 215.936 133.055C217.088 131.391 219.328 130.943 221.184 130.687C221.44 130.623 221.696 130.623 221.952 130.623C222.08 130.623 222.336 130.687 222.208 130.623C222.4 130.687 222.336 130.623 222.4 130.687C222.272 130.623 222.528 130.815 222.464 130.751C222.4 130.687 222.528 130.879 222.592 130.879C222.592 131.007 222.592 131.135 222.592 131.263C222.4 131.583 222.08 131.775 221.76 131.903C220.608 132.351 219.328 132.543 218.24 133.183C217.856 133.375 217.536 133.695 217.344 134.079C217.024 135.039 218.944 135.487 219.52 135.359C221.568 134.975 224.256 135.167 225.728 136.831C225.856 136.959 225.984 137.151 226.048 137.343C226.112 137.471 226.048 137.599 226.112 137.663C226.176 137.727 226.048 137.663 226.24 137.663C226.112 137.663 226.048 137.663 225.92 137.663C224.512 137.407 223.104 136.895 221.632 137.151C220.672 137.279 220.288 138.239 221.312 138.751C221.888 139.071 222.464 139.391 223.04 139.775C223.744 140.287 224.832 141.119 224.832 142.079C224.832 142.271 224.64 142.463 224.64 142.591C224.64 142.591 224.96 142.527 224.704 142.527C224.896 142.527 224.896 142.527 224.768 142.527C224.64 142.527 224.704 142.527 224.832 142.527C224.832 142.527 224.448 142.463 224.64 142.463C224.832 142.463 224.448 142.399 224.448 142.399L224.064 142.207C223.808 142.079 224.064 142.207 223.936 142.143C223.808 142.079 223.744 142.015 223.616 141.951C223.424 141.823 223.168 141.695 222.976 141.567C222.784 141.439 222.592 141.311 222.4 141.183C221.824 140.799 219.584 140.543 219.904 141.759C220.224 142.975 220.224 144.319 219.968 145.535C219.456 147.903 217.216 149.375 215.168 150.399C214.848 150.591 214.528 150.719 214.208 150.847C214.016 150.911 213.44 151.103 214.144 150.911H214.016C213.696 150.975 214.4 150.911 214.08 150.911C213.568 150.911 214.4 150.975 214.08 150.911C214.016 150.911 213.952 150.847 213.824 150.847C214.144 150.847 214.144 150.975 213.888 150.847C213.632 150.719 214.144 150.847 213.952 150.847C213.76 150.847 213.632 150.591 213.888 150.847L213.632 150.591C213.568 150.591 213.568 150.527 213.504 150.463C213.44 150.399 213.632 150.591 213.504 150.463C212.096 149.183 212.096 146.687 212.16 144.767C212.224 143.999 211.456 143.615 210.816 143.487C210.368 143.423 209.088 143.359 209.024 144.063C208.896 147.583 209.344 152.383 213.632 153.087C214.464 153.279 215.296 153.151 216.064 152.831C217.216 152.383 218.24 151.807 219.264 151.103C220.48 150.271 221.76 149.311 222.4 147.967C223.232 146.111 223.424 144.063 222.912 142.143L220.416 142.719C221.312 143.359 222.272 143.871 223.296 144.255C224.704 144.767 227.072 145.087 227.712 143.359C228.672 140.863 224.896 138.495 223.104 137.599L222.784 139.199C223.552 139.199 224.256 139.327 224.96 139.583C225.792 139.839 226.688 139.839 227.584 139.711C229.312 139.391 229.568 137.855 228.544 136.575C226.24 133.695 221.696 132.927 218.176 133.567L220.352 134.847C220.352 134.783 220.224 135.167 220.288 135.039C220.352 134.911 220.352 134.975 220.224 135.103C220.416 134.911 220.672 134.783 220.928 134.655C222.144 134.079 223.68 134.015 224.768 133.119C225.536 132.607 225.856 131.583 225.536 130.751C225.024 129.663 223.744 129.087 222.656 128.831C221.184 128.639 219.648 128.703 218.176 129.151C216.896 129.407 215.68 129.855 214.528 130.559C213.568 131.199 212.8 132.095 212.416 133.183C211.968 134.399 211.968 135.743 211.584 136.959C211.136 138.495 210.624 139.967 209.984 141.439C209.536 142.271 209.216 143.231 209.024 144.191C208.896 145.471 212.032 146.047 212.16 144.767Z" fill="#CECECE"/>
<path d="M208.896 145.279C208.896 145.279 198.528 161.151 200.96 166.911C203.392 172.671 235.136 185.535 235.136 185.535C235.136 185.535 229.12 209.023 232.704 209.855C236.288 210.687 263.872 209.599 266.304 206.847C268.736 204.095 261.952 183.871 261.952 183.871C261.952 183.871 283.648 167.103 284.16 161.599C284.672 156.095 266.24 143.039 266.24 143.039L260.992 152.191L264.128 162.559C264.128 162.559 257.728 167.423 246.784 168.255C236.672 169.023 216.768 162.303 216.768 162.303L222.4 151.487L208.896 145.279Z" fill="white"/>
<path d="M207.808 144.127C205.632 147.455 203.712 150.911 202.112 154.559C200.256 158.655 197.632 164.607 200.896 168.639C202.112 169.983 203.456 171.135 204.992 172.095C207.104 173.503 209.344 174.783 211.584 175.999C216.384 178.559 221.312 180.927 226.304 183.103C229.248 184.383 232.128 185.663 235.136 186.879L233.984 184.639C232.64 189.759 231.616 194.943 230.848 200.127C230.464 202.879 229.888 206.207 230.784 208.959C231.104 210.111 232 211.007 233.216 211.327C234.24 211.455 235.2 211.519 236.224 211.519C243.52 211.711 250.88 211.327 258.112 210.431C260.8 210.111 263.808 209.855 266.304 208.703C268.48 207.679 268.032 204.671 267.776 202.687C267.264 199.103 266.496 195.583 265.472 192.127C264.704 189.439 263.936 186.815 263.04 184.191L262.912 183.807L262.72 185.343C269.056 180.479 275.264 175.295 280.768 169.471C282.176 168.063 283.392 166.527 284.416 164.863C285.312 163.455 285.504 161.663 284.864 160.127C284.096 158.079 282.56 156.223 281.088 154.623C279.296 152.703 277.376 150.847 275.392 149.183C272.512 146.687 269.504 144.319 266.432 142.143C266.112 141.887 265.408 141.567 265.088 142.143L260.352 150.399C260.16 150.719 259.968 151.039 259.776 151.423C259.648 151.935 259.712 152.511 259.968 153.023L261.568 158.335L262.848 162.623L263.168 161.471C261.568 162.623 259.776 163.583 257.92 164.287C253.696 166.079 249.216 167.039 244.672 167.103C240.832 167.039 236.992 166.591 233.216 165.695C229.504 164.927 225.792 163.967 222.08 162.879C220.096 162.303 218.176 161.727 216.256 161.087L217.6 163.711L223.296 152.831C223.744 151.935 223.104 150.719 222.272 150.335L210.496 144.831L208.768 144.063C208.384 143.807 207.936 143.935 207.68 144.319C207.616 144.447 207.552 144.639 207.552 144.831C207.616 145.663 208.064 146.367 208.768 146.751L220.48 152.255L222.208 153.023L221.184 150.527L215.552 161.343C215.04 162.367 215.936 163.647 216.896 163.967C222.08 165.695 227.328 167.167 232.64 168.319C236.544 169.215 240.576 169.791 244.608 169.983C249.216 170.047 253.824 169.215 258.112 167.551C260.544 166.719 262.784 165.567 264.896 164.159C265.216 163.903 265.344 163.455 265.216 163.007L262.08 152.639L261.952 153.599L267.2 144.447H265.856C268.288 146.175 270.656 148.031 272.96 149.951C274.88 151.551 276.736 153.151 278.4 154.879C279.232 155.711 280.064 156.543 280.768 157.439C280.896 157.631 281.088 157.823 281.216 158.015C281.344 158.207 281.408 158.207 281.472 158.335C281.216 158.015 281.472 158.399 281.536 158.399C281.792 158.783 282.048 159.167 282.304 159.615C282.368 159.679 282.368 159.807 282.432 159.871C282.24 159.487 282.432 159.807 282.432 159.871C282.432 159.935 282.56 160.191 282.624 160.383C282.688 160.575 282.752 160.767 282.624 160.383C282.624 160.447 282.688 160.575 282.688 160.639L282.752 160.831C282.816 161.215 282.752 160.703 282.752 160.895C282.752 161.087 282.752 161.151 282.752 161.279C282.752 160.831 282.752 161.343 282.688 161.407C282.624 161.471 282.624 161.663 282.56 161.791C282.496 161.919 282.432 162.111 282.56 161.855C282.496 161.919 282.496 162.047 282.432 162.111C281.536 163.711 280.384 165.247 279.104 166.527C275.712 170.111 272.128 173.503 268.288 176.639C265.856 178.687 263.36 180.735 260.864 182.719C260.352 183.103 260.544 183.743 260.672 184.255C260.8 184.767 260.992 185.215 261.184 185.727C261.248 185.983 261.312 186.239 261.44 186.431C261.44 186.495 261.504 186.559 261.504 186.559C261.568 186.751 261.632 186.879 261.632 187.071C261.824 187.775 262.08 188.479 262.272 189.183C263.296 192.575 264.192 195.967 264.896 199.423C265.024 200.191 265.216 201.023 265.28 201.855C265.344 202.495 265.408 203.071 265.408 203.711C265.408 203.967 265.408 204.287 265.408 204.543C265.408 204.671 265.408 204.799 265.408 204.927C265.408 205.055 265.408 204.735 265.408 204.863C265.408 204.991 265.408 204.991 265.408 205.055C265.344 205.247 265.344 205.439 265.28 205.631C265.408 205.375 265.216 205.759 265.088 205.887C265.28 205.631 265.088 205.887 264.96 205.951C264.768 206.079 264.64 206.143 264.448 206.207L264.192 206.335C264.064 206.399 264.32 206.271 264.064 206.399C263.808 206.527 263.616 206.527 263.36 206.591C262.08 206.911 260.736 207.167 259.392 207.359C252.224 208.383 244.928 208.895 237.696 208.831C236.992 208.831 236.288 208.831 235.648 208.831C235.008 208.831 234.688 208.831 234.112 208.767C233.664 208.767 233.28 208.703 232.832 208.639C232.704 208.639 232.512 208.575 232.384 208.575C232.256 208.575 232.128 208.447 232.448 208.639C232.256 208.511 232.64 208.767 232.64 208.831L232.704 208.895C232.576 208.767 232.96 209.279 232.832 209.087C232.64 208.767 232.896 209.279 232.896 209.215C232.832 209.151 232.832 209.087 232.832 209.023C232.768 208.831 232.896 209.215 232.896 209.215C232.896 209.215 232.832 209.087 232.832 209.023C232.768 208.767 232.768 208.575 232.704 208.319C232.768 208.639 232.704 208.319 232.704 208.191C232.704 208.063 232.704 207.935 232.704 207.807C232.64 206.399 232.768 204.991 232.896 203.583C233.6 198.015 234.688 192.447 236.096 187.007C236.096 186.879 236.16 186.751 236.16 186.687C236.288 185.791 235.84 184.895 235.008 184.447C227.904 181.567 220.928 178.431 214.08 174.911C209.984 172.799 206.144 170.879 202.688 167.935C202.368 167.615 202.624 167.871 202.688 167.935C202.624 167.871 202.56 167.807 202.496 167.743C202.432 167.679 202.24 167.487 202.176 167.359C202.112 167.231 201.984 167.167 201.92 167.039C201.728 166.847 202.112 167.423 201.984 167.167C201.92 167.103 201.92 167.039 201.856 166.911C201.6 166.527 202.048 167.167 201.856 166.911C201.792 166.847 201.792 166.719 201.728 166.591C201.856 166.975 201.728 166.591 201.728 166.527C201.728 166.463 201.664 165.887 201.664 166.207C201.664 165.887 201.6 165.631 201.6 165.311C201.664 163.007 202.56 160.447 203.52 158.207C205.248 154.175 207.296 150.271 209.728 146.559C210.624 145.407 208.64 142.911 207.808 144.127Z" fill="#3D3D3D"/>
<path d="M237.12 157.629C237.184 157.437 237.248 157.245 237.312 157.053L237.184 157.309C237.44 156.797 237.696 156.285 238.08 155.901L235.264 156.669L237.312 158.333C237.824 158.589 238.4 158.589 238.976 158.397C239.232 158.333 239.488 158.205 239.68 158.077C239.936 157.949 240.128 157.693 240.256 157.437C240.384 156.797 240.576 156.157 240.832 155.581C240.896 155.325 240.64 155.133 240.512 155.069C240.192 155.005 239.808 155.005 239.488 155.069C238.784 155.133 238.144 155.581 237.76 156.157C237.504 156.733 237.312 157.373 237.184 158.013L240.128 157.053L238.08 155.325C237.632 155.069 237.12 155.069 236.672 155.261C236.096 155.389 235.648 155.645 235.264 156.093C234.752 156.733 234.368 157.501 234.112 158.269C234.048 158.525 234.24 158.717 234.432 158.781C234.752 158.845 235.136 158.845 235.456 158.781C236.096 158.589 236.928 158.269 237.12 157.629Z" fill="#3D3D3D"/>
</svg>
