<svg width="16" height="16" viewBox="0 0 16 16" fill="none" xmlns="http://www.w3.org/2000/svg">
<path d="M9.33464 2.95837C10.2321 2.95837 10.9596 2.23083 10.9596 1.33337H11.7096C11.7096 2.23083 12.4372 2.95837 13.3346 2.95837V3.70837C12.4372 3.70837 11.7096 4.43591 11.7096 5.33337H10.9596C10.9596 4.43591 10.2321 3.70837 9.33464 3.70837V2.95837ZM0.667969 7.33337C2.87711 7.33337 4.66797 5.54251 4.66797 3.33337H6.0013C6.0013 5.54251 7.79217 7.33337 10.0013 7.33337V8.66671C7.79217 8.66671 6.0013 10.4576 6.0013 12.6667H4.66797C4.66797 10.4576 2.87711 8.66671 0.667969 8.66671V7.33337ZM11.5013 9.33337C11.5013 10.53 10.5312 11.5 9.33464 11.5V12.5C10.5312 12.5 11.5013 13.4701 11.5013 14.6667H12.5013C12.5013 13.4701 13.4714 12.5 14.668 12.5V11.5C13.4714 11.5 12.5013 10.53 12.5013 9.33337H11.5013Z" fill="url(#paint0_linear_13920_243441)"/>
<defs>
<linearGradient id="paint0_linear_13920_243441" x1="8.00122" y1="1.00037" x2="8.00122" y2="15.0004" gradientUnits="userSpaceOnUse">
<stop stop-color="#62A5F5"/>
<stop offset="1" stop-color="#5FFFDC"/>
</linearGradient>
</defs>
</svg>
