<svg width="200" height="200" viewBox="0 0 200 200" fill="none" xmlns="http://www.w3.org/2000/svg">
<path d="M141.24 61.7199C141.28 53.0799 141.12 45.5199 140.48 43.0799C140 41.1599 130.88 37.5199 118.12 33.3599V59.3199L141.24 61.7199Z" fill="#3D3D3D"/>
<path d="M141.96 61.6801C141.96 57.8001 141.96 53.9201 141.84 50.0401C141.8 48.6001 141.72 47.1601 141.6 45.7601C141.56 44.8401 141.44 43.9601 141.24 43.0801C141.08 42.6401 140.76 42.2401 140.36 41.9601C139.72 41.4801 139 41.0401 138.28 40.6401C135.92 39.4401 133.44 38.3601 130.96 37.4401C126.92 35.8801 122.8 34.4801 118.64 33.1601C118.44 33.0801 117.36 33.0401 117.36 33.4001V59.3601C117.36 59.5201 117.64 59.5201 117.76 59.5601L125.56 60.3601L138 61.6801L140.88 62.0001C141.16 62.0401 141.68 62.0801 141.88 61.8401C142.08 61.6001 141.8 61.5201 141.6 61.5201L133.8 60.7201L121.36 59.4401L118.48 59.1201L118.88 59.3201V33.3201L117.6 33.5601C121.28 34.7601 124.96 36.0001 128.6 37.3601C131.2 38.3201 133.8 39.3601 136.28 40.6001C137.08 40.9601 137.84 41.4001 138.56 41.9201C139 42.2001 139.4 42.5601 139.68 43.0001C139.96 43.6001 139.96 44.4801 140.04 45.1601C140.16 46.4801 140.24 47.8001 140.28 49.0801C140.48 53.3201 140.48 57.5201 140.44 61.7601C140.48 62.0801 141.96 62.0401 141.96 61.6801Z" fill="#3D3D3D"/>
<path d="M76.36 89.4399L112.88 83.9199V65.1599L76.36 62.8799V89.4399Z" fill="#3D3D3D"/>
<path d="M76.4 89.92L80.04 89.36L88.76 88.04L99.32 86.44L108.44 85.08C109.92 84.84 111.4 84.64 112.88 84.4H112.96C113.28 84.36 113.68 84.2 113.68 83.84V65.08C113.68 64.8 113.32 64.68 113.08 64.64L109.44 64.4L100.72 63.88L90.16 63.24L81 62.68C79.52 62.6 78.04 62.48 76.56 62.4H76.48C76.12 62.36 75.56 62.52 75.56 62.96V89.48C75.56 90.12 77.04 90.04 77.04 89.36V62.84L76.12 63.4L79.76 63.64L88.48 64.16L99.04 64.8L108.16 65.36L111.16 65.56C111.64 65.64 112.12 65.64 112.6 65.64H112.68L112.08 65.2V84L112.8 83.44L109.12 83.96L100.4 85.28L89.84 86.88L80.72 88.24C79.24 88.48 77.76 88.68 76.28 88.92H76.2C75.92 88.96 75.48 89.12 75.48 89.48C75.48 89.84 76.12 89.96 76.4 89.92Z" fill="#3D3D3D"/>
<path d="M76.36 96.8798V121.2C88.76 117.12 101.8 112.72 112.92 109V90.7998L76.36 96.8798Z" fill="#3D3D3D"/>
<path d="M75.64 96.72V121.04C75.64 121.4 76.6 121.68 76.88 121.6C86.52 118.4 96.16 115.2 105.76 111.96L113.4 109.36C113.52 109.32 113.56 109.28 113.56 109.16V90.96C113.56 90.56 112.6 90.36 112.32 90.4L108.68 91L99.96 92.44L89.4 94.2L80.28 95.72L77.28 96.2C76.8 96.24 76.32 96.32 75.84 96.44C75.8 96.44 75.8 96.44 75.76 96.44C75.4 96.48 75.76 96.84 75.88 96.92C76.16 97.12 76.52 97.2 76.88 97.16L80.52 96.56L89.24 95.12L99.8 93.36L108.92 91.84L111.92 91.32C112.4 91.24 112.88 91.2 113.36 91.08H113.44L112.2 90.52V108.72L112.36 108.52C102.96 111.68 93.56 114.84 84.12 117.96C81.36 118.88 78.56 119.8 75.8 120.72L77.04 121.28V96.96C77.04 96.68 75.64 96.24 75.64 96.72Z" fill="#3D3D3D"/>
<path d="M118.12 107.24C131.24 102.8 140.48 99.6401 140.48 99.6401C140.48 99.6401 140.68 93.8801 140.88 86.1201L118.08 89.9201L118.12 107.24Z" fill="#3D3D3D"/>
<path d="M118.4 107.76C125.44 105.4 132.44 103 139.48 100.6L140.76 100.16C141 100.08 141.16 99.88 141.2 99.64C141.36 95.12 141.48 90.64 141.6 86.12C141.6 85.76 141.28 85.48 140.92 85.48C140.84 85.48 140.8 85.48 140.76 85.52L133.08 86.8L120.8 88.88L118 89.36C117.76 89.4 117.36 89.6 117.36 89.92V107.2C117.36 108.04 118.84 108 118.84 107.24V89.92L118.2 90.48L125.92 89.2L138.2 87.16L141 86.68L140.16 86.04C140.04 90.56 139.92 95.04 139.76 99.56L140.2 99.04C135.44 100.68 130.68 102.28 125.88 103.92L117.8 106.64C117.48 106.72 117.28 107.08 117.4 107.4V107.44C117.64 107.8 118.04 107.92 118.4 107.76Z" fill="#3D3D3D"/>
<path d="M118.12 65.48V83.16L140.96 79.72C141.04 75.68 141.16 71.28 141.2 66.92L118.12 65.48Z" fill="#3D3D3D"/>
<path d="M117.6 65.0398V82.7198C117.6 83.0798 118 83.8798 118.44 83.7998L126.16 82.6398L138.48 80.7998L141.28 80.3998C141.4 80.3998 141.44 80.2798 141.44 80.1998C141.56 75.9198 141.6 71.6798 141.68 67.3998C141.68 66.9598 141.28 66.3598 140.84 66.3198L133.04 65.8398L120.6 65.0798L117.76 64.9198C117.44 64.9198 117.64 65.4798 117.72 65.5998C117.84 65.9198 118.12 66.1598 118.44 66.1998L126.24 66.6798L138.68 67.4398L141.52 67.5998L140.68 66.5198C140.64 70.7998 140.56 75.0398 140.44 79.3198L140.64 79.1198L132.92 80.2798L120.6 82.1198L117.8 82.5598L118.64 83.6398V65.9598C118.6 65.5998 118.44 65.2798 118.16 65.0398C118 64.8398 117.6 64.6798 117.6 65.0398Z" fill="#3D3D3D"/>
<path d="M30.08 104.64C30.08 121.76 30.52 134.6 31.8 134.84C33.36 135.12 50.72 129.64 71.16 122.96V97.7998L30.08 104.64Z" fill="#3D3D3D"/>
<path d="M29.4 104.36C29.4 110.92 29.44 117.48 29.72 124.04C29.8 126.2 29.92 128.36 30.12 130.52C30.24 131.68 30.32 132.96 30.76 134.04C31.12 134.88 32 135.36 32.88 135.2C34 135.04 35.08 134.76 36.16 134.44C40.64 133.24 45.08 131.84 49.52 130.48C56.04 128.44 62.56 126.36 69.04 124.2L71.76 123.32C71.8 123.32 71.84 123.28 71.8 123.2V98.0397C71.8 97.7197 70.88 97.3197 70.6 97.3597L66.52 98.0397L56.72 99.6797L44.84 101.68L34.6 103.36L31.2 103.92C30.68 104 30.12 104.08 29.6 104.2H29.52C29.2 104.24 29.48 104.52 29.6 104.6C29.88 104.84 30.2 104.96 30.56 105L34.64 104.32L44.44 102.68L56.32 100.68L66.56 98.9597L69.96 98.3997C70.48 98.3197 71.04 98.2397 71.56 98.1197C71.6 98.1197 71.6 98.1197 71.64 98.1197L70.44 97.4397V122.12C70.48 122.28 70.48 122.4 70.44 122.56V122.6C70.52 122.44 69.96 122.64 70.12 122.6C69.96 122.64 69.8 122.68 69.64 122.76L67.4 123.48L63.08 124.88C60.4 125.76 57.76 126.6 55.08 127.44C50.6 128.88 46.16 130.28 41.64 131.64C38.8 132.48 35.96 133.36 33.08 134.04C32.48 134.2 31.92 134.24 31.32 134.32C31.6 134.36 31.84 134.48 32.08 134.64C32.16 134.68 32.2 134.72 32.2 134.72C32.2 134.6 32.12 134.6 32.08 134.48C31.96 134.16 31.88 133.8 31.8 133.48C31.2 130.52 31.16 127.4 31.04 124.4C30.84 119.36 30.76 114.32 30.76 109.28C30.76 107.8 30.76 106.28 30.76 104.8C30.76 104.52 29.4 104 29.4 104.36Z" fill="#3D3D3D"/>
<path d="M71.16 19.9596C49.84 14.5596 31.84 10.7996 31.8 12.4396C31.8 12.4396 31.24 29.2396 30.76 50.1996L71.16 54.3997V19.9596Z" fill="#3D3D3D"/>
<path d="M71.44 19.3599C64 17.4799 56.52 15.6399 49.04 14.0399C46.2 13.4399 43.4 12.8399 40.56 12.3199C38.6 11.9599 36.64 11.6399 34.68 11.4799C33.76 11.3999 32.36 11.1599 31.52 11.7199C31 12.0799 31.08 12.7599 31.08 13.3599C30.96 17.3599 30.84 21.3599 30.72 25.3199C30.52 32.5199 30.32 39.7199 30.16 46.9599C30.12 47.9999 30.12 49.0799 30.08 50.1199C30.08 50.5199 30.36 50.8399 30.76 50.8799L34.76 51.2799L44.4 52.2799L56.04 53.4799L66.12 54.5199C67.76 54.6799 69.4 54.9199 71.04 55.0399H71.12C71.44 55.0799 71.96 54.8799 71.96 54.4799V24.3199C71.96 22.9199 71.96 21.5199 71.96 20.1199V20.0399C71.96 19.1999 70.48 18.9999 70.48 19.8399V52.8799C70.44 53.3199 70.44 53.7999 70.48 54.2399V54.2799L71.32 53.7199L67.32 53.2799L57.68 52.2799L46 51.0799L35.92 50.0399L32.56 49.6799C32.04 49.5999 31.52 49.5199 31 49.5199H30.92L31.6 50.2799C31.76 42.9199 31.96 35.5199 32.16 28.1599C32.28 23.6399 32.44 19.1199 32.56 14.6399L32.6 13.1599C32.64 12.9599 32.64 12.7599 32.6 12.5599C32.6 12.4799 32.68 12.3999 32.56 12.6399C32.52 12.6799 32.48 12.7199 32.44 12.7999C32.28 12.8799 32.56 12.7199 32.44 12.7999C32.6 12.7199 32.36 12.7999 32.48 12.7999C32.6 12.7999 32.88 12.7599 33.08 12.7599H33.28C33.44 12.7599 33.56 12.7599 33.72 12.7599C35.48 12.8799 37.2 13.1199 38.92 13.3999C41.52 13.8399 44.12 14.3599 46.72 14.8799C53.84 16.3599 60.88 18.0799 67.92 19.8399L70.88 20.5999C71.24 20.7199 71.64 20.5999 71.84 20.2799C72 19.9599 71.84 19.5599 71.48 19.3999C71.48 19.3999 71.44 19.3999 71.44 19.3599Z" fill="#3D3D3D"/>
<path d="M112.92 58.7598V31.6798C101.8 28.1998 88.76 24.5198 76.36 21.2798V54.9198L112.92 58.7598Z" fill="#3D3D3D"/>
<path d="M113.52 58.9997V31.9597C113.52 31.6397 113.08 31.2797 112.84 31.1997C103.44 28.2797 93.92 25.5597 84.4 22.9597C81.64 22.1997 78.88 21.4797 76.12 20.7597C75.96 20.7197 75.8 20.7997 75.72 20.9597C75.72 20.9997 75.68 21.0397 75.72 21.0797V54.7197C75.72 55.0797 76.24 55.5197 76.56 55.5197L80.2 55.9197L88.92 56.8397L99.44 57.9597L108.6 58.9197C110.08 59.0797 111.56 59.2397 113.04 59.3997H113.12C114 59.4797 113.2 58.3197 112.68 58.2797L109.04 57.8797L100.32 56.9597L89.8 55.8397L80.64 54.8797L77.64 54.5597C77.16 54.5197 76.68 54.3997 76.2 54.3997H76.12L76.96 55.1997V21.5997L76.56 21.9197C86.2 24.4397 95.8 27.1197 105.32 29.9197C107.88 30.6797 110.4 31.4397 112.92 32.2397L112.24 31.4797V58.5597C112.28 59.0397 113.52 59.7597 113.52 58.9997Z" fill="#3D3D3D"/>
<path d="M71.16 62.5601L30.56 60.0801C30.32 72.2401 30.12 85.0401 30.08 96.4001L71.16 90.2001V62.5601Z" fill="#3D3D3D"/>
<path d="M71.12 61.9198L67.08 61.6798L57.4 61.0798L45.64 60.3598L35.52 59.7198C33.88 59.6398 32.24 59.4398 30.6 59.3998H30.52C30.16 59.3598 29.84 59.6398 29.8 59.9998C29.8 59.9998 29.8 59.9998 29.8 60.0398C29.6 69.5998 29.48 79.1198 29.36 88.6798C29.36 91.2398 29.32 93.7998 29.32 96.3598C29.32 96.8398 29.88 97.0798 30.28 97.0398L34.4 96.3998L44.2 94.9198L56.08 93.1198L66.32 91.5598C67.96 91.3198 69.68 91.1598 71.32 90.7998H71.4C71.72 90.7598 71.92 90.4798 71.92 90.1598V62.5198C71.92 61.6798 70.44 61.5998 70.44 62.4798V90.1198L70.96 89.4798L66.88 90.0798L57.08 91.5598L45.2 93.3598L34.96 94.9198L31.56 95.4398C31.04 95.5198 30.48 95.5598 29.96 95.6798H29.88L30.84 96.3598C30.88 86.9598 31 77.5598 31.16 68.1198C31.2 65.4398 31.24 62.7198 31.32 60.0398L30.6 60.6798L34.64 60.9198L44.32 61.5598L56.08 62.2798L66.2 62.9198C67.84 62.9998 69.48 63.1998 71.12 63.2398H71.2C72.16 63.2798 72.04 61.9598 71.12 61.9198Z" fill="#3D3D3D"/>
<path d="M46.08 21.2797C46.08 21.2797 50.44 23.4797 48.2 29.5197C45.96 35.5597 38.76 34.1597 37.4 29.1197C36.04 24.0797 38.92 18.1597 46.08 21.2797Z" fill="white"/>
<path d="M125.68 68.96C125.68 68.96 128.08 70.16 126.84 73.44C125.6 76.72 121.72 75.96 120.96 73.24C120.2 70.52 121.8 67.24 125.68 68.96Z" fill="white"/>
<path d="M125.52 91.2799C125.52 91.2799 127.92 92.4799 126.68 95.7599C125.44 99.0399 121.56 98.2799 120.8 95.5599C120.04 92.8399 121.6 89.5599 125.52 91.2799Z" fill="white"/>
<path d="M125.36 38.4C125.36 38.4 127.76 39.6 126.52 42.88C125.28 46.16 121.4 45.4 120.64 42.68C119.88 39.96 121.44 36.68 125.36 38.4Z" fill="white"/>
<path d="M45.76 66.3998C45.76 66.3998 50.12 68.5998 47.88 74.6398C45.64 80.6798 38.44 79.2798 37.08 74.2398C35.72 69.1998 38.6 63.2398 45.76 66.3998Z" fill="white"/>
<path d="M45.44 107.4C45.44 107.4 49.8 109.6 47.56 115.64C45.32 121.68 38.12 120.28 36.76 115.24C35.4 110.2 38.28 104.24 45.44 107.4Z" fill="white"/>
<path d="M86.84 27.3998C86.84 27.3998 90.52 29.2398 88.6 34.3198C86.68 39.3998 80.72 38.2398 79.6 33.9998C78.48 29.7598 80.84 24.7598 86.84 27.3998Z" fill="white"/>
<path d="M87.28 66.7997C87.28 66.7997 90.96 68.6397 89.04 73.7197C87.12 78.7997 81.12 77.6397 80 73.3997C78.88 69.1597 81.24 64.1597 87.28 66.7997Z" fill="white"/>
<path d="M86.8 98.7997C86.8 98.7997 90.48 100.64 88.56 105.72C86.68 110.76 80.64 109.64 79.52 105.4C78.4 101.16 80.8 96.1597 86.8 98.7997Z" fill="white"/>
<path d="M43.16 84.5199C43.16 84.5199 42.16 87.5599 43.16 87.9199C43.68 88.0799 49.68 87.7999 55.44 87.3599V83.4399C49.44 83.9199 43.16 84.5199 43.16 84.5199Z" fill="#CECECE"/>
<path d="M44.12 88.0798C43.8 88.0798 43.44 88.0798 43.12 88.0398C42 87.6798 42.92 84.7998 43.04 84.4798L43.08 84.3998H43.16C43.24 84.3998 49.52 83.7998 55.44 83.3198H55.6V87.5598H55.44C51.08 87.8398 46.2 88.0798 44.12 88.0798ZM43.28 84.6398C42.92 85.7598 42.6 87.5198 43.2 87.7598C43.68 87.9198 49.4 87.6398 55.28 87.1998V83.5998C49.84 84.0398 44.08 84.5598 43.28 84.6398Z" fill="#CECECE"/>
<path d="M66.24 82.9197C65.88 82.6397 60.8 82.9997 55.48 83.3997V87.3197C61 86.8797 66.28 86.3597 66.24 85.9597C66.12 85.1997 67 83.4797 66.24 82.9197Z" fill="white"/>
<path d="M84.16 48.52C84.16 48.52 83.56 51.56 84.48 52.08C84.96 52.36 90 52.92 95.72 53.52L95.88 49.64C89.88 49.08 84.16 48.52 84.16 48.52Z" fill="#CECECE"/>
<path d="M95.84 53.7199H95.68C88.08 52.9199 84.8 52.4799 84.4 52.2399C83.4 51.6799 83.92 48.8399 84 48.5199L84.04 48.3999H84.16C84.2 48.3999 89.96 48.9199 95.92 49.5199H96.08L95.84 53.7199ZM84.24 48.7199C84.08 49.5999 83.88 51.5999 84.52 51.9999C85.04 52.2799 92.28 53.0799 95.56 53.3999L95.72 49.8399C90.36 49.2799 85.16 48.7999 84.24 48.7199Z" fill="#CECECE"/>
<path d="M106.56 51.1597C106.24 50.8397 101.2 50.2397 95.88 49.6797L95.72 53.5597C101.24 54.1597 106.52 54.5597 106.56 54.1597C106.56 53.3597 107.24 51.8397 106.56 51.1597Z" fill="white"/>
<path d="M84.36 41.1597C84.36 41.1597 83.76 44.1997 84.68 44.7197C85.16 44.9997 93.44 46.0797 99.16 46.7197L99.32 42.8397C93.36 42.2397 84.36 41.1597 84.36 41.1597Z" fill="#CECECE"/>
<path d="M99.32 46.88H99.16C93.96 46.32 85.16 45.16 84.6 44.88C83.6 44.32 84.12 41.48 84.2 41.16L84.24 41.04H84.36C84.44 41.04 93.4 42.12 99.36 42.72H99.52L99.32 46.88ZM84.48 41.32C84.32 42.2 84.12 44.2 84.76 44.6C85.2 44.84 93.12 45.92 99.04 46.56L99.2 43C93.68 42.4 85.64 41.48 84.48 41.32Z" fill="#CECECE"/>
<path d="M106.8 43.7598C106.48 43.4398 104.64 43.3598 99.36 42.8398L99.2 46.7198C104.72 47.3198 106.76 47.1998 106.8 46.7998C106.8 45.9998 107.44 44.4798 106.8 43.7598Z" fill="white"/>
<path d="M108.92 103.52C108.76 103.4 103.88 104.76 99 106.16V110.24C103.92 108.8 108.84 107.28 108.92 107C109.12 106.4 109.28 103.76 108.92 103.52Z" fill="white"/>
<path d="M89.12 109.08C89.12 109.08 88.48 112.92 89.12 112.92C89.44 112.92 94.2 111.64 98.96 110.24V106.16C94.04 107.6 89.12 109.08 89.12 109.08Z" fill="#CECECE"/>
<path d="M89.12 113.08C89.04 113.08 88.92 113.04 88.88 112.96C88.44 112.44 88.88 109.6 88.96 109.04V108.96L89.04 108.92C89.08 108.92 94 107.44 98.88 106.04L99.08 106V110.4L98.96 110.44C94.64 111.64 89.52 113.08 89.12 113.08ZM89.28 109.2C88.96 111.04 88.92 112.72 89.16 112.8C89.44 112.8 93.84 111.6 98.88 110.16V106.4C94.4 107.64 89.96 109 89.28 109.2Z" fill="#CECECE"/>
<path d="M51.56 38.1598C53.52 37.9198 55.96 37.3198 56.16 34.9598C56.2 34.5598 55.76 33.8798 55.28 34.0398C54.28 34.3598 53.4 35.1598 53.32 36.2798C53.28 37.3198 54 38.4798 55.08 38.6798C55.68 38.7198 56.28 38.5998 56.8 38.2798C57.44 37.9998 58.04 37.6398 58.64 37.3198C59.64 36.7198 60.6 36.0798 60.84 34.8798C60.84 34.4798 60.64 34.1198 60.28 33.9598C59.6 33.6398 58.84 33.8398 58.4 34.3998C57.96 35.0398 57.84 35.8798 58.08 36.5998C58.48 37.9998 59.84 39.1998 61.32 39.0798C62.64 38.9998 64.2 37.7198 64 36.2798C63.88 35.5598 63.08 34.8798 62.36 35.3198C61.72 35.6798 61.72 36.6398 61.96 37.2798C62.44 38.7598 64.16 39.6798 65.6 39.0398C66.24 38.7598 65.48 37.4798 64.8 37.7598C64.2 37.9998 63.28 37.7598 63.08 37.1198C63.04 36.9598 63.04 36.8398 63.08 36.6798C63.2 36.5998 63.16 36.4798 62.96 36.3598C62.84 36.0798 62.8 36.0398 62.76 36.2398C62.72 36.3198 62.68 36.3998 62.68 36.5198C62.48 36.9198 62.16 37.2798 61.76 37.4798C61 37.9198 60.04 37.7198 59.52 37.0398C59.28 36.7198 59.16 36.2798 59.28 35.8798C59.4 35.4398 59.8 35.0398 60.24 35.2798L59.68 34.3598C59.56 34.9998 58.84 35.4398 58.32 35.7598C57.56 36.2398 56.76 36.6798 55.92 37.0398C55.48 37.2398 54.68 37.4798 54.64 36.7598C54.6 36.0398 55.32 35.5598 55.88 35.3998L55 34.4798C54.84 36.3198 52.52 36.5998 51.12 36.7998C50.28 36.8798 50.88 38.2398 51.56 38.1598Z" fill="white"/>
<path d="M53.12 45.36C54.72 44.6 56.24 43.68 57.68 42.64C58 42.44 58.08 42.08 57.92 41.76C57.88 41.68 57.84 41.64 57.76 41.6C57.08 40.92 55.88 41.24 55.4 42C55 42.76 54.92 43.64 55.2 44.44C55.96 46.48 58.68 45.8 60.16 45.08C61 44.68 61.68 43.96 62.04 43.12C62.32 42.32 62.2 41.24 61.24 41C59.04 40.44 58.68 44.08 59.08 45.44C59.36 46.44 60.16 47.24 61.16 47.52C62.12 47.76 63.12 47.48 63.76 46.72C64.36 45.96 63.2 45.16 62.64 45.84C61.88 46.8 60.76 45.92 60.48 45C60.32 44.32 60.36 43.6 60.6 42.92C60.64 42.84 60.88 42.36 60.84 42.28C60.68 41.88 60.64 42.44 60.68 42.4C60.64 42.52 60.64 42.64 60.56 42.8C60.08 43.92 58.6 44.36 57.48 44.44C57.08 44.52 56.64 44.28 56.56 43.84C56.56 43.76 56.52 43.72 56.56 43.64C56.52 43.36 56.56 43.08 56.6 42.84C56.64 42.72 56.68 42.64 56.76 42.52C56.56 42.32 56.76 42.48 56.76 42.52L56.84 41.44C55.4 42.48 53.88 43.36 52.28 44.16C51.96 44.32 51.84 44.72 52.04 45.04L52.08 45.08C52.32 45.48 52.76 45.56 53.12 45.36Z" fill="white"/>
<path d="M95.64 83.4797C95.72 81.8397 96.88 80.3197 98.08 79.2397C98.68 78.6397 99.56 78.3997 100.4 78.5597C101.12 78.6797 101.8 78.9597 102.52 78.9997C103.16 79.0797 103.8 78.8797 104.28 78.4397C104.8 77.9197 104.96 77.1597 105.24 76.4797C105.84 74.9597 107.04 73.7597 108.56 73.1197C108.76 73.0397 108.24 72.7597 108.16 72.7197C108 72.6397 107.52 72.3197 107.28 72.4397C105.8 73.0397 104.64 74.1997 103.96 75.6397C103.64 76.3197 103.52 77.1197 103 77.7197C102.48 78.3197 101.72 78.3997 100.96 78.2397C99.48 77.9197 98.08 77.3597 96.8 78.4797C95.56 79.5197 94.36 81.1597 94.24 82.8397C94.24 83.1997 95.64 83.5197 95.64 83.4797Z" fill="#CECECE"/>
<path d="M92.24 84.8001C98 84.2801 103.68 83.3601 109.32 82.0801C109.48 82.0401 108.92 81.7601 108.88 81.7601C108.6 81.6001 108.28 81.5601 107.96 81.5601C102.4 82.8401 96.76 83.7201 91.04 84.2401C90.72 84.2801 91.16 84.4801 91.24 84.5201C91.56 84.6801 91.92 84.8001 92.24 84.8001Z" fill="white"/>
<path d="M130.04 72.9601C130.64 74.7601 130.68 77.3601 128.64 78.2801L129.88 78.6401C129.92 77.4801 130.72 76.4001 131.6 75.6801C132.28 75.1201 133.2 74.7201 134 75.3201C134.36 75.6001 134.6 76.0401 134.6 76.4801C134.6 76.6001 134.56 76.7201 134.52 76.8401C134.44 76.8801 134.44 76.8801 134.48 76.9201C134.6 77.0401 134.8 77.0801 134.96 77.0001C134.96 76.9601 134.88 76.8001 134.92 76.7201C134.96 76.6001 135 76.4801 135.08 76.4001C135.2 76.2401 135.4 76.0801 135.6 76.0001C135.76 75.9601 135.76 75.9601 135.84 76.0801C136.16 76.4001 136.16 76.8801 135.88 77.2001L137.24 77.3601C136.96 76.3201 137.36 75.2401 138.28 74.6401C139.04 74.2001 137.68 73.7601 137.24 74.0001C136 74.6801 135.4 76.1201 135.76 77.4801C135.88 77.9201 136.84 77.9201 137.12 77.6401C137.56 77.2401 137.68 76.6001 137.36 76.0801C136.96 75.4401 136.24 75.0801 135.48 75.1601C134.76 75.1601 134.08 75.4801 133.64 76.0001C133.28 76.3601 133.28 76.9601 133.64 77.3201C133.76 77.4401 133.92 77.5201 134.08 77.5601C134.72 77.8001 135.68 77.6401 136 76.9601C136.28 76.3201 136 75.6001 135.56 75.1201C134.56 74.0001 132.76 73.8801 131.44 74.4401C129.92 75.0801 128.48 76.7601 128.4 78.4401C128.36 78.9601 129.36 78.9201 129.64 78.8001C130.64 78.3601 131.36 77.5201 131.68 76.4801C132 75.2401 131.92 73.9201 131.48 72.7601C131.32 72.3201 129.84 72.3601 130.04 72.9601Z" fill="white"/>
<path d="M128.2 100.4C129.16 99.5597 130.2 98.7997 131.16 97.8797C131.6 97.4397 132 96.9997 132.36 96.4797C132.6 96.1197 133.2 95.3597 132.8 94.9597C132.4 94.5597 131.52 94.8797 131.08 95.0797C130.6 95.3597 130.24 95.8397 130.04 96.3597C129.64 97.5997 130.52 98.5597 131.72 98.6797C133.04 98.7997 134.32 98.3197 135.24 97.3597C136.24 96.3597 136.6 94.9597 136.8 93.5997C136.92 92.8397 137.08 92.0797 137.12 91.2797C137.24 90.7197 136.88 90.1997 136.32 90.0797C135.68 89.9597 135 90.2397 134.64 90.7997C134.32 91.4797 134.12 92.1997 134.08 92.9197C133.96 94.3197 134.08 96.0397 135.48 96.7597C136.6 97.3597 138.6 96.9197 138.96 95.5997C139.08 95.1597 137.64 95.3197 137.52 95.7597C137.44 95.9997 137.32 96.3197 137.08 96.3197C136.72 96.3597 136.28 95.8797 136.08 95.5997C135.52 94.8797 135.48 93.8797 135.52 92.9997C135.56 92.4797 135.64 91.9997 135.76 91.4797C135.84 91.2397 135.92 91.0397 136 90.7997C136.04 90.7597 136.12 90.5997 136.12 90.5597C135.4 90.5197 135.2 90.5997 135.48 90.7597C135.52 90.7997 135.6 90.8397 135.6 90.8797C135.88 91.2397 135.64 91.9597 135.6 92.3597C135.52 92.8397 135.48 93.3197 135.4 93.7997C135.28 94.7197 135 95.6397 134.6 96.4797C134.24 97.0797 133.6 97.8797 132.88 97.9597C132.16 98.0397 131.52 97.5197 131.48 96.7997C131.48 96.6797 131.48 96.5997 131.48 96.4797C131.52 96.1597 131.68 95.8397 131.88 95.5597C131.96 95.4797 132 95.4397 132.08 95.3597C132.24 95.0797 131.6 95.3997 131.48 95.5997C131.36 95.7997 131.28 95.9997 131.2 96.1997C130.24 97.8397 128.52 98.8797 127.16 100.12C126.48 100.72 127.92 100.68 128.2 100.4Z" fill="white"/>
<path d="M127.08 57.5197C126.92 55.4797 126.76 53.3597 127.28 51.3597C127.68 49.7997 128.56 48.0397 130.08 47.2797C132.2 46.2397 132.16 49.9997 132.16 51.1197C132.2 52.1197 132.16 53.1197 132.24 54.1197C132.28 54.9997 132.64 55.8397 133.52 56.1197C134.36 56.3597 135.28 55.9997 135.72 55.1997C135.88 54.8397 136.04 54.4797 136.12 54.0797C136.16 53.8797 136.28 53.6797 136.36 53.4797C136.4 53.4397 136.44 53.3597 136.48 53.2797C136.56 53.1197 136.64 53.2797 136.44 53.2397C136.8 53.3197 137.2 53.1997 137.44 52.8797C137.64 52.5597 137.36 52.3197 137.08 52.2397C136.2 52.0797 135.36 52.4797 134.96 53.2797C134.8 53.6397 134.64 53.9997 134.56 54.3997C134.52 54.5597 134.44 54.7197 134.36 54.8797C134.32 54.9597 134.28 55.0397 134.24 55.0797C134.08 55.3197 134.2 55.0397 134.28 55.1197C134.2 54.9597 134 54.9197 133.92 54.7197C133.8 54.4797 133.76 54.2397 133.76 53.9597C133.72 53.3997 133.72 52.8397 133.72 52.3197C133.68 51.1997 133.72 50.0397 133.64 48.9197C133.6 47.9597 133.2 47.0797 132.48 46.4797C131.68 45.9197 130.6 45.8397 129.72 46.2397C127.96 46.9597 126.76 48.6397 126.12 50.3597C125.28 52.6797 125.48 55.2397 125.64 57.6797C125.6 58.3997 127.08 58.1597 127.08 57.5197Z" fill="#CECECE"/>
<path d="M125 58.6799H137.8C138.12 58.6799 138.36 58.4399 138.4 58.1199C138.44 57.6799 138.48 57.2399 138.44 56.7999C138.48 55.8399 138.48 54.8799 138.52 53.9199C138.56 51.8399 138.6 49.7199 138.6 47.6399C138.64 47.0799 138.64 46.5199 138.6 45.9599C138.52 45.0799 137.12 44.9999 137.2 45.9599C137.24 46.3999 137.24 46.8399 137.2 47.2799C137.2 48.1999 137.2 49.1599 137.16 50.0799C137.12 52.0799 137.12 54.2399 137.04 56.1599C137.04 56.7199 137.04 57.2399 136.96 57.7999L137.56 57.2399H124.76C123.92 57.2399 124.16 58.6799 125 58.6799Z" fill="white"/>
<path d="M54.52 125.96C58.6 125.12 62.44 123.2 66.64 122.84C66.84 122.84 67.6 122.64 67.64 122.32C67.8 120.52 67.72 118.68 67.72 116.88C67.76 114.2 67.76 111.52 67.76 108.84C67.76 108.12 67.8 107.36 67.76 106.64C67.76 106.32 66.32 106.64 66.32 107.12C66.4 108.88 66.32 110.68 66.32 112.48C66.28 115.16 66.28 117.84 66.24 120.52C66.24 121.24 66.24 121.92 66.2 122.64L67.2 122.12C62.88 122.48 58.96 124.44 54.72 125.28C54.52 125.32 53.92 125.48 53.92 125.76C53.92 126.04 54.4 126 54.52 125.96Z" fill="white"/>
<path d="M52.16 116.36C53.4 115.76 54.64 116.52 55.52 117.36C56.52 118.36 57.44 119.64 58.76 120.2C59.96 120.72 61.36 120.48 61.72 119.08C61.8 118.48 62.08 117.92 62.52 117.48C62.96 117.04 63.56 116.8 64.16 116.84C65.16 116.88 64.52 115.8 63.84 115.76C62.56 115.68 61.36 116.32 60.72 117.4C60.4 117.92 60.48 118.72 60.04 119.16C59.52 119.68 58.84 119.24 58.44 118.84C57.32 117.84 56.44 116.6 55.16 115.8C54 115.08 52.48 114.68 51.2 115.32C50.48 115.68 51.6 116.6 52.16 116.36Z" fill="#CECECE"/>
<path d="M41.68 23.52C40.96 24.24 40.36 25.16 40.48 26.2C40.64 27.4 41.52 28.36 42.72 28.64C43.64 28.88 44.92 29 45.68 28.28C46.44 27.56 46.4 26.12 46 25.16C45.72 24.56 45.28 24.04 44.68 23.76C44.2 23.52 43.64 23.36 43.12 23.32C42.8 23.28 42.72 23.64 42.8 23.88C42.88 24.24 43.16 24.52 43.52 24.64C43.84 24.68 44.2 24.76 44.52 24.84C44.6 24.88 44.68 24.88 44.76 24.92L44.88 25C44.84 25 44.8 24.96 44.92 25.04L45 25.12C44.92 25.04 45.08 25.2 45 25.12L45.08 25.2C44.96 25.08 45.12 25.28 45.08 25.2C45.04 25.12 45.12 25.24 45.12 25.28C45.16 25.4 45.08 25.2 45.12 25.32C45.12 25.36 45.16 25.52 45.16 25.48C45.2 25.68 45.24 25.88 45.24 26.08C45.24 26.44 45.16 26.76 44.96 27.08C44.48 27.72 43.52 27.68 42.84 27.56C42.52 27.52 42.2 27.4 41.92 27.28C42 27.32 41.84 27.2 41.8 27.2C41.72 27.12 41.88 27.28 41.8 27.2C41.8 27.2 41.68 27.08 41.76 27.16C41.84 27.24 41.72 27.12 41.72 27.12C41.76 27.24 41.68 26.96 41.68 27.04C41.48 26.24 42.08 25.44 42.6 24.92C42.84 24.68 42.68 24.28 42.52 24.08C42.36 23.76 41.92 23.32 41.68 23.52Z" fill="#3D3D3D"/>
<path d="M39.72 31.1601C40.44 30.2001 41.52 29.5601 42.68 29.3601C43.24 29.2001 43.84 29.2001 44.44 29.3201C44.96 29.5601 45.4 29.9601 45.64 30.4801C45.76 30.7201 46.28 30.8001 46.48 30.8401C46.56 30.8401 47.16 30.9601 47.04 30.7601C46.24 29.1201 44 28.6001 42.36 28.7201C40.8 28.8001 39.16 29.4001 38.28 30.7601C38.2 30.8801 39.52 31.4801 39.72 31.1601Z" fill="#3D3D3D"/>
<path d="M81.92 29.9997C81.64 30.3597 81.48 30.7597 81.4 31.1997C81.28 31.6797 81.32 32.1597 81.48 32.6397C81.84 33.5597 82.92 34.0797 83.88 34.1197C84.68 34.1997 85.48 33.9197 86 33.3197C86.48 32.6797 86.64 31.8797 86.36 31.1197C85.96 29.9997 84.84 29.2797 83.64 29.3997C83.44 29.3997 83.32 29.5597 83.32 29.7597C83.32 29.8397 83.36 29.9197 83.44 29.9997C83.68 30.2797 84.08 30.3997 84.44 30.3597C84.32 30.3597 84.4 30.3597 84.44 30.3597C84.36 30.3197 84.6 30.3597 84.44 30.3597C84.48 30.3597 84.6 30.3997 84.48 30.3597C84.36 30.3197 84.52 30.3597 84.52 30.3997C84.52 30.4397 84.36 30.3197 84.48 30.3997L84.56 30.4397C84.56 30.4397 84.72 30.5597 84.6 30.4797C84.64 30.5197 84.68 30.5597 84.72 30.6397L84.76 30.7197C84.68 30.6397 84.76 30.6797 84.76 30.7197C84.76 30.7597 84.84 30.8397 84.84 30.9197C84.84 30.9597 84.88 30.9597 84.88 30.9997C84.88 31.0397 84.92 31.0797 84.92 31.0797C84.92 31.0397 84.92 31.1197 84.92 31.1197C84.92 31.1197 84.92 31.1997 84.96 31.1997C85 31.1997 85 31.3597 85 31.3997C85 31.4397 85 31.5197 85 31.5997C85 31.6397 85 31.6797 85 31.6797C85 31.6797 85 31.7997 85 31.7597C84.96 31.8797 84.96 32.0397 84.88 32.1597C84.84 32.2397 84.84 32.2797 84.8 32.3597H84.72L84.68 32.3997C84.56 32.5997 84.36 32.7597 84.12 32.8797L83.92 32.9597L83.84 32.9997C83.76 33.0397 83.96 32.9597 83.84 32.9997L83.64 33.0397H83.56C83.4 33.0797 83.68 33.0397 83.52 33.0397H83.32C83.2 33.0397 83.36 33.0397 83.36 33.0397C83.32 33.0397 83.28 33.0397 83.28 33.0397C83.24 33.0397 83.2 33.0397 83.16 32.9997C83.12 32.9597 83.32 33.0397 83.2 32.9997L83.12 32.9597C83.08 32.9597 82.92 32.9197 83.08 32.9197C83.12 32.9197 83.24 32.9197 83.08 32.9197C83.04 32.9197 83 32.8797 83 32.8397C83 32.7997 83.16 32.9597 83.04 32.8397L82.96 32.7597C82.88 32.6797 82.92 32.7197 82.96 32.7597C82.96 32.7197 82.92 32.7197 82.88 32.6797C82.84 32.6397 82.84 32.6397 82.8 32.5997C82.88 32.6797 82.8 32.5597 82.76 32.5597C82.64 32.2397 82.6 31.8797 82.68 31.5197C82.72 31.1597 82.88 30.8397 83.08 30.5197C83.28 30.2397 83 29.9597 82.76 29.8397C82.6 29.7597 82.4 29.6797 82.2 29.6797C82.04 29.6797 81.92 29.7197 81.8 29.7997L81.92 29.9997Z" fill="#3D3D3D"/>
<path d="M81.76 35.08C82.44 34.48 83.32 34.16 84.2 34.08C85 34.08 85.72 34.72 86.28 35.36C86.76 35.88 88.04 35.24 87.44 34.6C86.68 33.72 85.6 33 84.4 33C83.08 33.04 81.84 33.48 80.84 34.32C80.6 34.52 80.44 34.88 80.72 35.12C81.04 35.32 81.44 35.32 81.76 35.08Z" fill="#3D3D3D"/>
<path d="M123.92 39.4798C123.2 39.5198 122.56 39.8798 122.16 40.4798C121.8 40.9198 121.72 41.5598 121.96 42.0798C122.68 43.3598 124.52 42.9198 125.32 41.9998C125.56 41.7198 125.72 41.3598 125.68 40.9998C125.6 40.6798 125.48 40.3598 125.28 40.1198C125.2 39.9998 125.08 39.9198 124.96 39.9198C124.76 39.9198 124.6 39.9198 124.4 39.9998C124.24 40.0798 124.08 40.1998 123.96 40.3198C123.92 40.3998 123.8 40.5998 123.88 40.6798C124.04 40.8798 124.16 41.1598 124.24 41.3998V41.2798C124.24 41.3198 124.24 41.3998 124.24 41.4398C124.24 41.4798 124.24 41.5198 124.24 41.5198L124.2 41.5998V41.6398C124.2 41.6798 124.2 41.6398 124.24 41.5998C124.24 41.5998 124.2 41.6398 124.2 41.6798C124.12 41.7598 124.28 41.5998 124.24 41.6398C124.2 41.6798 124.12 41.7598 124.12 41.7598C124.12 41.7598 124.28 41.6398 124.16 41.7198L124.08 41.7598C123.96 41.8398 124.12 41.7198 124.12 41.7198C124.12 41.7198 124.08 41.7598 124.04 41.7598C123.88 41.7998 124 41.7598 124.04 41.7598H124C123.88 41.7998 124.16 41.7598 124.04 41.7598C124 41.7598 123.92 41.7598 123.88 41.7598C123.92 41.7598 124.04 41.7598 123.92 41.7598H123.84C123.76 41.7198 123.8 41.7598 123.84 41.7598C123.8 41.7598 123.8 41.7598 123.76 41.7198C123.72 41.7198 123.64 41.6398 123.6 41.6398C123.56 41.6398 123.68 41.6798 123.64 41.6398L123.56 41.5998C123.48 41.5198 123.4 41.4398 123.32 41.3598L123.4 41.4398C123.32 41.3198 123.24 41.1998 123.2 41.0398L123.24 41.1598C123.24 41.0798 123.2 40.9998 123.24 40.9198C123.24 40.8798 123.24 40.8398 123.24 40.7998C123.2 40.9198 123.24 40.7998 123.24 40.7598C123.28 40.6798 123.32 40.5998 123.36 40.5198C123.28 40.6398 123.4 40.3998 123.36 40.5198L123.44 40.4398C123.48 40.3998 123.48 40.3598 123.52 40.3598L123.44 40.4398L123.48 40.3998L123.56 40.3198C123.4 40.4398 123.64 40.2398 123.56 40.3198C123.72 40.1998 123.4 40.3998 123.52 40.3198H123.56C123.64 40.2798 123.6 40.3198 123.48 40.3598H123.56C123.44 40.3598 123.4 40.3998 123.48 40.3598H123.56C123.76 40.3598 123.96 40.2798 124.12 40.1598C124.28 40.0798 124.4 39.9598 124.44 39.7998C124.48 39.6798 124.48 39.5598 124.36 39.4398C124.24 39.3598 124.08 39.3198 123.96 39.3198L123.92 39.4798Z" fill="#3D3D3D"/>
<path d="M121.52 43.36C121.92 43.36 122.32 43.36 122.72 43.28L122.96 43.24H123C122.88 43.24 123 43.24 123.04 43.24H123.16C123.28 43.24 123.04 43.24 123.12 43.24C123.12 43.24 123.28 43.24 123.16 43.24C123.04 43.24 123.2 43.24 123.24 43.24C123.28 43.24 123.32 43.28 123.32 43.28L123.4 43.32C123.36 43.28 123.36 43.32 123.4 43.32C123.52 43.4 123.6 43.48 123.72 43.56C123.92 43.76 124.08 43.96 124.24 44.16C124.48 44.4 124.84 44.48 125.2 44.36C125.36 44.32 125.88 44.12 125.68 43.88C125.08 42.84 123.88 42.28 122.68 42.56C122.48 42.6 122.32 42.6 122.16 42.64C122.16 42.64 122 42.64 122.12 42.64H122.04H122H121.92C121.64 42.64 121.12 42.68 121 42.96C120.88 43.24 121.36 43.32 121.52 43.36Z" fill="#3D3D3D"/>
<path d="M122.72 70.3201C122.56 70.5601 122.44 70.8401 122.32 71.1201C122.2 71.4001 122.2 71.7201 122.24 72.0401C122.4 72.7201 122.96 73.2801 123.68 73.3601C124.28 73.4801 124.92 73.3601 125.44 73.0001C125.96 72.6401 126.2 71.9601 126.08 71.3601C126 71.0001 125.84 70.6401 125.64 70.3601C125.36 70.0401 125 69.8401 124.56 69.8001C124.2 69.7201 123.84 69.9601 123.76 70.3201V70.3601C123.76 70.7601 124.04 71.1201 124.44 71.1601L124.6 71.2001C124.68 71.2001 124.44 71.1601 124.52 71.1601L124.6 71.2001C124.68 71.2401 124.44 71.0801 124.52 71.1601C124.52 71.1601 124.4 71.0401 124.48 71.1201C124.48 71.1201 124.4 70.9601 124.44 71.0801C124.44 71.1201 124.48 71.1201 124.48 71.1601C124.52 71.2801 124.56 71.4001 124.64 71.4801C124.72 71.5601 124.64 71.4801 124.64 71.4401C124.64 71.4801 124.64 71.4801 124.68 71.5201C124.68 71.6001 124.72 71.6401 124.72 71.7201V71.5601C124.72 71.6401 124.72 71.7201 124.68 71.8001L124.72 71.6401C124.68 71.7201 124.68 71.8401 124.6 71.9201L124.68 71.7601C124.64 71.8401 124.56 71.9201 124.48 72.0001L124.6 71.8801L124.48 71.9601C124.44 72.0001 124.4 72.0001 124.36 72.0401C124.44 72.0001 124.48 72.0001 124.4 72.0001L124.32 72.0401L124.2 72.0801H124.04H123.88L123.76 72.0401C123.68 72.0001 123.72 72.0401 123.84 72.0801L123.76 72.0401L123.68 72.0001C123.6 71.9601 123.64 72.0001 123.76 72.0401C123.76 72.0401 123.6 71.9201 123.72 72.0001C123.84 72.0801 123.72 71.9601 123.68 71.9601C123.76 72.0801 123.76 72.0801 123.72 72.0401L123.68 71.9601C123.64 71.8801 123.68 71.9201 123.68 72.0401C123.68 72.0001 123.68 72.0001 123.68 71.9601C123.68 71.9201 123.68 71.8801 123.68 71.8001V71.9601C123.68 71.8401 123.68 71.7201 123.72 71.6401L123.68 71.8001C123.76 71.5601 123.88 71.3201 124 71.0801L123.92 71.2401L123.96 71.2001C124.08 71.0401 124.12 70.8801 124.08 70.7201C124.04 70.5201 123.92 70.3601 123.8 70.2801C123.64 70.1601 123.44 70.1201 123.24 70.1201C123.04 70.1201 122.88 70.2001 122.76 70.3601L122.72 70.3201Z" fill="#3D3D3D"/>
<path d="M122.32 73.9597C122.48 73.9197 122.64 73.8797 122.76 73.8397L123.04 73.7997C122.92 73.8397 123.04 73.7997 123.12 73.7997C123.28 73.7997 123.44 73.7597 123.6 73.7597H123.68C123.76 73.7597 123.84 73.7597 123.92 73.7597C123.76 73.7197 123.96 73.7597 124 73.7997H124.04L124.16 73.8397C124.32 73.9197 124.44 73.9997 124.56 74.0397L124.72 74.1197C124.64 74.0797 124.8 74.1997 124.84 74.1997C124.88 74.1997 124.92 74.2797 124.96 74.3197C125 74.3597 125.04 74.3997 125.04 74.4397C125.28 74.6797 125.64 74.7997 126 74.6797C126.2 74.5997 126.64 74.3997 126.48 74.0797C126.28 73.7597 125.96 73.5197 125.64 73.3597C125.32 73.1597 124.92 72.9997 124.52 72.8797C123.64 72.7597 122.76 72.8397 121.92 73.1197C121.68 73.1997 121.28 73.3997 121.44 73.7197C121.6 74.0397 122.04 74.0397 122.32 73.9597Z" fill="#3D3D3D"/>
<path d="M122.32 93.3601C122.16 93.8001 121.96 94.3601 122.2 94.8401C122.44 95.2401 122.88 95.4401 123.32 95.4001C123.64 95.4001 123.92 95.3201 124.24 95.2001C124.64 95.0801 125 94.8401 125.32 94.5601C125.72 94.1601 125.84 93.6001 125.72 93.0801C125.6 92.5201 125.04 92.1201 124.48 92.2001C124.32 92.2401 124.12 92.2801 123.96 92.3601C123.8 92.4401 123.64 92.5201 123.52 92.6401C123.48 92.6801 123.36 92.8001 123.4 92.8801C123.44 92.9601 123.6 92.9601 123.68 92.9201C123.6 92.9201 123.64 92.9201 123.68 92.9201H123.76C123.8 92.9201 123.72 92.9201 123.8 92.9201L123.88 92.9601C124 93.0001 124.08 93.0801 124.16 93.1201L124.12 93.0801C124.36 93.3201 124.48 93.6401 124.48 94.0001C124.48 94.2401 124.44 94.4401 124.32 94.6401L124.28 94.6801L124.24 94.7201C124.2 94.7601 124.32 94.6801 124.24 94.7201C124.16 94.7601 124.16 94.8001 124.24 94.7201C124.32 94.6401 124.24 94.7201 124.2 94.7201C124.16 94.7201 124.36 94.6401 124.24 94.6801C124.24 94.6801 124.4 94.6001 124.32 94.6401C124.36 94.6401 124.52 94.5601 124.4 94.6001C124.28 94.6401 124.56 94.5601 124.48 94.5601H124.4C124.32 94.6001 124.52 94.5601 124.44 94.5601H124.36H124.28C124.32 94.5601 124.36 94.5601 124.32 94.5601C124.28 94.5601 124.24 94.5601 124.16 94.5601H124.08C124.04 94.5601 124.12 94.5601 124.08 94.5601C124.04 94.5601 124 94.5201 123.96 94.5201C123.88 94.4801 123.8 94.4401 123.72 94.3601L123.76 94.4001C123.56 94.2001 123.48 93.9601 123.48 93.6801V93.7601C123.52 93.4401 123.56 93.1201 123.72 92.8001C123.76 92.7201 123.64 92.6801 123.56 92.6801C123.4 92.6801 123.24 92.7201 123.12 92.7601C122.92 92.8401 122.76 92.9201 122.6 93.0001C122.48 93.1201 122.36 93.2401 122.32 93.3601Z" fill="#3D3D3D"/>
<path d="M122.08 96.0399C122.12 95.9999 122.32 95.8799 122.16 95.9599C122.24 95.9199 122.32 95.8799 122.4 95.8799L122.52 95.8399C122.6 95.8399 122.68 95.7999 122.76 95.7999C122.84 95.7999 122.84 95.7999 122.76 95.7999H123.04H123.28C123.36 95.7999 123.36 95.7999 123.28 95.7999L123.4 95.8399C123.56 95.8799 123.68 95.9199 123.84 95.9599C123.88 95.9599 123.96 95.9999 124 95.9999C123.88 95.9599 124.08 96.0399 124.12 96.0399C124.24 96.1199 124.4 96.1999 124.52 96.2799C124.52 96.2799 124.72 96.4399 124.64 96.3599L124.8 96.5199C125.08 96.7599 125.48 96.7599 125.8 96.5599C126.04 96.3999 126.32 95.9999 126.04 95.7199C125.48 95.1599 124.8 94.7999 124.04 94.6799C123.16 94.4799 122.2 94.6399 121.44 95.1199C121.2 95.2799 120.92 95.6799 121.2 95.9599C121.48 96.1999 121.88 96.1999 122.2 95.9999L122.08 96.0399Z" fill="#3D3D3D"/>
<path d="M82.16 101.52C81.64 102.16 81.48 103 81.72 103.76C82 104.44 82.64 104.96 83.36 105.04C84.32 105.2 85.16 104.68 85.8 104.04C86.12 103.76 86.36 103.36 86.44 102.92C86.48 102.48 86.4 102.04 86.2 101.64C85.88 100.72 84.96 100.12 84 100.2C83.64 100.24 83.32 100.48 83.2 100.84C83.12 101.2 83.44 101.32 83.76 101.28C83.8 101.28 83.88 101.28 83.76 101.28H83.84C83.84 101.28 83.96 101.32 83.92 101.28C83.88 101.24 83.96 101.28 83.96 101.28C84.08 101.32 84.2 101.36 84.28 101.44C84.48 101.6 84.68 101.8 84.76 102.04C84.88 102.28 85 102.56 85.04 102.84C85.08 102.96 85.08 103.08 85.04 103.2C85.04 103.24 85 103.28 85 103.32C85 103.36 84.96 103.36 84.96 103.4C85 103.32 84.96 103.4 84.92 103.44L84.76 103.6H84.72C84.8 103.52 84.68 103.64 84.68 103.64L84.52 103.8L84.44 103.84C84.36 103.88 84.56 103.8 84.44 103.84C84.4 103.84 84.36 103.88 84.32 103.88C84.28 103.88 84.44 103.84 84.36 103.88L84.28 103.92C84.2 103.96 84.32 103.92 84.32 103.92C84.32 103.92 84.2 103.92 84.16 103.92C84.12 103.92 84.28 103.92 84.16 103.92H84.08C84.04 103.92 83.88 103.88 84 103.92C83.96 103.92 83.88 103.88 83.84 103.88L83.68 103.8C83.6 103.76 83.64 103.8 83.68 103.8C83.64 103.8 83.6 103.76 83.6 103.76C83.4 103.64 83.24 103.48 83.16 103.24C83.12 103.12 83.08 103 83.04 102.88C83.04 102.8 83.04 102.72 83 102.68V102.56C83 102.52 83 102.48 83 102.52C83 102.44 83.04 102.36 83.04 102.32C83.04 102.28 83.04 102.24 83.08 102.2C83.08 102.2 83.12 102.04 83.12 102.12C83.12 102.2 83.12 102.08 83.12 102.08C83.12 102.04 83.16 102 83.16 101.96L83.2 101.88C83.28 101.72 83.12 101.96 83.24 101.84C83.4 101.64 83.52 101.24 83.16 101.12C82.8 101.12 82.4 101.24 82.16 101.52Z" fill="#3D3D3D"/>
<path d="M81.56 105.84C82.32 105.32 83.24 105.12 84.16 105.24C84.92 105.36 85.56 105.72 86 106.32C86.24 106.6 86.6 106.76 86.96 106.76C87.24 106.76 87.32 106.6 87.16 106.36C85.52 104.4 82.52 103.68 80.32 105.04C79.96 105.28 81.2 106.08 81.56 105.84Z" fill="#3D3D3D"/>
<path d="M83.4 69.12C82.76 69.52 82.32 70.16 82.16 70.88C82.04 71.52 82.32 72.2 82.84 72.6C83.28 72.88 83.8 73.04 84.32 73.04C84.88 73.12 85.44 73 85.92 72.76C86.56 72.4 87 71.76 87.12 71C87.12 70.16 86.52 69.44 85.72 69.24C85.36 69.16 85 69.12 84.68 69.16C84.64 69.16 84.44 69.16 84.44 69.24C84.44 69.32 84.64 69.36 84.64 69.36C84.88 69.44 85.12 69.6 85.28 69.8C85.48 70.04 85.6 70.28 85.64 70.56C85.68 71.2 85.4 71.8 84.92 72.24C84.68 72.44 84.4 72.6 84.12 72.72C84 72.76 84.56 72.72 84.56 72.76C84.56 72.8 84.6 72.76 84.6 72.76C84.56 72.76 84.52 72.72 84.52 72.72C84.4 72.64 84.28 72.56 84.2 72.48C83.8 72.08 83.64 71.52 83.72 70.96C83.88 70.24 84.32 69.64 84.92 69.28C85.08 69.2 84.44 69.08 84.4 69.08C84.2 69.04 84 69.04 83.84 69.04C83.68 69.04 83.56 69.04 83.4 69.12Z" fill="#3D3D3D"/>
<path d="M82.2 73.8797C82.6 73.6397 83.04 73.4397 83.52 73.3197C83.92 73.1997 84.36 73.1597 84.8 73.1997C85.56 73.3997 86.24 73.8397 86.76 74.3997C86.96 74.5997 87.4 74.5997 87.64 74.6397C87.72 74.6397 88.28 74.6797 88.2 74.5997C87.24 73.7197 86.04 73.1597 84.72 72.9997C83.36 72.7597 82 72.9597 80.8 73.6397C80.68 73.7197 81.24 73.8397 81.28 73.8797C81.48 73.9197 81.68 73.9597 81.84 73.9597C82 73.9197 82.12 73.9197 82.2 73.8797Z" fill="#3D3D3D"/>
<path d="M40.92 69.0397C40.12 69.6397 39.68 70.6397 39.8 71.5997C39.88 72.7997 41 73.5997 42.08 73.9597C42.6 74.1597 43.16 74.2397 43.72 74.1997C44.2 74.0797 44.64 73.7597 44.92 73.3597C45.52 72.6397 45.68 71.6397 45.36 70.7197C44.8 69.5197 43.64 68.7197 42.32 68.6797C42 68.6797 42.2 69.0397 42.32 69.1597C42.56 69.4397 42.88 69.5997 43.24 69.6397C43.4 69.6397 43.52 69.6397 43.68 69.6797C43.56 69.6397 43.88 69.7197 43.72 69.6797C43.76 69.6797 43.84 69.7597 43.72 69.6797L43.84 69.7597C43.72 69.6797 43.84 69.7197 43.84 69.7597L43.92 69.8397C43.88 69.7997 43.92 69.8797 43.92 69.8797C44 69.9997 44.08 70.1597 44.16 70.3197C44.36 70.9997 44.24 71.7597 43.8 72.3197C43.6 72.6397 43.32 72.8797 43 73.0797C42.64 73.2397 42.24 73.2397 41.88 73.1197C41.72 73.0797 41.6 73.0397 41.44 72.9997L41.36 72.9597C41.24 72.9197 41.44 73.0397 41.36 72.9597C41.28 72.8797 41.28 72.8797 41.36 72.9597C41.24 72.8797 41.32 72.9197 41.36 72.9597C41.28 72.9197 41.32 72.9197 41.32 72.9197C41.28 72.8797 41.24 72.7997 41.2 72.7597C41.12 72.5597 41.08 72.3597 41.08 72.1997C41 71.3197 41.36 70.4797 42.04 69.9597C42.28 69.7997 41.96 69.4797 41.8 69.3597C41.64 69.2397 41.48 69.1197 41.32 69.0797C41.2 69.0397 41.04 68.9997 40.92 69.0397Z" fill="#3D3D3D"/>
<path d="M39.2 75.7199C39.92 74.8799 41.28 74.7999 42.28 74.7999C43.28 74.7999 44.6 74.9999 45.4 75.7599C45.48 75.8399 45.84 76.1999 45.92 75.9999C46 75.7999 45.48 75.3199 45.4 75.2399C44.4 74.3199 43.12 73.7599 41.76 73.7199C41.08 73.6799 40.36 73.7599 39.68 73.8799C39.12 73.9599 38.6 74.2399 38.16 74.6399C37.96 74.8399 39.04 75.8799 39.2 75.7199Z" fill="#3D3D3D"/>
<path d="M40.72 110.36C40 110.84 39.52 111.6 39.4 112.44C39.32 112.88 39.32 113.36 39.48 113.8C39.68 114.24 40 114.6 40.4 114.84C41.36 115.44 42.76 115.68 43.76 114.92C44.48 114.36 45.12 113.28 44.92 112.32C44.72 111.36 43.68 110.84 42.8 110.56C42.44 110.48 42.08 110.48 41.76 110.64C41.48 110.76 41.52 110.92 41.76 111C42.4 111.12 42.96 111.52 43.32 112.08C43.68 112.8 43.32 113.68 42.88 114.28C42.76 114.44 42.64 114.56 42.52 114.68C42.44 114.72 42.4 114.8 42.32 114.84C42.28 114.84 42.28 114.88 42.24 114.88C42.12 114.96 42.48 114.8 42.48 114.84C42.48 114.88 42.48 114.84 42.52 114.84L42.4 114.8C42.32 114.76 42.24 114.72 42.16 114.68C42 114.6 41.8 114.48 41.64 114.4C41.32 114.2 41.08 113.92 41 113.56C40.92 113.2 40.92 112.84 40.96 112.44C41.04 111.68 41.48 110.96 42.12 110.52C42.4 110.36 41.96 110.2 41.84 110.2C41.4 110.16 41.04 110.2 40.72 110.36Z" fill="#3D3D3D"/>
<path d="M39.24 116.28C41.08 115.32 43.36 115.76 44.96 117C45.2 117.2 45.64 117.08 45.88 117C45.96 116.96 46.56 116.76 46.36 116.6C44.04 114.8 40.68 114.76 38.12 116.12C37.88 116.24 37.92 116.44 38.2 116.48C38.52 116.48 38.88 116.44 39.24 116.28Z" fill="#3D3D3D"/>
<path d="M122.2 168.48C119.52 173.2 118.2 178.52 118.28 183.92C118.28 184.6 120.24 184.92 120.24 184.4C120.12 179 121.48 173.64 124.16 168.96C124.4 168.52 122.56 167.88 122.2 168.48Z" fill="#3D3D3D"/>
<path d="M155.68 170.52C160 175.48 163.04 181.48 164.48 187.92C164.68 188.8 166.6 189.04 166.36 187.92C164.84 181.2 161.68 174.92 157.12 169.76C156.76 169.4 156.24 169.28 155.76 169.48C155.32 169.72 155.4 170.2 155.68 170.52Z" fill="#3D3D3D"/>
<path d="M148.8 114.16L141.44 95.2003C141.44 95.2003 141.28 80.3203 143.24 78.6003C145.84 76.2803 151.76 75.6403 158.88 79.2003C165.68 82.5603 171.96 86.2403 169.36 101.32C168.96 103.6 169.96 116.52 168.28 118.12C165.4 120.88 156.28 121.92 148.8 114.16Z" fill="white"/>
<path d="M149.76 113.88L147.16 107.2L143.16 96.88L142.6 95.48C142.52 95.32 142.44 95.12 142.4 94.92C142.36 94.68 142.36 94.4 142.4 94.16C142.4 93.52 142.4 92.84 142.4 92.2C142.44 90.24 142.48 88.24 142.6 86.28C142.68 84.32 142.92 82.4 143.28 80.48C143.4 79.88 143.6 79.28 143.88 78.72C143.92 78.64 143.92 78.68 143.92 78.68C143.92 78.68 143.96 78.6 144 78.6C144.12 78.48 144.24 78.36 144.4 78.28C144.72 78.04 145.12 77.84 145.48 77.68C145.92 77.52 146.36 77.36 146.84 77.28C147.44 77.16 148 77.12 148.6 77.12C150.08 77.12 151.56 77.28 153 77.68C155.64 78.4 158.16 79.48 160.52 80.88C162.12 81.72 163.6 82.8 164.88 84.04C168.12 87.28 169 91.84 168.84 96.28C168.76 98.04 168.6 99.76 168.32 101.48C168.24 102.08 168.2 102.68 168.2 103.24C168.16 105.28 168.24 107.32 168.24 109.36C168.28 111.48 168.2 113.64 168 115.76C167.96 116.48 167.8 117.16 167.52 117.8C167.24 118.24 166.84 118.6 166.36 118.84C166.2 118.92 166 119 165.84 119.08C166 119 165.68 119.12 165.68 119.16C165.56 119.2 165.48 119.24 165.36 119.28L165.2 119.32C165.24 119.32 165.4 119.28 165.2 119.32L164.88 119.4L164.56 119.48C164.36 119.52 164.48 119.48 164.52 119.48L164.28 119.52C163.28 119.68 162.24 119.76 161.2 119.64C158.44 119.4 155.8 118.48 153.52 116.96C152.12 116.04 150.84 114.96 149.68 113.76C149.32 113.36 147.52 114.08 147.88 114.44C151.96 118.68 157.76 121.32 163.72 120.36C164.84 120.2 165.96 119.88 167 119.4C167.8 119.08 168.52 118.6 169.16 118C169.52 117.52 169.76 116.92 169.84 116.32C170 115.4 170.12 114.44 170.16 113.48C170.28 111.16 170.28 108.84 170.24 106.52C170.24 104.8 170.08 103 170.28 101.28C170.44 99.8 170.72 98.28 170.84 96.76C170.96 95.28 170.96 93.76 170.8 92.28C170.6 90.04 169.92 87.84 168.8 85.88C166.8 82.52 163.4 80.6 160 78.88C156.96 77.36 153.6 76.24 150.16 76.2C147.64 76.16 144.8 76.64 142.76 78.24C141.6 79.16 141.4 80.68 141.16 82.08C140.84 84.2 140.68 86.36 140.6 88.52C140.52 90.36 140.48 92.2 140.48 94C140.4 94.56 140.44 95.12 140.6 95.64L144 104.4L147.64 113.8L147.84 114.36C148 114.92 149.92 114.32 149.76 113.88Z" fill="#3D3D3D"/>
<path d="M135.88 115.08C135.88 115.08 136.68 114.16 137.6 112.92C138.52 111.68 138.56 110.76 135.08 107.4C128.28 100.8 132.96 93.7203 132.96 93.7203C132.96 93.7203 131.76 93.3203 130.2 91.7603C128.84 90.4003 128.4 86.7203 133.8 87.4803C135.04 87.6403 136.52 87.6803 137.92 86.2403C139.68 84.4003 140.72 82.6003 143.84 79.3203L143.8 81.3603C143.72 86.7203 146 91.8003 150 95.3203L150.48 95.3603C146.84 103.36 148.16 109.96 148.16 109.96C148.16 109.96 148.4 112.48 148.76 114.2C148.8 114.16 140 119.88 135.88 115.08Z" fill="white"/>
<path d="M136.76 114.96C137.36 114.28 137.96 113.56 138.48 112.8C138.8 112.44 139 112 139.08 111.52C139.08 110.96 138.92 110.4 138.6 109.96C138 109.08 137.32 108.28 136.52 107.56C135.48 106.6 134.56 105.48 133.8 104.28C132.32 101.76 131.96 98.7599 132.84 95.9599C133.08 95.0799 133.44 94.2799 133.92 93.4799C133.96 93.4399 133.92 93.3599 133.88 93.3199C133.36 93.1199 132.92 92.8799 132.48 92.5599C131.76 92.1199 131.16 91.5199 130.72 90.8399C130.28 90.0399 130.04 88.9199 130.68 88.1599C130.76 88.0799 130.8 87.9999 130.88 87.9599C131.08 87.7999 130.8 87.9999 130.92 87.9199L130.96 87.8799C130.88 87.9199 130.88 87.9199 130.96 87.8799L130.88 87.9199C131 87.8799 131 87.8799 130.88 87.9199C131.2 87.8799 130.8 87.9199 131 87.8799C131.24 87.8399 131.44 87.8399 131.68 87.8399C132.68 87.8399 133.68 88.0799 134.68 87.9999C135.96 87.8799 137.16 87.3999 138.2 86.5999C138.88 85.9999 139.52 85.3199 140.08 84.5599C141.56 82.7199 143.04 80.8799 144.64 79.1599L142.84 79.6399C142.8 81.5999 142.76 83.5599 143.16 85.4799C143.72 88.3199 144.96 90.9999 146.8 93.2799C147.28 93.8799 147.84 94.4799 148.4 95.0399C148.64 95.2799 148.92 95.6399 149.2 95.7199C149.36 95.7599 149.52 95.7599 149.68 95.7599L149.52 95.5599C147.48 100.16 146.52 105.24 147.2 110.24C147.4 111.64 147.52 113.08 147.8 114.48L148 114.16C148.24 114 148.08 114.12 147.92 114.2C147.72 114.32 147.52 114.44 147.32 114.56L146.92 114.8L146.68 114.92C146.48 115 146.72 114.92 146.52 115C146.12 115.2 145.72 115.4 145.32 115.56L145.08 115.64L144.84 115.72C144.6 115.8 144.36 115.92 144.08 116C143.8 116.08 143.8 116.08 143.52 116.16C143.32 116.2 143 116.28 142.84 116.32C141.88 116.56 140.84 116.56 139.88 116.44C138.68 116.24 137.6 115.64 136.76 114.72C136.36 114.28 134.72 115.2 134.88 115.4C138.24 119.2 144.36 116.92 148.08 114.92C148.56 114.68 149 114.4 149.48 114.12C149.56 114.08 149.72 113.92 149.68 113.8C148.84 109.76 148.52 105.52 149.32 101.44C149.76 99.2399 150.44 97.0799 151.36 95.0399C151.4 94.9199 151.28 94.8799 151.2 94.8399C151.04 94.8399 150.92 94.8399 150.76 94.7999C150.56 94.6399 150.36 94.4399 150.2 94.2399C149.68 93.7199 149.2 93.1999 148.72 92.6399C146.04 89.3199 144.64 85.1999 144.68 80.9599C144.68 80.2799 144.68 79.5999 144.72 78.9199C144.72 78.7199 144 78.8799 143.92 78.8799C143.56 78.9599 143.2 79.1199 142.92 79.3999C141.4 80.9999 140 82.7199 138.64 84.4399C138.12 85.0799 137.6 85.7199 137.04 86.3199C136.76 86.6399 136.4 86.9199 136 87.0399C135.52 87.1199 135.04 87.0799 134.56 86.9999C132.72 86.7599 130.36 86.8799 129 88.3199C128.32 89.1199 128.2 90.2399 128.68 91.1599C129.08 91.9199 129.68 92.5599 130.36 93.0399C130.88 93.4799 131.48 93.8399 132.12 94.0799L132.08 93.9199C130.84 95.9199 130.32 98.2799 130.52 100.64C130.8 102.96 131.8 105.16 133.4 106.88C134.28 107.88 135.28 108.72 136.16 109.76C136.64 110.28 136.96 110.88 137.2 111.52C137.32 112 137.2 112.52 136.88 112.92C136.32 113.72 135.72 114.48 135.08 115.2C134.8 115.52 135.36 115.48 135.56 115.48C135.96 115.48 136.4 115.28 136.76 114.96Z" fill="#3D3D3D"/>
<path d="M140.8 88.7602C140.8 88.7602 139.76 89.4402 140.52 90.4002C141.28 91.3602 142.44 90.4402 142.04 89.4402C141.92 88.9602 141.44 88.6402 140.92 88.7602C140.88 88.7602 140.84 88.7602 140.8 88.7602Z" fill="#3D3D3D"/>
<path d="M147.36 98.2402C147.36 98.2402 150.08 93.3602 152.8 96.8402C155.52 100.32 150.52 104.56 147 104.16" fill="white"/>
<path d="M148.2 98.64C148.28 98.48 148.4 98.32 148.52 98.16C148.64 98 148.72 97.84 148.84 97.72C148.92 97.64 148.96 97.56 149.04 97.48L149.16 97.32C149.32 97.16 149.12 97.36 149.24 97.24C149.4 97.08 149.6 96.92 149.8 96.76C149.84 96.72 150.16 96.52 149.92 96.68L150.28 96.48C150.32 96.44 150.56 96.4 150.28 96.48L150.48 96.44L150.68 96.4C150.64 96.4 150.44 96.4 150.6 96.4C150.68 96.4 150.72 96.4 150.8 96.4C150.56 96.4 150.72 96.4 150.8 96.4L150.92 96.44C151.04 96.48 151 96.48 150.88 96.44L151 96.48C151.08 96.52 151.16 96.56 151.2 96.6C151.04 96.52 151.2 96.6 151.24 96.64C151.4 96.72 151.52 96.84 151.64 96.96C151.68 97 151.84 97.2 151.92 97.28C152 97.36 152.04 97.44 152.08 97.52C152.12 97.6 152.16 97.64 152.2 97.72C152.48 98.2 152.6 98.76 152.52 99.32C152.44 99.84 152.24 100.36 151.96 100.8C151.8 101.08 151.6 101.32 151.36 101.56C151.48 101.44 151.28 101.64 151.28 101.64L151.16 101.76C151 101.92 150.84 102.04 150.68 102.16C150.52 102.28 150.4 102.36 150.24 102.48C150 102.64 150.4 102.4 150.12 102.56L149.88 102.68C149.68 102.76 149.52 102.88 149.32 102.96L149.12 103.04C149.08 103.04 148.8 103.16 149 103.08C148.64 103.2 148.28 103.28 147.92 103.36C147.64 103.4 148.08 103.36 147.88 103.36C147.8 103.36 147.68 103.36 147.6 103.36H147.36C147.32 103.36 146.96 103.32 147.24 103.36C146.76 103.32 146.2 103.4 146 103.92C145.92 104.36 146.2 104.76 146.6 104.88C146.64 104.88 146.68 104.88 146.72 104.88C148.44 105.04 150.16 104.56 151.56 103.6C152.84 102.76 154.04 101.48 154.4 99.96C154.76 98.24 154.08 96.52 152.64 95.48C151.28 94.48 149.6 94.68 148.28 95.64C147.52 96.24 146.88 96.96 146.4 97.8C146.2 98.16 146.28 98.6 146.64 98.8C146.68 98.84 146.72 98.84 146.76 98.88C147.24 99.12 147.96 99.08 148.2 98.64Z" fill="#3D3D3D"/>
<path d="M140.48 97.3999V97.4399L140.52 97.2399C140.48 97.3999 140.44 97.5199 140.4 97.6799C140.4 97.7199 140.36 97.7599 140.36 97.7999C140.36 97.7599 140.44 97.6399 140.4 97.7599C140.36 97.8799 140.32 97.8799 140.28 97.9199L140.2 97.9999C140.12 98.1199 140.32 97.8799 140.24 97.9599C140.16 98.0399 140.16 98.0799 140.08 98.1199L140 98.1999C139.88 98.2799 139.96 98.2399 140 98.1999C139.96 98.2399 139.92 98.2399 139.92 98.2799L139.84 98.3199C139.68 98.3999 139.88 98.3199 139.92 98.2799C139.88 98.3199 139.76 98.3599 139.72 98.3999L139.48 98.4799C139.28 98.5599 139.68 98.4399 139.56 98.4399L139.44 98.4799C139.28 98.5199 139.12 98.5599 138.96 98.5999H138.84C138.72 98.6399 139.08 98.5599 138.88 98.5999L138.6 98.6399C138.32 98.6399 138.08 98.7599 137.88 98.8799C137.68 98.9999 137.52 99.1599 137.44 99.3999C137.36 99.5599 137.4 99.7599 137.56 99.8799C137.72 99.9999 137.92 100.08 138.12 100.04C139.12 99.9999 140.12 99.6799 140.96 99.1599C141.36 98.8799 141.72 98.5599 141.96 98.1599C142.2 97.7999 142.36 97.3599 142.44 96.9199C142.48 96.7599 142.28 96.5599 142.16 96.5199C141.96 96.4399 141.72 96.4399 141.48 96.4799C140.96 96.5999 140.6 96.9599 140.48 97.3999Z" fill="#3D3D3D"/>
<path d="M162.08 96.4001C156.2 93.6801 151.56 88.8801 149.04 82.9201C148.64 81.9601 146.68 82.4001 147.12 83.4401C149.2 88.3601 152.68 92.5601 157.12 95.6001C158.4 96.4801 159.76 97.2401 161.16 97.8801C162.16 98.3201 163.24 96.9601 162.08 96.4001Z" fill="#3D3D3D"/>
<path d="M154.68 102.68C155.36 106.88 153.44 112.12 156.72 115.6C157.16 116.08 158.76 114.88 158.36 114.48C155.16 111.08 157.08 105.92 156.4 101.8C156.28 101.12 154.56 102.08 154.68 102.68Z" fill="#3D3D3D"/>
<path d="M160.72 102.24C160.76 105.16 160.96 108.08 161.28 111C161.4 111.48 161.64 111.88 162 112.16C162.16 112.28 162.64 112.6 162.6 112.16C162.28 109.24 162.08 106.32 162.04 103.4C161.96 102.92 161.68 102.52 161.32 102.24C161.12 102.08 160.68 101.8 160.72 102.24Z" fill="#3D3D3D"/>
<path d="M132.28 116.4C132.28 116.4 140 110.4 148.8 113.24C157.6 116.08 163.08 170.4 163.08 170.4C163.08 170.4 138.8 177.64 118.12 168.84C118.12 168.88 118.64 135.68 132.28 116.4Z" fill="#CECECE"/>
<path d="M133 117.12L133.12 117.04C132.92 117.16 133.32 116.88 133.12 117.04L133.36 116.88C133.84 116.56 134.32 116.28 134.8 116C136.36 115.12 138 114.44 139.76 114C142 113.4 144.32 113.28 146.6 113.64C147.24 113.76 147.88 113.92 148.48 114.08C148.6 114.12 148.68 114.16 148.8 114.2L148.88 114.24C149.08 114.32 148.68 114.12 148.8 114.2C148.92 114.28 149.04 114.36 149.16 114.4L149.32 114.52C149.6 114.72 149.2 114.4 149.36 114.56C149.6 114.8 149.88 115.04 150.08 115.32C150.16 115.4 150.2 115.48 150.28 115.56C150.12 115.36 150.44 115.76 150.28 115.56C150.44 115.76 150.52 115.92 150.68 116.12C151.2 116.92 151.64 117.76 152.04 118.6L152.2 118.96L152.28 119.16C152.16 118.92 152.28 119.12 152.28 119.16C152.4 119.44 152.48 119.68 152.6 119.96C152.84 120.52 153.04 121.08 153.24 121.68C153.68 122.92 154.08 124.2 154.44 125.48C156.2 131.48 157.4 137.64 158.48 143.76C159 146.8 159.52 149.92 159.96 153.04C160.36 155.76 160.72 158.48 161.08 161.2C161.36 163.2 161.6 165.24 161.8 167.24C161.92 168.2 161.96 169.24 162.12 170.2C162.12 170.24 162.12 170.28 162.12 170.32L162.8 169.44C159.72 170.32 156.6 170.96 153.4 171.36C146.32 172.44 139.16 172.52 132.04 171.6C127.32 171 122.72 169.76 118.32 167.92L119.08 168.88C119.08 167.72 119.16 166.6 119.24 165.44C119.44 162.44 119.68 159.76 120.04 156.72C120.56 152.6 121.24 148.48 122.12 144.44C123.08 139.84 124.36 135.36 125.96 130.92C127.56 126.48 129.64 122.24 132.16 118.28C132.48 117.8 132.8 117.32 133.12 116.88C133.76 115.96 132.12 114.84 131.44 115.84C128.76 119.76 126.52 123.96 124.84 128.4C123.12 132.88 121.72 137.48 120.64 142.16C119.68 146.32 118.92 150.56 118.36 154.8C117.92 158.04 117.6 161.24 117.36 164.48C117.2 165.88 117.16 167.32 117.16 168.72V168.76C117.2 169.2 117.48 169.6 117.92 169.72C125.6 172.96 134 174.2 142.28 174.12C148.28 174.08 154.24 173.4 160.08 172.12C161.16 171.88 162.28 171.64 163.36 171.32C163.76 171.24 164.04 170.88 164.04 170.44C163.8 167.88 163.48 165.32 163.16 162.76C162.44 156.88 161.6 151.04 160.6 145.2C159.6 138.84 158.24 132.52 156.6 126.28C155.92 123.76 155.08 121.24 154.08 118.84C153.32 117.04 152.44 115.16 151.08 113.68C150.56 113.08 149.92 112.64 149.16 112.32C146.96 111.48 144.4 111.32 142.08 111.52C138.56 111.88 135.16 113.12 132.28 115.12C132.04 115.28 131.84 115.44 131.64 115.6C131.24 115.92 131.4 116.6 131.68 116.92C132 117.4 132.6 117.44 133 117.12Z" fill="#CECECE"/>
<path d="M115.84 93.1999C115.68 93.1999 115.48 93.1599 115.32 93.1199C114.113 94.5915 112.62 95.7784 111.045 96.6469L111.16 99.7199L111.64 113.76L111.5 122C113.687 120.969 116.398 119.949 118.68 119.08C122.84 117.48 127.12 116.16 131.48 115.2C134.92 114.48 138.64 113.8 142.08 114.68C144.32 115.28 146.84 116.56 147.32 119.08C147.48 120.32 147.28 121.6 146.68 122.72C145.8 124.44 144.64 126.04 143.2 127.36C140.96 129.56 138.44 131.4 135.68 132.84C129.8 135.92 123.4 137.96 116.8 138.84C113.64 139.28 110.48 139.44 107.28 139.24C104.64 139.12 102.08 138.6 99.6401 137.64C97.8001 136.88 96.5 135.76 95.5 134C94.46 132.16 94.2 130.08 94 128C93.52 122.48 93.8001 116.72 94.7601 111.32C95.6001 106.76 97.3 102.98 98.5 98.4999C98.7 97.6999 98.7201 96.2799 98.9601 95.4799C98.8801 95.3599 98.8 95.0799 98.5 94.9999C97.6 93.0266 96 89.4999 96 88.4999C96 87.7928 96.8 83.8999 99.5 82.4999C101.66 81.3799 103.26 81.2466 104 81.4999L102 77.4999C101.5 76.4999 101.66 74.6599 102.5 73.4999C103.58 71.9799 105.36 71.8799 106.6 73.0399L106.72 73.1599C106.84 73.2799 106.96 73.3599 107.04 73.4799C107.24 73.6799 107.44 73.8799 107.6 74.1199C108.04 74.7599 108.44 75.3999 108.8 76.0799C109.64 77.6799 110.36 79.3199 111.08 80.9599C111.72 82.3599 112.28 83.8399 113.04 85.1999C113.24 85.6399 113.52 86.0399 113.88 86.3999C114.36 86.7999 114.92 87.1199 115.52 87.3999C116.96 88.0799 118.48 88.6399 119.8 89.4799C120.76 90.1199 121.88 91.1599 121.44 92.4399C120.96 93.7999 118.92 93.6399 117.8 93.5199C117.12 93.4399 116.36 93.2799 115.84 93.1999Z" fill="white"/>
<path d="M101.943 73.1464C103.023 71.6265 105.423 71.9065 106.663 73.0663L106.783 73.1865C106.903 73.3065 107.023 73.3868 107.103 73.5068C107.303 73.7066 107.503 73.9066 107.663 74.1464C108.103 74.7864 108.503 75.4264 108.863 76.1064C109.703 77.7063 110.423 79.3463 111.143 80.9863C111.783 82.3863 112.343 83.8665 113.103 85.2265C113.303 85.6665 113.583 86.0667 113.943 86.4267C114.423 86.8266 114.983 87.1467 115.583 87.4267C117.023 88.1067 118.543 88.6668 119.863 89.5068C120.823 90.1468 121.943 91.1868 121.503 92.4667C121.022 93.8263 118.983 93.6668 117.863 93.5468C117.183 93.4668 116.423 93.3065 115.903 93.2265C115.743 93.2265 115.543 93.1864 115.384 93.1464C114.176 94.618 112.684 95.8053 111.108 96.6738L111.223 99.746L111.703 113.786L111.984 121.502C114.171 120.471 116.421 119.536 118.703 118.667C122.863 117.067 127.143 115.746 131.503 114.786C134.943 114.066 138.703 113.827 142.143 114.707C144.383 115.307 146.904 116.586 147.384 119.106C147.544 120.346 147.343 121.626 146.743 122.746C145.863 124.466 144.703 126.067 143.263 127.387C141.023 129.587 138.503 131.426 135.743 132.866C129.863 135.946 123.463 137.986 116.863 138.866C113.703 139.306 110.543 139.466 107.343 139.267C104.703 139.147 102.143 138.627 99.7029 137.667C97.8629 136.907 96.1433 135.706 95.1433 133.946C94.1033 132.106 93.7427 129.946 93.5427 127.866C93.0628 122.346 93.863 116.746 94.823 111.347C95.663 106.787 96.7031 102.266 97.9031 97.7861C98.103 96.9863 98.2628 96.1864 98.5027 95.3866C98.4227 95.2667 98.3434 95.1062 98.2634 94.9462C97.3634 92.9729 95.5632 89.5263 95.5632 88.5263C95.5633 87.8186 96.3234 83.4262 99.0232 82.0263C101.183 80.9064 102.443 80.7329 103.183 80.9863C103.923 81.239 101.563 77.5263 101.563 77.5263C101.063 76.5263 101.103 74.3064 101.943 73.1464ZM104.277 73.1464C103.741 73.1864 103.951 73.2233 103.663 73.6669C103.143 74.4668 102.983 75.3867 103.183 76.3066C103.57 77.4601 104.971 80.9263 105.563 82.5263C105.959 83.5951 105.087 83.8825 104.063 83.5263C103.555 83.3493 103.061 82.5265 102.563 82.5263C93.0632 85.4663 99.5634 91.5268 100.303 95.5068C100.303 97.0267 99.3432 98.8265 99.0232 100.146C97.7832 104.986 96.7832 109.866 96.0232 114.786C95.6232 117.466 95.3434 120.186 95.2234 122.906C95.1034 125.346 95.2228 127.746 95.6228 130.146C95.9828 131.946 96.583 133.786 97.863 135.146C99.223 136.586 101.183 137.386 102.983 137.866C104.183 138.146 105.383 138.347 106.583 138.467C107.903 138.587 109.263 138.627 110.623 138.587C113.583 138.467 116.583 138.107 119.503 137.507C125.583 136.267 131.623 134.107 136.823 130.667C139.583 128.827 142.223 126.507 143.983 123.667C145.223 121.667 145.943 119.026 144.183 117.146C142.423 115.266 139.463 114.946 137.143 114.946C133.183 114.946 125.543 117.307 125.543 117.307L115.503 121.026L112.143 122.587C112.138 122.591 111.541 123.038 110.623 122.946C109.704 122.854 109.782 119.374 109.783 119.347L109.303 105.307C109.303 105.307 108.563 97.5277 108.983 96.5068C109.288 95.7657 110.343 95.6266 110.703 95.3866C111.71 94.7284 112.638 93.7856 113.384 92.8661C113.824 92.3465 114.704 92.3066 115.303 92.3066C116.06 92.3863 118.716 92.8216 118.743 92.8261C118.743 92.8261 119.095 92.85 119.303 92.706C119.503 92.5061 119.583 92.2661 119.583 91.9863C119.623 90.7464 118.423 90.0267 117.503 89.5068C116.183 88.7868 114.823 88.3069 113.503 87.6269C112.503 87.1869 111.703 86.4265 111.143 85.4667C110.463 84.2269 109.903 82.9067 109.343 81.6269C108.663 80.0669 107.983 78.5063 107.223 76.9863C106.661 75.8987 106.098 74.7056 105.239 73.8027L105.006 73.5693C104.874 73.4128 104.746 73.1114 104.277 73.1464Z" fill="#3D3D3D"/>
</svg>
