<svg width="240" height="240" viewBox="0 0 240 240" fill="none" xmlns="http://www.w3.org/2000/svg">
<g id="Completed">
<g id="card">
<g id="card-2">
<path id="Vector" d="M138.864 198.912C138.864 198.912 147.12 170.304 149.664 168.096C152.208 165.888 157.2 164.064 158.112 164.784C159.024 165.504 153.36 189.744 152.256 192.864C151.152 195.984 138.144 201.312 138.864 198.912Z" fill="white"/>
<path id="Vector_2" d="M139.632 199.343C140.928 194.831 142.272 190.367 143.712 185.903C144.768 182.495 145.92 179.135 147.12 175.775C147.6 174.431 148.128 173.087 148.704 171.743C149.04 170.831 149.52 169.967 150 169.103C150.24 168.767 150.48 168.479 150.816 168.287C151.824 167.519 152.88 166.895 154.032 166.367C155.04 165.887 156.048 165.503 157.152 165.263C157.488 165.215 157.824 165.167 158.16 165.119C158.256 165.119 158.304 165.167 158.4 165.119L157.392 164.495C157.392 164.543 157.392 164.495 157.344 164.447C157.344 164.495 157.392 164.543 157.392 164.543C157.392 166.655 156.912 168.767 156.528 170.831C155.232 177.503 153.744 184.127 151.968 190.655C151.824 191.471 151.536 192.239 151.152 192.911C150.336 194.063 148.992 194.879 147.84 195.551C146.256 196.463 144.624 197.231 142.944 197.903C141.744 198.383 140.352 198.911 139.008 198.959C138.912 198.959 138.816 198.959 138.72 198.959C138.624 198.959 138.672 198.959 138.624 198.959H138.672C138.288 198.863 138.576 199.007 139.536 199.439C139.632 199.343 139.536 199.679 139.584 199.439C139.632 199.487 139.632 199.391 139.632 199.343C139.728 198.959 138.096 198.287 138.048 198.431C137.904 199.007 138.48 199.343 138.912 199.583C139.44 199.871 140.016 200.015 140.64 199.967C142.128 199.775 143.568 199.343 144.96 198.719C146.736 197.999 148.416 197.135 150 196.175C151.056 195.503 152.448 194.639 152.976 193.439C153.312 192.575 153.552 191.711 153.744 190.799C154.128 189.311 154.512 187.823 154.896 186.287C155.808 182.495 156.672 178.703 157.488 174.863C158.064 172.031 158.784 169.151 158.976 166.271C159.024 165.983 159.024 165.647 158.976 165.359C158.832 164.831 158.112 164.495 157.632 164.303C156.816 164.063 155.952 164.111 155.136 164.399C153.936 164.735 152.784 165.215 151.68 165.791C150.432 166.415 149.04 167.135 148.32 168.383C147.744 169.343 147.264 170.399 146.88 171.407C145.584 174.575 144.48 177.839 143.424 181.103C141.552 186.719 139.824 192.383 138.192 198.047C138.144 198.143 138.144 198.239 138.096 198.383C137.952 198.863 139.584 199.535 139.632 199.343Z" fill="#CECECE"/>
<path id="Vector_3" d="M145.248 189.12C145.248 189.12 143.424 186.672 144.288 185.712C145.152 184.752 145.68 186.48 145.68 186.48C145.68 186.48 146.736 184.128 147.408 185.376C148.08 186.624 145.248 189.12 145.248 189.12Z" fill="#CECECE"/>
<path id="Vector_4" d="M150.24 181.776C150.24 181.776 148.416 179.328 149.28 178.368C150.144 177.408 150.672 179.136 150.672 179.136C150.672 179.136 151.728 176.784 152.4 178.032C153.072 179.28 150.24 181.776 150.24 181.776Z" fill="#CECECE"/>
<path id="Vector_5" d="M150.768 188.111C150.768 188.111 148.944 185.663 149.808 184.703C150.672 183.743 151.2 185.471 151.2 185.471C151.2 185.471 152.256 183.119 152.88 184.367C153.504 185.615 150.768 188.111 150.768 188.111Z" fill="#CECECE"/>
<path id="Vector_6" d="M160.32 199.632C160.32 199.632 149.664 169.2 149.664 168.096C149.664 166.992 158.832 161.856 160.32 162.432C161.808 163.008 171.888 190.128 171.888 192.336C171.888 194.544 160.848 201.168 160.32 199.632Z" fill="#3D3D3D"/>
<path id="Vector_7" d="M161.04 199.44C160.464 197.856 159.936 196.272 159.36 194.64C158.16 191.136 156.912 187.584 155.712 184.08C154.464 180.48 153.264 176.88 152.064 173.28C151.632 172.032 151.248 170.784 150.864 169.536C150.816 169.344 150.72 169.104 150.672 168.912C150.672 168.816 150.624 168.72 150.576 168.624C150.528 168.384 150.624 168.816 150.576 168.576C150.528 168.48 150.528 168.336 150.48 168.24C150.384 167.952 150.432 168.288 150.432 168.432C150.432 168.336 150.336 168.528 150.48 168.384C150.624 168.24 150.672 168.144 150.624 168.192C150.864 167.952 151.152 167.712 151.44 167.52C152.208 166.992 152.976 166.464 153.792 165.984C155.472 164.928 157.248 164.112 159.072 163.44C159.36 163.344 159.696 163.248 160.032 163.2C159.888 163.2 160.128 163.2 160.224 163.2C160.32 163.2 160.08 163.152 160.176 163.2C160.272 163.248 159.936 163.104 160.08 163.152C160.032 163.104 159.888 162.96 159.984 163.104C159.84 162.864 160.032 163.152 159.984 163.104C160.128 163.344 160.176 163.344 160.224 163.488C160.272 163.632 160.32 163.68 160.368 163.728L160.464 163.872V163.92C160.608 164.16 160.704 164.4 160.848 164.64C161.136 165.264 161.424 165.84 161.712 166.464C163.248 169.968 164.64 173.568 166.032 177.168C167.424 180.768 168.72 184.416 169.968 188.112C170.208 188.784 170.4 189.456 170.592 190.128L170.688 190.512C170.688 190.608 170.832 190.992 170.736 190.752C170.784 190.992 170.832 191.184 170.928 191.424C170.976 191.616 171.024 191.808 171.024 191.952C171.072 192.096 171.072 192.384 171.072 192.096C171.072 192.336 171.12 192.048 171.072 192.192L171.024 192.336C170.976 192.432 171.072 192.24 170.976 192.384C170.784 192.624 170.592 192.864 170.4 193.104C169.104 194.4 167.616 195.552 166.032 196.464C164.592 197.472 162.96 198.288 161.328 198.864C161.184 198.912 161.088 198.912 160.944 198.96L160.752 199.008C160.704 199.008 160.896 198.96 160.752 199.008C160.704 199.008 160.656 199.008 160.608 199.008C160.608 199.008 160.752 199.056 160.656 199.008C160.8 199.152 160.944 199.296 161.04 199.44C160.656 198.48 159.216 198.768 159.648 199.872C160.272 201.408 162.288 200.544 163.296 200.064C165.216 199.2 167.04 198.144 168.72 196.896C169.488 196.32 170.256 195.744 170.976 195.072C171.552 194.592 172.08 193.968 172.464 193.296C172.848 192.48 172.56 191.616 172.32 190.8C171.36 187.44 170.16 184.176 168.96 180.912C167.472 176.88 165.936 172.848 164.304 168.864C163.68 167.376 163.056 165.888 162.384 164.448C162 163.632 161.568 162.576 160.896 161.952C159.888 160.992 158.016 162 156.96 162.48C154.944 163.344 153.024 164.4 151.2 165.6C150.336 166.176 148.752 167.04 148.944 168.24C149.136 169.056 149.376 169.872 149.664 170.64C150.72 173.952 151.824 177.216 152.928 180.48C154.272 184.416 155.616 188.352 157.008 192.288C157.824 194.688 158.688 197.136 159.504 199.536C159.552 199.68 159.6 199.776 159.648 199.92C159.936 200.832 161.424 200.544 161.04 199.44Z" fill="#3D3D3D"/>
<path id="Vector_8" d="M163.248 200.16C163.248 200.16 171.504 171.552 174.048 169.344C176.592 167.136 181.584 165.312 182.496 166.032C183.408 166.752 177.744 190.992 176.64 194.112C175.536 197.232 162.576 202.56 163.248 200.16Z" fill="white"/>
<path id="Vector_9" d="M164.16 200.255C165.456 195.743 166.8 191.279 168.24 186.815C169.296 183.407 170.448 180.047 171.648 176.687C172.464 174.479 173.232 172.031 174.528 170.063C174.576 169.967 174.672 169.871 174.72 169.775C174.864 169.631 175.056 169.439 175.248 169.343C176.208 168.623 177.264 167.999 178.368 167.519C179.328 167.039 180.336 166.703 181.344 166.511C181.488 166.463 181.68 166.463 181.824 166.463C181.776 166.463 181.872 166.463 181.872 166.463C181.872 166.463 181.584 166.319 181.68 166.319C181.68 166.271 181.776 166.319 181.68 166.319C181.68 166.559 181.728 166.847 181.68 167.135C181.632 167.615 181.584 168.095 181.536 168.527C181.344 169.871 181.104 171.263 180.816 172.607C179.52 179.231 178.032 185.855 176.256 192.335C176.064 193.055 175.92 193.967 175.488 194.543C174.672 195.695 173.328 196.463 172.128 197.135C170.592 197.999 169.008 198.767 167.328 199.391C166.656 199.631 165.984 199.871 165.264 200.063C164.976 200.159 164.688 200.207 164.352 200.255C164.016 200.303 164.448 200.255 164.16 200.255H163.968C163.776 200.255 163.968 200.303 163.968 200.255C163.968 200.207 163.824 200.255 163.824 200.255C164.064 200.303 163.92 200.255 163.872 200.255C163.872 200.255 164.016 200.351 163.968 200.303C163.92 200.255 164.112 200.399 164.016 200.303C164.16 200.303 164.112 200.255 164.16 200.255C164.304 199.487 162.528 199.391 162.384 200.015C162.048 201.311 164.016 201.263 164.784 201.119C166.32 200.831 167.856 200.399 169.296 199.727C171.072 199.007 172.8 198.095 174.432 197.087C175.536 196.367 176.928 195.503 177.456 194.255C177.792 193.391 178.032 192.527 178.224 191.615C178.608 190.127 178.992 188.639 179.376 187.103C180.288 183.311 181.152 179.519 181.968 175.679C182.544 172.847 183.264 169.919 183.504 167.039C183.552 166.751 183.552 166.463 183.504 166.127C183.408 165.599 182.88 165.407 182.4 165.359C181.44 165.263 180.432 165.407 179.52 165.743C178.32 166.127 177.12 166.607 176.016 167.231C174.72 167.903 173.376 168.671 172.656 169.919C172.08 170.879 171.6 171.935 171.216 172.943C169.92 176.111 168.816 179.375 167.76 182.639C165.888 188.255 164.16 193.919 162.528 199.583C162.48 199.679 162.48 199.775 162.432 199.919C162.192 200.783 163.968 200.879 164.16 200.255Z" fill="#CECECE"/>
<path id="Vector_10" d="M168.624 195.311C168.624 195.311 166.8 192.863 167.664 191.903C168.528 190.943 169.056 192.671 169.056 192.671C169.056 192.671 170.112 190.319 170.784 191.567C171.456 192.815 168.624 195.311 168.624 195.311Z" fill="#CECECE"/>
<path id="Vector_11" d="M174.144 194.303C174.144 194.303 172.32 191.855 173.184 190.895C174.048 189.935 174.576 191.663 174.576 191.663C174.576 191.663 175.632 189.311 176.256 190.559C176.88 191.807 174.144 194.303 174.144 194.303Z" fill="#CECECE"/>
<path id="Vector_12" d="M172.752 180.864C172.752 180.864 170.928 178.416 171.792 177.456C172.656 176.496 173.184 178.224 173.184 178.224C173.184 178.224 174.24 175.872 174.864 177.12C175.488 178.368 172.752 180.864 172.752 180.864Z" fill="#CECECE"/>
<path id="Vector_13" d="M177.984 179.712C177.984 179.712 176.16 177.264 177.024 176.304C177.888 175.344 178.416 177.072 178.416 177.072C178.416 177.072 179.472 174.72 180.096 175.968C180.72 177.216 177.984 179.712 177.984 179.712Z" fill="#3D3D3D"/>
<path id="Vector_14" d="M178.704 180.191C178.272 179.663 177.936 179.039 177.696 178.367C177.504 177.983 177.456 177.503 177.6 177.071C177.696 176.879 177.84 176.687 178.032 176.591C178.08 176.543 178.176 176.543 178.272 176.543C178.32 176.543 178.368 176.591 178.32 176.543L178.224 176.495C177.888 176.303 177.552 176.111 177.264 175.823C177.216 175.775 177.216 175.775 177.264 175.823L177.312 175.871C177.264 175.823 177.36 175.919 177.312 175.871L177.36 175.919L177.456 176.063C177.504 176.159 177.552 176.255 177.6 176.303C177.648 176.399 177.696 176.495 177.696 176.591C178.128 177.023 178.608 177.359 179.136 177.599C179.28 177.263 179.472 176.975 179.664 176.687C179.808 176.495 179.952 176.351 180.144 176.207C180.192 176.159 180.288 176.159 180.384 176.159H180.432C180 176.015 179.616 175.727 179.28 175.391C179.232 175.343 179.328 175.487 179.28 175.391C179.328 175.439 179.328 175.487 179.376 175.535C179.52 176.015 179.424 176.543 179.136 176.975C178.848 177.503 178.464 177.983 178.032 178.463C177.792 178.703 177.552 178.991 177.264 179.231C177.168 179.279 177.888 179.807 177.936 179.855C178.128 179.999 178.272 180.095 178.464 180.191C178.512 180.191 178.656 180.335 178.704 180.287C179.472 179.615 180.144 178.847 180.624 177.983C180.96 177.503 180.96 176.879 180.672 176.351C180.432 176.063 180.096 175.775 179.76 175.583C179.52 175.391 179.232 175.247 178.896 175.151C178.656 175.151 178.464 175.295 178.32 175.439C178.032 175.775 177.792 176.159 177.6 176.591L179.04 177.599C178.944 177.311 178.8 177.023 178.656 176.783C178.512 176.639 178.368 176.495 178.224 176.351C177.888 176.063 177.552 175.871 177.216 175.631C176.976 175.487 176.688 175.439 176.496 175.583C175.536 176.207 176.304 177.647 176.736 178.367C176.88 178.655 177.072 178.943 177.312 179.231C177.552 179.519 177.84 179.759 178.176 179.903C178.32 179.999 178.464 180.095 178.656 180.191C178.56 180.239 178.752 180.287 178.704 180.191Z" fill="#3D3D3D"/>
<path id="Vector_15" d="M184.704 200.88C184.704 200.88 174.096 170.448 174.096 169.344C174.096 168.24 183.264 163.104 184.704 163.68C186.144 164.256 196.272 191.376 196.272 193.584C196.272 195.792 185.232 202.416 184.704 200.88Z" fill="#3D3D3D"/>
<path id="Vector_16" d="M185.568 201.071C184.992 199.487 184.464 197.903 183.888 196.319C182.64 192.815 181.44 189.263 180.24 185.759C178.992 182.159 177.792 178.559 176.592 174.959C176.16 173.711 175.776 172.463 175.392 171.215C175.296 170.831 175.152 170.447 175.056 170.063C175.008 169.967 175.008 169.823 174.96 169.727C174.912 169.631 174.912 169.679 174.96 169.583C175.056 169.151 175.632 168.815 175.968 168.527C176.688 167.999 177.456 167.471 178.224 167.039C179.952 165.983 181.776 165.071 183.648 164.351C183.984 164.207 184.32 164.111 184.656 164.063C184.752 164.063 184.848 164.015 184.944 164.015C185.04 163.967 185.088 164.063 184.944 164.015C184.8 163.967 184.08 163.679 184.08 163.679C184.08 163.679 184.032 163.631 184.128 163.727C184.224 163.823 184.128 163.679 184.176 163.823C184.272 163.967 184.368 164.111 184.464 164.255C185.04 165.263 185.568 166.319 186 167.423C187.536 170.927 188.928 174.527 190.32 178.127C191.712 181.727 193.008 185.375 194.256 189.071C194.64 190.223 195.024 191.375 195.312 192.527C195.408 192.815 195.456 193.055 195.456 193.343C195.36 193.823 195.168 194.255 194.784 194.591C193.584 195.983 191.952 197.039 190.464 198.047C188.928 199.103 187.296 199.967 185.52 200.639C185.28 200.735 185.04 200.783 184.752 200.831C184.656 200.831 184.656 200.831 184.704 200.831C184.512 200.783 185.52 201.071 185.376 201.023C185.376 200.975 185.664 201.071 185.568 201.071C185.472 200.783 184.848 200.639 184.608 200.591C184.512 200.591 183.792 200.447 183.936 200.735C184.176 201.359 185.328 201.503 185.904 201.503C186.576 201.455 187.248 201.263 187.872 200.975C189.744 200.159 191.52 199.151 193.2 197.951C194.544 197.039 196.176 195.935 196.992 194.543C197.424 193.823 197.088 193.055 196.896 192.335C195.984 189.023 194.784 185.807 193.584 182.591C192.096 178.559 190.56 174.527 188.928 170.543C188.304 169.055 187.68 167.567 187.008 166.127C186.672 165.407 186.288 164.447 185.712 163.919C184.512 162.815 182.64 163.535 181.392 164.111C179.376 164.975 177.456 165.983 175.632 167.183C174.96 167.567 174.336 168.047 173.76 168.575C173.52 168.815 173.28 169.055 173.328 169.391C173.472 170.159 173.712 170.879 173.952 171.599C175.008 174.911 176.112 178.175 177.216 181.439C178.56 185.375 179.904 189.311 181.296 193.247C182.112 195.647 182.976 198.095 183.792 200.495C183.84 200.591 183.888 200.735 183.936 200.879C184.032 201.119 185.664 201.359 185.568 201.071Z" fill="#3D3D3D"/>
<path id="Vector_17" d="M188.16 199.872C188.16 199.872 196.416 171.264 198.96 169.056C201.504 166.848 206.496 165.024 207.408 165.744C208.32 166.464 202.656 190.704 201.552 193.824C200.448 196.944 187.44 202.272 188.16 199.872Z" fill="white"/>
<path id="Vector_18" d="M188.832 200.351C190.128 195.839 191.472 191.375 192.912 186.911C193.968 183.503 195.072 180.143 196.32 176.831C196.8 175.487 197.328 174.143 197.904 172.847C198.24 171.935 198.672 171.071 199.2 170.255C199.392 169.919 199.68 169.631 200.016 169.439C201.024 168.719 202.08 168.095 203.184 167.567C204.192 167.087 205.2 166.751 206.304 166.511C206.64 166.415 206.976 166.415 207.312 166.415C207.552 166.463 207.456 166.511 207.216 166.271C207.12 166.223 206.88 165.695 206.928 165.791C206.832 165.551 206.928 165.791 206.928 165.935C206.928 166.079 206.928 165.791 206.928 165.983C206.928 166.079 206.928 166.175 206.928 166.271C206.88 166.751 206.832 167.231 206.784 167.711C206.592 169.103 206.352 170.447 206.064 171.791C204.768 178.415 203.28 185.039 201.504 191.567C201.408 191.999 201.264 192.431 201.12 192.815C201.12 192.911 201.072 193.007 201.024 193.103C200.928 193.343 200.832 193.535 200.688 193.727C199.872 194.879 198.48 195.647 197.28 196.367C195.744 197.279 194.112 198.047 192.432 198.671C191.28 199.103 189.888 199.679 188.592 199.631C188.688 199.631 188.448 199.631 188.4 199.631C188.256 199.631 188.4 199.727 188.352 199.631C188.496 199.775 188.736 199.967 188.832 200.255C188.784 200.399 188.784 200.543 188.832 200.351C189.024 199.775 187.728 198.527 187.488 199.439C187.392 200.159 187.728 200.831 188.4 201.119C188.832 201.311 189.312 201.359 189.744 201.263C191.28 201.023 192.72 200.543 194.112 199.919C195.888 199.199 197.568 198.335 199.152 197.279C200.208 196.607 201.552 195.743 202.08 194.495C202.416 193.583 202.656 192.671 202.896 191.759C203.28 190.271 203.664 188.783 204.048 187.247C204.96 183.455 205.824 179.663 206.64 175.823C207.216 172.991 207.936 170.111 208.128 167.231C208.176 166.271 208.08 165.167 206.928 164.831C206.16 164.639 205.2 164.879 204.432 165.119C203.232 165.503 202.08 165.983 200.976 166.607C199.728 167.279 198.432 167.999 197.664 169.247C197.088 170.255 196.608 171.263 196.224 172.319C194.928 175.487 193.824 178.799 192.72 182.063C190.848 187.679 189.12 193.343 187.488 199.055C187.44 199.151 187.44 199.247 187.392 199.343C187.296 199.967 188.544 201.215 188.832 200.351Z" fill="#CECECE"/>
<path id="Vector_19" d="M193.488 195.023C193.488 195.023 191.664 192.575 192.528 191.615C193.392 190.655 193.92 192.383 193.92 192.383C193.92 192.383 194.976 190.031 195.648 191.279C196.32 192.527 193.488 195.023 193.488 195.023Z" fill="#CECECE"/>
<path id="Vector_20" d="M198.48 187.679C198.48 187.679 196.656 185.231 197.52 184.271C198.384 183.311 198.912 185.039 198.912 185.039C198.912 185.039 199.968 182.687 200.64 183.935C201.312 185.183 198.48 187.679 198.48 187.679Z" fill="#CECECE"/>
<path id="Vector_21" d="M199.008 194.015C199.008 194.015 197.184 191.615 198.048 190.607C198.912 189.599 199.44 191.375 199.44 191.375C199.44 191.375 200.496 189.023 201.12 190.271C201.744 191.519 199.008 194.015 199.008 194.015Z" fill="#CECECE"/>
<path id="Vector_22" d="M197.664 180.576C197.664 180.576 195.84 178.128 196.704 177.168C197.568 176.208 198.096 177.936 198.096 177.936C198.096 177.936 199.152 175.584 199.776 176.832C200.4 178.08 197.664 180.576 197.664 180.576Z" fill="#CECECE"/>
<path id="Vector_23" d="M202.848 179.424C202.848 179.424 201.024 176.976 201.888 176.016C202.752 175.056 203.28 176.784 203.28 176.784C203.28 176.784 204.336 174.432 204.96 175.68C205.584 176.928 202.848 179.424 202.848 179.424Z" fill="#3D3D3D"/>
<path id="Vector_24" d="M203.616 179.135C203.472 178.943 203.376 178.751 203.232 178.559C203.088 178.367 202.992 178.175 202.896 177.983C202.848 177.887 202.8 177.791 202.752 177.647C202.656 177.455 202.8 177.791 202.752 177.647L202.656 177.455C202.608 177.359 202.56 177.215 202.56 177.119C202.56 177.023 202.512 177.023 202.512 176.975V176.927C202.464 176.783 202.512 177.119 202.512 176.975C202.512 176.879 202.512 176.783 202.512 176.687V176.639C202.512 176.495 202.464 176.831 202.512 176.735C202.56 176.639 202.56 176.639 202.56 176.591C202.608 176.447 202.464 176.735 202.56 176.639C202.656 176.543 202.608 176.543 202.656 176.495C202.512 176.591 202.704 176.447 202.656 176.495L202.704 176.447C202.656 176.543 202.512 176.543 202.656 176.495C202.416 176.591 202.464 176.543 202.56 176.543C202.656 176.543 202.32 176.543 202.416 176.543C202.512 176.543 202.128 176.447 202.32 176.543C202.032 176.447 202.128 176.447 202.176 176.495C202.224 176.543 202.224 176.543 202.08 176.399C202.128 176.447 202.128 176.447 202.176 176.495C202.32 176.639 202.08 176.303 202.176 176.447L202.272 176.591C202.32 176.639 202.32 176.687 202.368 176.735C202.368 176.735 202.368 176.783 202.416 176.783C202.464 176.879 202.32 176.591 202.368 176.687C202.416 176.783 202.464 176.879 202.464 176.975C202.704 177.695 203.856 177.887 204.192 177.167C204.24 177.071 204.288 176.975 204.336 176.879C204.192 177.167 204.288 176.975 204.336 176.927L204.432 176.783C204.48 176.687 204.576 176.543 204.624 176.447C204.672 176.351 204.768 176.255 204.864 176.207C204.96 176.159 204.72 176.351 204.816 176.255L204.864 176.207L204.912 176.159C205.056 176.063 204.768 176.207 204.816 176.207C205.008 176.159 204.672 176.207 204.768 176.207C204.864 176.207 204.528 176.207 204.624 176.207C204.72 176.207 204.336 176.159 204.48 176.159C204.624 176.159 204.24 176.063 204.336 176.111C204.432 176.159 204.336 176.159 204.24 176.015L204.288 176.063C204.192 175.919 204.192 175.919 204.24 175.967L204.288 176.015C204.288 176.063 204.336 176.063 204.336 176.111C204.192 175.967 204.288 175.919 204.288 176.015C204.288 176.111 204.288 176.111 204.336 176.207C204.288 176.015 204.336 176.015 204.336 176.111C204.336 176.207 204.336 176.159 204.336 176.207C204.336 176.255 204.336 176.351 204.336 176.399C204.336 176.159 204.384 176.255 204.336 176.351L204.288 176.447C204.288 176.495 204.24 176.543 204.24 176.591C204.24 176.639 204.192 176.735 204.144 176.783L204.096 176.879C204 177.023 204.144 176.783 204.096 176.831C203.808 177.359 203.424 177.839 203.04 178.271C202.944 178.367 202.848 178.463 202.752 178.559L202.608 178.703C202.656 178.655 202.8 178.463 202.608 178.703L202.368 178.943C202.224 179.087 202.128 179.279 202.08 179.471C202.08 179.663 202.176 179.903 202.32 180.047C202.656 180.383 203.184 180.431 203.568 180.191C204.432 179.471 205.152 178.559 205.728 177.599C206.112 176.975 206.16 176.159 205.776 175.487C205.488 174.959 204.912 174.671 204.336 174.767C203.952 174.815 203.568 175.055 203.328 175.391C202.992 175.775 202.704 176.255 202.512 176.735L204.24 176.927C204.144 176.543 203.952 176.159 203.712 175.871C203.232 175.199 202.272 175.007 201.6 175.487C201.552 175.535 201.552 175.535 201.504 175.583C201.216 175.823 201.024 176.111 200.976 176.447C200.928 176.783 200.928 177.167 200.976 177.503C201.12 178.079 201.36 178.655 201.648 179.135C201.84 179.423 201.984 179.711 202.224 179.999C202.464 180.383 202.992 180.575 203.424 180.431C203.76 180.287 203.952 179.903 203.808 179.567C203.664 179.231 203.664 179.183 203.616 179.135Z" fill="#3D3D3D"/>
<path id="Vector_25" d="M209.616 200.592C209.616 200.592 199.008 170.16 199.008 169.056C199.008 167.952 208.176 162.816 209.616 163.392C211.056 163.968 221.184 191.088 221.184 193.296C221.184 195.504 210.144 202.128 209.616 200.592Z" fill="#3D3D3D"/>
<path id="Vector_26" d="M210.384 200.976L208.704 196.224C207.456 192.72 206.256 189.168 205.056 185.664C203.808 182.064 202.608 178.464 201.408 174.864C200.976 173.616 200.592 172.368 200.208 171.12C200.112 170.736 199.968 170.352 199.872 169.968C199.824 169.824 199.776 169.488 199.776 169.488C199.824 169.056 200.448 168.672 200.736 168.432C201.456 167.904 202.224 167.376 202.992 166.944C204.72 165.888 206.544 164.976 208.416 164.256C208.752 164.112 209.136 164.016 209.472 163.92C209.616 163.872 209.712 163.872 209.856 163.872H209.952C210.096 163.872 210.048 163.968 210 163.872C209.952 163.776 209.328 163.584 209.184 163.44C209.184 163.44 209.04 163.344 209.088 163.344C209.136 163.344 209.04 163.296 209.04 163.296C209.088 163.344 209.136 163.392 209.136 163.44C209.232 163.536 209.328 163.68 209.376 163.776C209.952 164.784 210.48 165.84 210.912 166.944C212.448 170.448 213.84 174.048 215.232 177.648C216.624 181.248 217.92 184.896 219.168 188.592C219.552 189.744 219.936 190.896 220.224 192.048C220.32 192.336 220.368 192.624 220.416 192.912C220.32 193.392 220.08 193.776 219.744 194.112C218.496 195.456 217.056 196.608 215.472 197.52C213.936 198.576 212.256 199.44 210.48 200.112C210.24 200.208 209.952 200.256 209.664 200.352C209.568 200.352 209.472 200.352 209.424 200.352C209.376 200.352 209.328 200.352 209.376 200.352C209.424 200.352 210.432 201.072 210.384 200.976C210.24 200.688 209.76 200.448 209.472 200.352C209.424 200.304 208.704 200.064 208.8 200.304C209.04 200.928 210.144 201.36 210.768 201.36C211.392 201.312 212.016 201.12 212.592 200.832C214.464 200.016 216.24 199.008 217.872 197.856C219.216 196.944 220.896 195.84 221.712 194.4C222.144 193.68 221.808 192.912 221.616 192.192C220.704 188.88 219.504 185.664 218.304 182.448C216.816 178.416 215.28 174.384 213.648 170.4C213.024 168.912 212.4 167.424 211.728 165.984C211.344 165.216 211.008 164.256 210.336 163.68C209.088 162.48 207.648 163.008 206.256 163.584C204.288 164.448 202.368 165.456 200.592 166.608C199.92 167.04 199.248 167.52 198.672 168.048C198.432 168.288 198.192 168.48 198.24 168.816C198.384 169.584 198.624 170.304 198.864 171.024C199.92 174.336 201.024 177.6 202.128 180.864C203.472 184.8 204.816 188.736 206.208 192.672C207.024 195.072 207.888 197.52 208.704 199.92C208.752 200.016 208.8 200.16 208.848 200.304C208.944 200.592 209.472 200.832 209.76 200.976C209.76 200.928 210.48 201.168 210.384 200.976Z" fill="#3D3D3D"/>
<path id="Vector_27" d="M144.72 167.472C144.72 167.472 176.352 169.968 178.464 169.776C180.576 169.584 189.888 164.256 188.112 163.584C186.336 162.912 157.008 160.272 154.992 160.8C152.976 161.328 143.232 166.464 144.72 167.472Z" fill="#CECECE"/>
<path id="Vector_28" d="M144.72 168.191L150.096 168.623C154.032 168.911 157.92 169.247 161.856 169.535C165.744 169.823 169.632 170.111 173.52 170.351C174.768 170.447 176.016 170.495 177.312 170.543C178.176 170.591 179.088 170.495 179.904 170.255C181.776 169.535 183.552 168.671 185.232 167.615C186.096 167.135 186.912 166.559 187.68 165.983C188.208 165.599 188.688 165.167 189.072 164.591C189.792 163.343 188.304 162.911 187.392 162.767C186.24 162.575 185.04 162.431 183.888 162.287C179.952 161.855 176.064 161.471 172.128 161.135C168.096 160.799 164.064 160.463 160.032 160.223C158.736 160.127 157.44 160.079 156.144 160.079C155.232 160.079 154.368 160.223 153.552 160.559C151.68 161.375 149.856 162.287 148.128 163.343C147.264 163.871 146.4 164.399 145.584 164.975C144.96 165.359 144.432 165.839 144 166.415C143.616 166.895 143.664 167.567 144.144 167.951C144.144 167.951 144.144 167.951 144.192 167.999C144.528 168.287 145.056 168.335 145.44 168.095C145.728 167.855 145.776 167.423 145.536 167.183C145.488 167.135 145.44 167.087 145.44 167.087C145.344 167.039 145.536 167.327 145.536 167.375C145.488 167.279 145.584 167.519 145.536 167.423C145.488 167.327 145.68 167.231 145.536 167.423C145.68 167.231 145.776 167.087 145.968 166.895C146.592 166.367 147.264 165.887 147.936 165.455C149.616 164.351 151.392 163.391 153.216 162.527C153.888 162.191 154.56 161.903 155.232 161.663C155.28 161.615 155.664 161.567 155.376 161.615H155.472C155.568 161.615 156 161.567 155.664 161.615C156.672 161.567 157.728 161.615 158.736 161.663C166.416 162.047 174.048 162.767 181.68 163.583C183.12 163.727 184.56 163.919 186.048 164.063C186.528 164.111 186.96 164.207 187.44 164.255H187.584C187.776 164.303 187.344 164.207 187.488 164.255L187.68 164.303C187.776 164.351 187.872 164.351 187.968 164.399C187.776 164.543 187.536 163.919 187.488 163.871C187.536 163.967 187.44 163.727 187.488 163.823C187.392 163.919 187.536 163.919 187.488 163.823C187.584 163.727 187.392 163.919 187.392 163.967C187.344 164.063 187.248 164.159 187.152 164.207C186.528 164.735 185.904 165.263 185.232 165.695C183.6 166.799 181.872 167.759 180.096 168.527C179.76 168.671 179.424 168.815 179.04 168.959C178.8 169.055 178.56 169.103 178.368 169.151C178.128 169.199 178.608 169.151 178.272 169.151H177.792C176.736 169.103 175.728 169.055 174.672 169.007C171.072 168.815 167.472 168.527 163.872 168.287C157.632 167.855 151.344 167.375 145.104 166.847H144.768C143.52 166.607 143.712 168.095 144.72 168.191Z" fill="#CECECE"/>
<path id="Vector_29" d="M169.008 169.344C169.008 169.344 200.64 171.84 202.752 171.648C204.864 171.456 214.176 166.128 212.4 165.456C210.624 164.784 181.296 162.144 179.28 162.672C177.264 163.2 167.52 168.336 169.008 169.344Z" fill="#CECECE"/>
<path id="Vector_30" d="M169.776 169.775L175.104 170.207C178.992 170.495 182.88 170.783 186.816 171.071C190.704 171.359 194.592 171.647 198.48 171.887C199.776 171.983 201.024 172.031 202.32 172.079C203.04 172.127 203.808 172.079 204.528 171.887C206.352 171.215 208.08 170.351 209.76 169.295C210.576 168.815 211.392 168.287 212.16 167.711C212.592 167.375 213.264 166.943 213.456 166.415C213.696 165.791 212.448 165.311 212.016 165.119C211.728 165.023 211.44 164.927 211.104 164.879C210 164.687 208.896 164.543 207.744 164.447C203.904 164.015 200.016 163.631 196.176 163.295C192.144 162.959 188.064 162.623 184.032 162.383C182.688 162.287 181.344 162.239 180 162.191C179.232 162.143 178.512 162.239 177.792 162.527C176.016 163.247 174.288 164.111 172.608 165.119C171.696 165.647 170.832 166.175 169.968 166.751C169.344 167.135 168.816 167.615 168.336 168.143C168.048 168.527 168.096 168.815 168.48 169.103C168.816 169.343 169.2 169.583 169.584 169.727C169.824 169.823 169.92 169.823 169.632 169.583C169.824 169.727 169.632 169.631 169.68 169.535C169.728 169.439 169.68 169.391 169.728 169.295C169.824 169.103 169.968 168.911 170.16 168.719C170.736 168.191 171.36 167.711 171.984 167.279C173.712 166.127 175.536 165.119 177.408 164.255C178.368 163.823 179.424 163.151 180.48 163.055C181.44 163.007 182.448 163.055 183.408 163.103C187.056 163.295 190.704 163.583 194.352 163.871C198.384 164.207 202.464 164.591 206.496 165.023C207.984 165.167 209.424 165.359 210.912 165.551C211.392 165.599 211.872 165.695 212.352 165.743C212.496 165.743 212.688 165.791 212.832 165.839C212.88 165.839 212.928 165.887 213.024 165.887C213.12 165.887 213.024 165.887 213.072 165.887C213.12 165.887 211.872 165.167 211.872 165.167C211.872 165.167 211.92 165.215 211.872 165.215C211.824 165.215 211.872 165.359 211.824 165.455C211.728 165.647 211.584 165.839 211.392 165.983C210.816 166.511 210.192 166.991 209.52 167.423C207.84 168.527 206.112 169.535 204.24 170.351C203.376 170.831 202.416 171.071 201.456 171.119C200.448 171.119 199.392 171.023 198.384 170.975C194.832 170.783 191.28 170.495 187.728 170.255C183.744 169.967 179.808 169.679 175.824 169.343L168.672 168.815H168.336C168.192 168.815 168.768 169.199 168.816 169.247C169.056 169.535 169.392 169.679 169.776 169.775Z" fill="#CECECE"/>
<path id="Vector_31" d="M149.952 166.751C149.952 166.751 158.208 138.143 160.752 135.935C163.296 133.727 168.288 131.903 169.2 132.623C170.112 133.343 164.448 157.583 163.344 160.703C162.24 163.823 149.28 169.151 149.952 166.751Z" fill="white"/>
<path id="Vector_32" d="M150.768 166.943C152.064 162.431 153.408 157.967 154.848 153.503C155.904 150.095 157.056 146.735 158.256 143.375C158.736 142.031 159.264 140.687 159.84 139.343C159.936 139.055 160.08 138.815 160.176 138.527L160.32 138.191L160.416 137.999C160.512 137.855 160.368 138.143 160.416 137.951C160.608 137.567 160.8 137.231 160.992 136.895C161.04 136.847 161.088 136.751 161.136 136.703C161.328 136.511 161.568 136.319 161.76 136.175C162.72 135.455 163.776 134.879 164.88 134.399C165.84 133.919 166.8 133.631 167.856 133.439C168 133.391 168.192 133.391 168.336 133.391C168.432 133.391 168.576 133.439 168.576 133.391C168.576 133.343 168.432 133.295 168.336 133.199C168.384 133.295 168.24 132.959 168.288 133.103C168.288 133.151 168.288 133.199 168.288 133.247C168.288 133.103 168.288 133.103 168.288 133.247C168.288 133.391 168.288 133.583 168.288 133.727C168.24 134.207 168.192 134.687 168.144 135.119C167.952 136.463 167.712 137.855 167.424 139.199C166.128 145.823 164.64 152.399 162.864 158.879C162.768 159.311 162.624 159.743 162.48 160.127C162.432 160.271 162.384 160.415 162.336 160.559C162.336 160.607 162.192 160.847 162.288 160.655C162.24 160.751 162.144 160.895 162.048 160.991C161.904 161.183 162.048 160.991 161.904 161.183C161.76 161.375 161.664 161.423 161.568 161.519C161.328 161.759 161.04 161.999 160.752 162.191C160.128 162.671 159.456 163.055 158.784 163.439C157.248 164.303 155.664 165.071 154.032 165.647C153.312 165.935 152.592 166.127 151.872 166.319C151.392 166.463 150.912 166.559 150.432 166.511C150.384 166.511 150.336 166.511 150.288 166.511C150.192 166.463 150.384 166.511 150.384 166.559C150.384 166.607 150.192 166.415 150.432 166.607C150.336 166.559 150.48 166.751 150.528 166.799C150.768 166.847 150.768 166.895 150.768 166.943C151.056 165.887 149.328 165.647 149.088 166.655C148.224 169.871 154.8 167.183 155.76 166.799C157.584 166.079 159.312 165.167 160.944 164.111C162.144 163.343 163.536 162.383 164.064 161.039C164.4 160.175 164.64 159.311 164.832 158.399C165.216 156.911 165.6 155.423 165.984 153.887C166.896 150.095 167.76 146.303 168.576 142.463C169.152 139.583 169.872 136.655 170.112 133.727C170.16 132.815 170.16 131.999 169.104 131.759C168.192 131.567 167.184 131.855 166.32 132.143C165.072 132.527 163.872 133.055 162.768 133.679C161.472 134.399 160.128 135.167 159.36 136.463C158.784 137.471 158.304 138.527 157.872 139.631C156.576 142.799 155.472 146.063 154.416 149.327C152.544 154.943 150.816 160.607 149.184 166.271C149.136 166.367 149.136 166.463 149.088 166.559C148.8 167.663 150.48 167.903 150.768 166.943Z" fill="#CECECE"/>
<path id="Vector_33" d="M155.328 161.903C155.328 161.903 153.504 159.455 154.32 158.495C155.136 157.535 155.712 159.263 155.712 159.263C155.712 159.263 156.768 156.911 157.392 158.159C158.016 159.407 155.328 161.903 155.328 161.903Z" fill="#CECECE"/>
<path id="Vector_34" d="M157.44 154.559C157.44 154.559 155.616 152.111 156.48 151.151C157.344 150.191 157.872 151.919 157.872 151.919C157.872 151.919 158.928 149.567 159.552 150.815C160.176 152.063 157.44 154.559 157.44 154.559Z" fill="#CECECE"/>
<path id="Vector_35" d="M160.848 160.895C160.848 160.895 159.024 158.447 159.888 157.487C160.752 156.527 161.28 158.255 161.28 158.255C161.28 158.255 162.336 155.903 163.008 157.151C163.68 158.399 160.848 160.895 160.848 160.895Z" fill="#CECECE"/>
<path id="Vector_36" d="M159.456 147.456C159.456 147.456 157.632 145.008 158.496 144.048C159.36 143.088 159.888 144.816 159.888 144.816C159.888 144.816 160.944 142.464 161.616 143.712C162.288 144.96 159.456 147.456 159.456 147.456Z" fill="#CECECE"/>
<path id="Vector_37" d="M164.64 146.303C164.64 146.303 162.816 143.903 163.68 142.895C164.544 141.887 165.072 143.663 165.072 143.663C165.072 143.663 166.128 141.311 166.8 142.559C167.472 143.807 164.64 146.303 164.64 146.303Z" fill="#3D3D3D"/>
<path id="Vector_38" d="M162.528 154.559C162.528 154.559 160.704 152.111 161.568 151.151C162.432 150.191 162.96 151.919 162.96 151.919C162.96 151.919 164.016 149.567 164.64 150.815C165.264 152.063 162.528 154.559 162.528 154.559Z" fill="#CECECE"/>
<path id="Vector_39" d="M171.408 167.472C171.408 167.472 160.8 137.04 160.8 135.936C160.8 134.832 169.968 129.696 171.456 130.224C172.944 130.752 183.024 157.92 183.024 160.128C183.024 162.336 171.936 169.008 171.408 167.472Z" fill="#3D3D3D"/>
<path id="Vector_40" d="M171.888 167.904L170.208 163.152C169.008 159.648 167.76 156.096 166.56 152.592C165.312 148.992 164.112 145.392 162.912 141.744C162.48 140.496 162.096 139.296 161.712 138.048C161.616 137.664 161.472 137.328 161.376 136.944C161.376 136.896 161.328 136.8 161.328 136.752C161.28 136.56 161.328 136.8 161.328 136.704C161.328 136.656 161.328 136.656 161.328 136.608C161.28 136.704 161.328 136.512 161.328 136.608C161.472 136.176 162.048 135.792 162.432 135.552C163.152 135.024 163.92 134.496 164.736 134.064C166.464 133.008 168.288 132.096 170.16 131.424C170.496 131.28 170.832 131.184 171.168 131.136C171.36 131.088 171.6 131.136 171.792 131.136C171.744 131.136 171.6 130.944 171.552 130.944C171.552 130.848 171.696 131.136 171.552 130.944C171.552 131.04 171.744 131.28 171.6 130.992C171.696 131.184 171.84 131.376 171.936 131.568C171.984 131.664 172.032 131.76 172.08 131.904V131.952L172.176 132.192C172.464 132.768 172.752 133.392 173.04 134.016C174.576 137.52 175.968 141.12 177.36 144.672C178.752 148.224 180.048 151.92 181.248 155.568C181.632 156.72 181.968 157.824 182.304 158.976C182.304 159.024 182.352 159.072 182.352 159.12C182.352 159.216 182.4 159.264 182.4 159.36C182.4 159.456 182.448 159.696 182.448 159.6C182.352 160.128 182.064 160.56 181.68 160.944C180.336 162.288 178.848 163.44 177.264 164.4C175.776 165.408 174.144 166.272 172.464 166.896C172.224 166.992 171.936 167.04 171.696 167.088C171.6 167.088 171.504 167.088 171.408 167.088C171.312 167.088 171.312 167.088 171.312 167.088C171.6 167.28 171.84 167.568 171.936 167.904C171.792 167.616 171.504 167.04 171.168 166.944C170.832 166.848 170.976 167.184 171.072 167.424C171.312 168.048 171.84 168.72 172.56 168.672C173.232 168.576 173.856 168.384 174.48 168.096C176.352 167.232 178.128 166.224 179.76 165.024C180.576 164.448 181.344 163.824 182.112 163.2C182.64 162.768 183.12 162.192 183.456 161.616C183.84 160.896 183.456 160.032 183.264 159.312C182.352 156 181.104 152.736 179.952 149.472C178.464 145.44 176.928 141.408 175.296 137.424C174.672 135.936 174.048 134.4 173.328 132.96C172.896 131.952 172.368 130.992 171.648 130.128C170.784 129.216 169.248 130.08 168.288 130.464C166.32 131.328 164.4 132.336 162.624 133.536C161.952 133.92 161.328 134.4 160.752 134.928C160.512 135.12 160.368 135.456 160.416 135.744C160.56 136.56 160.8 137.328 161.088 138.096C162.144 141.408 163.248 144.672 164.352 147.936C165.696 151.872 167.04 155.76 168.384 159.696C169.2 162.096 170.064 164.544 170.88 166.944C170.928 167.04 170.976 167.184 171.024 167.328C171.168 167.76 171.408 168.096 171.744 168.384C171.84 168.288 172.032 168.24 171.888 167.904Z" fill="#3D3D3D"/>
<path id="Vector_41" d="M174.288 168.624C174.288 168.624 182.544 140.016 185.088 137.808C187.632 135.6 192.624 133.776 193.536 134.496C194.448 135.216 188.784 159.456 187.68 162.576C186.576 165.696 173.568 171.024 174.288 168.624Z" fill="white"/>
<path id="Vector_42" d="M175.152 168.767C176.448 164.255 177.792 159.791 179.232 155.327C180.288 151.919 181.44 148.559 182.64 145.199C183.12 143.855 183.648 142.511 184.224 141.167C184.56 140.255 185.04 139.391 185.52 138.527C185.616 138.383 185.664 138.287 185.76 138.191C185.664 138.335 185.76 138.191 185.808 138.143C186 137.999 186.144 137.855 186.336 137.711C187.344 136.991 188.4 136.367 189.504 135.887C190.416 135.455 191.424 135.119 192.384 134.879L192.768 134.831C192.96 134.831 192.864 134.831 192.864 134.831C192.816 134.831 192.624 134.687 192.672 134.687C192.672 134.639 192.72 134.687 192.672 134.687C192.528 136.799 192.24 138.911 191.808 141.023C190.512 147.695 189.024 154.319 187.248 160.847C187.104 161.615 186.816 162.383 186.432 163.055C185.616 164.159 184.224 164.975 183.072 165.647C181.536 166.511 179.952 167.279 178.272 167.903C177.552 168.191 176.832 168.383 176.112 168.575C175.968 168.623 175.824 168.671 175.632 168.671C175.44 168.671 175.824 168.623 175.584 168.671L175.344 168.719L175.008 168.767C175.296 168.767 174.912 168.767 174.864 168.767C175.104 168.767 175.008 168.767 174.912 168.767C175.2 168.815 175.008 168.815 174.96 168.767C175.008 168.815 175.2 168.863 175.104 168.815C175.152 168.815 175.152 168.863 175.152 168.863C175.152 168.767 175.152 168.719 175.152 168.623C175.296 168.095 173.52 167.951 173.328 168.575C173.04 169.775 175.152 169.679 175.824 169.583C177.408 169.295 178.992 168.815 180.432 168.143C182.208 167.423 183.936 166.511 185.568 165.503C186.624 164.831 187.968 163.919 188.496 162.719C188.784 161.855 189.072 160.991 189.264 160.079C189.648 158.543 190.032 157.007 190.416 155.519C191.328 151.727 192.192 147.935 193.008 144.095C193.584 141.311 194.256 138.431 194.496 135.551C194.544 135.263 194.544 134.975 194.496 134.639C194.4 134.111 193.872 133.919 193.344 133.871C192.384 133.775 191.376 133.919 190.464 134.255C189.264 134.639 188.112 135.119 187.008 135.695C185.76 136.367 184.368 137.135 183.6 138.383C183.024 139.343 182.544 140.351 182.16 141.407C180.816 144.623 179.712 147.935 178.656 151.247C176.832 156.815 175.104 162.431 173.472 168.095C173.424 168.191 173.424 168.287 173.376 168.431C173.184 169.199 174.96 169.295 175.152 168.767Z" fill="#CECECE"/>
<path id="Vector_43" d="M179.616 163.776C179.616 163.776 177.792 161.328 178.656 160.368C179.52 159.408 180.048 161.136 180.048 161.136C180.048 161.136 181.104 158.784 181.776 160.032C182.448 161.28 179.616 163.776 179.616 163.776Z" fill="#CECECE"/>
<path id="Vector_44" d="M185.136 162.767C185.136 162.767 183.312 160.319 184.176 159.359C185.04 158.399 185.568 160.127 185.568 160.127C185.568 160.127 186.624 157.775 187.296 159.023C187.968 160.271 185.136 162.767 185.136 162.767Z" fill="#CECECE"/>
<path id="Vector_45" d="M183.744 149.327C183.744 149.327 181.92 146.879 182.784 145.919C183.648 144.959 184.176 146.687 184.176 146.687C184.176 146.687 185.232 144.335 185.904 145.583C186.576 146.831 183.744 149.327 183.744 149.327Z" fill="#CECECE"/>
<path id="Vector_46" d="M188.976 148.223C188.976 148.223 187.152 145.775 188.016 144.815C188.88 143.855 189.408 145.583 189.408 145.583C189.408 145.583 190.464 143.231 191.136 144.479C191.808 145.727 188.976 148.223 188.976 148.223Z" fill="#3D3D3D"/>
<path id="Vector_47" d="M189.696 147.695C189.552 147.503 189.456 147.311 189.312 147.119C189.264 147.023 189.216 146.975 189.168 146.879C189.12 146.831 189.12 146.783 189.072 146.735C189.072 146.735 189.072 146.687 189.024 146.687C188.976 146.543 189.12 146.879 189.072 146.735C188.976 146.543 188.88 146.303 188.784 146.063C188.736 145.967 188.736 145.823 188.688 145.727C188.688 145.679 188.688 145.631 188.64 145.583C188.688 145.679 188.688 145.775 188.64 145.679V145.583C188.64 145.487 188.64 145.391 188.64 145.295C188.64 145.199 188.64 145.391 188.64 145.391C188.64 145.343 188.64 145.343 188.64 145.295C188.64 145.295 188.64 145.247 188.64 145.199C188.64 145.151 188.736 145.103 188.592 145.295C188.592 145.247 188.64 145.199 188.64 145.199C188.688 145.103 188.496 145.343 188.592 145.295L188.64 145.199L188.688 145.151L188.592 145.199C188.592 145.199 188.64 145.199 188.64 145.151C188.544 145.295 188.4 145.247 188.544 145.199C188.304 145.295 188.304 145.247 188.4 145.247C188.496 145.247 188.16 145.247 188.256 145.247C188.352 145.247 188.016 145.151 188.16 145.247C187.92 145.151 188.016 145.199 188.112 145.247C188.208 145.295 187.968 145.103 188.064 145.247C188.112 145.343 188.208 145.391 188.256 145.487C188.16 145.295 188.352 145.631 188.256 145.487L188.304 145.631C188.352 145.727 188.4 145.823 188.4 145.919C188.544 146.207 188.832 146.399 189.168 146.399C189.504 146.399 189.84 146.207 190.032 145.919C190.176 145.631 190.32 145.295 190.512 145.055C190.56 145.007 190.656 144.911 190.464 145.103C190.464 145.055 190.512 145.055 190.512 145.007L190.656 144.863C190.704 144.815 190.848 144.719 190.608 144.911L190.656 144.863C190.752 144.815 190.8 144.863 190.56 144.911C190.656 144.911 190.752 144.911 190.464 144.911C190.56 144.911 190.608 144.911 190.32 144.911C190.416 144.911 190.464 144.959 190.176 144.863C190.272 144.911 190.176 144.911 190.08 144.815L190.128 144.863C189.936 144.767 189.984 144.719 190.032 144.767L190.128 144.863C190.224 144.959 190.08 144.671 190.08 144.815C190.08 144.863 190.08 144.863 190.128 144.911C190.176 144.959 190.128 144.959 190.128 145.007C190.176 145.103 190.08 144.863 190.128 144.863C190.176 144.863 190.128 145.007 190.128 145.055C190.128 145.103 190.128 145.103 190.128 145.151C190.128 145.295 190.176 144.911 190.128 145.103C190.08 145.295 190.08 145.343 190.032 145.439C189.984 145.535 189.936 145.535 190.08 145.391C190.08 145.439 190.032 145.439 190.032 145.487C189.984 145.535 189.984 145.631 189.936 145.679C189.888 145.823 189.792 145.919 189.696 146.063L189.552 146.255C189.552 146.303 189.504 146.303 189.504 146.351C189.552 146.303 189.696 146.111 189.504 146.351C189.312 146.591 189.12 146.783 188.928 147.023C188.688 147.311 188.448 147.551 188.16 147.791C187.872 148.079 187.872 148.559 188.16 148.847L188.208 148.895C188.592 149.135 189.12 149.087 189.456 148.751C189.696 148.511 189.936 148.271 190.176 148.031C190.704 147.503 191.136 146.927 191.472 146.303C191.904 145.631 191.952 144.767 191.568 144.047C191.328 143.615 190.848 143.375 190.32 143.423C189.888 143.471 189.504 143.711 189.216 144.047C188.88 144.431 188.592 144.911 188.352 145.391H189.984C189.888 145.055 189.744 144.719 189.504 144.431C189.264 144.095 188.928 143.903 188.544 143.855C188.064 143.807 187.536 143.999 187.2 144.335C186.144 145.343 186.816 146.879 187.44 147.935C187.632 148.223 187.776 148.511 188.016 148.799C188.304 149.135 188.832 149.231 189.216 148.943C189.6 148.751 189.744 148.271 189.552 147.887C189.744 147.743 189.744 147.743 189.696 147.695Z" fill="#3D3D3D"/>
<path id="Vector_48" d="M181.392 156.576C181.392 156.576 179.568 154.128 180.384 153.168C181.2 152.208 181.776 153.936 181.776 153.936C181.776 153.936 182.832 151.584 183.456 152.832C184.08 154.08 181.392 156.576 181.392 156.576Z" fill="#CECECE"/>
<path id="Vector_49" d="M186.576 155.471C186.576 155.471 184.752 153.023 185.616 152.063C186.48 151.103 187.008 152.831 187.008 152.831C187.008 152.831 188.064 150.479 188.688 151.727C189.312 152.975 186.576 155.471 186.576 155.471Z" fill="#CECECE"/>
<path id="Vector_50" d="M195.744 169.344C195.744 169.344 185.088 138.912 185.088 137.808C185.088 136.704 194.256 131.568 195.744 132.096C197.232 132.624 207.312 159.792 207.312 162C207.312 164.208 196.272 170.88 195.744 169.344Z" fill="#3D3D3D"/>
<path id="Vector_51" d="M196.608 169.199C196.032 167.615 195.504 166.031 194.928 164.447C193.728 160.943 192.48 157.391 191.28 153.887C190.032 150.287 188.832 146.687 187.632 143.087C187.2 141.839 186.816 140.591 186.432 139.343C186.288 138.863 185.952 138.191 185.952 137.663C186 137.567 186.096 137.471 186.192 137.375C186.432 137.135 186.672 136.943 186.912 136.751C187.632 136.223 188.352 135.743 189.12 135.311C190.8 134.255 192.624 133.391 194.448 132.671C194.592 132.623 194.688 132.575 194.832 132.575L195.072 132.527C194.928 132.575 195.12 132.527 195.168 132.527C195.072 132.527 195.216 132.527 195.168 132.527C195.024 132.527 195.168 132.527 194.976 132.527C195.024 132.527 194.928 132.527 194.928 132.479C195.072 132.719 195.264 132.911 195.408 133.103C195.984 134.111 196.464 135.167 196.944 136.223C198.48 139.727 199.872 143.327 201.264 146.927C202.656 150.527 203.952 154.175 205.2 157.871C205.584 159.023 205.968 160.175 206.256 161.327C206.352 161.615 206.4 161.903 206.448 162.191C206.352 162.623 206.16 163.055 205.824 163.343C204.528 164.687 203.088 165.839 201.504 166.751C200.064 167.663 198.336 168.719 196.752 169.199C196.752 169.199 196.512 169.247 196.416 169.295C196.416 169.295 196.512 169.295 196.464 169.295C196.512 169.295 196.608 169.295 196.656 169.295C196.464 168.767 194.736 169.199 194.88 169.583C195.12 170.159 196.032 170.063 196.512 170.015C197.28 169.871 198 169.631 198.72 169.343C200.64 168.479 202.416 167.423 204.144 166.223C205.488 165.263 207.168 164.207 207.984 162.719C208.416 161.999 208.128 161.231 207.888 160.511C206.976 157.199 205.776 153.983 204.576 150.767C203.088 146.735 201.552 142.703 199.92 138.719C199.296 137.231 198.672 135.743 198 134.303C197.664 133.583 197.328 132.623 196.704 132.095C196.272 131.711 195.504 131.855 195.024 131.903C194.16 132.095 193.296 132.383 192.432 132.767C190.416 133.631 188.496 134.687 186.672 135.887C186 136.319 185.328 136.799 184.752 137.327C184.464 137.519 184.272 137.855 184.272 138.191C184.416 138.959 184.608 139.679 184.896 140.399C185.952 143.711 187.056 146.975 188.16 150.239C189.504 154.175 190.848 158.111 192.24 162.047C193.056 164.447 193.92 166.895 194.736 169.295L194.88 169.679C195.024 170.015 196.752 169.631 196.608 169.199Z" fill="#3D3D3D"/>
<path id="Vector_52" d="M156.864 135.359C156.864 135.359 188.496 137.855 190.608 137.663C192.72 137.471 202.032 132.143 200.256 131.519C198.48 130.895 169.152 128.207 167.136 128.735C165.12 129.263 155.328 134.351 156.864 135.359Z" fill="#CECECE"/>
<path id="Vector_53" d="M156.912 136.223L162.288 136.655C166.224 136.943 170.16 137.231 174.096 137.567C177.984 137.855 181.872 138.143 185.76 138.383C187.008 138.479 188.256 138.527 189.504 138.575C190.32 138.623 191.136 138.575 191.952 138.287C193.824 137.567 195.648 136.655 197.376 135.599C198.192 135.119 199.008 134.543 199.776 133.967C200.352 133.583 200.832 133.055 201.216 132.479C201.504 131.855 201.264 131.087 200.64 130.751C200.592 130.703 200.544 130.703 200.496 130.703C200.16 130.607 199.872 130.559 199.536 130.511C198.384 130.319 197.184 130.175 195.984 130.031C192.048 129.599 188.112 129.215 184.176 128.879C180.144 128.543 176.112 128.207 172.08 127.967C170.832 127.919 169.536 127.823 168.24 127.823C167.328 127.823 166.416 128.015 165.6 128.399C163.728 129.215 161.952 130.127 160.224 131.135C159.36 131.615 158.544 132.143 157.776 132.719C157.152 133.103 156.576 133.631 156.144 134.255C155.76 134.879 155.904 135.695 156.528 136.079C156.864 136.319 157.344 136.223 157.584 135.887C157.584 135.839 157.632 135.839 157.632 135.791C157.824 135.359 157.68 134.831 157.248 134.591C157.392 134.735 157.488 134.879 157.536 135.119C157.536 135.311 157.392 135.359 157.536 135.263C157.44 135.407 157.68 135.167 157.536 135.263C157.584 135.215 157.632 135.167 157.632 135.119C157.728 134.975 157.872 134.879 157.968 134.783C158.592 134.255 159.216 133.775 159.936 133.391C161.664 132.287 163.44 131.327 165.312 130.463C165.888 130.175 166.512 129.887 167.136 129.695C167.28 129.647 167.376 129.647 167.52 129.599C167.472 129.599 167.664 129.551 167.52 129.599H167.76C168.816 129.551 169.872 129.599 170.928 129.695C178.608 130.079 186.288 130.799 193.92 131.615C195.36 131.759 196.752 131.903 198.192 132.095C198.672 132.143 199.104 132.239 199.584 132.287L199.824 132.335C199.68 132.287 200.064 132.383 199.824 132.335C199.92 132.383 200.016 132.383 200.112 132.383C199.92 132.431 199.68 131.951 199.68 131.759C199.68 131.471 199.68 131.759 199.728 131.519L199.68 131.615C199.584 131.663 199.776 131.471 199.68 131.615L199.584 131.759C199.488 131.903 199.344 131.999 199.248 132.095C198.624 132.623 198 133.103 197.328 133.535C195.696 134.591 193.968 135.551 192.144 136.367C191.568 136.607 190.992 136.799 190.416 136.943C190.704 136.895 190.416 136.943 190.32 136.943C190.224 136.943 190.032 136.943 189.84 136.943C188.784 136.895 187.68 136.847 186.624 136.799C183.072 136.607 179.472 136.319 175.92 136.079C169.68 135.599 163.392 135.119 157.152 134.639H156.816C155.712 134.399 155.904 136.127 156.912 136.223Z" fill="#CECECE"/>
<path id="Vector_54" d="M162.096 134.639C162.096 134.639 170.352 106.031 172.896 103.823C175.44 101.615 180.432 99.7911 181.344 100.511C182.256 101.231 176.592 125.471 175.488 128.591C174.384 131.711 161.376 137.039 162.096 134.639Z" fill="white"/>
<path id="Vector_55" d="M162.768 135.167C164.064 130.655 165.456 126.143 166.848 121.679C167.952 118.271 169.056 114.863 170.256 111.503C170.736 110.159 171.264 108.815 171.84 107.471C172.176 106.607 172.608 105.743 173.136 104.927C173.376 104.591 173.664 104.303 174.048 104.063C175.056 103.343 176.112 102.719 177.216 102.191C178.224 101.711 179.28 101.327 180.384 101.087C180.72 100.991 181.104 100.991 181.488 100.991C181.536 100.991 181.584 101.039 181.632 101.039H181.68C182.16 101.231 181.872 100.895 180.816 100.127C180.816 100.223 180.816 100.079 180.816 100.175C180.72 102.335 180.384 104.495 179.904 106.607C178.608 113.231 177.12 119.855 175.344 126.335C175.2 127.151 174.912 127.919 174.48 128.639C173.616 129.791 172.272 130.607 171.024 131.279C169.488 132.191 167.856 132.959 166.176 133.583C164.976 134.063 163.632 134.591 162.336 134.591C162.192 134.591 162 134.543 161.904 134.543C162.24 134.495 162.864 135.311 162.768 135.359C162.816 135.311 162.768 135.503 162.816 135.407C162.864 135.311 162.768 135.263 162.768 135.167C162.864 134.783 161.472 133.775 161.424 134.063C161.232 134.687 162.096 135.407 162.576 135.647C162.96 135.839 163.392 135.935 163.824 135.839C165.312 135.599 166.752 135.167 168.096 134.543C169.872 133.823 171.6 132.959 173.184 131.951C174.24 131.279 175.584 130.415 176.112 129.215C176.448 128.351 176.688 127.439 176.88 126.575C177.264 125.087 177.648 123.599 178.032 122.063C178.944 118.271 179.808 114.479 180.624 110.639C181.2 107.807 181.92 104.927 182.112 102.047C182.256 101.039 181.68 100.079 180.72 99.7429C180 99.4549 179.088 99.7429 178.368 99.9349C177.216 100.271 176.064 100.751 175.008 101.327C173.76 101.999 172.416 102.719 171.648 103.919C171.072 104.927 170.592 105.935 170.208 106.991C168.912 110.159 167.808 113.471 166.704 116.735C164.88 122.351 163.152 127.967 161.52 133.631C161.472 133.727 161.472 133.823 161.424 133.919C161.328 134.447 162.672 135.503 162.768 135.167Z" fill="#CECECE"/>
<path id="Vector_56" d="M172.128 123.984C172.128 123.984 168.24 118.848 170.016 116.736C171.792 114.624 172.944 118.416 172.944 118.416C172.944 118.416 175.152 113.376 176.544 116.112C177.936 118.848 172.128 123.984 172.128 123.984Z" fill="#CECECE"/>
<path id="Vector_57" d="M183.552 135.359C183.552 135.359 172.896 104.927 172.896 103.823C172.896 102.719 182.064 97.5832 183.552 98.1592C185.04 98.7352 195.12 125.855 195.12 128.063C195.12 130.271 184.08 136.895 183.552 135.359Z" fill="#3D3D3D"/>
<path id="Vector_58" d="M184.32 135.071L182.64 130.319C181.44 126.815 180.24 123.311 179.04 119.807C177.792 116.207 176.592 112.655 175.392 109.055C174.96 107.807 174.576 106.607 174.192 105.359C174.096 104.975 173.952 104.591 173.856 104.255C173.808 104.159 173.808 104.015 173.76 103.919C173.664 103.679 173.76 104.015 173.712 104.111C173.712 104.015 173.616 104.207 173.76 104.063L173.856 103.967C173.952 103.871 173.904 103.919 173.904 103.919C174.144 103.679 174.432 103.487 174.72 103.247C175.488 102.719 176.256 102.191 177.072 101.711C178.752 100.655 180.528 99.8395 182.352 99.1675L182.832 99.0235C182.928 98.9755 183.072 98.9755 183.168 98.9755H183.36C183.456 98.9755 183.264 98.9275 183.312 98.9755C183.36 99.0235 183.12 98.8795 183.072 98.8795C183.168 98.9755 182.928 98.6395 183.024 98.8315C183.072 98.8795 183.12 98.9275 183.12 98.9755C183.168 99.0235 183.216 99.0715 183.216 99.1675C183.072 98.9275 183.216 99.1195 183.264 99.2635C183.84 100.271 184.368 101.327 184.8 102.431C186.336 105.935 187.728 109.535 189.12 113.135C190.512 116.735 191.808 120.335 193.008 123.935C193.392 125.087 193.776 126.191 194.064 127.343C194.112 127.535 194.16 127.679 194.16 127.871C194.16 127.919 194.16 128.015 194.208 128.063C194.256 128.255 194.208 127.823 194.208 128.015C194.208 128.207 194.256 127.967 194.208 128.111C194.208 128.159 194.16 128.207 194.16 128.255C194.16 128.303 194.256 128.159 194.112 128.303C193.92 128.543 193.728 128.783 193.536 129.023C192.24 130.319 190.752 131.471 189.168 132.383C187.728 133.391 186.144 134.207 184.464 134.783L184.272 134.831C184.128 134.879 184.272 134.831 184.224 134.831C184.128 134.831 183.984 134.831 183.888 134.879C183.792 134.927 183.936 134.879 183.936 134.879C184.128 134.879 184.224 134.975 184.32 135.071C183.936 134.111 182.352 134.543 182.784 135.647C183.36 137.135 185.616 136.175 186.576 135.695C188.496 134.783 190.32 133.727 192 132.479C193.344 131.519 195.024 130.367 195.792 128.879C196.176 128.063 195.84 127.199 195.648 126.383C194.688 123.023 193.488 119.759 192.288 116.495C190.8 112.463 189.264 108.431 187.632 104.447C187.008 102.959 186.384 101.471 185.712 100.031C185.328 99.2635 184.944 98.2075 184.272 97.6315C183.216 96.6715 181.296 97.6795 180.192 98.1595C178.176 99.0235 176.256 100.079 174.432 101.327C173.568 101.903 171.936 102.767 172.176 104.015C172.32 104.783 172.56 105.551 172.848 106.271C173.904 109.583 175.008 112.847 176.16 116.159C177.504 120.143 178.896 124.079 180.24 128.063C181.056 130.463 181.92 132.911 182.736 135.311C182.784 135.407 182.832 135.551 182.88 135.695C182.976 136.127 183.36 136.463 183.84 136.367C184.272 136.271 184.608 135.887 184.512 135.407C184.416 135.263 184.368 135.167 184.32 135.071Z" fill="#3D3D3D"/>
</g>
<path id="Vector_59" d="M107.568 67.5841C106.32 63.4561 107.136 58.9441 109.056 55.2001C111.072 51.2641 114.288 48.1441 118.032 45.8401C121.968 43.4881 126.24 41.8081 130.704 40.8001C135.408 39.7441 140.4 39.3601 144.96 41.1361C148.752 42.5761 151.776 45.5041 154.128 48.7201C155.376 50.4481 156.48 52.2721 157.44 54.1441C158.448 56.1601 159.648 58.2721 159.984 60.4801C160.272 62.2561 159.888 64.1281 158.064 64.8481C157.776 64.9441 157.488 65.0401 157.152 65.0401C156.912 65.0881 156.624 65.0401 156.384 64.9441C156.624 65.0401 156.096 64.7521 156.336 64.8961C156.144 64.7521 156.192 64.8001 156.096 64.6081C155.952 64.2721 155.856 63.9361 155.904 63.6001C156.144 61.7761 157.872 60.5281 159.504 59.9521C160.992 59.4721 162.576 59.4241 164.064 59.8081C167.472 60.6241 170.256 62.9761 171.744 66.0961C173.712 70.3201 173.664 75.1681 173.232 79.7281C173.136 80.8801 172.992 82.0801 172.848 83.2321C172.704 84.3841 174.96 85.2001 175.104 83.9041C175.776 78.7201 176.304 73.3921 174.816 68.3041C173.568 63.9841 170.736 60.4321 166.56 58.6561C162.912 57.1201 158.352 56.9761 155.328 59.9041C153.648 61.5361 152.784 64.3201 154.704 66.0961C156.144 67.4401 158.4 67.3921 159.984 66.4321C164.784 63.6001 161.184 56.9281 159.312 53.3761C157.104 49.2001 154.368 45.1681 150.624 42.2401C148.704 40.7041 146.496 39.5521 144.144 38.8321C141.504 38.0641 138.768 37.7281 136.032 37.9201C130.8 38.2081 125.52 39.6961 120.768 41.8081C116.208 43.8241 111.984 46.7521 108.96 50.7841C106.08 54.6241 104.352 59.5201 104.736 64.3681C104.832 65.5681 105.072 66.7681 105.408 67.9201C105.792 69.1201 108.048 69.0241 107.568 67.5841Z" fill="#CECECE"/>
<path id="Vector_60" d="M171.936 88.9917V92.3037C171.888 92.5917 171.984 92.8797 172.176 93.0717C172.368 93.2637 172.656 93.3597 172.944 93.3597C173.28 93.3597 173.568 93.2637 173.808 93.0237C174.048 92.8317 174.192 92.5917 174.24 92.2557V88.9437C174.288 88.6557 174.192 88.3677 174 88.1757C173.808 87.9837 173.52 87.8877 173.232 87.8877C172.896 87.8877 172.608 87.9837 172.368 88.2237C172.128 88.4637 171.984 88.7037 171.936 88.9917Z" fill="#CECECE"/>
</g>
<g id="character">
<path id="Vector_61" d="M110.544 196.657C110.976 181.633 109.056 171.121 109.056 171.121C109.056 171.121 142.416 128.929 142.992 95.5205C142.992 95.5205 120.528 86.1125 117.216 88.0325C113.904 89.9525 98.5441 147.745 88.6561 149.761C80.2081 151.489 56.4001 95.6645 49.7761 79.7285C48.7681 77.2805 46.1761 75.9365 43.5841 76.4645C37.2961 77.8085 26.2561 80.3045 24.0481 81.6005C17.1841 85.5845 46.3681 144.577 54.9601 165.553C54.9601 165.553 51.6961 180.241 47.2801 194.833" fill="white"/>
<path id="Vector_62" d="M111.744 196.609C111.984 188.257 111.696 179.713 110.352 171.457C110.352 171.409 110.304 170.977 110.256 171.121C110.208 171.265 110.304 171.121 110.352 171.073C110.64 170.785 110.88 170.449 111.12 170.113C112.224 168.625 113.328 167.137 114.432 165.601C118.368 160.081 122.064 154.369 125.52 148.513C130.08 140.833 134.112 132.865 137.472 124.609C140.784 116.305 143.424 107.569 144.096 98.6406C144.192 97.5846 144.24 96.5286 144.24 95.4726C144.24 95.2806 144 95.1846 143.856 95.1366C140.208 93.6006 136.512 92.2086 132.816 90.8646C129.984 89.8566 127.104 88.8966 124.176 88.1766C122.064 87.6486 119.664 86.9766 117.504 87.4086C116.256 87.6486 115.728 88.2726 115.2 89.3286C114.528 90.6726 113.952 92.0166 113.424 93.4566C111.648 98.0646 110.016 102.769 108.384 107.473C106.32 113.281 104.256 119.137 102.048 124.897C100.08 130.225 97.8241 135.457 95.2321 140.545C94.2721 142.513 93.1201 144.337 91.8721 146.113C91.3921 146.785 90.9121 147.409 90.3361 147.985C90.0961 148.225 89.8561 148.465 89.5681 148.705C89.4721 148.801 89.3281 148.897 89.1841 148.993L88.9921 149.137C89.0881 149.089 89.0401 149.089 88.9441 149.185L88.6081 149.377C88.2721 149.473 88.5121 149.425 88.6081 149.377C88.6081 149.377 88.4161 149.473 88.4161 149.425C88.3681 149.425 88.3201 149.473 88.2721 149.473C88.6081 149.329 88.4641 149.425 88.3201 149.473C88.7521 149.425 88.1281 149.473 88.5601 149.473C88.1761 149.473 88.7521 149.473 88.4641 149.473L88.2721 149.425C88.4161 149.473 88.4641 149.473 88.2721 149.425L87.9361 149.281C87.7441 149.185 87.9841 149.329 87.8881 149.281L87.6961 149.185C86.3041 148.417 85.3921 147.361 84.3841 146.113C81.1201 142.273 78.5761 137.809 76.1281 133.441C72.8641 127.681 69.8881 121.729 67.0081 115.729C64.0801 109.633 61.2481 103.489 58.5601 97.2966C56.4001 92.4006 54.2881 87.4566 52.2241 82.5126L51.1201 79.8726C50.3521 78.0006 48.6721 76.6086 46.6561 76.1766C44.5441 75.6966 42.4801 76.3686 40.4161 76.8006C38.3521 77.2326 36.2881 77.7126 34.2721 78.1926C30.9121 79.0086 27.4081 79.7286 24.1441 81.0246C22.9441 81.5046 22.2721 82.1286 22.0321 83.4246C21.8401 84.8166 21.8881 86.2086 22.2241 87.5526C22.5601 89.6166 23.0401 91.6326 23.6641 93.6006C25.2961 99.1686 27.4081 104.593 29.5201 109.969C32.1121 116.449 34.8481 122.833 37.6801 129.217C40.5121 135.601 43.2961 141.793 46.1761 148.081C48.4801 153.217 50.8321 158.353 52.9921 163.585C53.2321 164.113 53.4241 164.593 53.6161 165.121C53.7601 165.361 53.8561 165.601 53.9041 165.841C53.9041 165.745 53.8561 165.841 53.8561 165.889C53.7121 166.657 53.5201 167.377 53.3281 168.145C52.4641 171.937 51.5041 175.729 50.5441 179.473C49.2001 184.657 47.7601 189.841 46.2241 194.929C45.9841 195.697 48.3361 195.745 48.5281 195.073C51.2161 186.145 53.5681 177.073 55.6801 167.953C55.9201 167.233 56.0641 166.465 56.2081 165.745C56.1601 165.457 56.0641 165.169 55.9201 164.881L55.2961 163.393C54.2881 161.041 53.2801 158.737 52.2721 156.433C49.6801 150.577 47.0401 144.769 44.4481 138.961C41.5681 132.529 38.6881 126.097 35.9521 119.569C33.4081 113.569 30.9121 107.569 28.7041 101.425C27.0721 96.9606 25.4401 92.4006 24.6241 87.6966C24.3361 86.3046 24.2401 84.8646 24.3841 83.4726C24.4321 83.0406 24.5761 82.6566 24.7681 82.3206C24.8161 82.2246 25.0081 82.0806 24.8161 82.2246C24.9121 82.1766 24.9601 82.0806 25.0561 82.0326C25.1521 81.9846 24.9121 82.1286 25.0081 82.0806L25.2481 81.9366L25.5361 81.7926C25.5841 81.7446 25.9201 81.6486 25.7761 81.6966C29.0401 80.4486 32.5441 79.7286 35.9041 78.9126C37.8721 78.4326 39.8881 78.0006 41.8561 77.5686C42.6721 77.3286 43.5361 77.1846 44.4001 77.0406C45.3121 76.9926 46.1761 77.2326 46.8961 77.8086C48.1441 78.6726 48.6721 80.0166 49.2481 81.3606C49.6321 82.3206 50.0641 83.2806 50.4481 84.2406C51.4081 86.5446 52.4161 88.8966 53.4241 91.2006C55.9681 97.0566 58.5601 102.865 61.2001 108.625C64.0321 114.817 67.0081 120.913 70.1281 126.961C72.7681 132.193 75.6961 137.281 78.9121 142.177C80.0641 143.953 81.3601 145.633 82.7521 147.217C83.7121 148.369 84.9121 149.329 86.2561 150.049C89.3761 151.489 92.0641 149.137 93.8401 146.785C96.6721 143.089 98.6881 138.673 100.56 134.401C103.008 128.833 105.168 123.169 107.232 117.457C109.2 111.985 111.12 106.465 113.04 100.993C114.336 97.3446 115.536 93.5526 117.264 90.0486C117.456 89.6166 117.696 89.1846 117.984 88.7526C118.032 88.7046 118.08 88.6086 118.128 88.5606C118.224 88.3686 118.032 88.6566 118.176 88.5126C118.224 88.4646 118.272 88.4646 118.32 88.4166C118.224 88.5126 118.128 88.5606 118.272 88.4646C118.032 88.5606 118.32 88.4166 118.272 88.4646C117.984 88.5126 118.368 88.4646 118.272 88.4646C118.464 88.4646 118.368 88.4646 118.224 88.4646H118.464H118.608C118.8 88.4646 118.32 88.4646 118.56 88.4646C118.8 88.4646 118.944 88.4646 119.136 88.5126L119.472 88.5606C119.52 88.5606 119.664 88.6086 119.424 88.5606L119.664 88.6086C120.864 88.8006 122.016 89.0406 123.168 89.3766C128.496 90.7686 133.872 92.8326 139.104 94.8966C140.16 95.3286 141.216 95.7126 142.224 96.1446L141.84 95.8086C141.648 104.737 139.344 113.521 136.224 121.825C133.008 130.273 129.072 138.433 124.512 146.257C120.96 152.449 117.12 158.449 113.04 164.305C111.84 166.033 110.592 167.761 109.296 169.489C108.96 169.921 108.624 170.401 108.288 170.833C108.144 171.025 107.952 171.169 107.904 171.409C107.904 171.553 107.952 171.697 107.952 171.841C108 172.225 108.048 172.609 108.144 172.993C108.336 174.385 108.528 175.825 108.672 177.217C109.2 182.209 109.44 187.201 109.44 192.193C109.44 193.777 109.44 195.409 109.392 196.993C109.344 197.377 111.744 197.329 111.744 196.609Z" fill="#3D3D3D"/>
<path id="Vector_63" d="M119.232 84.9608C119.232 84.9608 111.456 71.4728 115.44 70.0328C119.424 68.5928 123.168 75.6488 123.168 75.6488C123.168 75.6488 127.68 58.5608 130.848 58.5128C134.016 58.4648 132.96 72.8168 132.96 72.8168C132.96 72.8168 137.52 57.8408 140.592 60.2888C143.664 62.7368 139.824 73.8728 139.824 73.8728C139.824 73.8728 144.096 65.7608 146.16 68.0648C148.224 70.3688 139.968 96.2408 139.968 96.2408C139.968 96.2408 129.312 98.0168 118.752 91.0568C118.752 89.0408 118.896 86.9768 119.232 84.9608Z" fill="white"/>
<path id="Vector_64" d="M120.432 84.7687C118.848 82.0807 117.552 79.2967 116.496 76.3687C115.92 74.7847 115.2 72.8167 115.584 71.1367C115.632 70.8487 115.776 70.6087 115.92 70.4167C115.968 70.3207 116.064 70.2727 116.16 70.1767C116.208 70.1287 116.352 70.1287 116.208 70.1287C115.92 70.1767 116.064 70.1287 116.256 70.1767C116.544 70.2247 116.784 70.3207 117.072 70.4647C117.6 70.7047 118.08 71.0407 118.512 71.4247C119.952 72.6727 121.104 74.1607 121.968 75.7927C122.208 76.2727 124.224 75.9847 124.368 75.5047C125.568 70.9927 126.912 66.4327 128.928 62.2087C129.408 61.1527 129.984 60.1447 130.704 59.2807C130.848 59.1367 130.944 58.9927 131.136 58.8967L131.328 58.8007C131.328 58.8007 131.472 58.7047 131.376 58.7527C131.28 58.8007 131.52 58.7047 131.328 58.7527C130.944 58.8007 130.608 58.8487 130.224 58.8967C130.368 58.9927 130.512 59.0887 130.656 59.2327C131.28 60.0007 131.472 61.2007 131.616 62.1607C131.808 63.6007 131.952 65.0407 131.952 66.4807C132 68.6407 131.952 70.8487 131.76 73.0087C131.712 73.3447 133.968 73.2007 134.16 72.7207C135.216 69.2167 136.512 65.5687 138.384 62.4487C138.816 61.6807 139.344 60.9607 140.016 60.4327C140.064 60.3847 140.16 60.3367 140.208 60.2887C140.256 60.2407 140.208 60.2887 140.112 60.3367H140.16C139.92 60.3847 139.728 60.4327 139.488 60.4327C139.392 60.4327 139.296 60.3847 139.2 60.4327C139.104 60.4807 139.2 60.4327 139.248 60.4327C139.536 60.6247 139.776 60.8647 139.968 61.1047C140.544 62.0167 140.64 63.2167 140.64 64.2727C140.64 65.6167 140.448 67.0087 140.208 68.3047C139.824 70.2727 139.344 72.1927 138.72 74.0647C138.672 74.2567 140.832 74.3047 141.072 73.8247C141.552 72.9607 142.032 72.0967 142.56 71.2807C143.328 70.0807 144.288 68.6407 145.536 67.9207C145.728 67.8247 145.488 67.9687 145.584 67.8727C145.68 67.7767 145.728 67.9207 145.584 67.8727C145.44 67.8247 144.672 68.0647 144.672 67.9687C144.624 67.8247 144.672 68.0647 144.672 67.9687C144.816 68.0647 144.96 68.2087 145.104 68.3047C145.248 68.5447 145.296 68.8327 145.344 69.1207C145.392 70.1287 145.344 71.1367 145.152 72.1447C144.672 75.3127 144 78.3847 143.136 81.4567C142.272 84.7207 141.36 87.9367 140.448 91.1527C139.92 92.8807 139.392 94.6567 138.864 96.3847L140.016 95.9047L139.536 95.9527L139.296 96.0007C139.44 96.0007 139.488 96.0007 139.296 96.0007L138.528 96.0487C137.856 96.0967 137.376 96.0967 136.608 96.0487C135.84 96.0007 134.88 95.9527 134.016 95.8567C130.368 95.4247 126.864 94.4167 123.552 92.7847C122.928 92.4967 122.304 92.1127 121.68 91.7767C121.392 91.5847 121.104 91.4407 120.768 91.2487C120.624 91.1527 120.096 90.9127 120.048 90.7687C120 90.5767 120 90.3847 120.048 90.1927C120.048 89.8087 120.096 89.3767 120.096 88.9927C120.192 87.5527 120.336 86.1127 120.528 84.7207C120.576 84.4807 118.224 84.4327 118.176 85.0087C117.984 86.3527 117.792 87.6967 117.744 89.0887C117.744 89.5207 117.696 89.9047 117.696 90.3367C117.648 90.5767 117.648 90.8167 117.696 91.0567C117.792 91.3927 118.272 91.5367 118.56 91.7287C119.232 92.1607 119.952 92.5447 120.624 92.9287C121.872 93.6007 123.168 94.1767 124.512 94.6567C128.592 96.1927 132.96 96.9127 137.328 96.8167C138.24 96.8167 139.152 96.7207 140.016 96.5767C140.304 96.5287 141.024 96.4807 141.168 96.0967C142.704 91.2487 144.144 86.3527 145.44 81.4087C146.352 78.1927 147.024 74.9287 147.552 71.6167C147.744 70.6087 147.792 69.6007 147.648 68.6407C147.408 67.2487 145.968 67.2007 144.816 67.4407C142.944 67.8247 141.744 69.3127 140.688 70.8007C139.968 71.8087 139.296 72.8647 138.72 73.9687L141.072 73.7287C141.648 72.0007 142.128 70.2247 142.512 68.4007C142.8 66.9607 142.992 65.5207 143.04 64.0807C143.04 62.9287 142.992 61.6327 142.32 60.6247C141.648 59.6167 140.544 59.5207 139.344 59.7127C138.384 59.9047 137.52 60.4327 136.944 61.2487C135.408 63.1687 134.448 65.5687 133.584 67.8247C132.912 69.5047 132.336 71.1847 131.808 72.8647L134.208 72.5767C134.352 70.5607 134.4 68.5927 134.4 66.5767C134.4 65.0407 134.304 63.5047 134.112 61.9687C133.968 60.8647 133.728 59.6167 133.056 58.7047C132.288 57.6967 130.608 57.9367 129.6 58.3687C128.592 58.8007 128.016 59.7607 127.488 60.6247C125.952 63.3127 124.896 66.2887 123.936 69.2167C123.216 71.3287 122.592 73.4407 122.016 75.6007L124.416 75.3127C123.6 73.7287 122.496 72.3367 121.248 71.0887C120.384 70.1767 119.232 69.6007 117.984 69.3607C116.736 69.1687 115.008 69.2647 113.952 70.0807C112.656 71.0887 113.232 73.3447 113.568 74.6887C114.192 76.8967 115.056 79.0087 116.064 81.0727C116.688 82.3687 117.36 83.6647 118.08 84.9127C118.368 85.6807 120.528 84.9607 120.432 84.7687Z" fill="#3D3D3D"/>
<path id="Vector_65" d="M123.024 76.4162C123.984 76.8962 125.04 77.2322 126 77.7602C126.768 78.2402 127.488 78.8642 128.016 79.5842C129.168 81.1202 129.888 82.8962 130.608 84.6722C130.656 84.8642 131.04 84.9602 131.184 85.0082C131.472 85.0562 131.808 85.0562 132.096 85.0082C132.48 84.9122 133.056 84.6722 132.864 84.1442C132.144 82.2722 131.424 80.4002 130.128 78.8642C129.504 78.0482 128.736 77.3762 127.872 76.8962C126.816 76.3202 125.712 75.9362 124.656 75.4082C124.08 75.2162 123.456 75.2642 122.976 75.5522C122.496 75.8402 122.592 76.2242 123.024 76.4162Z" fill="#3D3D3D"/>
<path id="Vector_66" d="M45.3121 71.3283C45.3121 71.3283 53.7121 58.2243 49.8241 56.5923C45.9361 54.9603 41.8561 61.8723 41.8561 61.8723C41.8561 61.8723 38.1601 44.5923 34.9921 44.4003C31.8241 44.2083 32.1601 58.6083 32.1601 58.6083C32.1601 58.6083 28.3201 43.4403 25.1521 45.7443C21.9841 48.0483 25.2961 59.3283 25.2961 59.3283C25.2961 59.3283 21.4081 51.0243 19.2481 53.1843C17.0881 55.3443 24.0961 81.6003 24.0961 81.6003C24.0961 81.6003 34.6561 83.9043 45.5041 77.4243C45.6481 75.4083 45.5521 73.3443 45.3121 71.3283Z" fill="white"/>
<path id="Vector_67" d="M46.368 71.1365C48.288 68.2565 49.872 65.1365 51.12 61.9205C51.648 60.4805 52.512 58.2725 51.696 56.7845C51.216 55.9685 50.208 55.7285 49.344 55.6805C47.856 55.6325 46.416 56.3525 45.216 57.1685C43.44 58.4645 41.952 60.0965 40.848 62.0165L43.008 61.3445C42.624 59.5685 42.192 57.7925 41.712 56.0165C40.944 52.9445 39.984 49.9205 38.688 47.0405C38.256 45.9845 37.632 45.0245 36.864 44.2085C35.904 43.3925 34.512 43.7765 33.6 44.4965C32.688 45.2165 32.256 46.3685 31.968 47.4725C31.632 48.9125 31.392 50.3525 31.296 51.8405C31.104 54.1925 31.056 56.5925 31.104 58.9445L33.312 58.1285C32.928 56.6885 32.496 55.2485 32.064 53.8565C31.296 51.4565 30.48 49.0085 29.136 46.8485C28.704 46.1285 28.128 45.3125 27.36 44.9765C26.256 44.4965 24.864 45.1205 24.096 45.8885C22.272 47.7125 22.656 51.0245 22.944 53.3285C23.232 55.4885 23.664 57.6485 24.288 59.7605L26.496 58.8005C26.064 57.8405 25.536 56.9285 25.008 56.0165C24.24 54.7685 23.28 53.1845 21.984 52.4645C20.736 51.7925 18.72 52.3685 18.144 53.6645C17.76 54.4805 17.856 55.4885 17.904 56.3525C18.144 59.5685 18.624 62.7365 19.344 65.8565C20.064 69.3605 20.832 72.8165 21.696 76.3205C22.176 78.2405 22.656 80.1605 23.184 82.0805C23.232 82.1765 23.328 82.2245 23.424 82.2245C25.872 82.6565 28.368 82.7525 30.864 82.5125C34.992 82.2245 39.024 81.1685 42.768 79.4405C43.488 79.1045 44.208 78.7685 44.88 78.3845C45.408 78.0965 46.56 77.6645 46.752 77.0405C46.848 76.4645 46.848 75.8885 46.8 75.3125C46.8 73.8245 46.704 72.2885 46.512 70.8005C46.464 70.2725 44.208 70.9925 44.304 71.7605C44.544 73.7285 44.592 75.7445 44.496 77.7605L45.12 77.0885C39.456 80.4005 32.928 81.8405 26.4 81.1205C25.92 81.0725 25.488 81.0245 25.056 80.9285L25.296 81.0725C24.096 76.5125 22.992 71.9525 21.984 67.2965C21.312 64.1285 20.64 60.9125 20.256 57.6485C20.112 56.5445 20.016 55.3925 20.064 54.2405C20.064 53.9045 20.16 53.5685 20.256 53.2325C20.304 53.0405 20.208 53.3285 20.256 53.1845C20.256 53.1365 20.352 53.0885 20.352 53.0405C20.352 53.1365 20.208 53.1845 20.112 53.2325C19.92 53.3285 19.728 53.3765 19.536 53.4245C19.632 53.3765 19.488 53.4725 19.44 53.4245C19.536 53.4725 19.68 53.4725 19.776 53.5205C19.92 53.5685 20.064 53.6645 20.208 53.7605C20.496 54.0005 20.784 54.2405 21.072 54.5285C21.648 55.2005 22.176 55.9205 22.608 56.6885C23.232 57.6965 23.808 58.7045 24.288 59.7605C24.576 60.3845 26.688 59.4725 26.496 58.8005C26.064 57.2165 25.68 55.6325 25.44 54.0005C25.2 52.6565 25.056 51.3125 25.056 49.9685C24.96 48.8165 25.152 47.6645 25.536 46.5605C25.632 46.3685 25.728 46.1765 25.824 46.0325L25.968 45.8885C26.16 45.8885 25.824 45.9845 25.92 45.8885C25.776 45.9365 25.632 46.0325 25.488 46.0805C25.44 46.0805 25.344 46.1285 25.296 46.1285C25.2 46.0805 25.296 46.1765 25.296 46.1285H25.392C25.536 46.1765 25.344 46.0805 25.488 46.1765C26.16 46.6085 26.688 47.1845 27.024 47.8565C28.176 49.9205 29.136 52.1285 29.808 54.3845C30.288 55.9205 30.768 57.4565 31.2 58.9925C31.344 59.6165 33.408 58.7525 33.408 58.1765C33.36 56.3525 33.408 54.5285 33.504 52.7525C33.552 51.2645 33.696 49.8245 33.936 48.3845C34.032 47.2325 34.368 46.0805 34.896 45.0245L35.04 44.7845C34.944 44.8805 35.136 44.5925 35.04 44.7845C35.088 44.7365 35.088 44.6885 35.136 44.6885C35.232 44.5925 35.088 44.7365 35.088 44.7365C34.896 44.8325 34.704 44.9285 34.512 44.9765C34.032 45.0725 34.416 44.9765 34.416 44.9765C34.224 45.0725 34.32 44.9285 34.368 44.9765C34.416 45.0245 34.608 45.0725 34.464 44.9765C34.608 45.0245 34.752 45.1205 34.896 45.2645C35.664 45.8885 36.144 46.9445 36.528 47.8085C37.728 50.5445 38.688 53.4245 39.408 56.3525C39.936 58.3205 40.416 60.2885 40.848 62.2565C40.944 62.5925 41.712 62.4005 41.856 62.3525C42.336 62.2565 42.72 61.9685 43.008 61.5845C43.824 60.2405 44.784 59.0885 45.936 58.0325C46.32 57.6965 46.704 57.4085 47.136 57.1685C47.184 57.1205 47.28 57.0725 47.328 57.0725L47.568 56.9765C47.712 56.9285 47.904 56.9285 48.048 56.9285C48.72 56.8805 49.392 57.2165 49.68 57.8405C50.304 59.2325 49.488 61.2005 49.008 62.5445C48.24 64.5125 47.328 66.3845 46.32 68.2085C45.696 69.3125 45.072 70.3685 44.4 71.4245C44.112 71.8565 44.784 71.9045 45.072 71.8565C45.504 71.8565 46.032 71.5685 46.368 71.1365Z" fill="#3D3D3D"/>
<path id="Vector_68" d="M41.0401 61.2966C39.9841 61.7766 38.8321 62.0646 37.8241 62.6406C36.7681 63.2166 35.8561 63.9366 35.0881 64.8486C33.6481 66.4326 32.7841 68.4006 31.9201 70.3206C31.7761 70.6086 31.8721 70.9446 32.1121 71.1366C32.2081 71.1846 32.3521 71.2326 32.4961 71.2326C33.1201 71.1846 33.6481 70.8006 33.8881 70.2726C34.6561 68.5926 35.3761 66.9126 36.5761 65.5206C36.6241 65.4726 36.6241 65.4726 36.6721 65.4246L36.9121 65.1366C37.0561 64.9926 37.2481 64.8486 37.3921 64.6566C37.4881 64.5606 37.2961 64.7046 37.4881 64.6086L37.7761 64.4166C37.9201 64.3206 38.0641 64.2246 38.2561 64.1286C39.2161 63.6486 40.3201 63.3606 41.2801 62.8806C41.7121 62.6886 42.3361 62.1606 42.2401 61.6326C42.1441 61.1046 41.4241 61.0566 41.0401 61.2966Z" fill="#3D3D3D"/>
<path id="Vector_69" d="M65.28 134.065C59.328 112.609 72.288 104.593 81.984 102.385C91.68 100.177 98.688 102.913 101.136 106.705C102.96 109.537 98.4 128.545 98.4 128.545L83.856 146.209C83.808 146.209 69.84 150.433 65.28 134.065Z" fill="#3D3D3D"/>
<path id="Vector_70" d="M66.2881 134.065C64.8961 129.025 64.1761 123.601 65.4721 118.465C66.3841 114.817 68.4001 111.505 71.1841 108.961C73.6801 106.801 76.6081 105.169 79.7761 104.161C84.4801 102.625 89.8081 102.049 94.6081 103.489C95.6161 103.777 96.6241 104.209 97.5361 104.737C97.9201 104.929 98.2561 105.169 98.5921 105.457C98.7361 105.553 98.8801 105.697 99.0721 105.841C99.2641 105.985 99.2641 105.985 99.3121 106.081C99.3601 106.177 99.6961 106.465 99.5041 106.273C99.7921 106.561 99.9841 106.897 100.224 107.233C100.368 107.425 100.08 106.897 100.224 107.281C100.32 107.521 100.176 106.993 100.224 107.329C100.272 107.569 100.32 107.809 100.368 108.097C100.32 107.809 100.368 108.145 100.368 108.241C100.368 108.433 100.368 108.625 100.368 108.817C100.416 112.369 99.6961 115.873 99.0721 119.377C98.5441 122.161 97.9681 124.897 97.3441 127.681C97.2961 127.777 97.2961 127.873 97.2961 127.969C97.2961 128.161 97.3921 127.825 97.3921 127.825C97.3441 127.825 97.0081 128.257 97.0081 128.305L94.8961 130.849L83.1361 145.105L82.8481 145.441L83.2321 145.153C82.8001 145.297 82.3201 145.393 81.8881 145.441C81.7441 145.489 82.1281 145.393 81.9361 145.441H81.7921L81.4081 145.489C81.1201 145.537 80.8801 145.537 80.5921 145.537C79.9681 145.585 79.2961 145.585 78.6721 145.537C78.2881 145.537 77.9521 145.489 77.5681 145.441L77.2321 145.393C77.0401 145.345 76.8481 145.345 76.6561 145.297C76.2721 145.201 75.8881 145.105 75.5041 145.009C75.3121 144.961 75.1201 144.913 74.9761 144.817L74.6881 144.721C74.6401 144.721 74.3521 144.577 74.5441 144.673C74.1121 144.481 73.7281 144.289 73.3441 144.097C73.1521 144.001 72.9601 143.905 72.8161 143.761C72.7201 143.713 72.6241 143.665 72.5281 143.569C72.4321 143.473 72.1441 143.329 72.3361 143.425C71.9521 143.137 71.5681 142.849 71.1841 142.561C70.9921 142.417 70.8481 142.225 70.6561 142.081C70.4161 141.841 70.3201 141.745 70.1761 141.601C68.3041 139.393 67.0081 136.801 66.2881 134.065C66.1441 133.393 65.6161 132.961 65.0401 132.913C64.5601 132.961 64.2241 133.345 64.2241 133.825C64.2241 133.921 64.2241 133.969 64.2721 134.017C65.1361 137.185 66.5281 140.257 68.7361 142.705C70.3681 144.577 72.4801 145.969 74.8321 146.833C77.7601 147.841 80.8801 148.033 83.8561 147.313C84.1921 147.265 84.4801 147.121 84.7201 146.881C84.9121 146.689 85.0561 146.497 85.2001 146.305L88.3681 142.465L97.1521 131.857C97.8241 131.041 98.6401 130.225 99.2641 129.313C99.4081 129.073 99.4561 128.833 99.5041 128.593C99.6481 127.969 99.7921 127.297 99.9361 126.673C101.088 121.921 101.904 117.121 102.432 112.321C102.624 110.545 102.864 108.433 102.192 106.753C101.712 105.745 101.04 104.881 100.128 104.209C99.0721 103.297 97.8721 102.529 96.5761 102.001C90.6241 99.5047 83.5201 100.225 77.5681 102.481C73.2001 104.161 69.1681 106.897 66.4801 110.833C62.9761 115.921 62.2561 122.305 63.0721 128.305C63.3601 130.273 63.7441 132.193 64.2721 134.113C64.4161 134.737 64.8961 135.169 65.5201 135.217C66.0001 135.217 66.3841 134.833 66.3361 134.353C66.3361 134.209 66.3361 134.161 66.2881 134.065Z" fill="#3D3D3D"/>
<path id="Vector_71" d="M109.152 136.321C114.048 128.449 101.184 110.401 101.184 110.401C97.5361 110.497 91.0081 108.433 91.0081 108.433C95.0881 118.705 83.1361 124.369 83.1361 124.369C79.3441 119.137 73.0561 122.641 74.6401 128.209C76.2241 133.777 81.7921 133.249 81.7921 133.249C81.7921 133.249 81.9361 147.793 82.9441 149.905C82.9441 149.905 93.4561 154.369 97.5361 145.009C97.4881 145.057 105.84 141.697 109.152 136.321Z" fill="white"/>
<path id="Vector_72" d="M110.304 136.081C111.696 133.825 111.552 130.993 111.072 128.497C110.4 125.473 109.344 122.545 107.952 119.761C106.752 117.361 105.456 115.009 104.016 112.705C103.584 112.033 103.152 111.361 102.72 110.689C102.624 110.497 102.528 110.353 102.384 110.209C102.144 110.017 101.808 110.065 101.472 110.065C98.304 109.969 95.088 109.057 92.112 108.097C91.872 108.001 89.76 108.433 89.808 108.625C91.152 111.841 90.816 115.489 88.992 118.417C87.552 120.577 85.68 122.353 83.472 123.697C83.04 123.985 82.608 124.225 82.128 124.465L84.336 124.081C83.088 122.401 81.312 121.297 79.152 121.489C77.136 121.681 74.976 122.257 73.92 124.081C72.816 125.905 73.152 128.209 74.16 130.033C74.976 131.521 76.368 132.625 78 133.153C78.96 133.441 79.968 133.585 80.976 133.489L80.592 133.441C80.544 138.097 80.784 142.753 81.216 147.409C81.264 147.937 81.36 148.465 81.456 148.993C81.456 149.329 81.552 149.713 81.744 150.001C81.936 150.289 82.512 150.385 82.8 150.481C85.056 151.201 87.456 151.393 89.76 151.057C91.632 150.865 93.408 150.241 95.04 149.233C96.672 148.129 97.92 146.545 98.64 144.721L98.496 144.817C100.128 144.145 101.712 143.329 103.2 142.369C105.936 140.881 108.576 138.817 110.304 136.081C110.304 136.081 109.2 136.129 109.104 136.177C108.816 136.225 108.144 136.273 107.952 136.561C105.648 140.257 101.568 142.753 97.728 144.625C97.344 144.817 96.912 144.961 96.528 145.153C96.336 145.249 96.288 145.393 96.144 145.633C95.856 146.257 95.52 146.833 95.136 147.361C94.56 148.225 93.792 148.945 92.928 149.569C92.544 149.809 92.16 150.049 91.776 150.241C91.584 150.337 91.392 150.433 91.2 150.481L90.816 150.577C90.432 150.673 91.056 150.529 90.672 150.625C90.912 150.577 90.576 150.625 90.528 150.625L90.288 150.673C89.904 150.721 89.472 150.721 89.088 150.721C88.368 150.721 87.6 150.625 86.88 150.481C85.92 150.385 85.008 150.145 84.144 149.761C83.904 149.665 83.952 149.521 83.856 149.233C83.712 148.657 83.616 148.033 83.568 147.457C83.376 145.681 83.232 143.905 83.136 142.081C82.992 139.105 82.896 136.081 82.848 133.057C82.848 133.009 82.464 133.009 82.464 133.009H82.32C82.608 133.009 82.128 133.009 82.032 133.009C81.6 133.009 81.168 132.961 80.784 132.865C79.44 132.577 78.192 131.905 77.232 130.897C75.12 128.545 74.448 123.697 77.904 122.113L78.048 122.065C78.24 122.017 78.192 122.017 78 122.065L77.568 122.161C77.616 122.209 77.952 122.161 78.048 122.161C78.48 122.209 78.912 122.353 79.344 122.497C80.352 122.977 81.264 123.697 81.888 124.657C81.984 124.801 82.656 124.657 82.8 124.609C83.232 124.561 83.712 124.465 84.096 124.273C88.032 122.401 91.872 118.753 92.736 114.385C93.12 112.321 92.88 110.161 92.112 108.241L89.808 108.769C91.056 109.153 92.304 109.489 93.6 109.825C95.712 110.401 97.92 110.737 100.128 110.785L99.936 110.737C101.424 112.849 102.768 115.009 103.968 117.265C106.176 121.297 108.24 125.665 108.864 130.225C109.152 132.385 109.056 134.689 107.904 136.609C107.904 136.657 109.008 136.561 109.104 136.513C109.44 136.417 110.112 136.369 110.304 136.081Z" fill="#3D3D3D"/>
<path id="Vector_73" d="M88.0321 130.465C87.9841 131.281 88.0321 132.097 88.2241 132.913C88.3681 133.729 88.6561 134.497 89.0881 135.217C89.4241 135.889 90.0481 136.417 90.7681 136.705C91.5841 136.849 92.4001 136.705 93.0721 136.273C93.2161 136.177 93.2641 135.937 93.2641 135.793C93.2641 135.505 93.1681 135.217 93.0241 134.977C92.9281 134.689 92.7361 134.497 92.5441 134.257C92.4481 134.161 92.2561 134.017 92.0641 134.065C91.6321 134.305 91.2001 134.449 90.7201 134.545H90.8641C90.6241 134.593 90.3841 134.593 90.1441 134.497L90.0001 134.449C89.9041 134.449 90.1921 134.545 90.0481 134.449L90.0001 134.401L89.8561 134.353C89.7601 134.305 89.6641 134.161 89.9041 134.401C89.8561 134.353 89.8081 134.353 89.8081 134.305C89.8081 134.257 89.6161 134.065 89.8561 134.353C89.8081 134.305 89.8081 134.305 89.7601 134.257L89.7121 134.209C89.5681 134.065 89.9041 134.449 89.8081 134.353L89.7601 134.257L89.7121 134.209C89.6161 134.065 89.9041 134.545 89.8081 134.401C89.7121 134.257 89.5681 133.873 89.7601 134.353C89.7121 134.257 89.7121 134.161 89.6641 134.065L89.6161 133.921C89.5681 133.777 89.7121 134.257 89.6641 134.113L89.6161 134.017C89.5681 133.825 89.5201 133.585 89.5201 133.393V133.297C89.5201 133.153 89.5681 133.585 89.5681 133.441C89.5681 133.393 89.5681 133.345 89.5681 133.297L89.5201 132.961C89.5201 132.817 89.5201 132.625 89.5201 132.481C89.5201 132.337 89.5201 132.193 89.5201 132.097C89.5201 132.001 89.5201 131.713 89.5201 132.145C89.5201 131.569 89.3281 131.041 88.9921 130.609C88.8481 130.465 88.7041 130.273 88.4641 130.225C88.3201 130.225 88.1761 130.321 88.1761 130.513L88.0321 130.465Z" fill="#3D3D3D"/>
<path id="Vector_74" d="M99.84 122.112C102.144 123.216 104.64 123.984 107.184 124.416C115.776 125.952 116.736 128.928 114.048 130.56C111.36 132.192 99.696 130.8 99.696 130.8" fill="white"/>
<path id="Vector_75" d="M99.648 122.977C101.904 124.177 104.544 124.849 107.04 125.329C108.864 125.617 110.64 126.097 112.32 126.769L112.752 126.961L112.992 127.057C113.232 127.201 113.472 127.345 113.712 127.537C113.952 127.729 113.664 127.441 113.808 127.585L114.048 127.825L114.144 127.921C114.24 128.017 114 127.729 114.096 127.873L114.288 128.161C114.24 127.969 114.384 128.305 114.288 128.161C114.288 128.209 114.336 128.305 114.336 128.353C114.288 128.161 114.336 128.257 114.336 128.353C114.336 128.593 114.384 128.305 114.336 128.401C114.288 128.497 114.192 128.881 114.288 128.641C114.192 128.785 114.144 128.929 114 129.073C113.952 129.121 113.76 129.313 113.952 129.169C113.904 129.217 113.808 129.265 113.76 129.361C113.616 129.505 113.424 129.601 113.232 129.745C113.04 129.841 113.328 129.697 113.184 129.793L112.944 129.889C112.752 129.985 112.512 130.033 112.272 130.081C111.792 130.177 111.312 130.273 110.832 130.273C110.208 130.321 109.632 130.369 109.008 130.369C107.664 130.417 106.32 130.369 104.976 130.273C103.248 130.177 101.472 130.033 99.648 129.841C99.12 129.793 98.592 130.033 98.592 130.609C98.688 131.233 99.168 131.713 99.792 131.809C101.52 132.001 103.2 132.145 104.928 132.241C107.664 132.433 110.496 132.577 113.184 132.001C114.864 131.665 116.832 130.417 116.4 128.449C116.16 127.345 115.296 126.529 114.432 125.905C113.04 125.041 111.456 124.369 109.824 123.985C106.56 123.121 103.104 122.785 100.032 121.153C99.6 120.913 99.024 121.057 98.784 121.489C98.784 121.537 98.736 121.585 98.736 121.585C98.592 122.209 99.168 122.689 99.6 122.929L99.648 122.977Z" fill="#3D3D3D"/>
<path id="Vector_76" d="M93.168 121.393C93.744 121.441 94.128 121.969 94.08 122.545C94.08 122.593 94.08 122.641 94.032 122.689C93.744 123.793 92.4 123.457 92.352 122.449C92.256 121.969 92.544 121.537 93.024 121.441C93.072 121.393 93.12 121.393 93.168 121.393Z" fill="#3D3D3D"/>
<path id="Vector_77" d="M101.328 118.656C101.904 118.704 102.288 119.232 102.24 119.808C102.24 119.856 102.24 119.904 102.192 119.952C101.904 121.056 100.56 120.72 100.512 119.712C100.416 119.232 100.704 118.8 101.184 118.704C101.232 118.656 101.28 118.656 101.328 118.656Z" fill="#3D3D3D"/>
<path id="Vector_78" d="M64.704 127.009C64.704 127.009 65.856 141.409 59.04 150.337C59.04 150.337 68.448 160.705 83.088 148.945L64.704 127.009Z" fill="#3D3D3D"/>
<path id="Vector_79" d="M63.6001 126.528C63.7441 128.352 63.7441 130.176 63.6001 131.952C63.4081 135.84 62.6881 139.68 61.4401 143.328C60.6241 145.68 59.4721 147.84 57.9841 149.856V149.904C59.4241 151.344 61.1041 152.496 62.9761 153.264C66.7201 155.136 71.0401 155.52 75.0721 154.416C78.4321 153.456 81.4561 151.584 84.1921 149.424V149.376L77.9521 141.936L68.1121 130.176L65.8081 127.44C65.4241 127.104 64.9921 126.864 64.5121 126.72C64.4161 126.672 63.5521 126.432 63.6481 126.576L70.8001 135.072L80.9281 147.12C81.3121 147.504 81.6481 147.888 81.9361 148.32L82.0321 148.416C82.0321 148.416 81.4561 148.848 81.2641 148.944C80.2081 149.76 79.0561 150.528 77.8561 151.2C74.4481 153.12 70.5121 154.368 66.5281 153.84C65.8561 153.744 65.1361 153.6 64.4641 153.408L64.0801 153.312L63.8881 153.264C63.6001 153.168 63.9841 153.312 63.8401 153.264L63.4081 153.072L63.1681 152.976C62.8801 152.832 63.3601 153.072 63.1681 152.976L62.9761 152.88L62.8321 152.784C62.5921 152.64 62.9761 152.88 62.8321 152.784L62.4961 152.592C62.4481 152.544 62.3521 152.496 62.3041 152.448C61.8721 152.16 61.6321 152.016 61.2961 151.776C60.9601 151.536 60.7681 151.344 60.5281 151.152L60.2881 150.912C60.2401 150.816 60.2401 150.864 60.2881 150.912L60.2401 150.864L60.1921 150.816C60.3361 150.672 60.4801 150.48 60.6241 150.336C60.7681 150.096 60.9601 149.856 61.1041 149.616C61.6801 148.704 62.2081 147.792 62.6401 146.832C64.2721 143.136 65.3281 139.248 65.6641 135.216C65.9521 132.816 66.0001 130.368 65.8561 127.92C65.8561 127.776 65.8561 127.68 65.8561 127.536C65.8081 127.248 65.0881 126.96 64.8481 126.864C64.7041 126.816 63.6001 126.432 63.6001 126.528Z" fill="#3D3D3D"/>
<path id="Vector_80" d="M70.4641 121.488C74.2081 119.568 77.7601 117.312 81.0241 114.624C83.8561 112.32 86.7361 109.536 87.3601 105.84C87.3601 105.264 87.0721 104.784 86.5921 104.496C86.3521 104.304 85.4881 104.016 85.3921 104.544C84.7681 108.192 81.9361 110.784 79.2001 113.04C76.0321 115.632 72.6241 117.84 68.9761 119.664C68.1121 120.144 69.6961 121.872 70.4641 121.488Z" fill="white"/>
<path id="Vector_81" d="M70.2721 133.249C70.8001 137.377 70.0801 141.553 68.1601 145.249C67.7281 146.065 69.6001 147.553 70.1281 146.545C72.0961 142.705 72.8161 138.385 72.2881 134.161C72.1921 133.585 71.8081 133.105 71.2801 132.865C70.8961 132.673 70.1761 132.673 70.2721 133.249Z" fill="white"/>
<path id="Vector_82" d="M25.728 85.7764C25.68 88.0324 26.592 90.1924 28.32 91.7284C28.512 91.8244 28.704 91.8244 28.896 91.8244C29.184 91.8244 29.52 91.8244 29.808 91.7764C29.904 91.7764 30.864 91.6324 30.624 91.4404C28.992 89.9524 28.032 87.8404 28.128 85.6324C28.128 85.3924 27.072 85.4404 26.928 85.4884C26.64 85.4884 26.352 85.5364 26.064 85.6324C25.968 85.5844 25.728 85.6804 25.728 85.7764Z" fill="#3D3D3D"/>
<path id="Vector_83" d="M31.776 85.0568C32.352 86.3528 33.072 87.5528 33.84 88.7048C34.176 89.1848 34.704 89.4248 35.28 89.4728C35.52 89.5208 35.712 89.4728 35.904 89.3288C36.048 89.1848 36.048 88.9928 35.952 88.8488C35.136 87.6968 34.464 86.4488 33.888 85.2008C33.744 84.9608 33.552 84.8168 33.312 84.6728C33.024 84.5288 32.736 84.4328 32.448 84.3848C32.064 84.4328 31.536 84.5288 31.776 85.0568Z" fill="#3D3D3D"/>
<path id="Vector_84" d="M41.7601 82.2722C42.0961 82.6562 42.3841 83.0402 42.6721 83.4242C42.7681 83.5202 42.8161 83.6162 42.8641 83.7122L42.9121 83.7602L42.9601 83.8562L43.3921 84.4802C43.9201 85.2962 44.4001 86.1602 44.8321 87.0242C44.9761 87.2642 45.1681 87.5042 45.4561 87.6482C45.6961 87.8402 45.9841 87.9362 46.2721 87.9842C46.4161 87.9842 46.6561 88.0322 46.8001 87.8402C46.9441 87.6482 46.8001 87.4562 46.7521 87.3122C45.8401 85.4882 44.6881 83.7602 43.3441 82.1762C43.0081 81.7442 42.4801 81.4562 41.9041 81.4082C41.3281 81.4562 41.5681 81.9842 41.7601 82.2722Z" fill="#3D3D3D"/>
<path id="Vector_85" d="M37.392 84.3844L39.6 87.6964C39.792 87.8884 40.032 88.0324 40.32 88.0804C40.608 88.1284 40.944 88.1284 41.232 88.0324C41.472 87.9844 41.664 87.8404 41.808 87.6004C41.904 87.4084 41.856 87.1684 41.712 87.0244L39.504 83.7124C39.312 83.5204 39.072 83.3764 38.784 83.3284C38.496 83.2804 38.16 83.2804 37.872 83.3764C37.632 83.4244 37.44 83.5684 37.296 83.8084C37.2 84.0484 37.248 84.2404 37.392 84.3844Z" fill="#3D3D3D"/>
<path id="Vector_86" d="M118.224 100.801C119.328 98.8328 120.24 96.7208 120.96 94.5608C121.008 94.3688 120.816 94.0808 120.768 93.9848C120.576 93.7448 120.384 93.5048 120.096 93.3608C119.808 93.1688 119.184 92.8328 119.04 93.3128C118.368 95.3768 117.504 97.3928 116.448 99.3128C116.208 99.7448 116.736 100.273 117.024 100.513C117.168 100.609 118.032 101.233 118.224 100.801Z" fill="#3D3D3D"/>
<path id="Vector_87" d="M125.472 102.433C126.576 101.041 127.248 99.3125 127.392 97.5365C127.392 97.3445 126.336 97.2485 126.24 97.2005C126.144 97.1525 125.04 97.0085 125.04 97.2005C124.896 98.9765 124.272 100.705 123.168 102.097C123.12 102.145 123.552 102.289 123.504 102.241C124.032 102.385 124.608 102.481 125.184 102.481C125.184 102.529 125.376 102.529 125.472 102.433Z" fill="#3D3D3D"/>
<path id="Vector_88" d="M131.952 105.456C133.2 103.728 133.968 101.76 134.16 99.6481C134.208 99.1681 133.584 98.6401 133.248 98.4481C133.056 98.3521 132.24 97.9201 132.192 98.4001C132 100.416 131.28 102.336 130.08 103.968C129.792 104.352 130.464 104.928 130.704 105.12C130.944 105.312 131.184 105.456 131.472 105.552C131.616 105.552 131.856 105.6 131.952 105.456Z" fill="#3D3D3D"/>
<path id="Vector_89" d="M137.232 99.3119C137.28 99.7919 137.28 100.224 137.28 100.704C137.28 100.896 137.28 101.088 137.28 101.28C137.28 101.328 137.232 101.712 137.28 101.472C137.28 101.568 137.28 101.664 137.232 101.76C137.136 102.624 136.896 103.488 136.608 104.352C136.56 104.64 136.608 104.928 136.752 105.216C136.896 105.504 137.184 105.696 137.472 105.84C138 106.032 138.576 105.792 138.816 105.264C138.816 105.216 138.816 105.216 138.864 105.168C139.536 103.344 139.776 101.424 139.584 99.5519C139.536 98.9279 139.056 98.3999 138.432 98.3039C137.904 98.2559 137.424 98.6399 137.328 99.1679C137.28 99.2159 137.28 99.2639 137.232 99.3119Z" fill="#3D3D3D"/>
</g>
</g>
</svg>
