<svg width="320" height="320" viewBox="0 0 320 320" fill="none" xmlns="http://www.w3.org/2000/svg">
<path d="M115.648 47.3601L270.144 46.9121L245.952 150.976L86.0796 148.864L115.648 47.3601Z" fill="#CECECE"/>
<path d="M246.208 151.296L85.6318 149.12L115.328 46.9763H115.584L270.464 46.5283L246.208 151.296ZM86.5278 148.544L245.76 150.656L269.696 47.2323L115.84 47.6803L86.5278 148.544Z" fill="#CECECE"/>
<path d="M123.648 53.7599C123.648 53.7599 121.024 53.8879 122.368 56.6399C123.712 59.3919 125.76 58.4319 126.272 56.6399C126.784 54.8479 124.672 53.5039 123.648 53.7599Z" fill="white"/>
<path d="M131.072 53.7599C131.072 53.7599 128.448 53.8879 129.792 56.6399C131.136 59.3919 133.184 58.4319 133.696 56.6399C134.208 54.8479 132.032 53.5039 131.072 53.7599Z" fill="white"/>
<path d="M138.496 53.7599C138.496 53.7599 135.872 53.8879 137.216 56.6399C138.56 59.3919 140.608 58.4319 141.12 56.6399C141.632 54.8479 139.456 53.5039 138.496 53.7599Z" fill="white"/>
<path d="M162.015 84.4083L161.992 86.9043L187.144 87.1413L187.167 84.6453L162.015 84.4083Z" fill="white"/>
<path d="M197.119 84.6719H192.383V87.1679H197.119V84.6719Z" fill="#3D3D3D"/>
<path d="M225.664 84.6729H203.904V87.1688H225.664V84.6729Z" fill="white"/>
<path d="M169.92 90.9453H161.152V93.4413H169.92V90.9453Z" fill="white"/>
<path d="M197.12 90.9453H174.592V93.4413H197.12V90.9453Z" fill="white"/>
<path d="M211.072 90.9453H202.496V93.4413H211.072V90.9453Z" fill="white"/>
<path d="M157.312 84.4805H154.368V86.9765H157.312V84.4805Z" fill="#3D3D3D"/>
<path d="M155.776 90.9453H152.256V93.4413H155.776V90.9453Z" fill="#3D3D3D"/>
<path d="M154.048 98.625H150.528V101.121H154.048V98.625Z" fill="#3D3D3D"/>
<path d="M180.16 98.625H159.936V101.121H180.16V98.625Z" fill="white"/>
<path d="M175.466 109.468L175.443 111.964L200.595 112.201L200.618 109.705L175.466 109.468Z" fill="white"/>
<path d="M210.56 109.76H205.824V112.256H210.56V109.76Z" fill="#3D3D3D"/>
<path d="M239.104 109.76H217.344V112.256H239.104V109.76Z" fill="white"/>
<path d="M183.36 116.032H174.592V118.528H183.36V116.032Z" fill="white"/>
<path d="M210.56 116.032H188.032V118.528H210.56V116.032Z" fill="white"/>
<path d="M224.512 116.031H215.936V118.527H224.512V116.031Z" fill="#3D3D3D"/>
<path d="M170.752 109.505H167.808V112.001H170.752V109.505Z" fill="white"/>
<path d="M169.216 116.032H165.696V118.528H169.216V116.032Z" fill="#3D3D3D"/>
<path d="M167.488 123.712H163.968V126.208H167.488V123.712Z" fill="white"/>
<path d="M193.599 123.712H173.375V126.208H193.599V123.712Z" fill="white"/>
<path d="M166.272 163.393L215.68 163.969L207.808 198.017L155.584 197.313L166.272 163.393Z" fill="#3D3D3D"/>
<path d="M207.808 198.336L155.52 197.632C155.328 197.632 155.2 197.504 155.2 197.312V197.248L165.952 163.392C166.016 163.264 166.144 163.2 166.272 163.136L215.68 163.712C215.808 163.712 215.872 163.776 215.936 163.84C216 163.904 216 164.032 216 164.096L208.128 198.144C208.128 198.208 207.936 198.336 207.808 198.336ZM155.968 196.992L207.552 197.696L215.296 164.288L166.528 163.712L155.968 196.992Z" fill="#3D3D3D"/>
<path d="M181.268 173.455C187.961 173.152 194.666 173.564 201.209 174.637C201.525 174.69 201.449 171.628 200.588 171.498C193.988 170.454 187.341 170.013 180.647 170.316C180.161 170.352 180.552 173.466 181.268 173.455Z" fill="white"/>
<path d="M245.632 30.4004L295.04 30.9764L287.168 64.9604L234.88 64.2564L245.632 30.4004Z" fill="#3D3D3D"/>
<path d="M287.168 65.28L234.88 64.576C234.752 64.576 234.688 64.512 234.624 64.448C234.56 64.384 234.56 64.256 234.56 64.192L245.312 30.336C245.376 30.208 245.504 30.08 245.632 30.144L295.04 30.72C295.168 30.72 295.232 30.784 295.296 30.848C295.36 30.912 295.36 31.04 295.36 31.104L287.488 65.152C287.424 65.216 287.296 65.28 287.168 65.28ZM235.328 63.936L286.912 64.64L294.656 31.232L245.824 30.72L235.328 63.936Z" fill="#3D3D3D"/>
<path d="M250.176 52.8002C251.648 50.3042 253.76 48.2562 256.256 46.7202C257.408 46.0162 258.688 45.4402 260.032 45.0562C260.992 44.8002 262.272 44.4162 263.04 45.3122C263.936 46.4002 264.32 48.0002 264.576 49.3442C264.896 50.7522 264.832 52.2242 264.384 53.6322C264.256 53.9522 264.128 54.2722 263.936 54.5282C263.808 54.7202 263.552 54.8482 263.36 55.0402C263.04 55.4242 264.512 55.8082 264.704 55.4242C264.768 55.2962 264.768 55.1042 264.768 54.9762C264.896 54.5922 265.152 54.2082 265.408 53.8242C266.304 52.6082 267.584 51.7122 269.056 51.2642C272.448 50.3042 273.152 54.3362 273.408 56.8322C273.536 57.9842 276.672 58.5602 276.544 57.1522C276.352 55.2962 276.032 53.3122 274.944 51.7762C273.536 49.9842 271.36 49.0242 269.12 49.1522C266.944 49.2802 264.96 50.1762 263.424 51.7122C262.016 52.9922 260.544 55.6162 263.04 56.7042C265.216 57.6642 267.008 56.1922 267.648 54.2082C268.288 52.3522 267.968 50.2402 267.456 48.3842C266.88 46.3362 266.048 44.4162 264.064 43.4562C262.08 42.4962 259.84 42.6882 257.856 43.3282C253.568 44.7362 249.856 47.6802 247.488 51.5202C246.528 52.7362 249.536 53.8242 250.176 52.8002Z" fill="white"/>
<path d="M272.256 40.4488C271.36 41.2168 270.528 42.3688 270.784 43.6488C271.04 44.9288 272.32 45.5048 273.472 45.6968C274.88 45.9528 276.352 45.5688 277.504 44.6728C278.4 43.9048 279.232 42.6888 278.912 41.4088C278.592 40.1288 277.76 39.4888 276.8 38.7848C276.096 38.4008 275.264 38.5288 274.688 39.0408C274.304 39.3608 273.664 40.2568 274.304 40.7048C274.816 41.0248 275.264 41.4088 275.648 41.8568L275.456 41.6648C275.648 41.9208 275.84 42.2408 275.904 42.5608L275.84 42.2408C275.904 42.4328 275.904 42.6888 275.904 42.8808V42.5608C275.904 42.6888 275.904 42.7528 275.84 42.8168L275.776 42.9448C275.712 43.0728 275.776 43.0088 275.84 42.8168C275.776 42.8808 275.776 43.0088 275.712 43.0728C275.712 43.1368 275.648 43.1368 275.648 43.2008C275.776 43.0088 275.84 42.9448 275.712 43.0728L275.648 43.2008C275.52 43.3288 275.584 43.2648 275.776 43.0728C275.712 43.1368 275.584 43.2008 275.52 43.2648C275.776 43.1368 275.84 43.0728 275.712 43.1368C275.648 43.1368 275.648 43.2008 275.584 43.2008C275.328 43.3288 275.968 43.0728 275.648 43.2008L275.52 43.2648C275.392 43.3288 275.392 43.2648 275.648 43.2648C275.52 43.2648 275.392 43.3288 275.328 43.3288H275.136C275.328 43.3288 275.392 43.3288 275.264 43.3288H274.944C274.88 43.3288 274.624 43.3288 274.624 43.2648H274.688L274.56 43.2008C274.368 43.1368 274.176 43.0728 273.984 42.9448L274.24 43.0728C274.048 42.9448 273.92 42.8168 273.792 42.6888L273.984 42.8808C273.856 42.7528 273.792 42.5608 273.728 42.3688L273.792 42.6248C273.728 42.4968 273.728 42.3048 273.728 42.1768V42.4968C273.728 42.3688 273.792 42.2408 273.792 42.1128C273.792 42.0488 273.856 41.8568 273.792 42.0488C273.728 42.2408 273.792 42.0488 273.856 41.9848C273.92 41.9208 273.92 41.8568 273.92 41.8568C274.048 41.6008 273.728 42.1128 273.856 41.9208L273.984 41.7288C274.176 41.5368 273.664 41.9848 273.92 41.7928C274.24 41.6008 274.432 41.2808 274.56 40.8968C274.624 40.5768 274.56 40.3208 274.304 40.1288C273.6 39.8728 272.768 40.0008 272.256 40.4488Z" fill="white"/>
<path d="M257.728 204.865C257.088 207.233 257.6 209.729 259.072 211.713C260.544 213.761 262.784 215.233 265.216 215.809C267.904 216.449 270.72 216.513 273.472 215.937C276.096 215.425 278.848 214.273 280.576 212.097C283.776 208.257 282.368 202.497 279.232 199.105C275.84 195.585 270.848 194.113 266.048 195.201C263.808 195.713 260.608 196.993 260.48 199.681C260.352 200.641 260.8 201.665 261.632 202.177C262.848 202.945 264.576 202.689 265.856 202.561C271.424 202.177 277.44 200.513 281.856 196.993C283.712 195.585 285.12 193.665 285.888 191.489C286.592 189.185 286.144 186.625 284.8 184.641C281.6 180.033 275.456 179.457 270.464 180.993C265.664 182.465 261.824 185.921 259.84 190.465C259.456 191.489 258.944 192.897 259.904 193.793C260.864 194.689 262.336 194.433 263.36 194.049C266.112 193.153 267.072 190.337 267.904 187.841C268.8 185.217 269.312 182.209 268.352 179.521C267.584 177.345 266.048 175.489 264.128 174.273C259.648 171.393 253.76 172.289 249.472 175.105C245.184 177.921 242.752 182.849 243.072 187.969C243.456 192.897 246.528 197.249 251.072 199.297C253.184 200.257 255.744 200.961 258.112 200.513C259.264 200.257 260.736 199.745 261.504 198.721C262.08 197.889 261.952 196.737 261.12 196.161C260.096 195.457 258.944 194.945 257.728 194.753C256.448 194.433 255.168 194.241 253.888 194.177C251.136 194.049 248.384 194.497 245.824 195.393C240.96 197.121 236.288 200.833 234.88 205.953C234.24 208.321 234.432 210.817 235.392 213.057C236.544 215.361 238.592 217.153 241.088 217.921C245.952 219.649 251.712 218.753 256.064 216.129C260.288 213.697 262.784 209.089 262.464 204.225C262.336 201.985 261.44 199.809 259.968 198.145C259.392 197.505 256.512 198.657 257.152 199.425C259.712 202.433 260.032 206.849 258.56 210.433C257.088 213.889 253.952 216.385 250.24 216.961C246.336 217.665 241.28 216.641 238.976 213.121C236.672 209.601 237.184 204.929 239.616 201.537C241.984 198.209 245.696 196.097 249.792 195.713C251.904 195.521 254.016 195.777 256 196.417C256.832 196.673 258.048 196.993 258.56 197.761C258.816 198.081 258.816 198.529 258.688 198.849C258.624 198.977 258.56 198.977 258.56 198.977C258.176 199.041 257.792 199.041 257.408 198.913C256.896 198.849 256.448 198.785 256 198.657C255.04 198.401 254.144 198.081 253.248 197.633C251.456 196.737 249.92 195.393 248.704 193.857C246.208 190.465 245.44 186.113 246.656 182.081C247.744 178.305 250.688 174.849 254.656 174.081C258.432 173.377 262.464 175.425 264.448 178.689C265.536 180.609 265.984 182.849 265.664 185.025C265.344 187.393 264.576 189.761 263.424 191.873C263.36 191.937 262.72 192.897 262.72 192.897L263.232 192.705C263.232 192.577 263.296 192.769 263.232 192.705C263.168 192.641 262.848 192.577 262.72 192.449C261.952 191.681 262.656 190.273 262.976 189.441C263.744 187.713 264.896 186.113 266.304 184.833C269.12 182.081 273.216 181.121 276.992 182.209C281.024 183.425 284.032 187.585 282.944 191.809C281.984 195.457 278.528 197.953 275.136 199.233C272.832 200.065 270.464 200.641 268.032 200.897C267.008 201.025 265.472 201.345 264.512 200.897C263.744 200.449 263.36 199.617 263.488 198.721C263.68 196.801 265.536 196.353 267.2 196.353C269.056 196.289 270.912 196.737 272.64 197.569C276.288 199.233 278.848 202.753 279.296 206.785C279.552 208.769 278.976 210.753 277.76 212.353C276.544 213.825 274.688 214.401 272.832 214.593C268.608 215.041 263.872 213.697 261.696 209.793C260.672 208.065 260.352 206.017 260.864 204.097C260.992 203.329 257.984 203.905 257.728 204.865Z" fill="#CECECE"/>
<path d="M259.264 205.506V254.21C259.264 254.786 259.968 255.49 260.288 255.938C260.352 256.066 261.184 256.962 261.184 256.706V208.002C261.184 207.426 260.48 206.722 260.16 206.274C260.096 206.082 259.264 205.186 259.264 205.506Z" fill="#CECECE"/>
<path d="M262.913 241.984C264.001 238.336 265.665 234.88 267.905 231.808C268.993 230.272 270.209 228.864 271.553 227.52C272.833 226.112 274.433 225.088 276.225 224.448C277.121 224.192 278.017 224.128 278.913 224.256C279.297 224.32 279.681 224.448 280.065 224.64C280.193 224.832 280.321 225.024 280.449 225.216C281.217 226.816 281.281 228.672 280.705 230.336C279.553 233.92 276.289 236.16 273.089 237.76C268.929 239.808 264.449 241.472 259.777 241.536C259.201 241.536 260.161 242.624 260.225 242.752C260.609 243.136 261.313 243.776 261.953 243.776C266.561 243.712 271.041 241.984 275.137 240C278.721 238.272 282.177 235.84 283.265 231.808C284.289 227.52 281.729 223.168 277.441 222.144C277.377 222.144 277.377 222.144 277.313 222.144C273.089 221.312 269.697 224.704 267.201 227.648C264.129 231.296 261.825 235.584 260.481 240.192C260.225 240.896 262.721 242.752 262.913 241.984Z" fill="#CECECE"/>
<path d="M274.112 286.145L276.032 249.537L247.488 249.985L251.328 286.145C251.264 286.145 258.816 293.953 274.112 286.145Z" fill="white"/>
<path d="M275.584 285.634L276.224 273.282L277.248 253.506L277.504 248.962C277.504 248.578 277.12 248.578 276.864 248.578L267.264 248.706L251.904 248.962L248.384 249.026C247.872 249.026 246.016 249.666 246.08 250.434L248.448 273.026L249.728 285.122C249.792 285.634 249.728 286.53 250.048 286.978C250.816 287.746 251.648 288.322 252.608 288.77C259.52 292.29 267.904 290.05 274.432 286.786C274.752 286.594 275.84 286.082 275.584 285.506C275.328 284.93 274.176 285.442 273.856 285.57C267.712 288.706 259.776 290.434 253.696 286.21C253.312 285.954 252.992 285.698 252.672 285.378L252.8 285.698L251.52 273.474L249.472 254.018L249.024 249.538L246.72 250.946L256.32 250.818L271.68 250.562L275.2 250.498L274.56 250.114L273.92 262.466L272.896 282.242L272.64 286.786C272.576 287.554 275.52 286.53 275.584 285.634Z" fill="#3D3D3D"/>
<path d="M261.888 252.481C270.301 252.481 277.12 250.877 277.12 248.897C277.12 246.918 270.301 245.313 261.888 245.313C253.476 245.313 246.656 246.918 246.656 248.897C246.656 250.877 253.476 252.481 261.888 252.481Z" fill="#3D3D3D"/>
<path d="M261.888 252.801C254.336 252.801 246.4 251.457 246.4 248.897C246.4 246.337 254.4 244.993 261.888 244.993C269.376 244.993 277.376 246.337 277.376 248.897C277.376 251.457 269.376 252.801 261.888 252.801ZM261.888 245.697C253.12 245.697 247.04 247.425 247.04 248.961C247.04 250.497 253.12 252.225 261.888 252.225C270.656 252.225 276.736 250.497 276.736 248.961C276.736 247.425 270.656 245.697 261.888 245.697Z" fill="#3D3D3D"/>
<path d="M89.4724 247.041C86.7844 247.681 84.2884 248.961 82.2404 250.881C78.5924 254.145 83.7124 265.217 92.3524 271.937C100.992 278.657 101.952 271.553 95.8724 260.417C89.7924 249.281 89.4724 247.041 89.4724 247.041Z" fill="#3D3D3D"/>
<path d="M89.088 245.633C86.592 246.145 84.288 247.233 82.304 248.833C81.216 249.537 80.32 250.561 79.808 251.777C79.488 252.801 79.424 253.889 79.552 254.913C80 257.793 81.024 260.481 82.56 262.913C84.288 265.857 86.464 268.545 89.024 270.913C91.2 272.961 93.888 275.329 96.96 275.905C98.752 276.417 100.608 275.329 101.12 273.473C101.12 273.409 101.184 273.281 101.184 273.217C101.696 270.657 100.8 267.905 99.904 265.537C98.496 261.889 96.448 258.497 94.656 255.041C93.952 253.633 93.248 252.225 92.544 250.817C92.416 250.561 92.288 250.305 92.16 250.049L91.968 249.601C91.84 249.217 91.648 248.833 91.52 248.449C91.328 248.001 91.2 247.617 91.072 247.169C90.944 246.465 91.008 246.977 91.072 247.169C91.008 246.337 90.304 245.633 89.472 245.569C88.768 245.505 87.872 246.017 87.936 246.849C88 247.297 88.128 247.745 88.256 248.193C88.768 249.601 89.344 251.009 90.048 252.353C91.392 255.233 92.928 258.113 94.464 260.929C96 263.617 97.152 266.433 97.92 269.441C98.048 269.889 98.112 270.337 98.112 270.849C98.112 271.105 98.112 271.297 98.112 271.553C98.112 271.681 98.048 272.257 98.112 271.937C98.112 272.129 98.048 272.321 97.984 272.449C97.984 272.513 97.92 272.641 97.92 272.769C97.92 272.705 98.048 272.513 97.92 272.705C97.792 272.897 97.536 273.153 97.856 272.833C97.792 272.897 97.792 272.897 97.728 272.961C97.472 273.153 97.792 272.961 97.728 272.961C97.664 272.961 97.6 273.025 97.536 273.025C97.28 273.153 97.792 273.025 97.6 273.025C97.408 273.025 97.088 273.025 97.472 273.089C97.28 273.089 97.088 273.025 96.896 273.025C97.216 273.089 96.96 273.025 96.832 273.025C96.704 273.025 96.512 272.961 96.384 272.897C96 272.769 95.552 272.577 95.232 272.321C94.592 271.937 93.952 271.553 93.376 271.105C90.816 269.185 88.576 266.945 86.72 264.321C85.056 262.145 83.776 259.713 82.944 257.089C82.56 256.065 82.432 254.977 82.496 253.889C82.496 253.825 82.56 253.505 82.496 253.825C82.496 253.697 82.56 253.569 82.56 253.441C82.624 253.185 82.688 252.993 82.752 252.737C82.816 252.609 82.88 252.481 82.944 252.417L83.072 252.225C83.264 251.905 82.88 252.417 83.136 252.161C84.48 250.881 86.08 249.857 87.808 249.153C88.128 249.025 88.384 248.897 88.704 248.833C88.832 248.769 89.472 248.577 89.152 248.705C89.344 248.641 89.6 248.577 89.792 248.577C91.904 248.129 90.816 245.313 89.088 245.633Z" fill="#3D3D3D"/>
<path d="M91.3923 240.961C91.3923 240.961 85.5683 248.513 85.1843 249.729C83.3923 255.489 94.3363 270.209 97.3443 269.377C100.352 268.545 93.4403 256.833 94.9123 253.505C96.0003 251.201 97.2163 248.961 98.6883 246.849L91.3923 240.961Z" fill="white"/>
<path d="M90.1118 240.513C89.1518 241.729 88.2558 243.009 87.2958 244.225C86.0798 245.825 84.6718 247.489 83.7758 249.345C83.0078 251.009 83.4558 253.185 83.9678 254.849C84.7998 257.217 85.8878 259.521 87.2318 261.569C88.5118 263.617 89.9838 265.601 91.6478 267.329C92.8638 268.609 94.2718 270.081 96.0638 270.465C97.5998 270.849 99.1358 269.953 99.5198 268.481C99.5838 268.225 99.6478 267.969 99.5838 267.713C99.5198 265.601 98.6878 263.489 97.9838 261.505C97.5358 260.225 97.0878 258.945 96.7678 257.665C96.6398 257.089 96.4478 256.513 96.3198 255.937C96.2558 255.489 96.1918 255.041 96.1278 254.593C96.1278 254.401 96.1278 254.209 96.1918 253.953C96.1918 253.889 96.2558 253.761 96.2558 253.697C96.1918 254.017 96.3198 253.569 96.3838 253.505C96.8318 252.481 97.3438 251.521 97.9198 250.561C98.3678 249.729 98.8798 248.961 99.3918 248.193L99.8398 247.489C99.9038 247.361 100.224 246.913 99.9038 247.425C100.224 246.977 100.288 246.465 99.8398 246.081L92.5438 240.193C91.5198 239.361 88.7678 240.833 90.1118 241.921L97.4078 247.809L97.3438 246.465C95.7438 248.641 94.3998 250.945 93.3118 253.441C92.6718 255.169 93.3118 257.217 93.8238 258.945C94.4638 261.121 95.2958 263.233 95.9358 265.409C96.1918 266.241 96.3838 267.137 96.5118 268.033C96.5118 268.289 96.5118 268.545 96.4478 268.737C96.3838 268.865 96.5758 268.545 96.3838 268.801C96.4478 268.609 96.6398 268.545 96.7678 268.481C96.8318 268.481 97.5358 268.353 97.1518 268.353C97.5998 268.353 97.4718 268.353 97.2798 268.353C97.0878 268.353 97.0238 268.225 97.4078 268.417L97.0238 268.289C96.9598 268.289 96.8958 268.225 96.8958 268.225C97.2158 268.353 96.8318 268.225 96.7678 268.161C96.1278 267.713 95.4878 267.201 94.9118 266.689C93.3758 265.153 91.9678 263.425 90.8158 261.633C89.4718 259.713 88.3198 257.665 87.4878 255.489C86.8478 253.825 86.2078 251.905 86.5278 250.241C86.5278 250.113 86.5918 250.049 86.5918 249.921C86.5918 250.049 86.5278 250.113 86.5918 249.985C86.6558 249.857 86.7198 249.729 86.7838 249.601C86.9758 249.217 87.2318 248.897 87.4238 248.577C88.0638 247.617 88.7038 246.721 89.4078 245.761C90.4318 244.417 91.4558 243.073 92.4798 241.729C93.8238 239.873 90.9438 239.361 90.1118 240.513Z" fill="#3D3D3D"/>
<path d="M41.6005 155.841C41.6005 155.841 30.3365 185.473 48.8965 188.929C67.4565 192.385 106.689 192.833 106.689 192.833C106.689 192.833 73.4725 232.513 86.4005 245.441C99.3285 258.369 107.969 258.817 120.449 247.617C132.929 236.417 146.753 191.169 141.569 181.633C136.385 172.097 120.897 149.953 41.6005 155.841Z" fill="white"/>
<path d="M40.3204 154.882C38.9124 158.658 37.9524 162.626 37.3764 166.594C36.4164 172.994 36.4804 180.546 40.9604 185.73C43.5204 188.674 46.9124 189.89 50.6244 190.53C54.7844 191.234 58.9444 191.682 63.1044 192.066C72.3204 192.962 81.6644 193.41 90.8804 193.73C94.4004 193.858 97.9844 193.986 101.504 194.05C103.296 194.114 105.088 194.242 106.88 194.114H107.136L105.472 191.554C101.824 195.97 98.4324 200.578 95.2964 205.378C92.4804 209.538 89.9204 213.826 87.6164 218.242C85.3764 222.466 83.6484 227.01 82.5604 231.682C81.7924 235.394 81.6644 239.554 83.4564 243.01C84.8644 245.762 87.2964 247.81 89.6004 249.73C92.4164 252.29 95.6804 254.338 99.2004 255.81C102.016 256.898 105.088 257.154 108.032 256.578C111.296 255.938 114.304 254.274 116.992 252.354C119.424 250.69 121.6 248.77 123.52 246.594C124.992 244.802 126.336 242.882 127.552 240.898C130.368 236.098 132.8 231.106 134.848 225.922C137.088 220.29 139.008 214.53 140.608 208.642C142.016 203.522 143.04 198.274 143.68 192.962C144 189.506 144.32 185.41 142.848 182.082C141.248 178.69 139.008 175.618 136.384 172.994C132.288 168.898 127.488 165.506 122.24 163.074C114.048 159.234 105.152 156.994 96.1924 155.586C82.3044 153.41 68.1604 153.154 54.1444 153.73C49.7284 153.922 45.3124 154.178 40.8964 154.498C39.2964 154.626 40.8964 157.25 42.0484 157.186C57.2804 156.034 72.7044 155.65 87.9364 157.122C97.7284 158.082 107.52 159.746 116.8 163.138C117.696 163.458 118.528 163.778 119.424 164.162C120.448 164.546 120.704 164.738 121.664 165.122C123.136 165.826 124.608 166.53 126.016 167.362C126.656 167.746 127.296 168.13 127.936 168.514L128.832 169.09L129.216 169.346L129.472 169.538C130.56 170.306 131.584 171.074 132.544 171.906C132.992 172.29 133.44 172.674 133.824 173.058L134.144 173.378C133.696 172.994 134.08 173.314 134.144 173.378L134.784 174.018C135.488 174.722 136.192 175.49 136.832 176.258C136.96 176.45 137.088 176.578 137.28 176.77C137.344 176.834 137.408 176.898 137.472 177.026C137.792 177.41 137.344 176.834 137.536 177.09C137.728 177.346 138.048 177.794 138.304 178.114C138.752 178.754 139.2 179.458 139.584 180.098C139.776 180.418 139.968 180.738 140.096 180.994L140.352 181.442C140.416 181.57 140.672 182.146 140.48 181.634C140.608 181.89 140.736 182.146 140.8 182.402C140.928 182.786 140.736 182.21 140.864 182.594L140.992 183.106C141.056 183.426 141.12 183.81 141.184 184.13C141.184 184.322 141.248 184.514 141.248 184.706C141.248 184.77 141.248 184.898 141.312 184.962C141.376 185.026 141.376 185.474 141.312 185.218C141.632 189.506 140.992 193.922 140.16 198.146C137.984 209.474 134.4 220.482 129.472 230.85C127.424 235.202 125.12 239.618 122.048 243.394C120.384 245.442 118.464 247.234 116.352 248.834C113.728 250.882 110.784 252.738 107.52 253.634C104.832 254.402 101.952 254.338 99.3284 253.442C96.0644 252.354 93.2484 250.306 90.6244 248.13C89.1524 246.978 87.8084 245.698 86.5284 244.29C86.4644 244.226 86.0804 243.714 86.4004 244.098C86.2724 243.906 86.1444 243.778 86.0164 243.586C85.8884 243.458 85.8244 243.266 85.7604 243.138C85.6964 243.01 85.5684 242.754 85.7604 243.074C85.6964 243.01 85.6324 242.882 85.6324 242.754C84.9924 241.282 84.6724 239.682 84.6724 238.082C84.6084 233.922 85.9524 229.762 87.5524 225.922C89.4724 221.378 91.7124 217.026 94.2724 212.866C98.1124 206.594 102.336 200.578 106.944 194.882C107.2 194.562 107.456 194.242 107.712 193.922C108.48 193.026 107.008 191.362 106.048 191.362C101.824 191.298 97.6004 191.234 93.3764 191.042C84.5444 190.786 75.7124 190.338 66.8804 189.634C62.5284 189.314 58.1764 188.866 53.8884 188.29C52.0324 188.034 50.1764 187.778 48.3204 187.394C46.7844 187.138 45.3124 186.562 44.0324 185.73L43.7124 185.474L43.2644 185.154C43.2004 185.09 42.8164 184.77 42.9444 184.898C43.0724 185.026 42.8804 185.026 42.8804 184.962L42.6244 184.706C42.4964 184.578 42.3684 184.45 42.3044 184.322L42.1124 184.066C41.9844 183.874 42.2404 184.322 42.1124 184.066C41.9204 183.746 41.6644 183.426 41.4724 183.17C41.4084 183.042 41.2804 182.85 41.2164 182.722C41.0884 182.466 41.2164 182.658 41.2164 182.722L41.0884 182.466C40.8964 182.082 40.7684 181.762 40.5764 181.378C40.3204 180.738 40.1284 180.034 40.0004 179.394C39.3604 176.322 39.2964 173.186 39.6804 170.114C40.1924 165.634 41.2164 161.282 42.6884 157.058C42.6884 156.994 42.7524 156.93 42.7524 156.866C43.2004 155.714 40.8324 153.602 40.3204 154.882Z" fill="#3D3D3D"/>
<path d="M124.224 128.002C125.248 122.562 132.928 99.1377 135.936 99.7137C138.944 100.29 138.56 110.658 138.56 110.658C138.56 110.658 140.864 110.274 145.856 102.082C151.296 93.2497 156.928 94.4017 153.792 102.21C152.576 105.154 150.976 107.906 149.056 110.466C152.96 110.85 149.504 116.098 149.504 116.098C155.52 114.882 158.016 123.074 131.52 141.442L124.224 128.002Z" fill="white"/>
<path d="M125.824 128.065C126.4 125.505 127.04 123.009 127.872 120.513C128.96 117.057 130.176 113.537 131.52 110.145C132.544 107.265 133.824 104.449 135.424 101.825L135.616 101.505C135.744 101.313 135.744 101.313 135.744 101.377C135.872 101.185 136 101.057 136.128 100.865C136.256 100.737 136.384 100.609 136.512 100.481C136.384 100.609 136.32 100.609 136.512 100.545C136.704 100.481 136.256 100.673 136.384 100.609L135.808 100.673C135.808 100.673 135.232 100.609 135.552 100.673C135.488 100.673 135.296 100.673 135.36 100.609C135.232 100.609 135.296 100.545 135.36 100.609C135.296 100.481 135.552 100.801 135.552 100.865C135.68 101.057 135.744 101.249 135.872 101.441C136 101.761 136.128 102.145 136.256 102.529C136.896 105.153 137.088 107.905 136.896 110.593C136.832 111.489 138.304 111.745 138.88 111.617C139.84 111.361 140.736 110.849 141.44 110.145C143.552 108.289 145.216 105.793 146.688 103.425C147.712 101.633 148.992 99.9687 150.4 98.4327C150.848 97.9847 151.36 97.6007 151.936 97.2167C152.064 97.0887 152.256 97.0247 152.448 96.9607C152.576 96.8967 152.704 96.8967 152.832 96.8327C152.512 96.8967 152.832 96.8327 152.896 96.8327C152.448 96.8327 152.832 96.8327 152.896 96.8327C152.384 96.8967 153.024 96.8967 152.576 96.7687C152.384 96.5767 152.832 96.8327 152.576 96.7687C152.64 96.8327 152.64 96.8967 152.576 96.7047C152.768 96.9607 152.96 97.2807 152.96 97.6007C153.216 99.0087 152.64 100.545 152.128 101.825C151.296 103.809 150.336 105.729 149.184 107.521C148.8 108.161 148.416 108.737 147.968 109.377C147.776 109.633 147.904 109.441 147.712 109.697L147.584 109.889C147.008 110.593 147.712 111.297 148.48 111.361C148.544 111.361 149.12 111.489 148.928 111.425C148.736 111.361 148.992 111.489 148.928 111.361C149.056 111.617 149.184 111.553 149.248 111.937C149.312 112.449 149.184 112.961 149.056 113.473C148.8 114.305 148.416 115.009 147.968 115.777C147.328 116.737 149.376 117.185 149.888 117.057C150.016 117.057 150.144 116.993 150.272 116.993C150.592 116.929 150.72 117.057 150.336 116.993C150.464 116.993 150.592 116.993 150.72 116.993H150.912C151.232 116.993 150.72 116.993 150.72 116.993C150.848 117.057 150.912 117.057 151.04 117.057C150.656 116.865 151.296 117.121 151.04 117.057C151.232 117.121 151.36 117.313 151.04 117.057C151.104 117.121 151.232 117.121 151.296 117.249C151.168 116.993 151.488 117.505 151.296 117.249C151.36 117.313 151.424 117.441 151.488 117.505C151.552 117.569 151.424 117.249 151.552 117.569C151.616 117.697 151.616 117.761 151.68 117.889C151.744 118.017 151.744 118.081 151.744 118.209C151.68 117.953 151.744 118.209 151.744 118.401C151.744 118.657 151.744 118.977 151.68 119.233C151.68 119.361 151.616 119.489 151.616 119.681C151.616 119.873 151.616 119.681 151.616 119.745C151.616 119.809 151.552 119.937 151.552 120.001C151.424 120.385 151.296 120.769 151.104 121.153C150.656 122.049 150.144 122.945 149.568 123.777C147.776 126.209 145.728 128.449 143.424 130.497C139.264 134.209 134.912 137.665 130.304 140.801L132.992 141.313L126.592 129.601L125.696 127.937C125.248 127.297 124.48 127.041 123.776 127.169C123.328 127.233 122.24 127.681 122.624 128.385L129.024 140.097L129.92 141.761C130.56 142.593 131.712 142.785 132.608 142.273C137.088 139.265 141.376 135.937 145.408 132.353C148.032 130.113 150.4 127.553 152.448 124.737C153.984 122.561 156.608 118.273 153.792 116.033C152.512 115.009 150.656 114.881 149.12 115.201L151.04 116.481C151.68 115.521 152.128 114.433 152.384 113.281C152.832 111.233 151.488 109.825 149.44 109.569L150.336 111.041C152.128 108.737 153.6 106.241 154.752 103.617C155.712 101.441 157.504 97.2807 154.88 95.5527C152.192 93.6967 148.8 96.1287 147.008 98.0487C144.32 100.993 142.656 104.769 139.968 107.777C139.584 108.225 139.2 108.609 138.816 108.993C138.624 109.121 138.496 109.313 138.304 109.441C137.984 109.697 138.432 109.377 138.112 109.569C137.92 109.697 137.28 109.953 137.856 109.761C137.664 109.825 137.536 109.825 138.048 109.761L140.032 110.785C140.16 108.161 139.968 105.473 139.456 102.913C139.136 101.441 138.56 99.8407 137.088 99.1367C135.872 98.5607 134.4 98.8167 133.44 99.7767C132.672 100.609 132.032 101.569 131.52 102.593C130.752 104.065 130.048 105.601 129.408 107.137C127.872 110.785 126.528 114.497 125.312 118.273C124.16 121.473 123.264 124.737 122.496 128.065C122.368 129.217 125.568 129.409 125.824 128.065Z" fill="#3D3D3D"/>
<path d="M148.672 120.896L150.976 116.352L151.296 115.712C151.36 115.392 151.296 115.072 151.104 114.88C150.848 114.624 150.464 114.432 150.144 114.432C149.376 114.304 148.608 114.624 148.224 115.328L145.92 119.872L145.6 120.512C145.536 120.832 145.6 121.152 145.792 121.344C146.048 121.6 146.432 121.792 146.752 121.792C147.456 121.92 148.288 121.536 148.672 120.896Z" fill="#3D3D3D"/>
<path d="M147.968 109.313L144.064 113.857L143.488 114.497C143.232 114.753 143.04 115.137 143.04 115.521C143.04 115.905 143.168 116.353 143.488 116.673C143.744 116.993 144.128 117.185 144.512 117.249C144.896 117.313 145.28 117.185 145.536 116.929L149.44 112.385L150.016 111.745C150.272 111.489 150.464 111.105 150.464 110.721C150.464 110.337 150.336 109.889 150.016 109.569C149.76 109.249 149.376 109.057 148.992 108.993C148.608 108.929 148.224 108.993 147.968 109.313Z" fill="#3D3D3D"/>
<path d="M64.5125 99.5206C64.5125 99.5206 66.5605 99.5846 67.3925 98.1766C68.0965 96.7046 68.6725 95.1686 69.1205 93.5686C69.1205 93.5686 76.4805 96.6406 77.5685 80.2566L78.0165 80.5126C83.7765 79.8726 89.0245 76.6726 92.2245 71.8726L93.4405 70.0166C94.2085 74.8806 94.5285 78.5926 94.9765 81.3446C95.2965 83.5206 97.1525 84.6086 98.3685 85.2486C103.68 87.9366 104.192 89.9206 102.144 90.3046C99.7765 90.7526 94.2085 89.7286 94.2085 89.7286C94.2085 89.7286 94.0165 99.0086 83.7765 100.673C78.5925 101.569 78.0165 102.337 78.0805 104.065C78.1445 105.793 78.2725 107.073 78.2725 107.073C78.2725 107.073 77.3125 111.809 70.2725 109.057C66.6245 107.649 65.0885 105.473 64.5125 103.553C64.1925 102.273 64.1925 100.865 64.5125 99.5206Z" fill="white"/>
<path d="M63.1044 100.161C63.8084 100.161 64.5124 100.033 65.2164 99.7768C66.3684 99.3928 68.0324 98.8808 68.8004 97.7288C69.6964 96.3208 70.1444 94.5288 70.5924 92.9288L67.6484 94.1448C68.7364 94.4648 69.8884 94.4648 70.9124 94.0808C72.4484 93.6968 73.9204 92.9288 75.1364 91.9048C76.1604 90.8808 76.9284 89.6008 77.4404 88.2568C78.4004 85.5048 78.9764 82.5608 79.1044 79.6168L76.1604 80.8328C76.3524 80.9608 76.4804 81.0248 76.6724 81.0888C77.2484 81.0888 77.7604 81.0248 78.2724 80.8328C79.3604 80.6408 80.3844 80.3848 81.4084 80.0008C83.7764 79.2328 86.0164 78.2088 88.0644 76.8648C89.8564 75.7128 91.4564 74.2408 92.8004 72.5128C93.5684 71.4888 94.2724 70.4648 94.9764 69.3768L92.0324 70.5288C92.4804 73.4728 92.8004 76.4168 93.1844 79.3608C93.2484 80.4488 93.4404 81.5368 93.7604 82.6248C94.2084 83.7128 94.9764 84.6088 96.0004 85.1848C97.8564 86.3368 100.288 87.1048 101.568 89.0248C101.696 89.2168 101.824 89.4728 101.888 89.7288C101.888 89.9848 101.76 90.1128 101.696 90.3048C101.952 89.5368 104.064 89.5368 103.36 89.6008C103.168 89.6008 102.976 89.6648 102.784 89.6648C102.208 89.6648 101.696 89.6648 101.12 89.6648C99.3284 89.5368 97.5364 89.3448 95.7444 88.9608C95.2964 88.8968 94.4644 89.3448 94.0804 89.4728C93.8244 89.5368 92.8644 89.8568 92.8644 90.1768C92.8004 91.8408 92.3524 93.5048 91.5204 94.9128C90.8164 96.3208 89.7284 97.6008 88.5124 98.5608C88.0004 98.9448 87.4244 99.2648 86.8484 99.5208C85.6324 99.9048 84.3524 100.033 83.1364 100.289C81.9844 100.545 80.8324 100.865 79.7444 101.313C78.8484 101.633 78.0164 102.081 77.3124 102.721C76.9924 103.041 76.8644 103.489 76.8004 103.937C76.7364 104.961 76.8004 105.985 76.9284 107.009C76.9924 107.585 76.8644 108.161 76.4804 108.609C76.3524 108.801 76.2244 108.993 76.0324 109.121C75.9684 109.185 75.8404 109.249 75.7764 109.377C75.7124 109.505 75.5204 109.441 75.7124 109.441C75.9044 109.441 76.4804 108.993 76.6724 109.057C76.6724 109.057 76.1604 109.057 76.4804 109.057C76.2884 109.057 76.0964 109.121 75.9684 109.121C75.4564 109.121 74.9444 109.121 74.4324 108.993C69.6964 108.225 64.4484 104.129 66.1124 98.7528C65.6004 98.8808 65.0884 99.0088 64.5764 99.1368C64.2564 99.2648 63.2964 99.5208 63.1684 99.9048C62.6564 101.889 62.9764 104.065 64.1284 105.793C65.5364 108.033 68.0964 109.313 70.5924 109.953C72.8324 110.529 75.2644 110.209 77.3124 109.121C78.4644 108.673 79.3604 107.841 79.8724 106.753C79.9364 106.561 80.0004 106.433 80.0644 106.241C80.0644 105.857 80.0004 105.537 79.9364 105.153C79.8724 104.449 79.8084 103.745 79.8084 103.041C79.8084 102.529 79.9364 102.081 80.1924 101.697C80.4484 101.377 80.5764 101.377 80.0644 101.633C79.8084 101.761 79.9364 101.697 80.1284 101.633L81.1524 101.377C82.5604 101.121 83.9684 100.865 85.3124 100.481C86.6564 100.097 87.9364 99.5208 89.2164 98.8808C91.0084 97.9848 92.5444 96.7688 93.6964 95.1688C95.0404 93.3128 95.8084 91.1368 95.9364 88.8968L93.0564 90.1128C94.8484 90.4328 96.5764 90.6888 98.4324 90.8168C99.5204 90.9448 100.608 90.8168 101.632 90.6248C102.4 90.4328 103.104 90.1768 103.808 89.7928C104.192 89.6648 104.576 89.4088 104.832 89.0888C105.792 87.6808 102.592 85.8888 101.76 85.3768C100.608 84.6728 99.3284 84.1608 98.3044 83.3288C97.3444 82.4328 96.7044 81.2168 96.6404 79.8728C96.1284 76.3528 95.8084 72.8328 95.2324 69.3128C95.2324 69.1208 92.5444 70.1448 92.2884 70.4648C91.0084 72.5128 89.5364 74.3688 87.8084 76.0328C86.6564 77.1208 85.3124 78.0168 83.9044 78.7208C82.4964 79.2968 81.0884 79.6808 79.5524 79.8088H79.8084L79.3604 79.5528C78.9764 79.3608 78.1444 79.8088 77.8244 79.9368C77.5044 80.0648 76.4164 80.3848 76.4164 80.7048C76.1604 84.4168 75.7124 88.8328 73.4084 91.9048C73.0884 92.3528 72.7684 92.6728 72.3844 93.0568C72.2564 93.1208 72.1284 93.2488 72.0004 93.3128C71.8084 93.4408 71.9364 93.3768 72.0004 93.3128C72.1284 93.2488 72.6404 93.0568 72.8964 92.9288C72.7044 92.9928 73.1524 92.9288 72.8964 92.9288C72.6404 92.9288 73.0244 92.9288 72.8324 92.9288L72.4484 92.9928C72.1924 92.9928 71.9364 92.9928 71.6804 92.9928C71.4884 92.9928 71.2324 92.9288 71.0404 92.8648C70.9764 92.8648 70.7204 92.7368 70.8484 92.8008C70.4644 92.6088 69.6324 93.0568 69.3124 93.1848C68.9924 93.3128 68.0324 93.5688 67.9044 93.9528C67.5844 94.9768 67.2644 96.0648 66.8804 97.0888C66.5604 97.7928 66.2404 98.4328 65.7924 99.0088C65.4724 99.2648 65.6004 99.2008 66.2404 98.8808C66.8804 98.6888 67.0724 98.6248 66.8164 98.6248C66.6884 98.6248 66.6244 98.6248 66.4964 98.6888C66.3684 98.6888 66.2404 98.6888 66.1764 98.6888C65.5364 98.7528 64.8964 98.9448 64.3204 99.2648C63.8724 99.5848 62.9764 100.161 63.1044 100.161Z" fill="#3D3D3D"/>
<path d="M96.7042 179.649C125.952 176.577 134.272 139.393 134.272 139.393C134.272 139.393 131.072 125.569 123.52 122.625C123.52 122.625 119.424 128.129 110.592 132.993C101.76 137.857 81.0242 103.681 68.6082 98.305C56.1922 92.929 24.3202 156.289 24.9602 159.041C24.9602 159.041 42.6882 185.281 96.7042 179.649Z" fill="white"/>
<path d="M97.7922 180.738C104.832 179.97 111.488 177.09 116.928 172.482C121.728 168.322 125.696 163.394 128.64 157.826C130.944 153.602 132.864 149.186 134.336 144.642C134.72 143.49 135.04 142.274 135.36 141.058C135.488 140.482 135.488 139.842 135.232 139.266C133.504 133.058 130.496 126.53 124.928 122.818C124.224 122.306 123.392 121.922 122.56 121.602C122.496 121.538 122.368 121.538 122.304 121.602C119.808 124.93 116.288 127.618 112.896 129.858C111.68 130.754 110.336 131.586 108.928 132.162C108.416 132.354 107.84 132.418 107.264 132.354C106.624 132.29 106.048 132.162 105.472 131.906C105.216 131.778 104.896 131.65 104.64 131.522L104.128 131.266L103.936 131.138C103.872 131.074 103.808 131.074 103.68 131.01C103.296 130.818 102.976 130.562 102.656 130.306C102.4 130.114 102.592 130.242 102.656 130.306L102.336 130.05L101.76 129.602L101.184 129.154C100.992 128.962 101.504 129.41 101.12 129.09L100.8 128.834C100.416 128.514 100.032 128.13 99.5842 127.81C98.9442 127.234 98.1762 126.53 97.4082 125.698C96.6402 124.866 95.6802 123.97 94.8482 123.074C91.3922 119.426 87.8722 115.394 84.4162 111.618C81.0882 107.842 77.5042 104.322 73.6642 101.058C72.1922 99.7775 70.5282 98.6895 68.8002 97.7295C67.8402 97.1535 66.7522 96.7695 65.6002 96.7695C63.3602 96.8335 61.2482 98.3055 59.5202 99.7135C56.9602 101.89 54.5922 104.322 52.5442 107.01C47.0402 113.794 42.3682 121.282 37.9522 128.834C33.9202 135.682 30.1442 142.658 26.7522 149.826C25.7282 151.938 24.7682 154.05 24.0002 156.29C23.7442 156.802 23.6162 157.314 23.5522 157.89C23.6162 158.146 23.7442 158.466 23.9362 158.658C26.1762 161.602 28.8642 164.226 31.8722 166.402C37.8242 170.946 44.5442 174.466 51.7122 176.834C62.8482 180.546 74.6882 181.698 86.4002 181.378C90.3042 181.378 94.0802 181.122 97.7922 180.738C98.2402 180.674 97.2802 179.778 97.2162 179.65C96.8962 179.33 96.1282 178.498 95.5522 178.562C82.6882 179.906 69.5042 179.778 56.8962 176.77C52.4162 175.746 48.0642 174.274 43.7762 172.418C42.0482 171.65 40.3842 170.818 38.7202 169.922C37.3122 169.154 35.9042 168.322 34.6242 167.426L33.7282 166.786L33.2802 166.466C33.2162 166.402 33.0242 166.274 33.3442 166.53L33.0242 166.338C32.5122 165.954 31.9362 165.506 31.4242 165.122L31.0402 164.802C30.6562 164.482 31.0402 164.802 30.9762 164.738C30.7202 164.546 30.4642 164.354 30.2722 164.098L29.6322 163.522L29.3122 163.266C29.1202 163.074 29.0562 163.01 29.2482 163.202C28.9282 162.882 28.5442 162.562 28.2242 162.178C28.0962 162.05 27.9042 161.858 27.7762 161.73L27.5842 161.538C27.6482 161.602 27.9682 161.922 27.5842 161.538C27.2002 161.09 26.7522 160.642 26.3682 160.13C26.7522 160.578 26.3042 160.066 26.1762 159.874C26.1122 159.81 26.0482 159.682 25.9842 159.618C25.7282 159.362 26.2402 159.874 26.1122 159.874C26.1122 159.746 26.1122 159.618 26.1762 159.49C26.6882 157.762 27.3282 156.162 28.0962 154.562C31.1042 147.906 34.4962 141.442 38.0802 135.106C42.3682 127.362 47.1042 119.938 52.2242 112.77C54.4002 109.762 56.8322 106.946 59.3922 104.322C61.2482 102.466 63.2962 100.546 65.7922 99.5855C66.6242 99.2015 67.5202 99.0735 68.4802 99.0735C69.5682 99.2655 70.5922 99.7775 71.4882 100.418C72.1922 100.866 72.8322 101.378 73.4722 101.89L73.7922 102.146L74.3682 102.658C74.8162 103.042 75.2002 103.426 75.6482 103.81C76.0962 104.194 76.1602 104.322 76.6722 104.77L78.0163 106.05C78.8482 106.882 79.6802 107.714 80.4482 108.61C87.2322 115.778 93.5042 123.906 101.184 130.242C102.656 131.458 104.192 132.546 105.856 133.442C107.072 134.146 108.416 134.53 109.76 134.594C110.336 134.594 110.912 134.466 111.424 134.21C112.96 133.442 114.368 132.61 115.776 131.586C118.208 129.986 120.448 128.13 122.56 126.018C123.328 125.314 124.032 124.482 124.672 123.714H124.416C124.992 123.97 125.504 124.226 126.016 124.61C126.464 124.994 126.912 125.442 127.296 125.89C128.32 127.17 129.152 128.514 129.856 129.986C131.072 132.354 132.032 134.85 132.736 137.41C132.8 137.666 132.864 137.986 132.992 138.306C132.992 138.37 133.056 138.69 133.056 138.434C133.056 138.626 132.992 138.818 132.928 139.01C132.672 140.162 132.288 141.25 131.968 142.338C130.624 146.626 128.832 150.786 126.72 154.818C123.968 160.194 120.32 165.058 115.904 169.218C110.976 173.826 104.896 177.026 98.2402 178.306C97.3442 178.434 96.4482 178.626 95.5522 178.69C95.1042 178.754 96.0002 179.65 96.1282 179.778C96.5122 179.906 97.2802 180.802 97.7922 180.738Z" fill="#3D3D3D"/>
<path d="M47.8084 114.369C41.9204 112.641 36.4804 105.857 49.4724 80.1291C58.5604 62.2731 70.9764 57.0891 79.6804 59.0731C88.3844 61.0571 92.9924 66.0491 93.5044 70.0811L92.2884 71.9371C89.0244 76.7371 83.8404 79.9371 78.0804 80.5771L77.6324 80.3211C76.5444 96.6411 69.1204 93.6331 69.1204 93.6331C68.6724 95.2331 68.0964 96.7691 67.3924 98.2411C67.3924 98.2411 62.5284 118.657 47.8084 114.369Z" fill="#3D3D3D"/>
<path d="M47.2323 112.897C46.9123 112.833 46.6563 112.705 46.3363 112.577C46.2083 112.513 46.0803 112.449 45.9523 112.385C45.8243 112.321 45.7603 112.321 45.6323 112.257C45.3763 112.129 45.0563 111.937 44.8003 111.745C44.6723 111.681 44.5443 111.553 44.4163 111.489L44.2242 111.361C44.0322 111.233 44.2243 111.361 44.1603 111.297C44.0963 111.233 43.9683 111.105 43.8403 110.977C43.7123 110.849 43.3922 110.465 43.6482 110.785L43.3282 110.401C43.2002 110.209 43.2002 110.273 43.3282 110.401L43.2003 110.145C43.1363 110.081 43.0723 109.953 43.0723 109.889C43.2003 110.017 43.2003 110.209 43.1363 109.953C43.0723 109.889 43.0722 109.761 43.0082 109.697C42.9442 109.633 43.1362 110.017 43.0082 109.761C42.9442 109.697 42.9443 109.569 42.8803 109.441C42.7523 109.185 42.8803 109.569 42.8803 109.441C42.8163 109.249 42.7522 108.993 42.6882 108.801C42.6882 108.737 42.5602 108.417 42.6882 108.673C42.6882 108.545 42.6242 108.481 42.6242 108.353C42.5602 108.097 42.5603 107.841 42.4963 107.649C42.4323 107.201 42.3682 106.753 42.3682 106.241C42.3682 105.025 42.4323 103.809 42.5603 102.593C43.0723 99.2648 43.9682 95.9368 45.1842 92.8008C46.9122 88.1288 48.9603 83.5848 51.3923 79.2328C53.5043 75.2648 56.1282 71.6168 59.2642 68.4168C63.6162 64.0008 69.3763 60.2888 75.7123 59.9688C79.0403 59.9048 82.3042 60.5448 85.2482 61.9528C86.9762 62.7208 88.5762 63.6808 90.0482 64.9608C90.6242 65.4728 91.1363 65.9848 91.5843 66.6248C91.7763 66.8168 91.9043 67.0728 92.0322 67.3288C92.2243 67.6488 92.0322 67.3288 92.1602 67.5848C92.2242 67.6488 92.2242 67.7128 92.2882 67.7768C92.2242 67.5848 92.4162 68.0328 92.2882 67.7768C92.2882 67.8408 92.4802 68.2888 92.4162 68.0328C92.4802 68.1608 92.4803 68.2888 92.5443 68.4168C92.6083 68.6728 92.6722 68.8648 92.6722 69.1208V68.6728C91.1362 70.9768 89.5362 73.1528 87.3602 74.9448C84.4802 77.2488 80.9603 78.6568 77.3123 79.1048L77.6323 79.1688L77.1842 78.9128C76.9282 78.7848 76.7363 78.8488 76.7363 79.1688C76.6083 81.6648 76.2243 84.1608 75.5203 86.5928C75.1362 88.0648 74.4323 89.4088 73.4723 90.5608C72.5123 91.7768 71.0403 92.4168 69.4403 92.3528C69.1203 92.3528 68.8643 92.2888 68.5443 92.1608C68.4802 92.0968 68.3522 92.1608 68.2882 92.2888C67.9042 93.5688 67.5202 94.7848 67.0082 95.9368C66.8162 96.3848 66.6243 96.8328 66.4323 97.2808C66.0483 98.6248 65.6002 99.9688 65.0882 101.249C63.2962 105.537 60.6722 109.953 56.4482 112.129C53.6322 113.537 50.3043 113.857 47.2963 112.833C46.7843 112.705 47.1683 113.985 47.2323 114.113C47.4243 114.625 47.8722 115.521 48.4482 115.713C51.2002 116.545 54.1443 116.481 56.8963 115.457C59.2003 114.433 61.2482 112.897 62.7843 110.849C65.2162 107.713 67.0083 104.129 68.0323 100.289C68.0963 99.9048 68.2243 99.5848 68.4163 99.2648C69.0563 97.8568 69.6323 96.4488 70.0163 94.9128L69.7603 95.0408C70.6562 95.3608 71.5522 95.3608 72.4482 95.1048C74.8162 94.4648 76.1602 91.9688 76.9282 89.8568C77.8242 87.1688 78.3363 84.3528 78.4002 81.4728L77.9523 81.7288C78.2083 81.9208 78.4643 81.9848 78.7202 82.0488C79.4883 82.0488 80.1923 81.9208 80.8963 81.6648C82.2402 81.3448 83.5202 80.8968 84.8002 80.3208C87.2962 79.1688 89.5362 77.5048 91.3282 75.4568C92.0322 74.6888 92.6722 73.8568 93.2482 72.9608C93.5682 72.4488 94.2722 71.8088 94.3362 71.1688C94.4642 70.3368 93.9523 69.1208 93.6322 68.3528C93.2482 67.3928 92.8003 66.4328 92.2243 65.5368C89.4083 61.4408 84.7363 59.0088 80.0003 57.7288C76.7363 56.8968 73.2803 56.9608 70.0163 57.9208C60.7363 60.6088 54.0162 68.8648 49.6003 77.0568C46.7203 82.2408 44.3523 87.7448 42.5603 93.3768C41.4723 96.8328 40.5763 100.481 40.7683 104.193C40.9603 108.737 43.0722 113.537 47.4242 115.329C47.8082 115.457 48.1283 115.585 48.5123 115.713C49.0243 115.841 48.6403 114.561 48.5763 114.433C48.2563 113.985 47.8723 113.089 47.2323 112.897Z" fill="#3D3D3D"/>
<path d="M91.3282 80.1289C90.7522 80.1289 90.3042 80.5769 90.3042 81.0889C90.3042 81.1529 90.3042 81.1529 90.3042 81.2169C90.4322 82.3049 91.7762 82.1769 91.9682 81.2169C92.1602 80.7689 91.9042 80.3209 91.4562 80.1289C91.4562 80.1929 91.3922 80.1289 91.3282 80.1289Z" fill="#3D3D3D"/>
<path d="M86.4641 88.9602C86.7201 90.7522 87.8081 92.3522 89.4081 93.2482C90.3681 93.6962 91.4561 93.8882 92.5441 93.8242C92.8641 93.8242 93.1841 93.7602 93.4401 93.7602C93.5041 93.7602 93.8881 93.6962 93.9521 93.5682C94.1441 93.3122 93.1841 93.3122 93.1201 93.3122H92.9281C92.8001 93.3122 93.1841 93.3122 92.9921 93.3122C92.9281 93.3122 92.8641 93.3122 92.8001 93.3122H92.8641L92.6081 93.2482L92.4161 93.1842C92.0961 93.1202 91.8401 92.9922 91.5201 92.8642C91.0081 92.6082 90.4961 92.2242 90.1121 91.7762C89.5361 91.0722 89.0881 90.2402 88.8321 89.2802C88.7681 89.0882 88.7041 88.8962 88.7041 88.7042C88.7041 88.5762 88.3841 88.5762 88.3201 88.5762C88.0641 88.5762 87.7441 88.5762 87.4881 88.5762C87.4881 88.6402 86.4001 88.7042 86.4641 88.9602Z" fill="#3D3D3D"/>
<path d="M85.8879 112.385C82.9439 111.489 79.8079 111.297 76.7999 111.745C74.2399 112.065 71.6799 112.641 69.1199 112.897L68.2879 112.961C69.0559 112.897 67.9039 112.961 67.7759 112.961C67.5199 112.961 67.2639 112.961 67.0079 112.961C66.2399 112.961 67.5199 113.025 66.8159 112.961C66.4319 112.897 66.1119 112.897 65.7919 112.833C65.6639 112.833 64.8959 112.641 65.5359 112.769C64.9599 112.641 64.3199 112.449 63.7439 112.257C63.6799 112.257 62.9759 112.001 63.3599 112.129C63.1039 112.065 62.8479 111.937 62.5919 111.809C62.0159 111.553 61.4399 111.297 60.9279 111.041C59.9039 110.465 59.0079 109.825 58.1119 109.121C57.0239 108.225 55.0399 108.161 53.7599 108.545C52.9279 108.801 51.4559 109.569 52.6079 110.465C56.9599 113.985 62.4639 115.841 68.0319 115.841C70.9119 115.713 73.7279 115.393 76.5439 114.817C77.1839 114.689 77.8879 114.625 78.5279 114.561C78.7839 114.497 79.1039 114.497 79.3599 114.497L79.9359 114.433C79.5519 114.433 79.5519 114.433 79.9359 114.433H80.7679C81.1519 114.433 81.1519 114.433 80.7679 114.433L81.2159 114.497C81.3439 114.497 82.2399 114.689 81.6639 114.561C82.0479 114.625 82.3679 114.753 82.7519 114.881C84.0319 115.265 86.0159 115.265 87.1679 114.433C88.3199 113.601 86.7839 112.705 85.8879 112.385Z" fill="#3D3D3D"/>
<path d="M93.5681 127.041C93.2481 127.297 92.9281 127.553 92.5441 127.809C92.9281 127.553 92.4801 127.873 92.3521 127.937C92.2241 128.001 92.0321 128.193 91.8401 128.257L90.8801 128.833C90.4961 129.089 91.5201 128.513 90.8161 128.897C90.5601 129.025 90.3681 129.153 90.1121 129.217L89.5361 129.473L89.4081 129.537C89.0881 129.665 89.0881 129.665 89.4721 129.473C89.0881 129.665 88.7041 129.857 88.3201 129.921C88.1921 129.985 88.0001 130.049 87.8721 130.049L88.1921 129.921L87.8081 130.049C87.3601 130.177 86.9121 130.305 86.4641 130.369L85.9521 130.497C86.6561 130.369 85.8241 130.497 85.7601 130.497C85.3761 130.561 85.0561 130.625 84.6721 130.625L84.0321 130.689C84.4801 130.625 84.0321 130.689 83.9681 130.689C83.4561 130.689 82.9441 130.753 82.4961 130.753C80.9601 130.753 79.4241 130.625 77.8881 130.241C74.3041 129.473 71.1681 127.361 67.4561 127.425C65.2801 127.553 63.0401 127.937 60.9281 128.577C60.4801 128.705 59.9681 128.833 59.5201 128.961L58.9441 129.089C59.5201 128.961 58.6881 129.153 58.6241 129.153L58.2401 129.281C58.3041 129.281 57.4721 129.345 57.7921 129.345C58.1121 129.345 57.2801 129.345 57.3441 129.345H56.5761C52.7361 129.281 49.0881 128.001 46.0161 125.761C45.5041 125.569 44.9281 125.505 44.4161 125.633C43.5841 125.761 42.8161 126.017 42.0481 126.401C41.6001 126.657 39.4881 127.809 40.4481 128.513C43.6481 130.817 47.4241 132.161 51.3281 132.417C53.4401 132.545 55.5521 132.417 57.6001 131.969C58.6881 131.777 59.7121 131.457 60.8001 131.201C61.2481 131.073 61.7601 130.945 62.2081 130.881C63.1041 130.689 61.8881 130.945 62.4641 130.817C62.7841 130.753 63.1041 130.689 63.4241 130.689C64.3201 130.561 63.2321 130.689 63.7441 130.689C64.0001 130.689 64.1921 130.689 64.4481 130.689C64.8321 130.689 65.2161 130.753 65.6001 130.881C66.5601 131.137 67.5201 131.393 68.4161 131.777C70.2081 132.545 72.0641 133.121 73.9841 133.505C77.8881 134.145 81.8561 134.081 85.6321 133.121C90.3041 132.097 94.6561 129.985 98.3681 126.977C98.6241 126.785 99.1361 126.273 98.9441 125.889C98.7521 125.505 98.1121 125.441 97.7921 125.441C96.2561 125.505 94.7201 126.017 93.5681 127.041Z" fill="#3D3D3D"/>
<path d="M105.152 133.058C103.232 135.042 101.248 136.898 99.1363 138.626L98.3043 139.266L98.2403 139.33L97.9203 139.586C97.3443 140.034 96.7043 140.418 96.0643 140.802L95.2963 141.25C95.2323 141.314 94.7203 141.57 95.0403 141.378C95.3603 141.186 94.9763 141.442 94.9123 141.442C94.2723 141.762 93.6323 142.018 92.9923 142.274C92.3523 142.53 92.9923 142.274 93.0563 142.274C92.8643 142.338 92.7363 142.402 92.5443 142.402C92.1603 142.53 91.8403 142.594 91.5203 142.658C91.4563 142.658 91.0083 142.786 91.3283 142.722C91.6483 142.658 91.0723 142.786 91.0083 142.786C90.5603 142.85 90.1123 142.914 89.6643 142.978L89.0883 143.042H88.8963C89.2163 143.042 88.6403 143.042 88.5123 143.042H87.9363C87.1683 143.042 86.3363 142.978 85.5043 142.978C82.5603 142.786 79.4883 142.018 76.2883 141.954C72.4483 141.89 69.2483 143.49 66.4963 145.986C65.4723 146.946 64.4483 147.906 63.4243 148.802C62.9123 149.25 62.4003 149.698 61.8243 150.146C61.5683 150.402 61.2483 150.594 60.9923 150.85C60.7363 151.106 60.9283 150.914 60.9923 150.85L60.4163 151.234C59.2643 152.066 58.0483 152.834 56.8323 153.538L55.8723 154.05H55.8083L55.4243 154.242C54.7203 154.562 54.0163 154.882 53.3123 155.202L52.4163 155.586C51.9683 155.778 52.9283 155.458 52.4163 155.586L52.0323 155.714C51.3283 155.97 50.5603 156.162 49.8563 156.29L49.2803 156.418C49.4083 156.418 49.9203 156.29 49.2803 156.418C48.8963 156.482 48.5123 156.546 48.1283 156.61C47.7443 156.674 47.4883 156.674 47.1043 156.738L46.5283 156.802C46.0163 156.866 47.2323 156.802 46.3363 156.802C45.5043 156.802 44.7363 156.802 43.9043 156.738C43.8403 156.738 43.2643 156.674 43.5203 156.738C43.7763 156.802 43.0083 156.674 43.0083 156.674C42.6243 156.61 42.2403 156.546 41.9203 156.482C40.4483 156.162 39.0403 155.65 37.6323 155.074C33.9203 153.666 30.0163 152.834 26.2403 154.69C25.4723 155.074 23.6803 156.162 24.6403 157.25C25.6003 158.338 27.7123 157.826 28.7363 157.314C28.8643 157.25 29.0563 157.122 29.1843 157.122C29.1203 157.122 28.4803 157.314 29.1203 157.186H28.9283C28.6723 157.25 28.6723 157.25 28.9923 157.186H29.4403C29.8883 157.186 29.0563 157.122 29.5043 157.186C29.9523 157.25 30.2723 157.314 30.6563 157.442C31.9363 157.826 33.1523 158.21 34.3683 158.722C37.3763 159.874 40.5123 160.45 43.7123 160.45C50.3683 160.258 56.8323 158.21 62.4003 154.562C64.9603 152.898 67.3283 151.042 69.5683 148.994C70.5923 148.098 71.5523 147.074 72.6403 146.178C73.0243 145.858 72.7683 146.05 72.7043 146.114L73.1523 145.794L73.6003 145.538C73.0883 145.73 73.4723 145.602 73.6003 145.538C73.3443 145.602 73.0883 145.538 73.5363 145.538C73.4723 145.538 73.0243 145.602 73.4083 145.538C73.4723 145.538 74.0483 145.474 73.7283 145.474C73.4083 145.474 74.1123 145.474 74.1763 145.474C74.7523 145.474 75.3923 145.538 75.9683 145.666L78.5283 145.986C80.1923 146.178 81.8563 146.37 83.5843 146.498C87.0403 146.754 90.4963 146.37 93.7603 145.41C100.352 143.298 105.408 138.754 110.208 134.018C110.784 133.698 111.04 132.994 110.72 132.418C110.528 132.034 110.08 131.778 109.632 131.778C108.096 131.522 106.496 131.97 105.28 132.994L105.152 133.058Z" fill="#3D3D3D"/>
<path d="M113.216 132.353C113.28 132.673 113.344 132.993 113.408 133.249C113.408 133.377 113.6 134.145 113.472 133.761C113.6 134.401 113.664 135.105 113.728 135.809C113.856 137.153 113.856 138.433 113.792 139.777C113.792 140.417 113.728 141.057 113.664 141.697C113.6 142.337 113.6 141.889 113.664 141.761C113.664 141.953 113.6 142.145 113.6 142.273C113.536 142.657 113.472 142.977 113.408 143.361C113.152 144.641 112.768 145.921 112.32 147.137C112.192 147.457 112.064 147.713 112 148.033L111.872 148.417C111.872 148.481 111.616 148.993 111.744 148.673C111.872 148.353 111.68 148.801 111.68 148.801L111.424 149.313C111.296 149.633 111.104 149.889 110.912 150.209C110.336 151.233 109.632 152.193 108.864 153.089C108.672 153.281 108.48 153.537 108.288 153.729C108.672 153.345 108.16 153.857 108.032 153.985C107.584 154.433 107.136 154.817 106.688 155.201C106.24 155.585 105.792 155.905 105.344 156.225C105.088 156.353 104.896 156.545 104.64 156.673C104.576 156.737 104.128 156.993 104.448 156.801C104.768 156.609 104.32 156.865 104.256 156.929C103.232 157.505 102.208 158.017 101.12 158.401L100.672 158.529C100.8 158.529 101.248 158.337 100.736 158.529L100.032 158.721C99.3924 158.849 98.8164 158.977 98.1764 159.105C97.8564 159.169 97.5364 159.169 97.2804 159.169C97.0244 159.169 97.2804 159.169 97.3444 159.169H96.7684C96.0644 159.169 95.2964 159.233 94.5284 159.233C92.9924 159.233 91.4564 159.489 89.9844 159.873C84.8004 161.409 81.3444 165.377 77.8244 169.281L77.4404 169.601C77.0564 169.985 77.5684 169.473 77.3764 169.665C77.1844 169.857 76.9284 170.177 76.6724 170.369C76.1604 170.881 75.7124 171.329 75.2004 171.777C74.6884 172.225 74.1124 172.673 73.5364 173.121C73.2164 173.377 72.8964 173.569 72.5764 173.825C72.5764 173.825 72.1924 174.081 72.4484 173.889C72.7044 173.697 72.0644 174.081 72.0644 174.081C71.4884 174.401 70.8484 174.721 70.2084 174.977C70.0804 175.041 69.8884 175.105 69.7604 175.169C70.0164 175.105 70.1444 175.105 69.8244 175.169C69.5044 175.233 69.1844 175.297 68.8644 175.361L68.4164 175.425C67.9684 175.489 68.4164 175.489 68.5444 175.425C68.4164 175.553 67.6484 175.425 67.4564 175.425C67.3284 175.425 67.2004 175.361 67.0724 175.361C67.1364 175.297 67.7764 175.489 67.0724 175.361C66.6884 175.297 66.3684 175.169 65.9844 175.041C64.6404 174.529 62.5284 175.233 62.1444 176.769C61.7604 178.497 62.9764 179.713 64.4484 180.289C70.2084 182.529 76.2884 179.329 80.3844 175.361C81.4084 174.337 82.3684 173.249 83.3924 172.161C83.7764 171.713 84.1604 171.265 84.5444 170.881C84.6084 170.817 84.9284 170.497 84.5444 170.881C84.6724 170.753 84.8004 170.625 84.8644 170.497C85.1204 170.241 85.3124 169.985 85.5684 169.793C86.4644 168.897 87.3604 168.001 88.3204 167.233C88.7684 166.849 89.2804 166.529 89.7924 166.209C89.2804 166.529 89.8564 166.145 90.0484 166.081C90.3684 165.889 90.6884 165.761 91.0084 165.633C91.3284 165.505 91.5204 165.441 91.7764 165.313C91.8404 165.313 92.3524 165.121 91.9684 165.249C91.5844 165.377 91.9684 165.249 92.0324 165.249C92.8004 165.057 93.5684 164.929 94.3364 164.865H94.4004H94.9764H96.0004C96.9604 164.865 97.9204 164.801 98.8804 164.737C101.568 164.481 104.128 163.777 106.496 162.497C111.424 159.937 115.328 155.777 117.632 150.657C120.384 144.641 120.64 137.793 119.104 131.393C118.72 129.857 116.608 128.897 115.2 129.217C113.792 129.409 112.768 130.753 112.96 132.161C112.96 132.289 113.024 132.353 113.024 132.481L113.216 132.353Z" fill="#3D3D3D"/>
<path d="M78.6564 197.697V204.737V221.569V242.049V259.713V267.329C78.5924 267.649 78.5924 267.969 78.6564 268.289C78.6564 268.353 78.6564 268.353 78.6564 268.417C78.6564 268.673 81.8564 268.673 81.8564 268.225V261.185V244.353V223.873V206.209V198.529C81.9204 198.209 81.9204 197.889 81.8564 197.569C81.8564 197.505 81.8564 197.505 81.8564 197.441C81.8564 197.249 78.6564 197.313 78.6564 197.697Z" fill="#3D3D3D"/>
<path d="M66.6245 277.44L78.6565 271.808L80.3845 270.976L78.7845 271.104L90.8805 276.992C92.1605 277.632 94.4645 275.776 92.6725 274.944L81.4085 269.44C80.5765 269.056 80.0005 268.736 79.0405 269.184C78.5285 269.376 78.0165 269.632 77.5685 269.888L70.6565 273.152L65.3445 275.648C64.7685 275.904 64.1925 276.608 64.5765 277.248C64.9605 277.888 65.9845 277.696 66.6245 277.44Z" fill="#3D3D3D"/>
<path d="M65.7922 281.985C67.9837 281.985 69.7602 280.208 69.7602 278.017C69.7602 275.825 67.9837 274.049 65.7922 274.049C63.6008 274.049 61.8242 275.825 61.8242 278.017C61.8242 280.208 63.6008 281.985 65.7922 281.985Z" fill="#3D3D3D"/>
<path d="M92.9924 281.665C95.1839 281.665 96.9604 279.888 96.9604 277.697C96.9604 275.505 95.1839 273.729 92.9924 273.729C90.8009 273.729 89.0244 275.505 89.0244 277.697C89.0244 279.888 90.8009 281.665 92.9924 281.665Z" fill="#3D3D3D"/>
<path d="M108.225 190.4H51.4565V199.552H108.225V190.4Z" fill="#3D3D3D"/>
<path d="M108.224 199.873H51.4562C51.2642 199.873 51.1362 199.745 51.1362 199.553V190.401C51.1362 190.209 51.2642 190.081 51.4562 190.081H108.224C108.416 190.081 108.544 190.209 108.544 190.401V199.553C108.544 199.681 108.416 199.873 108.224 199.873ZM51.7762 199.233H107.904V190.721H51.7762V199.233Z" fill="#3D3D3D"/>
<circle cx="175.556" cy="172" r="2.22222" fill="white"/>
<path d="M179.49 181.813C186.184 181.509 192.888 181.922 199.431 182.995C199.747 183.047 199.671 179.985 198.81 179.855C192.211 178.812 185.563 178.37 178.869 178.673C178.383 178.71 178.775 181.824 179.49 181.813Z" fill="white"/>
<circle cx="173.778" cy="180.358" r="2.22222" fill="white"/>
<path d="M176.823 190.701C183.517 190.398 190.222 190.81 196.765 191.883C197.08 191.936 197.005 188.874 196.144 188.744C189.544 187.701 182.896 187.259 176.203 187.562C175.717 187.598 176.108 190.712 176.823 190.701Z" fill="white"/>
<circle cx="171.111" cy="189.247" r="2.22222" fill="white"/>
</svg>
