<svg width="320" height="320" viewBox="0 0 320 320" fill="none" xmlns="http://www.w3.org/2000/svg">
<path d="M55.2325 79.9353C52.4165 73.4713 49.6645 66.7513 49.3445 59.5833C49.0885 53.7593 50.5605 47.3593 54.7845 43.0713C58.6885 39.1033 64.3845 37.3753 69.8245 38.4633C75.2645 39.6153 79.4885 43.7113 82.6245 48.0633C84.4165 50.6873 86.0805 53.5033 87.4245 56.3833C89.2165 59.8393 90.6885 63.4873 91.8405 67.1993C92.2245 68.6073 95.3605 68.0313 94.9125 66.4313C93.8245 62.8473 92.4165 59.3913 90.6885 56.0633C89.4085 53.3113 87.8725 50.6233 86.2085 47.9993C82.8805 43.0073 78.4645 38.4633 72.5765 36.6713C66.3685 34.8153 59.6485 35.9673 54.4005 39.8073C49.1525 43.7113 46.5925 50.1753 46.2085 56.5753C45.6965 65.0233 48.8965 73.0873 52.2245 80.7033C52.8005 82.0473 55.9365 81.4713 55.2325 79.9353Z" fill="#3D3D3D"/>
<path d="M111.744 57.5352C111.744 57.5352 132.736 100.095 136.192 123.391C139.648 146.687 104.512 152.191 87.6156 154.623C70.7196 157.055 42.8156 104.511 42.4316 100.799C42.0476 97.0872 44.2876 85.3752 47.2316 82.3032C50.1756 79.2312 111.744 57.5352 111.744 57.5352Z" fill="white"/>
<path d="M110.208 57.7915C111.232 59.8395 112.128 61.8235 113.088 63.8715C115.456 68.8635 117.696 73.9195 119.872 79.0395C122.624 85.5035 125.248 92.0315 127.68 98.6875C130.048 105.087 132.032 111.551 133.632 118.207C134.4 121.023 134.848 123.903 134.912 126.847C134.912 129.471 134.272 132.031 133.12 134.399C130.752 139.135 126.336 142.463 121.792 144.895C116.48 147.711 110.72 149.503 104.896 150.911C99.6482 152.191 94.2082 153.087 88.7682 153.919L87.1042 154.175C86.6562 154.239 87.3602 154.175 86.9122 154.175C86.7842 154.175 86.2082 154.175 86.4002 154.175C86.5922 154.175 86.1441 154.175 86.0162 154.111L85.7602 154.047C85.4402 154.047 85.9522 154.111 85.6962 154.047C85.2481 153.983 84.8642 153.855 84.4161 153.727C84.1601 153.663 84.6082 153.791 84.3522 153.727L83.9682 153.599C83.7762 153.535 83.5202 153.471 83.3282 153.343C82.8802 153.151 82.4322 152.959 81.9842 152.767C81.1522 152.319 80.3202 151.807 79.4882 151.231C75.3282 148.351 71.8082 144.575 68.5442 140.735C64.7682 136.191 61.3122 131.455 58.1122 126.527C55.1042 121.983 52.3522 117.311 49.7282 112.575C47.9362 109.375 46.2722 106.175 44.8002 102.783C44.6082 102.335 44.4162 101.887 44.2882 101.439C44.3522 101.631 44.2242 101.247 44.2242 101.119C44.1602 100.927 44.1602 100.735 44.1602 100.543C44.0322 97.6635 44.6082 94.6555 45.2482 91.8395C45.8882 88.8955 46.6562 85.6315 48.4482 83.1355C48.6402 82.8155 48.9602 82.4955 49.2802 82.3035C49.3442 82.3035 49.4722 82.1755 49.2802 82.3035L49.5362 82.1755L50.1762 81.8555C53.1842 80.3195 56.3202 79.1035 59.4562 77.8875C64.1282 76.0315 68.8642 74.1755 73.6002 72.4475C78.7842 70.5275 84.0961 68.5435 89.2162 66.6875C93.8242 65.0235 98.4322 63.3595 103.04 61.6955C105.856 60.6715 108.672 59.6475 111.552 58.6875L112.704 58.2395C113.152 58.1115 113.792 57.7275 113.28 57.2795C112.64 56.8955 111.808 56.8315 111.104 57.0875C109.504 57.6635 107.904 58.2395 106.304 58.8155C102.336 60.2235 98.3041 61.6955 94.3362 63.1035C89.0882 65.0235 83.7762 66.9435 78.5282 68.8635C73.3442 70.7835 68.1602 72.7035 62.9762 74.7515C58.9442 76.2875 54.9122 77.8875 51.0082 79.6155C49.7922 80.1275 48.6402 80.7035 47.4882 81.2795C46.4002 81.7915 45.5042 82.6235 44.9282 83.6475C43.3282 86.4635 42.4962 89.7915 41.8562 92.9275C41.5362 94.5275 41.2802 96.1275 41.0882 97.7915C40.8962 98.8795 40.8962 99.9675 40.9602 101.055C41.1522 101.887 41.4722 102.719 41.8562 103.487C42.4962 104.959 43.2002 106.431 43.9042 107.839C46.0802 112.191 48.5122 116.415 51.0722 120.575C54.1442 125.631 57.4082 130.623 60.9282 135.359C64.2562 139.967 68.0322 144.319 72.1282 148.223C75.3282 151.167 79.0402 154.047 83.3282 155.135C85.3762 155.583 87.5522 155.583 89.6002 155.199C92.2242 154.815 94.8482 154.431 97.4722 153.919C103.552 152.895 109.568 151.423 115.392 149.439C120.96 147.519 126.528 145.023 131.008 141.119C135.04 137.535 137.792 132.799 137.984 127.359C138.112 124.415 137.472 121.535 136.832 118.655C136.128 115.455 135.232 112.255 134.272 109.055C132.16 102.143 129.664 95.3595 126.976 88.6395C124.544 82.4955 121.92 76.3515 119.232 70.3355C117.504 66.4955 115.776 62.7195 113.92 58.9435C113.664 58.4315 113.408 57.9195 113.152 57.4075C112.896 56.5115 109.76 56.8315 110.208 57.7915Z" fill="#3D3D3D"/>
<path d="M105.665 119.04C105.665 119.04 98.8815 105.28 98.8175 103.296C98.7535 101.312 100.417 93.0558 93.8255 90.7518C87.2335 88.4478 80.8335 91.6478 83.3295 98.4318C85.8255 105.216 92.0335 103.744 94.7855 106.56C97.5375 109.376 99.7775 120.064 101.633 121.344C103.489 122.624 106.625 121.088 105.665 119.04Z" fill="#3D3D3D"/>
<path d="M107.136 119.423C105.024 115.071 102.848 110.719 101.12 106.239C100.736 105.471 100.48 104.703 100.352 103.807C100.288 102.847 100.48 101.887 100.48 100.927C100.544 97.9828 100.096 94.7188 97.8555 92.6068C96.2555 91.0708 93.9515 90.3668 91.8395 89.8548C89.8555 89.3428 87.8075 89.3428 85.8875 89.7268C84.2875 90.0468 82.9436 91.0069 81.9836 92.3509C81.1516 93.9509 81.0235 95.8069 81.5995 97.4709C82.1115 99.3269 83.2635 101.055 84.7995 102.207C86.2715 103.231 87.9356 104.063 89.6636 104.511C90.3676 104.767 91.0715 104.959 91.8395 105.215H91.7755L92.0315 105.343C92.2875 105.407 91.9676 105.279 92.2236 105.407C92.4796 105.535 92.6716 105.663 92.8636 105.791C93.9516 106.559 94.5916 107.967 95.1036 109.119C96.5116 112.255 97.4075 115.647 98.8155 118.847C99.3915 120.063 99.9035 120.959 101.12 121.535C102.784 122.303 105.408 122.943 106.816 121.343C107.392 120.959 107.456 120.127 107.136 119.423C106.944 118.975 105.792 118.783 105.344 118.655C105.216 118.591 104 118.335 104.128 118.655C104.448 119.359 104.256 120.127 103.68 120.639C103.36 120.895 103.04 121.087 102.656 121.215C102.464 121.279 102.336 121.279 102.144 121.343C102.08 121.343 101.952 121.343 101.888 121.343C101.504 121.471 102.976 121.535 102.976 121.727C102.976 121.663 102.4 121.023 102.336 120.831C102.016 120.255 101.76 119.743 101.568 119.167C100.352 116.159 99.4555 113.087 98.1755 110.143C97.7275 108.927 97.0235 107.775 96.1275 106.879C94.9755 105.919 93.6315 105.215 92.1595 104.831C91.5195 104.639 90.8795 104.447 90.2395 104.191C89.7275 104.063 89.2156 103.871 88.7036 103.615C87.3596 102.911 86.2076 101.823 85.5036 100.479C83.8396 97.4708 83.7116 93.4388 87.1036 91.6468C89.7276 90.2388 93.5675 90.2388 95.5515 92.6068C97.3435 94.7828 97.5996 97.7269 97.4715 100.351C97.4076 101.183 97.3436 102.079 97.3436 102.911C97.4716 103.679 97.6636 104.383 97.9836 105.087C99.7116 109.631 101.888 113.983 104 118.335L104.128 118.655C104.384 119.103 105.472 119.359 105.92 119.487C106.112 119.487 107.328 119.743 107.136 119.423Z" fill="#3D3D3D"/>
<path d="M45.8884 82.8154C47.6804 86.3994 49.6004 89.9194 51.5204 93.4394C55.6164 100.991 59.7764 108.415 64.2564 115.775C68.4804 122.623 72.8324 129.663 78.2084 135.679C80.9604 138.751 84.4804 141.055 88.4484 142.335C92.8644 143.615 97.4084 144.191 102.016 143.935C108.288 143.743 114.56 142.655 120.576 140.799L120.896 140.735C121.536 140.607 121.92 139.967 121.792 139.391C121.792 139.327 121.728 139.199 121.728 139.135C121.28 138.431 120.384 138.175 119.616 138.367C118.144 138.879 116.672 139.199 115.2 139.583C114.432 139.775 113.728 139.903 112.96 140.095L111.744 140.351C111.68 140.351 111.424 140.415 111.68 140.351L111.36 140.415L110.592 140.543C108.608 140.863 106.688 141.119 104.704 141.311C96.7684 142.015 87.6164 141.439 81.7284 135.423C79.4244 132.991 77.3124 130.431 75.4564 127.679C72.9604 124.287 70.7204 120.703 68.4804 117.119C63.9364 109.823 59.6484 102.271 55.5524 94.7194C53.3124 90.5594 51.2004 86.3354 48.8964 82.2394C48.8324 82.1754 48.8324 82.1114 48.7684 82.0474C48.0644 80.5114 45.0564 81.1514 45.8884 82.8154Z" fill="#3D3D3D"/>
<path d="M250.559 272.576L245.567 272.64C245.567 272.64 231.423 278.272 232.703 280.896C233.983 283.52 244.927 283.008 254.655 282.56C266.239 281.984 264.895 279.36 261.503 272.704L250.559 272.576Z" fill="#3D3D3D"/>
<path d="M249.343 271.872C247.743 271.872 246.079 271.808 244.479 271.936C243.519 272.192 242.623 272.512 241.791 272.96C239.871 273.792 237.951 274.688 236.095 275.712C234.495 276.608 232.703 277.568 231.551 278.976C230.399 280.384 232.063 281.536 233.343 282.112C235.967 283.328 239.039 283.456 241.919 283.52C245.695 283.648 249.471 283.456 253.247 283.264C256.319 283.136 259.583 283.136 262.591 282.24C264.191 281.792 265.535 280.832 265.407 279.04C265.279 276.928 263.935 274.88 263.039 273.024C262.719 272.32 261.311 271.936 260.607 271.936L249.663 271.744C249.087 271.744 248.959 272 249.407 272.384C250.047 272.832 250.751 273.088 251.583 273.152L262.527 273.344L260.095 272.256C260.927 273.92 261.951 275.648 262.335 277.44C262.719 278.592 262.207 279.872 261.119 280.448C259.199 281.536 256.639 281.6 254.463 281.728C250.815 281.984 247.167 282.112 243.519 282.112C240.703 282.176 237.695 282.24 234.879 281.6C235.007 281.6 234.495 281.536 234.431 281.472C234.175 281.408 234.751 281.6 234.367 281.472C234.303 281.472 234.047 281.344 234.431 281.472C234.239 281.408 234.495 281.536 234.367 281.472C234.495 281.6 234.239 281.28 234.239 281.28C234.047 280.896 234.111 280.448 234.431 280.128C235.327 278.784 237.055 277.888 238.463 277.12C240.255 276.096 242.047 275.264 243.903 274.432C244.607 274.112 245.375 273.792 246.143 273.472C246.335 273.408 246.591 273.28 246.783 273.216C246.975 273.152 246.975 273.216 246.783 273.216C248.447 273.152 250.047 273.152 251.711 273.152C252.415 273.152 251.583 272.448 251.391 272.384C250.815 272.128 250.047 271.936 249.343 271.872Z" fill="#3D3D3D"/>
<path d="M237.439 207.04C237.439 207.04 249.919 267.648 249.663 269.056C249.407 270.464 237.183 276.096 238.399 276.8C239.615 277.504 242.559 277.12 251.135 275.84C259.071 274.688 261.759 274.944 261.887 273.216C262.015 271.488 258.623 214.08 258.623 214.08L237.439 207.04Z" fill="white"/>
<path d="M235.84 207.169C236.416 210.113 237.056 212.993 237.632 215.873C238.976 222.401 240.32 228.993 241.6 235.521C243.008 242.433 244.352 249.345 245.76 256.321C246.528 260.417 247.488 264.449 248 268.609C248 268.737 248.064 268.929 248.064 269.057C248.064 269.121 248.064 269.121 248.064 269.185C248.128 268.993 247.872 269.441 248 269.313C247.168 270.209 245.824 270.849 244.8 271.489C243.264 272.385 241.664 273.281 240.128 274.177C239.104 274.753 237.632 275.457 236.928 276.417C236.224 277.377 237.952 277.633 238.528 277.697C240.064 277.825 241.664 277.825 243.136 277.569C245.888 277.249 248.576 276.865 251.328 276.417C253.888 276.033 256.448 275.841 259.008 275.457C260.288 275.265 262.272 275.073 263.168 273.921C263.424 273.537 263.552 273.089 263.488 272.577C263.488 271.041 263.36 269.505 263.296 267.969C262.976 261.761 262.656 255.553 262.272 249.345C261.888 242.177 261.44 234.945 261.056 227.777C260.8 223.361 260.544 219.009 260.288 214.593L260.224 213.953C260.224 213.761 259.84 213.633 259.712 213.569L241.088 207.361L238.464 206.465C237.696 206.273 236.928 206.337 236.224 206.721C235.648 207.041 235.712 207.361 236.288 207.553L254.912 213.761L257.536 214.657L257.024 214.273L257.536 223.425C257.92 230.145 258.304 236.865 258.688 243.585C259.072 250.305 259.456 257.089 259.84 263.873C259.968 266.113 260.096 268.417 260.16 270.657C260.16 271.297 260.224 271.937 260.224 272.641C260.288 272.961 260.288 273.281 260.224 273.601C260.224 273.665 260.16 273.729 260.096 273.793C259.968 273.985 260.096 273.793 260.032 273.857C259.968 273.921 259.776 274.049 259.968 273.921C259.904 273.921 259.904 273.985 259.84 273.985C259.584 274.113 260.096 273.921 259.84 273.985L259.456 274.113C259.84 273.985 259.392 274.113 259.264 274.113L258.752 274.177C258.432 274.241 258.688 274.177 258.752 274.177L258.304 274.241C255.68 274.625 252.992 274.881 250.304 275.265C247.616 275.649 245.184 276.033 242.56 276.289C242.176 276.353 241.792 276.353 241.408 276.417C241.024 276.481 241.472 276.417 241.216 276.417H240.64H240.256C240.704 276.417 240.32 276.417 240.192 276.417L239.872 276.353C240.256 276.417 239.936 276.353 239.808 276.353C239.68 276.353 240.064 276.417 239.808 276.353C239.744 276.353 239.68 276.225 239.616 276.225C239.68 276.225 239.808 276.353 239.744 276.353C239.68 276.353 239.616 276.417 239.808 276.353C240 276.289 239.744 276.417 239.808 276.289C239.872 276.161 239.936 276.161 240 276.097C240.192 275.905 240.448 275.777 240.64 275.585C241.92 274.753 243.264 273.985 244.608 273.217C246.144 272.385 247.616 271.489 249.088 270.593C249.728 270.209 250.944 269.569 251.008 268.737C251.008 267.713 250.816 266.753 250.56 265.793C250.176 263.553 249.728 261.377 249.344 259.201C248.064 252.673 246.784 246.145 245.504 239.617C244.16 232.833 242.752 226.049 241.344 219.265C240.512 215.297 239.744 211.329 238.912 207.361L238.784 206.785C238.848 205.953 235.712 206.401 235.84 207.169Z" fill="#3D3D3D"/>
<path d="M208.383 270.72L203.391 270.784C203.391 270.784 189.247 276.416 190.527 279.04C191.807 281.664 202.751 281.152 212.479 280.704C224.063 280.128 222.719 277.504 219.327 270.848L208.383 270.72Z" fill="#3D3D3D"/>
<path d="M209.344 269.696C207.68 269.696 206.08 269.76 204.416 269.76C203.328 269.76 202.048 270.528 201.024 270.976C198.976 271.872 196.992 272.832 195.008 273.92C193.216 274.88 191.232 275.968 189.888 277.568C189.312 278.08 188.992 278.784 188.992 279.488C189.056 280.256 189.824 280.768 190.464 281.024C192.896 282.112 195.904 282.048 198.464 282.112C202.304 282.176 206.208 281.984 210.048 281.792C213.056 281.664 216.256 281.664 219.136 280.576C221.056 279.872 223.232 278.464 223.104 276.16C222.976 273.984 221.632 271.872 220.672 270.016C220.608 269.888 220.416 269.824 220.288 269.824L209.344 269.696C208.576 269.696 207.872 270.08 207.36 270.592C207.104 270.848 206.656 271.68 207.36 271.744L218.304 271.936L217.92 271.744C218.752 273.216 219.456 274.816 220.032 276.416C220.224 276.928 220.288 277.44 220.224 277.952C220.224 278.144 220.16 278.336 220.096 278.464C220.032 278.72 220.16 278.336 220.032 278.592C220.032 278.656 219.904 278.848 220.096 278.528C220.096 278.592 219.968 278.656 219.968 278.656C219.968 278.656 220.224 278.464 220.032 278.592C219.968 278.656 219.776 278.72 220.16 278.528C219.84 278.72 220.288 278.528 220.096 278.592C220.032 278.656 219.584 278.784 219.904 278.656C219.712 278.72 219.456 278.784 219.264 278.848C218.304 279.104 217.344 279.232 216.384 279.36C213.312 279.68 210.176 279.744 207.104 279.872C204.16 280 201.216 280.064 198.208 279.872C196.416 279.744 194.24 279.744 192.576 278.784C192.384 278.656 192.192 278.528 192 278.336C191.808 278.08 191.808 278.08 191.872 277.888C191.936 277.696 191.872 277.888 191.872 277.824C191.872 277.76 192 277.504 191.872 277.76C191.936 277.696 192 277.568 192.064 277.504C191.872 277.824 192.128 277.44 192.256 277.312C192.512 276.992 192.192 277.376 192.384 277.184C192.576 276.992 192.64 276.928 192.832 276.864L193.216 276.544C192.96 276.672 193.408 276.416 193.216 276.544L193.536 276.288C194.24 275.776 195.008 275.392 195.776 274.944C195.84 274.944 196.032 274.816 195.84 274.944L196.16 274.752L196.864 274.368L198.208 273.728C199.04 273.344 199.872 272.96 200.768 272.576C201.664 272.192 202.496 271.808 203.392 271.488L202.432 271.744L207.424 271.68C208.192 271.616 208.896 271.296 209.408 270.72C209.6 270.528 210.112 269.632 209.344 269.696Z" fill="#3D3D3D"/>
<path d="M208.256 201.28C208.256 201.28 207.744 265.728 207.488 267.136C207.232 268.544 195.008 274.176 196.224 274.88C197.44 275.584 200.384 275.2 208.96 273.92C216.896 272.768 219.584 273.024 219.712 271.296C219.84 269.568 228.16 204.16 228.16 204.16L208.256 201.28Z" fill="white"/>
<path d="M206.655 201.023L206.591 210.879C206.527 218.111 206.463 225.343 206.399 232.575C206.335 240.063 206.271 247.551 206.143 255.039C206.143 257.663 206.079 260.287 206.015 262.911C206.015 264.191 205.823 265.471 205.887 266.751C205.887 266.815 205.887 266.815 205.887 266.879C205.887 266.943 206.015 266.431 205.951 266.687C206.079 266.623 206.143 266.239 205.951 266.687C205.887 266.751 205.823 266.815 205.759 266.879C206.079 266.559 205.759 266.879 205.695 266.943C205.439 267.135 205.119 267.327 204.799 267.519C203.263 268.543 201.599 269.439 199.999 270.335C198.527 271.103 197.183 271.935 195.839 272.895C195.263 273.215 194.815 273.791 194.623 274.431C194.495 275.327 195.199 275.903 195.967 276.223C197.247 276.735 198.783 276.607 200.127 276.479C202.751 276.223 205.375 275.839 208.063 275.455C210.943 275.071 213.887 274.751 216.831 274.303C218.239 274.111 219.967 273.919 220.927 272.703C221.631 271.807 221.567 270.207 221.695 269.119C221.951 266.879 222.271 264.575 222.527 262.335C223.423 255.231 224.319 248.127 225.151 241.087C226.111 233.535 227.071 225.919 228.031 218.367L229.695 204.927L229.759 204.287C229.759 203.455 229.183 202.751 228.351 202.687L211.007 200.127L208.511 199.743C207.807 199.551 206.975 199.935 206.783 200.703C206.591 201.407 206.975 202.239 207.743 202.431C207.871 202.495 207.999 202.495 208.191 202.495L225.535 205.055L228.031 205.439L226.623 203.839C226.239 206.911 225.855 209.983 225.471 213.119C224.575 220.095 223.679 227.135 222.783 234.175C221.823 241.663 220.927 249.087 219.967 256.575C219.391 261.119 218.815 265.663 218.303 270.271C218.239 270.591 218.175 270.911 218.175 271.295C218.175 271.487 218.303 270.975 218.175 271.295C218.175 271.231 218.367 271.039 218.175 271.231C218.111 271.295 218.495 271.039 218.175 271.231C217.983 271.359 218.495 271.103 218.111 271.231C217.983 271.295 217.855 271.295 217.727 271.359C217.599 271.423 217.279 271.487 217.599 271.423C217.151 271.487 216.703 271.615 216.255 271.679C213.375 272.063 210.495 272.383 207.679 272.831C205.055 273.215 202.431 273.663 199.743 273.855C199.359 273.855 199.039 273.919 198.655 273.919H198.143C197.695 273.919 198.399 273.983 198.015 273.919L197.311 273.855C196.927 273.791 197.631 273.919 197.375 273.855C197.311 273.791 197.183 273.791 197.119 273.727C197.695 273.791 198.143 275.071 197.695 275.391C197.759 275.327 197.823 275.263 197.887 275.199C198.143 275.071 197.567 275.391 197.951 275.135C198.527 274.751 199.103 274.367 199.679 273.983C201.279 273.023 202.943 272.127 204.543 271.167C205.951 270.463 207.295 269.567 208.511 268.543C209.471 267.647 209.279 266.495 209.343 265.279C209.407 263.103 209.407 260.991 209.471 258.815C209.535 251.839 209.663 244.927 209.727 237.951C209.791 230.463 209.855 222.975 209.919 215.487L210.047 202.111V201.471C210.047 200.639 209.471 199.999 208.639 199.871C207.743 199.807 206.655 200.191 206.655 201.023Z" fill="#3D3D3D"/>
<path d="M207.104 153.663C207.104 153.663 194.816 246.143 203.968 259.263C213.12 272.383 227.968 267.647 232.384 251.839C233.728 246.975 228.224 214.335 228.224 214.335C228.224 214.335 230.464 253.055 240.832 261.695C251.2 270.335 265.024 268.607 267.2 252.863C269.376 237.119 254.08 152.063 254.08 152.063L207.104 153.663Z" fill="white"/>
<path d="M205.823 152.704C205.567 154.752 205.311 156.8 205.055 158.848C204.415 164.096 203.775 169.344 203.263 174.656C202.495 181.824 201.791 188.992 201.215 196.096C200.575 203.84 199.999 211.584 199.679 219.328C199.359 226.304 199.167 233.344 199.423 240.32C199.615 245.312 199.807 250.496 201.279 255.232C201.983 257.472 203.199 259.584 204.799 261.312C207.743 264.704 211.839 267.584 216.383 267.904C220.287 268.16 224.127 266.752 226.943 264.128C228.607 262.592 230.015 260.8 231.103 258.816C232.255 256.832 233.151 254.656 233.663 252.416C234.111 250.176 233.727 247.68 233.599 245.44C233.279 241.728 232.831 238.08 232.319 234.368C231.487 228.288 230.591 222.208 229.567 216.128C229.503 215.744 229.439 215.296 229.375 214.912C229.311 214.336 228.479 213.696 228.031 213.44C227.903 213.376 226.879 212.8 226.879 213.312C227.135 217.28 227.519 221.312 228.031 225.28C228.991 232.96 230.271 240.768 232.639 248.192C233.599 251.52 234.943 254.72 236.735 257.728C238.847 260.992 241.727 263.616 245.183 265.344C248.703 267.264 252.863 268.416 256.895 267.712C260.607 267.072 263.871 264.832 265.791 261.568C268.735 256.64 268.799 250.944 268.479 245.376C268.159 239.104 267.455 232.832 266.687 226.624C265.727 218.944 264.703 211.264 263.551 203.584C262.399 195.904 261.247 188.352 259.967 180.736C258.943 174.656 257.919 168.512 256.895 162.432C256.319 159.296 255.807 156.16 255.231 153.088C255.231 152.96 255.167 152.832 255.167 152.704C254.783 151.744 253.887 151.04 252.863 150.848L236.991 151.36L211.839 152.32L206.015 152.512C205.439 152.512 206.335 153.664 206.399 153.728C206.847 154.304 207.423 154.624 208.127 154.752L223.999 154.24L249.279 153.408L255.103 153.216L252.799 151.424C253.183 153.536 253.567 155.584 253.887 157.696C254.847 163.008 255.743 168.32 256.639 173.632C257.855 180.864 259.007 188.032 260.095 195.264C261.311 202.88 262.399 210.56 263.423 218.24C264.319 224.96 265.087 231.68 265.663 238.4C265.983 242.752 266.495 247.232 265.983 251.584C265.535 255.616 264.063 259.776 260.991 262.528C258.303 264.96 254.655 266.048 251.071 265.6C247.295 265.088 243.711 263.488 240.831 260.928C240.511 260.672 241.023 261.12 240.767 260.864C240.639 260.736 240.575 260.608 240.447 260.544L240.191 260.288C240.319 260.416 240.191 260.224 240.127 260.224L239.935 259.968C239.551 259.456 239.167 258.944 238.847 258.368C238.015 257.024 237.375 255.616 236.799 254.144C233.919 247.104 232.447 239.488 231.359 232C230.591 226.752 229.951 221.376 229.567 216.064C229.567 215.808 229.503 215.488 229.503 215.232L227.007 213.632C227.007 213.696 227.007 213.824 227.071 213.888C227.135 213.952 227.135 214.272 227.071 214.016C227.071 214.208 227.135 214.336 227.135 214.528C227.327 215.488 227.455 216.512 227.647 217.472C228.159 220.608 228.607 223.808 229.119 226.944C230.079 233.792 231.231 240.704 231.359 247.616C231.423 248.576 231.359 249.536 231.231 250.432C230.783 252.544 230.015 254.528 228.927 256.384C226.943 260.032 223.871 263.424 219.903 264.896C216.447 266.24 212.543 265.856 209.343 263.936C207.615 262.784 206.143 261.312 204.991 259.584C204.607 259.072 205.055 259.776 204.799 259.264C204.735 259.136 204.607 258.944 204.543 258.816L204.415 258.56C204.287 258.304 204.479 258.688 204.415 258.496C204.351 258.304 204.287 258.112 204.159 257.92C202.559 253.76 202.303 249.088 202.047 244.672C201.663 238.016 201.791 231.36 202.047 224.768C202.303 217.216 202.815 209.664 203.391 202.048C203.967 194.816 204.607 187.584 205.375 180.352C205.951 174.656 206.591 169.024 207.295 163.328C207.615 160.512 207.999 157.632 208.319 154.816C208.319 154.688 208.383 154.56 208.383 154.432C208.511 153.664 205.951 152 205.823 152.704Z" fill="#3D3D3D"/>
<path d="M218.048 164.735L219.392 172.863L222.592 192.383L226.432 215.871L229.76 236.159L230.848 242.879C230.976 243.967 231.104 244.991 231.36 246.015C231.36 246.079 231.36 246.143 231.36 246.143C231.488 246.911 234.624 246.719 234.56 246.207L233.216 238.079L230.016 218.559L226.176 195.071L222.848 174.783L221.76 168.063C221.632 166.975 221.504 165.951 221.248 164.927C221.248 164.863 221.248 164.863 221.248 164.799C221.12 164.031 217.984 164.223 218.048 164.735Z" fill="#3D3D3D"/>
<path d="M230.273 89.3446C230.273 89.3446 229.569 85.5046 218.433 91.3286C218.433 91.3286 157.505 127.937 203.713 158.657L256.961 155.457C299.009 162.113 269.697 102.913 230.273 89.3446Z" fill="#3D3D3D"/>
<path d="M231.297 90.4962C230.913 89.2162 230.081 88.0642 228.929 87.3602C227.585 86.4642 225.729 86.8482 224.257 87.2322C221.249 88.0642 218.369 89.4082 215.809 91.1362C209.921 94.9762 204.417 99.4562 199.489 104.448C193.153 110.848 187.201 118.784 185.729 127.936C185.025 132.608 185.665 137.408 187.713 141.696C190.401 147.52 194.817 152.384 199.745 156.352C200.449 156.928 201.153 157.504 201.921 158.016L203.073 158.848C203.521 159.232 203.969 159.552 204.481 159.808C204.673 159.872 204.865 159.936 205.057 159.872L207.681 159.744L218.881 159.104L248.321 157.376L257.089 156.864C258.049 156.864 258.945 156.928 259.905 157.056C262.401 157.376 264.897 157.376 267.393 157.056C270.913 156.608 274.433 155.2 276.481 152.192C278.401 149.376 278.849 145.792 278.529 142.464C278.081 137.984 276.545 133.568 274.561 129.536C272.129 124.48 269.121 119.744 265.601 115.328C257.921 105.6 248.449 97.1522 237.441 91.5202C234.881 90.1762 232.193 89.0242 229.441 88.1282C229.121 88.0002 229.825 89.1522 229.825 89.2162C230.145 89.6642 230.657 90.4322 231.169 90.6242C237.889 92.9922 244.161 96.4482 249.857 100.8C252.673 102.912 255.361 105.28 257.921 107.712C260.289 110.016 262.529 112.448 264.577 115.072C266.561 117.504 268.353 120.064 269.953 122.752C271.425 125.248 272.769 127.808 273.857 130.496C275.649 134.848 276.993 139.776 276.353 144.512C275.905 148.352 273.473 151.68 269.953 153.28C267.713 154.24 265.345 154.688 262.913 154.752C261.313 154.816 259.777 154.752 258.177 154.56C257.409 154.432 256.577 154.304 255.809 154.304C252.929 154.368 249.985 154.624 247.105 154.816L230.401 155.84L213.185 156.864L203.201 157.44H202.689L202.945 157.504C200.577 155.968 198.273 154.24 196.161 152.32C195.265 151.552 194.433 150.656 193.601 149.824C193.281 149.44 192.961 149.056 192.641 148.672C192.513 148.48 191.937 147.776 191.809 147.648C189.633 144.704 188.161 141.248 187.585 137.6C186.497 130.56 188.929 123.648 192.577 117.76C196.225 111.872 201.217 106.688 206.465 102.144C210.049 99.0082 213.889 96.1282 217.921 93.5042C219.457 92.4802 221.121 91.6482 222.849 90.9442C224.641 90.1762 226.689 89.3442 228.673 89.4082C229.185 89.4082 229.633 89.4722 230.081 89.6642C230.081 89.6642 230.337 89.8562 230.401 89.8562C230.337 89.9202 229.505 88.8322 229.377 88.5762C229.377 88.6402 229.121 88.1282 229.249 88.2562C229.377 88.3842 229.249 88.1282 229.249 88.1922C229.441 88.8322 229.825 89.4082 230.273 89.8562C230.401 89.9842 231.361 90.8162 231.297 90.4962Z" fill="#3D3D3D"/>
<path d="M243.392 75.0083C243.776 55.4883 231.04 51.4564 222.336 51.7124C213.632 51.9684 208.256 55.8084 207.04 59.5204C206.08 62.3364 214.144 77.5044 214.144 77.5044L230.336 89.3444C230.272 89.3444 243.072 89.9203 243.392 75.0083Z" fill="#3D3D3D"/>
<path d="M206.656 86.4634C200.832 80.8314 207.808 62.7194 207.808 62.7194C210.944 62.0154 216 58.8154 216 58.8154C214.784 68.4154 226.112 70.6554 226.112 70.6554C228.16 65.4074 234.304 67.0074 234.176 72.0634C234.048 77.1194 229.184 77.8874 229.184 77.8874C229.184 77.8874 232.192 90.2394 231.808 92.2874C231.808 92.2874 223.808 98.3674 218.368 91.2634C218.432 91.3274 210.624 90.3034 206.656 86.4634Z" fill="white"/>
<path d="M208.065 85.8234C205.441 83.2634 205.633 78.7834 206.017 75.4554C206.465 71.8074 207.297 68.1594 208.513 64.7034C208.769 63.9354 209.025 63.1674 209.281 62.3994L207.553 63.4234C210.881 62.5914 214.017 60.8634 216.897 59.0714L214.465 59.2634C214.017 62.3354 215.105 65.4714 217.345 67.6474C219.073 69.2474 221.185 70.3994 223.489 71.1034C223.937 71.2954 224.449 71.4234 224.961 71.4874C225.729 71.6154 227.329 71.2314 227.649 70.3994C227.969 69.5674 228.545 68.7994 229.249 68.2874C229.121 68.3514 229.185 68.3514 229.313 68.2874C229.249 68.3514 229.185 68.3514 229.057 68.3514C229.377 68.3514 228.929 68.3514 229.249 68.3514C229.505 68.3514 229.825 68.4154 230.081 68.4794C231.681 68.9914 232.513 70.5274 232.641 72.1274C232.833 73.9194 232.129 75.7114 230.785 76.8634C230.721 76.9274 230.593 76.9914 230.529 77.0554L230.337 77.1834C230.465 77.1194 230.529 77.1194 230.337 77.1834L230.017 77.3114C230.465 77.1194 230.017 77.3114 229.953 77.3114C229.441 77.5034 230.209 77.2474 229.697 77.3754C229.313 77.4394 229.825 77.3754 229.825 77.3754C229.377 77.4394 227.521 77.8874 227.713 78.6554C228.225 80.7674 228.737 82.8794 229.185 84.9914C229.505 86.5914 229.825 88.1914 230.081 89.7914C230.337 90.8154 230.401 91.8394 230.337 92.8634L230.657 92.4794C230.465 92.6074 230.593 92.4794 230.721 92.4154C230.529 92.5434 230.401 92.6714 230.209 92.7354C230.017 92.7994 229.697 92.9914 229.505 93.1194C229.825 92.9914 229.377 93.1834 229.313 93.2474C229.121 93.3754 228.929 93.4394 228.673 93.5034C228.417 93.5674 228.609 93.5034 228.673 93.5034L228.417 93.6314L227.841 93.8234C228.097 93.7594 227.585 93.8874 227.457 93.8874C227.265 93.9514 227.073 93.9514 226.817 94.0154C225.921 94.1434 224.961 94.0794 224.065 93.8234C222.913 93.5034 221.889 92.8634 221.057 92.0314C220.481 91.5194 220.161 90.7514 219.393 90.6234C217.921 90.3674 216.449 89.9834 214.977 89.5994C212.417 88.8954 210.049 87.6154 208.065 85.8874C207.425 85.3114 204.609 86.5914 205.249 87.2314C207.297 89.2154 210.049 90.3034 212.737 91.1354C214.209 91.5834 215.681 91.9674 217.217 92.1594L216.897 91.9674C218.817 94.5274 221.953 95.9354 225.153 95.5514C227.649 95.2954 230.017 94.3994 232.129 93.0554C232.577 92.7994 233.217 92.4794 233.345 91.9674C233.409 91.1994 233.409 90.3674 233.217 89.6634C232.897 87.2314 232.385 84.8634 231.873 82.4954C231.489 80.8314 231.105 79.1674 230.721 77.5034L228.609 78.7834C231.361 78.3354 234.369 76.6074 235.329 73.8554C235.969 72.1274 235.905 69.9514 234.689 68.4794C233.601 67.1994 231.873 66.5594 230.209 66.8794C227.777 67.1994 225.665 68.7994 224.705 71.1034L227.393 70.0154C223.873 69.3114 220.033 67.1354 218.369 63.8074C217.601 62.1434 217.281 60.3514 217.537 58.5594C217.665 57.6634 215.425 58.5594 215.105 58.7514C213.121 60.0314 211.073 61.1194 208.833 61.9514C208.065 62.2074 206.657 62.3994 206.209 63.4234C206.017 63.9354 205.825 64.5114 205.633 65.0874C204.033 69.8234 202.753 74.8154 202.817 79.8074C202.817 82.4314 203.265 85.3114 205.249 87.2314C205.825 87.6794 208.641 86.3994 208.065 85.8234Z" fill="#3D3D3D"/>
<path d="M221.376 77.8881C221.504 78.2721 221.568 78.5921 221.632 78.9761L221.568 78.6561C221.632 79.2321 221.632 79.7441 221.568 80.3201L221.632 80.0001C221.568 80.2561 221.504 80.5121 221.376 80.7041L221.568 80.3841C221.504 80.5121 221.376 80.6401 221.248 80.7681L221.504 80.5121C221.44 80.5761 221.312 80.7041 221.184 80.7041L221.504 80.5121C221.376 80.5761 221.248 80.6401 221.12 80.6401L221.504 80.5761C221.312 80.6401 221.184 80.6401 220.992 80.6401H221.44C221.184 80.6401 220.928 80.5761 220.672 80.5121L221.12 80.6401H220.992C220.608 80.5121 220.16 80.5121 219.776 80.6401C219.456 80.7681 219.136 81.0241 219.008 81.3441C218.88 82.1121 219.328 82.8801 220.096 83.0721C221.056 83.3921 222.08 83.3921 223.04 83.0721C223.744 82.7521 224.32 82.1761 224.576 81.4721C224.896 80.3841 224.896 79.2961 224.576 78.2081C224.512 78.0161 224.448 77.7601 224.384 77.5681C224.256 77.1841 224 76.9281 223.68 76.6721C223.296 76.4801 222.912 76.3521 222.464 76.4161C222.08 76.4801 221.76 76.6081 221.504 76.9281C221.312 77.1841 221.248 77.5681 221.312 77.9521L221.376 77.8881Z" fill="#3D3D3D"/>
<path d="M211.456 72.3838C209.728 73.8558 207.808 75.0078 205.696 75.9038C198.72 79.0398 198.592 81.7918 201.216 82.6238C203.84 83.4558 213.44 79.7438 213.44 79.7438" fill="white"/>
<path d="M210.24 71.6159C210.048 71.8079 210.496 71.4239 210.432 71.4879C210.368 71.5519 210.176 71.6799 210.048 71.8079C209.6 72.1279 209.152 72.4479 208.704 72.7679C207.168 73.7279 205.568 74.5599 203.904 75.3279C202.368 76.0319 200.896 76.9919 199.616 78.1439C198.848 78.8479 198.272 79.7439 198.08 80.7679C197.76 82.8799 199.936 84.0319 201.728 84.0959C204.16 84.1599 206.592 83.3279 208.896 82.6239C210.56 82.1119 212.224 81.5359 213.824 80.8959C214.464 80.6399 215.104 79.8079 214.784 79.1039C214.464 78.3999 213.504 78.2719 212.8 78.5279C211.648 78.9759 210.432 79.4239 209.216 79.8079L207.616 80.3199L207.232 80.4479H207.104L206.272 80.7039C205.248 80.9599 204.16 81.2159 203.136 81.3439L202.816 81.4079C202.752 81.4079 202.368 81.4079 202.624 81.4079C202.88 81.4079 202.56 81.4079 202.496 81.4079H202.24H201.984C201.728 81.4079 201.92 81.3439 202.048 81.4079C201.856 81.3439 201.728 81.3439 201.536 81.3439C201.472 81.3439 201.792 81.4719 201.536 81.3439L201.344 81.2159L201.152 81.0879C201.344 81.2159 201.344 81.2799 201.216 81.0879C201.216 81.0239 201.152 80.9599 201.088 80.9599C201.024 80.9599 201.344 81.1519 201.152 81.0239C201.088 81.0239 201.152 80.8959 201.088 80.8319C201.152 80.8959 201.024 81.0879 201.088 80.8959C201.088 80.8959 201.088 80.5119 201.088 80.8319C201.088 81.1519 201.088 80.8319 201.088 80.7679C201.088 80.7039 201.152 80.4479 201.088 80.7039C201.024 80.9599 201.088 80.6399 201.152 80.5759C201.216 80.5119 201.216 80.4479 201.28 80.3199C201.088 80.5119 201.408 80.1279 201.28 80.3199C201.472 80.1279 201.6 79.9359 201.792 79.7439C201.856 79.6799 202.048 79.4879 201.856 79.6799C201.984 79.5519 202.048 79.4879 202.176 79.4239C202.432 79.2319 202.752 79.0399 203.008 78.8479C203.648 78.3999 204.352 78.0159 205.056 77.6959C207.616 76.4159 210.24 75.1999 212.416 73.2159C212.928 72.7679 212.928 71.9999 212.48 71.5519C212.416 71.4879 212.352 71.4239 212.288 71.3599C211.52 70.9759 210.624 71.1679 210.112 71.7439L210.24 71.6159Z" fill="#3D3D3D"/>
<path d="M215.616 70.272C215.04 70.336 214.656 70.912 214.72 71.424C214.72 71.488 214.72 71.552 214.784 71.552C215.104 72.64 216.448 72.256 216.512 71.232C216.576 70.784 216.256 70.272 215.808 70.208C215.68 70.272 215.68 70.272 215.616 70.272Z" fill="#3D3D3D"/>
<path d="M207.936 69.9521C207.36 70.0161 206.976 70.5921 207.04 71.1041C207.04 71.1681 207.04 71.2321 207.104 71.2961C207.424 72.3841 208.768 72.0001 208.832 70.9761C208.896 70.4641 208.576 70.0161 208.064 69.9521C208 69.9521 207.936 69.9521 207.936 69.9521Z" fill="#3D3D3D"/>
<path d="M236.416 80.5754C238.144 84.4154 242.88 91.5834 247.744 87.5514C250.112 85.5674 251.904 81.4714 249.664 78.7834C248 76.7354 244.544 76.2874 242.688 78.2714C240.192 80.9594 242.432 85.3754 244.16 87.8074C246.272 90.7514 249.536 93.4394 253.12 94.2074C254.592 94.5914 256.128 94.3354 257.344 93.4394C258.432 92.4154 258.944 90.8794 258.688 89.3434C258.368 86.7194 256.064 85.0554 253.632 84.4794C251.52 83.9674 248.768 84.1594 247.232 85.8234C245.12 88.1274 246.784 91.3274 248.384 93.3754C249.088 94.2714 249.856 95.0394 250.624 95.8074C251.2 96.4474 252.096 96.5754 252.864 96.1914C253.504 95.8714 253.696 95.0394 253.312 94.4634C253.248 94.3994 253.184 94.3354 253.184 94.2714C251.968 93.1834 250.944 91.9034 250.048 90.5594C249.92 90.3034 249.792 90.0474 249.664 89.7914C249.6 89.6634 249.536 89.5354 249.536 89.4074C249.6 89.6634 249.536 89.3434 249.536 89.2794C249.472 89.0874 249.472 88.8954 249.472 88.6394C249.408 88.8954 249.472 88.5754 249.472 88.6394C249.472 88.5754 249.472 88.4474 249.536 88.3194C249.6 88.1914 249.6 88.1274 249.6 88.0634C249.536 88.2554 249.536 88.3194 249.6 88.0634C249.664 87.9994 249.664 87.9354 249.728 87.8714C249.6 87.9994 249.856 87.6154 249.728 87.8714C249.856 87.7434 249.92 87.6154 250.048 87.5514C249.728 87.8714 250.112 87.5514 250.24 87.4234C250.368 87.2954 250.624 87.2954 250.24 87.4234C250.304 87.4234 250.368 87.3594 250.496 87.3594L251.072 87.2314C250.752 87.2954 251.136 87.2314 251.072 87.2314L251.392 87.1674C251.584 87.1674 251.84 87.1674 252.032 87.1674H252.352C252.544 87.1674 252.8 87.2314 252.992 87.2954L253.312 87.3594C252.992 87.2314 253.568 87.4234 253.312 87.3594C253.632 87.4874 253.76 87.4874 253.952 87.6154L254.208 87.7434C253.952 87.5514 254.464 87.8714 254.208 87.7434C254.464 87.9354 254.592 87.9994 254.72 88.1274L254.976 88.3194C254.784 88.0634 255.04 88.3834 254.976 88.3194C255.168 88.5754 255.296 88.6394 255.424 88.8314C255.296 88.5754 255.488 88.8954 255.424 88.8314C255.488 88.8954 255.488 89.0234 255.552 89.0874C255.616 89.1514 255.616 89.2794 255.68 89.3434C255.744 89.4074 255.68 89.1514 255.68 89.4074C255.744 89.8554 255.744 90.3034 255.68 90.7514C255.68 90.8794 255.616 91.1354 255.68 90.8794C255.616 91.0074 255.616 91.0714 255.552 91.1994C255.488 91.3274 255.424 91.4554 255.552 91.2634C255.488 91.3274 255.424 91.4554 255.296 91.5194H255.232C254.976 91.6474 255.488 91.4554 255.232 91.5194C255.168 91.5834 255.04 91.5834 254.912 91.5834C255.232 91.5194 255.04 91.5834 254.848 91.5834H254.528C254.464 91.5834 254.784 91.6474 254.464 91.5834C254.144 91.5194 253.888 91.5194 253.568 91.4554H253.632L253.44 91.3914L253.056 91.2634C252.736 91.1354 252.416 91.0074 252.096 90.8794C250.88 90.2394 249.792 89.4074 248.768 88.4474C247.616 87.3594 246.656 86.0794 245.952 84.6714C245.568 84.0314 245.312 83.3274 245.12 82.5594C245.056 82.2394 244.992 81.9194 244.992 81.6634C244.992 81.5994 244.992 81.2154 244.992 81.4714C244.992 81.3434 244.992 81.1514 245.056 81.0234C245.056 80.8954 245.12 80.7674 245.12 80.6394C245.184 80.3834 245.056 80.8314 245.12 80.5754C245.184 80.5114 245.184 80.3834 245.248 80.3194C245.312 80.1274 245.056 80.4474 245.312 80.2554C245.376 80.1914 245.44 80.1274 245.504 80.0634C245.44 80.1274 245.696 79.8714 245.504 80.0634L245.76 79.9354C245.888 79.8074 245.44 80.0634 245.632 79.9994L245.824 79.9354L246.08 79.8714C246.144 79.8714 245.76 79.8714 246.016 79.8714C246.08 79.8714 246.208 79.8714 246.272 79.8714C246.464 79.9354 246.912 80.0634 246.528 79.8714C246.656 79.9354 247.232 80.2554 246.848 79.9994C247.04 80.1274 247.168 80.1914 247.296 80.3194C246.976 80.0634 247.424 80.4474 247.488 80.5754C247.552 80.7034 247.424 80.3834 247.488 80.6394C247.552 80.7674 247.616 80.8314 247.616 80.9594C247.744 81.2154 247.616 80.7674 247.616 81.0234C247.616 81.1514 247.68 81.2794 247.68 81.4074C247.68 81.5354 247.68 81.7914 247.68 81.6634C247.68 81.5354 247.68 81.8554 247.68 81.9194C247.68 82.2394 247.552 82.5594 247.488 82.8154C247.552 82.6874 247.36 83.0714 247.36 83.1354C247.296 83.2634 247.232 83.4554 247.168 83.5834C247.04 83.9674 246.848 84.3514 246.656 84.6714C246.336 85.1834 245.888 85.6314 245.376 85.9514C245.12 86.0794 245.504 85.8874 245.248 86.0154C245.12 86.0794 245.056 86.0794 244.928 86.1434C245.248 86.0794 244.992 86.2074 244.864 86.1434C244.672 86.0154 245.12 86.2074 244.8 86.1434C244.736 86.1434 244.352 86.0794 244.608 86.1434C244.864 86.2074 244.48 86.0794 244.416 86.0794C244.352 86.0794 244.16 85.9514 244.032 85.8874C243.776 85.7594 244.16 86.0154 243.904 85.8234C243.648 85.6314 243.52 85.5034 243.264 85.3754L243.072 85.1834L242.816 84.9274C242.432 84.4794 242.048 84.0314 241.664 83.5834C241.472 83.3914 241.344 83.1354 241.216 82.9434C241.152 82.8154 241.088 82.6874 241.024 82.6234C240.896 82.4314 241.088 82.7514 240.896 82.4314C240.448 81.7274 240.064 81.0234 239.68 80.2554C239.616 80.1274 239.552 79.9994 239.488 79.8714C238.784 78.2714 235.712 79.0394 236.544 80.8314L236.416 80.5754Z" fill="#3D3D3D"/>
<path d="M212.031 92.9923C201.215 92.9923 190.015 105.728 190.015 105.728C188.543 104.896 187.071 104.192 185.471 103.552C183.103 102.656 181.119 105.088 181.119 105.088C181.119 105.088 108.031 52.4163 103.679 51.7763C99.3266 51.1363 96.7666 56.5123 97.2146 58.0483C97.6626 59.5843 107.391 64.5123 107.391 64.5123C107.391 64.5123 101.119 72.3203 101.119 73.4083C101.119 74.4963 102.847 76.8643 105.023 77.0563C107.199 77.2483 114.111 70.1443 114.111 70.1443L119.743 74.6883C119.743 74.6883 116.287 80.5123 116.095 82.6883C115.903 84.8643 117.375 85.5043 118.719 85.9523C120.063 86.4003 125.823 79.2963 125.823 79.2963L177.599 112.96C177.599 112.96 175.231 114.688 176.063 116.864C176.895 119.04 183.167 119.872 183.167 119.872C178.175 129.344 177.919 151.808 196.479 159.36C215.039 166.912 234.495 145.536 236.415 124.8C238.335 104.064 222.847 92.9923 212.031 92.9923ZM227.391 134.464C218.111 158.016 194.431 158.336 187.903 138.56C181.375 118.784 202.815 104 202.815 104C216.575 93.8883 236.671 110.912 227.391 134.464Z" fill="#CECECE"/>
<path d="M213.247 92.0959C208.511 92.1599 204.031 94.3359 200.127 96.8319C196.671 99.0719 193.471 101.696 190.527 104.576C189.951 105.152 189.311 105.792 188.799 106.432L191.359 104.896C190.655 104.448 189.887 104.064 189.119 103.744C187.967 103.168 186.559 102.4 185.215 102.592C183.231 102.848 181.183 104.384 179.903 105.856L182.463 104.32C181.503 103.616 180.543 102.976 179.647 102.272C177.087 100.48 174.591 98.6239 172.031 96.8319C168.383 94.2719 164.799 91.6479 161.151 89.0879C156.863 86.0799 152.639 83.0719 148.351 79.9999C143.935 76.8639 139.519 73.7919 135.039 70.6559C130.879 67.7759 126.783 64.8959 122.623 62.0799C119.295 59.7759 115.967 57.5359 112.575 55.3599C110.527 54.0159 108.415 52.6719 106.239 51.5199C105.599 51.1359 104.895 50.8799 104.127 50.8799C102.271 50.8799 100.543 52.0319 99.1351 53.1199C97.9191 54.0799 96.9591 55.2319 96.3191 56.6399C95.9991 57.3439 95.5511 58.4319 95.9351 59.1999C96.3191 59.9679 97.2791 60.4799 97.9191 60.9279C100.095 62.3359 102.271 63.6159 104.575 64.7679C105.023 65.0239 105.471 65.2799 105.983 65.4719L106.047 65.2159C105.023 66.4319 104.063 67.7119 103.103 68.9919C102.399 69.9519 101.695 70.9119 100.991 71.8719C100.479 72.5119 100.031 73.2159 99.7111 73.9839C99.4551 74.8799 100.287 75.9679 100.863 76.5439C101.695 77.3759 103.039 78.2719 104.255 77.9519C105.407 77.5679 106.431 77.0559 107.391 76.2879C108.479 75.5199 109.567 74.6879 110.591 73.7919C112.127 72.5119 113.535 71.1039 114.943 69.6959L112.575 71.1039L117.183 74.8799C117.439 75.0719 117.759 75.3279 118.015 75.5839C118.079 75.6479 118.143 75.7119 118.143 75.5839C118.143 75.6479 118.015 75.7759 118.015 75.8399C117.439 76.7999 116.863 77.7599 116.415 78.7839C115.391 80.8319 112.959 84.7359 115.839 86.3999C116.287 86.7199 116.799 86.9119 117.311 86.9759C117.759 86.9119 118.271 86.7199 118.655 86.4639C119.935 85.6959 121.151 84.7999 122.239 83.7119C123.839 82.1119 125.375 80.4479 126.783 78.7199L124.223 80.2559L129.343 83.5839L141.759 91.6479L156.671 101.376L169.663 109.824L173.951 112.576C174.591 113.088 175.231 113.536 175.999 113.92L176.063 113.984L176.895 113.088C175.359 114.24 173.183 116.864 175.167 118.656C176.703 120.064 179.263 120.512 181.247 120.832C181.439 120.832 181.631 120.896 181.823 120.896C181.759 120.768 181.247 121.856 181.183 121.984C180.799 122.88 180.479 123.776 180.223 124.736C179.583 126.848 179.199 129.024 179.007 131.264C178.175 141.632 181.887 152.576 191.039 158.336C196.223 161.664 202.495 162.752 208.447 161.344C214.847 159.744 220.735 155.648 225.215 150.912C234.431 141.248 240.191 126.592 236.991 113.216C234.623 103.232 226.559 94.3999 216.191 92.6719C215.359 92.1599 214.335 92.0959 213.247 92.0959C212.671 92.0959 212.031 92.6719 211.519 92.9919C211.391 93.0559 210.495 93.8879 210.815 93.8879C219.135 93.9519 226.943 99.5199 231.103 106.432C237.119 116.416 236.031 128.96 231.359 139.2C227.007 148.8 218.879 158.528 207.807 159.68C197.631 160.768 188.095 154.048 184.127 144.896C180.927 137.28 180.671 128.768 183.487 121.024C183.743 120.32 184.063 119.552 184.447 118.848C184.511 118.784 184.447 118.72 184.383 118.72C182.591 118.528 180.799 118.016 179.135 117.248C178.175 116.736 177.215 116.096 177.151 114.88C177.151 114.24 177.407 113.536 177.791 113.024C177.919 112.832 178.111 112.704 178.239 112.512C178.047 112.704 178.175 112.512 178.239 112.512C178.303 112.512 177.919 112.768 178.047 112.64C178.175 112.512 179.007 111.872 178.879 111.744L173.759 108.416L161.279 100.544L146.367 90.8799L133.375 82.4319L129.151 79.6799C128.511 79.1679 127.871 78.7199 127.103 78.3359L127.039 78.2719C126.783 78.0799 126.079 78.5919 125.887 78.7199C125.375 79.0399 124.863 79.4239 124.479 79.8719C123.903 80.6399 123.263 81.3439 122.623 82.0479C121.983 82.7519 121.535 83.2639 120.959 83.8399C120.703 84.1599 120.383 84.4159 120.063 84.7359L119.743 84.9919L119.359 85.3119C119.487 85.2479 119.039 85.5039 119.423 85.3119C119.487 85.2479 119.999 84.9279 119.871 85.0559C119.999 84.9279 120.063 85.0559 119.935 84.9919C119.807 84.9279 119.551 84.8639 119.359 84.7999C118.463 84.5439 117.759 83.8399 117.439 82.9439C116.927 81.2799 118.143 79.2319 118.911 77.7599C119.551 76.4159 120.255 75.1359 121.023 73.8559V73.7279L115.391 69.1839C114.943 68.7999 113.279 70.2719 113.023 70.5279C112.127 71.4879 111.167 72.3839 110.143 73.2799C109.375 73.9839 108.479 74.7519 107.711 75.3279L107.391 75.5839C107.135 75.7759 107.711 75.3919 107.327 75.6479L107.071 75.8399C107.391 75.6479 107.007 75.9039 106.943 75.9039C106.751 76.0319 107.007 75.9039 106.879 75.9679C106.751 76.0319 106.623 76.0959 106.495 76.0959C105.343 76.2239 104.127 75.3279 103.423 74.4959C102.975 73.9199 102.207 73.0239 102.527 72.2559C102.847 71.6159 103.231 70.9759 103.679 70.3999C104.255 69.5039 104.895 68.6719 105.599 67.7759C106.623 66.4959 107.583 65.1519 108.607 63.8719C108.671 63.8079 108.735 63.7439 108.671 63.6159C107.135 62.8479 105.599 62.0159 104.127 61.1839C102.975 60.5439 101.823 59.8399 100.671 59.0719C99.9031 58.6239 99.1991 58.1119 98.6231 57.4079C98.1751 56.7039 98.6871 55.6159 99.0071 54.9119C99.2631 54.3999 99.5831 53.8879 99.9031 53.3759C100.095 53.1839 100.223 52.9919 100.479 52.7999C100.287 52.9919 100.287 52.9279 100.543 52.7999C101.503 52.4799 102.527 52.6079 103.359 53.0559C105.407 54.1439 107.391 55.3599 109.311 56.6399C112.511 58.6879 115.711 60.8639 118.847 62.9759C127.231 68.6719 135.487 74.4319 143.743 80.2559C151.679 85.8879 159.615 91.4559 167.551 97.1519C170.239 99.0719 172.927 100.992 175.679 102.976C176.511 103.616 177.407 104.192 178.303 104.832C178.751 105.152 179.199 105.536 179.647 105.792C179.711 105.856 179.775 105.856 179.839 105.92C180.095 106.112 180.799 105.6 180.991 105.472C181.503 105.152 182.015 104.768 182.399 104.32C182.527 104.192 182.271 104.448 182.463 104.256C182.655 104.064 182.335 104.256 182.591 104.128C182.527 104.192 182.207 104.448 182.207 104.384C182.527 104.256 182.847 104.192 183.167 104.192C183.679 104.192 184.191 104.32 184.703 104.576C186.111 105.088 187.391 105.728 188.671 106.496C188.927 106.624 189.631 106.176 189.823 106.048C190.335 105.728 190.847 105.344 191.231 104.896L191.295 104.832L191.359 104.768C191.615 104.512 191.871 104.192 192.191 103.936C193.151 102.976 194.047 102.08 195.071 101.248C197.759 98.8159 200.767 96.7679 204.095 95.2959C206.207 94.3359 208.511 93.8879 210.815 93.8239C211.391 93.8239 212.095 93.2479 212.543 92.9279C212.671 92.9279 213.631 92.0959 213.247 92.0959Z" fill="#CECECE"/>
<path d="M226.048 135.232C224 140.352 220.864 145.6 216.384 148.8C216.192 148.928 215.68 149.248 215.36 149.44C215.04 149.632 214.592 149.888 214.144 150.08C213.184 150.528 212.16 150.912 211.136 151.168C209.088 151.744 206.976 151.872 204.864 151.68C194.816 150.592 188.416 140.544 188.032 131.072C187.584 121.472 193.28 112.768 200.128 106.496C199.936 106.624 200.32 106.304 200.384 106.24L200.768 105.856C201.024 105.6 201.344 105.408 201.6 105.152L201.92 104.896L202.048 104.768C202.176 104.64 201.728 105.024 201.984 104.832C202.24 104.64 202.368 104.512 202.56 104.384C202.752 104.256 203.52 103.744 202.88 104.128C203.328 103.808 203.84 103.488 204.352 103.168C208.192 101.184 212.928 101.376 216.768 103.232C220.992 105.28 224.384 108.8 226.24 113.152C228.672 118.464 228.864 124.544 227.584 130.176C227.2 132.032 226.688 133.632 226.048 135.232C225.92 135.552 227.136 134.912 227.2 134.912C227.648 134.656 228.48 134.208 228.736 133.632C231.104 127.616 231.936 120.96 230.144 114.688C228.8 109.696 225.664 105.408 221.312 102.592C217.408 100.096 212.608 99.4559 208.192 100.864C206.912 101.312 205.632 101.888 204.48 102.592C203.776 102.976 203.136 103.424 202.496 103.936C202.88 103.68 202.688 103.808 202.624 103.872C201.728 104.512 200.896 105.152 200.064 105.856C192.96 111.744 186.496 120 185.6 129.472C184.576 139.52 190.4 151.168 200.896 153.344C211.648 155.584 221.824 147.072 226.688 138.24C227.52 136.768 228.224 135.232 228.864 133.632C228.992 133.248 227.776 133.888 227.712 133.952C227.072 134.272 226.24 134.72 226.048 135.232Z" fill="#CECECE"/>
<path d="M235.712 130.816C235.712 130.816 227.2 123.648 223.68 121.92C220.16 120.192 218.88 123.584 222.08 127.808C222.08 127.808 219.008 125.056 218.24 128.896C217.472 132.736 221.952 137.92 221.952 137.92C221.952 137.92 214.72 134.208 214.08 137.088C213.44 139.968 253.76 155.968 257.024 155.456C260.288 154.944 261.632 134.4 260.416 133.056C259.2 131.712 240.704 130.176 240.704 130.176L239.488 126.016" fill="white"/>
<path d="M236.799 130.24C234.623 128.448 232.383 126.656 230.143 124.928C228.607 123.712 227.007 122.624 225.343 121.6C223.743 120.64 221.183 119.488 219.519 121.024C217.535 122.88 219.519 126.4 220.735 128.128L223.167 127.296C222.207 126.4 220.927 125.824 219.647 125.76C217.535 125.76 216.639 127.744 216.639 129.6C216.639 131.648 217.599 133.632 218.623 135.36C219.199 136.384 219.903 137.344 220.671 138.24L222.719 137.152C221.183 136.32 219.519 135.68 217.855 135.232C216.767 134.848 215.551 134.784 214.399 134.976C213.503 135.168 212.543 135.808 212.543 136.832C212.543 137.728 213.375 138.432 214.015 138.88C215.103 139.712 216.255 140.416 217.407 141.056C225.087 145.216 233.279 148.48 241.407 151.616C244.991 153.024 248.639 154.368 252.351 155.52C253.567 155.904 254.783 156.224 255.999 156.48C257.087 156.672 258.175 156.736 259.007 155.904C260.031 154.816 260.479 153.088 260.799 151.68C261.311 149.44 261.695 147.2 261.951 144.896C262.207 142.656 262.335 140.416 262.399 138.112C262.527 136.576 262.399 135.04 262.079 133.504C261.695 132.032 260.159 131.648 258.879 131.328C257.023 130.88 255.103 130.56 253.183 130.368C249.151 129.792 245.119 129.408 241.023 129.088L240.255 129.024L242.175 130.176L240.959 126.016C240.575 124.736 237.503 124.352 238.015 126.016L239.231 130.176C239.487 130.944 240.447 131.264 241.151 131.328L241.855 131.392L242.623 131.456L243.135 131.52C242.687 131.456 243.391 131.52 243.519 131.584C245.439 131.776 247.423 131.968 249.343 132.16C251.455 132.416 253.567 132.672 255.743 132.992C256.575 133.12 257.471 133.248 258.303 133.44L259.263 133.696C258.687 133.568 259.519 133.824 259.647 133.824C259.967 133.888 259.263 133.568 259.519 133.76C259.519 133.76 259.199 133.44 259.135 133.44C259.071 133.44 259.071 133.12 259.071 133.376C259.071 133.504 259.135 133.568 259.135 133.696C259.071 133.312 259.199 133.952 259.199 134.144C259.263 134.528 259.263 134.848 259.263 135.168C259.327 137.024 259.263 138.816 259.135 140.672C258.879 144.64 258.559 148.864 257.151 152.64C257.023 152.96 256.895 153.216 256.767 153.536C256.703 153.664 256.639 153.792 256.575 153.92C256.447 154.176 256.639 153.792 256.575 153.92C256.511 154.048 256.511 154.048 256.447 154.112L256.191 154.368C255.999 154.56 256.383 154.304 256.191 154.368C255.871 154.496 256.575 154.304 256.383 154.368C255.935 154.432 256.639 154.432 256.383 154.368C256.191 154.304 256.063 154.304 255.871 154.304C255.423 154.24 254.975 154.112 254.527 153.984C254.399 153.92 253.887 153.792 254.463 153.984L254.015 153.856L253.055 153.6C252.351 153.344 251.583 153.152 250.879 152.896C249.151 152.32 247.423 151.68 245.695 151.04C237.759 148.096 229.887 144.896 222.271 141.248C222.655 141.44 222.015 141.12 221.951 141.056L221.375 140.8C220.991 140.608 220.671 140.416 220.287 140.224C219.647 139.904 219.007 139.52 218.367 139.2C217.727 138.88 217.279 138.56 216.767 138.24C216.575 138.112 216.383 137.984 216.191 137.856C215.999 137.728 216.511 138.112 216.191 137.856L215.935 137.664C215.807 137.536 215.679 137.408 215.615 137.344C215.999 137.664 215.743 137.536 215.679 137.408C215.551 137.152 215.743 137.536 215.679 137.472C215.615 137.216 215.743 137.792 215.679 137.536C215.743 137.92 215.679 137.6 215.807 137.408C215.679 137.6 215.871 137.408 215.871 137.344C215.743 137.472 215.871 137.344 215.935 137.344C215.615 137.472 216.383 137.28 215.999 137.344C216.191 137.344 216.383 137.344 216.575 137.344C216.831 137.344 216.191 137.28 216.639 137.344L216.895 137.408C217.215 137.472 217.471 137.536 217.791 137.6C218.239 137.728 217.599 137.536 217.919 137.6L218.303 137.728C218.559 137.792 218.815 137.856 219.007 137.984C219.455 138.112 219.903 138.304 220.287 138.496C220.607 138.624 220.927 138.752 221.247 138.944C220.863 138.752 221.567 139.136 221.247 138.944C221.823 139.328 222.463 139.392 223.103 139.136C223.487 138.944 223.679 138.432 223.423 138.048C223.423 137.984 223.359 137.92 223.295 137.856C221.695 136.064 220.479 133.888 219.839 131.584C219.647 130.88 219.647 130.176 219.775 129.472C219.839 129.088 219.967 128.768 220.159 128.448C220.223 128.384 220.415 128.192 220.351 128.192C220.287 128.192 220.415 128.128 220.479 128.192C220.543 128.256 220.415 128.192 220.287 128.192H220.415C220.159 128.128 220.159 128.128 220.351 128.192C220.415 128.256 220.543 128.256 220.607 128.32C220.671 128.384 220.735 128.448 220.863 128.448C221.119 128.576 220.607 128.256 220.799 128.384L220.991 128.512C221.503 129.024 222.271 129.216 223.039 129.024C223.487 128.896 223.743 128.448 223.615 128C223.551 127.872 223.551 127.808 223.423 127.68C222.719 126.784 222.207 125.76 221.951 124.672C221.823 124.096 221.823 123.2 222.207 122.816C222.271 122.752 222.335 122.688 222.399 122.688C222.335 122.688 222.463 122.688 222.463 122.688C222.527 122.688 222.527 122.688 222.591 122.688L223.103 122.88C223.487 123.072 224.255 123.52 224.703 123.84C227.455 125.696 230.079 127.68 232.575 129.792C233.279 130.368 233.919 130.88 234.623 131.456C235.199 132.032 236.031 132.16 236.799 131.904C237.439 131.392 237.311 130.624 236.799 130.24Z" fill="#3D3D3D"/>
<path d="M228.16 135.039L223.424 127.935L222.72 126.911C222.336 126.335 221.376 125.887 220.736 126.207C220.096 126.527 220.288 127.487 220.672 127.999L225.408 135.103L226.112 136.127C226.496 136.703 227.456 137.151 228.096 136.831C228.736 136.511 228.48 135.551 228.16 135.039Z" fill="#3D3D3D"/>
<path d="M179.007 128.703C179.007 128.703 189.311 126.079 190.783 128.703C191.679 130.303 189.759 132.863 189.759 132.863C189.759 132.863 194.047 134.143 190.271 137.343C186.943 140.095 179.775 141.119 179.775 141.119C179.775 141.119 189.631 143.935 188.479 147.135C187.071 151.167 175.871 146.751 174.463 145.471C171.135 142.335 165.951 133.183 180.735 120.063" fill="white"/>
<path d="M179.455 128.896L180.159 128.704L180.863 128.576L181.055 128.512L181.567 128.384C182.975 128.064 184.447 127.936 185.855 127.872C186.815 127.872 188.351 127.872 189.055 128.704C190.015 129.92 188.927 131.904 188.159 132.928C188.095 132.992 188.095 133.056 188.159 133.12C188.927 133.312 189.631 133.824 190.015 134.464C190.719 136.128 188.415 137.664 187.199 138.304C185.599 139.136 183.935 139.776 182.207 140.16C181.823 140.224 181.503 140.352 181.119 140.416C181.055 140.416 180.991 140.48 180.927 140.48L180.543 140.544C180.351 140.608 179.135 140.8 180.031 140.608C179.455 140.672 178.943 140.8 178.431 140.992C178.175 141.12 177.983 141.248 178.367 141.376C178.367 141.376 178.239 141.312 178.495 141.44L179.263 141.696C180.031 141.952 180.799 142.208 181.503 142.528C183.167 143.168 185.023 144 186.303 145.344C186.751 145.792 187.007 146.432 186.943 147.008C186.879 147.328 186.751 147.648 186.559 147.84C186.431 147.968 186.367 148.032 186.239 148.16C186.175 148.224 186.111 148.224 186.047 148.288C186.047 148.288 186.495 148.16 186.303 148.224C186.111 148.288 186.559 148.224 186.239 148.224H186.111C185.663 148.224 185.215 148.224 184.767 148.16C183.743 148.032 182.719 147.776 181.695 147.52C179.967 147.072 178.239 146.368 176.639 145.472C175.807 144.896 175.039 144.192 174.527 143.36C172.863 140.928 172.095 137.92 172.479 134.976C173.183 128.832 177.855 123.712 182.271 119.744C182.591 119.488 181.183 119.552 181.119 119.552C180.415 119.552 179.775 119.744 179.199 120.128C174.847 123.968 170.495 128.896 169.471 134.784C168.895 137.984 169.599 141.312 171.455 144C172.031 144.896 172.863 145.728 173.823 146.304C175.615 147.264 177.471 147.968 179.391 148.48C181.631 149.184 184.063 149.312 186.367 148.992C187.839 148.736 190.591 147.968 190.079 145.856C189.631 144 186.943 142.848 185.407 142.144C183.999 141.504 182.591 140.992 181.119 140.608L179.455 141.376C182.079 140.992 184.703 140.352 187.263 139.456C188.927 138.944 190.399 138.112 191.807 137.088C192.767 136.32 194.111 134.848 193.151 133.568C192.639 133.056 192.063 132.672 191.359 132.416C191.487 132.48 191.295 132.608 191.487 132.48C191.551 132.416 191.615 132.352 191.615 132.224C191.807 131.968 191.935 131.712 192.127 131.392C192.511 130.688 192.767 129.856 192.703 129.088C192.447 126.464 187.967 126.976 186.175 127.104C183.615 127.296 181.119 127.744 178.623 128.384C178.431 128.448 177.343 128.64 177.599 128.96C177.855 129.28 179.263 128.96 179.455 128.896Z" fill="#3D3D3D"/>
<path d="M189.376 131.649C188.8 131.521 188.16 131.585 187.584 131.777C186.752 131.969 185.984 132.161 185.152 132.417C183.296 132.929 181.44 133.441 179.584 133.953C179.072 134.081 178.624 134.273 178.112 134.337C177.6 134.401 177.216 134.913 177.28 135.425C177.28 135.553 177.344 135.681 177.408 135.809C177.856 136.513 178.624 136.897 179.456 136.769C179.84 136.705 180.224 136.577 180.608 136.449L183.04 135.745C184.832 135.233 186.688 134.721 188.48 134.273C188.8 134.209 189.12 134.081 189.504 134.017L189.824 133.953C189.888 133.953 189.888 133.953 189.952 133.953C189.76 134.017 189.504 133.953 189.312 133.889C189.952 134.081 190.848 133.889 190.912 133.121C190.976 132.353 190.08 131.841 189.376 131.649Z" fill="#3D3D3D"/>
<path d="M98.2396 111.105C87.2956 117.761 81.7916 131.265 83.5836 143.745C85.5036 157.121 94.9116 169.537 107.072 175.361C113.536 178.433 120.832 179.329 127.488 176.385C130.688 174.849 133.632 172.801 136.256 170.369C138.816 168.129 141.12 165.633 143.168 162.881C145.152 160.193 146.688 157.185 147.712 153.985C148.16 152.385 148.416 150.785 148.48 149.121C148.544 147.521 148.416 145.857 147.2 144.577C145.92 143.233 143.872 142.977 142.336 144.001C140.928 144.897 140.032 146.497 139.392 148.033C138.176 151.169 138.048 154.625 139.008 157.889C140.032 161.345 141.824 164.481 144.32 167.105C146.688 169.729 149.44 172.033 152.448 173.825C155.52 175.617 159.104 176.961 162.688 176.641C165.696 176.385 168.512 174.977 170.496 172.737C171.392 171.649 172.032 170.305 172.288 168.897C172.544 167.553 169.728 166.081 169.408 167.617C168.896 170.241 167.04 172.161 164.672 173.249C162.112 174.401 159.168 174.465 156.48 173.441C153.6 172.353 150.976 170.689 148.736 168.513C146.432 166.529 144.448 164.097 142.976 161.409C141.568 158.721 140.992 155.649 141.312 152.641C141.504 151.169 141.952 149.697 142.656 148.417C143.104 147.585 144.192 145.793 145.408 145.985C145.152 145.921 145.28 145.729 145.344 146.113C145.344 146.369 145.472 146.625 145.472 146.817C145.536 147.521 145.536 148.225 145.472 148.865C145.344 150.337 145.024 151.809 144.576 153.281C143.616 156.161 142.144 158.849 140.352 161.217C138.496 163.649 136.384 165.953 134.08 168.001C131.712 170.241 129.088 172.097 126.208 173.633C120.512 176.513 114.112 176.065 108.352 173.569C97.5996 168.833 89.1516 158.145 86.7836 146.625C84.4796 135.553 88.1276 123.265 96.8956 115.905C97.9836 115.009 99.1356 114.177 100.352 113.409C101.76 112.577 99.4556 110.401 98.2396 111.105Z" fill="#CECECE"/>
<path d="M174.143 162.943V159.295C174.079 158.911 173.887 158.591 173.567 158.399C172.863 157.951 171.903 158.015 171.327 158.591C171.071 158.847 170.943 159.231 170.943 159.551V163.135C171.007 163.519 171.199 163.839 171.519 164.031C171.839 164.287 172.287 164.351 172.671 164.351C173.055 164.287 173.439 164.159 173.759 163.839C174.015 163.647 174.143 163.263 174.143 162.943Z" fill="#CECECE"/>
</svg>
