<svg width="320" height="320" viewBox="0 0 320 320" fill="none" xmlns="http://www.w3.org/2000/svg">
<path d="M177.6 271.68C177.6 271.68 303.296 271.488 275.392 202.112C273.408 197.12 228.032 118.336 180.352 127.296C132.672 136.256 177.6 271.68 177.6 271.68Z" fill="#3D3D3D"/>
<path d="M176.768 272.513C178.688 272.513 180.608 272.449 182.528 272.385C187.456 272.193 192.448 271.809 197.376 271.297C204.16 270.593 210.944 269.633 217.664 268.353C225.152 266.945 232.576 265.089 239.808 262.657C247.04 260.353 253.888 257.153 260.352 253.185C266.176 249.473 271.552 244.929 275.328 239.169C279.04 233.473 281.024 226.817 280.896 220.033C280.832 216.065 280.256 212.097 279.168 208.257C278.464 205.505 277.504 202.817 276.288 200.257C273.728 195.457 270.912 190.849 267.84 186.369C262.72 178.689 257.152 171.265 251.2 164.225C244.416 156.097 236.8 148.609 228.544 141.953C220.608 135.681 211.712 130.369 201.92 127.617C197.248 126.273 192.384 125.633 187.52 125.761C183.424 125.825 179.392 126.593 175.552 128.065C169.792 130.497 165.312 135.105 162.56 140.609C159.424 146.945 158.08 153.985 157.44 160.961C156.736 169.473 156.8 177.985 157.632 186.433C158.4 195.521 159.68 204.609 161.344 213.569C162.88 222.017 164.736 230.465 166.784 238.849C168.448 245.633 170.24 252.417 172.16 259.137C173.312 263.041 174.464 266.881 175.68 270.785C175.808 271.297 176 271.809 176.192 272.321C176.448 273.089 179.392 271.937 179.136 271.041C178.496 268.993 177.856 266.945 177.216 264.897C175.616 259.521 174.016 254.145 172.608 248.705C170.56 241.153 168.704 233.537 167.04 225.857C165.12 217.153 163.52 208.321 162.24 199.489C160.96 190.721 160.192 181.953 160 173.121C159.872 165.377 160.256 157.505 162.048 149.953C162.752 146.753 163.776 143.681 165.12 140.737C165.76 139.393 166.528 138.049 167.36 136.769C168.128 135.617 168.96 134.529 169.92 133.505C170.368 132.993 170.88 132.545 171.392 132.097C171.136 132.353 171.52 132.033 171.584 131.969L172.032 131.585C172.288 131.393 172.608 131.137 172.928 130.945L173.312 130.689C172.928 130.945 173.376 130.625 173.504 130.561C173.824 130.369 174.144 130.177 174.464 129.985L174.976 129.729C174.592 129.921 174.976 129.729 175.104 129.665C175.424 129.537 175.744 129.345 176.128 129.217L176.576 129.025C176.064 129.217 176.64 129.025 176.768 128.961C177.152 128.833 177.536 128.705 177.92 128.577L178.496 128.449H178.432L178.752 128.385C179.136 128.321 179.52 128.193 179.904 128.129C182.144 127.681 184.448 127.489 186.752 127.425C196.416 127.297 205.824 130.689 214.144 135.425C223.168 140.609 231.296 147.393 238.592 154.753C245.632 161.921 252.096 169.537 258.048 177.665C262.528 183.681 266.688 189.889 270.528 196.353C271.552 198.081 272.576 199.873 273.536 201.601C274.752 204.161 275.712 206.785 276.416 209.537C278.4 216.641 278.848 224.193 276.736 231.297C274.88 237.505 271.104 242.817 266.432 247.105L265.536 247.873L265.344 248.065L265.28 248.129L264.768 248.577C264.128 249.153 263.424 249.665 262.72 250.177C262.016 250.689 261.376 251.137 260.672 251.649L260.096 252.033L259.84 252.225C259.52 252.481 260.096 252.033 259.776 252.289C259.456 252.545 259.008 252.801 258.624 252.993C257.152 253.889 255.616 254.785 254.016 255.617L253.44 255.937L253.12 256.129C253.44 255.937 253.248 256.065 253.184 256.129L251.84 256.769C251.072 257.153 250.24 257.537 249.408 257.857C246.08 259.329 242.752 260.609 239.296 261.761C237.504 262.337 235.712 262.913 233.856 263.425C231.872 264.001 230.592 264.321 228.672 264.769C221.696 266.433 214.72 267.777 207.616 268.737L206.336 268.929L205.312 269.057C204.48 269.185 203.712 269.249 202.88 269.377C201.344 269.569 199.872 269.697 198.336 269.889C195.648 270.145 192.96 270.337 190.272 270.529C186.816 270.785 183.36 270.913 179.904 271.041H178.56C177.792 271.105 177.024 271.425 176.512 271.937C176 272.193 176.128 272.513 176.768 272.513Z" fill="#3D3D3D"/>
<path d="M213.696 109.824C213.696 109.824 231.104 112.384 233.6 105.28C236.096 98.1765 225.088 100.352 225.088 100.352C225.088 100.352 237.248 85.3765 219.52 83.6485C219.52 83.6485 233.664 72.1285 221.632 62.5285C209.6 52.9285 187.008 60.6085 187.008 60.6085C187.008 60.6085 186.88 44.9925 169.088 47.8085C151.296 50.6245 156.096 59.8405 156.096 59.8405C156.096 59.8405 144.704 61.5045 144.64 66.9445C144.576 72.3845 153.28 74.0485 153.28 74.0485C153.28 74.0485 157.248 89.2805 172.736 86.2085L188.672 104.768C188.672 104.768 183.68 112.064 189.824 118.976C195.968 125.888 214.912 119.744 213.696 109.824Z" fill="#3D3D3D"/>
<path d="M214.016 110.913C218.816 111.617 224.064 111.745 228.736 110.529C231.552 109.825 234.368 108.353 235.136 105.345C235.648 103.937 235.328 102.337 234.432 101.121C233.408 100.033 232 99.2648 230.464 99.0728C228.352 98.6888 226.112 98.7528 224 99.2008L226.432 100.993C229.696 96.9608 232.832 89.9848 228.16 85.8248C225.728 83.6488 222.336 82.8168 219.136 82.4968L220.736 84.5448C222.912 82.7528 224.704 80.5768 226.048 78.1448C227.2 76.2248 227.84 74.0488 227.904 71.8728C227.904 69.2488 226.944 66.6888 225.28 64.7048C221.568 60.0968 215.68 57.7288 209.92 56.8968C204.8 56.2568 199.616 56.4488 194.624 57.4088C191.68 57.8568 188.864 58.5608 186.048 59.5208L188.544 61.0568C188.48 55.6168 185.472 50.6888 180.672 48.1288C175.488 45.4408 169.216 46.1448 163.776 47.6808C160.064 48.6408 155.52 50.5608 154.304 54.4648C153.728 56.2568 153.856 58.1768 154.688 59.9048L155.328 58.6888C151.936 59.2008 148.096 60.2248 145.344 62.4008C143.552 63.8088 142.592 65.8568 143.296 68.0968C144 70.5288 146.304 72.2568 148.48 73.3448C150.08 74.1768 151.808 74.7528 153.536 75.0728L151.744 73.7928C152.32 75.7768 153.152 77.5688 154.304 79.2968C156.544 82.9448 160.064 85.6328 164.16 86.9768C167.296 87.8728 170.56 87.9368 173.696 87.2968L171.52 86.5288L185.472 102.721L187.456 105.025L187.136 103.937C183.168 109.697 185.408 118.593 191.808 121.601C197.824 124.417 205.824 122.753 210.944 118.785C213.568 116.737 215.552 113.665 215.168 110.273C215.04 109.569 214.464 108.929 213.696 108.801C213.312 108.673 212.096 108.609 212.16 109.313C212.864 115.201 206.528 118.913 201.664 120.129C200.256 120.513 198.784 120.705 197.376 120.705C196.736 120.705 196.096 120.705 195.456 120.577C194.88 120.513 194.24 120.385 193.664 120.193L193.152 120.001C193.088 120.001 192.64 119.809 192.96 119.937C192.64 119.809 192.384 119.681 192.064 119.489C191.808 119.361 192.192 119.617 191.936 119.425C191.808 119.361 191.68 119.233 191.552 119.169L191.296 118.977C191.36 119.041 191.04 118.785 190.976 118.657C189.44 117.121 188.48 115.137 188.16 112.961C187.84 110.273 188.48 107.521 189.952 105.281C190.208 104.897 189.824 104.449 189.632 104.193L176.448 88.8968L174.016 86.0168C173.76 85.6968 173.44 85.3768 173.056 85.1848C172.16 84.7368 171.264 85.0568 170.368 85.1848C169.6 85.2488 168.832 85.3128 168.064 85.3128C166.912 85.3128 165.76 85.1848 164.608 84.9288C164.096 84.8008 163.52 84.6088 163.008 84.4168C162.496 84.2248 163.264 84.5448 162.816 84.3528L162.56 84.2248C162.304 84.0968 161.984 83.9688 161.728 83.7768L161.344 83.5208C161.408 83.5848 161.6 83.6488 161.344 83.5208C161.088 83.3928 160.96 83.2648 160.704 83.1368C160.448 83.0088 160.32 82.8808 160.128 82.6888L159.808 82.4328C159.808 82.4328 159.424 82.1128 159.68 82.3048C158.976 81.6648 158.336 80.9608 157.76 80.2568C157.888 80.3848 157.504 79.9368 157.44 79.8088C157.312 79.6168 157.184 79.4248 157.056 79.1688C156.8 78.7848 156.544 78.4008 156.352 78.0168C156.16 77.6328 155.968 77.3128 155.776 76.9288L155.648 76.7368C155.52 76.4808 155.712 76.9288 155.584 76.6088L155.392 76.1608C155.072 75.4568 154.816 74.7528 154.624 74.0488C154.432 73.2808 153.472 72.8968 152.832 72.7688C152.704 72.7688 152.384 72.6408 152.896 72.7688C152.64 72.7048 152.384 72.6408 152.192 72.5768C151.808 72.4488 151.488 72.3848 151.168 72.2568C150.976 72.1928 150.784 72.1288 150.592 72.0648L150.272 71.9368C149.824 71.7448 150.592 72.0648 150.144 71.8728C149.696 71.6808 149.248 71.4888 148.8 71.2328C148.416 71.0408 148.096 70.7848 147.776 70.5288C147.136 70.0808 146.624 69.3768 146.304 68.6728C144.768 64.5768 150.272 62.4648 153.28 61.6328C154.112 61.3768 155.008 61.1848 155.904 60.9928L156.416 60.8648C156.608 60.8648 156.16 60.9288 156.48 60.8648L156.8 60.8008C157.504 60.6728 157.76 60.2248 157.44 59.5848C157.376 59.3928 157.568 59.8408 157.504 59.7768C157.44 59.7128 157.44 59.6488 157.376 59.5208C157.248 59.2648 157.184 59.0088 157.12 58.7528C157.056 58.5608 157.056 58.4328 156.992 58.2408C156.928 57.9848 156.992 58.4328 156.992 58.1128C156.992 57.9848 156.992 57.9208 156.928 57.7928C156.864 57.2808 156.928 56.7688 156.992 56.3208C156.992 56.1288 157.056 55.9368 157.12 55.7448C157.184 55.4248 157.312 55.1688 157.44 54.9128C157.696 54.3368 158.08 53.8248 158.464 53.3768C159.872 51.9688 161.536 50.9448 163.456 50.3048C166.336 49.2168 169.344 48.5768 172.416 48.4488C174.592 48.2568 176.768 48.5768 178.816 49.2808C178.88 49.2808 179.2 49.4088 178.88 49.2808L179.136 49.4088L179.776 49.7288C179.904 49.7928 180.096 49.9208 180.288 49.9848C180.672 50.2408 180.032 49.7928 180.352 50.0488L180.672 50.2408C181.248 50.6248 181.76 51.0728 182.208 51.6488C182.336 51.7768 182.464 51.9688 182.592 52.0968C182.592 52.1608 182.72 52.2888 182.592 52.0968C182.656 52.1608 182.72 52.2248 182.784 52.3528C182.976 52.6728 183.232 52.9928 183.424 53.3128C183.616 53.6328 183.744 53.9528 183.936 54.2088C184 54.2728 184 54.3368 184.064 54.4648C184.128 54.6568 184.192 54.7848 184.32 54.9768C184.768 56.1288 185.088 57.3448 185.28 58.5608C185.344 58.8808 185.28 58.3688 185.28 58.6888C185.28 58.8168 185.28 58.8808 185.28 59.0088C185.28 59.1368 185.344 59.3288 185.344 59.5208C185.344 59.7128 185.344 59.7768 185.344 59.9688C185.344 60.9928 186.944 61.8248 187.84 61.5048C189.888 60.8648 191.936 60.2888 194.048 59.9048C198.528 58.9448 203.072 58.4968 207.616 58.7528C212.48 59.0728 217.408 60.2248 221.12 63.4248C223.04 64.9608 224.32 67.2008 224.704 69.6328C224.896 71.6808 224.512 73.7288 223.552 75.5848C222.272 78.2728 220.352 80.6408 218.048 82.5608C217.088 83.3928 219.008 84.5448 219.648 84.6088C221.056 84.7368 222.4 84.9928 223.744 85.4408C224.128 85.5688 224.576 85.6968 224.96 85.9528L225.28 86.1448C225.664 86.4008 225.088 86.0168 225.344 86.2088C225.6 86.4008 225.728 86.4648 225.92 86.6568C226.24 86.9128 225.728 86.4648 225.984 86.7208C226.048 86.7848 226.112 86.8488 226.176 86.9128C226.304 87.0408 226.432 87.1688 226.56 87.3608C226.368 87.1048 226.688 87.5528 226.752 87.6168C226.816 87.6808 227.072 88.1928 227.008 88.0008C227.264 88.5768 227.456 89.2808 227.456 89.9208C227.584 92.7368 226.24 95.4248 224.704 97.7928C224.32 98.3688 223.936 98.9448 223.488 99.5208C223.168 99.9688 223.808 100.673 224.128 100.865C224.64 101.249 225.28 101.441 225.92 101.313C226.112 101.249 225.6 101.377 225.728 101.377L226.048 101.313C226.368 101.249 226.752 101.185 227.072 101.185C227.584 101.121 228.032 101.121 228.544 101.057C228.8 101.057 229.12 101.057 229.376 101.057C229.44 101.057 229.76 101.057 229.504 101.057H230.016C230.272 101.057 230.528 101.121 230.784 101.185C230.912 101.185 231.232 101.249 230.912 101.185L231.36 101.313C231.424 101.313 231.808 101.505 231.616 101.377C231.424 101.249 231.68 101.441 231.744 101.441C231.936 101.569 232 101.633 231.808 101.441C231.936 101.505 232.192 101.697 231.936 101.505C232 101.569 232.256 101.825 232.128 101.633C232 101.441 232.192 101.761 232.192 101.761C232.32 102.017 232.192 101.697 232.256 101.889C232.32 102.017 232.32 102.145 232.384 102.337C232.448 102.913 232.384 103.489 232.192 104.001C231.488 106.497 229.056 107.649 226.688 108.289C223.936 108.929 221.056 109.185 218.24 109.057C217.728 109.057 217.152 108.993 216.448 108.993C215.936 108.929 215.36 108.929 214.848 108.865C214.336 108.801 213.824 108.737 213.312 108.673C212.672 108.609 212.032 108.865 212.224 109.569C212.416 110.273 213.376 110.849 214.016 110.913Z" fill="#3D3D3D"/>
<path d="M177 160C168.653 156.985 170.24 138.304 170.24 138.304L169.216 136C169.216 136 160.896 136.832 152.128 125.312C142.08 112.128 154.56 76.6082 154.56 76.6082C166.912 78.9122 186.688 66.2402 186.688 66.2402C180.864 77.8882 192 99.0082 192 99.0082C196.928 88.5122 207.616 89.5362 206.656 99.9042C205.696 110.272 196.288 110.464 196.288 110.464C196.288 110.464 200.768 129.6 199.68 133.696C199.68 133.696 197.781 157.135 186.688 160C183.025 160.946 180.558 161.285 177 160Z" fill="white"/>
<path d="M171.264 136.449C172.032 138.305 172.224 140.289 172.608 142.273L169.344 141.889L168.768 138.881C168.73 138.805 168.714 138.706 168.708 138.611C168.669 138.549 168.64 138.476 168.64 138.433L168.32 137.665L168.023 137.039C166.995 137.021 166.006 136.877 165.056 136.577C161.92 135.745 158.976 134.209 156.416 132.097C153.664 129.857 150.912 127.041 149.248 123.841C148.096 121.537 147.328 119.105 147.008 116.545C146.112 110.721 146.56 104.705 147.456 98.9448C148.608 91.3288 150.4 83.8408 152.96 76.5448C153.28 75.6488 154.176 75.1368 155.136 75.2648C157.952 75.6488 160.768 75.5208 163.52 74.8808C168.832 73.7288 173.888 71.6168 178.752 69.1208L178.752 69.1208C180.48 68.2248 182.208 67.3288 183.936 66.3048L184.128 66.1768L184.512 65.9848L185.152 65.6008L185.664 65.2808C186.176 64.8968 186.88 64.7688 187.52 65.0248C187.52 65.0888 187.584 65.0888 187.584 65.0888C188.032 65.3448 188.224 65.9848 187.904 66.4328C186.688 69.1208 186.176 72.0008 186.368 74.8808C186.56 80.3208 188.032 85.6328 189.952 90.6888C190.602 92.4646 191.31 94.2111 192.097 95.9085C193.952 93.281 196.545 91.0697 199.744 90.4968C202.688 89.9848 205.696 91.0728 207.104 93.8888C208.768 97.1528 208.192 101.569 206.656 104.705C204.936 108.145 201.725 110.592 198.011 111.401C198.642 114.15 199.219 116.948 199.744 119.745C200.448 123.457 201.216 127.361 201.28 131.201C201.344 132.417 201.152 133.697 200.704 134.849L198.208 133.889C198.336 133.633 198.4 133.377 198.464 133.121C198.528 132.993 198.528 132.929 198.528 132.737V132.545V131.649C198.528 130.881 198.464 130.049 198.4 129.281C197.632 122.945 196.48 116.673 194.944 110.529C194.752 109.633 196.096 108.929 196.8 108.929H197.12L197.39 108.875C197.189 108.89 196.971 108.912 197.44 108.865L197.39 108.875C197.463 108.869 197.534 108.865 197.568 108.865C197.952 108.801 198.4 108.737 198.784 108.609C198.887 108.557 199.366 108.38 199.311 108.415C199.519 108.327 199.728 108.265 199.936 108.161L200.704 107.777C200.768 107.713 201.088 107.521 200.768 107.713L201.088 107.521C201.28 107.329 201.536 107.201 201.728 107.009L202.048 106.753C202.059 106.744 202.069 106.735 202.079 106.727C202.089 106.714 202.117 106.683 202.176 106.625C203.136 105.729 203.904 104.641 204.352 103.425C205.376 100.865 205.76 97.2808 204.288 94.7848C203.776 93.8888 203.008 93.1848 202.048 92.8648C202.24 92.9288 201.792 92.8008 201.728 92.8008L201.344 92.7368H201.216H200.832C200.32 92.7368 199.808 92.8008 199.36 92.9928C198.848 93.1848 198.4 93.3768 197.952 93.6328C197.376 94.0168 196.864 94.4008 196.416 94.8488C195.136 96.1288 194.112 97.6008 193.408 99.2008C192.96 100.097 191.168 100.673 190.592 99.5848C190.144 98.6895 189.697 97.7304 189.249 96.7712L189.248 96.7688C187.136 92.2248 185.536 87.4248 184.448 82.5608C183.475 78.2093 182.994 73.4482 184.151 69.0638C180.026 71.4774 175.669 73.4857 171.136 75.2008C166.281 76.9925 160.904 78.471 155.665 77.9866C154.958 80.1727 154.3 82.3587 153.728 84.5448C152.256 89.6648 151.232 94.9128 150.464 100.161C149.696 105.665 149.376 111.361 150.4 116.801C150.848 119.169 151.616 121.345 152.832 123.393C153.856 124.929 155.072 126.401 156.352 127.681C157.632 129.025 159.04 130.241 160.576 131.329C161.728 132.161 163.008 132.865 164.352 133.441C165.248 133.889 166.208 134.209 167.168 134.401C167.552 134.465 168 134.529 168.384 134.593L168.735 134.651C168.773 134.655 168.808 134.657 168.832 134.657H169.536C169.984 134.593 170.432 134.849 170.688 135.233L171.264 136.449Z" fill="#3D3D3D"/>
<path d="M164.032 113.728C164.032 113.728 140.8 122.432 133.76 110.912C126.72 99.3924 142.656 89.7284 158.4 97.1524" fill="white"/>
<path d="M163.392 112.961C162.816 113.153 162.24 113.345 161.664 113.537L160.832 113.793L160.32 113.921C160.768 113.793 160.128 113.985 160 113.985C159.104 114.241 158.272 114.433 157.376 114.625C153.216 115.585 149.184 116.161 145.024 115.713C140.864 115.265 136.896 113.537 134.784 109.569C133.632 107.521 133.312 105.089 133.952 102.785C134.656 100.673 136.064 98.9447 137.984 97.7927C143.808 94.1447 151.424 95.1687 157.44 97.9847C158.528 98.4967 161.088 97.0247 159.424 96.2567C153.024 93.3127 145.216 92.4167 138.624 95.2967C133.76 97.4087 129.6 101.825 130.688 107.521C131.712 112.641 135.936 116.033 140.864 117.185C145.792 118.337 150.848 117.889 155.712 116.929C158.72 116.353 161.728 115.585 164.608 114.561C165.12 114.369 165.888 113.857 165.504 113.217C165.12 112.577 163.968 112.769 163.392 112.961Z" fill="#3D3D3D"/>
<path d="M183.552 110.145C183.552 110.145 182.464 114.945 177.792 114.753L183.552 110.145Z" fill="white"/>
<path d="M182.592 109.056C182.592 108.928 182.656 108.8 182.592 108.992C182.592 109.12 182.528 109.248 182.464 109.312C182.336 109.696 182.144 110.08 181.952 110.464C181.824 110.72 181.696 110.912 181.568 111.168C181.504 111.296 181.44 111.36 181.312 111.488L181.184 111.616L181.12 111.68C181.184 111.616 181.184 111.616 181.12 111.68C180.672 112.128 180.16 112.512 179.584 112.832C178.816 113.216 177.984 113.408 177.088 113.344C176.448 113.344 176.832 114.432 176.96 114.688C177.088 115.072 177.344 115.456 177.6 115.712C177.792 115.904 177.984 116.16 178.24 116.16C179.776 116.224 181.312 115.712 182.4 114.624C183.168 113.856 183.744 112.96 184.128 111.936C184.192 111.68 184.32 111.424 184.384 111.168C184.384 110.848 184.32 110.528 184.192 110.208C184.064 109.824 183.808 109.44 183.552 109.184C183.36 108.992 183.168 108.736 182.912 108.736C182.656 108.736 182.656 108.864 182.592 109.056Z" fill="#3D3D3D"/>
<path d="M167.872 91.2648C167.872 91.2648 168.32 93.2488 166.4 93.5048C164.48 93.7608 164.16 91.3928 165.696 90.6248C166.4 90.1768 167.296 90.3688 167.744 91.0728C167.808 91.1368 167.872 91.2008 167.872 91.2648Z" fill="#3D3D3D"/>
<path d="M158.72 92.2247C158.72 92.2247 159.168 94.2087 157.248 94.4647C155.328 94.7207 155.008 92.3527 156.544 91.5847C157.248 91.1367 158.144 91.3287 158.592 92.0327C158.656 92.0967 158.72 92.1607 158.72 92.2247Z" fill="#3D3D3D"/>
<path d="M166.272 127.425H40.5122V267.137H166.272V127.425Z" fill="white"/>
<path d="M167.296 266.241H43.4561C42.8801 266.177 42.3681 266.177 41.7921 266.241H41.6001L41.9201 266.433V132.417C41.9201 130.625 41.9841 128.769 41.9201 126.977V126.721L39.5521 128.449H163.392C163.968 128.513 164.48 128.513 165.056 128.449C165.12 128.449 165.184 128.449 165.248 128.449L164.928 128.193V262.209C164.928 264.001 164.864 265.857 164.928 267.649C164.928 267.713 164.928 267.777 164.928 267.905C164.928 268.481 167.616 267.265 167.616 266.433V132.417C167.616 130.625 167.68 128.769 167.616 126.977V126.721C167.616 126.529 167.488 126.465 167.296 126.465H46.6561C45.0561 126.465 43.3921 126.401 41.7921 126.465H41.6001C41.0881 126.529 40.5761 126.785 40.1281 127.169C39.8721 127.361 39.2321 127.809 39.2321 128.193V262.209C39.2321 264.001 39.1681 265.857 39.2321 267.649V267.905C39.2321 268.097 39.3601 268.097 39.5521 268.097H160.192C161.792 268.097 163.456 268.161 165.056 268.097H165.248C166.016 267.969 166.656 267.585 167.168 267.073C167.424 266.817 167.936 266.241 167.296 266.241Z" fill="#3D3D3D"/>
<path d="M55.7439 140.801H60.3519C60.6079 140.801 60.6079 140.481 60.6079 140.353C60.5439 140.033 60.4159 139.713 60.2239 139.457C59.8399 138.817 59.2639 138.433 58.5599 138.305H53.9519C53.6959 138.305 53.6319 138.625 53.6959 138.753C53.7599 139.073 53.8879 139.393 54.0799 139.649C54.3999 140.289 55.0399 140.673 55.7439 140.801Z" fill="#CECECE"/>
<path d="M54.9122 146.432H59.5842C59.9682 146.432 60.3522 146.368 60.6722 146.176C60.9282 145.984 61.1202 145.664 61.0562 145.344C60.8642 144.576 60.1602 144 59.3922 144H54.7202C54.3362 144 53.9522 144.064 53.6322 144.256C53.3762 144.448 53.1842 144.768 53.2482 145.088C53.4402 145.92 54.1442 146.432 54.9122 146.432Z" fill="#CECECE"/>
<path d="M128.704 225.408H88.512C85.376 225.408 82.176 225.408 79.04 225.408C76.672 225.408 75.2 223.296 75.2 221.056C75.2 219.776 75.2 218.56 75.2 217.28C75.2 216 75.328 214.656 76.416 213.632C77.312 212.736 78.336 212.8 79.488 212.8H127.488C127.744 212.8 128 212.8 128.256 212.8C129.664 212.928 130.88 213.76 131.456 215.04C132.032 216.192 131.84 217.536 131.84 218.752C131.84 219.84 131.904 221.12 131.84 222.08C131.648 223.744 130.496 225.344 128.768 225.344C128.128 225.344 127.104 225.664 126.976 226.368C126.848 227.072 127.744 227.328 128.32 227.328C130.688 227.328 132.928 226.112 134.208 224.128C135.04 222.784 134.976 221.312 134.976 219.776C134.976 218.624 134.976 217.472 134.976 216.32C134.912 214.144 133.568 212.16 131.584 211.264C130.24 210.624 128.832 210.688 127.36 210.688H88.32C85.184 210.688 82.048 210.688 78.912 210.688C75.328 210.688 72.128 213.184 72.064 216.96C72.064 218.176 72.064 219.392 72.064 220.544C72.064 222.016 72.128 223.424 73.024 224.704C75.264 227.968 79.68 227.328 83.136 227.328H128.256C128.896 227.328 129.92 227.008 130.048 226.304C130.176 225.6 129.28 225.408 128.704 225.408Z" fill="#3D3D3D"/>
<path d="M84.6082 221.504C85.8453 221.504 86.8482 220.502 86.8482 219.264C86.8482 218.027 85.8453 217.024 84.6082 217.024C83.371 217.024 82.3682 218.027 82.3682 219.264C82.3682 220.502 83.371 221.504 84.6082 221.504Z" fill="#3D3D3D"/>
<path d="M90.9441 237.505H118.848C121.536 237.505 123.776 239.681 123.776 242.433V247.233C123.776 249.921 121.6 252.161 118.848 252.161H90.9441C88.2561 252.161 86.0161 249.985 86.0161 247.233V242.433C86.0161 239.681 88.2561 237.505 90.9441 237.505Z" fill="#CECECE"/>
<path d="M118.848 252.416H90.9443C88.0643 252.416 85.6963 250.048 85.6963 247.168V242.368C85.6963 239.488 88.0643 237.12 90.9443 237.12H118.848C121.728 237.12 124.096 239.488 124.096 242.368V247.168C124.096 250.048 121.728 252.416 118.848 252.416ZM90.9443 237.824C88.3843 237.824 86.3363 239.872 86.3363 242.432V247.232C86.3363 249.792 88.3843 251.84 90.9443 251.84H118.848C121.408 251.84 123.456 249.792 123.456 247.232V242.432C123.456 239.872 121.408 237.824 118.848 237.824H90.9443Z" fill="#CECECE"/>
<path d="M112.832 175.105C112.704 179.073 110.144 182.593 106.432 184.001C102.72 185.409 98.4958 184.321 95.9358 181.313C93.5038 178.241 93.2478 173.953 95.3598 170.689C97.5358 167.297 101.568 165.505 105.536 166.273C109.76 167.041 112.832 170.753 112.832 175.105C112.832 176.769 115.456 177.601 115.456 175.489C115.392 170.305 112.128 165.697 107.328 163.777C102.592 161.985 97.2158 163.393 93.9518 167.361C89.7278 172.801 90.6878 180.673 96.1278 184.961C98.8798 187.073 102.4 188.033 105.856 187.457C111.616 186.369 115.456 181.313 115.52 175.553C115.456 173.825 112.832 173.057 112.832 175.105Z" fill="#3D3D3D"/>
<path d="M89.6 200.256C90.176 198.336 90.88 196.48 91.712 194.688C93.376 191.168 95.488 187.584 98.496 185.088C101.504 182.592 105.728 181.248 109.568 182.848C111.232 183.552 112.704 184.64 113.92 186.048C114.496 186.688 115.072 187.392 115.52 188.16C115.776 188.544 116.032 188.928 116.224 189.312L116.352 189.568C116.48 189.824 116.608 190.08 116.736 190.272C117.184 191.104 117.568 192 117.952 192.832C117.824 192.448 118.08 193.088 118.08 193.216L118.336 193.792C118.464 194.112 118.592 194.432 118.72 194.816C118.912 195.328 119.04 195.84 119.232 196.416C119.232 196.48 119.296 196.544 119.296 196.672C119.36 196.928 119.232 196.288 119.232 196.544L119.296 196.672C119.424 197.312 119.808 198.272 120.512 198.528C121.216 198.784 121.28 198.08 121.152 197.568C120.576 195.264 119.808 193.024 118.784 190.912C116.992 187.072 114.56 183.296 110.976 180.992C107.328 178.624 102.656 178.624 98.944 180.928C95.36 183.168 92.8 186.816 90.88 190.528C89.6 192.96 88.576 195.456 87.808 198.08C87.744 198.848 88 199.616 88.512 200.192C88.768 200.512 89.408 200.896 89.6 200.256Z" fill="#3D3D3D"/>
<path d="M181.44 269.697C166.72 278.081 127.424 265.473 127.424 265.473L140.928 260.481C140.928 260.481 109.696 272.705 112.384 266.561C115.072 260.417 136.768 248.193 136.768 248.193C136.768 248.193 121.152 240.129 127.36 236.289C131.456 233.729 147.84 240.129 147.84 240.129C147.84 240.129 159.68 232.129 169.984 242.241L180.48 240.001L181.44 269.697Z" fill="white"/>
<path d="M180.288 268.929C180.48 268.801 179.968 269.057 179.904 269.121C179.84 269.185 179.584 269.249 179.392 269.377C178.944 269.569 178.56 269.761 178.112 269.889C177.92 269.953 177.728 270.017 177.536 270.081C177.472 270.081 177.152 270.209 177.408 270.145L177.152 270.209C176.704 270.337 176.256 270.465 175.808 270.593C173.952 271.041 172.032 271.297 170.112 271.361C165.696 271.553 161.216 271.361 156.8 270.785C152.32 270.209 147.84 269.441 143.424 268.481C141.504 268.033 139.52 267.585 137.6 267.137C136.768 266.945 135.936 266.689 135.104 266.497L134.016 266.177L133.696 266.113L133.12 265.985C131.456 265.537 129.856 265.089 128.256 264.577L128.32 266.497L140.096 262.081L141.824 261.441L140.16 259.521C137.536 260.545 134.848 261.505 132.16 262.465C131.008 262.849 129.792 263.297 128.64 263.681L126.784 264.257L125.184 264.769C122.88 265.473 120.512 266.113 118.144 266.625C117.632 266.753 117.12 266.817 116.672 266.945L115.968 267.073L115.648 267.137C115.264 267.201 115.776 267.137 115.584 267.137C115.2 267.137 114.816 267.201 114.432 267.201C114.304 267.201 114.112 267.201 113.984 267.201C113.856 267.201 114.432 267.265 114.112 267.201C114.048 267.201 113.984 267.201 113.856 267.201C113.792 267.201 113.728 267.201 113.664 267.137C113.472 267.137 114.048 267.265 113.792 267.201C113.536 267.137 113.728 267.201 113.792 267.201C113.536 267.009 113.984 267.457 113.792 267.201C113.6 266.945 113.92 267.457 113.792 267.201C113.728 267.009 113.856 267.521 113.792 267.201C113.792 267.137 113.792 267.137 113.792 267.073C113.792 267.137 113.664 267.329 113.792 267.137C113.856 267.009 113.856 266.881 113.92 266.753L114.048 266.497C114.176 266.241 113.984 266.561 114.112 266.369C115.392 264.385 117.12 262.913 118.976 261.441C121.344 259.521 123.84 257.793 126.4 256.065C130.112 253.633 133.824 251.265 137.664 249.089L137.6 249.153C138.24 248.833 138.816 247.873 137.856 247.425C136.512 246.721 135.232 245.953 133.952 245.185C131.776 243.841 129.728 242.433 128.192 240.385C128.064 240.257 127.936 240.065 127.872 239.873C127.744 239.681 127.68 239.425 127.552 239.233C127.488 239.105 127.488 239.041 127.424 238.913C127.424 238.913 127.424 238.977 127.424 238.785C127.424 238.593 127.488 238.145 127.424 238.401C127.488 238.273 127.68 237.761 127.552 238.017C127.616 237.889 128 237.441 127.872 237.633C128 237.569 128.064 237.441 128.192 237.377C128.32 237.313 128.576 237.121 128.384 237.249C128.192 237.377 128.512 237.185 128.576 237.185C128.896 236.993 128.448 237.185 128.64 237.121C128.832 237.057 129.088 236.993 129.344 236.993C129.6 236.993 129.216 236.993 129.216 236.993H129.472C129.664 236.993 129.792 236.993 129.984 236.993C130.304 236.993 130.56 236.993 130.88 236.993C130.944 236.993 131.456 236.993 131.136 236.993L131.648 237.057C133.184 237.249 134.72 237.505 136.192 237.889C139.008 238.593 141.76 239.425 144.448 240.385C145.216 240.641 145.984 240.961 146.752 241.217C147.52 241.537 148.416 241.473 149.12 241.025L149.376 240.833C149.76 240.577 149.184 240.897 149.568 240.705C149.952 240.513 150.4 240.257 150.848 240.065C151.424 239.809 152 239.553 152.576 239.361C153.216 239.169 153.856 238.977 154.496 238.785C157.888 237.953 161.536 238.337 164.608 240.001C165.696 240.577 166.656 241.281 167.616 242.049C168.576 242.817 169.152 243.649 170.496 243.457C171.264 243.329 172.096 243.137 172.864 242.945L180.416 241.345L180.992 241.217L178.944 240.193L179.264 250.241L179.776 266.177L179.904 269.889C179.968 271.361 183.168 271.297 183.104 269.825L182.784 259.777L182.272 243.841L182.144 240.129C182.144 239.169 180.8 238.977 180.096 239.105L169.536 241.345L171.328 241.793C167.872 238.273 163.2 236.289 158.272 236.161C154.944 236.161 151.68 236.929 148.672 238.465C147.968 238.785 147.328 239.169 146.688 239.553L148.608 239.361C146.624 238.593 144.576 237.889 142.528 237.249C138.816 236.097 135.04 235.009 131.2 234.817C128.64 234.689 124.416 235.329 124.288 238.657C124.224 239.937 125.056 241.217 125.888 242.177C126.976 243.393 128.128 244.481 129.472 245.377C131.392 246.849 133.504 248.129 135.616 249.217L135.872 247.489C132.352 249.473 128.96 251.585 125.568 253.761C122.88 255.489 120.192 257.345 117.696 259.329C115.584 260.993 113.408 262.721 111.744 264.897C110.848 266.049 109.76 267.905 111.36 268.993C112.768 270.017 114.944 269.697 116.544 269.505C121.536 268.801 126.464 267.073 131.264 265.473C134.72 264.321 138.176 263.169 141.504 261.761L141.696 261.697C142.208 261.569 142.528 260.993 142.4 260.481C142.4 260.353 142.336 260.225 142.272 260.161C141.76 259.521 140.736 259.585 140.096 259.841L128.32 264.257L126.592 264.897C126.08 265.025 125.76 265.537 125.888 266.113C125.952 266.497 126.272 266.753 126.656 266.817C131.52 268.353 136.448 269.633 141.376 270.721C150.464 272.769 159.936 274.369 169.28 273.985C173.824 273.793 178.56 273.089 182.592 270.785C183.04 270.529 183.168 269.953 182.848 269.505C182.784 269.377 182.656 269.249 182.528 269.185C181.824 268.481 180.992 268.481 180.288 268.929Z" fill="#3D3D3D"/>
<path d="M236.096 204.16C230.656 209.792 224.896 215.104 218.816 220.096C215.808 222.592 212.736 224.96 209.536 227.328C206.528 229.632 203.392 231.744 200.192 233.6C196.736 235.52 192.896 236.928 188.928 236.992C188.16 237.056 187.456 237.44 186.944 237.952C186.688 238.208 186.176 238.912 186.88 238.912C194.944 238.784 202.048 234.112 208.384 229.568C215.168 224.704 221.696 219.456 227.84 213.888C231.296 210.752 234.688 207.488 237.952 204.096C238.272 203.776 238.72 203.2 238.016 203.136C237.312 203.072 236.48 203.776 236.096 204.16Z" fill="white"/>
<path d="M87.872 111.297C89.792 111.873 91.584 112.897 93.12 114.241C93.248 114.369 93.76 114.369 93.888 114.305C94.272 114.305 94.72 114.241 95.104 114.113C95.296 114.049 96.448 113.729 96.128 113.473C94.528 112.065 92.608 111.041 90.56 110.401C90.24 110.337 89.92 110.337 89.6 110.401C89.216 110.401 88.768 110.529 88.384 110.657C88.064 110.785 87.168 111.105 87.872 111.297Z" fill="#CECECE"/>
<path d="M99.52 97.6642V111.488C99.52 112.512 102.528 113.536 102.528 112.384V98.5602C102.528 97.5362 99.52 96.5122 99.52 97.6642Z" fill="#CECECE"/>
<path d="M107.52 114.049C107.456 113.217 107.52 112.449 107.648 111.617L107.584 111.937C107.776 110.913 108.032 109.889 108.48 108.929C108.608 108.609 108.544 108.225 108.288 107.905C108.032 107.585 107.712 107.329 107.328 107.201C106.624 106.881 105.792 107.201 105.408 107.905C104.64 109.697 104.256 111.681 104.384 113.665C104.512 114.497 105.152 115.073 105.984 115.137C106.624 115.201 107.584 114.881 107.52 114.049Z" fill="#CECECE"/>
</svg>
