<svg width="320" height="320" viewBox="0 0 320 320" fill="none" xmlns="http://www.w3.org/2000/svg">
<path d="M160.192 260.224C160.192 260.224 154.304 268.608 156.224 273.344H218.24C218.24 273.344 220.544 266.112 211.648 260.736C202.752 255.36 170.496 250.624 160.192 260.224Z" fill="#3D3D3D"/>
<path d="M158.784 259.456C157.696 260.992 156.8 262.592 156.032 264.32C154.88 266.816 153.792 270.016 154.816 272.704C154.944 273.088 155.712 273.472 156.032 273.664C156.48 273.92 156.992 274.112 157.504 274.176H218.624C218.88 274.24 219.2 274.24 219.456 274.176C219.52 274.176 219.52 274.176 219.584 274.176L219.648 274.112C220.608 271.104 219.328 267.584 217.472 265.152C214.336 261.056 209.344 258.88 204.544 257.408C199.616 255.936 194.56 254.912 189.504 254.4C184 253.76 178.432 253.696 172.928 254.272C168 254.848 162.56 256 158.784 259.456C158.656 259.584 161.024 261.504 161.6 260.992C165.44 257.472 171.072 256.384 176.064 255.872C182.4 255.296 188.736 255.552 195.008 256.512C197.888 256.896 200.832 257.472 203.648 258.24C204.864 258.56 206.08 258.88 207.296 259.328C207.616 259.456 208.192 259.648 208.64 259.84C208.896 259.904 209.088 260.032 209.344 260.096L209.728 260.224C209.984 260.288 209.6 260.16 209.92 260.288L210.56 260.608C210.624 260.672 211.008 260.864 210.56 260.608L210.88 260.736L211.136 260.864C210.816 260.672 211.456 261.056 211.136 260.864C211.584 261.184 211.968 261.44 212.416 261.696C213.824 262.72 214.976 264.064 215.872 265.6C216.896 267.456 217.344 269.568 217.088 271.616C217.088 271.872 216.96 272.128 216.96 272.32C216.96 272.448 216.832 272.64 216.96 272.512C216.832 272.512 216.768 272.512 216.64 272.512H174.464C168.064 272.512 161.664 272.384 155.264 272.512H154.944L157.632 273.984C156.608 271.296 157.824 268.16 158.912 265.664C159.68 264 160.576 262.464 161.6 260.928C161.856 260.672 159.168 258.944 158.784 259.456Z" fill="#3D3D3D"/>
<path d="M165.632 268.481C165.696 267.713 165.824 266.945 166.08 266.177L165.952 266.753C166.208 265.857 166.592 264.961 167.04 264.129C167.296 263.681 167.488 263.297 167.808 262.913L168 262.657C168.256 262.273 167.808 262.913 168 262.721C168.192 262.529 168.32 262.337 168.448 262.145C169.088 261.441 169.728 260.801 170.496 260.289C170.752 260.097 170.048 260.609 170.432 260.353L170.688 260.161C170.88 260.033 171.072 259.905 171.328 259.777C171.776 259.521 172.224 259.329 172.672 259.137C173.568 258.753 173.952 257.729 173.568 256.833C173.44 256.513 173.248 256.321 172.928 256.129C171.584 255.169 169.92 255.041 168.448 255.745C163.456 257.921 160.064 262.657 159.488 268.033C159.36 269.505 161.28 270.401 162.496 270.465C163.712 270.529 165.696 270.145 165.888 268.609L165.632 268.481Z" fill="#CECECE"/>
<path d="M220.352 263.232C211.456 272.512 201.472 269.184 201.472 269.184C199.552 276.224 188.8 269.312 188.8 269.312C188.8 269.312 184.768 271.552 180.8 266.432C176.832 261.312 179.456 253.952 179.456 253.952C179.456 253.952 162.816 264.512 160.192 262.464C157.568 260.416 162.624 250.944 178.944 243.584C195.264 236.224 223.552 241.088 223.552 241.088L220.352 263.232Z" fill="white"/>
<path d="M219.072 262.4C215.872 265.728 211.712 268.096 207.168 268.48C206.4 268.544 205.632 268.544 204.864 268.544H204.608L204.096 268.48L203.2 268.352C202.816 268.288 202.432 268.224 201.984 268.096C201.536 267.968 202.432 268.224 201.984 268.096H201.856C201.28 267.904 200.192 267.84 199.936 268.608C199.808 269.312 199.424 269.888 198.976 270.4C198.592 270.72 198.144 270.976 197.632 271.04C197.312 271.104 197.824 271.04 197.504 271.04C197.312 271.04 197.12 271.04 196.928 271.04C196.672 271.04 196.416 271.04 196.16 270.976C195.84 270.912 195.456 270.848 195.136 270.784L194.688 270.656C195.008 270.72 194.432 270.592 194.368 270.528C193.728 270.336 193.088 270.08 192.448 269.824L191.552 269.44L191.36 269.376L191.04 269.248C190.528 268.992 189.952 268.672 189.44 268.352C188.864 267.968 188.16 267.904 187.584 268.224L187.456 268.288C187.328 268.352 187.776 268.16 187.584 268.224C187.52 268.224 187.392 268.288 187.328 268.352C187.136 268.416 186.944 268.48 186.752 268.48C186.496 268.544 186.944 268.48 186.624 268.48H186.176C185.664 268.48 185.152 268.352 184.64 268.16C183.808 267.776 183.104 267.264 182.528 266.624C180.032 264 179.648 260.224 180.224 256.768C180.352 256 180.544 255.232 180.8 254.464C181.248 253.184 179.136 252.288 178.24 252.864C174.144 255.552 169.92 257.856 165.504 259.904C164.352 260.48 163.136 260.928 161.856 261.248C161.728 261.312 160.96 261.44 161.344 261.376C161.088 261.376 160.896 261.376 160.64 261.44C160.384 261.504 161.024 261.504 160.704 261.44C160.384 261.376 160.64 261.44 160.832 261.504C160.512 261.376 161.024 261.632 160.96 261.568C160.704 261.44 161.28 261.888 161.024 261.632C160.768 261.376 161.28 261.952 160.96 261.568C160.832 261.44 161.024 261.696 161.024 261.696C161.024 261.632 161.024 261.632 160.96 261.568C160.96 261.504 160.896 261.44 160.896 261.312C160.832 261.12 160.896 261.632 160.896 261.312C160.896 261.248 160.896 261.184 160.896 261.056C160.896 260.864 160.896 260.672 160.96 260.48C160.96 260.288 160.896 260.672 160.96 260.416C160.96 260.288 161.024 260.224 161.024 260.096C161.088 259.84 161.152 259.648 161.28 259.392C161.472 258.88 161.728 258.368 161.984 257.92C163.648 255.104 166.464 252.608 169.152 250.624C173.12 247.68 177.536 245.248 182.208 243.584C190.272 240.768 199.104 240.448 207.552 240.704C212.736 240.896 217.856 241.536 223.04 242.176L223.296 242.24L221.76 240.768L219.008 260.16L218.624 262.848C218.432 264.32 221.504 265.024 221.76 263.36L224.512 243.968L224.896 241.28C225.024 240.512 223.936 239.936 223.36 239.808C218.56 239.04 213.76 238.528 208.96 238.336C200.064 237.888 190.784 238.144 182.144 240.768C177.152 242.368 172.416 244.736 168.128 247.744C164.992 249.92 161.856 252.48 159.68 255.744C158.592 257.408 157.184 259.84 158.08 261.824C159.232 264.448 162.368 263.936 164.544 263.168C167.744 262.016 170.752 260.544 173.696 258.816C175.808 257.6 177.92 256.384 180.032 255.04L180.352 254.848L177.792 253.248C176.832 255.936 176.64 258.816 177.088 261.632C177.856 266.048 181.504 270.528 186.24 270.848C187.456 270.976 188.672 270.72 189.696 270.208L187.84 270.08C191.808 272.64 200.832 276.416 202.816 269.632L200.896 270.144C205.568 271.68 211.072 270.784 215.36 268.608C217.664 267.392 219.776 265.792 221.504 263.936C222.848 262.848 220.096 261.248 219.072 262.4Z" fill="#3D3D3D"/>
<path d="M220.928 264.577C221.696 264.577 221.76 263.809 221.568 263.233C221.312 262.465 220.608 261.953 219.84 261.889C219.072 261.889 219.008 262.657 219.2 263.233C219.52 263.937 220.16 264.449 220.928 264.577Z" fill="#3D3D3D"/>
<path d="M221.312 264.513C221.504 264.513 220.672 263.169 220.608 263.041C220.352 262.721 219.904 261.889 219.456 261.889C219.264 261.889 220.096 263.297 220.16 263.361C220.352 263.681 220.864 264.513 221.312 264.513Z" fill="#3D3D3D"/>
<path d="M188.352 254.913C188.352 254.913 182.592 262.401 188.8 269.313L188.352 254.913Z" fill="white"/>
<path d="M187.2 253.825C186.112 255.297 185.344 257.025 184.96 258.817C184.064 262.785 185.536 266.433 188.16 269.377C188.48 269.697 189.376 270.593 189.888 270.401C190.4 270.209 189.632 269.377 189.504 269.185C186.24 265.473 186.688 259.713 189.632 255.937C190.08 255.297 187.584 253.313 187.2 253.825Z" fill="#3D3D3D"/>
<path d="M195.968 263.68C195.968 263.68 205.504 277.632 222.848 261.76L195.968 263.68Z" fill="white"/>
<path d="M194.496 263.361C195.776 265.089 197.376 266.497 199.296 267.521C203.648 270.017 208.832 270.593 213.632 269.121C217.728 267.777 221.248 265.217 224.384 262.337C224.704 262.017 223.68 261.633 223.424 261.569C223.104 261.441 221.824 260.929 221.44 261.249C217.152 265.153 211.584 269.057 205.504 268.801C205.12 268.801 204.672 268.737 204.288 268.673H204.096C204.032 268.673 203.904 268.673 203.84 268.609C203.712 268.609 203.584 268.545 203.456 268.545C203.712 268.609 203.456 268.545 203.328 268.545L203.008 268.417C202.752 268.353 203.392 268.545 203.008 268.417C202.944 268.353 202.368 268.161 202.688 268.289L202.112 268.033L201.92 267.905C201.728 267.777 201.984 267.969 201.728 267.841C200.576 267.201 199.552 266.433 198.656 265.537C198.208 265.089 197.824 264.641 197.504 264.193C197.184 263.681 196.224 263.489 195.712 263.361C195.584 263.169 194.24 262.977 194.496 263.361Z" fill="#3D3D3D"/>
<path d="M160.96 184.001C160.96 184.001 203.136 242.433 242.24 234.817C281.344 227.201 278.4 197.953 263.232 165.185C248.064 132.417 208.96 65.3447 189.44 65.3447C169.92 65.3447 153.6 112.001 153.6 112.001L160.96 184.001Z" fill="#CECECE"/>
<path d="M159.808 184.448C161.6 186.944 163.52 189.312 165.504 191.68C170.24 197.376 175.296 202.816 180.608 207.936C187.328 214.528 194.688 220.416 202.56 225.536C210.368 230.528 218.944 234.496 228.16 236.096C232.576 236.864 237.056 236.928 241.472 236.288C246.848 235.52 252.032 233.92 256.96 231.68C264.512 228.16 270.848 222.336 273.536 214.208C276.224 206.016 275.392 197.056 273.408 188.8C271.04 179.072 267.072 169.856 262.784 160.832C258.752 152.448 254.464 144.256 249.92 136.128C244.8 126.912 239.36 117.888 233.664 109.056C228.288 100.608 222.464 92.4801 216.256 84.6721C211.456 78.7201 206.144 72.7041 199.872 68.2881C197.568 66.5601 195.008 65.2801 192.32 64.4481C189.504 63.7441 186.496 63.9361 183.744 65.0241C180.416 66.3041 177.536 68.4801 175.04 70.9761C172.16 73.9201 169.6 77.1201 167.36 80.5121C163.008 87.1681 159.232 94.2721 156.096 101.632C155.072 104 154.048 106.432 153.152 108.864C152.832 109.696 152.192 110.848 152.256 111.808C152.512 115.136 152.96 118.464 153.28 121.728L155.456 142.784L157.824 165.76L159.424 181.44L159.68 183.68C159.808 185.088 162.816 185.728 162.624 183.936L161.92 176.768L160.128 159.616L158.016 138.752L156.16 120.768L155.584 114.88C155.52 113.984 155.456 112.96 155.328 112.064C155.328 112 155.328 112 155.328 111.936L155.264 112.512C156.032 110.208 156.992 107.968 157.888 105.728C160 100.544 162.432 95.4241 165.12 90.4961C168.128 84.9921 171.52 79.4881 175.68 74.8161C177.536 72.6401 179.648 70.7841 182.016 69.1201C183.04 68.4161 184.064 67.8401 185.216 67.3921C186.24 66.9441 187.328 66.6241 188.48 66.4321C188.736 66.3681 188.992 66.3681 189.248 66.3681H189.696C189.76 66.3681 190.144 66.3681 189.952 66.3681C190.336 66.3681 190.72 66.3681 191.104 66.4321L191.68 66.4961C191.232 66.4321 191.872 66.5601 192 66.5601C192.448 66.6881 192.832 66.8161 193.28 66.9441C193.408 67.0081 194.048 67.2641 193.6 67.0721L194.304 67.3921C194.752 67.5841 195.2 67.8401 195.648 68.0961C196.096 68.3521 196.544 68.6081 196.992 68.8641L197.312 69.0561C196.992 68.8641 197.312 69.0561 197.44 69.1201L198.144 69.6321C202.752 72.8961 206.4 76.6721 210.176 80.8961C214.848 86.3361 219.264 91.9681 223.36 97.8561C227.904 104.32 232.256 110.976 236.352 117.696C240.448 124.416 244.544 131.392 248.384 138.368C251.84 144.704 255.232 151.04 258.432 157.504C261.696 163.968 264.64 170.56 267.136 177.344C269.632 184.192 271.68 191.424 272.192 198.72C272.64 204.672 272 210.816 269.312 216.256C266.496 221.888 261.632 226.048 256.064 228.8C252.416 230.528 248.576 231.872 244.608 232.768C241.152 233.664 237.632 234.048 234.048 234.048C227.392 233.92 220.8 232.064 214.848 229.376C208.384 226.432 202.304 222.72 196.672 218.368C191.232 214.208 186.048 209.728 181.184 204.864C177.088 200.832 173.248 196.672 169.536 192.256C167.296 189.696 165.184 187.008 163.072 184.32C162.816 183.936 162.496 183.616 162.24 183.232C161.216 182.208 158.592 182.784 159.808 184.448Z" fill="#CECECE"/>
<path d="M150.4 231.104H98.432L94.208 259.84H154.624L150.4 231.104Z" fill="white"/>
<path d="M150.4 229.696H98.432C97.664 229.632 96.96 230.208 96.832 230.976L95.424 240.704L93.12 256.192L92.608 259.712C92.48 260.48 93.504 261.248 94.208 261.248H147.136C149.568 261.248 152.064 261.312 154.496 261.248H154.624C155.328 261.248 156.352 260.8 156.224 259.904L154.816 250.24L152.512 234.752L152 231.232C151.872 230.4 151.232 229.76 150.4 229.696C149.696 229.696 148.672 230.208 148.8 231.04L150.208 240.768L152.512 256.256L153.024 259.776L154.624 258.432H96.704C95.936 258.432 95.104 258.368 94.336 258.432H94.208L95.808 259.968L97.216 250.24L99.52 234.752L100.032 231.232L98.432 232.512H150.4C151.168 232.576 151.872 232 152 231.232C152 231.232 152 231.232 152 231.168C151.936 230.4 151.232 229.696 150.4 229.696Z" fill="#3D3D3D"/>
<path d="M30.08 82.9453H218.368C222.848 82.9453 226.432 86.5293 226.432 91.0093V223.553C226.432 228.033 222.848 231.617 218.368 231.617H30.08C25.6 231.617 22.016 228.033 22.016 223.553V91.0093C22.016 86.5293 25.6 82.9453 30.08 82.9453Z" fill="white"/>
<path d="M30.592 84.4167H217.408C217.92 84.4167 218.368 84.4167 218.88 84.4167C222.272 84.4167 225.088 87.0407 225.216 90.4327C225.28 92.4807 225.216 94.4647 225.216 96.5127V216.193C225.216 218.433 225.216 220.673 225.216 222.849C225.216 226.881 221.888 230.081 217.92 230.081H34.24C32.704 230.081 31.104 230.145 29.568 230.081C26.176 230.081 23.424 227.457 23.232 224.065C23.232 223.425 23.232 222.849 23.232 222.209V93.6327C23.232 92.9927 23.232 92.2887 23.232 91.6487C23.296 87.6167 26.56 84.4167 30.592 84.4167C31.36 84.4167 31.36 83.2647 31.232 82.7527C31.04 81.9847 30.336 81.4727 29.568 81.4727C24.704 81.6007 20.8 85.5687 20.8 90.4327C20.8 91.0727 20.8 91.7127 20.8 92.2887V221.441C20.8 221.953 20.8 222.465 20.8 223.041C20.864 228.481 25.088 233.153 30.656 233.153C32.064 233.153 33.408 233.153 34.816 233.153H217.984C218.496 233.153 219.008 233.153 219.52 233.153C224.192 232.833 227.712 228.737 227.712 224.193C227.712 222.017 227.712 219.841 227.712 217.665V97.2807C227.712 95.4247 227.712 93.5687 227.712 91.6487C227.648 86.2087 223.424 81.6007 217.856 81.5367H29.504C28.736 81.5367 28.736 82.6887 28.864 83.2007C29.12 83.9047 29.824 84.4167 30.592 84.4167Z" fill="#3D3D3D"/>
<path d="M30.0799 81.2803H218.368C222.848 81.2803 226.432 84.8643 226.432 89.3443V200.32H22.0159V89.3443C22.0159 84.8643 25.5999 81.2803 30.0799 81.2803Z" fill="#3D3D3D"/>
<path d="M31.36 81.6636H218.176C218.624 81.6636 219.136 81.6636 219.584 81.6636H219.648C219.712 81.6636 220.032 81.6636 219.84 81.6636C219.648 81.6636 220.16 81.7916 220.224 81.8556C220.608 81.9836 220.928 82.1756 221.248 82.4316C223.36 83.8396 224.704 86.2076 224.768 88.7676C224.832 90.6236 224.768 92.5436 224.768 94.3996V200.128L225.024 200.064H28.928C26.304 200.064 23.616 200.064 20.992 200.064H20.672L23.552 200.768V89.7916C23.552 87.4876 24.512 85.2476 26.176 83.6476C27.648 82.3676 29.44 81.6636 31.36 81.6636C32 81.6636 30.976 81.2796 30.848 81.2156C30.144 81.0236 29.44 80.8956 28.672 80.8316C24.96 80.8316 21.632 83.3276 20.672 86.9116C20.48 87.8076 20.352 88.6396 20.416 89.5356V198.08C20.352 198.656 20.352 199.168 20.416 199.744C20.416 199.808 20.416 199.872 20.416 199.936C20.416 200.448 22.976 200.64 23.296 200.64H219.456C222.08 200.64 224.768 200.704 227.392 200.64H227.712C227.776 200.64 227.904 200.64 227.968 200.576V90.4956C228.032 89.2156 227.84 87.9356 227.456 86.7196C225.856 82.4956 221.248 80.8316 216.96 80.7676C215.68 80.7676 214.4 80.7676 213.056 80.7676H28.736C28.096 80.7676 29.12 81.1516 29.248 81.2156C29.888 81.5356 30.656 81.6636 31.36 81.6636Z" fill="#3D3D3D"/>
<path d="M124.672 213.313C124.288 213.249 125.056 213.313 124.672 213.313H124.928C124.992 213.313 125.184 213.313 125.248 213.377C125.312 213.441 124.864 213.249 125.184 213.377C125.376 213.441 125.568 213.505 125.696 213.569L125.504 213.505L125.696 213.633C125.76 213.697 125.888 213.761 125.952 213.825C125.824 213.697 126.208 214.017 125.952 213.825C126.08 213.953 126.08 213.953 126.144 214.017C126.208 214.081 126.4 214.273 126.528 214.401C126.336 214.209 126.464 214.337 126.528 214.401C126.592 214.465 126.656 214.593 126.72 214.657L126.784 214.849C126.784 214.913 126.912 215.233 126.912 215.105C126.912 214.977 126.976 215.233 126.976 215.233L127.04 215.489C127.04 215.681 127.104 215.873 127.104 216.065C127.104 216.257 127.168 215.745 127.104 216.129C127.104 216.193 127.104 216.321 127.104 216.449C127.104 216.641 127.04 216.833 126.976 217.089C126.912 217.409 127.104 216.833 126.976 217.153C126.912 217.217 126.912 217.281 126.912 217.345C126.848 217.537 126.72 217.665 126.656 217.857C126.656 217.857 126.464 218.177 126.592 217.985C126.72 217.793 126.528 218.113 126.528 218.113C126.4 218.241 126.208 218.433 126.08 218.561C126.016 218.625 125.888 218.689 125.824 218.753C125.696 218.817 125.504 218.945 125.312 219.009C125.632 218.881 125.12 219.073 125.056 219.073C124.992 219.073 124.928 219.073 124.864 219.137C125.056 219.073 125.12 219.073 124.928 219.137H124.736H124.48C124.16 219.137 124.544 219.137 124.544 219.137C124.416 219.201 124.096 219.073 123.968 219.073C123.584 219.009 124.288 219.201 123.968 219.073L123.776 219.009C123.648 219.009 123.584 218.945 123.456 218.881L123.584 218.945L123.392 218.817C123.328 218.753 122.88 218.433 123.136 218.689C123.008 218.561 122.88 218.433 122.752 218.305C122.688 218.241 122.624 218.177 122.56 218.113C122.432 217.985 122.688 218.369 122.56 218.113C122.432 217.921 122.368 217.729 122.24 217.537C122.176 217.473 122.176 217.409 122.176 217.345C122.304 217.665 122.176 217.281 122.176 217.217C122.112 217.025 122.112 216.897 122.112 216.705C122.112 216.641 122.112 216.513 122.112 216.449C122.048 216.065 122.112 216.577 122.112 216.385C122.112 216.193 122.176 215.937 122.176 215.745C122.176 215.617 122.24 215.553 122.24 215.425C122.304 215.105 122.112 215.617 122.24 215.361C122.304 215.169 122.432 214.977 122.496 214.785L122.624 214.593C122.688 214.465 122.688 214.465 122.624 214.593C122.688 214.529 122.688 214.465 122.752 214.401C122.88 214.273 123.008 214.145 123.136 214.017C123.2 213.953 123.456 213.761 123.2 213.953L123.456 213.761L123.712 213.633C123.776 213.569 124.096 213.505 123.776 213.633C123.968 213.569 124.224 213.505 124.416 213.441C124.416 213.441 124.032 213.505 124.352 213.441C124.48 213.441 124.672 213.441 124.8 213.441C125.504 213.441 126.336 212.865 126.144 212.097C125.888 211.329 125.12 210.817 124.352 210.881C122.112 210.881 120.064 212.289 119.168 214.337C118.336 216.577 119.104 219.073 120.96 220.481C122.88 221.953 125.568 222.145 127.68 220.929C129.6 219.777 130.688 217.537 130.24 215.361C129.984 214.081 129.216 212.993 128.256 212.161C127.168 211.329 125.824 210.881 124.416 210.881C123.712 210.881 122.88 211.521 123.072 212.225C123.264 212.929 123.904 213.377 124.672 213.313Z" fill="#CECECE"/>
<path d="M217.984 89.7275H30.016V192.384H217.984V89.7275Z" fill="white"/>
<path d="M30.464 90.7531H210.816C213.248 90.7531 215.68 90.8171 218.112 90.7531H218.432L216.448 89.3451V190.401C216.384 190.849 216.384 191.297 216.448 191.809C216.448 191.873 216.448 191.937 216.448 192.001L217.536 191.361H37.184C34.752 191.361 32.32 191.297 29.888 191.361H29.568L31.552 192.769V94.2731C31.552 92.9291 31.68 91.5851 31.552 90.2411V90.0491C31.552 88.8971 28.544 87.9371 28.544 89.2811V187.713C28.544 189.057 28.48 190.401 28.544 191.745C28.544 191.809 28.544 191.873 28.544 191.937C28.544 192.705 29.888 193.345 30.528 193.345H218.496C218.944 193.345 219.584 193.281 219.584 192.705V94.2731C219.584 92.9291 219.648 91.5851 219.584 90.2411C219.584 90.1771 219.584 90.1131 219.584 90.0491C219.584 89.2811 218.24 88.6411 217.6 88.6411H29.568C28.992 88.6411 28.288 88.8331 28.608 89.5371C28.992 90.2411 29.696 90.6891 30.464 90.7531Z" fill="#3D3D3D"/>
<path d="M44.224 103.489C45.5671 103.489 46.656 102.4 46.656 101.057C46.656 99.7138 45.5671 98.625 44.224 98.625C42.8808 98.625 41.792 99.7138 41.792 101.057C41.792 102.4 42.8808 103.489 44.224 103.489Z" fill="#CECECE"/>
<path d="M53.056 103.425C54.3991 103.425 55.488 102.336 55.488 100.993C55.488 99.6494 54.3991 98.5605 53.056 98.5605C51.7128 98.5605 50.624 99.6494 50.624 100.993C50.624 102.336 51.7128 103.425 53.056 103.425Z" fill="#CECECE"/>
<path d="M61.952 103.552C63.2952 103.552 64.384 102.464 64.384 101.12C64.384 99.7773 63.2952 98.6885 61.952 98.6885C60.6089 98.6885 59.52 99.7773 59.52 101.12C59.52 102.464 60.6089 103.552 61.952 103.552Z" fill="#CECECE"/>
<path d="M117.376 65.4079C117.376 65.4079 123.52 40.0639 148.224 35.4559C186.368 28.4159 247.552 68.0319 269.76 117.376C291.968 166.72 313.728 279.68 282.24 284.544C250.752 289.408 210.048 270.4 210.048 270.4L203.328 234.112C203.328 234.112 220.928 235.328 238.272 230.976C255.616 226.624 231.36 98.1759 212.224 87.0399C186.688 72.1919 147.008 86.2719 147.008 86.2719C147.008 86.2719 121.152 68.0959 117.376 65.4079Z" fill="#CECECE"/>
<path d="M118.976 65.5364C118.592 67.3284 119.808 69.1204 121.6 69.5044C123.392 69.8884 125.184 68.6724 125.568 66.8804C125.952 65.0884 124.736 63.2964 122.944 62.9124C121.28 62.5924 119.616 63.5524 119.104 65.1524C119.296 64.5124 119.488 63.9364 119.68 63.2964C120.384 61.2484 121.28 59.2644 122.24 57.3444C125.248 51.5204 129.472 46.2084 134.848 42.3684C147.584 33.4084 164.288 34.8804 178.496 39.0404C195.52 44.0324 211.264 53.1844 225.088 64.1924C240 76.0324 253.12 90.3684 262.72 106.88C270.336 120 275.392 134.592 279.744 149.056C284.608 164.992 288.576 181.248 291.52 197.696C294.272 212.992 296.32 228.544 296.384 244.096C296.512 250.368 296.064 256.704 295.104 262.912C294.336 267.584 293.12 272.384 290.752 276.48C288.96 279.552 286.4 282.112 283.2 283.008L282.56 283.2C282.496 283.2 282.368 283.264 282.304 283.264C281.856 283.328 282.624 283.2 282.176 283.264C281.152 283.456 280.128 283.584 279.104 283.648C276.736 283.904 274.304 284.032 271.936 284.096C267.072 284.096 262.208 283.776 257.344 283.072C248.128 281.728 239.04 279.616 230.208 276.672C226.752 275.584 223.36 274.368 219.968 273.088C217.856 272.256 215.104 271.168 213.376 270.4C212.608 270.08 211.776 269.696 211.008 269.376L211.648 270.144L205.76 238.336L204.928 233.856L203.264 235.2C207.168 235.392 211.072 235.456 215.04 235.264C218.944 235.136 222.912 234.816 226.752 234.304C230.848 233.792 235.2 233.216 239.168 232C243.136 230.784 244.288 225.984 244.928 222.464C246.144 215.936 246.016 209.088 245.696 202.496C245.248 193.472 244.224 184.512 242.88 175.552C241.408 165.696 239.616 155.904 237.376 146.176C235.328 136.896 232.896 127.68 230.08 118.656C227.776 111.36 225.152 104.064 221.696 97.2164C219.328 92.6084 216.576 88.0004 211.904 85.5044C200.384 79.2964 186.624 78.4004 173.824 79.5524C164.928 80.3204 156.16 82.1124 147.648 84.8004C147.2 84.9284 146.752 85.0564 146.304 85.2484L147.904 85.4404C139.776 79.7444 131.712 74.0484 123.648 68.3524L120.384 66.0484L119.232 65.2164L118.784 64.8964C118.528 64.7044 118.976 65.0244 118.784 64.8964L118.528 64.7044C117.888 64.1924 116.992 64.0644 116.288 64.4484C115.776 64.7044 115.584 65.2804 115.84 65.7924C115.904 65.9204 115.968 66.0484 116.096 66.1124C123.968 71.7444 131.904 77.2484 139.712 82.7524L144.512 86.1444C145.536 86.8484 146.432 87.7444 147.712 87.4244C150.016 86.8484 152.256 86.0164 154.496 85.3764C166.912 82.1124 180.16 80.3844 193.024 82.0484C196.736 82.4964 200.32 83.3924 203.84 84.5444C205.568 85.1204 207.232 85.8244 208.896 86.6564C209.728 87.0404 210.56 87.4884 211.328 88.0004C211.456 88.0644 211.968 88.3844 211.84 88.3204C211.712 88.2564 212.16 88.5764 212.288 88.7044C212.416 88.8324 212.736 89.0884 212.928 89.2804C213.12 89.4724 213.312 89.6644 213.504 89.8564L213.76 90.1124C213.824 90.1764 213.888 90.2404 213.952 90.3044C214.848 91.3924 215.68 92.5444 216.448 93.7604C220.672 100.544 223.488 108.288 225.984 115.84C229.312 126.08 232.128 136.512 234.432 147.072C236.928 158.144 238.912 169.344 240.448 180.544C241.728 190.144 242.688 199.872 242.688 209.6C242.688 213.248 242.496 216.896 241.984 220.48C241.6 223.104 241.216 225.344 239.936 227.648C239.616 228.288 239.104 228.928 238.528 229.376C238.656 229.248 238.272 229.504 238.208 229.568C238.144 229.632 238.08 229.632 237.952 229.696C237.824 229.76 238.272 229.632 237.952 229.696C236.096 230.208 234.24 230.592 232.32 230.976C224.128 232.448 215.808 233.152 207.488 233.024C206.144 233.024 204.8 232.96 203.456 232.896C202.688 232.832 201.6 233.216 201.792 234.24L208.064 268.032C208.256 269.12 208.192 270.784 209.28 271.36C210.752 272.128 212.288 272.768 213.824 273.344C221.504 276.544 229.312 279.232 237.312 281.408C248.192 284.352 259.392 286.464 270.656 286.528C275.2 286.528 280.128 286.592 284.48 285.312C286.592 284.672 288.512 283.584 290.176 282.112C293.888 278.72 295.808 273.792 297.088 268.992C298.88 262.336 299.392 255.424 299.584 248.512C299.968 230.592 297.472 212.544 294.208 194.944C290.752 176.128 285.952 157.568 279.872 139.392C277.312 131.776 274.496 124.288 271.168 116.928C266.624 107.008 260.928 97.7284 254.08 89.2804C240.32 72.0004 223.232 57.6644 203.84 47.1044C195.2 42.3044 186.048 38.6564 176.512 36.0964C168.256 33.9844 159.616 32.8324 151.104 33.7924C141.824 34.7524 133.248 38.9124 126.784 45.6324C122.368 50.3684 118.912 55.9364 116.736 62.0164C116.352 63.0404 116.032 64.0644 115.776 65.1524C115.392 66.6884 118.592 67.0724 118.976 65.5364Z" fill="#CECECE"/>
<path d="M208.768 86.2734C208.768 86.2734 203.456 100.481 193.152 104.001C182.848 107.521 161.92 111.233 163.456 122.113C164.992 132.993 179.968 131.457 188.032 126.593C188.032 126.593 195.712 154.049 214.08 155.457C232.448 156.865 238.144 149.697 243.264 160.129C243.264 160.129 262.592 149.825 260.48 140.545C259.776 137.217 256.128 104.705 227.264 101.121C227.328 101.185 211.264 100.033 208.768 86.2734Z" fill="white"/>
<path d="M207.168 86.0161C205.504 90.3041 203.072 94.3361 199.936 97.7281C197.632 100.352 194.688 102.336 191.424 103.488C188.288 104.512 185.088 105.344 181.952 106.368C178.496 107.392 175.104 108.608 171.84 110.016C169.024 111.296 166.208 112.832 164.16 115.136C162.304 117.12 161.536 119.808 162.048 122.432C162.624 125.504 164.608 128.128 167.424 129.472C170.496 131.008 174.144 131.264 177.472 131.008C180.864 130.688 184.192 129.792 187.328 128.32C188.032 128 188.736 127.616 189.376 127.232L186.496 126.592C187.2 128.896 188.032 131.2 188.992 133.376C190.976 138.112 193.6 142.528 196.8 146.496C200.448 150.848 205.184 154.496 210.816 155.776C214.528 156.672 218.56 156.608 222.336 156.416C225.472 156.288 228.48 155.904 231.616 155.52C232.32 155.456 232.96 155.328 233.664 155.264C233.984 155.2 234.304 155.2 234.624 155.2C234.304 155.2 234.688 155.2 234.752 155.2H235.264C235.52 155.2 235.84 155.2 236.096 155.2H236.416C236.736 155.2 236.096 155.136 236.544 155.2C236.8 155.264 237.056 155.264 237.312 155.328C236.8 155.2 237.568 155.392 237.696 155.456C237.376 155.328 238.016 155.584 237.696 155.456L238.08 155.648L238.336 155.776C238.016 155.648 238.4 155.84 238.464 155.904C238.848 156.16 239.232 156.48 239.552 156.8C240.448 157.76 241.152 158.912 241.728 160.128C242.176 161.024 243.776 161.216 244.608 160.768C246.784 159.552 248.96 158.208 250.944 156.8C254.528 154.24 258.176 151.296 260.544 147.52C261.632 145.92 262.208 144.064 262.272 142.08C262.208 141.184 262.08 140.288 261.888 139.456C261.504 137.216 261.056 134.976 260.416 132.736C258.496 125.44 255.36 118.336 250.432 112.576C245.824 107.136 239.616 103.296 232.704 101.504C231.296 101.12 229.888 100.864 228.48 100.608C227.968 100.544 227.52 100.48 227.008 100.416C226.88 100.416 227.584 100.48 227.2 100.416C226.816 100.352 226.496 100.352 226.112 100.288L225.344 100.16L224.96 100.096C224.832 100.096 224.256 99.9041 224.768 100.032C224 99.8401 223.296 99.6481 222.528 99.3921C222.144 99.2641 221.76 99.1361 221.376 99.0081C221.12 98.9441 221.696 99.1361 221.312 99.0081L221.056 98.8801L220.288 98.5601C216.576 96.8961 213.248 94.0801 211.52 90.1761C211.008 88.9601 210.624 87.6801 210.368 86.4001C210.176 85.3761 207.04 85.1201 207.232 86.3361C208.128 91.0081 210.88 95.1041 214.848 97.7281C217.92 99.7121 221.376 101.056 225.024 101.76C225.92 101.952 226.752 102.016 227.584 102.144H227.648C227.136 102.08 227.712 102.144 227.84 102.208C228.608 102.336 229.376 102.464 230.08 102.592C231.232 102.848 232.384 103.104 233.472 103.488C237.76 104.896 241.664 107.2 244.928 110.272C250.688 115.648 254.336 122.816 256.64 130.24C257.408 132.8 258.048 135.424 258.56 138.048C258.944 140.096 259.456 142.08 258.88 144.128C257.664 148.16 254.08 151.36 250.88 153.92C248.256 155.968 245.504 157.824 242.56 159.488L242.048 159.744L244.928 160.384C243.904 158.336 242.624 156.288 240.576 155.136C238.592 154.048 236.352 153.6 234.112 153.792C231.552 153.92 228.992 154.304 226.432 154.624C222.784 155.072 219.136 155.2 215.488 155.008C214.016 154.944 212.544 154.752 211.136 154.432C209.856 154.112 208.64 153.6 207.424 152.96C205.12 151.68 203.072 150.08 201.28 148.16C197.76 144.32 194.88 139.968 192.832 135.168C191.552 132.48 190.528 129.728 189.696 126.912C189.44 125.952 187.52 125.888 186.816 126.272C184.192 127.872 181.248 128.896 178.176 129.408C176.704 129.664 175.168 129.792 173.696 129.728C172.992 129.728 172.352 129.6 171.712 129.472L171.456 129.408C171.2 129.344 171.648 129.472 171.392 129.408L170.944 129.28L170.432 129.088L170.112 128.96C167.552 127.936 165.696 125.696 165.248 122.944C164.736 120.512 165.504 117.952 167.232 116.16C169.152 113.984 171.904 112.576 174.464 111.424C177.6 110.08 180.864 108.928 184.128 107.968C187.2 107.072 190.272 106.176 193.28 105.216C196.544 104.128 199.552 102.336 201.92 99.8401C204.16 97.5361 206.144 94.9121 207.68 92.0961C208.704 90.4321 209.536 88.7041 210.176 86.9121C210.176 86.8481 210.24 86.7201 210.304 86.6561C210.688 85.5681 207.616 84.8641 207.168 86.0161Z" fill="#3D3D3D"/>
<path d="M265.408 125.504C265.408 125.504 280.64 127.36 281.92 119.04C283.2 110.72 273.984 113.984 273.984 113.984C273.984 113.984 282.624 96.1921 267.2 95.2961C267.2 95.2961 277.952 81.2801 266.496 71.1041C255.04 60.9281 236.544 71.1041 236.544 71.1041C236.544 71.1041 234.56 53.3121 219.584 57.6641C204.608 62.0161 209.92 72.1921 209.92 72.1921C209.92 72.1921 200.32 74.8161 200.896 80.9601C201.472 87.1041 209.152 88.5121 209.152 88.5121C209.152 88.5121 214.336 105.6 227.328 101.184L243.264 121.28C243.264 121.28 239.808 129.92 245.952 137.408C252.096 144.896 267.648 136.768 265.408 125.504Z" fill="#3D3D3D"/>
<path d="M263.872 125.889C268.736 126.529 273.728 125.953 278.336 124.289C281.024 123.265 283.136 121.409 283.52 118.465C283.712 117.057 283.648 115.457 282.688 114.305C281.92 113.537 280.96 113.089 279.936 113.025C277.568 112.833 275.136 113.217 272.896 114.049L275.584 113.665C276.48 111.681 277.184 109.633 277.632 107.521C278.272 104.193 278.336 100.097 275.712 97.5367C273.792 95.6807 271.168 95.1047 268.608 94.9767L268.8 95.1047C273.024 89.6007 275.136 81.3447 271.616 75.0087C268.864 70.2087 263.808 67.1367 258.368 66.4327C253.312 65.7287 248.128 66.6887 243.264 68.0967C240.448 68.8647 237.696 70.0167 235.136 71.3607L238.208 70.7847C237.696 66.0487 235.392 60.6087 231.168 58.1127C226.944 55.6167 221.248 56.7687 216.832 58.3687C212.928 59.7767 208.704 62.2087 207.744 66.6247C207.296 68.6087 207.552 70.7207 208.448 72.5767L209.152 72.2567C206.144 73.0887 202.816 74.6247 200.832 77.0567C199.36 78.7847 198.976 81.2167 199.872 83.3287C200.768 85.2487 202.304 86.7847 204.288 87.6807C204.992 88.0647 205.76 88.3847 206.592 88.5767C206.976 88.6407 207.36 88.7047 207.744 88.8967C207.616 88.8327 207.808 89.1527 207.808 89.2807C207.936 89.7287 208.128 90.1127 208.256 90.4967C209.472 93.6327 211.328 96.5127 213.696 98.8807C215.296 100.417 217.216 101.505 219.392 102.081C222.4 102.785 225.664 102.145 228.544 101.185L225.856 101.569L232.192 109.569L240.96 120.641C241.152 120.897 241.664 121.281 241.728 121.601C241.792 121.921 241.536 122.305 241.472 122.497C240.64 125.377 240.576 128.385 241.216 131.329C241.984 134.657 243.904 138.433 247.168 139.969C249.984 141.249 253.312 140.737 256.192 139.969C261.824 138.433 267.072 133.825 267.2 127.617C267.2 126.849 267.136 126.017 267.008 125.249C266.944 124.993 263.808 125.569 263.872 125.889C265.024 131.777 261.12 137.345 255.744 139.585C255.488 139.713 255.168 139.777 254.912 139.905C254.784 139.969 254.72 139.969 254.592 139.969C254.784 139.905 254.464 139.969 254.336 139.969C254.016 139.969 253.696 139.969 253.376 139.969C252.16 139.905 251.008 139.649 249.984 139.073C246.848 137.473 244.992 133.569 244.288 130.241C243.712 127.489 243.84 124.609 244.608 121.857C244.672 121.665 244.928 121.153 244.864 120.961C244.8 120.769 244.352 120.321 244.224 120.129L236.096 109.889L228.992 100.865C228.864 100.673 228.16 100.865 227.968 100.865C227.392 100.929 226.816 101.057 226.24 101.249C226.048 101.313 225.792 101.377 225.6 101.441C225.792 101.377 225.28 101.505 225.536 101.441C225.024 101.505 224.576 101.505 224.064 101.505C223.104 101.441 222.08 101.249 221.184 100.929C219.456 100.289 217.92 99.2647 216.576 97.9847C214.336 95.7447 212.608 93.0567 211.456 90.1127C211.2 89.4727 210.944 88.8327 210.752 88.1927L210.688 88.1287C207.872 87.6167 204.8 85.9527 203.328 83.3927C202.24 81.5367 202.176 79.1687 203.264 77.2487C204.352 75.5847 205.888 74.2407 207.68 73.4087C208.384 73.0247 209.152 72.7047 209.92 72.3847L210.688 72.1287C210.688 72.1287 211.456 71.9367 211.392 71.8087C210.752 70.4007 210.432 68.8647 210.496 67.3287C210.688 63.6807 213.184 60.9287 216.256 59.2647C217.536 58.5607 218.88 58.0487 220.224 57.6647C220.992 57.4087 221.824 57.2807 222.656 57.2807C224.512 57.2807 226.304 57.7287 227.84 58.6887C230.528 60.2887 232.32 63.0407 233.408 65.8567C234.112 67.6487 234.624 69.4407 234.88 71.3607C234.944 71.7447 237.696 70.9127 237.952 70.7847L238.272 70.5927C238.656 70.4007 239.104 70.2087 239.488 70.0167C240.832 69.3767 242.176 68.8647 243.584 68.4167C244.416 68.1607 245.376 67.8407 246.08 67.6487C246.912 67.4567 247.744 67.2647 248.576 67.1367C250.816 66.8167 253.184 66.7527 255.424 67.0727C260.672 67.7767 265.344 70.7847 268.096 75.3287C270.4 79.2967 270.464 83.9687 269.12 88.2567C268.352 90.8807 267.136 93.3127 265.536 95.4887C265.472 95.6167 265.6 95.6167 265.728 95.6167C268.032 95.7447 270.464 96.3207 272.192 97.9207C273.472 99.1367 274.24 100.673 274.496 102.401C275.072 105.665 274.24 109.057 273.152 112.065C272.896 112.769 272.576 113.537 272.256 114.241C272.576 114.305 272.896 114.305 273.28 114.241C273.856 114.177 274.432 114.049 275.008 113.857C274.752 113.921 275.328 113.729 275.008 113.857C275.136 113.793 275.584 113.793 275.072 113.857L275.264 113.793C275.456 113.729 274.944 113.985 275.2 113.793C275.264 113.793 275.584 113.729 275.328 113.793H275.456C275.2 113.793 275.648 113.793 275.648 113.793C276.032 113.729 276.416 113.729 276.864 113.793C279.232 114.049 280.448 115.777 280.384 118.145C280.384 120.705 278.976 123.009 276.672 124.161C276.16 124.417 275.648 124.609 275.136 124.801C274.944 124.865 274.688 124.929 274.624 124.929C274.56 124.929 274.176 125.057 274.496 124.993L274.24 125.057C273.984 125.121 274.496 124.993 274.24 125.057C273.216 125.249 272.256 125.313 271.232 125.377C270.208 125.441 269.12 125.377 268.032 125.313L267.072 125.249H266.88C266.24 125.249 265.536 125.313 264.96 125.505C264.64 125.569 264.32 125.633 264.064 125.761C264.064 125.697 263.68 125.889 263.872 125.889Z" fill="#3D3D3D"/>
<path d="M225.536 104.832C225.536 104.832 225.92 92.6083 234.816 93.8243C243.712 95.0403 250.688 121.472 235.264 122.752" fill="white"/>
<path d="M227.136 104.897C227.2 102.401 227.84 99.9686 229.056 97.7926C229.824 96.2566 231.168 95.1046 232.832 94.5926C233.152 94.5286 233.536 94.4646 233.856 94.4646C234.048 94.4646 234.24 94.4646 234.432 94.5286L234.688 94.5926C234.368 94.4646 234.944 94.6566 234.688 94.5926C235.2 94.7206 235.648 94.9766 236.096 95.2326C238.848 97.1526 240.512 100.545 241.536 103.617C242.816 107.201 243.136 111.105 242.432 114.881C242.048 116.673 241.216 118.401 239.936 119.745C238.592 121.089 236.8 121.857 234.88 121.985C234.432 122.049 233.472 122.241 233.728 122.881C233.984 123.521 235.2 123.521 235.648 123.457C239.872 123.073 243.584 120.833 245.056 116.737C246.464 112.833 246.08 108.481 244.992 104.513C243.968 100.929 242.176 97.0886 239.168 94.7206C235.648 92.0326 230.144 92.2246 227.136 95.5526C225.024 97.9206 224.064 101.569 223.936 104.705C224 105.857 227.136 105.921 227.136 104.897Z" fill="#3D3D3D"/>
<path d="M204.48 127.36C204.48 131.2 202.88 135.488 199.744 137.856C198.208 139.008 196.352 139.712 194.432 139.904C193.536 140.032 194.816 142.016 195.648 141.888C199.04 141.504 202.048 139.648 203.904 136.768C205.184 134.72 205.952 132.416 206.208 129.984C206.272 129.472 206.336 128.96 206.336 128.448C206.272 127.872 205.952 127.36 205.44 127.04C205.12 126.912 204.48 126.784 204.48 127.36Z" fill="#3D3D3D"/>
<path d="M206.4 105.344C206.4 105.344 204.352 106.368 205.568 108.224C206.784 110.08 209.024 108.608 208.512 106.688C208.384 105.792 207.552 105.152 206.656 105.216C206.528 105.28 206.464 105.344 206.4 105.344Z" fill="#3D3D3D"/>
<path d="M253.312 227.841C251.456 229.121 249.088 229.889 246.912 230.529C239.68 232.769 232 233.601 224.448 233.985C217.152 234.305 209.856 234.177 202.56 233.665C202.112 233.665 202.112 233.793 202.432 234.049C202.944 234.305 203.456 234.497 204.032 234.497C215.424 235.265 227.072 235.393 238.4 233.729C243.52 232.961 248.768 231.873 253.504 229.697C254.144 229.441 254.848 229.057 255.424 228.673C255.68 228.481 254.784 228.161 254.72 228.097C254.464 227.969 253.568 227.649 253.312 227.841Z" fill="#3D3D3D"/>
<path d="M196.864 82.2393C192.512 81.2793 188.096 80.7033 183.68 80.4473C174.976 79.8073 165.888 80.1274 157.504 82.7514C152.576 84.1594 148.096 86.7193 144.32 90.1753C144 90.4313 145.728 92.0953 146.112 91.7753C152.768 85.4393 162.112 83.0073 171.072 82.1753C178.624 81.5353 186.24 81.8554 193.728 83.0714C195.264 83.3274 196.8 83.5834 198.272 83.9034C198.784 84.0314 198.336 83.4554 198.272 83.2634C197.888 82.7514 197.44 82.3673 196.864 82.2393Z" fill="#3D3D3D"/>
<mask id="path-38-inside-1_7608_56318" fill="white">
<path d="M116.303 65.7773C116.303 65.7773 94.6069 84.5933 87.0549 90.4813C79.5029 96.3694 77.5189 102.385 83.5349 103.345C83.5349 103.345 79.8229 106.801 82.7029 111.281C85.5829 115.761 92.6229 113.457 100.047 105.649C100.047 105.649 86.4789 118.449 93.3269 120.369C97.1669 122.865 107.087 114.768 110.927 108.368C113.103 105.232 114.482 101.702 119.371 96.8129C125.643 95.4049 128.719 100.785 122.767 104.753C116.815 108.721 110.927 114.865 117.839 119.153C124.751 123.441 152.783 96.4973 149.903 84.3373"/>
</mask>
<path d="M116.303 65.7773C116.303 65.7773 94.6069 84.5933 87.0549 90.4813C79.5029 96.3694 77.5189 102.385 83.5349 103.345C83.5349 103.345 79.8229 106.801 82.7029 111.281C85.5829 115.761 92.6229 113.457 100.047 105.649C100.047 105.649 86.4789 118.449 93.3269 120.369C97.1669 122.865 107.087 114.768 110.927 108.368C113.103 105.232 114.482 101.702 119.371 96.8129C125.643 95.4049 128.719 100.785 122.767 104.753C116.815 108.721 110.927 114.865 117.839 119.153C124.751 123.441 152.783 96.4973 149.903 84.3373" fill="white"/>
<path d="M83.5349 103.345L85.4974 105.453C86.3031 104.703 86.6107 103.559 86.2899 102.506C85.969 101.453 85.0759 100.675 83.9887 100.501L83.5349 103.345ZM100.047 105.649L102.134 107.634C103.209 106.503 103.188 104.722 102.087 103.617C100.986 102.511 99.2054 102.484 98.0706 103.554L100.047 105.649ZM93.3269 120.369L94.8964 117.954C94.6521 117.796 94.385 117.675 94.1044 117.596L93.3269 120.369ZM110.927 108.368L108.561 106.727C108.525 106.779 108.49 106.832 108.457 106.887L110.927 108.368ZM119.371 96.8129L118.741 94.0029C118.208 94.1224 117.721 94.3907 117.335 94.7765L119.371 96.8129ZM116.303 65.7773C114.416 63.6016 114.416 63.6017 114.416 63.6018C114.416 63.6019 114.415 63.6021 114.415 63.6024C114.414 63.6029 114.413 63.6038 114.412 63.6049C114.41 63.6071 114.406 63.6105 114.401 63.615C114.39 63.624 114.375 63.6374 114.354 63.6552C114.313 63.6908 114.252 63.7438 114.172 63.8133C114.011 63.9521 113.775 64.1567 113.472 64.4193C112.865 64.9445 111.989 65.7015 110.914 66.6284C108.764 68.4824 105.82 71.0153 102.64 73.7316C96.2585 79.1833 88.999 85.3137 85.2841 88.2101L88.8257 92.7526C92.6628 89.761 100.027 83.5394 106.382 78.1111C109.57 75.3873 112.522 72.8483 114.676 70.9903C115.753 70.0612 116.631 69.3022 117.24 68.7754C117.545 68.512 117.782 68.3066 117.943 68.1669C118.024 68.0971 118.085 68.0437 118.127 68.0078C118.148 67.9898 118.163 67.9762 118.174 67.967C118.179 67.9624 118.183 67.959 118.186 67.9567C118.187 67.9555 118.188 67.9546 118.189 67.954C118.189 67.9537 118.189 67.9535 118.19 67.9533C118.19 67.9532 118.19 67.9531 116.303 65.7773ZM85.2841 88.2101C81.3603 91.2693 78.3873 94.7127 77.442 97.9553C76.9455 99.6586 76.9242 101.657 78.1091 103.386C79.2649 105.073 81.1469 105.881 83.0811 106.189L83.9887 100.501C82.9149 100.33 82.7889 100.026 82.8607 100.13C82.9617 100.278 82.7804 100.224 82.9718 99.5674C83.4025 98.09 85.1976 95.5814 88.8257 92.7526L85.2841 88.2101ZM83.5349 103.345C81.5724 101.237 81.5713 101.238 81.5703 101.24C81.5699 101.24 81.5688 101.241 81.568 101.242C81.5665 101.243 81.5649 101.245 81.5632 101.246C81.5599 101.249 81.5563 101.253 81.5525 101.256C81.545 101.263 81.5365 101.271 81.5271 101.28C81.5084 101.298 81.486 101.32 81.4605 101.346C81.4094 101.397 81.3452 101.463 81.2706 101.543C81.1219 101.703 80.9294 101.923 80.7169 102.2C80.2973 102.745 79.7703 103.547 79.3639 104.566C78.5111 106.704 78.2556 109.689 80.2803 112.839L85.1255 109.724C84.2702 108.394 84.4307 107.411 84.714 106.7C84.8755 106.295 85.0965 105.953 85.2829 105.711C85.3734 105.593 85.4484 105.509 85.4915 105.462C85.5128 105.439 85.5255 105.427 85.5274 105.425C85.5283 105.424 85.5265 105.426 85.5216 105.43C85.5191 105.433 85.5159 105.436 85.5119 105.44C85.5099 105.441 85.5077 105.444 85.5053 105.446C85.5041 105.447 85.5028 105.448 85.5015 105.449C85.5008 105.45 85.4998 105.451 85.4995 105.451C85.4985 105.452 85.4974 105.453 83.5349 103.345ZM80.2803 112.839C81.3819 114.552 82.969 115.71 84.8927 116.185C86.7469 116.644 88.6975 116.419 90.5622 115.812C94.2517 114.611 98.2607 111.707 102.134 107.634L97.9598 103.665C94.4091 107.399 91.1861 109.551 88.7796 110.335C87.5963 110.72 86.7829 110.719 86.2751 110.594C85.8368 110.485 85.4639 110.25 85.1255 109.724L80.2803 112.839ZM100.047 105.649C98.0706 103.554 98.0702 103.555 98.0698 103.555C98.0695 103.555 98.069 103.556 98.0686 103.556C98.0678 103.557 98.0667 103.558 98.0654 103.559C98.0629 103.562 98.0595 103.565 98.0553 103.569C98.047 103.577 98.0355 103.588 98.0208 103.602C97.9916 103.629 97.9499 103.669 97.897 103.72C97.7912 103.822 97.6401 103.969 97.4519 104.155C97.076 104.527 96.5505 105.057 95.9429 105.699C94.7378 106.971 93.1671 108.727 91.8007 110.58C90.5038 112.34 89.1153 114.546 88.6695 116.667C88.4369 117.773 88.3898 119.192 89.1078 120.54C89.8603 121.952 91.1646 122.754 92.5494 123.142L94.1044 117.596C93.7772 117.504 94.0075 117.486 94.1913 117.831C94.3405 118.111 94.2299 118.215 94.3063 117.852C94.4785 117.032 95.198 115.679 96.437 113.998C97.6067 112.412 99 110.847 100.125 109.66C100.682 109.071 101.163 108.586 101.503 108.25C101.672 108.083 101.806 107.953 101.895 107.867C101.94 107.823 101.974 107.791 101.996 107.77C102.006 107.76 102.014 107.753 102.019 107.748C102.021 107.746 102.023 107.745 102.023 107.744C102.024 107.744 102.024 107.743 102.024 107.743C102.024 107.743 102.024 107.744 102.024 107.744C102.023 107.744 102.023 107.744 100.047 105.649ZM91.7574 122.784C93.8265 124.129 96.2488 123.783 98.0645 123.18C99.9831 122.543 101.975 121.382 103.825 120.031C107.522 117.331 111.246 113.434 113.397 109.85L108.457 106.887C106.767 109.703 103.612 113.054 100.428 115.379C98.8393 116.539 97.3907 117.335 96.2493 117.714C95.005 118.127 94.7473 117.858 94.8964 117.954L91.7574 122.784ZM113.293 110.01C115.804 106.391 116.749 103.508 121.408 98.8494L117.335 94.7765C112.216 99.8956 110.401 104.074 108.561 106.727L113.293 110.01ZM120.002 99.623C121.151 99.3652 121.967 99.4605 122.453 99.6267C122.936 99.7919 123.05 99.9995 123.063 100.026C123.072 100.045 123.082 100.073 123.082 100.125C123.082 100.18 123.07 100.303 122.987 100.496C122.814 100.894 122.333 101.581 121.169 102.357L124.364 107.15C127.882 104.804 129.974 101.07 128.244 97.5087C126.615 94.1567 122.568 93.1436 118.741 94.0029L120.002 99.623ZM121.169 102.357C118.115 104.393 114.636 107.253 112.931 110.492C112.043 112.177 111.502 114.227 112.071 116.386C112.643 118.556 114.188 120.277 116.321 121.601L119.357 116.706C118.034 115.885 117.723 115.231 117.641 114.919C117.556 114.596 117.563 114.057 118.027 113.175C119.026 111.278 121.467 109.082 124.364 107.15L121.169 102.357ZM116.321 121.601C118.146 122.733 120.268 122.612 122.008 122.184C123.811 121.74 125.735 120.841 127.641 119.708C131.474 117.43 135.731 113.905 139.607 109.922C143.487 105.935 147.108 101.361 149.594 96.9159C151.994 92.6233 153.689 87.8262 152.705 83.6736L147.1 85.0011C147.557 86.9285 146.828 90.0593 144.566 94.1048C142.39 97.9975 139.111 102.172 135.479 105.905C131.843 109.642 127.976 112.808 124.698 114.757C123.05 115.737 121.673 116.334 120.631 116.591C119.525 116.863 119.26 116.646 119.357 116.706L116.321 121.601Z" fill="#3D3D3D" mask="url(#path-38-inside-1_7608_56318)"/>
<path d="M115.967 65.4097L115.968 65.409C116.608 65.089 117.376 64.897 118.016 64.833C118.272 64.833 119.168 64.897 118.656 65.345L114.112 69.313C107.84 74.689 101.568 80.065 95.232 85.377C93.888 86.529 92.544 87.617 91.136 88.769C89.28 90.177 87.552 91.713 85.888 93.377C84.48 94.913 82.752 97.025 82.624 99.265C82.56 101.121 83.968 102.145 85.696 102.465C86.016 102.529 86.4 102.657 86.016 102.977C86.336 102.721 85.952 103.105 85.888 103.169C85.12 104.001 84.608 105.025 84.352 106.113C83.968 108.097 84.608 110.081 86.016 111.425C86.464 111.809 86.976 112.065 87.552 112.129C87.872 112.193 87.744 112.193 87.936 112.129C87.8597 112.148 87.823 112.157 87.936 112.129C87.936 112.129 87.936 112.129 87.936 112.129C88.0324 112.105 88.192 112.065 88.192 112.065C88.32 112.001 88.576 111.937 88.704 111.873C90.624 111.105 92.416 110.017 94.016 108.673C96.144 106.983 98.1496 105.171 100.033 103.176C100.032 103.174 100.032 103.171 100.032 103.169L100.033 103.176L100.394 105.609C98.77 107.129 97.0388 108.54 95.232 109.825C93.312 111.297 91.072 112.321 88.768 112.897C86.912 113.281 84.544 113.537 83.008 112.193C80.3403 109.95 80.6593 105.868 82.8224 103.432C81.0705 102.965 79.4966 102.018 79.552 99.969C79.616 97.345 81.728 94.977 83.456 93.185C85.056 91.585 86.784 90.113 88.64 88.705C90.048 87.489 91.52 86.337 92.928 85.121C96.32 82.241 99.712 79.425 103.04 76.545C107.392 72.8332 111.679 69.1215 115.967 65.4097Z" fill="#3D3D3D"/>
<path d="M125.376 99.457C125.376 97.153 123.776 94.849 121.408 94.529L121.6 93.5018C123.259 93.3681 124.938 93.6555 126.272 94.593C128.128 95.873 128.96 98.305 128.32 100.481C127.424 103.553 124.352 104.897 122.048 106.817C120 108.609 117.248 111.233 117.376 114.177C117.504 115.585 118.208 116.865 119.36 117.697L120.512 118.465C120.576 118.465 120.64 118.529 120.704 118.529L121.024 118.657L121.216 118.721H121.408H121.472H121.536C121.56 118.718 121.581 118.715 121.6 118.712C121.665 118.698 121.842 118.677 121.6 118.712C121.576 118.717 121.568 118.721 121.6 118.721C121.728 118.721 122.24 118.593 121.728 118.721L122.128 118.632C122.165 118.611 122.412 118.529 122.496 118.529L123.008 118.337C123.392 118.209 122.816 118.401 123.136 118.273L123.328 118.209C125.056 117.441 126.656 116.545 128.128 115.457C131.968 112.705 135.552 109.569 138.688 106.049C141.952 102.593 144.768 98.689 147.072 94.529C148.672 91.521 150.272 87.745 149.44 84.225C149.312 83.649 152.448 83.009 152.576 83.713C152.704 84.417 152.768 85.185 152.768 85.953C152.64 89.985 150.528 93.889 148.416 97.217C145.664 101.441 142.4 105.345 138.752 108.865C135.488 112.129 131.84 114.945 127.872 117.313C126.272 118.209 124.608 118.913 122.816 119.361C121.344 119.745 119.488 120.001 118.016 119.425C115.584 118.465 113.728 115.841 114.368 113.217C115.136 110.209 117.824 107.841 120.192 105.985C121.536 104.961 123.136 104.193 124.16 102.849C124.928 101.889 125.376 100.673 125.376 99.457Z" fill="#3D3D3D"/>
<path d="M103.808 83.9681L96.896 90.2401L85.888 100.16L83.328 102.464C82.944 102.784 82.944 103.36 83.264 103.744C83.392 103.872 83.456 103.936 83.648 104C84.416 104.256 85.248 104.128 85.888 103.552L92.8 97.2801L103.808 87.2961L106.368 84.9921C106.752 84.6721 106.752 84.0961 106.432 83.7761C106.304 83.6481 106.176 83.5841 106.048 83.5201C105.28 83.2641 104.384 83.4561 103.808 83.9681Z" fill="#3D3D3D"/>
<path d="M107.2 87.5527C107.2 87.5527 101.184 96.5127 101.632 102.977L107.2 87.5527Z" fill="white"/>
<g opacity="0.3">
<path d="M74.368 122.882H57.344V127.298H74.368V122.882Z" fill="#3D3D3D"/>
<path d="M74.6879 127.618H57.0239V122.562H74.6879V127.618ZM57.6639 126.978H74.0479V123.202H57.6639V126.978Z" fill="#3D3D3D"/>
<path d="M115.264 122.625H82.0479V127.041H115.264V122.625Z" fill="#CECECE"/>
<path d="M115.584 127.362H81.7279V122.306H115.584V127.362ZM82.3679 126.722H114.944V122.946H82.3679V126.722Z" fill="#CECECE"/>
<path d="M143.936 122.434H121.088V126.85H143.936V122.434Z" fill="#CECECE"/>
<path d="M144.256 127.17H120.768V122.114H144.256V127.17ZM121.408 126.53H143.616V122.754H121.408V126.53Z" fill="#CECECE"/>
<path d="M160.96 122.306H149.504V126.722H160.96V122.306Z" fill="#CECECE"/>
<path d="M161.344 127.041H149.248V121.985H161.344V127.041ZM149.824 126.401H160.64V122.625H149.824V126.401Z" fill="#CECECE"/>
<path d="M160.512 134.657H127.296V139.073H160.512V134.657Z" fill="#CECECE"/>
<path d="M160.896 139.393H127.04V134.337H160.896V139.393ZM127.616 138.753H160.192V134.977H127.616V138.753Z" fill="#CECECE"/>
<path d="M121.472 134.466H98.6239V138.882H121.472V134.466Z" fill="#CECECE"/>
<path d="M121.792 139.202H98.304V134.146H121.792V139.202ZM98.944 138.562H121.152V134.786H98.944V138.562Z" fill="#CECECE"/>
<path d="M93.056 134.337H81.6V138.753H93.056V134.337Z" fill="#CECECE"/>
<path d="M93.376 139.074H81.28V134.018H93.376V139.074ZM81.92 138.434H92.736V134.658H81.92V138.434Z" fill="#CECECE"/>
<path d="M126.528 147.009H81.0239V151.425H126.528V147.009Z" fill="#CECECE"/>
<path d="M126.848 151.745H80.7039V146.689H126.848V151.745ZM81.3439 151.105H126.208V147.329H81.3439V151.105Z" fill="#CECECE"/>
<path d="M73.7919 163.329H56.7679V167.745H73.7919V163.329Z" fill="#3D3D3D"/>
<path d="M74.1119 168.065H56.4479V163.009H74.1119V168.065ZM57.0879 167.425H73.4719V163.649H57.0879V167.425Z" fill="#3D3D3D"/>
<path d="M114.688 163.138H81.4719V167.554H114.688V163.138Z" fill="#CECECE"/>
<path d="M115.008 167.873H81.1519V162.817H115.008V167.873ZM81.7919 167.233H114.368V163.457H81.7919V167.233Z" fill="#CECECE"/>
<path d="M143.36 162.945H120.512V167.361H143.36V162.945Z" fill="#CECECE"/>
<path d="M143.68 167.681H120.192V162.625H143.68V167.681ZM120.832 167.041H143.04V163.265H120.832V167.041Z" fill="#CECECE"/>
<path d="M160.384 162.754H148.928V167.17H160.384V162.754Z" fill="#3D3D3D"/>
<path d="M160.768 167.49H148.672V162.434H160.768V167.49ZM149.248 166.85H160.064V163.074H149.248V166.85Z" fill="#3D3D3D"/>
<path d="M120.896 174.978H98.0479V179.394H120.896V174.978Z" fill="#CECECE"/>
<path d="M121.216 179.713H97.7279V174.657H121.216V179.713ZM98.3679 179.073H120.576V175.297H98.3679V179.073Z" fill="#CECECE"/>
<path d="M92.4799 174.786H81.0239V179.202H92.4799V174.786Z" fill="#3D3D3D"/>
<path d="M92.7999 179.522H80.7039V174.466H92.7999V179.522ZM81.3439 178.882H92.1599V175.106H81.3439V178.882Z" fill="#3D3D3D"/>
</g>
<path d="M105.714 97.2737L101.333 100.889L98.6667 103.555L96.145 107.304C95.9572 107.523 95.9572 107.919 96.1137 108.182C96.1763 108.27 96.2076 108.314 96.3015 108.358C96.677 108.534 97.0838 108.446 97.3967 108.05L102.222 107.111L107.111 100.444L108 97.7775C108.156 97.9972 108.188 97.5579 108 97.7775L106.81 96.9662C106.434 96.7904 105.996 96.9222 105.714 97.2737Z" fill="#3D3D3D"/>
</svg>
