<svg width="320" height="320" viewBox="0 0 320 320" fill="none" xmlns="http://www.w3.org/2000/svg">
<path d="M93.0566 263.873C93.0566 263.873 155.457 49.0889 157.825 49.0889C160.193 49.0889 311.297 52.2249 311.297 52.2249L245.505 270.977L93.0566 263.873Z" fill="white"/>
<path d="M94.5921 264.192L95.8081 260.096L99.0721 248.832L104.064 231.808L110.336 210.304C112.704 202.176 115.136 194.048 117.504 185.92C120.064 177.28 122.624 168.576 125.184 159.936C127.744 151.296 130.304 142.592 132.928 133.824C135.424 125.504 137.92 117.184 140.416 108.8C142.656 101.376 144.896 93.952 147.136 86.528C148.992 80.448 150.848 74.368 152.768 68.352C154.112 64.064 155.456 59.84 156.928 55.616C157.632 53.632 158.464 51.712 159.168 49.728C159.232 49.536 159.424 49.472 159.168 49.536C159.424 49.536 159.68 51.536 159.872 49.536L163.52 51.6L178.304 51.92L200.576 52.368L226.944 52.88L254.336 53.456L279.68 53.968L289.632 54.192L299.584 54.416L305.28 54.544L310.976 52.672H312.448L309.568 51.968L307.776 57.856L302.976 73.792L295.936 97.216L287.296 125.952L277.952 157.44L268.416 189.12L259.52 218.688L251.968 243.776L246.592 261.76L244.928 267.392C244.544 268.352 244.288 269.312 244.032 270.272C244.032 270.4 243.968 270.528 243.904 270.656L244.416 270.592L240.384 268.4L229.248 267.888L212.864 267.12L192.768 266.16L170.88 265.136L148.672 264.112L128.064 263.152L110.72 262.32L98.1761 261.744L92.2241 263.488H91.9681C91.3921 263.488 91.4561 263.552 91.9041 263.744C92.6081 264 93.3761 264.192 94.1441 264.192L98.1761 264.384L109.312 264.896L125.696 265.664L145.792 266.624L167.68 267.648L189.888 268.672L210.496 269.632L227.968 270.464L240.448 271.04L246.4 271.296H246.656C246.656 271.296 247.104 271.36 247.168 271.232L248.96 265.344L253.76 249.408L260.8 225.984L269.44 197.184L278.912 165.76L288.448 134.08L297.344 104.512L304.896 79.424L310.272 61.44C311.104 58.624 312.192 55.808 312.832 52.928C312.832 52.8 312.896 52.672 312.96 52.544C313.088 52.224 310.336 51.84 310.08 51.84L303.936 51.712L287.68 51.392L264.576 50.88L237.696 50.304L210.304 49.728L185.6 49.216L166.784 48.832C163.584 48.768 160.32 48.704 157.12 48.64C156.672 48.64 156.352 48.576 156.096 48.896C155.712 49.536 155.456 50.176 155.264 50.88C154.048 54.016 153.088 57.216 152 60.352C150.336 65.6 148.672 70.784 147.008 76.032C144.896 82.816 142.848 89.664 140.736 96.448C138.304 104.384 135.936 112.32 133.568 120.32C131.008 128.896 128.448 137.536 125.888 146.112C123.264 154.88 120.704 163.648 118.08 172.416C115.584 180.864 113.088 189.312 110.592 197.76C108.352 205.504 106.048 213.184 103.808 220.928L98.1121 240.384C96.7041 245.12 95.3601 249.92 93.9521 254.656C93.1841 257.216 92.4161 259.84 91.7121 262.4L91.4561 263.36C91.3921 263.744 94.4641 264.576 94.5921 264.192Z" fill="#3D3D3D"/>
<path d="M183.936 225.023C184.448 226.623 185.089 228.159 185.729 229.759C186.817 232.511 188.033 235.455 189.761 237.887C191.617 240.447 194.752 242.879 197.952 241.215C199.36 240.383 200.705 239.423 201.985 238.335C205.825 235.327 209.408 232.063 213.056 228.863C217.088 225.279 221.057 221.631 224.961 217.983C227.073 215.999 229.312 214.079 231.361 212.031L231.425 211.967C233.153 210.367 232.064 207.295 230.592 205.951C228.992 204.479 226.368 203.583 224.576 205.247C221.824 207.871 219.072 210.431 216.256 212.991C211.072 217.791 205.888 222.527 200.512 227.135C198.272 229.055 195.968 231.039 193.536 232.831L194.369 232.255C193.793 232.703 193.216 233.087 192.576 233.407C192.512 233.471 192.385 233.471 192.321 233.535C192.257 233.599 193.536 233.215 193.152 233.279C192.768 233.343 194.368 233.279 194.112 233.279C194.752 233.343 195.393 233.599 195.969 233.983C195.521 233.727 195.712 233.599 196.672 234.559C196.16 233.983 196.097 233.791 196.865 234.879C196.481 234.303 196.096 233.727 195.712 233.087C195.648 232.959 195.585 232.895 195.521 232.767C195.265 232.319 196.097 233.855 195.84 233.407L195.585 232.831C195.393 232.447 195.201 231.999 195.009 231.551C194.241 229.887 193.601 228.223 192.961 226.559C192.641 225.663 192.256 224.703 191.936 223.807C191.232 221.695 188.545 219.711 186.305 220.223C183.809 220.671 183.168 222.847 183.936 225.023Z" fill="#3D3D3D"/>
<path d="M272.961 88.64L171.521 86.656C171.137 86.656 170.881 86.4 170.881 86.016C170.881 85.632 171.137 85.376 171.521 85.376L272.961 87.36C273.345 87.36 273.601 87.616 273.601 88C273.601 88.384 273.281 88.64 272.961 88.64Z" fill="#CECECE"/>
<path d="M267.072 104.576L165.632 102.592C165.248 102.592 164.992 102.337 164.992 101.952C164.992 101.568 165.248 101.312 165.632 101.312L267.072 103.296C267.456 103.296 267.712 103.552 267.712 103.936C267.712 104.32 267.392 104.576 267.072 104.576Z" fill="#CECECE"/>
<path d="M262.271 120.384L160.831 118.4C160.447 118.4 160.191 118.144 160.191 117.76C160.191 117.376 160.447 117.12 160.831 117.12L262.271 119.104C262.655 119.104 262.911 119.36 262.911 119.744C262.911 120.128 262.591 120.384 262.271 120.384Z" fill="#CECECE"/>
<path d="M256.385 136.32L154.945 134.336C154.561 134.336 154.305 134.08 154.305 133.696C154.305 133.312 154.561 133.056 154.945 133.056L256.385 135.04C256.769 135.04 257.025 135.296 257.025 135.68C257.025 136.064 256.769 136.32 256.385 136.32Z" fill="#CECECE"/>
<path d="M250.176 152.576L148.736 150.592C148.352 150.592 148.096 150.337 148.096 149.952C148.096 149.568 148.352 149.312 148.736 149.312L250.176 151.296C250.56 151.296 250.816 151.552 250.816 151.936C250.88 152.32 250.624 152.576 250.176 152.576C250.24 152.576 250.24 152.576 250.176 152.576Z" fill="#CECECE"/>
<path d="M245.439 168.384L143.999 166.4C143.615 166.4 143.359 166.144 143.359 165.76C143.359 165.376 143.615 165.12 143.999 165.12L245.439 167.104C245.823 167.104 246.079 167.36 246.079 167.744C246.079 168.128 245.759 168.384 245.439 168.384Z" fill="#CECECE"/>
<path d="M239.553 184.32L138.113 182.336C137.729 182.336 137.473 182.08 137.473 181.696C137.473 181.312 137.729 181.056 138.113 181.056L239.553 183.04C239.937 183.04 240.193 183.296 240.193 183.68C240.193 184.064 239.873 184.32 239.553 184.32Z" fill="#CECECE"/>
<path d="M190.847 83.2632C188.927 88.5752 187.391 94.0152 186.175 99.5192C185.535 102.207 185.087 104.895 184.767 107.647C184.511 110.015 184.895 112.895 187.327 114.047C188.479 114.559 189.823 114.495 190.911 113.791C191.999 113.087 192.575 111.935 193.151 110.847L197.311 103.167L205.695 87.4872C206.719 85.6312 207.871 83.0712 209.855 82.1112C211.903 81.1512 213.183 83.0072 213.759 84.7992C216.127 92.3512 216.191 100.415 214.015 107.967C213.375 110.079 212.671 112.575 211.071 114.175C210.047 115.199 208.255 115.391 207.551 113.791C206.591 111.743 208.319 109.375 209.599 107.903C211.135 105.983 212.927 104.319 214.975 102.911C216.575 101.887 218.623 101.311 220.479 102.079C222.591 102.975 223.423 105.279 223.871 107.327C224.383 109.951 224.447 112.639 223.935 115.263C223.679 116.543 223.359 117.823 222.847 119.039L225.215 118.143C223.423 117.311 223.807 114.495 224.383 113.023C225.279 110.783 227.007 108.863 228.671 107.071C230.015 105.663 231.871 103.551 233.919 103.295C236.095 103.039 236.927 106.687 237.439 108.159C238.335 111.039 238.847 114.047 238.847 117.119C238.847 118.911 241.983 118.527 241.983 116.991C241.983 113.663 241.471 110.335 240.447 107.199C239.551 104.447 238.335 100.991 234.943 100.735C231.807 100.479 229.119 102.783 227.071 104.831C225.023 106.879 222.655 109.503 221.439 112.319C220.287 115.007 220.479 118.911 223.487 120.319C224.383 120.703 225.407 120.319 225.855 119.423C226.943 116.735 227.455 113.855 227.455 110.975C227.455 108.223 227.007 105.279 225.663 102.783C224.383 100.607 222.143 99.1992 219.583 99.0712C216.831 98.8792 214.335 99.9672 212.159 101.567C209.983 103.231 207.999 105.151 206.335 107.327C204.799 109.247 203.455 111.999 204.415 114.431C205.375 116.799 207.935 117.759 210.303 117.247C212.863 116.671 214.527 114.495 215.551 112.255C216.703 109.695 217.535 107.007 217.983 104.191C218.495 101.375 218.751 98.5592 218.687 95.6792C218.623 92.7992 218.303 89.9832 217.727 87.1672C217.215 84.7352 216.575 81.4712 214.335 79.9992C212.095 78.5272 208.959 79.1032 206.911 80.7672C204.735 82.5592 203.455 85.2472 202.175 87.6792L193.151 104.511L190.847 108.863C190.527 109.503 190.143 110.143 189.823 110.783C189.695 110.975 189.567 111.231 189.439 111.423C189.375 111.487 188.927 111.999 189.183 111.807C189.439 111.615 189.375 111.935 189.119 111.743C188.991 111.679 188.799 111.551 188.671 111.423C188.287 110.975 188.031 110.463 187.903 109.887C187.711 108.543 187.775 107.135 188.095 105.791C189.055 99.7752 190.463 93.8232 192.319 87.9992C192.767 86.5912 193.279 85.1832 193.791 83.7752C194.495 82.0472 191.423 81.8552 190.847 83.2632Z" fill="#CECECE"/>
<path d="M161.663 147.521C163.007 145.793 164.479 144.193 166.079 142.721C167.679 141.185 169.471 139.905 171.391 138.945C171.903 138.753 172.415 138.625 172.927 138.561H173.119C172.991 138.497 172.927 138.433 172.863 138.369L173.183 138.817C173.567 139.713 173.759 140.673 173.759 141.633C173.823 143.745 173.247 145.793 172.095 147.521L172.799 147.329C172.671 147.329 173.375 147.969 173.375 147.713C173.375 147.585 173.247 147.329 173.247 147.137C173.183 146.753 173.311 146.369 173.503 145.985C174.015 145.153 174.783 144.513 175.743 144.129C177.983 142.977 180.287 142.081 182.655 141.377C183.167 141.185 183.679 141.057 184.255 140.993C184.511 140.993 184.767 140.993 184.959 140.993C185.151 141.057 185.151 141.057 185.087 140.993C184.959 140.865 184.959 140.865 185.023 140.929C185.599 141.505 185.663 142.721 185.535 143.425C185.279 145.345 183.999 146.945 182.143 147.521L184.575 148.737C184.063 148.033 184.895 147.009 185.343 146.433C186.047 145.665 186.879 145.025 187.775 144.449C189.567 143.169 191.487 142.145 193.471 141.377C193.727 141.249 194.047 141.185 194.303 141.121L194.559 141.057C194.943 141.057 194.879 140.993 194.431 140.801C194.431 140.801 194.943 141.633 195.007 141.633C195.455 142.529 195.711 143.489 195.647 144.449C195.519 146.177 194.047 148.161 192.127 147.777L194.111 149.697C196.159 145.537 200.639 143.233 205.247 143.873C205.887 144.001 206.143 143.489 205.823 142.977C205.375 142.337 204.671 141.889 203.903 141.761C198.847 140.929 193.791 143.425 191.423 147.969C190.975 148.929 192.703 149.761 193.407 149.889C195.391 150.273 197.311 149.185 198.079 147.329C198.847 145.345 198.271 143.041 197.119 141.249C196.479 140.225 195.519 139.393 194.367 138.945C193.151 138.497 191.999 138.881 190.847 139.329C188.671 140.161 186.687 141.313 184.831 142.657C183.231 143.873 180.543 145.921 182.079 148.225C182.591 148.929 183.615 149.697 184.511 149.377C186.495 148.673 187.967 146.945 188.287 144.897C188.671 142.465 187.391 140.033 185.087 139.009C182.591 137.921 179.839 139.201 177.471 140.097C176.191 140.609 174.847 141.121 173.567 141.761C172.543 142.209 171.711 142.849 171.007 143.745C169.407 146.049 171.647 148.993 174.143 149.249C174.399 149.249 174.719 149.249 174.847 149.057C176.319 146.881 176.895 144.257 176.575 141.697C176.255 139.009 174.655 136.385 171.711 136.129C170.367 136.129 169.087 136.513 167.999 137.281C166.847 137.985 165.759 138.817 164.735 139.713C162.623 141.441 160.767 143.361 159.103 145.537C158.399 146.561 161.023 148.353 161.663 147.521Z" fill="#CECECE"/>
<path d="M215.039 148.992C217.599 147.392 219.647 144.96 222.463 143.744C223.679 143.168 225.023 142.976 226.367 143.168C227.583 143.424 228.031 144.384 228.415 145.472C228.799 146.688 228.991 148.48 227.775 149.312C227.519 149.44 227.263 149.568 227.007 149.632C226.303 149.76 227.455 149.44 227.391 150.208C227.391 150.016 227.327 149.76 227.327 149.504C227.391 149.184 227.455 148.928 227.583 148.672C228.351 147.392 230.015 146.816 231.295 146.368C232.895 145.728 234.495 145.216 236.159 144.832C236.799 144.704 237.887 144.256 238.527 144.64C238.911 144.96 239.167 145.472 239.231 145.984C239.423 146.88 239.551 147.776 239.615 148.672C239.615 149.248 239.679 150.08 239.103 150.4L240.639 150.976L240.959 151.424C240.959 151.36 240.959 151.296 240.959 151.232C241.023 151.168 241.023 150.976 241.087 150.848C241.215 150.528 241.471 150.272 241.727 150.08C242.431 149.632 243.199 149.248 243.967 148.992C245.631 148.352 247.359 147.968 249.151 147.776C250.559 147.648 248.575 145.28 247.615 145.344C245.119 145.536 242.751 146.176 240.511 147.2C239.615 147.648 238.719 148.16 238.463 149.184C238.143 150.336 238.783 151.36 239.615 152.128C239.871 152.384 240.703 152.96 241.151 152.704C242.815 151.744 242.239 148.992 241.919 147.456C241.471 145.216 239.935 143.296 237.823 142.4C236.863 142.08 235.839 142.08 234.815 142.336C233.535 142.592 232.319 142.976 231.039 143.36C229.183 144 226.751 144.704 225.407 146.24C222.527 149.568 228.607 154.56 230.783 150.72C231.807 148.928 231.103 146.496 230.207 144.768C229.183 142.72 227.327 141.312 225.151 140.8C220.031 139.84 216.831 144.256 212.991 146.624C211.967 147.264 214.207 149.504 215.039 148.992Z" fill="#CECECE"/>
<path d="M152.32 177.664C153.664 175.936 155.136 174.336 156.736 172.864C158.336 171.328 160.128 170.048 162.048 169.088C162.56 168.896 163.072 168.768 163.584 168.704H163.776C163.648 168.64 163.584 168.576 163.52 168.512C163.648 168.64 163.712 168.832 163.84 168.96C164.224 169.856 164.416 170.816 164.416 171.776C164.48 173.888 163.904 175.936 162.752 177.664L163.456 177.472C163.264 177.472 163.968 178.112 164.032 177.856C164.032 177.728 163.904 177.472 163.904 177.28C163.84 176.896 163.968 176.512 164.16 176.128C164.672 175.296 165.44 174.656 166.4 174.272C168.64 173.184 170.944 172.224 173.312 171.52C173.824 171.328 174.336 171.2 174.912 171.136C175.168 171.136 175.424 171.136 175.616 171.136C175.744 171.2 175.808 171.2 175.744 171.136C175.68 171.072 175.616 171.008 175.68 171.072C176.256 171.648 176.32 172.864 176.192 173.568C175.936 175.488 174.656 177.088 172.8 177.728L175.232 178.944C174.72 178.24 175.552 177.216 176 176.64C176.704 175.872 177.536 175.232 178.432 174.656C180.224 173.376 182.144 172.352 184.192 171.584C184.448 171.456 184.768 171.392 185.024 171.328L185.28 171.264C185.664 171.264 185.6 171.2 185.152 171.008C185.152 171.008 185.664 171.84 185.728 171.84C186.176 172.736 186.432 173.696 186.368 174.72C186.24 176.448 184.768 178.432 182.848 178.048L184.832 179.968C186.88 175.808 191.36 173.504 195.904 174.144C196.544 174.272 196.8 173.76 196.48 173.248C196.032 172.608 195.328 172.16 194.56 172.032C189.504 171.2 184.448 173.696 182.08 178.24C181.632 179.2 183.424 180.032 184.064 180.16C186.048 180.544 187.968 179.456 188.736 177.6C189.504 175.616 188.928 173.312 187.776 171.52C187.136 170.496 186.176 169.664 185.024 169.216C183.808 168.768 182.656 169.152 181.504 169.6C179.328 170.432 177.344 171.584 175.488 172.928C173.888 174.144 171.2 176.192 172.736 178.496C173.184 179.2 174.272 179.968 175.168 179.712C177.152 179.008 178.624 177.28 178.944 175.232C179.328 172.8 178.048 170.368 175.744 169.344C173.248 168.256 170.496 169.536 168.128 170.432C166.784 170.944 165.504 171.456 164.224 172.096C163.2 172.544 162.368 173.184 161.664 174.08C160.064 176.384 162.304 179.328 164.8 179.584C164.992 179.584 165.376 179.584 165.504 179.392C166.976 177.216 167.552 174.592 167.232 172.032C166.912 169.344 165.312 166.72 162.368 166.464C161.024 166.464 159.744 166.848 158.656 167.616C157.504 168.32 156.416 169.152 155.392 170.048C153.28 171.776 151.424 173.696 149.76 175.872C149.056 176.768 151.68 178.624 152.32 177.664Z" fill="#CECECE"/>
<path d="M205.76 179.136C208.32 177.536 210.368 175.104 213.12 173.888C214.336 173.312 215.68 173.12 217.024 173.312C218.24 173.568 218.688 174.528 219.072 175.616C219.456 176.832 219.648 178.624 218.432 179.456C218.176 179.648 217.92 179.712 217.664 179.776C216.96 179.904 218.112 179.584 218.048 180.352C218.048 180.16 217.984 179.904 217.984 179.712C218.048 179.392 218.112 179.136 218.24 178.88C219.008 177.6 220.672 177.024 221.952 176.576C223.552 175.936 225.152 175.424 226.816 175.04C227.456 174.912 228.544 174.464 229.184 174.848C229.568 175.168 229.824 175.68 229.888 176.128C230.08 177.024 230.208 177.92 230.272 178.816C230.272 179.392 230.336 180.224 229.76 180.544L231.296 181.12L231.616 181.568C231.616 181.504 231.616 181.44 231.616 181.376C231.68 181.312 231.68 181.12 231.68 180.992C231.808 180.672 232.064 180.416 232.32 180.224C233.024 179.776 233.792 179.392 234.56 179.136C236.224 178.496 238.016 178.112 239.808 177.984C241.216 177.856 239.232 175.488 238.272 175.552C235.776 175.744 233.344 176.384 231.104 177.472C230.208 177.92 229.312 178.432 229.056 179.456C228.736 180.608 229.376 181.696 230.208 182.4C230.464 182.656 231.296 183.232 231.744 182.976C233.408 182.016 232.832 179.264 232.512 177.728C232.064 175.488 230.528 173.568 228.416 172.672C227.456 172.352 226.432 172.288 225.408 172.608C224.128 172.864 222.912 173.248 221.632 173.632C219.776 174.272 217.344 174.976 216 176.512C213.12 179.84 219.2 184.832 221.376 180.992C222.4 179.2 221.696 176.768 220.8 175.04C219.776 173.056 217.92 171.584 215.744 171.072C210.624 170.112 207.424 174.528 203.584 176.896C202.624 177.472 204.864 179.712 205.76 179.136Z" fill="#CECECE"/>
<path d="M177.984 251.84C180.16 249.856 182.592 248.192 185.216 246.784C186.24 246.272 187.456 246.016 188.416 246.72C189.248 247.36 189.888 248.256 190.272 249.216C190.656 250.048 191.744 252.096 190.848 252.864C190.784 252.928 190.656 252.992 190.528 253.056C190.976 253.696 191.232 253.76 191.232 253.312C191.36 253.184 191.488 252.928 191.616 252.736C192.128 252.224 192.64 251.776 193.216 251.392C194.432 250.496 198.08 248.576 198.592 251.264C198.848 252.096 199.68 252.544 200.512 252.288C201.856 251.584 203.328 251.2 204.864 251.136C205.44 251.136 205.76 251.072 205.76 251.584C205.824 251.968 205.632 252.352 205.248 252.544L206.848 254.208C209.216 251.84 211.712 249.536 214.016 247.104C214.848 246.208 215.232 245.056 214.272 244.096C213.44 243.2 212.032 243.136 211.2 243.968C211.136 244.032 211.136 244.032 211.072 244.096C209.664 245.568 209.536 247.872 210.176 249.728C210.88 251.84 212.608 253.504 214.72 254.144C215.168 254.272 215.68 254.08 215.616 253.568C215.552 253.056 214.848 252.608 214.336 252.48C211.84 251.712 211.392 247.936 212.608 246.016C212.672 245.888 212.8 245.76 212.864 245.632L213.376 245.184L212.672 244.608C212.672 244.672 212.672 244.8 212.608 244.864C212.544 244.992 212.48 245.184 212.352 245.376C211.648 246.272 210.88 247.04 210.048 247.744L205.056 252.672C204.288 253.44 205.888 254.464 206.592 254.272C207.488 254.016 208 253.184 207.872 252.288C207.744 251.2 207.04 250.304 206.08 249.92C203.776 248.768 200.832 249.792 198.72 250.816L200.64 251.84C200.128 249.024 196.608 247.68 194.112 248.448C192.64 248.96 191.296 249.792 190.144 250.88C188.992 251.84 188.416 253.248 189.824 254.336C190.848 255.104 192.576 255.104 193.088 253.76C193.6 252.416 192.768 250.688 192.192 249.472C191.04 247.04 188.864 244.608 185.92 244.672C184.064 244.736 182.4 245.824 180.864 246.784C179.2 247.872 177.6 249.088 176.064 250.368C175.232 251.072 177.088 252.544 177.856 251.904L177.984 251.84Z" fill="#CECECE"/>
<path d="M86.4639 118.401C86.4639 118.401 58.3679 68.6094 36.2879 68.6094C14.2079 68.6094 6.52785 85.1854 9.27985 97.0894C12.8639 112.769 67.6479 136.897 74.0479 134.081C80.4479 131.265 86.4639 118.401 86.4639 118.401Z" fill="white"/>
<path d="M87.8716 118.593C86.0796 115.457 84.1596 112.385 82.1756 109.313C77.8236 102.529 73.0236 96.0007 67.9036 89.7927C62.4636 83.2647 56.3836 76.8647 49.1516 72.3207C46.0156 70.2727 42.5596 68.8007 38.9116 68.0327C36.8636 67.7127 34.7516 67.5847 32.7036 67.7767C29.9516 67.9687 27.1996 68.4167 24.5116 69.2487C16.3196 71.8087 9.72763 78.2087 7.80763 86.7207C6.97563 90.1767 6.97563 93.7607 7.87163 97.1527C8.63963 99.7767 10.3676 102.017 12.2236 104.001C17.4716 109.761 24.3836 114.113 31.0396 118.017C38.5276 122.369 46.3356 126.273 54.3356 129.537C57.7276 130.945 61.1196 132.225 64.6396 133.313C67.0716 134.145 69.5676 134.721 72.1276 135.041C73.0236 135.169 73.9196 135.105 74.8156 134.977C76.4156 134.593 77.8876 133.249 79.0396 132.161C82.2396 129.089 84.6716 125.121 86.7836 121.217C87.1676 120.449 87.6156 119.681 87.9996 118.913C88.3836 118.145 85.4396 116.801 85.0556 117.697C83.8396 120.321 82.3676 122.817 80.7676 125.185C79.4876 127.169 78.0156 128.961 76.3516 130.625C75.2636 131.649 73.8556 132.865 72.5116 133.249H72.3196C72.1916 133.249 72.6396 133.249 72.3196 133.249C72.1276 133.249 71.9356 133.249 71.8076 133.249C71.6796 133.249 71.1676 133.249 71.5516 133.249L70.8476 133.185C70.3356 133.121 69.8876 133.057 69.3756 132.929C69.2476 132.929 68.8636 132.801 69.3116 132.929L68.9276 132.865L68.0316 132.673C66.6876 132.353 65.3436 131.969 64.0636 131.521L63.0396 131.201L62.7196 131.073L62.0796 130.881C61.2476 130.625 60.4796 130.305 59.6476 129.985C52.1596 127.169 44.8636 123.841 37.8236 120.001C30.9116 116.353 23.9996 112.193 18.2396 107.137C15.9996 105.281 14.0156 103.105 12.3516 100.673C10.8796 98.3047 10.3676 95.6167 10.3676 92.7367C10.3676 84.8647 14.4636 77.5687 21.1836 73.4087C25.4716 70.7847 30.4636 69.5687 35.3916 69.3767C36.0316 69.3767 36.7356 69.3127 37.3756 69.3127C37.6956 69.3127 38.0156 69.3127 38.3356 69.3767C38.6556 69.4407 39.0396 69.4407 39.4236 69.5047L39.9996 69.6327L40.3836 69.6967C40.7676 69.7607 41.0876 69.8887 41.4716 69.9527L41.9836 70.0807C42.4316 70.2087 41.7916 70.0167 42.0476 70.0807L42.3676 70.2087C42.7516 70.3367 43.1356 70.4647 43.5196 70.6567L44.0316 70.8487L44.4156 71.0407C51.2636 74.3047 57.1516 80.0647 62.3356 85.8247C67.7116 91.9047 72.6396 98.3687 77.1196 105.153C79.8076 109.121 82.4316 113.217 84.7996 117.377L85.1836 118.017C85.6316 118.593 86.3356 118.977 87.1036 119.041C87.4236 119.297 88.2556 119.169 87.8716 118.593Z" fill="#3D3D3D"/>
<path d="M150.612 170.46C158.819 143.362 146.276 115.581 122.595 108.408C98.9142 101.235 73.0633 117.387 64.8556 144.485C56.6478 171.583 69.1913 199.365 92.8722 206.537C116.553 213.71 142.404 197.558 150.612 170.46Z" fill="white"/>
<path d="M63.7438 143.553C60.6079 153.921 60.4159 164.993 63.2319 175.425C65.9199 185.089 71.3598 194.113 79.1678 200.449C86.7838 206.593 96.3199 209.857 106.112 209.665C115.648 209.409 124.864 205.697 132.416 199.937C140.608 193.537 146.816 184.961 150.4 175.233C154.304 164.993 155.2 153.921 153.152 143.169C151.232 133.185 146.24 123.969 139.008 116.865C131.904 110.081 122.624 105.985 112.832 105.409C103.296 104.833 93.8239 107.841 85.9519 113.025C77.4399 118.785 70.7838 126.785 66.6238 136.129C65.4718 138.497 64.5119 140.993 63.7438 143.553C63.4239 144.641 65.5358 146.881 66.0478 145.409C68.9278 135.681 74.4319 126.913 81.9839 120.129C88.8959 113.985 97.4079 109.633 106.624 108.481C115.776 107.265 125.12 109.377 132.864 114.433C140.608 119.489 146.176 127.297 149.184 135.873C152.576 145.409 152.832 155.905 150.528 165.697C148.224 175.681 143.296 184.897 136.192 192.321C129.728 198.977 121.408 203.969 112.256 205.889C103.232 207.809 93.7599 206.529 85.6319 202.177C77.5679 197.825 71.4239 190.657 67.7759 182.337C63.8719 173.121 62.6559 162.945 64.3199 153.089C64.7679 150.465 65.3439 147.905 66.1119 145.409C66.3039 144.321 64.1918 142.017 63.7438 143.553Z" fill="#3D3D3D"/>
<path d="M153.725 170.463C161.595 144.482 150.341 118.078 128.588 111.49C106.835 104.901 82.8219 120.622 74.9523 146.603C67.0827 172.584 78.3371 198.988 100.09 205.576C121.842 212.165 145.856 196.444 153.725 170.463Z" fill="#CECECE"/>
<path d="M93.568 154.305C95.872 158.145 98.24 161.985 100.736 165.697C102.4 168.257 104.256 170.753 106.176 173.121C106.88 174.017 107.712 174.785 108.608 175.425C110.016 176.321 111.808 176.577 113.408 176.065C115.136 175.553 116.48 174.145 117.632 172.801C119.296 170.881 120.896 168.769 122.368 166.721C125.888 161.857 129.152 156.737 132.352 151.617C133.632 149.569 134.912 147.521 136.192 145.473C136.832 144.449 137.536 143.425 138.112 142.337C138.112 142.273 138.176 142.273 138.176 142.209C138.944 140.929 136.896 140.033 136 139.905C134.72 139.713 132.8 139.777 132.032 141.057C130.56 143.553 129.088 145.985 127.552 148.417C124.544 153.281 121.408 158.145 118.208 162.817C117.44 163.969 116.608 165.121 115.776 166.273C115.392 166.785 115.008 167.297 114.624 167.873L114.048 168.577L113.792 168.897C113.472 169.281 114.048 168.577 113.728 168.961C112.64 170.369 111.424 171.713 110.08 172.929C110.016 172.993 109.952 172.993 109.888 173.057C109.696 173.249 110.464 172.737 110.208 172.801L109.888 172.993C109.504 173.249 110.656 172.737 110.272 172.865C110.848 172.737 111.424 172.673 112 172.737C112.384 172.737 112.704 172.865 113.024 172.929C113.024 172.929 113.728 173.377 113.472 173.121C113.344 173.057 112.832 172.673 113.28 172.993C113.728 173.313 113.216 172.929 113.088 172.801C112.96 172.673 112.704 172.481 112.576 172.289C111.744 171.393 110.976 170.497 110.272 169.537C109.824 168.961 109.44 168.385 108.992 167.809L108.352 166.913C108.16 166.593 108.544 167.169 108.224 166.721L107.904 166.209C105.088 162.113 102.464 157.889 99.904 153.665C99.84 153.601 99.84 153.473 99.776 153.409C99.072 152.193 97.216 151.809 95.872 152.001C95.04 152.257 92.8 152.961 93.568 154.305Z" fill="#3D3D3D"/>
<path d="M56.2551 195.073C58.4951 200.897 62.3351 205.953 67.3911 209.665C67.9031 210.113 68.6711 210.049 69.1191 209.537C69.1831 209.473 69.1831 209.409 69.2471 209.345C69.5671 208.577 69.3111 207.681 68.6071 207.169C64.2551 203.969 60.9271 199.681 58.8791 194.689C58.6231 193.985 58.0471 193.217 57.1511 193.409C56.4471 193.601 55.9991 194.305 56.1911 195.009C56.2551 195.009 56.2551 195.009 56.2551 195.073Z" fill="#CECECE"/>
<path d="M54.2087 183.105V177.025C54.2087 176.385 53.3767 176.065 52.8647 175.937C52.4807 175.809 52.0967 175.745 51.7127 175.745C51.5847 175.745 51.1367 175.809 51.1367 176.065V182.145C51.1367 182.785 51.9687 183.105 52.4807 183.233C52.8647 183.361 53.2487 183.425 53.6327 183.425C53.7607 183.425 54.2087 183.361 54.2087 183.105Z" fill="#CECECE"/>
</svg>
