<svg width="320" height="320" viewBox="0 0 320 320" fill="none" xmlns="http://www.w3.org/2000/svg">
<path d="M195.968 227.648H124.608L118.784 267.072H201.792L195.968 227.648Z" fill="white"/>
<path d="M196.736 226.625H134.144C131.264 226.625 128.384 226.625 125.44 226.625H125.312C124.48 226.625 123.2 227.073 123.008 228.097L121.024 241.473L117.888 262.721L117.184 267.585C117.12 267.969 117.568 268.161 117.888 268.161H190.656C193.984 268.161 197.376 268.161 200.704 268.161H200.832C201.472 268.161 203.264 267.649 203.136 266.689L201.152 253.313L198.016 232.065L197.312 227.201C197.12 225.857 194.176 226.945 194.304 228.033L196.288 241.409L199.424 262.657L200.128 267.521L202.432 266.049H122.944C121.856 265.985 120.768 265.985 119.68 266.049H119.552L120.256 266.625L122.176 253.313L125.312 232.065L126.016 227.201L123.712 228.673H186.304C189.184 228.673 192.064 228.673 195.008 228.673H195.136C195.904 228.673 196.672 228.353 197.184 227.713C197.632 227.201 197.44 226.625 196.736 226.625Z" fill="#3D3D3D"/>
<path d="M30.656 24.1289H289.344C295.424 24.1289 300.416 29.0569 300.416 35.2009V217.345C300.416 223.425 295.488 228.417 289.344 228.417H30.656C24.576 228.417 19.584 223.489 19.584 217.345V35.1369C19.584 29.0569 24.512 24.1289 30.656 24.1289Z" fill="white"/>
<path d="M30.6559 25.6003H287.296C287.936 25.6003 288.64 25.6003 289.28 25.6003C294.592 25.7283 298.816 30.0803 298.88 35.3923C298.944 38.0803 298.88 40.8323 298.88 43.5203V208C298.88 211.136 298.88 214.272 298.88 217.408C298.944 222.656 294.72 226.944 289.472 227.008C289.408 227.008 289.408 227.008 289.344 227.008C288.832 227.008 288.384 227.008 287.872 227.008H37.1199C35.0079 227.008 32.8319 227.072 30.7199 227.008C25.4079 226.88 21.1199 222.464 21.1199 217.152C21.1199 216.384 21.1199 215.552 21.1199 214.72V38.0163C21.1199 37.0563 21.1199 36.0963 21.1199 35.2003C21.1199 29.8883 25.3439 25.6003 30.6559 25.6003C32.5759 25.5363 32.7039 22.5923 30.6559 22.6563C23.7439 22.8483 18.1119 28.4163 18.0479 35.3923C18.0479 36.2243 18.0479 36.9923 18.0479 37.8243V215.168C18.0479 215.936 18.0479 216.704 18.0479 217.472C18.1759 224.384 23.7439 229.888 30.6559 229.888C32.5759 229.888 34.4959 229.888 36.4159 229.888H288C288.704 229.888 289.408 229.888 290.112 229.888C296.768 229.312 301.888 223.808 301.952 217.152C302.016 214.208 301.952 211.328 301.952 208.384V42.9443C301.952 40.3203 302.016 37.6323 301.952 35.0083C301.824 28.0963 296.192 22.5923 289.344 22.6563H30.6559C28.7359 22.5923 28.6079 25.6003 30.6559 25.6003Z" fill="#3D3D3D"/>
<path d="M30.656 21.7607H289.344C295.488 21.7607 300.416 26.6887 300.416 32.8327V185.409H19.584V32.8327C19.584 26.7527 24.512 21.7607 30.656 21.7607Z" fill="#3D3D3D"/>
<path d="M30.1438 22.7848H288.768C293.888 22.9128 298.176 26.7528 298.816 31.8728C299.136 34.5608 298.88 37.5049 298.88 40.2568V185.729L300.864 184.385H31.4238C27.8398 184.385 24.0638 184.129 20.4798 184.385C20.3518 184.385 20.1598 184.385 19.9678 184.385L20.9918 185.089V35.1369C20.9918 31.6168 21.1198 28.2888 23.7438 25.4728C25.5358 23.7448 27.7758 22.7848 30.1438 22.7848C31.4878 22.7848 33.2158 20.7369 31.1038 20.7369C23.9358 20.6729 18.0478 26.4968 17.9838 33.6648C17.9838 33.6648 17.9838 33.6649 17.9838 33.7288V178.625C17.9838 180.865 17.7918 183.169 17.9838 185.409C17.9838 185.537 17.9838 185.601 17.9838 185.729C17.9838 186.305 18.5598 186.433 19.0078 186.433H288.448C292.096 186.433 295.744 186.497 299.392 186.433H299.904C300.544 186.433 301.888 185.921 301.888 185.089V33.9848C301.952 32.5128 301.824 30.9768 301.504 29.5048C300.096 24.1288 295.104 20.8648 289.728 20.8008C287.872 20.8008 286.016 20.8008 284.16 20.8008H31.1038C29.8238 20.7368 28.0318 22.7848 30.1438 22.7848Z" fill="#3D3D3D"/>
<path d="M160.768 202.945C161.728 202.945 162.688 203.265 163.52 203.841C163.392 203.713 163.584 203.905 163.648 203.969L163.904 204.225C163.968 204.289 164.032 204.353 164.096 204.417C163.904 204.161 164.224 204.545 164.224 204.609L164.416 204.865C164.224 204.545 164.48 204.993 164.48 204.993L164.608 205.249C164.48 204.929 164.672 205.441 164.672 205.505C164.8 205.889 164.864 206.209 164.864 206.593C164.864 207.105 164.8 207.553 164.608 208.065C164.288 208.961 163.712 209.793 162.944 210.369C161.344 211.585 159.168 211.777 157.44 210.817C157.056 210.625 156.736 210.305 156.48 209.985C156.672 210.177 156.416 209.921 156.416 209.857C156.416 209.793 156.288 209.665 156.224 209.537C156.48 209.857 155.904 208.897 156.032 209.217C155.712 208.449 155.648 207.553 155.84 206.721C156.416 204.545 158.464 202.945 160.768 202.945C162.176 202.945 161.088 199.937 159.808 199.937C157.056 200.001 154.624 201.793 153.792 204.417C152.896 207.425 153.92 210.753 156.352 212.737C158.528 214.593 161.664 214.913 164.16 213.441C166.592 211.841 167.68 208.897 167.04 206.081C166.272 202.753 163.392 200.065 159.872 200.001C159.104 200.001 159.168 201.089 159.296 201.537C159.488 202.177 160 202.945 160.768 202.945Z" fill="#CECECE"/>
<path d="M288.832 33.4092H30.5918V174.401H288.832V33.4092Z" fill="white"/>
<path d="M30.4635 34.7527H278.207C281.535 34.7527 284.927 34.9447 288.255 34.7527C288.383 34.7527 288.575 34.7527 288.703 34.7527L287.231 33.2807V168.513C287.231 170.305 286.975 172.289 287.231 174.017C287.231 174.081 287.231 174.209 287.231 174.273L288.959 173.057H41.2155C37.8875 173.057 34.4955 172.865 31.1675 173.057H30.7195L32.1915 174.529V50.9447C32.1915 45.2487 32.3195 39.4887 32.1915 33.7927V33.5367C32.1915 31.7447 28.9915 31.4887 28.9915 33.2167V156.801C28.9915 162.497 28.8635 168.257 28.9915 173.953V174.209C28.9915 175.041 29.6315 175.681 30.4635 175.745H278.207C281.535 175.745 284.927 175.745 288.255 175.745H288.703C289.407 175.745 290.431 175.425 290.431 174.529V50.9447C290.431 45.2487 290.495 39.4887 290.431 33.7927V33.5367C290.431 32.7047 289.791 32.0647 288.959 32.0647H41.2155C37.8875 32.0647 34.4955 32.0647 31.1675 32.0647H30.7195C29.9515 32.0647 29.1195 32.3847 28.9915 33.2807C28.9915 34.0487 29.6315 34.6887 30.4635 34.7527Z" fill="#3D3D3D"/>
<path d="M50.1122 52.3533C51.9502 52.3533 53.4402 50.8633 53.4402 49.0253C53.4402 47.1873 51.9502 45.6973 50.1122 45.6973C48.2742 45.6973 46.7842 47.1873 46.7842 49.0253C46.7842 50.8633 48.2742 52.3533 50.1122 52.3533Z" fill="#CECECE"/>
<path d="M62.2079 52.1609C64.0459 52.1609 65.5359 50.6709 65.5359 48.8329C65.5359 46.9949 64.0459 45.5049 62.2079 45.5049C60.3699 45.5049 58.8799 46.9949 58.8799 48.8329C58.8799 50.6709 60.3699 52.1609 62.2079 52.1609Z" fill="#CECECE"/>
<path d="M74.496 52.3533C76.334 52.3533 77.824 50.8633 77.824 49.0253C77.824 47.1873 76.334 45.6973 74.496 45.6973C72.658 45.6973 71.168 47.1873 71.168 49.0253C71.168 50.8633 72.658 52.3533 74.496 52.3533Z" fill="#CECECE"/>
<path d="M83.1752 138.655H122.803C124.957 138.787 126.895 137.732 127.111 136.281C127.111 136.149 127.111 136.017 127.111 135.885C126.895 134.434 124.957 132.455 122.157 132.455H82.5291C80.3754 132.324 78.437 133.379 78.2217 134.698C78.2217 134.83 78.2217 134.962 78.2217 135.226C78.437 136.545 80.3753 138.655 83.1752 138.655Z" fill="#CECECE"/>
<path d="M140.862 138.655H179.77C181.884 138.787 183.788 137.732 183.999 136.281C183.999 136.149 183.999 136.017 183.999 135.885C183.788 134.434 181.884 132.455 179.136 132.455H140.228C138.114 132.324 136.21 133.379 135.999 134.698C135.999 134.83 135.999 134.962 135.999 135.226C136.21 136.545 138.114 138.655 140.862 138.655Z" fill="#CECECE"/>
<path d="M197.841 138.655H237.469C239.623 138.787 241.561 137.732 241.777 136.281C241.777 136.149 241.777 136.017 241.777 135.885C241.561 134.434 239.623 132.455 236.823 132.455H197.195C195.041 132.324 193.103 133.379 192.888 134.698C192.888 134.83 192.888 134.962 192.888 135.226C193.103 136.545 195.041 138.655 197.841 138.655Z" fill="#CECECE"/>
<path d="M83.1752 117.322H122.803C124.957 117.454 126.895 116.399 127.111 114.948C127.111 114.816 127.111 114.684 127.111 114.552C126.895 113.101 124.957 111.122 122.157 111.122H82.5291C80.3754 110.991 78.437 112.046 78.2217 113.365C78.2217 113.497 78.2217 113.629 78.2217 113.893C78.437 115.212 80.3753 117.322 83.1752 117.322Z" fill="#CECECE"/>
<path d="M140.862 117.322H179.77C181.884 117.454 183.788 116.399 183.999 114.948C183.999 114.816 183.999 114.684 183.999 114.552C183.788 113.101 181.884 111.122 179.136 111.122H140.228C138.114 110.991 136.21 112.046 135.999 113.365C135.999 113.497 135.999 113.629 135.999 113.893C136.21 115.212 138.114 117.322 140.862 117.322Z" fill="#CECECE"/>
<path d="M197.841 117.322H237.469C239.623 117.454 241.561 116.399 241.777 114.948C241.777 114.816 241.777 114.684 241.777 114.552C241.561 113.101 239.623 111.122 236.823 111.122H197.195C195.041 110.991 193.103 112.046 192.888 113.365C192.888 113.497 192.888 113.629 192.888 113.893C193.103 115.212 195.041 117.322 197.841 117.322Z" fill="#CECECE"/>
<path d="M83.1752 97.7668H122.803C124.957 97.8987 126.895 96.8434 127.111 95.3923C127.111 95.2604 127.111 95.1285 127.111 94.9966C126.895 93.5455 124.957 91.5668 122.157 91.5668H82.5291C80.3754 91.4349 78.437 92.4902 78.2217 93.8093C78.2217 93.9413 78.2217 94.0732 78.2217 94.337C78.437 95.6561 80.3753 97.7668 83.1752 97.7668Z" fill="#CECECE"/>
<path d="M140.862 97.7668H179.77C181.884 97.8987 183.788 96.8434 183.999 95.3923C183.999 95.2604 183.999 95.1285 183.999 94.9966C183.788 93.5455 181.884 91.5668 179.136 91.5668H140.228C138.114 91.4349 136.21 92.4902 135.999 93.8093C135.999 93.9413 135.999 94.0732 135.999 94.337C136.21 95.6561 138.114 97.7668 140.862 97.7668Z" fill="#CECECE"/>
<path d="M197.841 97.7668H237.469C239.623 97.8987 241.561 96.8434 241.777 95.3923C241.777 95.2604 241.777 95.1285 241.777 94.9966C241.561 93.5455 239.623 91.5668 236.823 91.5668H197.195C195.041 91.4349 193.103 92.4902 192.888 93.8093C192.888 93.9413 192.888 94.0732 192.888 94.337C193.103 95.6561 195.041 97.7668 197.841 97.7668Z" fill="#CECECE"/>
<path d="M171.648 110.016C171.648 110.016 193.856 153.6 196.288 153.408C198.72 153.216 203.584 150.272 201.472 147.648C199.36 145.024 174.464 108.224 174.464 108.224L171.648 110.016Z" fill="#3D3D3D"/>
<path d="M170.177 110.721C172.801 115.905 175.489 121.025 178.177 126.081C182.401 134.081 186.561 142.081 191.361 149.761C192.065 150.849 192.769 151.937 193.537 153.025C193.857 153.409 194.305 154.113 194.817 154.177C195.457 154.177 196.033 153.985 196.609 153.793C197.569 153.473 198.465 153.025 199.361 152.513C200.641 151.809 202.113 150.913 202.881 149.633C203.457 148.801 203.393 147.649 202.753 146.817L202.113 145.985C197.377 139.393 192.833 132.609 188.289 125.889C184.193 119.873 180.097 113.857 176.001 107.841L175.809 107.521C175.617 107.201 173.761 108.353 173.569 108.417L170.753 110.209C170.561 110.337 169.793 110.721 170.369 110.721C170.945 110.721 171.905 110.081 172.353 109.825L175.169 108.033L172.929 108.993C176.257 113.921 179.649 118.849 182.977 123.777C187.905 131.009 192.833 138.305 197.889 145.473C198.465 146.305 199.041 147.137 199.681 147.969C200.129 148.417 200.385 149.057 200.449 149.697C200.449 150.785 199.489 151.937 198.593 152.449C198.785 152.321 198.529 152.449 198.401 152.513C198.145 152.577 197.889 152.641 197.697 152.705C197.441 152.705 197.569 152.769 197.377 152.641C197.121 152.513 196.929 152.321 196.737 152.065C196.033 151.233 195.393 150.273 194.817 149.377C190.209 142.209 186.241 134.593 182.273 127.105C179.201 121.345 176.193 115.521 173.185 109.697C173.121 109.633 173.057 109.505 173.057 109.441C172.929 108.993 170.049 110.465 170.177 110.721Z" fill="#3D3D3D"/>
<path d="M163.392 111.168C174.173 111.168 182.912 102.429 182.912 91.6479C182.912 80.8673 174.173 72.1279 163.392 72.1279C152.611 72.1279 143.872 80.8673 143.872 91.6479C143.872 102.429 152.611 111.168 163.392 111.168Z" fill="white"/>
<path d="M149.709 98.6659L179.959 97.3064C182.152 96.8533 183.467 94.814 183.028 92.7748C183.028 92.5483 182.809 92.0951 182.809 91.8685C181.932 89.1496 179.521 87.3369 176.671 87.1104L146.421 88.4698C144.448 88.6964 142.914 90.7356 143.133 93.0014C143.133 93.4546 143.352 93.6812 143.352 94.1343C144.448 96.8533 146.86 98.6659 149.709 98.6659Z" fill="#CECECE"/>
<path d="M177.28 80.256C182.08 86.4 182.72 94.848 178.88 101.696C177.024 104.96 174.208 107.584 170.752 109.12C167.424 110.464 163.776 110.784 160.32 109.952C152.576 108.096 146.752 101.76 145.6 93.888C144.576 86.4 148.16 78.4 154.944 74.816C161.536 71.36 169.92 73.152 175.232 78.08C176 78.72 176.704 79.424 177.28 80.256C177.92 81.024 180.672 79.552 180.288 79.104C174.848 72.384 165.888 69.76 157.696 72.448C149.376 75.072 142.848 82.304 142.464 91.264C142.08 99.84 147.264 107.712 155.328 110.72C163.584 113.728 173.248 111.104 179.2 104.704C184.896 98.432 186.048 89.28 182.08 81.792C181.568 80.896 180.992 80 180.352 79.168C179.648 78.336 176.896 79.744 177.28 80.256Z" fill="#3D3D3D"/>
<path d="M194.816 123.583C193.792 120.191 193.984 108.223 191.552 107.263C189.12 106.303 187.968 111.231 188.608 113.087C188.608 113.087 186.944 109.183 183.296 112.447C183.296 112.447 179.328 111.743 178.944 112.959C178.816 113.279 181.312 117.247 181.632 117.375C183.744 118.079 185.664 119.871 184 122.943C181.952 126.719 179.2 125.375 178.048 122.623C177.664 121.599 176.64 120.959 175.552 121.087C173.504 121.343 173.632 123.903 175.36 127.743C177.088 131.583 183.552 132.031 185.344 130.431L189.824 135.359L198.208 130.367L194.816 123.583Z" fill="white"/>
<path d="M196.225 123.264C196.353 123.648 196.225 123.2 196.161 123.072C196.097 122.944 196.097 122.752 196.097 122.624C196.033 122.24 195.969 121.792 195.905 121.408C195.777 120.448 195.713 119.488 195.585 118.528C195.393 116.416 195.201 114.304 194.881 112.128C194.625 110.464 194.369 108.544 193.345 107.136C192.321 105.664 190.337 105.344 188.865 106.304C188.673 106.432 188.481 106.624 188.289 106.816C186.817 108.672 186.369 111.168 187.009 113.408L189.889 112.704C189.441 111.68 188.673 110.784 187.649 110.208C185.601 109.12 183.553 109.952 181.889 111.36L183.297 111.04C181.953 110.72 180.545 110.72 179.201 110.912C178.369 110.976 177.601 111.552 177.281 112.384C177.217 113.024 177.345 113.728 177.729 114.24C178.433 115.52 179.265 117.12 180.353 118.144C180.993 118.72 181.761 118.784 182.337 119.232C182.913 119.744 183.041 120.512 182.785 121.216C182.529 122.112 181.825 123.328 180.929 123.712C181.057 123.648 180.545 123.776 180.673 123.776C180.801 123.776 180.545 123.776 180.545 123.776C180.801 123.776 180.545 123.776 180.481 123.776C180.225 123.648 180.417 123.776 180.481 123.776C180.481 123.776 180.289 123.648 180.417 123.712C180.545 123.776 180.033 123.392 180.097 123.456C179.393 122.752 179.137 121.664 178.433 120.896C177.473 119.872 176.065 119.36 174.657 119.552C169.921 120.384 173.121 128 175.105 129.984C176.769 131.456 178.817 132.352 181.057 132.48C182.849 132.672 184.897 132.416 186.305 131.264L183.809 130.944L188.289 135.872C188.801 136.448 189.697 136.896 190.465 136.448L198.913 131.456C199.489 131.136 199.681 130.496 199.425 129.92L196.225 123.264C195.905 122.496 195.073 122.112 194.241 122.24C193.601 122.368 193.153 123.008 193.281 123.712C193.281 123.776 193.345 123.904 193.345 123.968L196.609 130.688L197.121 129.152L188.737 134.144L190.913 134.72L186.433 129.792C185.857 129.024 184.769 128.832 184.001 129.408C184.001 129.408 184.001 129.408 183.937 129.472C183.745 129.6 183.937 129.472 184.001 129.472C183.937 129.536 183.873 129.536 183.809 129.6C183.745 129.664 183.617 129.664 183.553 129.728C183.233 129.856 182.849 129.92 182.529 129.984C182.401 129.984 182.017 130.048 181.633 130.048C181.249 130.048 180.801 129.984 180.417 129.92C179.585 129.792 178.817 129.536 178.049 129.088C177.793 128.896 177.537 128.704 177.281 128.512C177.025 128.256 176.833 127.936 176.641 127.616C176.065 126.528 175.681 125.312 175.425 124.096C175.361 123.712 175.361 123.392 175.425 123.008C175.489 122.752 175.425 122.944 175.489 122.752C175.553 122.56 175.489 122.752 175.425 122.816C175.361 122.88 175.745 122.56 175.489 122.752C175.489 122.752 175.681 122.688 175.553 122.688C175.425 122.688 175.681 122.688 175.681 122.688C175.809 122.688 175.873 122.688 176.001 122.752C176.321 122.88 176.385 123.328 176.513 123.584C176.961 124.608 177.729 125.504 178.625 126.144C180.737 127.552 183.105 126.912 184.513 124.928C186.113 122.752 186.497 120 184.449 117.952C184.001 117.568 183.553 117.184 183.041 116.928C182.849 116.8 182.657 116.736 182.465 116.672C182.337 116.608 182.145 116.544 182.017 116.48C181.377 116.288 182.465 116.736 182.273 116.672C182.465 116.8 182.465 116.928 182.337 116.672L182.081 116.288C181.825 115.968 181.633 115.584 181.377 115.264C180.993 114.688 180.609 114.112 180.353 113.472C180.353 113.408 180.289 113.152 180.225 113.152C180.353 113.216 180.289 113.664 180.225 113.664C180.225 113.792 180.033 114.048 180.033 114.112C180.033 114.176 179.969 114.048 180.097 114.048C180.225 114.048 180.161 114.048 180.033 114.048C180.161 113.984 180.289 113.984 180.417 113.984C180.865 113.92 181.377 113.92 181.825 113.984L182.465 114.048C182.145 113.984 182.465 114.048 182.593 114.048C183.041 114.176 183.553 114.176 184.001 113.984C184.577 113.664 184.961 113.152 185.601 112.96C185.665 112.96 185.793 112.896 185.857 112.896C186.177 112.832 185.537 112.896 186.049 112.896C186.113 112.896 186.369 112.896 186.049 112.896C186.113 112.896 186.241 112.896 186.305 112.96C185.857 112.768 186.625 113.216 186.433 113.024C186.241 112.832 186.625 113.216 186.689 113.28C186.433 113.024 186.689 113.344 186.753 113.408C186.817 113.472 186.881 113.6 186.945 113.728C186.753 113.408 186.881 113.6 186.945 113.792C187.649 115.392 190.465 115.072 189.825 113.088C189.889 113.408 189.825 112.896 189.761 112.832C189.761 112.64 189.697 112.512 189.697 112.32C189.697 112 189.761 111.616 189.825 111.296C189.889 110.528 190.209 109.824 190.593 109.184C190.529 109.312 190.785 108.992 190.849 108.928C190.913 108.864 190.913 108.864 190.913 108.864C190.785 108.8 191.041 108.928 190.913 108.864C190.785 108.8 190.977 108.928 190.977 108.864C190.721 108.8 190.977 108.928 190.977 108.864C190.913 108.8 190.785 108.8 190.721 108.736C190.529 108.608 190.593 108.672 190.657 108.672C190.849 108.8 190.529 108.544 190.529 108.544C190.593 108.608 190.657 108.672 190.721 108.8C190.721 108.8 190.657 108.608 190.721 108.864C190.785 108.992 190.849 109.184 190.913 109.312C191.105 109.888 191.297 110.528 191.425 111.104C191.617 111.936 191.745 112.768 191.809 113.664C192.065 115.52 192.193 117.376 192.385 119.232C192.513 120.896 192.769 122.56 193.153 124.16C193.857 125.568 196.801 125.184 196.225 123.264Z" fill="#3D3D3D"/>
<path d="M188.608 117.632C188.608 117.312 188.48 117.056 188.352 116.736C188.16 116.352 187.968 115.904 187.712 115.584C187.008 114.496 186.112 113.536 185.024 112.768C184.256 112.256 183.36 111.872 182.4 111.744C182.272 111.744 182.016 111.744 181.952 111.872C181.888 112 182.016 112.256 182.08 112.32C182.464 112.768 182.976 113.024 183.552 113.152H183.744H183.872C183.872 113.152 183.68 113.088 183.744 113.152L183.872 113.216L184 113.28C184.128 113.28 183.744 113.216 183.872 113.216L184 113.28L184.064 113.344C184 113.344 183.936 113.28 183.936 113.28L184.064 113.344L184.128 113.408C184.256 113.472 184 113.344 184 113.344C184 113.344 184.256 113.472 184.32 113.536C184.384 113.6 184.512 113.664 184.384 113.536C184.256 113.408 184.448 113.6 184.448 113.6L184.704 113.856C184.768 113.92 184.768 113.92 184.832 113.984C184.832 113.984 184.704 113.856 184.768 113.92L184.832 114.048C184.96 114.24 185.152 114.432 185.28 114.624C185.408 114.816 185.408 114.816 185.472 114.88C185.472 114.944 185.536 115.008 185.6 115.008C185.6 115.008 185.536 114.88 185.536 114.944L185.6 115.008C185.792 115.328 185.984 115.712 186.176 116.096C186.24 116.16 186.24 116.288 186.304 116.352L186.368 116.48C186.368 116.608 186.432 116.672 186.432 116.8C186.432 116.992 186.688 117.184 186.752 117.312C187.008 117.504 187.264 117.696 187.52 117.824C187.84 117.824 188.608 118.08 188.608 117.632Z" fill="#3D3D3D"/>
<path d="M190.336 115.072L188.48 112.192L188.224 111.808C188.032 111.488 187.776 111.168 187.456 110.976C187.328 110.912 187.008 110.72 186.816 110.848C186.624 110.976 186.688 111.296 186.752 111.488C186.88 111.872 187.008 112.192 187.264 112.512L189.12 115.392L189.376 115.776C189.568 116.096 189.888 116.352 190.144 116.608C190.272 116.672 190.592 116.864 190.784 116.736C190.912 116.544 190.976 116.288 190.848 116.096C190.72 115.712 190.528 115.392 190.336 115.072Z" fill="#3D3D3D"/>
<path d="M178.944 141.888C178.944 141.888 174.528 144.832 170.88 143.808C167.232 142.784 160.512 139.52 158.72 142.912C156.928 146.304 161.536 148.928 164.8 149.184C164.8 149.184 161.408 158.592 166.4 162.752C171.392 166.912 174.464 166.016 173.76 170.048C173.76 170.048 179.008 178.688 181.696 171.456C182.08 170.304 188.736 156.864 181.184 149.952C181.248 149.952 176.832 146.304 178.944 141.888Z" fill="white"/>
<path d="M177.792 141.505C176.512 142.401 174.976 143.041 173.376 143.233C172.352 143.233 171.392 143.041 170.432 142.657C169.28 142.273 168.064 141.825 166.912 141.441C164.544 140.737 161.792 140.161 159.36 141.057C157.248 141.825 156.096 144.129 157.184 146.177C158.4 148.481 161.6 149.633 164.096 149.889L163.264 149.185C161.92 152.961 161.216 158.209 163.648 161.729C164.672 163.201 166.272 164.289 167.808 165.185C168.96 165.889 170.368 166.401 171.456 167.297C172.416 168.065 172.288 168.897 172.288 169.985C172.416 170.497 172.672 171.009 172.992 171.329C174.208 172.929 175.744 174.657 177.856 174.913C179.264 175.169 180.736 174.721 181.824 173.761C182.528 172.993 183.104 172.033 183.424 171.073C185.216 166.849 186.688 162.241 186.368 157.633C186.304 155.969 185.856 154.369 185.216 152.833C184.832 152.065 184.448 151.361 183.872 150.657C183.616 150.337 183.296 149.953 182.976 149.697L182.656 149.377C180.544 147.393 179.264 144.641 180.544 141.825C180.992 140.865 177.856 140.865 177.408 141.825C176.192 144.513 177.024 147.329 178.88 149.441C179.392 150.017 179.968 150.465 180.416 150.977C181.376 152.065 182.08 153.281 182.528 154.625C184.064 159.425 182.72 164.801 180.928 169.345C180.416 170.689 179.84 172.545 178.816 173.441C178.752 173.505 178.688 173.505 178.624 173.569C178.688 173.505 179.072 173.441 178.752 173.505C178.88 173.505 179.072 173.441 179.264 173.441C179.456 173.441 179.2 173.441 179.136 173.441C179.456 173.569 178.816 173.313 178.944 173.377C178.688 173.249 178.496 173.121 178.24 172.993C177.536 172.481 176.896 171.841 176.32 171.137C176 170.753 175.36 170.113 175.296 169.665C175.296 169.537 175.36 169.665 175.36 169.601C175.36 169.281 175.424 168.961 175.424 168.577C175.424 168.065 175.232 167.617 174.976 167.169C174.4 166.273 173.312 165.761 172.416 165.249C170.816 164.417 169.344 163.457 167.936 162.369C164.224 159.297 164.928 153.217 166.336 149.185C166.528 148.737 165.888 148.481 165.504 148.481C163.52 148.289 161.28 147.393 160.256 145.665C159.808 144.833 159.808 143.809 160.256 142.977C160.384 142.721 160.64 142.465 160.896 142.273C160.768 142.337 160.96 142.209 160.96 142.209H161.024C161.088 142.209 161.344 142.145 161.088 142.209C161.344 142.145 161.088 142.209 161.28 142.209C163.264 142.145 165.44 143.041 167.36 143.681C168.384 144.065 169.408 144.385 170.432 144.641C171.84 144.897 173.312 144.897 174.72 144.577C176.64 144.193 178.496 143.425 180.096 142.337C180.608 141.953 180.544 141.505 179.968 141.313C179.264 141.121 178.496 141.121 177.792 141.505Z" fill="#3D3D3D"/>
<path d="M187.841 285.632C187.841 285.632 187.201 297.856 187.585 297.856C187.969 297.856 193.409 297.664 193.409 297.664V292.736L196.097 298.112L214.337 297.152C214.337 297.152 214.913 295.36 210.817 293.44C206.721 291.52 200.129 288.704 200.129 288.704L200.001 281.408L187.841 285.632Z" fill="white"/>
<path d="M186.369 285.12C186.241 287.744 186.113 290.432 186.049 293.056C185.985 294.4 185.985 295.68 186.049 297.024C186.241 298.688 188.481 298.816 189.761 298.752L194.561 298.624C194.753 298.624 194.881 298.496 194.881 298.304C194.881 298.304 194.881 298.304 194.881 298.24V293.312L192.065 292.48L194.753 297.856C195.137 298.624 196.481 299.072 197.249 299.072L213.249 298.24L215.553 298.112C215.681 298.112 215.809 298.048 215.873 297.92C216.129 297.152 215.553 296.32 215.105 295.744C213.633 293.952 211.393 293.056 209.345 292.096C206.401 290.752 203.457 289.472 200.449 288.256L201.601 289.28L201.473 281.984C201.473 281.536 200.577 281.088 200.257 280.896C199.809 280.64 199.233 280.512 198.657 280.64L186.497 284.8C185.921 284.992 187.009 285.824 187.201 285.952C187.777 286.4 188.481 286.528 189.185 286.4L201.345 282.24L198.593 280.896L198.721 288.192C198.721 288.64 199.617 289.152 199.937 289.28C202.497 290.368 205.057 291.456 207.553 292.608C209.089 293.312 211.073 293.888 212.353 295.168C212.673 295.424 212.865 295.808 212.993 296.192C212.993 296.32 212.993 296.448 212.993 296.576C212.929 296.512 212.993 296.512 212.993 296.576L213.313 296.384L197.313 297.216L195.009 297.344L197.505 298.56L194.817 293.12C194.561 292.608 192.001 291.264 192.001 292.288V297.216L192.321 296.896L189.633 296.96L187.713 297.024H187.009C186.433 297.024 186.241 296.832 187.521 297.216L188.865 298.048C189.121 298.24 189.057 298.56 189.057 298.176C189.057 298.048 189.057 297.856 189.057 297.728C189.057 297.216 189.057 296.768 189.057 296.256C189.057 294.848 189.121 293.44 189.185 292.096C189.249 290.112 189.313 288.192 189.441 286.208C189.377 285.312 186.433 284.16 186.369 285.12Z" fill="#3D3D3D"/>
<path d="M185.728 285.183C185.728 285.183 186.368 297.407 185.984 297.407C185.6 297.407 180.16 297.279 180.16 297.279V292.351L177.472 297.727L159.232 296.767C159.232 296.767 158.656 294.975 162.752 292.991C166.848 291.007 173.44 288.255 173.44 288.255L173.568 280.959L185.728 285.183Z" fill="white"/>
<path d="M184.192 285.505C184.256 287.489 184.384 289.473 184.448 291.457C184.512 292.865 184.512 294.209 184.576 295.617C184.576 296.129 184.576 296.577 184.576 297.025C184.576 297.153 184.512 297.345 184.576 297.473C184.64 297.793 184.192 297.729 184.96 297.473L187.456 296.961C185.536 296.961 183.552 296.833 181.632 296.833L181.888 296.897V291.969C181.888 291.905 178.944 292.225 178.752 292.609L176.064 297.985L179.136 297.281L166.464 296.577L162.944 296.385C162.304 296.449 161.664 296.385 161.024 296.257C160.832 296.193 160.96 296.385 160.96 296.193C160.896 295.873 160.96 295.553 161.152 295.297C161.92 293.633 164.032 292.801 165.568 292.097C168.704 290.625 171.84 289.281 175.04 287.937C175.104 287.937 175.168 287.873 175.232 287.809L175.36 280.513L172.288 281.217L184.448 285.377C184.96 285.569 185.856 285.185 186.368 285.057C186.56 284.993 187.584 284.673 187.392 284.609L175.232 280.449C174.912 280.321 172.16 280.769 172.16 281.153L172.032 288.513L172.224 288.385C169.408 289.601 166.592 290.817 163.776 292.097C161.984 292.929 159.872 293.697 158.528 295.169C158.144 295.617 157.632 296.385 157.824 296.961H157.888L173.888 297.793L176.192 297.921C176.768 297.921 177.344 297.857 177.92 297.665C178.24 297.601 179.072 297.537 179.264 297.217L181.952 291.841L178.816 292.481V297.409C178.88 297.473 178.944 297.473 179.072 297.473L183.232 297.601C183.808 297.601 184.384 297.665 184.96 297.665C185.792 297.601 186.624 297.473 187.456 297.153C187.712 297.089 187.84 297.025 187.968 296.833C188.032 296.449 188.096 296.001 188.032 295.553C188.032 294.785 188.032 294.017 188.032 293.313C187.968 291.521 187.904 289.729 187.84 287.937C187.776 286.849 187.776 285.761 187.712 284.673C187.264 284.737 184.128 285.121 184.192 285.505Z" fill="#3D3D3D"/>
<path d="M195.649 207.168C195.649 207.168 204.481 285.568 201.985 287.552C199.489 289.536 187.905 286.656 187.905 286.656L187.137 270.208L187.457 286.848C187.457 286.848 173.057 286.592 169.153 285.184C169.153 285.184 162.753 214.848 162.753 204.032C162.753 193.216 195.649 207.168 195.649 207.168Z" fill="#3D3D3D"/>
<path d="M194.048 207.231C194.432 210.559 194.752 213.887 195.136 217.215C195.968 224.895 196.8 232.575 197.504 240.255C198.336 248.831 199.168 257.407 199.808 265.983C200.32 272.063 200.896 278.271 200.768 284.415C200.768 285.183 200.704 285.887 200.64 286.655C200.64 286.847 200.576 287.103 200.512 287.295C200.448 287.423 200.512 287.423 200.32 287.551C200.128 287.679 199.936 287.743 199.68 287.807C199.296 287.871 200 287.743 199.552 287.807H199.296C199.808 287.743 198.592 287.807 198.976 287.807C197.888 287.807 196.864 287.743 195.776 287.551C193.792 287.295 191.872 286.911 189.952 286.527C189.632 286.463 189.312 286.399 188.992 286.271L189.44 286.527L188.8 272.127L188.736 270.079C188.736 269.503 185.536 269.631 185.536 270.207L185.792 284.735L185.856 286.783L187.84 286.335C183.232 286.271 178.624 286.015 174.016 285.503C172.8 285.375 171.648 285.183 170.496 284.799L170.752 284.991C170.304 280.127 169.92 275.199 169.472 270.335C168.576 259.967 167.68 249.535 166.784 239.103C166.016 229.567 165.248 220.095 164.672 210.559C164.608 209.023 164.48 207.551 164.416 206.015C164.288 204.927 164.288 203.775 164.48 202.687C164.736 201.791 165.376 201.087 166.144 200.703C166.4 200.575 166.656 200.447 166.976 200.383L167.232 200.319C166.912 200.383 167.232 200.319 167.296 200.319L167.616 200.255C167.296 200.319 167.936 200.191 167.616 200.255L168.064 200.191H168.192H168.64C169.024 200.191 168.256 200.191 168.704 200.191H169.088C169.344 200.191 169.6 200.191 169.856 200.191H169.984H170.368L171.136 200.255C173.44 200.575 175.68 201.023 177.92 201.663C180.224 202.239 182.464 202.943 184.64 203.711C187.712 204.735 190.784 205.887 193.728 207.103L194.24 207.295C194.944 207.487 195.712 207.551 196.416 207.359C196.672 207.295 197.568 207.039 196.992 206.783C190.336 203.839 183.36 201.663 176.192 200.127C173.76 199.615 171.328 199.359 168.832 199.359C166.912 199.359 164.8 199.551 163.136 200.511C161.92 201.151 161.088 202.431 161.088 203.839C161.024 204.927 161.152 206.079 161.152 207.167C161.536 216.063 162.304 224.895 163.008 233.727C163.84 244.607 164.8 255.551 165.76 266.431L166.848 278.655C167.04 280.703 167.104 282.815 167.424 284.799C167.424 284.863 167.424 284.991 167.424 285.055C167.488 285.183 167.552 285.247 167.68 285.247C170.24 286.143 173.184 286.335 175.936 286.527C178.944 286.783 181.952 286.911 184.96 287.039L186.88 287.103C187.072 287.103 188.864 287.103 188.864 286.655L188.608 272.127L188.544 270.079L185.344 270.207L185.984 284.671L186.112 286.719C186.112 286.911 186.496 286.975 186.624 286.975C190.272 287.935 194.048 288.511 197.824 288.639C199.104 288.703 200.384 288.575 201.664 288.319C202.304 288.255 202.944 287.999 203.456 287.551C203.712 287.167 203.776 286.719 203.776 286.271C203.904 284.223 203.904 282.175 203.776 280.127C203.648 276.799 203.456 273.535 203.2 270.207C202.56 261.631 201.792 253.055 200.96 244.479C200.192 236.287 199.36 228.095 198.464 219.903C198.144 217.087 197.888 214.271 197.568 211.455C197.504 210.559 197.376 209.663 197.248 208.767C197.248 208.319 197.184 207.807 197.12 207.359C197.12 207.295 197.12 207.231 197.12 207.167C197.12 206.463 193.984 206.719 194.048 207.231Z" fill="#3D3D3D"/>
<path d="M183.488 223.168L183.744 229.44L184.384 244.544L185.216 262.848L185.92 278.592C186.048 281.152 186.048 283.712 186.24 286.272V286.4C186.304 287.872 189.44 288.512 189.376 286.848L189.12 280.576L188.48 265.472L187.648 247.168L186.944 231.424C186.816 228.864 186.816 226.304 186.624 223.744C186.624 223.68 186.624 223.68 186.624 223.616C186.56 222.144 183.424 221.504 183.488 223.168Z" fill="white"/>
<path d="M147.329 225.023C147.329 225.023 146.753 234.815 148.865 236.863C150.977 238.911 153.921 236.415 153.921 236.415C153.921 236.415 155.329 239.295 158.209 236.735C158.209 236.735 161.793 239.551 163.841 236.415C165.889 233.215 164.737 229.503 164.737 229.503C166.081 228.991 166.913 227.647 166.785 226.239C166.593 223.679 163.009 223.103 163.009 223.103L163.137 218.687C163.137 218.687 152.833 216.063 150.593 216.895C148.353 217.727 147.585 223.295 147.329 225.023Z" fill="white"/>
<path d="M145.792 224.64C145.664 226.816 145.664 228.992 145.856 231.168C146.112 234.432 146.816 238.4 150.848 238.784C152.448 238.848 153.984 238.272 155.2 237.248L152.576 236.608C153.024 237.44 153.792 238.144 154.688 238.528C156.416 239.36 158.144 238.72 159.488 237.568L157.376 237.504C159.296 239.04 162.496 239.872 164.48 238.016C166.656 236.032 166.976 232.192 166.208 229.504L165.76 230.528C167.808 229.696 168.832 227.392 168 225.28V225.216C167.168 223.36 164.992 222.208 163.008 221.888L164.48 223.36L164.608 218.944C164.608 218.176 163.776 217.6 163.136 217.472C160.576 216.832 158.016 216.256 155.392 215.872C153.792 215.552 152.064 215.424 150.4 215.552C148.672 215.808 147.712 217.28 147.072 218.816C146.496 220.672 146.048 222.656 145.792 224.64C145.6 225.984 148.608 226.944 148.864 225.344C149.056 223.808 149.376 222.272 149.76 220.8C149.952 219.968 150.336 219.2 150.784 218.496C150.912 218.304 151.104 218.176 151.232 217.984C151.36 217.92 151.808 217.792 151.424 217.856C151.552 217.856 151.68 217.792 151.744 217.792C152 217.728 151.808 217.792 151.808 217.792H152.192C152.512 217.792 152.896 217.792 153.216 217.856C154.048 217.92 154.624 217.984 155.328 218.112C156.992 218.368 158.592 218.688 160.192 219.072C161.088 219.264 162.048 219.52 162.944 219.712L161.472 218.24L161.344 222.656C161.344 223.36 162.176 224.064 162.816 224.128L163.136 224.192C163.264 224.192 163.392 224.256 163.52 224.256L163.712 224.32C163.584 224.256 163.52 224.256 163.648 224.32C163.776 224.384 163.968 224.448 164.16 224.576C164.288 224.64 164.352 224.704 164.16 224.576C164.224 224.64 164.352 224.704 164.416 224.768C164.608 224.896 164.8 225.152 164.928 225.408C165.184 226.24 164.992 227.072 164.416 227.712C164.16 228.032 163.84 228.224 163.456 228.352C163.072 228.544 162.88 228.992 163.008 229.376C163.584 231.36 163.328 234.048 162.048 235.776C161.792 236.224 161.344 236.48 160.832 236.672C160.512 236.736 160.192 236.672 159.936 236.608C160 236.608 159.616 236.48 159.488 236.416C159.04 236.224 159.552 236.48 159.232 236.288C159.104 236.16 158.912 236.096 158.784 235.968C158.144 235.456 157.312 235.456 156.672 235.904C156.288 236.224 155.776 236.48 155.264 236.672C155.264 236.8 155.52 236.608 155.264 236.672C155.456 236.736 155.456 236.736 155.264 236.672C155.456 236.8 155.456 236.8 155.328 236.672C155.2 236.544 155.392 236.864 155.2 236.544C155.008 236.224 155.328 236.8 155.2 236.544C155.136 236.48 155.072 236.352 155.008 236.224C154.432 235.328 153.28 235.008 152.384 235.584C152.32 235.648 152 235.904 152.192 235.776C151.936 235.968 151.616 236.096 151.296 236.288C150.848 236.544 150.272 236.608 149.76 236.416L149.632 236.288C149.76 236.416 149.76 236.48 149.696 236.352C149.632 236.224 149.568 236.096 149.504 235.968C149.632 236.224 149.44 235.712 149.44 235.712C149.44 235.712 149.376 235.456 149.312 235.328C149.12 234.56 148.992 233.856 148.864 233.088C148.608 230.592 148.544 228.096 148.736 225.6C148.928 224 145.92 223.04 145.792 224.64Z" fill="#3D3D3D"/>
<path d="M150.528 228.672C150.528 228.672 152.896 225.152 155.136 226.112C157.376 227.072 157.184 233.408 153.664 236.416" fill="white"/>
<path d="M152.064 228.544C152.448 227.968 152.896 227.456 153.408 226.944C153.6 226.752 153.792 226.624 154.048 226.496C154.176 226.432 154.304 226.368 154.368 226.304H154.432C154.688 226.176 154.24 226.368 154.176 226.368C153.984 226.432 153.472 226.56 153.28 226.432C153.344 226.496 153.472 226.496 153.6 226.496C153.792 226.56 153.92 226.688 154.048 226.816C154.624 227.52 154.944 228.416 154.944 229.312C155.008 230.528 154.88 231.744 154.432 232.896C153.984 234.304 153.152 235.584 152 236.608C151.616 236.928 153.088 236.928 153.152 236.928C153.856 236.928 154.496 236.736 155.072 236.352C157.248 234.368 158.336 231.424 158.016 228.48C157.888 227.52 157.568 226.432 156.672 225.92C155.776 225.536 154.816 225.408 153.92 225.664C152.96 225.792 152 226.112 151.232 226.624C150.336 227.2 149.568 227.968 148.928 228.864C148.672 229.248 149.952 229.184 150.08 229.184C150.464 229.12 150.912 229.056 151.296 228.928C151.68 228.864 151.936 228.736 152.064 228.544Z" fill="#3D3D3D"/>
<path d="M157.12 226.368C157.12 226.368 158.784 225.216 160.896 227.136C163.008 229.056 160.32 235.328 158.208 236.736" fill="white"/>
<path d="M158.209 227.521C158.657 227.265 159.233 227.137 159.809 227.201C160.065 227.265 160.321 227.329 160.513 227.393C160.641 227.457 160.769 227.521 160.897 227.585C161.281 227.841 160.961 227.649 160.769 227.457C160.769 227.457 160.257 226.881 160.257 226.817C160.257 226.881 160.321 227.009 160.385 227.073C160.449 227.265 160.449 227.393 160.513 227.585C160.769 229.505 159.937 231.617 158.977 233.281C158.529 234.177 157.889 234.945 157.121 235.521C156.865 235.713 157.825 236.801 157.953 236.929C158.081 237.057 158.977 238.081 159.297 237.889C160.129 237.249 160.769 236.481 161.217 235.585C161.857 234.497 162.305 233.345 162.561 232.129C162.881 231.105 162.881 229.953 162.497 228.929C162.177 228.225 161.729 227.585 161.153 227.009C160.449 226.241 159.553 225.601 158.593 225.153C157.761 224.769 156.737 224.833 155.969 225.281C155.713 225.473 156.673 226.561 156.801 226.689C156.929 226.817 157.889 227.777 158.209 227.521Z" fill="#3D3D3D"/>
<path d="M163.008 223.041C163.008 223.041 158.912 222.209 158.08 223.553C157.056 225.281 156.864 227.777 164.544 229.377" fill="white"/>
<path d="M162.561 221.824C161.601 221.632 160.577 221.504 159.617 221.504C158.913 221.504 158.273 221.632 157.633 221.888C157.121 222.144 156.801 222.528 156.609 223.04C155.585 225.216 157.185 227.264 158.977 228.416C160.833 229.504 162.945 230.272 165.057 230.592C165.313 230.656 165.633 230.592 165.825 230.464C165.953 230.208 166.017 229.952 165.889 229.696C165.569 228.992 164.929 228.416 164.161 228.224C163.649 228.096 163.137 227.968 162.625 227.84L161.985 227.648L161.729 227.584L161.537 227.52C161.601 227.52 161.793 227.584 161.601 227.52C161.217 227.392 160.897 227.264 160.513 227.136L160.065 226.944L159.873 226.88C159.553 226.752 160.065 227.008 159.937 226.88C159.809 226.752 159.489 226.56 159.233 226.432C159.105 226.368 159.489 226.624 159.489 226.624L159.425 226.56L159.297 226.496L159.169 226.368C158.913 226.176 159.425 226.624 159.297 226.496C159.169 226.368 159.169 226.368 159.105 226.304C159.041 226.24 158.977 226.048 159.233 226.496L159.169 226.368L159.105 226.24C158.977 226.048 159.169 226.432 159.169 226.432C159.169 226.432 159.105 226.24 159.105 226.176L159.041 226.048C158.977 225.856 159.105 226.304 159.105 226.24C159.105 226.176 159.105 226.112 159.041 225.984C159.041 225.92 159.041 225.856 159.041 225.792C158.977 226.048 159.041 225.536 159.041 225.792C159.105 225.536 159.169 225.216 159.297 224.96C159.297 224.896 159.361 224.832 159.361 224.768C159.361 224.704 159.233 225.024 159.297 224.832L159.361 224.704C159.425 224.64 159.425 224.576 159.489 224.512L159.617 224.384L159.681 224.32C159.745 224.192 159.617 224.384 159.617 224.384C159.617 224.256 160.257 224.128 160.321 224.128C160.193 224.128 160.577 224.064 160.321 224.128H160.513L160.961 224.064C161.281 224.064 161.665 224.064 161.985 224.064L162.497 224.128H162.689C163.009 224.192 163.329 224.192 163.649 224.256C163.905 224.32 164.225 224.256 164.417 224.128C164.545 223.872 164.609 223.616 164.481 223.36C164.161 222.656 163.521 222.08 162.753 221.888L162.561 221.824Z" fill="#3D3D3D"/>
<path d="M182.784 168L179.52 168.128C161.28 163.392 146.688 220.672 146.688 220.672L163.904 219.584C164.032 217.344 164.864 209.28 164.864 208.896C164.864 209.024 164.864 209.152 164.864 209.28C164.864 209.28 180.48 217.856 198.4 209.792C197.056 201.408 195.136 193.088 192.704 184.896C192.704 184.896 204.352 170.432 204.928 154.176C205.504 137.92 197.952 126.592 197.952 126.592C197.952 126.592 186.944 129.792 185.152 130.944C183.36 132.096 188.544 156.608 182.784 168Z" fill="white"/>
<path d="M183.552 167.04L182.016 167.104C181.44 167.168 180.864 167.168 180.352 167.168C180.672 167.232 180.16 167.04 179.968 167.04C179.776 167.04 179.456 166.976 179.264 166.912C178.752 166.848 178.176 166.848 177.664 166.912C175.36 167.104 173.184 167.936 171.328 169.216C166.912 172.096 163.712 176.576 161.024 181.056C157.952 186.368 155.264 191.936 153.024 197.696C151.04 202.752 149.248 207.936 147.648 213.12C146.88 215.68 146.112 218.304 145.408 220.864C145.408 220.864 145.408 220.928 145.408 220.992C145.28 221.504 145.6 221.632 146.048 221.632L161.088 220.736L163.264 220.608C164.032 220.544 165.376 219.904 165.44 219.008C165.568 217.024 165.76 214.976 165.952 212.992C166.08 211.456 166.336 209.856 166.4 208.32L163.52 209.536V209.92C163.52 210.048 163.584 210.176 163.712 210.24C165.824 211.328 168.064 212.16 170.368 212.736C175.68 214.208 181.248 214.656 186.688 213.952C190.72 213.44 194.688 212.288 198.464 210.624C198.912 210.432 200.064 209.856 199.936 209.216C199.04 203.456 197.76 197.696 196.352 192C195.712 189.376 194.944 186.752 194.112 184.128L193.984 184.768C195.328 183.04 196.544 181.248 197.632 179.392C200.256 175.168 202.432 170.624 204.032 165.888C205.952 160.128 206.72 154.048 206.272 147.968C205.888 142.72 204.672 137.536 202.752 132.608C201.856 130.24 200.768 127.936 199.36 125.76C199.168 125.44 198.656 125.504 198.4 125.632C195.648 126.4 192.96 127.232 190.272 128.128C188.672 128.64 187.072 129.216 185.536 129.92C184.448 130.432 183.616 131.136 183.488 132.352C183.36 133.504 183.36 134.656 183.488 135.744C183.552 137.472 183.744 139.2 183.808 140.928C184.128 145.344 184.384 149.76 184.192 154.24C184.064 158.976 183.616 163.968 181.44 168.32C181.12 168.96 182.016 168.96 182.4 168.896C183.168 168.704 183.808 168.256 184.192 167.616C186.048 163.968 186.624 159.744 186.88 155.712C187.136 151.296 187.072 146.88 186.752 142.528C186.56 139.264 186.176 135.936 186.176 132.672C186.176 132.224 186.176 131.776 186.24 131.328C186.24 131.136 186.304 131.008 186.304 130.816C186.24 131.136 186.304 130.88 186.304 130.816C186.496 130.688 186.24 130.88 186.24 130.88C186.048 131.136 185.792 131.392 185.472 131.52L185.6 131.456C185.6 131.456 185.984 131.264 185.664 131.392C185.344 131.52 185.792 131.328 185.856 131.328L186.304 131.136C187.072 130.816 187.84 130.56 188.608 130.304C191.296 129.344 194.432 128.384 197.376 127.552L196.416 127.424C198.272 130.432 199.808 133.696 200.832 137.152C203.264 144.64 204.16 152.896 202.688 160.704C201.408 167.488 198.528 174.016 194.944 179.84C193.984 181.44 192.96 182.976 191.808 184.512C191.616 184.768 191.168 185.216 191.168 185.536C191.232 186.048 191.424 186.56 191.616 187.072L192 188.416C192.32 189.568 192.64 190.784 192.96 191.936C194.56 198.016 195.904 204.16 196.864 210.432L198.336 209.024C188.736 213.248 177.792 213.376 168.128 209.344C167.424 209.088 166.72 208.768 166.08 208.384L166.272 208.704C166.272 208.576 166.272 208.448 166.272 208.32C166.272 207.296 163.392 208.512 163.392 209.536C163.392 211.072 163.136 212.672 162.944 214.208C162.752 216.192 162.56 218.24 162.368 220.224L164.544 218.624L149.504 219.584L147.328 219.712L147.968 220.352C148.48 218.304 149.12 216.256 149.696 214.208C151.168 209.408 152.768 204.608 154.496 199.936C156.544 194.304 158.976 188.8 161.792 183.488C163.072 181.056 164.544 178.688 166.144 176.448C166.528 175.936 166.912 175.424 167.36 174.912C167.552 174.656 167.744 174.4 167.936 174.208L168.256 173.888C168.32 173.824 168.384 173.76 168.448 173.632C168.832 173.184 169.216 172.8 169.664 172.352C169.856 172.16 170.048 171.968 170.304 171.776L170.624 171.52C170.688 171.456 171.008 171.2 170.752 171.392C171.136 171.072 171.584 170.752 172.032 170.432L172.352 170.24C172.16 170.368 172.16 170.368 172.352 170.24C172.544 170.112 172.8 169.984 173.056 169.856L173.376 169.664C173.056 169.792 173.632 169.536 173.376 169.664L174.08 169.344L174.272 169.28L174.464 169.216L175.168 169.024C175.488 168.96 175.04 169.024 175.232 169.024L175.488 168.96C175.744 168.96 175.936 168.896 176.192 168.896H176.512C176.704 168.896 176.384 168.896 176.64 168.896C176.896 168.896 177.152 168.896 177.344 168.96C177.792 169.088 178.304 169.152 178.752 169.152C179.392 169.152 179.968 169.088 180.544 169.088L181.952 169.024C182.72 168.96 183.424 168.512 183.936 167.936C184.384 167.36 184.192 166.976 183.552 167.04Z" fill="#3D3D3D"/>
<path d="M169.024 190.144C167.68 195.904 165.056 201.28 163.968 207.104C163.904 207.872 164.224 208.64 164.8 209.152C165.184 209.472 166.016 209.792 166.144 209.024C167.232 203.2 169.856 197.824 171.2 192.064C171.264 191.296 170.944 190.528 170.368 190.016C169.984 189.696 169.216 189.44 169.024 190.144Z" fill="#3D3D3D"/>
<path d="M187.136 164.607C187.136 164.607 191.104 168.255 193.152 166.143C195.2 164.031 191.936 163.071 191.936 163.071C191.936 163.071 198.016 159.743 193.792 156.351C193.792 156.351 199.744 154.559 198.528 149.311C197.312 144.063 189.952 143.231 189.952 143.231C189.952 143.231 193.024 137.727 187.84 135.935C182.656 134.143 182.08 138.111 182.08 138.111C182.08 138.111 178.816 136.895 177.728 138.815C176.64 140.735 178.56 142.655 178.56 142.655C178.56 142.655 176.576 148.607 181.184 149.951L181.632 158.911C179.968 160.063 179.008 162.047 179.072 164.095C179.328 167.423 185.472 168.319 187.136 164.607Z" fill="#3D3D3D"/>
<path d="M187.008 165.311C188.544 166.719 191.488 168.895 193.664 167.743C196.928 166.079 193.408 162.495 191.232 161.855L193.024 164.223C194.176 163.647 195.136 162.751 195.84 161.727C197.248 159.487 195.776 157.183 193.92 155.647L194.752 157.567C197.184 156.799 199.552 154.879 199.808 152.191C200.32 147.647 196.16 144.127 192.32 142.719C191.296 142.335 190.144 142.079 189.056 141.887L191.04 144.319C192.064 142.399 192.448 140.095 191.36 138.111C190.272 136.255 188.416 134.911 186.304 134.399C184.896 134.015 183.168 134.015 182.016 135.039C181.504 135.551 181.12 136.255 180.992 136.959L181.44 136.767C180.16 136.319 178.112 135.999 177.024 137.087C175.36 138.751 176.896 141.503 178.176 142.911L177.472 141.503C176.192 145.343 177.92 149.759 181.952 151.039L180.096 149.055L180.544 158.015L180.608 157.631C179.648 158.335 178.88 159.295 178.432 160.383C177.6 162.303 177.984 164.607 179.52 166.079C181.888 168.639 186.624 169.151 188.352 165.567C188.672 164.863 186.432 162.687 186.048 163.519C185.216 165.311 183.04 166.015 181.184 165.567C180.864 165.439 180.608 165.375 180.288 165.183C180.288 165.247 180.48 165.247 180.288 165.183C180.352 165.247 180.416 165.375 180.544 165.439C180.672 165.503 180.544 165.439 180.48 165.247C180.288 164.031 180.544 162.815 181.184 161.791C181.632 161.151 182.144 160.639 182.72 160.127C182.976 159.871 182.976 159.679 182.912 159.359C182.848 157.823 182.784 156.287 182.656 154.815L182.464 150.719C182.4 149.887 181.312 148.927 180.608 148.671C180.288 148.543 180.032 148.415 179.776 148.287C179.84 148.351 179.904 148.415 179.904 148.479L179.84 148.415C179.776 148.287 179.776 148.287 179.648 148.031C179.456 147.391 179.392 146.751 179.392 146.111C179.392 145.279 179.584 144.383 179.84 143.615C179.968 143.167 179.328 142.463 179.136 142.207C179.072 142.143 178.944 141.951 179.2 142.335C179.136 142.207 179.072 142.143 179.008 142.015C179.136 142.207 179.008 141.951 178.944 141.887C178.816 141.695 178.752 141.439 178.752 141.247C178.624 140.415 179.008 139.519 179.84 139.135C180.8 138.687 182.08 138.943 182.976 139.263C183.104 139.327 183.36 139.263 183.424 139.071C183.808 136.383 187.008 136.319 188.992 137.215C189.184 137.279 189.312 137.343 189.44 137.471C189.824 137.727 189.376 137.279 189.632 137.599C189.376 137.343 189.632 137.663 189.696 137.855C189.888 138.495 189.888 139.199 189.76 139.839C189.632 140.415 189.504 140.927 189.248 141.503C189.184 141.695 189.12 141.823 189.056 142.015C188.992 142.207 189.12 141.951 188.992 142.143C188.48 143.039 190.272 144.447 190.976 144.575C190.528 144.511 191.296 144.639 191.424 144.639C191.936 144.767 192.448 144.895 192.896 145.023C194.112 145.407 195.264 145.983 196.352 146.687C196.544 146.815 196.672 147.007 196.8 147.199C196.992 147.455 197.12 147.711 197.248 148.031C197.568 148.863 197.632 149.759 197.504 150.591C197.248 151.999 196.416 153.279 195.2 154.047C194.496 154.559 193.728 155.007 192.896 155.263C192.128 155.519 193.472 156.991 193.728 157.183C193.984 157.375 194.048 157.375 194.112 157.631C194.176 157.951 194.176 158.271 194.112 158.527C193.92 159.167 193.6 159.807 193.088 160.255C192.448 160.959 191.744 161.535 190.912 161.919C190.528 162.111 191.168 163.007 191.296 163.135C191.616 163.647 192.128 164.031 192.704 164.287L192.832 164.351C193.088 164.415 192.832 164.351 192.96 164.415C193.088 164.479 193.088 164.479 193.216 164.543C193.216 164.479 193.344 164.607 193.216 164.543C193.216 164.607 193.088 164.415 193.024 164.351C192.96 164.287 192.576 163.775 192.64 163.775C192.64 163.967 192.64 164.095 192.576 164.287C192.448 164.543 192.256 164.799 192.064 164.991C191.744 165.311 191.296 165.567 190.784 165.567C189.952 165.567 189.12 165.247 188.352 164.799C188.16 164.671 187.968 164.543 187.84 164.415L187.52 164.159C187.648 164.287 187.328 164.031 187.264 163.903C187.008 163.711 186.24 163.007 185.984 163.583C185.728 164.159 186.688 165.055 187.008 165.311Z" fill="#3D3D3D"/>
<path d="M178.241 151.36C178.241 151.36 182.593 147.2 184.897 149.376C187.201 151.552 183.809 160.512 179.137 157.76" fill="white"/>
<path d="M179.137 152.64C179.841 151.936 180.673 151.36 181.569 150.848C182.209 150.464 182.913 150.208 183.617 150.08C183.745 150.08 183.937 150.08 184.065 150.08H184.321L184.449 150.144L184.705 150.208C184.833 150.272 184.641 150.144 184.641 150.144L184.769 150.208C184.641 150.08 185.025 150.336 184.769 150.208C184.897 150.336 184.513 149.888 184.705 150.144C184.769 150.208 184.385 149.76 184.577 150.016C184.513 149.952 184.321 149.632 184.449 149.824C184.577 150.016 184.193 149.504 184.385 149.696C184.577 149.888 184.321 149.824 184.385 149.632C184.385 149.76 184.449 149.888 184.449 150.016C184.449 149.824 184.513 150.272 184.449 150.016V150.272C184.449 150.592 184.449 150.912 184.449 151.232C184.449 151.296 184.449 151.36 184.449 151.488C184.449 151.552 184.449 151.68 184.449 151.488V151.616C184.449 151.808 184.385 152 184.321 152.128C184.001 153.472 183.361 154.752 182.401 155.776C182.145 156.032 181.825 156.288 181.505 156.48C181.249 156.672 180.929 156.736 180.673 156.864C180.353 156.928 179.969 156.928 179.649 156.864H179.713L179.585 156.8L179.265 156.736L178.945 156.608C179.073 156.672 178.817 156.544 178.817 156.544C178.689 156.48 178.369 156.288 178.177 156.416C177.985 156.544 178.049 156.864 178.049 157.056C178.241 157.824 178.689 158.464 179.329 158.912C180.097 159.424 180.929 159.616 181.825 159.616C182.529 159.552 183.233 159.232 183.809 158.784C185.025 157.696 185.857 156.288 186.241 154.752C186.753 153.152 186.625 151.36 185.857 149.888C185.345 148.8 184.385 147.968 183.233 147.584C182.401 147.392 181.505 147.456 180.673 147.84C179.393 148.352 178.177 149.12 177.153 150.144C176.705 150.528 177.281 151.488 177.537 151.808C177.729 152.064 178.561 153.152 179.009 152.768L179.137 152.64Z" fill="#3D3D3D"/>
<path d="M174.4 146.881C174.016 146.817 173.632 147.073 173.568 147.457V147.521C173.504 148.289 174.464 148.353 174.72 147.713C174.848 147.393 174.72 147.009 174.4 146.881Z" fill="#3D3D3D"/>
<path d="M167.552 157.247C168.576 158.079 169.984 158.271 171.2 157.759C172.224 157.247 173.056 156.479 173.632 155.519C173.952 155.007 173.824 154.367 173.376 154.047C172.992 153.727 172.224 153.471 171.84 153.983C171.584 154.367 171.264 154.687 170.944 155.007C170.88 155.071 170.816 155.135 170.688 155.263C170.56 155.391 170.496 155.455 170.432 155.519L170.304 155.647C170.24 155.711 170.112 155.775 169.984 155.839C169.856 155.839 169.792 155.903 169.728 155.967C169.728 155.903 169.92 155.903 169.792 155.967L169.6 156.031L169.28 156.095C169.216 156.095 169.216 156.095 169.152 156.095C169.216 156.031 169.344 156.095 169.152 156.095C168.96 156.095 168.96 156.095 168.832 156.095C168.704 156.095 168.896 156.095 168.896 156.095C168.832 156.095 168.768 156.031 168.768 156.031L168.64 155.967C168.512 155.903 168.896 156.095 168.704 155.967L168.64 155.903C168.256 155.583 167.488 155.327 167.104 155.839C166.912 156.223 167.04 156.863 167.552 157.247Z" fill="#3D3D3D"/>
</svg>
