<svg width="320" height="320" viewBox="0 0 320 320" fill="none" xmlns="http://www.w3.org/2000/svg">
<path d="M128.704 178.753C128.704 178.753 36.8004 205.569 55.4884 178.753C74.1764 151.937 96.3844 140.481 65.8564 130.305C35.3284 120.129 54.5924 81.2806 120.896 49.3446C187.2 17.4086 182.848 30.6566 166.656 49.3446C150.464 68.0326 178.688 51.3926 213.12 38.2726C247.552 25.1526 296.064 36.8006 248.256 77.3766C200.448 117.953 214.976 118.657 241.984 110.337C268.992 102.017 258.752 171.585 128.704 178.753Z" fill="#CECECE"/>
<path d="M127.552 178.305L127.168 178.433L126.72 178.561L126.4 178.625C126.016 178.753 126.528 178.625 126.336 178.625C124.928 179.009 123.52 179.393 122.112 179.777C117.376 181.057 112.64 182.273 107.904 183.361C101.824 184.769 95.7442 186.113 89.6002 187.265C83.6482 188.417 77.6322 189.249 71.5522 189.761C70.9122 189.825 70.2082 189.825 69.5042 189.889L68.4802 189.953C68.2882 189.953 68.5442 189.953 68.5442 189.953H68.2882H67.8402C66.6242 189.953 65.4082 189.953 64.1922 189.953L63.3602 189.889H63.2322H62.8482C62.2722 189.825 61.7602 189.761 61.2482 189.697L60.5442 189.569C60.2242 189.505 60.4802 189.569 60.4802 189.569L60.0962 189.505C59.6482 189.441 59.2002 189.313 58.7522 189.185C58.6242 189.185 58.5602 189.121 58.4322 189.121L57.8562 188.929L57.3442 188.673L57.1522 188.545C57.0242 188.481 57.2802 188.609 57.0242 188.481C56.7042 188.289 56.4482 188.097 56.1922 187.905C55.9362 187.777 55.7442 187.585 55.6162 187.329C54.7842 186.369 54.4642 185.089 54.7842 183.873C55.1042 181.889 56.1922 180.161 57.3442 178.561C60.4802 174.081 63.8722 169.857 67.3922 165.697C70.3362 162.241 73.2802 158.785 76.1602 155.201C78.2722 152.577 80.3842 149.761 81.7282 146.625C82.6882 144.321 83.1362 141.889 82.2402 139.521C81.1522 136.705 78.4642 134.849 75.9042 133.441C73.8562 132.353 71.7442 131.393 69.5682 130.561C67.8402 129.921 66.0482 129.345 64.3202 128.641C62.0802 127.681 59.9682 126.337 58.1762 124.609C54.9762 121.473 53.3122 117.057 53.5682 112.577C53.8882 106.881 56.5122 101.505 59.5842 96.8327C64.0642 89.9847 69.9522 84.0327 76.0962 78.7207C84.4802 71.6167 93.5042 65.3447 103.04 59.8407C114.368 53.1847 126.272 47.5527 138.24 42.2407C146.368 38.5927 154.624 35.0727 163.2 32.4487C164.544 32.0647 165.76 31.6807 167.168 31.3607C167.744 31.2327 168.32 31.1047 168.96 30.9767L169.792 30.8487L170.112 30.7847C170.304 30.7847 169.92 30.7847 170.24 30.7847C170.752 30.7207 171.2 30.6567 171.712 30.6567C171.904 30.6567 172.48 30.6567 171.968 30.6567H172.608C172.736 30.6567 173.248 30.6567 172.992 30.6567C172.736 30.6567 173.184 30.6567 173.312 30.7207C173.568 30.7207 173.76 30.7847 173.44 30.7207L173.888 30.8487C174.144 30.9127 173.632 30.7207 173.952 30.8487L174.336 30.9767C174.016 30.8487 174.336 30.9767 174.4 31.0407C174.464 31.1047 174.592 31.1687 174.656 31.2327C174.72 31.2967 174.592 31.1047 174.72 31.3607C174.784 31.4247 174.848 31.5527 174.912 31.6167C175.04 31.8087 175.104 31.9367 175.168 32.1287C175.104 32.0007 175.168 32.1927 175.232 32.3207C175.232 32.4487 175.296 32.5127 175.296 32.6407C175.296 32.8967 175.296 33.1527 175.296 33.3447C175.232 33.8567 175.168 34.4327 174.976 34.9447C174.016 38.0167 171.776 41.0247 169.728 43.5847C168.32 45.3767 166.848 47.1687 165.376 48.8967C164.16 50.2407 163.008 51.7127 161.984 53.1847C161.344 54.0167 160.832 55.0407 160.512 56.0647C160.064 58.2407 163.072 58.3047 164.544 58.1767C167.488 57.9207 170.432 56.7687 173.184 55.6807C183.36 51.7767 193.216 47.1687 203.264 43.0087C208.512 40.8327 213.76 38.5927 219.2 36.9287C223.168 35.7127 227.264 34.8167 231.424 34.2407C238.72 33.4087 246.272 33.2807 253.44 35.2007C258.56 36.5447 264.064 39.3607 265.984 44.6087C268.352 51.0727 264.256 58.0487 260.544 63.0407C256.96 67.6487 252.864 71.9367 248.448 75.7127C243.584 79.9367 238.72 84.0967 233.984 88.4487C230.464 91.6487 227.008 94.9767 223.808 98.4327C221.632 100.673 219.648 103.105 217.856 105.665C216.512 107.713 213.952 111.617 216.512 113.729C217.664 114.689 219.328 114.945 220.736 115.073C222.976 115.201 225.216 115.073 227.392 114.689C232.896 113.857 238.208 112.193 243.52 110.657C243.2 110.721 243.584 110.657 243.776 110.593L244.288 110.465C244.608 110.401 244.928 110.337 245.184 110.273C244.608 110.337 245.504 110.209 245.76 110.209H246.208C245.696 110.273 246.08 110.209 246.272 110.209H246.656C247.168 110.209 246.4 110.145 246.72 110.209L247.488 110.273C246.912 110.209 247.68 110.337 247.936 110.401C248.192 110.465 248.192 110.465 248 110.401L248.384 110.529C248.576 110.593 248.832 110.721 249.024 110.785C248.96 110.721 248.896 110.721 249.088 110.849L249.408 111.041C249.6 111.169 249.792 111.297 249.984 111.425L250.24 111.617C250.496 111.809 250.24 111.617 250.368 111.745C251.008 112.385 251.584 113.217 251.968 114.049C252.736 116.161 252.928 118.401 252.544 120.577C252.032 123.585 251.008 126.529 249.536 129.217C247.552 132.801 245.12 136.129 242.304 139.137C238.72 142.913 234.816 146.369 230.528 149.377C225.152 153.153 219.52 156.481 213.568 159.233C206.208 162.689 198.656 165.569 190.912 167.873C181.568 170.689 172.032 172.865 162.368 174.401C151.104 176.257 139.84 177.409 128.448 178.049C128.064 178.049 127.104 178.241 127.296 178.817C127.488 179.393 128.832 179.265 129.28 179.265C141.184 178.625 153.024 177.345 164.8 175.361C174.592 173.697 184.32 171.457 193.856 168.577C201.664 166.209 209.28 163.265 216.576 159.745C222.528 156.929 228.224 153.537 233.6 149.761C237.952 146.689 241.92 143.169 245.504 139.265C248.32 136.257 250.752 132.865 252.672 129.217C254.208 126.465 255.168 123.521 255.68 120.385C256.064 118.081 255.744 115.777 254.912 113.601C254.08 111.745 252.544 110.337 250.624 109.633C247.936 108.737 245.056 108.609 242.368 109.377C239.744 110.017 237.184 110.913 234.624 111.617C232.064 112.321 229.44 112.961 226.752 113.409L225.984 113.537H225.856L225.408 113.601C224.896 113.665 224.384 113.729 223.808 113.793L223.104 113.857C222.592 113.857 222.976 113.857 223.104 113.857H222.72C222.336 113.857 221.888 113.857 221.504 113.857C222.016 113.857 221.504 113.857 221.248 113.857L220.864 113.793C221.12 113.857 220.608 113.729 220.544 113.729L220.288 113.665C220.096 113.601 220.608 113.793 220.288 113.665L219.904 113.537C219.648 113.409 220.032 113.665 219.712 113.409C219.584 113.345 219.52 113.281 219.392 113.217C219.2 113.089 219.392 113.281 219.264 113.089C218.56 112.257 218.624 111.169 218.944 110.017C219.52 108.097 220.8 106.241 222.016 104.641C227.2 97.6647 233.856 91.7127 240.256 85.9527C249.152 77.9527 259.328 70.6567 265.856 60.4167C269.12 55.2967 271.744 48.5767 268.608 42.8167C265.728 37.5687 259.456 35.0727 253.952 33.8567C246.144 32.0647 237.952 32.1287 230.08 33.2807C225.728 33.8567 221.376 34.8167 217.216 36.0967C211.776 37.7607 206.464 40.0647 201.152 42.2407C191.04 46.4007 181.12 51.1367 170.88 55.0407C169.28 55.6167 167.68 56.2567 166.08 56.7047C165.76 56.8327 164.992 56.9607 164.48 57.0887C164.416 57.0887 164.032 57.1527 164.224 57.1527H164.032H163.712C163.584 57.1527 164.16 57.1527 163.776 57.1527C163.52 57.1527 164.16 57.2167 163.84 57.1527C163.776 57.1527 164.16 57.2167 163.904 57.1527C164.032 57.2807 164.096 57.1527 163.904 57.1527C163.968 57.2167 163.84 57.1527 163.84 57.0247C163.84 56.9607 163.776 56.8327 163.776 56.7687C163.84 55.8727 164.224 55.0407 164.736 54.3367C166.336 51.7127 168.512 49.4727 170.432 47.1687C171.84 45.4407 173.184 43.7767 174.464 41.9847C176.128 39.6167 178.176 36.7367 178.56 33.7927C178.88 31.0407 176.512 29.8887 174.144 29.6327C169.344 29.0567 164.224 30.7207 159.68 32.1287C150.72 35.0087 142.016 38.7847 133.44 42.6887C121.344 48.1927 109.376 53.9527 97.9842 60.8007C88.6402 66.3047 79.8082 72.6407 71.6162 79.8087C65.6002 85.1847 59.9042 91.1367 55.6162 97.9847C52.7362 102.657 50.3042 108.161 50.3042 113.729C50.3042 118.337 52.2882 122.689 55.7442 125.761C60.9922 130.497 68.2882 131.201 74.1762 134.849C76.4802 136.257 78.7842 138.241 79.3602 141.057C79.8722 143.617 78.8482 146.177 77.6322 148.417C75.8402 151.681 73.4082 154.625 71.0402 157.505C67.9042 161.281 64.7042 164.929 61.6322 168.769C59.9042 170.945 58.1762 173.057 56.5762 175.297C55.3602 176.833 54.2082 178.497 53.1842 180.161C52.3522 181.633 51.5202 183.361 51.5842 185.089C51.7122 188.417 55.2322 189.889 57.9842 190.529C62.8482 191.681 68.0962 191.425 73.0242 191.041C79.2962 190.529 85.5682 189.633 91.7762 188.417C97.9842 187.265 104.192 185.921 110.336 184.449C115.008 183.297 119.744 182.145 124.416 180.865C126.272 180.353 128.192 179.841 130.048 179.265C130.688 179.073 130.56 178.625 130.048 178.369C129.088 178.113 128.256 178.049 127.552 178.305Z" fill="#CECECE"/>
<path d="M241.088 59.2649C241.024 65.0889 237.44 70.2729 232 72.3849C226.816 74.3049 220.928 72.7049 217.472 68.3529C213.888 63.7449 213.504 57.4089 216.448 52.4169C219.328 47.6809 224.96 44.6729 230.528 45.8249C236.864 47.0409 241.024 52.9289 241.088 59.2649C241.088 60.4809 244.224 60.9929 244.224 59.5209C244.096 52.7369 239.744 46.7849 233.344 44.5449C226.88 42.2409 219.328 43.9049 214.848 49.2809C210.624 54.4649 210.112 61.6969 213.568 67.3929C217.344 73.2809 224.256 76.3529 231.168 75.0729C238.656 73.6649 244.096 67.2009 244.16 59.5849C244.224 58.2409 241.088 57.7289 241.088 59.2649Z" fill="#3D3D3D"/>
<path d="M208 59.7767C206.72 60.3527 205.568 61.0567 204.352 61.7607C203.072 62.5287 200.704 63.8727 200.576 65.5367C200.448 66.8807 201.856 67.9047 202.944 68.4167C204.416 68.9927 205.952 69.2487 207.488 69.2487C210.688 69.3127 213.952 69.1207 217.152 68.7367C224.512 67.9687 231.808 66.6247 238.912 64.7687C241.92 64.0007 244.928 63.1047 247.872 61.9527C249.664 61.2487 251.776 60.4167 253.12 58.9447C254.784 57.1527 253.184 54.4647 251.52 53.2487C249.408 51.7127 246.656 51.3927 244.16 51.6487L243.648 51.7127C242.24 51.9047 244.352 54.1447 245.312 54.0167C246.848 53.7607 248.448 53.8247 249.984 54.2087C250.048 54.2087 250.112 54.2727 250.176 54.2727C250.304 54.3367 250.432 54.4007 250.56 54.4007C250.816 54.5287 250.624 54.4647 250.688 54.4647C251.008 54.5927 250.624 54.4007 250.816 54.5287C251.008 54.6567 250.752 54.3367 250.88 54.5927C250.752 54.3367 250.88 54.5927 250.944 54.7207C250.816 54.5287 251.008 54.8487 251.008 54.8487C251.072 54.9767 251.072 55.1047 251.136 55.2327C251.2 55.5527 251.2 55.8727 251.136 56.1927C251.2 56.0647 251.136 56.2567 251.072 56.3847C251.008 56.5127 250.944 56.6407 250.816 56.7047C249.792 57.9847 248 58.6887 246.464 59.3287C243.904 60.3527 241.28 61.2487 238.592 61.9527C232.064 63.7447 225.472 65.0887 218.752 65.9207C215.68 66.3047 212.608 66.6247 209.536 66.7527C208 66.8167 206.464 66.8167 204.992 66.7527C204.352 66.6887 203.712 66.6247 203.072 66.4327C203.008 66.4327 202.688 66.3047 202.816 66.3687C202.944 66.4327 202.688 66.3047 202.624 66.3047L202.752 66.3687L202.88 66.4967C202.752 66.3687 203.2 66.8807 203.2 66.8167C203.264 66.8807 203.264 66.9447 203.264 67.0087C203.328 66.9447 203.328 67.1367 203.264 67.0087C203.2 67.0727 203.264 66.8167 203.328 66.6887C203.392 66.5607 203.264 66.7527 203.328 66.6247C203.392 66.4967 203.392 66.4967 203.456 66.4327C203.52 66.3047 203.648 66.1127 203.776 65.9847C204.352 65.3447 204.992 64.7687 205.76 64.3207C207.104 63.4247 208.512 62.6567 209.92 61.9527L210.176 61.8247C211.2 61.5047 208.896 59.3287 208 59.7767Z" fill="#3D3D3D"/>
<path d="M99.84 122.177C110.797 122.177 119.68 113.294 119.68 102.337C119.68 91.3797 110.797 82.4971 99.84 82.4971C88.8827 82.4971 80 91.3797 80 102.337C80 113.294 88.8827 122.177 99.84 122.177Z" fill="#3D3D3D"/>
<path d="M118.08 102.144C118.08 109.888 113.344 116.864 106.112 119.68C98.8801 122.304 90.8161 120.128 85.8881 114.176C80.8961 108.16 80.3841 99.3924 84.2881 92.7364C88.2561 86.1444 95.8721 82.6884 103.424 84.1604C110.848 85.6324 116.608 91.9044 117.824 99.3284C117.952 100.288 118.08 101.248 118.08 102.144C118.144 102.912 118.72 103.552 119.552 103.616C120.192 103.68 121.28 103.296 121.28 102.464C121.216 93.5044 115.648 85.5684 107.264 82.4964C98.7521 79.4244 89.2801 81.9844 83.3921 88.8324C77.6961 95.6804 76.9281 105.408 81.5361 113.088C86.2721 120.768 95.2321 124.736 104.064 123.072C112.768 121.408 119.488 114.496 121.088 105.792C121.28 104.704 121.344 103.616 121.344 102.528C121.28 101.76 120.704 101.12 119.872 101.056C119.104 100.928 118.08 101.376 118.08 102.144Z" fill="#3D3D3D"/>
<path d="M107.456 84.9291C105.792 85.9531 104.64 87.6171 104.256 89.5371C104 90.6891 103.872 91.9051 103.872 93.0571C103.872 94.1451 103.744 95.3611 104.128 96.3851C104.832 98.1771 106.944 98.5611 108.608 98.7531C109.824 98.8811 110.976 98.8811 112.192 98.8171C113.344 98.8171 114.56 98.4971 115.584 97.9851C116.48 97.3451 117.184 96.5131 117.696 95.5531C118.4 94.3371 119.104 93.1211 119.808 91.8411C119.936 91.6491 118.336 91.5851 118.208 91.5851C117.824 91.5851 116.864 91.5211 116.608 91.9691C115.968 93.1211 115.328 94.2731 114.688 95.3611C114.176 96.3211 113.472 97.1531 112.64 97.7931C111.936 98.1771 111.168 98.3051 110.4 98.1131C109.504 98.0491 108.608 97.7291 107.968 97.0891C107.136 96.2571 107.072 95.1051 107.136 94.0171C107.136 92.7371 107.2 91.5211 107.392 90.2411C107.712 88.1291 108.672 86.0171 110.656 84.9291C110.976 84.7371 109.568 84.6091 109.504 84.6091C108.736 84.5451 108.032 84.6731 107.456 84.9291Z" fill="white"/>
<path d="M108.992 109.377C108.992 109.633 108.928 109.889 108.864 110.145C108.8 110.273 108.736 110.401 108.672 110.593C108.544 110.849 108.8 110.465 108.608 110.657C108.544 110.721 108.544 110.785 108.48 110.913C108.416 111.041 108.288 111.169 108.224 111.297L108.032 111.489L107.904 111.617C107.648 111.809 108.16 111.489 107.904 111.617L107.776 111.681C107.52 111.809 108.096 111.553 107.776 111.681C107.712 111.681 107.648 111.745 107.584 111.745C107.84 111.617 107.84 111.681 107.648 111.745C107.456 111.809 107.52 111.681 107.712 111.745C107.648 111.745 107.52 111.745 107.456 111.745C107.136 111.745 107.52 111.745 107.52 111.745H107.264C107.072 111.681 107.136 111.617 107.264 111.745C107.2 111.681 107.072 111.681 107.008 111.681L106.752 111.553C106.816 111.553 106.944 111.681 106.816 111.553C106.688 111.425 106.56 111.425 106.432 111.297L106.24 111.169C106.112 111.041 106.368 111.361 106.176 111.105C106.048 110.977 105.92 110.849 105.792 110.721C105.728 110.593 105.6 110.465 105.536 110.337C105.536 110.273 105.472 110.209 105.472 110.209C105.536 110.337 105.408 110.081 105.408 110.081C105.28 109.761 105.216 109.441 105.216 109.121C105.216 109.057 105.216 108.929 105.216 108.865V108.801C105.216 108.673 105.28 108.481 105.28 108.353C105.344 108.225 105.344 108.033 105.408 107.905C105.472 107.841 105.472 107.713 105.536 107.649C105.6 107.457 105.472 107.713 105.6 107.585C105.728 107.457 105.728 107.329 105.856 107.201L105.984 107.009C106.048 106.945 106.176 106.817 105.984 107.009C106.112 106.881 106.24 106.817 106.368 106.753C106.496 106.689 106.304 106.817 106.304 106.817C106.304 106.817 106.56 106.753 106.624 106.625C106.688 106.497 106.24 106.753 106.496 106.689C106.56 106.689 106.688 106.625 106.752 106.625C106.752 106.625 106.368 106.689 106.624 106.689C106.688 106.689 107.008 106.625 106.688 106.689C106.368 106.753 106.688 106.689 106.752 106.689H106.944H107.136L107.008 106.625C107.072 106.561 107.456 106.753 107.52 106.817C107.264 106.689 107.456 106.817 107.52 106.817C107.584 106.817 107.712 106.945 107.776 107.009L107.904 107.137L108.032 107.265C107.968 107.201 107.968 107.201 108.032 107.265C108.096 107.329 108.224 107.457 108.352 107.585C108.8 107.905 108.992 108.609 108.992 109.377C108.992 109.569 109.376 109.761 109.568 109.825C109.952 109.953 110.336 109.953 110.72 109.889C111.296 109.761 112.128 109.505 112.128 108.737C112.064 106.945 110.848 105.409 109.12 104.897C106.944 104.193 104.512 104.833 102.976 106.561C101.824 107.905 101.696 109.889 102.656 111.361C103.744 113.089 106.048 113.665 107.968 113.281C110.208 112.833 112.128 111.169 112.192 108.737C112.192 108.481 111.808 108.289 111.616 108.225C111.232 108.097 110.848 108.097 110.464 108.161C109.824 108.353 109.056 108.609 108.992 109.377Z" fill="white"/>
<path d="M85.1202 91.1373C87.6802 90.7533 89.6642 92.6733 91.0082 94.5933C92.6722 96.8973 94.0802 99.5213 93.4402 102.401C92.8002 105.281 91.0722 107.649 89.7922 110.273C89.0882 111.681 88.7682 113.153 89.4722 114.625C90.0482 115.841 91.0722 116.801 92.3522 117.249C93.6322 117.761 95.0402 117.761 96.3842 118.145C96.8322 118.273 97.4722 118.401 97.7282 118.849C97.9202 119.489 98.0482 120.129 97.9842 120.833C98.0482 121.601 98.4962 122.369 99.2002 122.753C99.5202 123.009 99.9682 122.945 100.224 122.625C100.352 122.497 100.416 122.305 100.352 122.113C100.288 120.449 100.032 118.785 99.0082 117.377C98.0482 116.225 96.6402 115.457 95.1042 115.265C93.9522 115.073 92.6082 115.073 91.5842 114.433C91.4562 114.369 91.3282 114.241 91.4562 114.369C91.3922 114.113 91.4562 113.921 91.5202 113.665C91.7762 112.833 92.1602 112.065 92.6722 111.297C94.2082 108.545 95.9362 105.729 96.0002 102.465C96.0642 99.0733 94.2722 95.8733 92.3522 93.1853C90.4322 90.4973 87.5522 87.7453 83.9682 88.2573C82.5602 88.3853 83.9042 91.2653 85.1202 91.1373Z" fill="white"/>
<path d="M225.472 128.769V131.585C225.536 131.905 225.6 132.225 225.792 132.545C225.984 132.929 226.24 133.249 226.496 133.569L226.752 133.825C226.88 133.953 227.008 134.017 227.2 134.017C227.392 134.017 227.456 133.889 227.456 133.633V130.817C227.392 130.497 227.328 130.177 227.136 129.857C226.944 129.473 226.688 129.153 226.432 128.833L226.176 128.577C226.048 128.449 225.92 128.385 225.728 128.385C225.536 128.385 225.472 128.577 225.472 128.769Z" fill="#3D3D3D"/>
<path d="M225.024 136.833V139.969C225.088 140.289 225.28 140.609 225.536 140.801C225.856 141.057 226.24 141.185 226.688 141.249C227.072 141.313 227.392 141.249 227.712 141.057C227.968 140.929 228.096 140.609 228.096 140.353V137.217C228.032 136.897 227.84 136.577 227.584 136.385C227.264 136.129 226.88 136.001 226.432 135.937C226.048 135.873 225.664 135.937 225.408 136.129C225.152 136.257 224.96 136.513 225.024 136.833Z" fill="#3D3D3D"/>
<path d="M229.44 136H230.976C231.104 136 231.296 136 231.424 135.936C231.68 135.872 231.872 135.616 231.872 135.296C231.872 135.168 231.872 134.976 231.808 134.848C231.616 134.464 231.36 134.208 231.04 133.952C230.72 133.76 230.336 133.632 229.952 133.568H228.416C228.288 133.568 228.096 133.568 227.968 133.632C227.84 133.696 227.712 133.76 227.648 133.888C227.584 134.016 227.52 134.144 227.52 134.272C227.52 134.4 227.52 134.592 227.584 134.72C227.776 135.104 228.032 135.36 228.352 135.616C228.672 135.872 229.056 136 229.44 136Z" fill="#3D3D3D"/>
<path d="M223.424 133.953H221.184C220.864 133.953 220.608 134.017 220.352 134.209C220.224 134.401 220.224 134.657 220.352 134.849C220.544 135.105 220.864 135.361 221.184 135.489C221.568 135.617 221.952 135.745 222.4 135.745H224.64C224.96 135.745 225.216 135.681 225.472 135.489C225.6 135.297 225.6 135.041 225.472 134.849C225.28 134.593 224.96 134.337 224.64 134.273C224.256 134.081 223.872 134.017 223.424 133.953Z" fill="#3D3D3D"/>
<path d="M260.032 87.4885V90.3045C260.096 90.6245 260.16 90.9445 260.352 91.2645C260.544 91.6485 260.8 91.9685 261.056 92.2885L261.312 92.5445C261.44 92.6725 261.568 92.7365 261.76 92.7365C261.952 92.7365 262.016 92.6085 262.016 92.3525V89.5365C262.016 89.2165 261.888 88.8965 261.696 88.5765C261.504 88.1925 261.248 87.8725 260.992 87.5525L260.736 87.2965C260.608 87.1685 260.48 87.1045 260.288 87.1045C260.096 87.1045 260.032 87.2965 260.032 87.4885Z" fill="#3D3D3D"/>
<path d="M259.52 95.5528V98.6888C259.584 99.0088 259.776 99.3288 260.032 99.5208C260.352 99.7768 260.736 99.9048 261.184 99.9688C261.568 100.033 261.888 99.9688 262.208 99.7768C262.464 99.6488 262.592 99.3288 262.592 99.0728V95.9368C262.528 95.6168 262.336 95.2968 262.08 95.1048C261.76 94.8488 261.376 94.7208 260.928 94.6568C260.544 94.5928 260.224 94.6568 259.904 94.8488C259.712 94.9768 259.52 95.2328 259.52 95.5528Z" fill="#3D3D3D"/>
<path d="M264 94.7205H265.536C265.664 94.7205 265.856 94.7205 265.984 94.6565C266.112 94.5925 266.24 94.5285 266.304 94.4005C266.368 94.2725 266.432 94.1445 266.432 94.0165C266.432 93.8885 266.432 93.6965 266.368 93.5685C265.984 92.8645 265.28 92.3525 264.448 92.3525H262.912C262.784 92.3525 262.592 92.3525 262.464 92.4165C262.336 92.4805 262.208 92.5445 262.144 92.6725C262.08 92.8005 262.016 92.9285 262.016 93.0565C262.016 93.1845 262.016 93.3765 262.08 93.5045C262.272 93.8885 262.528 94.1445 262.848 94.4005C263.168 94.5925 263.552 94.7205 264 94.7205Z" fill="#3D3D3D"/>
<path d="M257.984 92.6729H255.744C255.424 92.6729 255.168 92.7368 254.912 92.9288C254.784 93.1208 254.784 93.3768 254.912 93.5688C255.104 93.8248 255.424 94.0808 255.744 94.2088C256.128 94.4008 256.512 94.4649 256.96 94.4649H259.2C259.52 94.4649 259.776 94.4008 260.032 94.2088C260.16 94.0168 260.16 93.7608 260.032 93.5688C259.84 93.3128 259.52 93.0568 259.2 92.9288C258.816 92.8008 258.432 92.6729 257.984 92.6729Z" fill="#3D3D3D"/>
<path d="M88.4482 161.153V163.969C88.4482 164.289 88.5762 164.609 88.7682 164.929C88.9602 165.313 89.2162 165.633 89.4722 165.953L89.7282 166.209C89.8562 166.337 89.9842 166.401 90.1762 166.401C90.3682 166.401 90.4322 166.273 90.4322 166.017V163.201C90.3682 162.881 90.3042 162.561 90.1122 162.241C89.9202 161.857 89.6642 161.537 89.4082 161.217L89.1522 160.961C89.0242 160.833 88.8962 160.769 88.7042 160.769C88.5122 160.833 88.4482 160.961 88.4482 161.153Z" fill="#3D3D3D"/>
<path d="M87.936 169.217V172.353C88 172.673 88.192 172.993 88.448 173.185C88.768 173.441 89.152 173.569 89.6 173.633C89.984 173.697 90.304 173.633 90.624 173.441C90.88 173.313 91.008 172.993 91.008 172.737V169.601C90.944 169.281 90.752 168.961 90.496 168.769C90.176 168.513 89.792 168.385 89.344 168.321C88.96 168.257 88.576 168.321 88.32 168.513C88.064 168.641 87.936 168.897 87.936 169.217Z" fill="#3D3D3D"/>
<path d="M92.4161 168.385H93.9521C94.0801 168.385 94.2721 168.385 94.4001 168.321C94.5281 168.257 94.6561 168.193 94.7201 168.065C94.7841 167.937 94.8481 167.809 94.8481 167.681C94.8481 167.553 94.8481 167.361 94.7841 167.233C94.5921 166.849 94.3361 166.593 94.0161 166.337C93.6961 166.145 93.3121 166.017 92.9281 165.953H91.3921C91.2641 165.953 91.0721 165.953 90.9441 166.017C90.8161 166.081 90.6881 166.145 90.6241 166.273C90.5601 166.401 90.4961 166.529 90.4961 166.657C90.4961 166.785 90.4961 166.977 90.5601 167.105C90.7521 167.489 91.0081 167.745 91.3281 168.001C91.6481 168.193 92.0321 168.321 92.4161 168.385Z" fill="#3D3D3D"/>
<path d="M86.3999 166.337H84.1599C83.8399 166.337 83.5839 166.401 83.3279 166.593C83.1999 166.785 83.1999 167.041 83.3279 167.233C83.5199 167.489 83.8399 167.745 84.1599 167.873C84.5439 168.001 84.9279 168.129 85.3759 168.129H87.6159C87.9359 168.129 88.1919 168.065 88.4479 167.873C88.5759 167.681 88.5759 167.425 88.4479 167.233C88.2559 166.977 87.9359 166.721 87.6159 166.593C87.2319 166.465 86.8479 166.401 86.3999 166.337Z" fill="#3D3D3D"/>
<path d="M131.008 56.9605V59.7765C131.008 60.0965 131.136 60.4165 131.328 60.7365C131.52 61.1205 131.776 61.4405 132.032 61.7605L132.288 62.0165C132.416 62.1445 132.544 62.2085 132.736 62.2085C132.928 62.2085 132.992 62.0805 132.992 61.8245V59.0085C132.928 58.6885 132.864 58.3685 132.672 58.0485C132.48 57.6645 132.224 57.3445 131.968 57.0245L131.712 56.8325C131.584 56.7045 131.456 56.6405 131.264 56.6405C131.072 56.5765 131.008 56.7685 131.008 56.9605Z" fill="#3D3D3D"/>
<path d="M130.496 65.0245V68.1605C130.56 68.4805 130.752 68.8005 131.008 68.9925C131.328 69.2485 131.712 69.3765 132.16 69.4405C132.544 69.5045 132.864 69.4405 133.184 69.2485C133.44 69.1205 133.568 68.8005 133.568 68.5445V65.4085C133.504 65.0885 133.312 64.7685 133.056 64.5765C132.736 64.3205 132.352 64.1925 131.904 64.1285C131.52 64.0645 131.136 64.1285 130.88 64.3205C130.688 64.4485 130.496 64.7045 130.496 65.0245Z" fill="#3D3D3D"/>
<path d="M134.976 64.1933H136.512C136.64 64.1933 136.832 64.1933 136.96 64.0653C137.088 64.0013 137.216 63.9373 137.28 63.8093C137.344 63.6813 137.408 63.5533 137.408 63.3613C137.408 63.2333 137.408 63.0413 137.344 62.9133C137.152 62.5293 136.896 62.2733 136.576 62.0813C136.256 61.8893 135.872 61.7613 135.488 61.6973H133.952C133.824 61.6973 133.632 61.6973 133.504 61.8253C133.376 61.8893 133.248 61.9533 133.184 62.0813C133.12 62.2093 133.056 62.3373 133.056 62.5293C133.056 62.6573 133.056 62.8493 133.12 62.9773C133.312 63.3613 133.568 63.6173 133.888 63.8733C134.208 64.0653 134.592 64.1933 134.976 64.1933Z" fill="#3D3D3D"/>
<path d="M128.96 62.1445H126.72C126.4 62.1445 126.144 62.2085 125.888 62.4005C125.76 62.5925 125.76 62.8485 125.888 63.0405C126.08 63.2965 126.4 63.5525 126.72 63.6805C127.104 63.8085 127.488 63.9365 127.936 63.9365H130.176C130.496 63.9365 130.752 63.8725 131.008 63.6805C131.136 63.4885 131.136 63.2325 131.008 63.0405C130.816 62.7845 130.496 62.5285 130.176 62.4005C129.792 62.2725 129.408 62.1445 128.96 62.1445Z" fill="#3D3D3D"/>
<path d="M60.7361 64.1929C63.9526 64.1929 66.5601 61.5854 66.5601 58.3689C66.5601 55.1524 63.9526 52.5449 60.7361 52.5449C57.5196 52.5449 54.9121 55.1524 54.9121 58.3689C54.9121 61.5854 57.5196 64.1929 60.7361 64.1929Z" fill="#CECECE"/>
<path d="M133.12 159.296C124.224 166.784 117.056 176.064 112 186.56C117.504 187.584 132.608 188.352 138.176 188.864" fill="white"/>
<path d="M131.904 158.208C124.992 164.032 119.104 171.008 114.432 178.752C113.088 180.928 111.872 183.232 110.784 185.536C110.592 185.856 112.704 187.584 113.088 187.712C116.288 188.288 119.552 188.544 122.816 188.8C126.656 189.12 130.496 189.376 134.4 189.632C136.064 189.76 137.664 189.888 139.328 190.016C139.584 190.016 138.688 189.184 138.624 189.12C138.304 188.8 137.6 187.968 137.088 187.904C129.984 187.264 122.88 186.944 115.776 186.24C114.176 186.048 112.512 185.92 110.912 185.6L113.216 187.776C117.12 179.648 122.368 172.16 128.704 165.696C130.496 163.904 132.352 162.112 134.336 160.512C134.4 160.32 132.224 158.016 131.904 158.208Z" fill="#3D3D3D"/>
<path d="M186.496 159.296L201.792 183.744C202.368 184.704 203.008 185.984 202.304 186.88C201.92 187.264 201.472 187.52 200.96 187.648C198.784 188.352 186.688 190.336 184.512 191.04" fill="white"/>
<path d="M185.024 159.679L199.488 182.784C200.128 183.615 200.64 184.511 200.96 185.471C201.152 186.239 200.96 186.559 200.256 186.751C199.552 186.943 198.784 187.135 198.016 187.264L197.568 187.328C197.888 187.264 197.504 187.328 197.44 187.328L196.544 187.519L194.624 187.904L190.72 188.608C188.416 188.992 186.112 189.439 183.808 190.079C183.296 190.271 182.528 190.719 182.848 191.359C183.168 191.999 184.32 191.936 184.896 191.808C186.816 191.296 188.8 190.847 190.784 190.591C193.472 190.079 196.224 189.567 198.912 188.991C201.216 188.543 205.056 187.839 203.904 184.575C203.52 183.615 203.008 182.72 202.368 181.888L200.384 178.688L196.544 172.479L187.968 158.783C187.392 157.823 184.256 158.527 185.024 159.679Z" fill="#3D3D3D"/>
<path d="M155.712 164.671C155.584 176.383 156.224 188.095 157.696 199.679C158.144 202.943 158.592 206.207 159.168 209.471C159.296 210.111 160.192 210.559 160.704 210.751C160.96 210.815 162.176 211.199 162.048 210.559C160.128 199.039 158.976 187.327 158.72 175.679C158.656 172.351 158.592 169.087 158.656 165.759C158.656 164.863 155.776 163.647 155.712 164.671Z" fill="#CECECE"/>
<path d="M127.484 238.848C127.484 238.848 130.944 101.375 160.192 96.8312C189.44 92.2872 189.5 240 189.5 240L127.484 238.848Z" fill="white"/>
<path d="M128.96 218.815C128.96 217.663 129.024 216.575 129.088 215.423C129.216 212.415 129.408 209.343 129.6 206.271C129.856 201.791 130.176 197.247 130.56 192.767C131.008 187.263 131.584 181.823 132.16 176.319C132.864 170.367 133.632 164.415 134.528 158.463C135.488 152.447 136.512 146.431 137.792 140.479C138.432 137.599 139.072 134.719 139.84 131.903C140.224 130.559 140.544 129.215 140.928 127.807C141.12 127.167 141.312 126.463 141.504 125.823C141.568 125.503 141.696 125.183 141.824 124.863C141.888 124.735 141.888 124.543 141.952 124.415L142.08 124.095C143.552 119.359 145.344 114.815 147.584 110.399C148.096 109.439 148.608 108.479 149.184 107.519L149.376 107.199C149.504 106.943 149.248 107.391 149.376 107.135C149.504 106.879 149.632 106.687 149.824 106.495C150.08 106.111 150.4 105.663 150.656 105.279C151.232 104.511 151.808 103.807 152.384 103.103C152.704 102.783 152.96 102.399 153.28 102.079L153.408 101.951C153.216 102.143 153.472 101.887 153.536 101.823L154.048 101.375C154.624 100.799 155.264 100.351 155.968 99.8393C156.096 99.7113 156.608 99.4553 156.16 99.7113C156.352 99.5833 156.544 99.5193 156.672 99.3913C156.992 99.1993 157.376 99.0073 157.696 98.8793L158.144 98.6873C158.336 98.6233 158.912 98.4313 158.4 98.6233C158.784 98.4953 159.104 98.4313 159.488 98.3033C159.872 98.1753 160.192 98.1753 160.576 98.1113C160.96 98.0473 160.448 98.1113 160.512 98.1113C160.576 98.1113 160.64 98.1113 160.768 98.1113H161.28C161.6 98.1113 161.92 98.1113 162.304 98.1753H162.56C162.816 98.1753 162.176 98.1113 162.496 98.1753L163.008 98.2393C163.328 98.3033 163.648 98.3673 163.968 98.4953L164.352 98.6233C164.416 98.6233 164.672 98.7513 164.416 98.6233C164.16 98.4953 164.48 98.6233 164.544 98.6873C165.184 98.9433 165.76 99.3273 166.336 99.7113C166.464 99.7753 166.592 99.9033 166.72 99.9673L166.912 100.095C166.72 99.9033 166.848 100.031 166.912 100.095C167.104 100.287 167.488 100.607 167.744 100.799C168.32 101.311 168.832 101.887 169.344 102.527C169.6 102.847 169.856 103.167 170.112 103.487C170.24 103.615 170.368 103.807 170.496 103.999C170.624 104.191 170.624 104.191 170.688 104.255L170.624 104.127C170.688 104.191 170.688 104.255 170.752 104.319C171.776 105.919 172.672 107.519 173.504 109.247C174.4 111.167 175.168 113.151 175.936 115.135C176.32 116.223 176.704 117.375 177.088 118.463C177.28 119.039 177.472 119.615 177.6 120.191C177.792 120.895 177.856 121.023 178.048 121.727C179.456 126.911 180.608 132.095 181.568 137.407C182.592 143.103 183.424 148.863 184.128 154.623C184.832 160.383 185.408 166.207 185.92 172.031C186.368 177.535 186.752 183.039 187.072 188.543C187.328 193.279 187.52 198.079 187.712 202.815C187.84 206.399 187.904 209.919 188.032 213.503C188.096 215.487 188.096 217.471 188.096 219.391V220.159L189.888 218.431L183.68 218.303L168.896 218.047L150.912 217.727L135.424 217.407C132.928 217.343 130.368 217.215 127.872 217.279H127.744C126.912 217.279 126.144 217.855 125.952 218.623C125.888 219.327 126.4 219.967 127.104 220.031C127.168 220.031 127.168 220.031 127.232 220.031L133.44 220.159L148.224 220.415L166.208 220.735L181.696 221.055C184.192 221.119 186.752 221.247 189.248 221.183H189.376C190.336 221.247 191.104 220.479 191.168 219.519V219.455C191.168 218.367 191.168 217.343 191.168 216.255C191.168 213.375 191.104 210.431 190.976 207.551C190.848 203.263 190.72 198.911 190.528 194.623C190.272 189.375 190.016 184.127 189.632 178.879C189.184 173.055 188.672 167.295 188.096 161.535C187.456 155.647 186.752 149.759 185.856 143.871C185.024 138.303 184 132.735 182.72 127.231C181.632 122.303 180.224 117.503 178.56 112.767C177.216 108.927 175.36 105.279 173.12 101.887C171.264 99.3273 168.96 97.0233 166.016 95.8073C163.072 94.7193 159.744 94.9113 156.928 96.2553C153.6 97.7273 150.848 100.415 148.672 103.359C146.048 107.071 143.936 111.039 142.272 115.263C140.288 120.383 138.56 125.567 137.216 130.879C135.68 136.703 134.4 142.527 133.312 148.479C132.16 154.559 131.264 160.639 130.432 166.783C129.664 172.607 128.96 178.431 128.448 184.255C127.936 189.375 127.552 194.495 127.168 199.615C126.912 203.519 126.656 207.359 126.464 211.263C126.336 213.439 126.272 215.551 126.208 217.727C126.208 217.983 126.208 218.303 126.208 218.559C126.144 219.263 126.656 219.903 127.36 219.967C127.424 219.967 127.424 219.967 127.488 219.967C127.872 220.159 128.896 219.583 128.96 218.815Z" fill="#3D3D3D"/>
<path d="M161.088 148.736C167.662 148.736 172.992 143.492 172.992 137.024C172.992 130.555 167.662 125.312 161.088 125.312C154.513 125.312 149.184 130.555 149.184 137.024C149.184 143.492 154.513 148.736 161.088 148.736Z" fill="#3D3D3D"/>
<path d="M171.456 136.576C171.456 141.056 168.704 145.024 164.544 146.752C160.512 148.416 155.904 147.328 153.024 144.064C150.208 140.608 149.824 135.808 152.064 131.968C154.368 128.064 158.784 126.016 163.264 126.784C168.064 127.616 171.456 131.776 171.456 136.576C171.52 137.344 172.096 138.048 172.8 138.176C173.312 138.304 174.464 138.24 174.464 137.472C174.336 131.84 170.752 126.848 165.44 124.928C160.384 123.008 154.304 124.352 150.72 128.448C147.072 132.608 146.56 138.624 149.44 143.296C152.448 148.096 158.016 150.656 163.648 149.824C169.728 148.864 174.272 143.68 174.464 137.472C174.4 136.704 173.824 136 173.12 135.872C172.544 135.68 171.52 135.744 171.456 136.576Z" fill="#3D3D3D"/>
<path d="M189.312 238.143H129.728C128.96 238.143 128.064 238.079 127.296 238.143H127.168L128.96 239.295V218.815L127.552 219.903H187.136C187.904 219.903 188.736 219.967 189.568 219.903H189.696L187.904 218.751V239.231C187.904 240.575 191.04 240.959 191.04 239.295V218.815C191.04 218.047 189.824 217.663 189.248 217.663H134.848C132.352 217.663 129.792 217.599 127.296 217.663H127.168C126.464 217.663 125.824 217.983 125.824 218.751V239.231C125.824 239.999 127.04 240.383 127.616 240.383H182.016C184.512 240.383 187.072 240.447 189.568 240.383H189.696C190.336 240.383 191.168 240.063 191.04 239.295C190.912 238.527 189.952 238.143 189.312 238.143Z" fill="#3D3D3D"/>
<path d="M133.184 250.815C131.456 258.047 130.752 265.535 130.944 272.959C131.008 274.751 131.392 276.287 132.864 277.439C134.144 278.399 135.744 278.847 137.408 278.719C140.352 278.527 142.976 276.479 144.704 274.239C146.88 271.295 148.16 267.775 150.656 265.087L148.096 263.487L151.232 281.791C151.616 283.967 152 286.207 153.216 288.127C154.432 290.047 156.672 291.647 159.04 291.135C161.536 290.623 163.008 288.319 163.584 285.951C163.904 284.607 164.096 283.263 164.352 281.919C164.608 280.575 164.992 279.231 165.44 277.887C166.272 275.135 167.36 272.575 168.832 270.143C168.96 269.887 169.216 269.759 169.344 269.503C169.408 269.439 169.728 269.439 169.408 269.375L169.472 269.439C169.792 269.759 170.112 270.207 170.304 270.591C170.88 271.551 171.456 272.447 171.968 273.407C174.336 277.631 176.96 282.303 181.888 283.903C182.464 284.095 183.168 284.095 183.168 283.327C182.656 272.127 180.096 261.183 175.552 250.943C175.232 250.175 174.592 249.663 173.824 249.471C173.184 249.407 172.672 249.791 172.928 250.495C177.344 260.543 179.904 271.295 180.352 282.239L181.632 281.663C177.984 280.447 176.192 276.735 174.336 273.535C173.312 271.679 172.224 269.503 170.624 268.031C169.728 267.199 168.256 266.431 167.104 267.135C166.08 267.775 165.504 269.247 164.992 270.335C163.776 272.767 162.816 275.263 162.112 277.887C161.728 279.167 161.472 280.511 161.216 281.791C161.024 283.071 160.704 284.351 160.32 285.567C159.68 287.103 157.76 289.343 155.904 288.447C155.648 288.319 155.456 288.127 155.328 287.871C155.072 287.551 154.88 287.167 154.752 286.847C154.368 285.951 154.112 285.055 153.92 284.095C152.704 277.631 151.68 271.039 150.592 264.575C150.464 263.743 148.928 262.015 148.032 262.975C144.384 267.007 143.104 273.407 137.728 275.711C136.64 276.223 135.424 276.351 134.272 276.095C133.888 275.967 133.696 275.967 133.568 275.583C133.44 274.815 133.376 274.047 133.44 273.279C133.376 269.951 133.504 266.687 133.824 263.423C134.208 259.775 134.784 256.063 135.68 252.479C136.192 251.263 133.504 249.471 133.184 250.815Z" fill="#3D3D3D"/>
<path d="M187.904 246.656C190.08 251.072 192.064 255.616 193.792 260.288C194.112 261.056 194.88 261.504 195.712 261.504C196.352 261.44 197.12 260.928 196.864 260.16C195.008 255.296 192.96 250.56 190.656 245.888C189.952 244.416 187.008 244.864 187.904 246.656Z" fill="#3D3D3D"/>
<path d="M118.656 249.535C115.584 251.711 113.152 254.72 111.744 258.24C111.488 258.88 114.56 259.776 114.88 258.88C116.224 255.488 118.592 252.543 121.6 250.495C122.112 250.175 120.832 249.6 120.64 249.6C120.064 249.344 119.168 249.151 118.656 249.535Z" fill="#3D3D3D"/>
<path d="M145.792 111.231C146.944 113.087 149.12 113.855 151.168 114.239C153.6 114.623 156.032 114.879 158.528 115.007C163.904 115.327 169.28 114.879 174.208 112.575C174.656 112.383 175.744 111.807 175.744 111.295C175.744 110.783 174.656 111.231 174.464 111.295C170.112 113.343 165.12 113.471 160.384 113.151C158.08 113.023 155.776 112.831 153.472 112.447C151.552 112.063 149.632 111.423 148.544 109.695C148.16 108.991 145.408 110.591 145.792 111.231Z" fill="#3D3D3D"/>
<path d="M134.784 167.808C139.328 167.936 143.808 167.872 148.352 167.744C148.864 167.744 148.224 166.656 148.096 166.528C147.84 166.144 147.2 165.12 146.624 165.184C142.08 165.376 137.6 165.376 133.056 165.248C132.544 165.248 133.184 166.336 133.312 166.464C133.632 166.848 134.208 167.744 134.784 167.808Z" fill="#3D3D3D"/>
<path d="M154.688 167.743H157.824C158.08 167.743 158.336 167.551 158.4 167.295C158.4 166.975 158.336 166.655 158.144 166.399C157.888 166.079 157.568 165.759 157.248 165.567L156.864 165.439C156.672 165.375 156.416 165.311 156.224 165.375H153.088C152.832 165.375 152.576 165.567 152.512 165.823C152.512 166.143 152.576 166.463 152.768 166.719C153.024 167.039 153.344 167.359 153.664 167.551L154.048 167.679C154.24 167.679 154.432 167.743 154.688 167.743Z" fill="#3D3D3D"/>
<path d="M158.464 169.599V174.335C158.528 175.103 159.04 175.743 159.744 175.999C160.064 176.191 160.384 176.255 160.768 176.191C161.024 176.127 161.28 175.999 161.28 175.679V170.943C161.216 170.175 160.704 169.599 160 169.343C159.68 169.151 159.36 169.087 158.976 169.151C158.72 169.151 158.464 169.343 158.464 169.599Z" fill="#3D3D3D"/>
<path d="M158.272 180.735V184.511C158.272 184.895 158.4 185.215 158.656 185.471C158.976 185.727 159.36 185.855 159.744 185.855C160.192 185.855 160.576 185.663 160.896 185.407C161.216 185.151 161.408 184.831 161.408 184.447V180.671C161.408 180.287 161.28 179.967 161.024 179.711C160.704 179.455 160.32 179.327 159.936 179.327C159.488 179.327 159.104 179.519 158.784 179.775C158.464 180.031 158.272 180.351 158.272 180.735Z" fill="#3D3D3D"/>
<path d="M158.336 193.215V196.031C158.4 196.351 158.528 196.607 158.784 196.799C159.104 197.055 159.488 197.311 159.872 197.375C160.192 197.503 160.576 197.503 160.896 197.439C161.152 197.375 161.28 197.183 161.28 196.927V194.111C161.216 193.791 161.088 193.535 160.832 193.343C160.512 193.087 160.128 192.895 159.744 192.767C159.424 192.639 159.04 192.639 158.72 192.703C158.528 192.767 158.336 192.959 158.336 193.215Z" fill="#3D3D3D"/>
<path d="M158.72 205.632V209.728C158.72 210.112 158.848 210.56 159.04 210.88C159.296 211.2 159.616 211.456 160 211.584C160.64 211.776 161.28 211.392 161.472 210.816C161.472 210.688 161.536 210.624 161.536 210.496V206.4C161.536 206.016 161.408 205.568 161.216 205.248C160.96 204.928 160.64 204.672 160.256 204.544C159.616 204.352 158.912 204.736 158.784 205.376C158.72 205.44 158.72 205.504 158.72 205.632Z" fill="#3D3D3D"/>
<path d="M158.848 214.527V215.807C158.848 215.871 158.848 215.935 158.912 215.935C158.976 215.999 159.04 216.127 159.168 216.191C159.744 216.703 160.384 217.087 161.024 217.471L161.28 217.599C161.344 217.663 161.408 217.663 161.536 217.663V216.383C161.536 216.319 161.536 216.255 161.472 216.255C161.408 216.191 161.344 216.063 161.216 215.999C160.96 215.743 160.64 215.551 160.32 215.295C160 215.103 159.68 214.911 159.36 214.719L159.104 214.591C158.976 214.527 158.912 214.527 158.848 214.527Z" fill="#3D3D3D"/>
<path d="M166.208 169.343H169.664C170.048 169.279 170.304 169.087 170.496 168.767C170.688 168.447 170.688 167.999 170.624 167.615C170.56 167.231 170.304 166.847 169.984 166.591L169.664 166.399C169.472 166.271 169.216 166.271 168.96 166.271H165.504C165.12 166.335 164.864 166.528 164.672 166.847C164.48 167.167 164.48 167.615 164.544 167.999C164.608 168.383 164.864 168.767 165.184 169.023L165.504 169.215C165.76 169.279 165.952 169.343 166.208 169.343Z" fill="#3D3D3D"/>
<path d="M175.04 168.575H177.856C178.24 168.575 178.688 168.511 179.072 168.319C179.392 168.191 179.712 167.999 179.904 167.743C180.032 167.551 180.096 167.359 179.904 167.167C179.648 166.975 179.392 166.911 179.072 166.975H176.256C175.872 166.975 175.424 167.039 175.04 167.231C174.72 167.359 174.4 167.551 174.208 167.807C174.08 167.999 174.016 168.191 174.208 168.383C174.4 168.511 174.72 168.639 175.04 168.575Z" fill="#3D3D3D"/>
<path d="M156.736 139.711L163.456 133.247C163.648 133.055 163.52 132.671 163.456 132.479C163.264 132.159 163.008 131.839 162.688 131.583C162.24 131.263 161.408 130.815 160.896 131.327L154.176 137.791C153.984 137.983 154.112 138.367 154.176 138.559C154.368 138.879 154.624 139.199 154.944 139.455C155.392 139.775 156.224 140.223 156.736 139.711Z" fill="white"/>
<path d="M162.944 140.927L167.104 137.791C167.296 137.663 166.976 137.471 166.912 137.471C166.592 137.343 166.272 137.279 165.952 137.343C165.248 137.279 164.608 137.407 164.032 137.727L159.936 140.863C159.744 140.991 160.064 141.183 160.128 141.183C160.448 141.311 160.768 141.311 161.088 141.311C161.728 141.375 162.368 141.247 162.944 140.927Z" fill="white"/>
</svg>
