<svg width="126" height="51" viewBox="0 0 126 51" fill="none" xmlns="http://www.w3.org/2000/svg">
<path d="M50.9031 18.6995L53.7723 4.14192C53.9117 3.43482 54.5317 2.92505 55.2524 2.92505H69.7847C70.7362 2.92505 71.4501 3.79515 71.2642 4.72832L68.123 20.4998L67.6125 23.271L64.2215 20.4998H52.3832C51.4329 20.4998 50.7193 19.6318 50.9031 18.6995Z" fill="#5D7BE7"/>
<path d="M54.7317 23.1838L57.6009 8.62617C57.7403 7.91907 58.3603 7.4093 59.081 7.4093H73.6133C74.5648 7.4093 75.2787 8.2794 75.0928 9.21258L72.1934 23.7702C72.0528 24.4759 71.4334 24.9841 70.7139 24.9841H56.2118C55.2615 24.9841 54.5479 24.1161 54.7317 23.1838Z" fill="#48DECC"/>
<path fill-rule="evenodd" clip-rule="evenodd" d="M70.7299 7.4093L68.1228 20.4993L67.8435 22.0156C67.7395 22.5798 67.0686 22.8261 66.6244 22.463L64.2214 20.4993H55.2605L57.6006 8.62617C57.74 7.91907 58.3601 7.4093 59.0808 7.4093H70.7299Z" fill="#3C53A5"/>
<path d="M8.80663 46.6602C8.17987 46.6602 7.55311 46.5722 6.92635 46.3963C6.31058 46.2093 5.7498 45.9179 5.24399 45.5221C4.73818 45.1152 4.33134 44.582 4.02346 43.9222C3.72657 43.2625 3.57812 42.4543 3.57812 41.4976V34.5868C3.57812 34.4108 3.66059 34.3229 3.82553 34.3229H6.39855C6.56349 34.3229 6.64596 34.4108 6.64596 34.5868V40.8874C6.64596 41.844 6.84388 42.5477 7.23973 42.9986C7.64657 43.4494 8.16888 43.6748 8.80663 43.6748C9.43339 43.6748 9.9447 43.4494 10.3405 42.9986C10.7474 42.5477 10.9508 41.844 10.9508 40.8874V34.5868C10.9508 34.4108 11.0388 34.3229 11.2147 34.3229H13.7712C13.9472 34.3229 14.0351 34.4108 14.0351 34.5868V41.4976C14.0351 42.4543 13.8812 43.2625 13.5733 43.9222C13.2764 44.582 12.8751 45.1152 12.3693 45.5221C11.8635 45.9179 11.2972 46.2093 10.6704 46.3963C10.0547 46.5722 9.43339 46.6602 8.80663 46.6602Z" fill="black"/>
<path d="M19.3721 46.5942C18.3825 46.5942 17.5523 46.3963 16.8816 46.0004C16.2109 45.6046 15.7325 45.0383 15.4466 44.3016C15.3807 44.1366 15.4411 44.0377 15.6281 44.0047L17.6073 43.5923C17.7503 43.5593 17.8602 43.6088 17.9372 43.7408C18.0911 43.9827 18.2836 44.1586 18.5145 44.2686C18.7454 44.3785 18.9983 44.4335 19.2732 44.4335C19.5261 44.4335 19.7295 44.395 19.8834 44.3181C20.0374 44.2411 20.1144 44.1256 20.1144 43.9717C20.1144 43.8507 20.0484 43.7408 19.9164 43.6418C19.7955 43.5428 19.5536 43.4439 19.1907 43.3449L18.8608 43.2625C17.7283 42.9656 16.9311 42.5532 16.4693 42.0254C16.0184 41.4866 15.793 40.8819 15.793 40.2111C15.793 39.6833 15.9415 39.216 16.2383 38.8092C16.5462 38.4023 16.9696 38.0834 17.5084 37.8525C18.0581 37.6216 18.6849 37.5061 19.3886 37.5061C20.3233 37.5061 21.0875 37.6876 21.6813 38.0504C22.286 38.4023 22.7259 38.9521 23.0008 39.6998C23.0667 39.8757 23.0063 39.9802 22.8193 40.0132L20.9061 40.4585C20.7631 40.4915 20.6587 40.4365 20.5927 40.2936C20.4717 40.0847 20.3233 39.9307 20.1474 39.8318C19.9824 39.7218 19.768 39.6668 19.5041 39.6668C19.3062 39.6668 19.1412 39.7053 19.0093 39.7823C18.8773 39.8483 18.8114 39.9582 18.8114 40.1122C18.8114 40.387 19.1357 40.607 19.7845 40.7719L20.0979 40.8544C21.2524 41.1403 22.0496 41.5196 22.4895 41.9924C22.9293 42.4653 23.1492 43.0755 23.1492 43.8232C23.1492 44.384 22.9843 44.8733 22.6544 45.2912C22.3355 45.698 21.8902 46.0169 21.3184 46.2478C20.7576 46.4787 20.1089 46.5942 19.3721 46.5942Z" fill="black"/>
<path d="M28.5733 46.5942C27.6497 46.5942 26.8415 46.4018 26.1487 46.0169C25.467 45.6321 24.9337 45.0988 24.5489 44.417C24.175 43.7243 23.9881 42.9326 23.9881 42.0419C23.9881 41.1513 24.175 40.3651 24.5489 39.6833C24.9337 39.0016 25.467 38.4683 26.1487 38.0834C26.8415 37.6986 27.6497 37.5061 28.5733 37.5061C29.5519 37.5061 30.3711 37.7206 31.0309 38.1494C31.6906 38.5782 32.1799 39.172 32.4988 39.9307C32.8287 40.6784 32.9661 41.5526 32.9112 42.5532C32.9002 42.7182 32.8067 42.8006 32.6308 42.8006H26.9899C27.2098 43.6913 27.7431 44.1366 28.5898 44.1366C29.2496 44.1366 29.7334 43.9277 30.0413 43.5099C30.1402 43.3999 30.2557 43.3614 30.3876 43.3944L32.4988 44.1036C32.6638 44.1806 32.7077 44.2961 32.6308 44.45C32.2239 45.1977 31.6521 45.742 30.9154 46.0829C30.1897 46.4237 29.409 46.5942 28.5733 46.5942ZM28.5403 39.8318C27.6937 39.8318 27.1769 40.2826 26.9899 41.1842H29.9918C29.8158 40.2826 29.332 39.8318 28.5403 39.8318Z" fill="black"/>
<path d="M34.5871 46.4292C34.4111 46.4292 34.3232 46.3413 34.3232 46.1653V37.9185C34.3232 37.7536 34.4111 37.6711 34.5871 37.6711H36.6488C36.8357 37.6711 36.9292 37.7536 36.9292 37.9185L36.9787 38.8092C37.2756 38.3693 37.6494 38.0504 38.1002 37.8525C38.5511 37.6546 39.0349 37.5556 39.5517 37.5556C39.6726 37.5556 39.7826 37.5611 39.8816 37.5721C39.9915 37.5831 40.0905 37.5996 40.1785 37.6216C40.3324 37.6766 40.4094 37.7755 40.4094 37.9185V40.1781C40.4094 40.3541 40.3104 40.4255 40.1125 40.3925C40.0025 40.3706 39.8761 40.3541 39.7331 40.3431C39.6012 40.3211 39.4472 40.3101 39.2713 40.3101C38.9854 40.3101 38.6885 40.3761 38.3806 40.508C38.0728 40.629 37.8144 40.8269 37.6054 41.1018C37.3965 41.3767 37.2921 41.7285 37.2921 42.1574V46.1653C37.2921 46.3413 37.2041 46.4292 37.0282 46.4292H34.5871Z" fill="black"/>
<path d="M42.0819 46.4292C41.906 46.4292 41.818 46.3413 41.818 46.1653V34.5868C41.818 34.4108 41.906 34.3229 42.0819 34.3229H49.7845C49.9604 34.3229 50.0484 34.4108 50.0484 34.5868V36.8134C50.0484 36.9783 49.9604 37.0608 49.7845 37.0608H44.9024V39.3864H48.9928C49.1687 39.3864 49.2567 39.4744 49.2567 39.6503V41.877C49.2567 42.0419 49.1687 42.1244 48.9928 42.1244H44.9024V46.1653C44.9024 46.3413 44.8144 46.4292 44.6385 46.4292H42.0819Z" fill="black"/>
<path d="M55.1501 46.5942C54.2265 46.5942 53.4183 46.4018 52.7255 46.0169C52.0438 45.6321 51.5105 45.0988 51.1256 44.417C50.7518 43.7243 50.5649 42.9326 50.5649 42.0419C50.5649 41.1513 50.7518 40.3651 51.1256 39.6833C51.5105 39.0016 52.0438 38.4683 52.7255 38.0834C53.4183 37.6986 54.2265 37.5061 55.1501 37.5061C56.1287 37.5061 56.9479 37.7206 57.6077 38.1494C58.2674 38.5782 58.7567 39.172 59.0756 39.9307C59.4055 40.6784 59.5429 41.5526 59.488 42.5532C59.477 42.7182 59.3835 42.8006 59.2076 42.8006H53.5667C53.7866 43.6913 54.3199 44.1366 55.1666 44.1366C55.8264 44.1366 56.3102 43.9277 56.618 43.5099C56.717 43.3999 56.8325 43.3614 56.9644 43.3944L59.0756 44.1036C59.2406 44.1806 59.2845 44.2961 59.2076 44.45C58.8007 45.1977 58.2289 45.742 57.4922 46.0829C56.7665 46.4237 55.9858 46.5942 55.1501 46.5942ZM55.1171 39.8318C54.2704 39.8318 53.7536 40.2826 53.5667 41.1842H56.5686C56.3926 40.2826 55.9088 39.8318 55.1171 39.8318Z" fill="black"/>
<path d="M65.0399 46.5942C64.1162 46.5942 63.3081 46.4018 62.6153 46.0169C61.9336 45.6321 61.4003 45.0988 61.0154 44.417C60.6416 43.7243 60.4546 42.9326 60.4546 42.0419C60.4546 41.1513 60.6416 40.3651 61.0154 39.6833C61.4003 39.0016 61.9336 38.4683 62.6153 38.0834C63.3081 37.6986 64.1162 37.5061 65.0399 37.5061C66.0185 37.5061 66.8377 37.7206 67.4975 38.1494C68.1572 38.5782 68.6465 39.172 68.9654 39.9307C69.2953 40.6784 69.4327 41.5526 69.3777 42.5532C69.3667 42.7182 69.2733 42.8006 69.0973 42.8006H63.4565C63.6764 43.6913 64.2097 44.1366 65.0564 44.1366C65.7161 44.1366 66.2 43.9277 66.5078 43.5099C66.6068 43.3999 66.7223 43.3614 66.8542 43.3944L68.9654 44.1036C69.1303 44.1806 69.1743 44.2961 69.0973 44.45C68.6905 45.1977 68.1187 45.742 67.382 46.0829C66.6563 46.4237 65.8756 46.5942 65.0399 46.5942ZM65.0069 39.8318C64.1602 39.8318 63.6434 40.2826 63.4565 41.1842H66.4584C66.2824 40.2826 65.7986 39.8318 65.0069 39.8318Z" fill="black"/>
<path d="M74.4184 46.5942C73.6047 46.5942 72.89 46.4073 72.2742 46.0334C71.6694 45.6485 71.1966 45.1152 70.8557 44.4335C70.5149 43.7408 70.3444 42.9436 70.3444 42.0419C70.3444 41.1293 70.5149 40.3376 70.8557 39.6668C71.1966 38.9851 71.6694 38.4573 72.2742 38.0834C72.89 37.6986 73.6047 37.5061 74.4184 37.5061C75.331 37.5061 76.0952 37.7865 76.711 38.3473V34.3229C76.711 34.1469 76.799 34.059 76.9749 34.059H79.416C79.5919 34.059 79.6799 34.1469 79.6799 34.3229V46.1653C79.6799 46.3413 79.5919 46.4292 79.416 46.4292H77.3378C77.1618 46.4292 77.0739 46.3413 77.0739 46.1653L77.0409 45.3901C76.4031 46.1928 75.529 46.5942 74.4184 46.5942ZM75.1441 43.9882C75.6829 43.9882 76.1172 43.8067 76.4471 43.4439C76.777 43.081 76.9419 42.6137 76.9419 42.0419C76.9419 41.4701 76.777 41.0083 76.4471 40.6564C76.1172 40.2936 75.6829 40.1122 75.1441 40.1122C74.6053 40.1122 74.171 40.2936 73.8411 40.6564C73.5112 41.0083 73.3463 41.4701 73.3463 42.0419C73.3463 42.6137 73.5112 43.081 73.8411 43.4439C74.171 43.8067 74.6053 43.9882 75.1441 43.9882Z" fill="black"/>
<path d="M86.8591 46.5942C85.7486 46.5942 84.8744 46.1928 84.2366 45.3901L84.2037 46.1653C84.2037 46.3413 84.1102 46.4292 83.9233 46.4292H81.8616C81.6856 46.4292 81.5976 46.3413 81.5976 46.1653V34.3229C81.5976 34.1469 81.6856 34.059 81.8616 34.059H84.3026C84.4786 34.059 84.5665 34.1469 84.5665 34.3229V38.3473C85.1823 37.7865 85.9465 37.5061 86.8591 37.5061C87.6728 37.5061 88.3821 37.6986 88.9868 38.0834C89.6026 38.4573 90.0809 38.9851 90.4218 39.6668C90.7627 40.3376 90.9331 41.1293 90.9331 42.0419C90.9331 42.9436 90.7627 43.7408 90.4218 44.4335C90.0809 45.1152 89.6026 45.6485 88.9868 46.0334C88.3821 46.4073 87.6728 46.5942 86.8591 46.5942ZM86.1334 43.9882C86.6722 43.9882 87.1066 43.8067 87.4364 43.4439C87.7663 43.081 87.9312 42.6137 87.9312 42.0419C87.9312 41.4701 87.7663 41.0083 87.4364 40.6564C87.1066 40.2936 86.6722 40.1122 86.1334 40.1122C85.5946 40.1122 85.1603 40.2936 84.8304 40.6564C84.5005 41.0083 84.3356 41.4701 84.3356 42.0419C84.3356 42.6137 84.5005 43.081 84.8304 43.4439C85.1603 43.8067 85.5946 43.9882 86.1334 43.9882Z" fill="black"/>
<path d="M96.0342 46.5942C95.2205 46.5942 94.5057 46.4073 93.89 46.0334C93.2852 45.6485 92.8124 45.1152 92.4715 44.4335C92.1307 43.7408 91.9602 42.9436 91.9602 42.0419C91.9602 41.1293 92.1307 40.3376 92.4715 39.6668C92.8124 38.9851 93.2852 38.4573 93.89 38.0834C94.5057 37.6986 95.2205 37.5061 96.0342 37.5061C96.584 37.5061 97.0788 37.6106 97.5186 37.8195C97.9694 38.0175 98.3488 38.3088 98.6567 38.6937L98.6897 37.9185C98.6897 37.7536 98.7776 37.6711 98.9536 37.6711H101.032C101.208 37.6711 101.296 37.7536 101.296 37.9185V46.1653C101.296 46.3413 101.208 46.4292 101.032 46.4292H98.9536C98.7776 46.4292 98.6897 46.3413 98.6897 46.1653L98.6567 45.3901C98.0189 46.1928 97.1447 46.5942 96.0342 46.5942ZM96.7599 43.9882C97.2987 43.9882 97.733 43.8067 98.0629 43.4439C98.3928 43.081 98.5577 42.6137 98.5577 42.0419C98.5577 41.4701 98.3928 41.0083 98.0629 40.6564C97.733 40.2936 97.2987 40.1122 96.7599 40.1122C96.2211 40.1122 95.7868 40.2936 95.4569 40.6564C95.127 41.0083 94.9621 41.4701 94.9621 42.0419C94.9621 42.6137 95.127 43.081 95.4569 43.4439C95.7868 43.8067 96.2211 43.9882 96.7599 43.9882Z" fill="black"/>
<path d="M107.304 46.5942C106.38 46.5942 105.578 46.4018 104.896 46.0169C104.214 45.6321 103.686 45.0988 103.312 44.417C102.95 43.7353 102.768 42.9436 102.768 42.0419C102.768 41.1403 102.95 40.3541 103.312 39.6833C103.686 39.0016 104.214 38.4683 104.896 38.0834C105.578 37.6986 106.38 37.5061 107.304 37.5061C108.283 37.5061 109.14 37.7206 109.877 38.1494C110.625 38.5672 111.158 39.249 111.477 40.1946C111.532 40.3816 111.471 40.4915 111.295 40.5245L109.25 41.1018C109.096 41.1348 108.981 41.0798 108.904 40.9368C108.75 40.6509 108.552 40.442 108.31 40.3101C108.068 40.1781 107.788 40.1122 107.469 40.1122C106.908 40.1122 106.485 40.2991 106.199 40.6729C105.924 41.0358 105.786 41.4921 105.786 42.0419C105.786 42.5807 105.924 43.0425 106.199 43.4274C106.485 43.8012 106.908 43.9882 107.469 43.9882C107.777 43.9882 108.057 43.9222 108.31 43.7903C108.563 43.6473 108.761 43.4219 108.904 43.114C108.992 42.9601 109.102 42.8996 109.234 42.9326L111.46 43.4934C111.647 43.5264 111.702 43.6363 111.625 43.8232C111.284 44.7579 110.724 45.4561 109.943 45.9179C109.173 46.3688 108.294 46.5942 107.304 46.5942Z" fill="black"/>
<path d="M113.27 46.4292C113.095 46.4292 113.007 46.3413 113.007 46.1653V34.3229C113.007 34.1469 113.095 34.059 113.27 34.059H115.712C115.887 34.059 115.975 34.1469 115.975 34.3229V40.607L118.417 37.8195C118.504 37.7206 118.609 37.6711 118.73 37.6711H121.616C121.726 37.6711 121.798 37.7041 121.831 37.77C121.864 37.825 121.836 37.8965 121.748 37.9845L119.142 40.6894L122.095 46.1159C122.15 46.2038 122.161 46.2808 122.128 46.3468C122.095 46.4018 122.023 46.4292 121.913 46.4292H119.175C119.032 46.4292 118.928 46.3688 118.862 46.2478L117.064 42.8501L115.975 43.9717V46.1653C115.975 46.3413 115.887 46.4292 115.712 46.4292H113.27Z" fill="black"/>
</svg>
