<svg width="32" height="32" viewBox="0 0 32 32" fill="none" xmlns="http://www.w3.org/2000/svg">
<path d="M5.78896 19.4091L7.99218 8.23064C8.17126 7.32203 8.96801 6.66699 9.89409 6.66699H21.0244C22.247 6.66699 23.1644 7.78505 22.9255 8.98416L20.3884 21.7224L19.9511 24.0963L17.0463 21.7224H7.69088C6.4698 21.7224 5.55284 20.6071 5.78896 19.4091Z" fill="#5D7BE7"/>
<path d="M9.06875 23.2499L11.272 12.0715C11.451 11.1629 12.2478 10.5078 13.1739 10.5078H24.3041C25.5268 10.5078 26.4441 11.6259 26.2053 12.825L23.9789 24.0034C23.7983 24.9102 23.0024 25.5632 22.0777 25.5632H10.9707C9.74959 25.5632 8.83262 24.4479 9.06875 23.2499Z" fill="#48DECC"/>
<path fill-rule="evenodd" clip-rule="evenodd" d="M22.6215 10.5078L20.3881 21.7213L20.2479 22.4828C20.1143 23.2079 19.2522 23.5243 18.6813 23.0577L17.046 21.7213H9.36963L11.2716 12.0715C11.4507 11.1629 12.2474 10.5078 13.1735 10.5078H22.6215Z" fill="#3C53A5"/>
</svg>
