<svg width="200" height="200" viewBox="0 0 200 200" fill="none" xmlns="http://www.w3.org/2000/svg">
<path d="M55.2399 52.5195L26.8799 64.3995V84.5195L28.2399 122.28L58.5999 124.16L55.2399 52.5195Z" fill="#CECECE"/>
<path d="M54.7596 51.6794L45.1596 55.6794L29.8796 62.0794L26.3996 63.5594C26.2396 63.6394 26.1996 63.8794 26.1996 63.9994V75.9594C26.1996 78.8394 26.1196 81.7194 26.1996 84.5994L26.5996 95.5594L27.1996 111.999C27.3196 115.239 27.3996 118.479 27.5596 121.719C27.5596 121.759 27.5596 121.799 27.5596 121.879C27.5596 122.439 27.9996 123.159 28.5996 123.199L38.9196 123.839L55.1996 124.839L58.9196 125.079C59.1596 125.079 59.2796 124.759 59.2796 124.599L59.1996 122.679L58.9596 117.479L58.5996 109.799L58.1596 100.399L57.6796 90.1194L57.1996 79.7194L56.7596 70.0394L56.3596 61.8394L56.0796 55.9194C56.0396 54.9994 55.9996 54.0794 55.9596 53.1194C55.9596 53.0794 55.9596 53.0394 55.9596 52.9994C55.9196 52.5194 55.6796 52.0394 55.2396 51.7594C54.8796 51.5594 54.5196 51.7194 54.5596 52.1594L54.6396 54.0794L54.8796 59.2794L55.2396 66.9994L55.6796 76.3994L56.1596 86.6794L56.6396 97.0794L57.0796 106.759L57.4396 114.959L57.7196 120.879C57.7196 121.799 57.7596 122.759 57.8396 123.679C57.8396 123.719 57.8396 123.759 57.8396 123.799L58.1996 123.319L47.8796 122.679L31.5996 121.599L27.8796 121.359L28.9196 122.679L28.6396 114.519L28.0796 98.2794L27.6396 85.9994C27.5596 83.5594 27.5996 81.0794 27.5996 78.6394V64.7994L27.3996 65.2394L36.9996 61.2394L52.2796 54.8394L55.7596 53.3994C56.3996 53.1194 55.4796 51.3594 54.7596 51.6794Z" fill="#3D3D3D"/>
<path d="M75.1597 62.7595L55.2397 52.5195L58.5997 124.16L77.6797 122.28L75.1597 62.7595Z" fill="#3D3D3D"/>
<path d="M74.96 61.9975L68.24 58.5575L57.52 53.0375L55.04 51.7575C54.8 51.6375 54.48 51.6775 54.48 51.9975L54.56 53.9175L54.8 59.1175L55.16 66.7975L55.6 76.1975L56.08 86.4775L56.56 96.8775L57 106.558L57.4 114.758L57.68 120.678C57.72 121.598 57.76 122.518 57.8 123.478C57.8 123.518 57.8 123.558 57.8 123.598C57.84 124.118 58.44 124.998 59.04 124.958L65.48 124.318L75.72 123.318L78.08 123.078C78.24 123.038 78.32 122.918 78.32 122.758L78.08 116.798L77.48 102.598L76.72 85.3575L76.08 70.5575C75.96 68.1575 75.92 65.7175 75.76 63.3175C75.76 63.2775 75.76 63.2375 75.76 63.2375C75.68 62.7575 75.44 62.3175 75.04 62.0775C74.8 61.9175 74.28 61.7175 74.32 62.1975L74.56 68.1575L75.16 82.3175L76 99.5975L76.64 114.398L76.84 119.278L76.92 120.838C76.92 121.118 76.92 121.358 76.96 121.638C76.96 121.678 76.96 121.718 76.96 121.718L77.2 121.398L70.76 122.038L60.52 123.038L58.16 123.278L59.4 124.638L59.32 122.718L59.08 117.518L58.72 109.838L58.28 100.438L57.8 90.1575L57.32 79.7575L56.88 70.0775L56.48 61.8775L56.2 55.9575L56.12 54.1175C56.12 53.7975 56.12 53.4775 56.08 53.1575C56.08 53.1175 56.08 53.0775 56.08 53.0375L55.52 53.2775L62.24 56.7175L72.96 62.2375L75.44 63.5175C75.8 63.7175 76.04 63.4775 75.96 63.0775C75.72 62.5975 75.4 62.2375 74.96 61.9975Z" fill="#3D3D3D"/>
<path d="M17.2397 88.8028L42.5997 79.8828V102.603L19.8397 106.803L17.2397 88.8028Z" fill="#CECECE"/>
<path d="M17.7999 88.8395L26.3999 85.7995L39.9999 80.9995L43.1599 79.8795L41.6399 80.0395V102.8L42.8399 102.32L35.1199 103.72L22.8799 106L20.0799 106.52L20.8399 106.56L19.9599 100.48L18.5599 90.7995L18.2399 88.5595C18.1999 88.3195 16.2399 88.6395 16.2799 88.9995L17.1599 95.0795L18.5599 104.8L18.8799 107.04C18.9199 107.2 19.5999 107.08 19.6399 107.08L27.3599 105.68L39.5999 103.44L42.3999 102.92C42.5599 102.88 43.5999 102.72 43.5999 102.44V79.6795C43.5999 79.4395 42.1999 79.7995 42.0799 79.8395L33.4799 82.8795L19.8799 87.6795L16.7199 88.7995C16.5199 88.8795 16.1199 88.9995 16.4399 89.1595C16.7599 89.3195 17.4799 88.9595 17.7999 88.8395Z" fill="#3D3D3D"/>
<path d="M56.7196 83.7228L42.5996 79.8828V102.603L57.6796 105.003L56.7196 83.7228Z" fill="white"/>
<path d="M56.8396 83.1225L44.4796 79.7625L42.7196 79.2825C42.2796 79.1625 41.5996 79.2425 41.5996 79.8025V102.563C41.5996 102.883 42.1596 103.163 42.4396 103.203L55.6396 105.283L57.5196 105.603C57.9196 105.683 58.6796 105.683 58.6396 105.083L58.3196 97.8825L57.7996 86.4425L57.6796 83.8025C57.6396 83.0425 55.6796 82.7625 55.7196 83.6825L56.0396 90.8825L56.5596 102.323L56.6796 104.963L57.7996 104.443L44.5996 102.363L42.7196 102.043L43.5596 102.683V79.9225L42.4396 80.4425L54.7596 83.8025L56.5196 84.2825C56.8796 84.3625 57.5196 84.3625 57.6396 83.9225C57.7596 83.4825 57.1596 83.2025 56.8396 83.1225Z" fill="#3D3D3D"/>
<path d="M19.8398 106.802L42.5998 102.602L57.6798 105.002L27.7998 110.002L19.8398 106.802Z" fill="white"/>
<path d="M20.5201 107.442L28.2401 106.042L40.4801 103.802L43.2801 103.282H42.9601L56.1601 105.362L58.0801 105.682L56.9601 104.362L46.8001 106.042L30.8001 108.722L27.1201 109.322L27.6401 109.402L20.6801 106.602L19.6801 106.202C19.4001 106.082 18.9601 106.042 19.0401 106.442C19.1201 106.842 19.7201 107.242 20.0401 107.362L27.7201 110.442C28.0001 110.562 28.2801 110.642 28.5601 110.602C28.7601 110.562 28.9601 110.522 29.1601 110.522L32.0001 110.042L41.8801 108.402L52.5601 106.602L56.4401 105.962C57.0801 105.882 57.7201 105.802 58.3601 105.642C58.4001 105.642 58.4001 105.642 58.4401 105.642C58.7601 105.602 58.4401 105.082 58.3601 105.002C58.1201 104.682 57.7601 104.442 57.3201 104.322L49.9601 103.162L44.7601 102.322C43.9201 102.202 43.0801 102.002 42.2401 101.922C41.6801 101.922 41.1201 102.002 40.6001 102.162L36.7601 102.882L26.0001 104.882L21.5201 105.682C20.7601 105.842 19.9201 105.882 19.2001 106.122C19.1601 106.122 19.1201 106.122 19.0801 106.122C18.6801 106.202 19.2401 106.882 19.3201 106.962C19.6801 107.282 20.0801 107.482 20.5201 107.442Z" fill="#3D3D3D"/>
<path d="M25.4396 94.8409L34.3596 92.4409V88.9609L23.5996 92.4409L25.4396 94.8409Z" fill="white"/>
<path d="M35.44 71.0798L33.48 67.9198L44.24 63.8398C44.24 63.8398 45.44 65.9598 44.24 66.7198C43.04 67.4798 35.44 71.0798 35.44 71.0798Z" fill="white"/>
<path d="M38.7598 110V113.64C38.7598 113.64 47.6798 113.32 47.6798 112.88V110H38.7598Z" fill="white"/>
<path d="M55.2397 52.5195C55.5997 57.8395 55.9197 63.1595 56.1997 68.4795C56.4797 73.7995 56.6797 79.1195 56.9197 84.4395C57.1597 89.7595 57.3197 95.0795 57.4397 100.4C57.5597 105.72 57.6797 111.04 57.7197 116.4C57.3597 111.08 57.0397 105.76 56.7597 100.44C56.4797 95.1195 56.2797 89.7995 56.0397 84.4795C55.7997 79.1595 55.6397 73.8395 55.5197 68.5195C55.3997 63.1995 55.2797 57.8795 55.2397 52.5195Z" fill="white"/>
<path d="M54.2397 52.5217C54.7997 60.7617 55.2397 69.0017 55.5997 77.2817C55.9597 85.6417 56.2397 94.0017 56.4797 102.322C56.5997 107.002 56.6797 111.722 56.7197 116.402L58.7197 116.442C58.1597 108.202 57.7197 99.9617 57.3597 91.6817C56.9997 83.3217 56.7197 74.9617 56.4797 66.6417C56.3597 61.9617 56.2797 57.2417 56.2397 52.5617C56.2397 52.3617 54.2397 52.3617 54.2397 52.5217C54.3197 60.8417 54.5197 69.1617 54.7997 77.4817C55.0797 85.8017 55.4397 94.1617 55.8397 102.522C56.0797 107.162 56.3597 111.802 56.6797 116.402C56.6797 116.602 58.6797 116.602 58.6797 116.442C58.6397 108.122 58.3997 99.8017 58.1197 91.4817C57.8397 83.1617 57.4797 74.8017 57.0797 66.4417C56.8397 61.8017 56.5597 57.1617 56.2397 52.5617C56.2397 52.3217 54.2397 52.4017 54.2397 52.5217Z" fill="#3D3D3D"/>
<path d="M124.96 60.0019L144.16 50.9219L139.28 124.602L124.88 119.082L124.96 60.0019Z" fill="#3D3D3D"/>
<path d="M125 60.5179L131.48 57.4379L141.84 52.5579L144.2 51.4379L143.32 51.3579L143.2 53.3179L142.84 58.6779L142.32 66.5979L141.68 76.2379L140.96 86.8779L140.28 97.5579L139.64 107.518L139.08 115.918L138.68 121.998C138.6 122.958 138.52 123.918 138.48 124.878C138.48 124.918 138.48 124.958 138.48 124.998L140.08 123.918L127.48 119.038L125.68 118.358L125.8 118.558V112.678V98.5579V81.5979V66.8379V61.9979C125.8 61.2379 125.84 60.4379 125.8 59.6779V59.5979C125.8 58.9979 124.08 59.8379 124.08 60.4779V66.3579V80.4779V97.5579V112.318V117.158C124.08 117.918 124.04 118.718 124.08 119.478C124.08 119.518 124.08 119.558 124.08 119.558C124.08 119.638 124.12 119.718 124.2 119.758L136.8 124.598L138.6 125.278C139.16 125.478 140.16 124.798 140.2 124.198L140.32 122.238L140.68 116.878L141.2 108.958L141.84 99.3179L142.56 88.6779L143.28 77.9979L143.92 68.0379L144.48 59.6379L144.88 53.5579C144.96 52.5979 145.08 51.6379 145.08 50.6779C145.08 50.6379 145.08 50.5979 145.08 50.5579C145.12 50.1179 144.32 50.4379 144.2 50.4779L137.72 53.5579L127.32 58.3979L124.96 59.5179C124.68 59.6379 124.04 60.0779 124.12 60.4379C124.2 60.7979 124.76 60.5979 125 60.5179Z" fill="#3D3D3D"/>
<path d="M173.16 62.7619L164.04 128.322L139.28 124.602L144.16 50.9219L173.16 62.7619Z" fill="#CECECE"/>
<path d="M172.36 62.1606L171.44 68.6806L169.28 84.3606L166.64 103.321L164.36 119.681L163.6 125.041L163.36 126.721C163.28 127.001 163.24 127.281 163.24 127.601C163.24 127.641 163.24 127.681 163.24 127.721L163.52 127.561L155.12 126.321L141.8 124.321L138.76 123.841L140.04 125.161L140.16 123.201L140.52 117.841L141.04 109.921L141.68 100.281L142.4 89.6406L143.12 78.9606L143.8 69.0006L144.36 60.5606L144.76 54.4806L144.88 52.6006C144.92 52.2806 144.96 51.9606 144.96 51.6006C144.96 51.5606 144.96 51.5206 144.96 51.4806L144.48 51.6006L154.32 55.6006L169.88 61.9606L173.44 63.4006C173.8 63.5606 174 63.2806 173.84 62.9606C173.64 62.5206 173.24 62.2006 172.8 62.0006L162.96 58.0006L147.4 51.6406L143.84 50.2006C143.72 50.1606 143.4 50.1206 143.36 50.3206L143.24 52.2806L142.88 57.6406L142.36 65.5206L141.72 75.1606L141 85.8006L140.28 96.4806L139.64 106.441L139.08 114.841L138.68 120.921C138.6 121.881 138.52 122.841 138.48 123.801V123.921C138.44 124.521 139.24 125.161 139.76 125.241L148.16 126.481L161.48 128.481L164.52 128.921C164.64 128.961 164.76 128.881 164.8 128.761L165.72 122.241L167.92 106.561L170.56 87.6006L172.8 71.2806L173.56 65.9206C173.68 65.0806 173.84 64.2006 173.92 63.3606C173.92 63.3206 173.92 63.2806 173.92 63.2406C174 62.7206 172.44 61.6006 172.36 62.1606Z" fill="#3D3D3D"/>
<path d="M149 113.641H175.6L174.32 130.641L149.92 128.321L149 113.641Z" fill="#CECECE"/>
<path d="M149.4 114.2H175.96L174.64 113.36L173.52 128.28L173.36 130.36L174.2 130.08L165.92 129.28L152.84 128.04L149.84 127.76L150.92 128.44L150.12 115.6L150 113.76C149.96 113.12 148 112.72 148.08 113.52L148.88 126.36L149 128.2C149.04 128.6 149.8 128.84 150.08 128.88L158.36 129.68L171.44 130.92L174.48 131.2C174.68 131.2 175.28 131.24 175.32 130.92L176.4 116L176.56 113.92C176.6 113.32 175.68 113.08 175.24 113.08H148.64C148.28 113.08 147.88 113.28 148.12 113.64C148.36 114 149 114.2 149.4 114.2Z" fill="#3D3D3D"/>
<path d="M139.28 113.641H149L149.92 128.321L139.28 124.601V113.641Z" fill="white"/>
<path d="M139.96 114.32H149.68L148.28 113L149.08 125.84L149.2 127.68L149.4 127.64L140.08 124.4L138.76 123.92L140.08 125.2V114.24C140.08 113.92 139.52 113.48 139.28 113.28C139.2 113.24 138.6 112.76 138.6 113V124C138.6 124.24 139 124.56 139.12 124.68C139.36 124.92 139.6 125.12 139.92 125.28L149.24 128.52L150.56 128.96C150.64 129 150.76 129.04 150.76 128.92L149.96 116.08L149.84 114.24C149.84 114 149.4 113.64 149.24 113.48C149.08 113.32 148.72 112.96 148.44 112.96H138.72C138.44 112.96 139 113.6 139.08 113.64C139.16 113.8 139.6 114.32 139.96 114.32Z" fill="#3D3D3D"/>
<path d="M141.32 93.8828C143.6 94.1228 145.84 94.4028 148.08 94.7628C150.32 95.1228 152.56 95.4828 154.8 95.8828C157.04 96.2828 159.28 96.6828 161.48 97.1628C163.68 97.6428 165.92 98.1228 168.12 98.6828C165.84 98.4428 163.6 98.1628 161.36 97.8028C159.12 97.4428 156.88 97.0828 154.64 96.6828C152.4 96.2828 150.16 95.8428 147.96 95.4028C145.76 94.9628 143.52 94.4428 141.32 93.8828Z" fill="white"/>
<path d="M142.08 94.2809C149.04 95.0409 156 96.161 162.84 97.641C164.84 98.041 166.8 98.4809 168.76 99.0009L167.4 98.201C160.44 97.4409 153.48 96.321 146.64 94.841C144.64 94.441 142.68 94.0009 140.72 93.4809C140.4 93.4009 140.36 93.4809 140.64 93.6809C141.04 93.9209 141.48 94.121 141.92 94.241C148.84 95.961 155.84 97.3209 162.92 98.2809C164.92 98.5609 166.92 98.841 168.92 99.041C169.28 99.081 168.88 98.8009 168.76 98.7609C168.4 98.5209 168 98.361 167.56 98.241C160.64 96.521 153.64 95.1609 146.56 94.2009C144.56 93.9209 142.56 93.641 140.56 93.441C140.16 93.401 140.72 93.7209 140.8 93.7609C141.2 94.0409 141.64 94.2009 142.08 94.2809Z" fill="#3D3D3D"/>
<path d="M142.72 72.8398C145.08 73.3598 147.44 73.9598 149.8 74.5998C152.16 75.2398 154.48 75.8798 156.8 76.5598C159.12 77.2398 161.44 77.9598 163.76 78.7198C166.08 79.4798 168.36 80.2398 170.64 81.1198C168.28 80.5998 165.92 79.9998 163.56 79.3598C161.2 78.7198 158.88 78.0798 156.56 77.3998C154.24 76.7198 151.92 75.9998 149.6 75.2398C147.28 74.4798 145 73.6798 142.72 72.8398Z" fill="white"/>
<path d="M142.64 73.6811C150 75.3211 157.24 77.4411 164.4 79.8011C166.44 80.4811 168.48 81.2011 170.52 81.9611L170.68 80.2811C163.32 78.6411 156.08 76.5211 148.92 74.1611C146.88 73.4811 144.84 72.7611 142.8 72.0011C142.44 71.8411 142 72.0411 141.84 72.4011C141.8 72.4411 141.8 72.5211 141.8 72.5611C141.8 73.0811 142.12 73.5211 142.64 73.6811C149.68 76.2811 156.96 78.4811 164.24 80.4011C166.32 80.9611 168.44 81.4811 170.56 81.9611C171 82.0411 171.52 81.9211 171.56 81.4011C171.56 80.8811 171.24 80.4411 170.72 80.2811C163.68 77.6411 156.4 75.5211 149.16 73.5611C147.08 73.0011 144.96 72.4811 142.84 72.0011C141.52 71.6811 141.56 73.4411 142.64 73.6811Z" fill="#3D3D3D"/>
<path d="M153.52 84.3188V83.7188V81.7188L161.16 83.7188L160.56 85.4388L153.52 84.3188Z" fill="white"/>
<path d="M156.36 65.6781V65.0781V63.0781L164 65.0781L163.4 66.7981L156.36 65.6781Z" fill="white"/>
<path d="M151.48 102.483V101.883V99.8828L159.12 101.883L158.52 103.603L151.48 102.483Z" fill="white"/>
<path d="M159.12 120.362C159.12 120.362 158.64 117.962 159.12 117.842C159.6 117.722 168.24 117.842 168.24 117.842V120.362H159.12Z" fill="white"/>
<path d="M144.16 50.9219C144.04 53.8819 143.88 56.8819 143.76 59.8419L143.28 68.7619C142.92 74.7219 142.52 80.6419 142.16 86.6019C141.72 92.5619 141.32 98.4819 140.84 104.442L140.12 113.362C139.84 116.322 139.6 119.282 139.32 122.242C139.44 119.242 139.6 116.282 139.72 113.322L140.2 104.362C140.56 98.4019 140.96 92.4819 141.32 86.5219C141.76 80.5619 142.16 74.6419 142.64 68.6819L143.36 59.7619C143.6 56.8819 143.88 53.9219 144.16 50.9219Z" fill="white"/>
<path d="M143.2 50.7606C143.04 55.0006 142.84 59.2406 142.6 63.4806C142.4 67.2406 142.2 71.0006 141.96 74.7606C141.52 81.6806 141.04 88.6406 140.56 95.5606C140.24 99.7606 139.92 103.961 139.6 108.121C139.28 111.921 138.96 115.721 138.6 119.481C138.52 120.321 138.44 121.201 138.36 122.041L140.32 122.401C140.48 118.161 140.68 113.921 140.92 109.681C141.12 105.921 141.32 102.161 141.56 98.4006C142 91.4806 142.48 84.5206 142.96 77.6006C143.28 73.4006 143.6 69.2006 143.92 65.0406C144.24 61.2406 144.56 57.4406 144.92 53.6806C145 52.8406 145.08 51.9606 145.16 51.1206C145.2 50.6806 143.24 50.3606 143.2 50.7606C142.76 54.9606 142.4 59.1606 142.08 63.4006C141.76 67.1606 141.48 70.9206 141.2 74.6806C140.68 81.6006 140.2 88.5606 139.76 95.4806C139.48 99.6806 139.24 103.881 139 108.081C138.8 111.881 138.6 115.681 138.44 119.481C138.4 120.321 138.36 121.201 138.32 122.081C138.32 122.521 140.24 122.841 140.28 122.441C140.72 118.241 141.08 114.001 141.4 109.761C141.72 106.001 142 102.241 142.28 98.4806C142.8 91.5606 143.28 84.6006 143.72 77.6806C144 73.4806 144.24 69.2806 144.48 65.0806C144.68 61.2806 144.88 57.4806 145.04 53.6806C145.08 52.8406 145.12 51.9606 145.16 51.1206C145.16 50.6406 143.2 50.4006 143.2 50.7606Z" fill="#3D3D3D"/>
<path d="M73.8799 71.0826V43.5226C73.8799 43.5226 129 42.5226 129 43.5226V71.0826H73.8799Z" fill="#CECECE"/>
<path d="M74.8399 71.0802V43.5202L73.7999 44.4002L76.8799 44.3602C79.5599 44.3202 82.1999 44.2802 84.8799 44.2402C88.5199 44.2002 92.1199 44.1602 95.7599 44.1202C99.7199 44.0802 103.68 44.0402 107.6 44.0002C111.2 43.9602 114.76 43.9602 118.36 44.0002C120.96 44.0002 123.52 44.0402 126.12 44.1202C126.52 44.1202 126.96 44.1602 127.36 44.2002L127.84 44.2402H128.04C128.12 44.2402 128.28 44.2402 128.04 44.2402C128.2 44.2802 128.36 44.3202 128.56 44.3202C128.68 44.3202 128.28 44.2002 128.4 44.2802C128.28 44.2002 128.2 44.1202 128.12 44.0002C128.04 43.8402 128.04 43.4002 128.04 43.7202C128 46.1602 128.04 48.5602 128.04 51.0002V71.1202L129.08 70.2402H80.7199C78.4799 70.2402 76.2799 70.1602 74.0399 70.2402H73.9599C73.4399 70.2402 72.9999 70.6002 72.9199 71.1202C72.9199 71.6002 73.3199 72.0002 73.7999 71.9602H73.8399H122.2C124.4 71.9602 126.64 72.0402 128.88 71.9602H128.96C129.4 71.9602 130 71.6002 130 71.0802V44.4402C130 43.8002 130.16 43.0002 129.48 42.6802C128.92 42.4802 128.36 42.4002 127.76 42.4002C125.6 42.2402 123.4 42.2402 121.2 42.2002C117.8 42.1602 114.4 42.1602 111.04 42.1602C107.08 42.1602 103.12 42.2002 99.1999 42.2402C95.3999 42.2802 91.5599 42.3202 87.7599 42.3602C84.7599 42.4002 81.7599 42.4402 78.7599 42.4802L74.1999 42.5602H73.9999C73.5599 42.5602 72.9599 42.9202 72.9599 43.4402V71.0002C72.8799 72.2402 74.8399 72.1602 74.8399 71.0802Z" fill="#3D3D3D"/>
<path d="M70.1602 102.598L69.1602 71.0781H132.48L130.48 101.358L70.1602 102.598Z" fill="#CECECE"/>
<path d="M71.1202 102.519L70.8002 91.8395L70.2802 74.8395L70.1602 70.9595L69.2402 71.8395H130C130.8 71.8395 131.64 71.8795 132.44 71.8395H132.56L131.48 71.1595L130.8 81.3995L129.72 97.7195L129.48 101.439L130.4 100.559L124.4 100.679L109.96 100.959L92.5202 101.319L77.4802 101.639C75.0402 101.679 72.6002 101.639 70.1602 101.799H70.0402C69.5602 101.799 69.1602 102.2 69.1202 102.68C69.1602 103.2 69.7602 103.359 70.2002 103.359L76.2002 103.239L90.6402 102.959L108.08 102.599L123.12 102.279C125.56 102.239 128 102.279 130.44 102.119H130.56C131.04 102.119 131.44 101.719 131.48 101.24L132.16 90.9995L133.24 74.6795L133.48 70.9595C133.52 70.4395 132.76 70.2795 132.4 70.2795H71.6402C70.8402 70.2795 70.0002 70.2395 69.2002 70.2795H69.0802C68.6002 70.2795 68.2002 70.6795 68.1602 71.1595L68.4802 81.7995L69.0002 98.7995L69.1202 102.68C69.2002 103.76 71.1602 103.559 71.1202 102.519Z" fill="#3D3D3D"/>
<path d="M76.8002 130.638L75.1602 102.597L127.08 101.438L124.88 130.638H76.8002Z" fill="#CECECE"/>
<path d="M77.7602 130.603L77.2002 121.083L76.3202 106.043L76.1202 102.562L75.3602 103.522L80.5602 103.403L93.0002 103.122L107.96 102.803L120.92 102.522L125.2 102.443C125.88 102.443 126.56 102.443 127.24 102.403H127.32L126.2 101.283L125.44 111.163L124.24 126.843L123.96 130.443L124.76 129.722H82.5602C80.6402 129.722 78.6802 129.642 76.7602 129.722H76.6802C76.2402 129.722 75.8802 130.082 75.8802 130.522C75.8802 130.562 75.8802 130.643 75.8802 130.683C76.0002 131.203 76.4402 131.562 77.0002 131.562H119.2C121.12 131.562 123.08 131.642 125 131.562H125.08C125.48 131.562 125.84 131.243 125.88 130.843L126.64 120.962L127.84 105.283L128.12 101.683C128.12 101.083 127.64 100.562 127.04 100.562H127L121.8 100.683L109.36 100.963L94.3602 101.323L81.4002 101.603C79.3202 101.643 77.2002 101.602 75.0802 101.763H75.0002C74.5602 101.763 74.2002 102.163 74.2002 102.643C74.2002 102.683 74.2002 102.723 74.2002 102.763L74.7602 112.283L75.6402 127.322L75.8402 130.803C75.9602 131.803 77.8402 131.843 77.7602 130.603Z" fill="#3D3D3D"/>
<path d="M95.7199 110.001C95.7199 110.001 94.9999 107.001 95.7199 106.881C96.4399 106.761 109.12 106.881 109.12 106.881V110.001H95.7199Z" fill="white"/>
<path d="M90.8799 83.7198C90.8799 83.7198 89.7999 78.7998 90.8799 78.5598C91.9599 78.3198 111.04 78.5598 111.04 78.5598V83.7198H90.8799Z" fill="white"/>
<path d="M94.1999 54.1186C94.1999 54.1186 93.4799 51.1186 94.1999 50.9986C94.9199 50.8786 107.6 50.9986 107.6 50.9986V54.1186H94.1999Z" fill="white"/>
<path d="M97.4801 117.442C101 117.562 104.56 117.522 108.08 117.282C108.56 117.242 108.6 116.682 108.44 116.322C108.24 115.882 107.76 115.602 107.24 115.602C103.84 115.802 100.44 115.842 97.0801 115.762C95.8401 115.722 96.5601 117.402 97.4801 117.442Z" fill="#3D3D3D"/>
<path d="M92.8799 88.9584C98.7999 89.0784 104.72 88.9984 110.68 88.7984C111.12 88.7984 110.92 88.3184 110.76 88.1184C110.48 87.7184 110.08 87.4784 109.6 87.3984C103.68 87.5984 97.7599 87.6384 91.7999 87.5584C91.3599 87.5584 91.5599 88.0384 91.7199 88.2384C91.9599 88.5984 92.3999 88.8784 92.8799 88.9584Z" fill="#3D3D3D"/>
<path d="M95.7597 59.5198C99.3197 59.6398 102.84 59.5998 106.36 59.3598C106.88 59.3198 107.32 58.9998 107.48 58.5198C107.6 58.0398 107.16 57.8398 106.76 57.8398C103.36 58.0398 99.9997 58.0798 96.5997 57.9998C96.0797 57.9598 95.5997 58.1998 95.3197 58.6398C95.1597 58.8798 95.1997 59.2398 95.4797 59.3998C95.5597 59.4798 95.6397 59.5198 95.7597 59.5198Z" fill="#3D3D3D"/>
<path d="M156.88 69.8391C158.76 69.9991 160.6 70.3591 162.4 70.9591C162.84 71.1191 162.96 70.5991 162.88 70.2791C162.8 69.7991 162.48 69.3991 162.04 69.1991C160.16 68.5591 158.2 68.1991 156.2 68.0391C156.04 68.0391 155.92 68.1991 155.88 68.3591C155.84 68.5591 155.88 68.7991 155.96 68.9991C156.08 69.3991 156.44 69.7191 156.88 69.8391Z" fill="#3D3D3D"/>
<path d="M153.72 89.76C154.16 89.76 154.6 89.76 155 89.76C155.04 89.76 155.32 89.76 155.12 89.76L155.48 89.8C155.68 89.8 155.92 89.84 156.12 89.88C156.56 89.92 156.96 90 157.4 90.08C157.6 90.12 157.8 90.16 158 90.2C158.2 90.24 157.92 90.16 158.12 90.24L158.52 90.36C158.96 90.48 159.56 90.48 159.8 90.04C160.04 89.6 159.68 89.16 159.24 89C157.36 88.44 155.36 88.16 153.4 88.24C153 88.24 152.48 88.56 152.56 89.04C152.64 89.52 153.28 89.76 153.72 89.76Z" fill="#3D3D3D"/>
<path d="M151.48 107.08C153.08 107 154.68 107.08 156.24 107.28C156.72 107.32 157.24 107.16 157.56 106.76C157.72 106.6 157.72 106.32 157.56 106.12C157.48 106.04 157.36 106 157.24 106C155.52 105.76 153.76 105.68 152.04 105.76C151.56 105.76 151.08 106.04 150.84 106.44C150.68 106.88 151.12 107.08 151.48 107.08Z" fill="#3D3D3D"/>
<path d="M161 125.119H165.52C165.88 125.119 166.44 124.799 166.32 124.359C166.2 123.919 165.6 123.719 165.16 123.719H160.64C160.28 123.719 159.72 124.039 159.84 124.479C159.96 124.919 160.56 125.119 161 125.119Z" fill="#3D3D3D"/>
<path d="M40.5596 117.323H46.7196C47.1196 117.323 46.9596 116.923 46.7996 116.683C46.5996 116.403 46.0796 115.883 45.6796 115.883H39.5596C39.1596 115.883 39.3196 116.283 39.4796 116.523C39.6796 116.803 40.1596 117.323 40.5596 117.323Z" fill="#3D3D3D"/>
<path d="M26.7199 99.0021C28.7599 98.2821 30.9199 97.8021 33.0799 97.5621C33.4799 97.5221 33.5999 97.1621 33.3199 96.8821C32.9599 96.5221 32.4799 96.3621 31.9999 96.4421C29.7199 96.7221 27.4799 97.2421 25.2799 98.0021C24.8399 98.1621 25.1599 98.6021 25.3999 98.8021C25.7599 99.0821 26.2799 99.1621 26.7199 99.0021Z" fill="#3D3D3D"/>
<path d="M38 74.1606C40.32 73.6806 42.6 73.0406 44.8 72.1606C45.24 72.0006 44.92 71.5206 44.68 71.3206C44.28 71.0406 43.76 70.9606 43.32 71.1206C41.24 71.9206 39.08 72.5606 36.88 73.0006C36.64 73.0006 36.48 73.1606 36.48 73.4006C36.48 73.5606 36.56 73.6806 36.68 73.7606C37 74.0806 37.48 74.2406 38 74.1606Z" fill="#3D3D3D"/>
<path d="M108.08 165.481C108.08 165.481 152.6 165.801 157.08 164.881C161.56 163.961 166.84 156.961 161.88 148.761C156.92 140.561 149.4 142.961 149.4 142.961C149.4 142.961 150.04 131.481 134.52 132.081C119 132.681 119.6 145.801 119.6 145.801C119.6 145.801 107.92 146.241 109.36 154.761C109.36 154.761 103.92 152.961 101.04 159.241C98.1601 165.521 108.08 165.481 108.08 165.481Z" fill="white"/>
<path d="M108.52 166.359C111.6 166.359 114.68 166.399 117.76 166.399C124.2 166.399 130.6 166.399 137.04 166.359C142.68 166.319 148.36 166.319 154 166.039C155.52 165.959 157.2 165.999 158.64 165.439C162.36 163.959 164.6 159.759 164.56 155.879C164.52 153.119 163.52 150.439 162 148.119C160.76 146.079 159.04 144.399 157 143.199C154.68 141.919 152 141.479 149.4 141.999C149.24 142.039 149.04 142.079 148.88 142.119L150.08 143.559C150.12 142.039 149.8 140.519 149.2 139.119C147.92 135.879 145.28 133.359 142 132.199C137.08 130.679 131.8 130.839 126.96 132.639C123.8 133.959 121.28 136.519 120 139.719C119.56 140.839 119.24 142.039 119.08 143.239C119.04 143.639 119 144.039 118.96 144.439C118.92 144.679 118.92 144.879 118.96 145.119C118.96 145.159 118.96 145.199 118.96 145.199L119.2 144.919C117.84 144.999 116.52 145.239 115.2 145.599C112.96 146.239 110.64 147.399 109.4 149.519C108.64 150.999 108.4 152.679 108.72 154.319L109.08 153.919C108.08 153.639 107.04 153.559 106 153.759C103.64 154.159 101.88 155.759 100.76 157.799C100.2 158.719 99.8798 159.799 99.8398 160.919C99.8798 161.959 100.28 162.919 100.92 163.719C102 165.039 103.6 165.679 105.2 166.039C106.28 166.279 107.36 166.399 108.44 166.439C109.04 166.439 108.24 164.679 107.6 164.679C106.84 164.679 106.08 164.599 105.32 164.479C104.64 164.359 104 164.199 103.36 163.999C103.04 163.879 102.68 163.759 102.36 163.599C102.32 163.599 102.12 163.479 102 163.399L101.8 163.239C101.76 163.199 101.56 163.039 101.68 163.159L101.52 162.999C101.48 162.959 101.32 162.799 101.4 162.879C101.48 162.959 101.32 162.799 101.32 162.759C101.24 162.639 101.4 162.919 101.28 162.679C101.2 162.519 101.36 162.839 101.28 162.679L101.24 162.559C101.24 162.559 101.28 162.719 101.28 162.639C101.28 162.559 101.24 162.479 101.2 162.399C101.24 162.559 101.2 162.279 101.2 162.239C101.08 161.439 101.44 160.479 101.8 159.759C102.76 157.799 104.36 156.119 106.56 155.639C107.32 155.479 108.08 155.439 108.8 155.519L109.2 155.559H109.24L109.36 155.599L109.6 155.679C109.92 155.759 110 155.519 109.96 155.279C109.72 153.959 109.88 152.559 110.48 151.359C111.04 150.359 111.84 149.519 112.8 148.919C114.56 147.839 116.56 147.159 118.6 146.919C119.08 146.839 119.52 146.799 120 146.759C120.12 146.759 120.24 146.639 120.24 146.479C120.16 141.999 122.44 137.799 126.2 135.359C128.08 134.239 130.16 133.519 132.28 133.239C134.92 132.839 137.64 132.879 140.28 133.359C142.12 133.679 143.88 134.439 145.44 135.519C145.72 135.719 145.96 135.959 146.2 136.159L146.4 136.359C146.44 136.399 146.6 136.559 146.48 136.439C146.6 136.599 146.72 136.719 146.84 136.879C146.96 137.039 147.04 137.119 147.12 137.239C146.96 137.039 147.12 137.239 147.16 137.279C147.2 137.319 147.28 137.439 147.32 137.519C147.36 137.599 147.48 137.799 147.56 137.919C147.68 138.119 147.48 137.799 147.56 137.959L147.68 138.199C147.76 138.319 147.8 138.439 147.88 138.559C147.96 138.679 148.08 139.079 148 138.799C148.08 139.079 148.2 139.319 148.28 139.599C148.32 139.719 148.36 139.839 148.4 139.959L148.44 140.159C148.44 140.119 148.4 140.039 148.44 140.199C148.48 140.439 148.52 140.639 148.56 140.879C148.6 141.239 148.64 141.599 148.68 141.959C148.68 142.039 148.68 141.799 148.68 141.999C148.68 142.039 148.68 142.119 148.68 142.159V142.399C148.68 142.439 148.68 142.439 148.68 142.479C148.64 142.999 149.28 144.119 149.88 143.919C149.72 143.959 150 143.879 149.88 143.919L150.24 143.839C150.64 143.759 151.04 143.679 151.44 143.679C152.72 143.559 154 143.719 155.24 144.079C159.4 145.319 162.48 149.399 163.08 153.639C163.6 157.559 161.72 161.759 158.12 163.599C156.68 164.319 155.08 164.359 153.52 164.439C148.16 164.719 142.8 164.719 137.48 164.759C131.12 164.799 124.72 164.839 118.36 164.799H111.28C110.12 164.799 108.92 164.719 107.76 164.799H107.6C107.04 164.599 107.88 166.359 108.52 166.359Z" fill="#CECECE"/>
<path d="M143.52 146.602C143.52 146.602 146.84 140.162 156.24 143.762L143.52 146.602Z" fill="white"/>
<path d="M144.4 146.882C144.52 146.682 144.64 146.482 144.76 146.322C144.84 146.242 144.92 146.122 144.96 146.042C144.8 146.242 145.04 145.922 145.12 145.882C145.36 145.642 145.6 145.402 145.84 145.162L146.04 145.002C146.08 144.962 146.28 144.802 146.12 144.922C146.28 144.802 146.48 144.682 146.64 144.562C146.8 144.442 147 144.362 147.16 144.242L147.48 144.082C147.52 144.082 147.64 144.002 147.48 144.082C147.56 144.042 147.64 144.042 147.68 144.002C148.64 143.602 149.72 143.402 150.76 143.402C152.44 143.442 154.12 143.802 155.72 144.442C156.2 144.642 156.76 144.442 157.04 144.042C157.24 143.682 157.08 143.242 156.76 143.082C156.72 143.042 156.64 143.042 156.6 143.002C153.72 141.922 150.48 141.362 147.52 142.362C145.8 142.922 144.24 144.002 143.12 145.442C142.92 145.682 142.72 145.962 142.56 146.242C142.04 147.322 143.92 147.802 144.4 146.882Z" fill="#CECECE"/>
<path d="M128.08 30.6422C128.08 30.6422 125.08 27.7222 120.88 28.6422C119.96 28.8022 119.16 29.2822 118.52 29.9622C116.72 31.9622 118.8 34.6422 122.08 34.6022L158.84 34.5622C161.52 34.5622 162.68 32.0422 160.52 30.8822C158 29.4822 154.68 30.6422 154.68 30.6422C154.68 30.6422 160.44 24.5622 153.64 18.2822C146.84 12.0022 136.96 18.0422 138 24.5622C138 24.5622 127.2 19.7222 128.08 30.6422Z" fill="white"/>
<path d="M128.64 30.1213C126.4 28.0013 123.28 27.1213 120.28 27.8013C118.52 28.2413 116.72 29.6813 117 31.6813C117.28 33.6813 119.04 34.8813 120.8 35.3213C121.84 35.6013 123.04 35.4813 124.16 35.4813H129.56H145.36L157.84 35.4413C159.16 35.4413 160.48 35.5213 161.6 34.6413C163.08 33.4813 162.76 31.4813 161.36 30.4013C159.76 29.1613 157.44 29.0813 155.56 29.4413C155.12 29.5213 154.68 29.6413 154.28 29.7613L155.48 31.3213C156.4 30.3213 157.08 29.1613 157.48 27.8413C158.36 25.1213 157.88 22.1613 156.2 19.8413C154.28 17.1613 151.36 15.0413 148 14.7213C145.28 14.4813 142.56 15.2813 140.4 17.0013C138.2 18.7613 136.8 21.4813 137.2 24.3213L138.2 23.6413C135.08 22.2413 130.24 21.5213 128.16 24.9213C127.16 26.5213 127.12 28.6013 127.24 30.4413C127.32 31.4013 129.08 31.9613 129 30.7213C128.88 29.2013 128.92 27.6413 129.6 26.3213C130.04 25.4813 130.76 24.8413 131.68 24.5613C131.72 24.5613 132.08 24.4413 131.88 24.4813C132 24.4413 132.08 24.4413 132.2 24.4013C132.44 24.3613 132.68 24.3213 132.92 24.3213C133.16 24.3213 133.4 24.2813 133.68 24.3213H133.88L134.28 24.3613C134.76 24.4013 135.2 24.4813 135.68 24.6013C135.88 24.6413 136.08 24.6813 136.24 24.7213L136.4 24.7613C136.2 24.6813 136.6 24.8013 136.4 24.7613L136.68 24.8413C137.12 24.9613 137.52 25.1213 137.92 25.3213C138.24 25.5213 138.68 25.4013 138.84 25.0413C138.92 24.9213 138.92 24.7613 138.92 24.6413C138.24 20.0013 143.08 16.5613 147.2 16.4813C149.92 16.4013 152.32 17.7613 154.08 19.7613C155.76 21.6413 156.48 24.0413 155.8 26.4813C155.56 27.3613 155.16 28.2013 154.64 28.9613C154.56 29.1213 154.44 29.2413 154.36 29.4013C154.48 29.2413 154.28 29.5213 154.24 29.5613C154.2 29.6013 154.08 29.7213 154 29.8413C153.32 30.5613 154.4 31.6813 155.2 31.4013C155.56 31.2813 155.88 31.2013 156.24 31.1213C157.04 30.9613 157.88 30.9213 158.68 31.0413C159.12 31.0813 159.52 31.2013 159.92 31.3613C160.12 31.4413 160.28 31.5213 160.44 31.6413C160.48 31.6813 160.68 31.8813 160.6 31.8013C160.72 31.9213 160.72 32.0813 160.68 32.2413C160.64 32.4813 160.52 32.6813 160.36 32.8413C159.56 33.6413 158.36 33.5213 157.32 33.5213H146.24H131.2H122C121.48 33.5213 120.96 33.4813 120.48 33.3213C120.16 33.2413 119.84 33.0813 119.56 32.8813C119.44 32.8013 119.32 32.7213 119.24 32.6013C119.16 32.5213 119.08 32.4013 119 32.3213C118.88 32.1613 118.8 31.9613 118.76 31.7613C118.72 31.4813 118.76 31.2013 118.92 30.9213C119.72 29.3213 121.96 29.0013 123.56 29.1613C124.92 29.3213 126.16 29.8813 127.24 30.6813L127.44 30.8413C127.6 30.9613 127.6 30.9613 127.44 30.8413C127.48 30.8813 127.52 30.9213 127.6 30.9613C127.92 31.2813 128.48 31.5213 128.84 31.1613C129.2 30.8013 128.96 30.4013 128.64 30.1213Z" fill="#CECECE"/>
<path d="M87.96 131.284C87.96 131.284 94.4 124.964 103.56 126.924C105.52 127.284 107.32 128.324 108.68 129.764C112.56 134.084 108.04 139.844 101.04 139.844L21.52 139.724C15.76 139.724 13.2 134.284 17.84 131.724C23.32 128.724 30.44 131.284 30.44 131.284C30.44 131.284 18.04 118.124 32.68 104.564C47.32 91.0037 68.76 104.004 66.52 118.124C66.44 118.124 89.88 107.644 87.96 131.284Z" fill="white"/>
<path d="M88.64 132.001C89.96 130.761 91.48 129.761 93.16 129.041C96.68 127.401 101 126.801 104.72 128.081C106.4 128.681 108.04 129.761 108.84 131.321C109.12 131.881 109.24 132.481 109.24 133.121C109.2 133.801 109 134.481 108.64 135.081C107.12 137.841 103.64 138.921 100.68 138.921C99.04 138.921 97.4 138.921 95.76 138.921H84L68.32 138.881L51.44 138.841H36.04H25.08H22.04C21.32 138.881 20.56 138.841 19.84 138.721C19.04 138.601 18.32 138.281 17.64 137.841L17.48 137.721C17.48 137.721 17.2 137.521 17.36 137.641C17.24 137.521 17.12 137.401 17 137.281C16.8 137.081 16.64 136.801 16.48 136.561C16.56 136.681 16.4 136.321 16.36 136.281C16.32 136.241 16.32 136.121 16.28 136.081C16.24 135.921 16.32 136.281 16.28 136.001C16.2 135.721 16.2 135.441 16.24 135.161C16.32 134.561 16.6 134.001 17.04 133.521C18.4 132.121 20.6 131.521 22.48 131.281C24.32 131.081 26.2 131.161 28.04 131.561C28.6 131.681 29.16 131.801 29.72 131.961L29.8 132.001L30 132.081L30.2 132.121C31.16 132.441 31.48 131.401 30.88 130.761C30.76 130.601 30.6 130.441 30.48 130.281C30.4 130.201 30.36 130.121 30.28 130.041L30.24 130.001L30.16 129.921C29.96 129.681 29.8 129.401 29.6 129.161C29.16 128.521 28.72 127.841 28.36 127.121C28.24 126.921 28.16 126.721 28.04 126.521C27.96 126.361 28.04 126.481 28.04 126.521L27.96 126.361C27.88 126.241 27.84 126.121 27.8 126.001C27.6 125.521 27.4 125.041 27.24 124.561C26.44 122.401 26.12 120.121 26.32 117.841C26.6 114.881 27.64 112.081 29.36 109.641C32.96 104.361 38.68 100.361 45.12 99.7614C50.32 99.3214 55.44 100.881 59.52 104.121C63.04 106.921 65.76 111.201 65.68 115.921C65.68 116.521 65.6 117.081 65.52 117.681C65.4 118.361 66.24 119.201 66.92 118.881C67.6 118.561 68.4 118.281 69.16 118.041C69.52 117.921 69.92 117.801 70.28 117.681L70.84 117.521L71.04 117.481L71.44 117.401C72.4 117.161 73.36 116.961 74.36 116.841C75.4 116.681 76.48 116.641 77.52 116.641C77.56 116.641 77.76 116.641 77.56 116.641H77.76L78.16 116.681C78.44 116.681 78.68 116.721 78.96 116.761C79.48 116.841 80.04 116.921 80.56 117.081L80.76 117.121C80.52 117.041 80.76 117.121 80.8 117.121L81.12 117.201C81.4 117.281 81.68 117.401 81.92 117.521C82.16 117.641 82.36 117.721 82.56 117.841C82.32 117.721 82.68 117.921 82.76 117.961C82.88 118.041 83.04 118.121 83.16 118.201C83.36 118.361 83.56 118.481 83.76 118.641C83.8 118.681 84 118.841 83.76 118.641L83.92 118.801C84.04 118.921 84.16 119.041 84.28 119.161C84.48 119.361 84.64 119.561 84.8 119.761C84.84 119.801 85 120.001 84.8 119.761L84.92 119.961C85 120.081 85.12 120.241 85.2 120.361C85.4 120.641 85.56 120.961 85.72 121.281C85.84 121.521 85.64 121.081 85.76 121.361C85.8 121.441 85.84 121.561 85.88 121.681C85.96 121.841 86 122.001 86.08 122.161C86.36 122.921 86.6 123.681 86.72 124.481C87.08 126.601 87.16 128.761 86.96 130.881C86.92 131.401 87.24 131.881 87.72 132.081C88.08 132.241 88.68 132.121 88.72 131.641C89 127.961 88.88 124.081 87.16 120.721C86 118.441 84.04 116.681 81.64 115.761C77.52 114.201 72.84 114.961 68.76 116.201C67.76 116.481 66.76 116.841 65.8 117.241L67.2 118.441C68 113.201 65.72 108.041 62 104.361C57.92 100.361 52.52 98.0815 46.84 97.9215C43.88 97.8415 40.96 98.4014 38.24 99.5614C35 101.001 32.08 103.161 29.76 105.881C27.44 108.521 25.64 111.561 24.84 114.961C24.28 117.561 24.32 120.281 24.96 122.881C25.48 124.961 26.32 126.961 27.44 128.801C28.04 129.841 28.72 130.801 29.56 131.721C29.6 131.761 29.64 131.801 29.68 131.841L30.36 130.481C27.6 129.521 24.64 129.201 21.76 129.521C18.4 129.921 13.44 131.881 14.52 136.121C15.32 139.241 18.76 140.641 21.68 140.641H23.28H32.56H47.36L64.64 140.681L81.4 140.721H94.52H100.96C103.44 140.801 105.92 140.041 107.96 138.601C109.32 137.641 110.32 136.201 110.72 134.561C111.04 132.921 110.64 131.201 109.6 129.841C106.8 126.121 101.72 125.161 97.32 125.761C94.08 126.241 90.96 127.521 88.36 129.521C87.92 129.841 87.52 130.161 87.12 130.521C86.52 131.281 87.92 132.721 88.64 132.001Z" fill="#CECECE"/>
<path d="M69.6402 184.596C69.6402 184.596 56.6802 178.156 56.6802 177.436C56.6802 176.716 70.8002 161.916 72.0802 161.996C73.3602 162.076 81.6002 170.716 81.6002 170.716L69.6402 184.596Z" fill="#3D3D3D"/>
<path d="M70.4401 183.998C67.4801 182.518 64.5601 181.038 61.6401 179.438C60.2401 178.758 58.9201 177.958 57.6401 177.038C57.6001 176.998 57.6001 176.998 57.5601 176.958C57.5601 176.958 57.6001 177.038 57.6001 176.998C57.6401 176.878 57.5601 177.238 57.6001 177.198C57.6401 177.078 57.4401 177.398 57.6001 177.238C57.6401 177.158 57.6801 177.118 57.7601 177.038C57.8801 176.838 58.0401 176.678 58.2001 176.478L58.4801 176.158C58.5601 176.038 58.3601 176.278 58.5201 176.118L58.7201 175.918C61.4801 172.758 64.4401 169.718 67.4401 166.758C68.1601 166.038 68.8801 165.358 69.6401 164.678C69.9601 164.358 70.2801 164.078 70.6001 163.798C70.7201 163.678 70.8801 163.558 71.0001 163.438L71.2001 163.238C71.2401 163.198 71.4401 163.038 71.3201 163.118C71.2001 163.198 71.4001 163.078 71.4001 163.038L71.5601 162.918L71.8801 162.678C71.9601 162.638 72.0401 162.558 72.1201 162.518C72.2801 162.398 71.8801 162.678 72.0401 162.558C72.0801 162.558 72.1201 162.518 72.1601 162.518C72.0001 162.598 71.8401 162.638 71.6401 162.638H71.5601C71.6001 162.638 71.7201 162.718 71.6001 162.638C71.8401 162.798 72.1201 162.958 72.3201 163.118C73.9601 164.438 75.5201 165.838 76.9601 167.358C78.2001 168.558 79.4001 169.798 80.6001 171.038L80.8001 171.238L80.9201 170.478L76.8801 175.158L70.4401 182.638L68.9601 184.398C68.7201 184.678 68.5201 185.038 68.9601 185.238C69.4401 185.318 69.9201 185.158 70.2801 184.798L74.3201 180.118L80.7601 172.638L82.2401 170.878C82.4401 170.638 82.6001 170.398 82.3601 170.118C79.9201 167.438 77.2801 164.918 74.5601 162.518C74.0801 162.038 73.4801 161.638 72.8401 161.358C72.2001 161.158 71.5601 161.518 71.0401 161.838C69.7601 162.798 68.5601 163.838 67.4401 164.998C64.2001 168.078 61.0801 171.318 58.0801 174.638C57.5601 175.238 57.0401 175.838 56.5201 176.438C56.2001 176.758 55.9601 177.118 55.8001 177.478C55.6401 177.918 56.0801 178.198 56.4001 178.438C57.0401 178.878 57.6801 179.278 58.3601 179.638C61.7201 181.558 65.1601 183.278 68.6001 184.998L68.8401 185.118C69.2801 185.278 69.7601 185.198 70.1201 184.918C70.3201 184.798 70.8801 184.238 70.4401 183.998Z" fill="#3D3D3D"/>
<path d="M64.48 174.796L60.48 163.636C60.48 163.636 69.32 155.316 71.24 152.156L76 166.996L64.48 174.796Z" fill="white"/>
<path d="M65.3999 174.397L61.8799 164.597L61.3999 163.197L61.1999 163.517C64.2399 160.677 67.2399 157.757 69.9599 154.637C70.7199 153.797 71.4399 152.877 72.0799 151.917L70.2799 152.437L74.44 165.437L75.04 167.277L75.3999 166.837L65.3199 173.677L63.8799 174.637C63.6799 174.757 63.3199 175.077 63.7199 175.197C64.1199 175.317 64.76 174.997 65.04 174.797L75.1199 167.957L76.5599 166.997C76.6799 166.917 76.9599 166.757 76.92 166.557L72.7599 153.597L72.1599 151.757C71.9999 151.277 70.5199 152.037 70.3599 152.277C69.1999 154.197 67.4799 155.877 65.9199 157.517C64.2799 159.237 62.5599 160.957 60.7999 162.597C60.4399 162.957 60.0799 163.317 59.6799 163.637C59.5999 163.717 59.4399 163.837 59.4799 163.957L62.9999 173.757L63.4799 175.157C63.7199 175.557 65.5999 174.877 65.3999 174.397Z" fill="#3D3D3D"/>
<path d="M69.1598 166.557C69.1598 166.557 68.0798 163.717 68.1998 163.397C68.3198 163.077 75.2798 157.277 75.2798 157.277C75.2798 157.277 81.9998 169.277 81.6398 170.637C81.2798 171.997 71.0798 184.317 69.6798 184.557C68.2798 184.797 62.8398 175.397 62.8398 174.557C62.8398 173.717 69.1598 166.557 69.1598 166.557Z" fill="#CECECE"/>
<path d="M70.0802 166.357C69.7602 165.517 69.4802 164.717 69.2402 163.837C69.2002 163.757 69.2002 163.637 69.1602 163.557C69.1602 163.517 69.1602 163.477 69.1602 163.437C69.1202 163.357 69.2002 163.397 69.1602 163.397C69.1602 163.397 69.0002 163.597 69.1602 163.437C69.3202 163.277 69.6002 163.037 69.8002 162.837C71.4002 161.397 73.0402 160.037 74.6802 158.677L76.1202 157.477L74.2802 157.437C76.0802 160.677 77.8402 163.917 79.4002 167.277C79.8002 168.117 80.1602 168.957 80.4402 169.837C80.5202 170.037 80.5602 170.277 80.6002 170.477C80.6002 170.517 80.6002 170.557 80.6002 170.597C80.6002 170.637 80.6402 170.437 80.6002 170.557C80.5602 170.677 80.5202 170.717 80.4802 170.797C79.7202 172.277 78.5202 173.557 77.4802 174.917C75.9202 176.877 74.3202 178.757 72.6402 180.637C71.9602 181.397 71.2402 182.197 70.4802 182.917C70.2002 183.197 69.9202 183.437 69.6402 183.717L69.2802 183.997C69.4802 183.837 69.1602 184.037 69.1202 184.117C68.9602 184.237 69.2402 184.077 69.2002 184.077C69.3202 184.077 69.4402 184.037 69.5602 183.997C69.6802 183.997 69.8402 183.997 69.9602 184.037C69.8402 183.997 70.1602 184.117 70.0402 184.077C70.0402 184.077 70.0002 184.037 69.9602 184.037C69.8002 183.997 70.0402 184.077 69.9602 184.037C69.6802 183.837 69.4002 183.597 69.2002 183.317C68.5202 182.517 67.8802 181.637 67.2802 180.757C66.0002 178.957 64.8802 177.037 63.9202 175.037C63.8802 174.917 63.8002 174.797 63.7602 174.677C63.7602 174.637 63.7202 174.597 63.7202 174.517C63.7602 174.597 63.7602 174.637 63.7202 174.517C63.6802 174.437 63.7202 174.477 63.6802 174.557C63.6802 174.517 63.7202 174.477 63.7202 174.437C63.8002 174.317 63.8402 174.197 63.9202 174.077C64.4402 173.277 65.0002 172.557 65.6002 171.837C66.9202 170.197 68.2802 168.597 69.6402 167.037L69.9202 166.717C70.2402 166.397 69.8802 166.117 69.5202 165.997C69.1202 165.877 68.4802 165.917 68.1602 166.237C67.0002 167.517 65.8802 168.837 64.8002 170.157C64.0402 171.077 63.2802 171.997 62.5602 172.957C62.2402 173.357 61.6002 174.037 61.6802 174.597C61.7602 175.277 62.2802 176.037 62.6002 176.597C63.1602 177.677 63.8002 178.717 64.4402 179.757C65.0802 180.837 65.8002 181.877 66.5602 182.877C67.0802 183.557 67.6802 184.397 68.4802 184.797C70.1202 185.637 71.5602 183.837 72.6002 182.797C74.3202 180.997 75.9602 179.117 77.5202 177.197C78.9602 175.437 80.4002 173.677 81.6802 171.837C81.9602 171.437 82.4002 170.957 82.4402 170.437C82.4802 169.837 82.1602 169.197 81.9602 168.637C81.0402 166.437 80.0402 164.317 78.9202 162.237C78.0402 160.557 77.1202 158.877 76.2002 157.197L76.0402 156.917C75.7202 156.357 74.6002 156.517 74.2002 156.877C72.9202 157.917 71.6402 158.997 70.4002 160.077C69.5602 160.797 68.7602 161.477 67.9602 162.197C67.6002 162.557 66.9602 162.917 67.0402 163.517C67.2802 164.557 67.6002 165.597 68.0402 166.597C68.4402 167.397 70.4002 167.157 70.0802 166.357Z" fill="#3D3D3D"/>
<path d="M20.8799 83.9177C19.3599 84.2377 17.8799 84.7576 16.4799 85.4776C13.6399 86.8776 11.0799 88.9977 9.63989 91.8377C7.43989 96.1177 8.15989 101.118 9.75989 105.478C11.9199 111.398 15.6799 116.598 19.9999 121.118C24.0799 125.398 28.7199 129.118 33.3999 132.718C37.4399 135.798 41.5999 138.718 45.3199 142.198C47.8399 144.558 50.5999 147.518 50.9199 151.118C51.0399 152.758 50.6799 154.358 49.9199 155.798C49.4799 156.598 48.7999 157.398 47.7999 157.438C47.6399 157.438 47.4799 157.438 47.3199 157.398C47.1599 157.318 47.4799 157.438 47.3199 157.398C47.1999 157.358 47.5599 157.518 47.3999 157.438C47.4799 157.478 47.5599 157.518 47.6799 157.598C47.5199 157.518 47.8399 157.718 47.7599 157.638L47.6399 157.558C47.5599 157.478 47.7199 157.638 47.5999 157.518C47.4799 157.398 47.3599 157.278 47.2399 157.158C46.8399 156.638 46.4799 155.918 46.6399 155.238C46.7999 154.438 47.6399 154.238 48.3599 154.238C50.0799 154.238 51.7599 155.038 53.1999 155.758C54.5199 156.398 55.8399 157.158 57.1199 157.958C57.2799 158.038 58.0799 158.558 58.2799 158.438C58.4799 158.318 57.8399 157.998 57.7599 157.918C55.1599 156.318 52.4799 154.798 49.5999 153.798C48.4399 153.398 46.8799 152.878 45.6799 153.398C43.9599 154.158 45.3999 156.318 46.3199 157.038C47.2399 157.758 48.5599 158.558 49.7599 158.358C50.8399 158.158 51.5199 157.158 51.9199 156.238C52.5999 154.718 52.8399 153.038 52.5999 151.358C52.2799 149.678 51.5599 148.118 50.5199 146.798C47.8399 143.078 43.9999 140.198 40.3999 137.438C35.7999 133.878 31.0799 130.478 26.7199 126.638C22.0799 122.558 17.7599 117.998 14.5999 112.638C11.7199 107.838 9.19989 101.878 10.2799 96.1576C10.9599 92.5976 13.1599 89.6377 16.1599 87.6377C17.9999 86.3977 20.0799 85.4776 22.2399 84.9576L22.5999 84.8776C22.7999 84.8376 22.1199 84.3976 22.0799 84.3576C21.7999 84.1976 21.2799 83.7976 20.9599 83.8776L20.8799 83.9177Z" fill="#3D3D3D"/>
<path d="M44.4 38.0001C44.48 37.3201 44.32 36.6401 44.4 35.9601C44.4 35.7201 44.48 35.5201 44.64 35.3201C44.72 35.2401 44.68 35.2801 44.8 35.2001C44.68 35.2401 44.96 35.2001 44.84 35.2001C45.92 35.1201 46.72 36.1601 47.32 37.0001C47.4 37.0801 47.44 37.1601 47.48 37.2801C47.52 37.4001 47.56 37.6001 47.6 37.6801C47.72 37.8801 48.32 37.5201 48.32 37.4401C48.32 37.3601 48.2 37.3201 48.2 37.2401C48.04 36.6801 48.76 36.2401 49.12 35.9601C49.48 35.6801 49.72 35.5201 50.16 35.7601C50.72 36.0801 51.08 36.7201 51.36 37.2401C51.6 37.6401 52.12 37.7601 52.52 37.5601C52.8 37.4801 53.48 37.0401 53.28 36.6001C52.88 35.8401 52.44 35.0401 51.68 34.5601C50.84 34.0401 49.76 34.0001 48.88 34.4401C48.08 34.8001 47.4 35.3201 46.84 35.9601C46.32 36.6001 46 37.6001 46.64 38.2801C47.28 38.9601 48.68 38.8001 49.28 38.0801C49.88 37.3601 49.56 36.6001 49.08 35.9601C48.12 34.6001 46.76 33.4401 45 33.6801C44.04 33.7601 43.2 34.3601 42.72 35.2001C42.28 36.1201 42.6 37.1201 42.48 38.1201C42.36 39.1201 44.28 38.8801 44.4 38.0001Z" fill="#3D3D3D"/>
<path d="M64.4401 25.3226C64.4401 24.7226 64.4401 24.0026 64.8801 23.5226C65.0001 23.4026 65.1201 23.2826 65.2801 23.2026L65.4001 23.1626C65.6401 23.0826 65.5201 23.0826 65.0801 23.2426C65.2001 23.3226 65.4001 23.3226 65.5201 23.4026C65.6401 23.4826 65.7601 23.5626 65.8801 23.6426C66.2401 24.0426 66.4801 24.5226 66.6401 25.0026C66.7201 25.2826 66.8001 25.5626 66.8801 25.8426C66.9201 26.0026 66.9201 26.5226 66.7201 26.6026L67.9201 26.3226C68.2001 26.2826 67.8801 26.1626 67.8001 26.0026C67.7201 25.8826 67.7201 25.7226 67.6801 25.6026C67.6801 25.2426 67.8001 24.9226 68.0001 24.6826C68.4401 24.2026 69.0001 23.8026 69.6001 23.5226C69.6801 23.4826 69.7201 23.4826 69.8001 23.4426C69.2401 23.5226 69.0801 23.5226 69.3201 23.5626C69.4801 23.5626 69.6001 23.6026 69.7601 23.6426C70.0401 23.7226 70.2801 23.9226 70.4801 24.2026C70.7601 24.7626 70.9201 25.3626 70.8801 25.9626C70.8801 26.0826 72.8401 25.8826 72.8401 25.5626C72.8001 24.8826 72.7601 24.0826 72.2401 23.5626C71.7201 23.0426 70.8801 23.0026 70.1601 23.0826C69.1601 23.2026 68.2001 23.5226 67.3201 24.0426C66.6801 24.4426 66.0001 24.8426 65.7601 25.6026C65.6401 25.9226 65.6801 26.2426 65.8801 26.5226C66.1201 26.8026 66.5201 26.9226 66.8801 26.8426C67.6401 26.7626 68.9201 26.6026 68.8801 25.6026C68.8001 24.9226 68.6001 24.2426 68.2401 23.6426C67.8801 23.0426 67.2801 22.6826 66.6001 22.7226C65.5201 22.6826 64.4001 22.9626 63.4801 23.5226C62.7201 24.0426 62.6001 24.9226 62.6001 25.7626C62.6001 25.9226 63.5201 25.7226 63.6001 25.7226C63.6801 25.7226 64.4401 25.5226 64.4401 25.3226Z" fill="#3D3D3D"/>
<path d="M89.7998 27.1581C95.4398 25.6381 100.28 22.0381 103.36 17.0781L113.76 22.2381C113.76 22.2381 108.12 30.9181 99.9198 32.9181L89.7998 27.1581Z" fill="#CECECE"/>
<path d="M90.1599 28.0403C91.2799 27.7603 92.3599 27.4003 93.3999 26.9203C95.9599 25.8003 98.3199 24.2003 100.4 22.2803C101.88 20.8803 103.2 19.2403 104.24 17.4803L102.96 17.8803L112.12 22.4003L113.4 23.0403L112.84 21.8003C113.08 21.4403 112.88 21.7203 112.8 21.8403C112.64 22.0403 112.48 22.2803 112.32 22.4803C111.76 23.2403 111.16 23.9603 110.56 24.6403C108.76 26.6803 106.68 28.4803 104.4 29.9203C102.88 30.8403 101.28 31.5603 99.5599 32.0003L100.32 32.0403L91.4399 27.0403L90.1999 26.3203C89.7199 26.0803 89.1599 26.2803 88.9199 26.7203C88.7199 27.2003 88.9599 27.7603 89.4399 27.9603L98.5599 33.0803C98.9199 33.3203 99.3199 33.5203 99.7199 33.7203C100.16 33.8803 100.72 33.6403 101.16 33.5203C101.6 33.4003 101.96 33.2803 102.36 33.1203C103.16 32.8003 103.96 32.4403 104.72 32.0403C107.32 30.5603 109.64 28.6803 111.64 26.4803C112.76 25.2803 113.8 24.0003 114.72 22.6003C115 22.1603 114.56 21.5603 114.16 21.3603L105.04 16.8403L103.76 16.2003C103.28 15.9603 102.72 16.1603 102.48 16.6003C100.8 19.2803 98.5599 21.6003 95.9199 23.3203C94.2399 24.4403 92.4399 25.3203 90.5199 25.9203C90.1599 26.0403 89.7999 26.1203 89.4399 26.2003C88.9999 26.3203 88.7599 26.8003 88.8799 27.2403C88.8799 27.2803 88.9199 27.3203 88.9199 27.3603C89.1199 27.9203 89.6799 28.1603 90.1599 28.0403Z" fill="#3D3D3D"/>
<path d="M109.04 38.5209C112.64 42.8809 114.56 48.4009 114.4 54.0409C114.36 55.6809 114.12 57.2809 113.76 58.8809C113.48 59.9609 115.28 60.6009 115.56 59.3609C116.96 53.4009 116.12 47.1609 113.28 41.7209C112.48 40.2409 111.56 38.8009 110.48 37.5209C110.16 37.1609 109.68 36.8809 109.2 37.1609C108.76 37.5209 108.72 38.0809 109.04 38.5209Z" fill="#3D3D3D"/>
<path d="M112.56 62.0805V62.1605L112.52 61.9605C112.56 62.2805 112.56 62.6405 112.48 63.0005L112.52 62.8005C112.48 63.0405 112.36 63.2805 112.24 63.5205C112.16 63.7205 112.2 63.9205 112.32 64.0805C112.48 64.2805 112.68 64.4005 112.92 64.4405C113.16 64.5205 113.44 64.4805 113.68 64.4005C113.88 64.3205 114.04 64.1605 114.16 63.9605C114.32 63.6005 114.44 63.2405 114.52 62.8805C114.56 62.5205 114.56 62.1205 114.48 61.7205C114.44 61.5205 114.2 61.3205 114.04 61.2405C113.8 61.1205 113.52 61.0805 113.28 61.1205C113.04 61.1605 112.84 61.2805 112.68 61.4405L112.56 61.6005C112.52 61.8005 112.52 61.9605 112.56 62.0805Z" fill="#3D3D3D"/>
<path d="M183.36 54.8404C187.92 59.5604 189.76 66.2804 189.76 72.6804C189.72 76.4804 189.2 80.2404 188.28 83.9204C187.48 87.4404 186.4 90.8804 185 94.2004C183.72 97.2004 181.96 100.12 179.44 102.24C177.2 104.16 174.28 105.6 171.28 105.48C168.64 105.4 166.12 104.12 164.52 102C163.72 100.96 163.28 99.7204 163.24 98.4404C163.24 97.8804 163.4 97.3204 163.68 96.8404C163.92 96.4804 164.24 96.2004 164.6 96.2404C165.2 96.3604 165.76 96.9204 166.16 97.3604C166.6 97.8404 166.96 98.3604 167.24 98.9204C167.84 100.12 168.04 101.52 167.88 102.84C167.44 105.56 165.32 107.68 162.64 108.2C161.96 108.32 161.32 108.32 160.64 108.24C160.2 108.16 159.8 108.44 159.72 108.88C159.72 108.92 159.72 108.96 159.72 109C159.72 109.52 160.28 109.8 160.72 109.88C164 110.32 167.24 108.72 168.96 105.88C170.52 103 170.16 99.4804 168.12 96.9604C167.04 95.6404 165.32 94.2404 163.52 94.7604C162.08 95.2004 161.44 96.7604 161.36 98.1204C161.28 99.6404 161.92 101.2 162.72 102.44C163.64 103.76 164.84 104.84 166.24 105.64C169.24 107.28 172.76 107.6 176 106.4C179.36 105.24 182.16 102.8 184.2 99.9604C186.4 96.8004 187.8 93.1604 188.92 89.5204C190.2 85.5204 191.12 81.3604 191.6 77.2004C192.4 69.8004 191.2 61.8404 186.56 55.8004C186 55.1204 185.44 54.4404 184.8 53.8004C183.96 53.0404 182.44 53.9204 183.36 54.8404Z" fill="#3D3D3D"/>
<path d="M183 44.6404C183 44.6404 188.32 41.3604 187.96 41.0404C187.6 40.7204 168.6 35.1604 168.48 36.8804C168.36 38.6004 172.32 48.5604 173.28 48.5204C174.24 48.4804 176.88 47.3604 176.88 47.3604C176.88 47.3604 181.44 52.4804 181.88 52.3204C182.32 52.1604 183 44.6404 183 44.6404Z" fill="white"/>
<path d="M183.6 45.4006C184.84 44.6406 186.08 43.8406 187.28 43.0006C187.8 42.6406 188.6 42.2006 188.88 41.5606C189.2 40.7606 188.44 40.2406 187.84 40.0406C186.8 39.6406 185.72 39.3606 184.64 39.0406C182.84 38.5206 181.04 38.0006 179.24 37.5606C177.36 37.0806 175.44 36.6006 173.56 36.2406C172.16 35.8806 170.72 35.7206 169.32 35.6406C168.84 35.6006 168.36 35.7206 167.96 35.9606C167.48 36.3606 167.6 37.0006 167.72 37.5606C168.16 39.4006 168.72 41.2406 169.48 42.9606C170.12 44.7606 170.96 46.5206 171.96 48.2006C172.32 48.7606 172.8 49.3606 173.52 49.4006C174.04 49.3606 174.56 49.2806 175.08 49.0806C175.64 48.8806 176.24 48.6806 176.76 48.4806C177 48.3606 177.28 48.2806 177.52 48.1606L176.24 47.7606C176.88 48.4806 177.52 49.2006 178.16 49.8806C179.04 50.8806 179.96 51.8006 180.96 52.6406C181.4 53.0006 182 53.4006 182.56 53.0806C182.96 52.8406 183.04 52.2806 183.16 51.8806C183.4 50.6006 183.6 49.2806 183.68 47.9606C183.8 46.9206 183.88 45.9206 183.96 44.8806C184.04 43.8406 182.2 43.1606 182.12 44.3606C181.96 46.3606 181.76 48.4006 181.44 50.4006C181.4 50.6406 181.36 50.9206 181.32 51.1606C181.32 51.2806 181.28 51.3606 181.24 51.4806C181.28 51.2406 181.24 51.5206 181.2 51.5606C181.16 51.6006 181.16 51.6806 181.16 51.7206C181.16 51.6006 181.52 51.4006 181.76 51.4006C181.84 51.4006 182.28 51.6006 182.04 51.4406C181.88 51.3606 182.24 51.6006 182 51.4006C181.12 50.6406 180.28 49.8006 179.48 48.9206L178.72 48.1206C178.6 48.0006 178.88 48.2806 178.68 48.0806L178.52 47.8806L178.2 47.5606C178 47.3606 177.8 47.1206 177.6 46.9206C177.32 46.4806 176.76 46.3206 176.32 46.5206C175.64 46.8006 175 47.0406 174.24 47.2806C174 47.3606 173.8 47.4006 173.56 47.4806C173.44 47.5206 173.36 47.5206 173.24 47.5606C173.2 47.5606 173.16 47.5606 173.12 47.5606C173 47.6006 173.2 47.5606 173.12 47.5606C173.24 47.6006 173.36 47.6406 173.48 47.6406C173.4 47.6006 173.72 47.8406 173.6 47.7206C173.48 47.6006 173.6 47.7206 173.64 47.8006C173.6 47.7606 173.56 47.7206 173.52 47.6806L173.32 47.4006L173.2 47.2006C173.16 47.1606 173.04 46.9606 173.12 47.0806C173.2 47.2006 173.04 46.9606 173.04 46.9206L172.92 46.6806C172.84 46.5206 172.72 46.3206 172.64 46.1606C172.24 45.3206 171.84 44.4806 171.48 43.6006C171.08 42.6806 170.72 41.7206 170.4 40.8006C170.12 40.0006 169.84 39.1606 169.64 38.4806C169.56 38.1606 169.48 37.8406 169.4 37.5206C169.36 37.4006 169.36 37.2806 169.36 37.1606C169.32 36.9206 169.32 37.2806 169.36 37.0806C169.32 37.1606 169.32 37.2806 169.24 37.3606C169.24 37.3606 169.04 37.5206 169.2 37.4006C169.04 37.4406 169.04 37.5206 169.2 37.4006C169.24 37.4006 169.28 37.4006 169.32 37.4006C169.48 37.3606 169.16 37.4006 169.28 37.4006C169.76 37.4006 170.24 37.4406 170.72 37.4806L171.16 37.5206L171.4 37.5606L171.56 37.6006L171.76 37.6406L172.04 37.6806L172.6 37.7606C174.32 38.0806 176.04 38.4806 177.72 38.9206C180.76 39.6806 183.76 40.4806 186.76 41.4406L187.32 41.6406L187.52 41.7206C187.6 41.7606 187.76 41.7606 187.56 41.7206C187.36 41.6806 187.48 41.6806 187.56 41.7206C187.36 41.6006 187.32 41.4806 187.2 41.0806C187.72 42.6806 187.08 40.3206 187.04 40.6006C187.08 40.3206 187.16 40.4406 187.08 40.5206C187 40.6006 186.92 40.6406 186.88 40.7206L186.72 40.8406C186.64 40.9206 186.76 40.8006 186.76 40.8006L186.6 40.9206C185.36 41.8806 184 42.7606 182.64 43.6006L182.32 43.8006C181.44 44.4006 182.68 45.9606 183.6 45.4006Z" fill="#3D3D3D"/>
<path d="M171.88 39.4807C171.88 39.4807 180.6 45.4407 180.88 45.8807C181.16 46.3207 181.92 52.3207 181.92 52.3207" fill="white"/>
<path d="M171.96 40.2817C173.88 41.6017 175.8 42.9217 177.72 44.2817C178.32 44.6817 178.88 45.1217 179.48 45.5217L179.64 45.6417C179.76 45.7217 179.48 45.5217 179.68 45.6817L180 45.9217C180.16 46.0417 180.32 46.1617 180.48 46.3217C180.64 46.4817 180.84 46.6817 180.56 46.4017C180.56 46.4017 180.28 45.9217 180.32 46.0417C180.16 45.7217 180.28 45.8817 180.28 45.9617C180.28 46.0417 180.32 46.1617 180.36 46.2417C180.44 46.6017 180.44 46.6417 180.48 46.9617C180.52 47.2817 180.6 47.7217 180.68 48.0817C180.88 49.3617 181.04 50.6817 181.24 51.9617C181.28 52.4417 181.56 52.8817 182 53.1617C182.36 53.3617 182.68 53.2017 182.64 52.7617C182.48 51.6017 182.32 50.4417 182.16 49.2817C182.04 48.4817 181.92 47.6817 181.76 46.8817C181.72 46.3217 181.48 45.8017 181.16 45.3617C180.88 45.0417 180.56 44.8017 180.2 44.5617C179.6 44.1217 179.04 43.7217 178.44 43.2817C177.08 42.3217 175.76 41.4017 174.4 40.4417L171.88 38.6817C171.52 38.4417 171.24 38.6817 171.24 39.0817C171.24 39.6017 171.52 40.0417 171.96 40.2817Z" fill="#3D3D3D"/>
<path d="M174.6 48.8007L180.36 46.8807L181.2 46.6007C181.68 46.4407 181.96 45.9207 181.8 45.4407C181.6 44.9607 181 44.9207 180.56 45.0807L174.8 46.9607L173.96 47.2407C173.48 47.4007 173.2 47.9207 173.36 48.4007C173.6 48.9207 174.16 48.9207 174.6 48.8007Z" fill="#3D3D3D"/>
<path d="M172.52 40.082L181.8 44.082L183.12 44.642C183.52 44.802 183.04 44.282 183 44.242C182.68 43.922 182.28 43.642 181.88 43.442L172.6 39.442L171.28 38.882C170.88 38.722 171.36 39.242 171.4 39.322C171.72 39.642 172.08 39.922 172.52 40.082Z" fill="#3D3D3D"/>
</svg>
