<svg width="200" height="200" viewBox="0 0 200 200" fill="none" xmlns="http://www.w3.org/2000/svg">
<path d="M51.2918 144.167C51.2918 144.167 41.1252 59.7501 48.3335 57.6251C55.5418 55.5001 74.8752 57.0418 80.4168 57.0418C85.9585 57.0418 88.2918 63.1251 88.2918 63.1251C88.2918 63.1251 138.959 64.7501 142.625 65.7501C146.292 66.7501 131.209 144.208 131.209 144.208L51.2918 144.167Z" fill="#3D3D3D"/>
<path d="M52.0833 144.375C51.9166 143.083 51.7916 141.792 51.625 140.5C51.25 137.167 50.875 133.792 50.5416 130.458C50.0416 125.708 49.5833 120.958 49.125 116.208C48.625 110.833 48.1666 105.458 47.7916 100.042C47.4166 94.7082 47.0416 89.3332 46.8333 84.1249C46.625 79.5416 46.5 74.9166 46.625 70.3332C46.6666 68.5416 46.75 66.7499 46.9166 64.9582C47 64.2499 47.0833 63.4999 47.1666 62.7916C47.2083 62.6249 47.2083 62.4582 47.25 62.3332C47.25 62.2499 47.25 62.1666 47.2916 62.1249L47.3333 61.9999C47.2916 62.1666 47.375 61.7916 47.3333 61.9999C47.375 61.7082 47.4583 61.4582 47.5 61.1666C47.625 60.6666 47.75 60.2082 47.9583 59.7499C48 59.6666 48.0416 59.5832 48.0833 59.4999C48.125 59.4166 48.125 59.4166 48.1666 59.3749C48.0416 59.5416 48.2083 59.3332 48.1666 59.3749C48.25 59.2499 48.3333 59.0832 48.4583 58.9582C48.5 58.9166 48.5416 58.8749 48.5833 58.7916C48.625 58.7082 48.4583 58.8749 48.6249 58.7499L48.7916 58.6666C48.8333 58.6666 48.8333 58.6249 48.875 58.6249C49 58.5416 48.7499 58.6666 48.8333 58.6249C50.0416 58.2916 51.2916 58.0832 52.5416 57.9166C55.8333 57.5832 59.1666 57.4582 62.5 57.4999C66 57.4999 69.5 57.6249 73 57.7499C75.5416 57.8332 78.0833 57.9999 80.6666 57.9999C82.125 57.9582 83.5 58.4166 84.7083 59.2499C85.25 59.6249 85.7083 60.0832 86.125 60.5832C86.3333 60.8332 86.5 61.0416 86.7083 61.2916C86.75 61.3332 86.875 61.4999 86.75 61.3332L86.8333 61.4999C86.9166 61.6249 87 61.7916 87.0833 61.9166C87.2916 62.2499 87.4583 62.6249 87.6666 62.9999C87.7916 63.2082 87.5833 62.7916 87.625 62.9582C87.625 62.9999 87.6666 63.0416 87.6666 63.0832L87.7083 63.2082C87.8333 63.7082 88.25 64.0416 88.75 64.0832C91.375 64.1666 94.0416 64.2499 96.6666 64.3332C102.542 64.5416 108.417 64.7499 114.292 64.9999C120.458 65.2499 126.625 65.4999 132.792 65.8749C135.042 65.9999 137.083 66.1249 139.333 66.2916C140.083 66.3332 140.833 66.4166 141.542 66.4999C141.958 66.5416 142.375 66.6666 142.833 66.7082C143.042 66.7082 142.625 66.6249 142.792 66.6666C142.5 66.4999 142.583 66.4999 142.667 66.5832C142.667 66.5832 142.417 66.3332 142.542 66.4582C142.375 66.2499 142.375 66.2082 142.458 66.3749C142.25 65.9582 142.375 66.2082 142.417 66.3332C142.375 66.0416 142.5 66.5832 142.417 66.3332C142.417 66.4166 142.458 66.4999 142.458 66.6249C142.5 66.8332 142.5 67.0832 142.542 67.2916C142.542 67.3332 142.542 67.4166 142.542 67.4582C142.542 67.0832 142.542 67.3749 142.542 67.4582V67.9166C142.542 68.2499 142.542 68.5416 142.542 68.8749C142.542 69.6666 142.458 70.4582 142.417 71.2499C142.083 75.8332 141.458 80.4166 140.792 84.9582C139.958 90.9582 138.958 96.9166 137.958 102.833C136.958 108.875 135.875 114.917 134.792 121C134.292 123.708 133.833 126.375 133.333 129.083C133.125 130.25 132.917 131.458 132.667 132.625C132.542 133.292 132.5 133.542 132.375 134.125L132.083 135.625C131.625 138.167 131.125 140.708 130.625 143.208C130.583 143.333 130.583 143.417 130.542 143.542L130.958 143.208H54.2916C53.25 143.208 52.2083 143.125 51.1666 143.208H51.0416C50.5416 143.208 50.5833 143.958 50.6666 144.25C50.7916 144.75 51.2083 145.083 51.7083 145.125H128.333C129.375 145.125 130.417 145.167 131.458 145.125H131.583C131.792 145.083 131.958 144.958 132 144.792C132.333 143 132.708 141.167 133.042 139.375C133.917 134.792 134.75 130.25 135.583 125.667C136.667 119.708 137.75 113.75 138.75 107.75C139.792 101.625 140.833 95.4999 141.75 89.3749C142.5 84.3749 143.208 79.3749 143.708 74.2916C143.875 72.6249 144 70.9166 144.042 69.2499C144.042 68.2082 144.083 67.0416 143.708 66.0416C143.542 65.4582 143.125 64.9999 142.542 64.7916C142.125 64.7082 141.708 64.6249 141.292 64.6249C139.583 64.4166 137.833 64.2916 136.083 64.2082C130.292 63.8332 124.5 63.5832 118.708 63.3332C112.417 63.0416 106.125 62.7916 99.8333 62.5832C96.0833 62.4582 92.2916 62.3332 88.5416 62.2082H88L89.0416 63.0832C88.2916 61.1249 87.0416 59.4166 85.4583 58.0832C84.1666 56.9999 82.5833 56.2916 80.875 56.1249C79.75 56.0416 78.5833 56.0832 77.4583 56.0416C70.7499 55.7916 64.0416 55.4166 57.2916 55.6249C54.375 55.7082 51.375 55.8332 48.5 56.5832C48 56.6666 47.5416 56.8749 47.1666 57.2082C46.9166 57.4999 46.6666 57.8332 46.5416 58.2082C46.1249 59.2499 45.8333 60.3332 45.6666 61.4166C45.4166 62.9582 45.25 64.4999 45.1666 66.0416C44.9166 70.2916 44.9583 74.5832 45.0833 78.8332C45.2499 84.1666 45.5416 89.4999 45.875 94.8332C46.25 100.375 46.6666 105.875 47.1666 111.417C47.6249 116.458 48.0833 121.542 48.6249 126.583C48.9999 130.458 49.4166 134.292 49.8749 138.125C50.0833 140 50.2916 141.917 50.5416 143.792C50.5416 143.875 50.5416 143.958 50.5833 144.042C50.625 144.542 51 145 51.5 145.167C51.9166 145.25 52.125 144.75 52.0833 144.375Z" fill="#3D3D3D"/>
<path d="M68.6665 74.6251C68.6665 74.6251 172.458 72.6251 175.417 76.2084C178.375 79.7917 160.75 142.042 156.625 144.167C152.5 146.292 51.2915 144.167 51.2915 144.167C51.2915 144.167 63.7498 74.7084 68.6665 74.6251Z" fill="#CECECE"/>
<path d="M68.9165 75.625L73.4999 75.5417C77.4999 75.4583 81.5415 75.4167 85.5415 75.375C91.2082 75.2917 96.8749 75.25 102.542 75.2083C109.042 75.1667 115.542 75.125 122.042 75.0833C128.583 75.0833 135.125 75.0833 141.625 75.1667C147.333 75.2083 153.042 75.3333 158.708 75.5C161 75.5833 163.292 75.6667 165.583 75.7917C166.542 75.8333 167.5 75.9167 168.458 75.9583L169.708 76.0417L170.333 76.0833L170.625 76.125C170.667 76.125 170.792 76.125 170.583 76.125H170.75C171.917 76.2083 173.083 76.375 174.208 76.625C174.375 76.6667 174.583 76.7083 174.75 76.75L174.958 76.8333C174.75 76.7083 175.042 76.875 174.958 76.8333C175 76.875 175.042 76.875 175.083 76.9167C175.167 76.9167 174.833 76.7083 175 76.875C174.75 76.625 174.833 76.6667 174.875 76.75C174.917 76.8333 174.708 76.4583 174.792 76.5833C174.75 76.3333 174.917 76.8333 174.792 76.5833C174.792 76.6667 174.875 76.9583 174.833 76.75C174.792 76.5417 174.833 76.9167 174.875 77C174.917 77.25 174.917 77.5417 174.917 77.7917V78C174.917 77.6667 174.917 78 174.917 78.0417C174.917 78.2083 174.917 78.4167 174.875 78.5833C174.833 78.9583 174.833 79.375 174.792 79.75C174.583 81.875 174.167 84 173.792 86.125C172.625 92.0417 171.208 97.875 169.667 103.708C167.958 110.208 166.083 116.667 164.083 123.083C162.5 128.208 160.833 133.375 158.75 138.333C158.417 139.167 158.083 139.958 157.667 140.75C157.5 141.083 157.333 141.417 157.167 141.708C157.083 141.833 157 142 156.917 142.125C156.875 142.167 156.833 142.25 156.833 142.292C156.75 142.417 156.917 142.167 156.792 142.333C156.667 142.542 156.542 142.708 156.375 142.875C156.333 142.958 156.25 143 156.208 143.083C156.167 143.167 156.167 143.125 156.125 143.167C156.042 143.25 156.292 143.083 156.167 143.125L155.917 143.25C155.708 143.333 156.125 143.208 155.917 143.25C155.833 143.25 155.75 143.292 155.708 143.292C153.125 143.792 150.375 143.75 147.792 143.833C142.917 144 138.083 144.042 133.208 144.042C127.042 144.083 120.833 144.042 114.667 144C108 143.958 101.375 143.875 94.7082 143.792C88.4165 143.708 82.1665 143.625 75.8749 143.542C70.8749 143.458 65.8332 143.375 60.8332 143.292L52.2082 143.125H51.0415L52.1249 144.542C52.5415 142.25 52.9582 139.958 53.3749 137.667C54.4165 132.167 55.4999 126.667 56.5832 121.167C57.9165 114.5 59.3332 107.875 60.8332 101.25C62.1665 95.4583 63.5415 89.6667 65.2499 83.9583C65.8332 82 66.4999 80.0417 67.2499 78.1667C67.4999 77.5417 67.7915 76.9167 68.1249 76.3333C68.0415 76.4583 68.1665 76.2917 68.2499 76.1667C68.3332 76.0417 68.3749 75.9583 68.4582 75.875C68.5415 75.7917 68.5832 75.75 68.6665 75.6667C68.7082 75.625 68.7082 75.625 68.7499 75.5833C68.8749 75.5 68.5832 75.7083 68.7082 75.625C68.7915 75.6667 68.8749 75.625 68.9165 75.625C68.9582 75.5833 68.7082 75.625 68.9165 75.625C69.9165 75.5833 69.2499 73.625 68.3749 73.6667C67.3749 73.7083 66.7499 75.0417 66.3332 75.7917C65.5415 77.4167 64.9165 79.0833 64.3749 80.7917C62.5832 86.2917 61.2082 91.9167 59.9165 97.5417C58.3332 104.25 56.9165 110.958 55.5415 117.667C54.3749 123.458 53.2082 129.292 52.1249 135.125C51.5832 137.958 50.9582 140.792 50.5415 143.667C50.5415 143.708 50.5415 143.75 50.5415 143.792C50.4165 144.417 50.9582 145.208 51.5832 145.208L56.3332 145.292C60.4999 145.375 64.6665 145.458 68.7915 145.5C74.6249 145.583 80.4582 145.708 86.3332 145.792C92.9582 145.875 99.6249 145.958 106.25 146.042C112.792 146.125 119.375 146.125 125.917 146.167C131.5 146.167 137.083 146.167 142.625 146.083C146.375 146.042 150.125 145.958 153.833 145.708C154.75 145.667 155.625 145.542 156.5 145.375C157.417 145.167 157.833 144.5 158.292 143.708C159.083 142.292 159.792 140.792 160.375 139.25C161.292 136.958 162.125 134.625 162.958 132.292C165.042 126.208 166.917 120.042 168.667 113.875C170.5 107.458 172.208 100.958 173.75 94.4583C174.833 89.7917 175.958 85.0417 176.417 80.2083C176.542 78.9583 176.708 77.4167 176.167 76.2083C175.792 75.3333 175.042 75 174.167 74.7917C173.042 74.5417 171.917 74.375 170.792 74.2917C169 74.125 167.208 73.9583 165.375 73.875C160.417 73.5833 155.458 73.4583 150.458 73.375C144.208 73.25 137.958 73.2083 131.708 73.1667C125.042 73.125 118.375 73.1667 111.708 73.2083C105.458 73.25 99.2082 73.2917 92.9582 73.375C87.9999 73.4167 82.9999 73.5 78.0415 73.5833C75.1665 73.625 72.3332 73.6667 69.4582 73.7083L68.3332 73.75C67.3749 73.6667 67.9999 75.625 68.9165 75.625Z" fill="#7A7A7A"/>
<path d="M51.0001 93.9583C42.9584 88.4999 36.0001 80.2083 36.0417 69.9999C36.0834 65.1249 37.8334 60.4166 41.3334 56.9999C44.7501 53.6249 49.3334 51.6249 53.9584 50.4583C59.6667 49.0833 65.5834 48.8749 71.4167 48.1249C76.0417 47.5416 80.7501 46.6249 84.7501 44.0416C86.5001 42.9583 87.9584 41.4583 89.0417 39.7083C90.1251 37.8749 90.8334 35.4166 89.8334 33.3749C88.7501 31.2083 85.9167 30.9166 84.2501 32.5833C82.3751 34.4166 83.0001 37.2083 84.4584 39.1249C85.9584 41.0833 88.5001 42.2916 90.9167 42.5416C92.1251 42.6666 93.3334 42.5416 94.5417 42.2499C95.8334 41.8333 97.0417 41.2499 98.1251 40.4583C99.1667 39.7083 100.25 39.0833 101.375 38.4999C102.417 37.9999 103.542 37.6249 104.708 37.4166C107.083 36.9583 109.5 37.1249 111.792 37.8333C112.917 38.1666 113.958 38.6666 114.958 39.2916C115.333 39.5833 115.875 39.5416 116.208 39.1666L116.25 39.1249C116.458 38.6249 116.292 38.0416 115.833 37.7916C111.667 35.1666 106.542 34.5833 101.875 36.1249C100.708 36.4999 99.6251 37.0416 98.5834 37.7083C97.4584 38.4166 96.4167 39.2499 95.2084 39.8333C93.2084 40.8749 90.8751 40.9999 88.7501 40.2083C86.9167 39.4999 84.6667 37.7916 84.9167 35.5416C85.0417 34.6666 85.6251 33.9166 86.4584 33.5833C87.1667 33.2916 87.8334 33.4583 88.1251 34.0833C88.9167 35.7499 87.7917 37.9166 86.8751 39.2916C85.7084 40.8749 84.2084 42.1666 82.4584 43.0833C78.3751 45.3333 73.7084 45.9999 69.1251 46.4583C63.5001 47.0833 57.7917 47.3749 52.2917 48.8749C47.7501 50.0833 43.2917 52.1666 39.9167 55.4999C36.4167 58.9583 34.5001 63.5833 34.1667 68.4583C33.5001 78.5833 39.5834 87.4583 47.2501 93.4583C48.1667 94.1666 49.1251 94.8749 50.0834 95.5416C50.4584 95.8333 51.0001 95.7916 51.3334 95.4166L51.3751 95.3749C51.5834 94.8333 51.4167 94.2916 51.0001 93.9583Z" fill="#CECECE"/>
<path d="M141.262 35.3161C138.473 34.8513 135.617 35.4489 133.293 36.9763C131.766 38.1053 130.438 39.4998 129.441 41.16C128.512 42.4882 127.914 44.0156 127.582 45.543C127.316 46.8047 127.914 48.1329 129.043 48.6642C130.106 49.2618 131.434 49.5275 132.363 48.6642C134.223 46.9376 135.02 43.9492 135.418 41.5585C135.684 40.0975 135.75 38.5701 135.551 37.0427C135.285 35.5153 134.621 34.1208 133.559 32.9254C132.231 31.3316 130.504 30.1363 128.578 29.4722C127.117 29.0073 125.324 28.8745 124.062 29.8042C122.601 30.8668 122.137 32.7926 122.07 34.4528C122.004 36.3122 122.402 38.1053 123.265 39.7655C123.93 40.9608 125.59 42.5546 127.117 42.1562C128.18 41.8905 127.781 40.496 127.25 39.8983C126.121 38.6365 123.996 38.1053 122.601 39.1014C121.207 40.0975 119.746 42.3554 120.011 44.2148C120.277 46.0742 122.203 47.4024 123.93 48.0665C125.789 48.7306 127.781 48.6642 129.574 47.8673C130.172 47.6016 129.109 46.7383 128.844 46.6055C128.246 46.2735 127.449 45.9414 126.785 46.2071C125.855 46.6719 124.859 46.8047 123.863 46.5391C123.73 46.4727 123.664 46.3399 123.531 46.2735C123.265 45.875 123.133 45.4102 123.066 44.9453C123 43.6171 123.996 42.0898 124.926 41.2264C125.258 40.9608 125.656 40.7616 125.988 40.5624C126.121 40.4296 125.922 40.6288 125.922 40.5624H125.988C125.523 40.496 125.125 40.2967 124.793 39.9647L124.859 40.0311C124.859 40.1639 124.793 40.496 124.793 40.5624L124.859 40.496C125.191 40.4296 125.457 40.4296 125.723 40.6288C125.988 40.6952 126.719 40.8944 126.785 41.0272C126.719 40.8944 126.52 40.7616 126.453 40.5624C125.789 39.4334 125.391 38.1717 125.324 36.9099C125.125 34.9177 125.656 31.066 128.313 30.9996C128.645 30.9996 129.043 31.066 129.309 31.2652C129.774 31.5308 130.172 31.8629 130.504 32.1949C131.367 32.9918 132.031 33.988 132.43 35.1169C132.961 37.3084 132.895 39.6327 132.231 41.7577C131.766 43.4843 131.168 45.543 129.906 46.8711C129.707 47.0704 129.508 47.2032 129.309 47.336C129.242 47.4024 129.242 47.336 129.242 47.4024H129.309C129.574 47.4024 129.84 47.4688 130.106 47.6681C130.371 47.7345 130.57 47.8673 130.836 48.0665C130.836 47.9337 130.703 47.4024 130.703 47.1368C130.77 46.6055 130.836 46.1407 131.035 45.6094C131.965 42.6874 133.891 40.0975 136.481 38.3709C137.742 37.574 139.137 37.1756 140.598 37.0427C141.063 37.0427 141.594 37.0427 142.059 37.0427C142.391 37.0427 141.86 36.9763 142.192 37.0427H142.325C142.79 37.1091 143.586 37.0427 143.254 36.3787C142.922 35.7146 141.993 35.4489 141.262 35.3161Z" fill="#CECECE"/>
<path d="M111.75 134.042L114.042 139.75L118.25 137.458L115.333 132.125L111.75 134.042Z" fill="white"/>
<path d="M111.083 134.083L113.375 139.792C113.541 140.167 114 140.958 114.541 140.667L118.75 138.333C119.166 138.125 119 137.417 118.833 137.125L115.916 131.833C115.75 131.5 115.291 131 114.875 131.208L111.291 133.125C110.5 133.542 111.5 135.375 112.291 134.958L115.875 133.083L114.833 132.458L117.75 137.75L117.833 136.542L113.625 138.833L114.791 139.708L112.5 134C112.333 133.625 112 133.042 111.5 133.083C111 133.125 110.958 133.75 111.083 134.083Z" fill="#7A7A7A"/>
<path d="M129.958 177.875C129.958 177.875 112.666 142.792 112.75 140.25C112.833 137.708 119.25 136.667 119.25 136.667C119.25 136.667 138.791 169.5 140.083 174.542C141.375 179.583 131.125 180.25 129.958 177.875Z" fill="white"/>
<path d="M130.875 177.708C130.125 176.167 129.333 174.583 128.583 173.042C126.833 169.458 125.083 165.875 123.375 162.292C121.458 158.25 119.542 154.208 117.708 150.167C116.417 147.333 115.083 144.5 114.042 141.542C113.958 141.333 113.917 141.125 113.833 140.958C113.792 140.875 113.792 140.792 113.75 140.708C113.708 140.542 113.792 140.958 113.75 140.792C113.75 140.75 113.75 140.708 113.708 140.667C113.708 140.583 113.667 140.458 113.667 140.375C113.708 140.625 113.667 140.417 113.708 140.292C113.708 140.25 113.75 140.125 113.708 140.292C113.708 140.25 113.75 140.208 113.75 140.167C113.792 140.083 113.833 140 113.875 139.917C113.792 140 113.917 139.833 113.875 139.917L114 139.75C114.75 139.083 115.625 138.625 116.583 138.333C117.375 138.083 118.208 137.833 119.042 137.708L119.5 137.625L118.333 137.125C119.375 138.833 120.375 140.583 121.417 142.333C123.708 146.25 126 150.167 128.25 154.083C130.667 158.292 133.042 162.542 135.25 166.708C136.125 168.333 136.958 169.958 137.75 171.625C138.292 172.625 138.708 173.667 139.042 174.75C138.958 174.5 139.042 174.833 139.042 174.917C139.042 175 139.083 175.125 139.083 175.25C139.083 175.375 139.083 175.375 139.083 175.417C139.083 175.542 139.042 175.667 139 175.792C139 175.833 138.875 176.125 138.958 175.917C138.917 176 138.875 176.083 138.833 176.167C138.792 176.25 138.708 176.375 138.667 176.458C138.667 176.5 138.542 176.625 138.625 176.5C138.708 176.375 138.583 176.583 138.542 176.583C138.375 176.75 138.208 176.917 138.042 177.042C138 177.083 137.958 177.125 137.917 177.125C137.792 177.208 138.042 177.042 137.917 177.125C137.792 177.208 137.708 177.25 137.583 177.333C137.167 177.542 136.75 177.75 136.292 177.875C135.792 178.042 135.25 178.125 134.708 178.208C134.208 178.292 133.75 178.292 133.25 178.25C133 178.25 132.792 178.25 132.542 178.208L132.208 178.167L131.958 178.125C131.75 178.083 131.583 178.042 131.375 177.958L131.25 177.917C131.542 178.042 131.25 177.917 131.167 177.875C131.083 177.833 131.042 177.792 130.958 177.75C130.833 177.667 131.167 177.875 130.958 177.75C130.792 177.625 130.833 177.625 130.875 177.708C130.875 177.667 130.75 177.458 130.875 177.708C130.625 177.25 130.125 176.958 129.583 177.042C129.167 177.125 128.875 177.5 128.958 177.958C128.958 178 129 178.083 129 178.125C129.958 180 132.583 180.25 134.458 180.167C136.625 180.042 139.25 179.458 140.583 177.542C141.542 176.125 141.125 174.542 140.5 173.083C139.875 171.625 139.167 170.167 138.417 168.708C136.208 164.375 133.833 160.167 131.417 155.958C129 151.75 126.542 147.417 124.042 143.167C123.167 141.667 122.292 140.167 121.375 138.667C120.958 137.917 120.542 137.167 120.083 136.458C120.083 136.417 120.042 136.417 120.042 136.375C119.792 136 119.333 135.792 118.875 135.875C117.208 136.125 115.583 136.625 114.083 137.375C113.125 137.875 112.167 138.542 111.833 139.625C111.708 140.083 111.708 140.583 111.875 141.042C112.167 142.042 112.5 143 112.917 143.958C113.542 145.542 114.25 147.083 114.917 148.583C116.75 152.667 118.625 156.667 120.542 160.708C122.375 164.542 124.208 168.333 126.042 172.167C127 174.125 127.917 176.125 128.917 178.042L128.958 178.125C129.167 178.625 129.708 178.917 130.25 178.833C130.667 178.75 130.958 178.375 130.917 177.958C130.958 177.833 130.917 177.792 130.875 177.708Z" fill="#7A7A7A"/>
<path d="M124.958 112.083C124.958 113.708 124.791 115.333 124.416 116.917L124.583 116.208C124.083 118.417 123.25 120.542 122.083 122.5L122.458 121.875C121.333 123.75 119.958 125.458 118.333 126.917L118.875 126.458C117.75 127.5 116.5 128.375 115.208 129.167C114.875 129.375 114.583 129.542 114.25 129.708C113.666 130 114.875 129.417 114.291 129.708L113.708 129.958C113 130.292 112.25 130.542 111.5 130.792C111.125 130.917 110.791 131 110.416 131.125C110.25 131.167 110.041 131.208 109.875 131.25L109.583 131.333C109.041 131.458 110.333 131.208 109.791 131.292C109 131.417 108.25 131.542 107.458 131.625C106.666 131.708 105.875 131.708 105.041 131.708C106.041 131.708 105.375 131.708 105.125 131.708C104.916 131.708 104.75 131.708 104.541 131.667C104.125 131.625 103.666 131.583 103.25 131.542C102.458 131.417 101.708 131.292 100.958 131.083C100.291 130.917 101.75 131.292 101.083 131.125L100.541 130.958C100.166 130.833 99.7915 130.708 99.4165 130.583C98.6665 130.292 97.9581 130 97.2498 129.667L96.7498 129.417C97.7498 129.917 97.1248 129.625 96.8748 129.458C96.4998 129.25 96.1665 129.042 95.8331 128.833C95.2081 128.417 94.5831 127.958 93.9998 127.5L93.5831 127.167L93.3748 127C93.0831 126.75 93.9165 127.5 93.6665 127.25C93.4165 127 93.0831 126.708 92.8331 126.458C92.2915 125.917 91.7915 125.333 91.2915 124.75C91.0415 124.458 90.8331 124.167 90.6248 123.875C90.4998 123.667 90.1248 123.125 90.6665 123.958C90.5415 123.792 90.4165 123.625 90.3331 123.458C89.8748 122.708 89.4581 121.958 89.0415 121.167C88.8331 120.75 88.6665 120.375 88.4998 119.958C88.4165 119.75 88.3331 119.583 88.2498 119.375C88.1248 119.042 88.4581 120 88.3748 119.667L88.2498 119.333C87.6665 117.625 87.3331 115.875 87.1665 114.083L87.2081 114.792C87.0415 112.583 87.2081 110.375 87.6665 108.208L87.4998 108.917C87.9998 106.708 88.8331 104.583 89.9998 102.625L89.6248 103.25C90.7498 101.375 92.1248 99.6666 93.7498 98.1666L93.2081 98.6249C94.3331 97.5833 95.5831 96.7083 96.8748 95.9166C97.2081 95.7499 97.4998 95.5416 97.8331 95.3749C98.3748 95.0833 97.2081 95.6666 97.7915 95.3749L98.3748 95.1249C99.0831 94.7916 99.8331 94.5416 100.583 94.2916C100.958 94.1666 101.291 94.0833 101.666 93.9583L102.208 93.8333L102.5 93.7916C103.041 93.6666 101.75 93.9166 102.291 93.8333C103.083 93.7083 103.833 93.5833 104.625 93.4999C105.416 93.4166 106.208 93.4166 107.041 93.4166C106.041 93.4583 106.708 93.4166 107 93.4166L107.583 93.4583C108 93.4999 108.458 93.5416 108.875 93.5833C109.666 93.7083 110.416 93.8333 111.166 94.0416C111.833 94.2083 110.375 93.8333 111.041 93.9999C111.208 94.0416 111.416 94.0833 111.583 94.1666C111.958 94.2916 112.333 94.4166 112.708 94.5416C113.458 94.8333 114.166 95.1249 114.875 95.4583L115.375 95.7083C114.375 95.2083 115 95.4999 115.25 95.6249C115.625 95.8333 115.958 96.0416 116.291 96.2916C116.916 96.7083 117.541 97.1666 118.125 97.6249L118.541 97.9583L118.75 98.1249C119.041 98.3749 118.208 97.6249 118.458 97.8749C118.708 98.1249 119.041 98.4166 119.291 98.6666C119.833 99.2083 120.333 99.7916 120.833 100.375C121.041 100.667 121.291 100.958 121.5 101.25C121.666 101.458 122 102 121.458 101.167L121.791 101.667C122.25 102.417 122.666 103.167 123.041 103.958C123.25 104.333 123.416 104.75 123.583 105.167C123.666 105.375 123.75 105.542 123.791 105.75C123.916 106.083 123.583 105.125 123.666 105.458C123.708 105.583 123.75 105.667 123.791 105.792C124.375 107.5 124.708 109.25 124.875 111.042L124.833 110.333C124.916 110.875 124.958 111.458 124.958 112.083C125 113.667 126.208 115.042 127.833 115.208C129.208 115.375 131.083 114.583 131.083 112.917C131.083 110.333 130.708 107.792 129.916 105.333C129.083 102.792 127.875 100.417 126.333 98.2499C123.416 94.1666 119.333 91.0833 114.625 89.3749C109.541 87.5416 104 87.3333 98.7915 88.7916C85.8331 92.4999 78.3331 105.958 81.9998 118.917C82.5831 121 83.4581 123 84.5831 124.833C87.2915 129.292 91.2915 132.833 95.9998 135C100.708 137.125 105.916 137.75 110.958 136.792C116.041 135.833 120.708 133.292 124.333 129.583C127.791 125.958 130.041 121.375 130.791 116.458C130.958 115.333 131.041 114.167 131.041 113C131 111.375 129.791 110 128.166 109.833C126.791 109.625 124.958 110.375 124.958 112.083Z" fill="#3D3D3D"/>
<path d="M106 127.417C114.422 127.417 121.25 120.589 121.25 112.167C121.25 103.744 114.422 96.9167 106 96.9167C97.5777 96.9167 90.75 103.744 90.75 112.167C90.75 120.589 97.5777 127.417 106 127.417Z" fill="#CECECE"/>
<path d="M120.208 112.042C120.167 118 116.542 123.583 110.875 125.708C105.25 127.75 98.9582 126.083 95.1249 121.5C91.2499 116.75 90.7499 110.125 93.8332 104.833C96.9166 99.6667 102.917 97 108.792 98.125C114.583 99.25 119.083 104.083 120 109.875C120.167 110.542 120.208 111.292 120.208 112.042C120.208 112.583 120.583 113 121.125 113.083C121.542 113.125 122.292 112.917 122.292 112.375C122.333 105.583 118.083 99.4583 111.708 97.125C105.333 94.75 97.8749 96.625 93.4999 101.875C89.1249 107.125 88.5416 114.542 92.0416 120.417C95.6666 126.292 102.542 129.333 109.333 128C115.917 126.667 121 121.417 122.125 114.792C122.25 114 122.333 113.167 122.333 112.333C122.333 111.833 121.958 111.375 121.417 111.333C120.958 111.25 120.208 111.458 120.208 112.042Z" fill="#CECECE"/>
<path d="M98.125 109.708C97.7917 109.75 97.5 109.875 97.2083 110.042C96.9583 110.208 96.75 110.458 96.625 110.708C96.5417 110.833 96.5 111 96.5 111.125C96.4583 111.25 96.4583 111.417 96.5 111.542C96.5833 111.833 96.7083 112.083 96.9167 112.292C97.125 112.5 97.4167 112.625 97.7083 112.708C98.125 112.792 98.5417 112.792 98.9167 112.667C99.2083 112.583 99.5 112.375 99.7083 112.167C99.7917 112.042 99.875 111.958 99.9583 111.792C100 111.708 100.042 111.625 100.042 111.5C100.042 111.417 100.042 111.292 100.042 111.208C100.042 110.917 99.875 110.625 99.6667 110.417C99.375 110.125 99 110 98.5833 110C98.2917 110 98.0417 110.042 97.7917 110.208C97.5833 110.333 97.4167 110.5 97.375 110.708C97.3333 110.917 97.4167 111.125 97.5833 111.25C97.7917 111.417 98 111.5 98.25 111.5H98.3333L98.0833 111.458C98.125 111.458 98.1667 111.458 98.2083 111.5L98 111.417L98.125 111.458L97.9583 111.333C98 111.375 98.0417 111.417 98.0833 111.458L97.9583 111.292C98 111.375 98.0417 111.417 98.0833 111.5L98 111.292C98.0417 111.375 98.0417 111.417 98.0417 111.5V111.292C98.0417 111.375 98.0417 111.417 98 111.5L98.0833 111.292C98.0417 111.333 98.0417 111.417 98 111.458L98.125 111.292C98.0833 111.333 98.0417 111.375 98 111.417L98.1667 111.25C98.125 111.292 98.0833 111.333 98 111.333L98.25 111.208C98.2083 111.25 98.1667 111.25 98.0833 111.25L98.3333 111.167H98.2083H98.5H98.3333L98.5833 111.208C98.5417 111.208 98.5 111.208 98.4167 111.167L98.625 111.25C98.5417 111.208 98.5 111.208 98.4583 111.167L98.625 111.292C98.5417 111.25 98.5 111.167 98.4167 111.125L98.5417 111.292C98.5 111.208 98.4167 111.125 98.4167 111.042L98.5 111.25C98.4583 111.167 98.4583 111.083 98.4583 111V111.167C98.4583 111.083 98.5 111 98.5 110.917L98.4167 111.125C98.4583 111.042 98.5 111 98.5417 110.917L98.4167 111.083C98.4583 111.042 98.5 111 98.5417 110.958L98.3333 111.125C98.375 111.083 98.4167 111.042 98.5 111.042L98.25 111.167C98.2917 111.125 98.3333 111.125 98.375 111.125L98.125 111.208H98.25C98.5 111.167 98.75 111.042 98.9583 110.875C99.2083 110.667 99.25 110.292 99.0417 110C98.9583 109.917 98.875 109.833 98.7917 109.833C98.625 109.708 98.3333 109.667 98.125 109.708Z" fill="#3D3D3D"/>
<path d="M103.583 109.708C103.333 109.958 103.25 110.333 103.333 110.667C103.375 110.833 103.458 111 103.583 111.125C103.875 111.417 104.291 111.583 104.708 111.625C105.125 111.75 105.583 111.833 106.041 111.833C106.166 111.833 106.333 111.833 106.458 111.792C106.666 111.708 106.875 111.583 107 111.417C107.291 111.167 107.416 110.708 107.208 110.333C107 110.083 106.666 109.875 106.333 109.833C106.041 109.75 105.791 109.667 105.5 109.625C105.291 109.583 105.041 109.542 104.791 109.542C104.666 109.542 104.541 109.542 104.416 109.583C104.375 109.583 104.375 109.583 104.375 109.625C104.416 109.667 104.458 109.708 104.5 109.708C104.708 109.792 104.875 109.875 105.083 109.917C105.333 110 105.625 110.042 105.875 110.083L106.083 110.125C106.166 110.125 106.25 110.125 106.375 110.125C106.416 110.083 106.458 110.083 106.5 110.083C106.166 110.042 106.083 110.042 106.208 110.042L105.708 109.958L105.083 109.792L105 109.75L105.041 109.792C105.083 109.833 105.125 109.875 105.208 109.958L105.166 109.917C105.5 110.417 105.083 111.042 104.625 111.292L104.666 111.25C104.583 111.292 104.5 111.333 104.416 111.333L104.291 111.375C104.25 111.375 104.291 111.375 104.333 111.375C103.75 111.417 106.291 111.958 105.791 111.708C105.75 111.667 105.708 111.667 105.708 111.625C105.666 111.583 105.625 111.542 105.583 111.458L105.625 111.5C105.333 111.083 105.375 110.5 105.708 110.167C105.75 110.125 105.375 110 105.416 110C105.166 109.917 104.958 109.833 104.708 109.792C104.458 109.75 104.208 109.708 104 109.667C103.833 109.708 103.666 109.625 103.583 109.708Z" fill="#3D3D3D"/>
<path d="M111.917 109.542C111.75 109.5 111.583 109.5 111.458 109.542C111.375 109.583 111.292 109.625 111.208 109.708C111.083 109.833 111.042 110 111.042 110.167C111.042 110.25 111.083 110.375 111.125 110.458C111.25 110.625 111.375 110.75 111.5 110.875C111.667 111.042 111.875 111.167 112.083 111.25C112.333 111.417 112.625 111.5 112.917 111.583C113.5 111.75 114.125 111.375 114.25 110.792C114.292 110.667 114.291 110.583 114.291 110.458C114.291 110.333 114.25 110.208 114.167 110.083C114.042 109.917 113.917 109.75 113.75 109.667C113.417 109.417 113.083 109.208 112.708 109.083C112.5 109 112.25 108.958 112.042 108.958C111.958 108.958 111.833 109.042 111.791 109.083C111.708 109.167 111.917 109.417 111.958 109.417C112.125 109.583 112.333 109.75 112.542 109.833C112.75 109.958 113 110.042 113.208 110.125L113.375 110.167C113.458 110.167 113.542 110.167 113.583 110.125H113.625L113.542 110.167C113.583 110.125 113.667 110.125 113.708 110.125H113.583C113.625 110.125 113.666 110.125 113.666 110.125L113.5 110.083C113.583 110.083 113.625 110.125 113.375 110.042C113.417 110.042 113.417 110.042 113.292 110C113.167 109.958 113.083 109.917 112.958 109.833L112.75 109.708C112.583 109.583 112.542 109.542 112.583 109.583C112.625 109.625 112.375 109.417 112.458 109.5L112.333 109.375C112.375 109.417 112.375 109.417 112.416 109.458L112.375 109.333C112.417 109.458 112.458 109.542 112.416 109.667V109.583C112.375 109.917 112.208 110.167 111.958 110.375L112.042 110.333C111.917 110.417 111.833 110.458 111.667 110.458H111.791C111.75 110.458 111.667 110.458 111.625 110.458L111.791 110.5C111.625 110.458 111.75 110.5 111.791 110.5C111.958 110.542 112.125 110.625 112.25 110.708C112.292 110.75 112.375 110.792 112.458 110.833C112.375 110.792 112.666 110.958 112.625 110.958C112.583 110.958 112.792 111.125 112.75 111.042L112.708 111L112.833 111.125C112.791 111.083 112.792 111.083 112.792 111.042L112.833 111.167C112.791 111.083 112.792 111 112.792 110.917V111C112.792 110.875 112.875 110.708 113 110.625L112.917 110.667C112.958 110.625 113.042 110.583 113.125 110.583H113H113.083L112.917 110.542C113 110.542 113.208 110.625 113.292 110.5C113.375 110.375 113.167 110.208 113.125 110.167C112.958 110 112.75 109.833 112.542 109.75C112.333 109.625 112.083 109.542 111.875 109.458L111.917 109.542Z" fill="#3D3D3D"/>
</svg>
