<svg width="240" height="240" viewBox="0 0 240 240" fill="none" xmlns="http://www.w3.org/2000/svg">
<path d="M116.832 188.544L144.96 189.072L165.168 215.328H133.344L116.832 188.544Z" fill="#CECECE"/>
<path d="M116.544 189.12L126.048 189.312L141.168 189.6L144.672 189.648L143.808 189.312L150.624 198.192L161.52 212.352L164.016 215.616L165.408 214.752H133.584L134.448 215.088L128.832 206.016L119.952 191.616L117.936 188.304C117.504 187.632 115.152 188.064 115.632 188.832L121.344 198.048L130.272 212.592L131.568 214.752C131.76 215.088 131.904 215.376 132.144 215.664C132.48 216.096 133.056 216.048 133.536 216.048H151.872C156.144 216.048 160.368 216.048 164.64 216.048H164.832C165.12 216.048 166.752 215.808 166.224 215.184L160.176 207.264L149.808 193.728L146.592 189.504C146.448 189.264 146.304 189.072 146.112 188.832C145.728 188.4 145.104 188.448 144.576 188.448L130.32 188.208C126 188.112 121.632 188.016 117.312 187.968H117.12C116.688 187.968 115.872 188.016 115.68 188.496C115.488 188.976 116.208 189.12 116.544 189.12Z" fill="#CECECE"/>
<path d="M124.992 190.944L129.456 198.24L136.56 209.76L138.192 212.4C138.528 212.928 139.152 213.216 139.728 213.024C140.208 212.88 140.688 212.256 140.4 211.728L135.936 204.48L128.832 192.912L127.2 190.272C126.864 189.744 126.24 189.456 125.664 189.648C125.184 189.792 124.704 190.416 124.992 190.944Z" fill="white"/>
<path d="M132.288 190.703L137.328 198.095L145.392 209.855L147.264 212.591C147.888 213.503 150.144 212.687 149.424 211.679L144.384 204.287L136.32 192.479L134.448 189.743C133.824 188.831 131.568 189.647 132.288 190.703Z" fill="white"/>
<path d="M139.248 190.08C139.632 191.088 140.496 192 141.168 192.864C142.464 194.592 143.808 196.32 145.152 198.048C148.08 201.888 151.056 205.68 154.032 209.472L156.096 212.112C156.432 212.544 157.104 212.832 157.584 212.448C158.064 212.064 157.872 211.344 157.536 210.912C155.712 208.56 153.888 206.208 152.064 203.856C149.088 200.064 146.16 196.272 143.232 192.432C142.704 191.76 142.224 191.088 141.696 190.416C141.552 190.224 141.408 189.984 141.264 189.792C141.216 189.744 141.024 189.456 141.216 189.744C141.408 190.032 141.264 189.84 141.264 189.792C141.264 189.744 141.216 189.6 141.36 190.032C141.216 189.456 140.688 189.024 140.064 188.976C139.584 189.024 139.248 189.456 139.296 189.888C139.248 189.936 139.248 190.032 139.248 190.08Z" fill="white"/>
<path d="M123.408 195.503L131.232 195.455L143.76 195.359H146.64C147.216 195.359 147.744 194.927 147.792 194.303C147.744 193.679 147.072 193.439 146.544 193.439L138.72 193.487L126.24 193.583H123.36C122.832 193.583 122.208 194.015 122.208 194.639C122.208 195.263 122.88 195.551 123.408 195.503Z" fill="white"/>
<path d="M128.544 202.944L136.368 202.464L148.752 201.744L151.584 201.552C152.112 201.504 152.64 201.024 152.496 200.496C152.352 199.968 151.584 199.728 151.056 199.776L143.232 200.256L130.848 200.976L128.016 201.168C127.488 201.216 126.96 201.696 127.104 202.224C127.248 202.752 127.968 202.992 128.544 202.944Z" fill="white"/>
<path d="M132.672 210.575L140.496 210.095L152.88 209.375L155.712 209.183C156.336 209.231 156.864 208.799 157.008 208.175C157.008 207.599 156.576 207.119 156 207.119C155.952 207.119 155.952 207.119 155.904 207.119L148.08 207.599L135.696 208.367L132.864 208.559C132.24 208.511 131.712 208.943 131.568 209.567C131.568 210.143 132 210.623 132.576 210.623C132.624 210.575 132.672 210.575 132.672 210.575Z" fill="white"/>
<path d="M75.6002 144.479C69.3122 151.487 64.3202 150.239 65.7602 155.999C65.7602 155.999 59.2322 169.199 54.3842 159.071C53.6162 157.487 42.3842 138.719 52.4162 127.775C52.4162 127.775 58.3202 122.015 54.7202 115.823C54.7202 115.823 61.5362 119.615 66.6722 117.551C71.8082 115.487 81.2642 110.015 84.2402 114.767C87.2162 119.519 80.9282 123.887 76.1762 124.655L78.2402 132.479C73.7762 135.407 69.8882 130.847 69.8882 130.847C69.8882 130.847 68.3042 136.751 70.0322 138.527C71.7602 140.303 76.9922 139.247 76.9922 139.247C77.4722 141.119 76.9442 143.087 75.6002 144.479Z" fill="white"/>
<path d="M74.5921 144.671C73.1521 146.255 71.5201 147.695 69.7441 148.895C68.5921 149.711 67.2961 150.383 66.2401 151.295C65.3761 151.919 64.7521 152.831 64.5121 153.887C64.4161 154.511 64.4161 155.135 64.5601 155.759C64.6081 156.095 64.7521 156.239 64.6081 156.527C64.3681 157.103 64.0321 157.679 63.6481 158.207C63.1201 159.071 62.4961 159.887 61.8241 160.655C61.4881 161.039 61.1041 161.423 60.7201 161.711C60.5281 161.855 60.3361 162.047 60.0961 162.191C59.9521 162.287 60.1921 162.143 60.0961 162.191L59.9521 162.287C59.7601 162.431 60.0481 162.239 59.7601 162.383C59.5681 162.479 59.9521 162.287 59.6641 162.431C59.7121 162.431 59.9041 162.383 59.7121 162.431C59.7601 162.431 59.9521 162.383 59.7601 162.431C59.5681 162.431 59.7121 162.431 59.7601 162.431H59.6161C59.5201 162.431 59.4241 162.431 59.3761 162.431C58.8961 162.383 58.4161 162.191 58.0321 161.903C56.4481 160.847 55.7281 158.879 54.8641 157.247C53.8081 155.279 52.8961 153.215 52.0801 151.103C49.8721 145.343 48.3841 138.623 50.5441 132.671C51.1201 131.135 51.8881 129.647 52.9441 128.351C53.4241 127.775 54.0001 127.199 54.4321 126.623C56.2561 124.223 57.5521 121.247 56.9761 118.175C56.7841 117.215 56.4481 116.303 55.9201 115.439L53.7121 116.351C55.6801 117.407 57.7921 118.127 59.9521 118.511C61.7761 118.847 63.6001 118.799 65.4241 118.367C67.0081 117.887 68.5921 117.311 70.0321 116.543C72.7681 115.295 75.6481 113.855 78.6241 113.519C79.8721 113.279 81.1201 113.567 82.1761 114.191C83.3281 115.103 83.9521 116.495 83.9041 117.983C83.6641 121.391 79.6801 123.695 76.6561 124.223C76.3681 124.271 74.9281 124.655 75.0721 125.135L77.0881 133.055L77.5201 132.575C76.0801 133.487 74.4481 133.055 73.0561 132.287C72.2881 131.855 71.5681 131.279 70.9921 130.607C70.6081 130.175 68.8801 130.847 68.7361 131.327C68.1601 133.199 67.9681 135.167 68.1121 137.135C68.2561 138.287 68.6881 139.247 69.8401 139.727C71.0881 140.159 72.3841 140.351 73.7281 140.207C74.6881 140.159 75.6001 140.063 76.5601 139.871L75.8881 139.775C76.3681 141.407 75.6961 143.327 74.5921 144.671C74.2561 145.055 74.9761 145.007 75.1681 144.959C75.7441 144.911 76.2241 144.671 76.6561 144.287C77.9041 142.847 78.6721 140.783 78.1441 138.863C78.0961 138.671 77.6161 138.767 77.4721 138.767C76.8481 138.911 76.2721 138.959 75.6481 139.007C74.4961 139.151 73.2961 139.055 72.1921 138.719C71.0881 138.335 70.6081 137.519 70.4161 136.415C70.2721 135.215 70.3201 133.967 70.5121 132.767C70.6081 131.999 70.7521 131.279 70.9441 130.511L68.6881 131.231C69.5041 132.143 70.4641 132.911 71.6161 133.391C74.0161 134.447 76.7041 133.919 78.8161 132.527C78.9601 132.431 79.3441 132.239 79.2481 132.047L77.2321 124.127L75.6481 125.039C79.1521 124.463 83.1361 122.639 85.1521 119.567C86.0641 118.271 86.3041 116.639 85.7761 115.151C85.2961 113.855 84.2401 112.847 82.8961 112.463C81.4561 112.127 79.9201 112.127 78.4801 112.511C76.6561 112.895 74.8801 113.471 73.1521 114.191C71.5201 114.863 69.8881 115.583 68.2561 116.303C66.8161 116.975 65.6161 117.503 63.9361 117.455C61.0561 117.359 58.2241 116.591 55.6801 115.151C55.3441 114.959 53.2321 115.583 53.4721 116.063C54.4801 117.791 54.8161 119.759 54.5281 121.727C54.2401 123.263 53.6161 124.703 52.7521 125.999C52.3201 126.623 51.8401 127.247 51.3121 127.823C50.2561 128.975 49.3441 130.319 48.6721 131.759C45.8401 137.711 47.0881 144.767 49.2481 150.719C50.1121 153.023 51.0721 155.279 52.2241 157.439C53.0881 159.119 53.8561 161.039 55.2481 162.287C57.2641 164.111 60.1441 163.151 62.0641 161.711C63.7921 160.415 65.0881 158.591 66.1441 156.815C66.4321 156.479 66.6241 156.047 66.8161 155.615C66.8161 155.279 66.7681 154.991 66.6721 154.703C66.6241 154.367 66.5761 153.983 66.5761 153.647C66.5761 153.119 66.7201 152.591 67.0081 152.111C67.5361 151.199 68.5921 150.575 69.4561 149.999C71.0401 149.039 72.5281 147.983 73.9201 146.783C74.8321 145.967 75.7441 145.103 76.5601 144.239C76.8961 143.855 76.1761 143.903 75.9841 143.951C75.5521 144.047 75.0241 144.287 74.5921 144.671Z" fill="#3D3D3D"/>
<path d="M45.7441 149.807C45.7441 149.807 40.4161 155.567 37.1521 152.783C33.8881 149.999 38.5441 148.175 38.5441 148.175C38.5441 148.175 29.2801 144.095 34.9921 138.671C34.9921 138.671 26.1601 136.751 27.2161 129.023C28.2721 121.295 38.9281 119.039 38.9281 119.039C38.9281 119.039 33.7921 111.455 41.0401 108.191C48.2881 104.927 49.6321 110.591 49.6321 110.591C49.6321 110.591 54.2401 108.431 56.0641 111.023C57.8881 113.615 55.3441 116.687 55.3441 116.687C55.3441 116.687 58.9921 125.087 52.4641 127.631L52.9441 140.735C52.9441 140.735 57.1201 142.943 57.2641 147.887C57.4081 152.831 48.5761 154.943 45.7441 149.807Z" fill="#3D3D3D"/>
<path d="M44.9762 148.848C43.7762 150.144 42.3362 151.248 40.7522 152.016C39.7922 152.448 38.4962 152.784 37.5362 152.256C37.3442 152.16 37.1522 151.968 36.9602 151.824C36.8162 151.68 36.8162 151.728 36.8162 151.488C36.8642 151.104 37.0082 150.72 37.2962 150.432C37.6322 150.048 38.0642 149.712 38.5442 149.472C38.6882 149.376 38.8802 149.28 39.0242 149.232C39.1202 149.184 39.4082 149.088 39.1202 149.184C39.9362 148.848 38.7362 147.456 38.3042 147.264C37.8722 147.072 37.4882 146.832 37.0562 146.592C36.7202 146.4 36.3842 146.208 36.0962 145.968C35.9042 145.824 35.6642 145.632 35.4722 145.488C35.4242 145.44 35.3762 145.392 35.3282 145.344C35.4242 145.44 35.4242 145.44 35.3282 145.344L35.0402 145.056L34.7522 144.768C34.9442 145.008 34.6562 144.672 34.6562 144.624C34.6562 144.576 34.3682 144.24 34.5602 144.48C34.4642 144.384 34.4162 144.24 34.3682 144.144C34.3202 144.048 34.3202 144.048 34.3682 144.144L34.2722 143.952C34.2242 143.856 34.1762 143.76 34.1762 143.664C34.2242 143.808 34.1282 143.472 34.1282 143.424C34.1282 143.328 34.0802 143.232 34.0802 143.136C33.9842 141.744 34.8962 140.544 35.8082 139.632C36.3842 139.056 35.1842 137.808 34.6562 137.712C34.3682 137.664 34.0322 137.568 33.7442 137.472C33.0722 137.232 32.4002 136.944 31.7282 136.608C30.9602 136.224 30.2402 135.696 29.6162 135.072C29.3282 134.736 29.0402 134.4 28.8002 134.016C28.5602 133.584 28.3682 133.152 28.2242 132.72C27.5522 130.224 28.3682 127.392 30.0002 125.424C31.5842 123.648 33.5042 122.256 35.7122 121.344C36.9122 120.816 38.2082 120.384 39.5042 120.096C39.9842 120 39.6962 119.232 39.5042 119.04C39.3122 118.848 39.2642 118.608 39.1202 118.416L38.9282 118.08C39.0722 118.368 38.8802 118.032 38.8802 117.936C38.7362 117.6 38.5922 117.312 38.4962 116.976C38.4002 116.688 38.3042 116.4 38.2082 116.064C38.1122 115.68 38.0642 115.296 38.0162 114.912C37.9202 114.096 38.0162 113.28 38.3042 112.512C39.1202 110.304 41.4242 109.152 43.5362 108.528C44.4962 108.24 45.5042 108.144 46.5122 108.288C46.8482 108.336 47.1362 108.432 47.4242 108.576C47.4722 108.624 47.8562 108.816 47.6642 108.72C47.7602 108.768 47.8082 108.816 47.8562 108.864C47.9042 108.912 48.1442 109.104 48.0002 108.96C47.8562 108.816 48.4322 109.44 48.0962 109.056L48.3842 109.392C48.1442 109.056 48.4322 109.488 48.4802 109.584C48.6722 109.872 48.4322 109.44 48.5282 109.68L48.7202 110.208C48.5762 109.872 48.6722 110.064 48.7202 110.208C48.8642 110.736 49.5842 111.888 50.3042 111.6C51.5522 111.024 53.6162 110.448 55.0562 111.072C55.2482 111.12 55.3922 111.216 55.4882 111.36C55.4402 111.312 55.6802 111.744 55.6802 111.84C55.8242 112.464 55.7762 113.136 55.5842 113.712C55.3442 114.48 55.0082 115.152 54.5282 115.776C54.3842 116.016 54.3842 116.304 54.5282 116.544C54.6242 116.784 54.7202 117.072 54.8162 117.312C54.7202 117.024 54.8642 117.456 54.8642 117.504C54.9122 117.696 54.9602 117.84 55.0082 118.032C55.1042 118.416 55.2002 118.8 55.2482 119.184C55.5362 120.912 55.4882 122.88 54.5282 124.416C53.8562 125.472 52.8482 126.288 51.6482 126.72C51.5522 126.816 51.5042 126.912 51.5522 127.008L51.9842 139.488C51.9842 139.68 51.9842 139.872 51.9842 140.064C52.0802 140.784 52.5122 141.36 53.1362 141.696C53.4242 141.888 53.0402 141.6 53.2802 141.792C53.5202 141.984 53.6642 142.032 53.8562 142.224C53.9042 142.272 54.1442 142.464 54.0002 142.32L54.3362 142.608L54.6722 142.944C54.6722 142.992 54.8162 143.136 54.6722 142.944C54.7682 143.04 54.8162 143.136 54.9122 143.232C55.1042 143.472 55.2482 143.664 55.3922 143.952C55.5842 144.288 55.7762 144.672 55.9202 145.056C56.2082 145.872 56.3522 146.736 56.3042 147.6C56.1602 148.896 55.3922 150 54.2882 150.672C52.9442 151.536 51.3602 151.872 49.7762 151.68C49.0082 151.584 48.2882 151.344 47.6162 151.008C47.3282 150.864 47.0882 150.672 46.8482 150.432C46.6082 150.192 46.4162 149.952 46.2722 149.664C46.0802 149.328 45.5522 148.656 45.0722 148.752C44.5922 148.848 44.9282 149.568 45.0722 149.808C47.0882 153.36 51.5522 154.752 55.2002 152.88C56.7362 152.16 57.7922 150.768 58.0322 149.088C58.2722 146.832 57.2642 144.384 55.9202 142.656C55.0562 141.504 53.9522 140.544 52.7042 139.824L53.7602 141.36L53.3282 129.888L53.2802 128.256L53.1842 128.544C55.3442 127.68 56.8322 125.712 57.0722 123.456C57.2642 121.68 57.0722 119.856 56.4962 118.128C56.3522 117.696 56.2082 117.216 56.0162 116.784V117.552C57.3122 115.968 57.9362 113.712 57.1202 111.744C56.5442 110.352 55.3922 109.296 54.0002 108.816C52.9442 108.576 51.8882 108.576 50.8322 108.864C50.1602 109.008 49.4882 109.248 48.8642 109.536L50.4482 110.928C49.7282 107.952 46.9922 105.936 43.9682 106.08C42.5282 106.224 41.1842 106.656 39.8882 107.328C38.7842 107.856 37.8242 108.672 37.1522 109.728C36.0962 111.408 36.0962 113.52 36.6722 115.392C37.0082 116.688 37.5842 117.936 38.3042 119.04V118.08C37.0562 118.368 35.8562 118.752 34.7042 119.232C32.3522 120.144 30.2882 121.536 28.6082 123.408C26.6882 125.616 25.9202 128.64 26.4962 131.52C27.0722 134.16 28.8962 136.368 31.1522 137.76C32.4482 138.624 33.8882 139.248 35.4242 139.632L34.2722 137.712C33.3122 138.576 32.6402 139.728 32.3522 140.976C32.2082 142.08 32.4482 143.184 33.0242 144.144C34.0322 145.968 35.7602 147.36 37.5362 148.416C37.9202 148.656 38.3522 148.896 38.7842 149.088L37.9682 147.168C37.2002 147.456 36.4802 147.888 35.9042 148.464C34.7522 149.712 35.1362 151.248 36.1442 152.496C37.2002 153.84 38.7362 154.752 40.5122 154.464C41.9042 154.176 43.2482 153.504 44.3522 152.592C45.1202 152.016 45.8402 151.392 46.4642 150.72C47.0402 150.144 45.4562 148.368 44.9762 148.848Z" fill="#3D3D3D"/>
<path d="M54.384 128.544C54.384 128.544 50.16 123.936 47.088 127.344C44.016 130.752 50.064 143.376 56.496 138.768" fill="white"/>
<path d="M55.5362 128.495C54.3842 127.199 52.8962 126.335 51.2162 125.999C48.9122 125.567 45.8402 126.047 45.2162 128.687C44.7362 130.559 45.3602 132.623 46.0802 134.351C46.9442 136.223 48.2402 138.095 50.0162 139.151C52.4162 140.495 55.3442 140.351 57.6002 138.863C57.8402 138.671 56.8322 138.575 56.7842 138.575C56.4002 138.527 55.6802 138.479 55.2962 138.719C54.9122 139.007 54.5282 139.199 54.0962 139.391C53.9042 139.439 53.7602 139.487 53.5682 139.535C53.2802 139.583 53.7122 139.487 53.4242 139.535H53.6162C53.7122 139.535 53.8562 139.583 53.6642 139.535C53.8082 139.583 53.5202 139.487 53.5202 139.487C53.3762 139.439 53.1842 139.391 53.0402 139.343C52.6562 139.199 52.2722 139.007 51.9362 138.767C49.1042 136.559 47.4242 133.199 47.4242 129.599C47.4242 128.927 47.6162 128.255 47.9522 127.679C48.1922 127.295 48.4802 127.007 48.8642 126.767C49.1042 126.623 49.2962 126.479 49.5842 126.383C49.6802 126.335 49.7762 126.335 49.8722 126.287C50.3042 126.095 49.3922 126.431 49.4882 126.287C49.5842 126.143 50.5922 126.671 50.7362 126.719C51.1682 126.959 51.6002 127.247 52.0322 127.535C52.4642 127.823 52.8482 128.207 53.1842 128.543C53.4242 128.831 54.2882 128.735 54.6722 128.735C54.7682 128.783 55.6802 128.735 55.5362 128.495Z" fill="#3D3D3D"/>
<path d="M62.0162 122.399C62.5442 122.255 63.1202 122.543 63.2642 123.119C63.2642 123.167 63.3122 123.215 63.3122 123.263C63.4562 124.367 62.1122 124.559 61.6802 123.647C61.4402 123.263 61.5362 122.735 61.9202 122.447C61.9202 122.447 61.9682 122.399 62.0162 122.399Z" fill="#3D3D3D"/>
<path d="M82.6562 188.496L109.2 188.688C109.2 188.688 109.2 179.664 97.9203 178.32C86.6403 176.976 82.6562 188.496 82.6562 188.496Z" fill="#CECECE"/>
<path d="M82.896 189.407L91.872 189.455L106.176 189.551L109.488 189.599C109.872 189.599 110.448 189.263 110.448 188.831C110.448 184.511 107.328 180.623 103.536 178.943C99.792 177.263 95.232 176.783 91.344 178.175C88.464 179.231 85.92 181.151 84.144 183.647C83.088 185.039 82.224 186.527 81.6 188.159C81.456 188.639 81.744 189.167 82.224 189.311C82.272 189.311 82.272 189.311 82.32 189.359C82.752 189.503 83.664 189.455 83.856 188.927C84.72 186.623 86.064 184.559 87.792 182.831C88.752 181.823 89.856 181.007 91.104 180.383C94.176 178.847 97.92 178.895 101.232 179.999C103.776 180.767 105.888 182.543 107.088 184.895L107.28 185.279C107.28 185.279 107.376 185.519 107.328 185.375C107.28 185.231 107.376 185.519 107.376 185.519C107.472 185.759 107.568 185.999 107.664 186.239C107.808 186.671 107.904 187.103 108 187.535C108.048 187.823 108.096 188.111 108.096 188.399C108.096 188.591 108.096 188.303 108.096 188.351C108.096 188.399 108.144 188.447 108.096 188.447C108.048 188.447 108.096 188.543 108.096 188.543L109.056 187.775L100.08 187.727L85.776 187.631H82.464C81.984 187.631 81.36 188.063 81.504 188.639C81.648 189.215 82.368 189.407 82.896 189.407Z" fill="#CECECE"/>
<path d="M106.128 184.991C105.648 181.535 102.672 178.415 99.1202 178.271C98.5922 178.271 98.3522 178.751 98.4962 179.231C98.6402 179.711 99.1202 180.383 99.6962 180.383C100.032 180.383 100.32 180.431 100.656 180.527C100.896 180.575 100.56 180.479 100.752 180.527L100.992 180.575C101.136 180.623 101.328 180.671 101.472 180.767L101.712 180.863C101.808 180.911 101.904 180.959 101.76 180.863C101.904 180.959 102.048 181.007 102.192 181.103C102.336 181.199 102.48 181.295 102.624 181.391C102.768 181.487 102.816 181.487 102.624 181.391C102.72 181.439 102.768 181.487 102.816 181.583C102.96 181.679 103.056 181.823 103.152 181.919C103.248 182.015 103.248 182.015 103.296 182.111L103.248 182.015L103.344 182.111C103.44 182.255 103.536 182.351 103.632 182.495C103.728 182.639 103.728 182.639 103.776 182.687L103.728 182.591C103.728 182.639 103.776 182.639 103.776 182.687C103.872 182.831 103.92 182.975 103.968 183.119L104.064 183.359C104.064 183.407 104.112 183.455 104.112 183.455C104.064 183.311 104.064 183.263 104.064 183.359C104.112 183.503 104.16 183.647 104.208 183.839C104.208 183.935 104.256 183.983 104.256 184.079C104.304 184.367 104.256 183.983 104.256 184.175C104.304 184.799 104.688 185.327 105.264 185.567C105.696 185.759 106.176 185.519 106.128 184.991Z" fill="white"/>
<path d="M90.1924 175.008C90.1924 175.008 94.6564 172.8 96.6244 170.16C98.5924 167.52 99.9364 168.192 100.032 170.544C100.128 172.896 96.0964 175.68 96.0964 175.68L90.1924 175.008Z" fill="white"/>
<path d="M91.1044 175.631C93.4564 174.527 95.5684 172.991 97.2964 171.119C97.8724 170.495 98.3044 169.631 99.1204 169.247C99.2164 169.199 99.2644 169.199 99.1684 169.199C99.3604 169.199 99.1204 169.199 99.1204 169.199C98.9764 169.151 98.8324 169.151 98.7364 169.103L98.6884 169.055C98.5924 168.959 98.5924 168.959 98.6404 169.055C98.6884 169.151 98.7844 169.295 98.7844 169.391C99.2164 170.831 98.4964 171.983 97.5364 172.991C96.8644 173.759 96.0964 174.431 95.2324 175.007L96.0004 174.863L90.0964 174.191C89.7124 174.143 88.9924 174.287 89.0404 174.815C89.0884 175.343 89.8564 175.631 90.3364 175.727L94.7044 176.207C95.2324 176.255 95.7124 176.351 96.2404 176.399C97.0564 176.447 97.7284 175.775 98.3044 175.247C99.1684 174.575 99.9364 173.711 100.56 172.799C101.232 171.791 101.424 170.591 101.04 169.439C100.608 168.095 99.2164 167.327 97.8724 167.711C96.4324 168.143 95.7124 169.583 94.7524 170.543C93.1684 172.079 91.3444 173.327 89.3284 174.287C88.8004 174.527 89.1364 175.103 89.4724 175.343C89.9524 175.775 90.5764 175.871 91.1044 175.631Z" fill="#3D3D3D"/>
<path d="M81.3602 179.472C81.3602 179.472 89.0882 172.32 94.8962 173.28C100.704 174.24 105.6 179.712 103.872 180.384C102.144 181.056 98.2082 177.504 94.2722 178.56C90.3362 179.616 89.2802 181.056 89.2802 181.056C89.2802 181.056 95.8562 182.64 94.8002 184.752C93.7442 186.864 76.5122 184.992 76.5122 184.992L81.3602 179.472Z" fill="white"/>
<path d="M82.1762 179.999C83.5682 178.703 85.1042 177.551 86.7842 176.591C89.4242 174.959 92.3522 173.567 95.4242 174.383C97.2002 174.863 98.8802 175.679 100.368 176.783C100.944 177.215 101.52 177.695 102 178.271C102.192 178.511 102.432 178.751 102.576 178.991C102.72 179.183 102.816 179.375 102.912 179.567C102.96 179.663 103.008 179.759 103.008 179.855C103.008 179.951 103.104 180.143 103.056 179.951V180.191C103.104 180.047 103.152 179.951 103.248 179.855C103.344 179.759 103.488 179.711 103.632 179.663C103.584 179.711 103.392 179.759 103.68 179.663C103.584 179.663 103.536 179.615 103.728 179.663C103.68 179.663 103.584 179.663 103.536 179.663C103.488 179.663 103.344 179.615 103.488 179.663C103.392 179.663 103.344 179.615 103.296 179.615C103.104 179.567 102.96 179.519 102.768 179.471C101.088 178.895 99.5042 178.031 97.7282 177.743C95.3282 177.311 92.9762 178.031 90.8162 179.087C89.8562 179.471 89.0402 180.095 88.3682 180.911C88.1282 181.199 88.1762 181.679 88.4642 181.919C88.5602 181.967 88.6562 182.015 88.7522 182.063C90.2882 182.351 91.7282 182.927 93.0722 183.743C93.1682 183.791 93.2642 183.887 93.3602 183.935C93.4562 183.983 93.4082 183.935 93.5042 184.031C93.6002 184.127 93.6482 184.175 93.6962 184.271L93.7442 184.367C93.8882 184.559 93.6962 184.271 93.7442 184.415C93.7922 184.511 93.7922 184.559 93.7922 184.655C93.7442 184.463 93.7442 184.751 93.7922 184.655C93.8402 184.751 93.5522 184.799 93.8402 184.607C93.7922 184.607 93.5522 184.895 93.9362 184.559C93.7442 184.751 94.1762 184.415 93.9362 184.559C93.6962 184.703 93.9362 184.511 94.0322 184.511C93.9842 184.511 93.8882 184.559 93.8402 184.607C93.6962 184.655 93.3122 184.751 93.6482 184.655L93.1202 184.751C92.7362 184.799 92.3042 184.847 91.9202 184.895L91.2482 184.943H90.8642C90.8642 184.943 90.6722 184.943 90.8162 184.943H90.6242C89.5202 184.991 88.4162 184.943 87.3122 184.943C85.1042 184.895 82.8962 184.751 80.6402 184.559C79.3922 184.463 78.1922 184.367 76.9442 184.223L77.6162 185.423L82.4162 179.903C82.6562 179.567 82.6082 179.135 82.3202 178.895C82.2242 178.847 82.1282 178.799 82.0322 178.751C81.4562 178.607 80.7842 178.799 80.4482 179.279L75.6002 184.799C75.1202 185.375 75.6962 185.951 76.2722 185.999C79.7762 186.383 83.2802 186.623 86.7842 186.719C88.9442 186.767 91.2002 186.863 93.3122 186.431C94.1282 186.335 94.8962 185.999 95.5682 185.471C96.2882 184.799 96.3362 183.647 95.6162 182.927L95.5682 182.879C94.7042 181.919 93.3602 181.439 92.2082 181.007C91.4882 180.719 90.7202 180.479 89.9522 180.287L90.3362 181.439C90.4802 181.247 90.0962 181.631 90.2882 181.487C90.4802 181.343 90.5282 181.247 90.6722 181.151C90.8162 181.055 90.9602 180.959 90.7682 181.103C90.9122 181.007 91.0082 180.911 91.1522 180.863C91.4402 180.671 91.7762 180.479 92.1122 180.335C93.0722 179.855 94.0802 179.519 95.1362 179.375C96.0962 179.279 97.0082 179.423 97.9202 179.711C99.5522 180.191 101.184 181.247 102.912 181.439C104.256 181.583 105.84 180.767 105.456 179.279C105.12 178.031 103.968 176.927 103.008 176.159C101.52 174.863 99.8402 173.855 97.9682 173.183C96.1922 172.463 94.2722 172.271 92.3522 172.559C90.5282 172.943 88.7522 173.567 87.1202 174.479C84.7682 175.727 82.6082 177.263 80.6402 179.087C80.3042 179.327 80.2082 179.807 80.4482 180.191C80.4962 180.239 80.5442 180.335 80.6402 180.383C81.0722 180.479 81.6962 180.383 82.1762 179.999Z" fill="#3D3D3D"/>
<path d="M93.6003 218.447C93.6003 215.375 81.8883 141.167 57.1203 152.255C32.3523 163.343 28.8003 219.695 28.8003 219.695L93.6003 218.447Z" fill="#CECECE"/>
<path d="M94.6561 219.072C94.6081 218.304 94.5121 217.488 94.3681 216.72C94.1281 215.04 93.8401 213.36 93.5521 211.68C92.6401 206.496 91.5361 201.36 90.2401 196.224C88.7041 189.984 86.8801 183.84 84.6721 177.84C82.6081 172.176 80.1601 166.56 76.8481 161.52C74.0161 157.248 70.3201 153.36 65.5201 151.44C63.6001 150.624 61.4881 150.384 59.4241 150.672C56.8321 151.104 54.4321 152.352 52.3201 153.792C46.8481 157.584 43.0081 163.248 40.0321 169.104C36.7201 175.536 34.4161 182.496 32.6401 189.504C31.0561 195.648 29.8561 201.936 28.9441 208.224C28.4641 211.632 28.0321 215.088 27.7921 218.544C27.7921 218.688 27.7921 218.88 27.7441 219.024C27.7441 219.264 28.4161 219.6 28.5601 219.696C28.8481 219.888 29.3761 220.272 29.7601 220.272L36.2401 220.128L51.7441 219.84L70.4161 219.504L86.5921 219.216L91.9201 219.12L93.6001 219.072C93.8881 219.12 94.1761 219.12 94.4641 219.072C94.5121 219.072 94.5601 219.072 94.6561 219.072C94.8001 219.072 94.0321 218.544 93.9841 218.496C93.6481 218.304 93.0721 217.824 92.6401 217.824L86.1601 217.968L70.6561 218.256L51.9841 218.592L35.8081 218.88C33.1681 218.928 30.5281 218.88 27.9361 219.024H27.8401L29.8561 220.32C30.0001 217.92 30.2881 215.568 30.5761 213.168C31.2961 207.456 32.2081 201.84 33.4561 196.224C34.8961 189.264 37.0081 182.4 39.6481 175.824C42.1921 169.632 45.5041 163.488 50.2081 158.64C52.3201 156.432 54.8161 154.608 57.5521 153.216C59.5201 152.208 61.7281 151.68 63.9361 151.776C64.8961 151.872 65.8081 152.064 66.7201 152.352C66.9121 152.4 67.1041 152.496 67.2961 152.592L67.6321 152.736C67.4401 152.64 67.7761 152.832 67.8721 152.832C68.1601 152.976 67.7281 152.736 68.0161 152.88L68.2081 152.976C67.9201 152.832 68.0641 152.88 68.1121 152.928C68.1601 152.976 68.4961 153.168 68.2081 152.976L68.5921 153.216L68.7361 153.312L68.9281 153.456C69.1681 153.648 69.3601 153.792 69.6001 153.984C69.9361 154.272 70.4161 154.704 70.8001 155.088C71.6641 155.952 72.4321 156.816 73.1521 157.776C76.7041 162.288 79.2001 167.616 81.3601 172.896C83.7121 178.8 85.7281 184.896 87.3121 191.088C88.7521 196.464 90.0001 201.936 91.0561 207.408C91.6801 210.576 92.3041 213.792 92.6401 217.008C92.6881 217.248 92.6881 217.488 92.6881 217.776C92.6881 218.064 93.4561 218.4 93.6481 218.544C93.8881 218.784 94.2721 218.928 94.6561 219.072Z" fill="#CECECE"/>
<path d="M63.8882 199.295C63.8882 199.295 68.9762 212.879 81.5042 220.607C94.0322 228.335 131.664 206.591 135.408 203.183C139.152 199.775 139.68 200.447 142.368 202.511C145.056 204.575 146.256 202.127 145.632 200.495C145.008 198.863 143.184 197.807 143.184 197.807C143.184 197.807 143.664 194.399 139.68 194.543C139.68 194.543 141.408 193.151 139.776 192.095C138.144 191.039 134.64 190.463 130.896 193.967C130.896 193.967 133.728 190.799 131.952 189.647C130.176 188.495 129.744 191.183 124.944 194.687C120.144 198.191 94.5602 205.103 94.5602 205.103L86.5922 186.863L63.8882 199.295Z" fill="white"/>
<path d="M62.8803 199.104C63.6003 200.928 64.4643 202.704 65.4243 204.384C67.6803 208.368 70.4643 212.064 73.6803 215.328C75.6483 217.296 77.8083 219.072 80.1123 220.656C81.4563 221.616 82.9923 222.336 84.5763 222.768C87.6483 223.536 90.9603 223.344 94.0323 222.816C102 221.52 109.632 218.4 116.88 215.04C122.832 212.352 128.544 209.184 134.016 205.68C134.688 205.248 135.36 204.768 135.984 204.24C136.704 203.664 137.328 202.992 138.096 202.464C138.432 202.176 138.864 201.984 139.296 201.84C139.392 201.792 139.536 201.792 139.632 201.792C139.632 201.792 139.92 201.792 139.728 201.792C139.776 201.792 140.112 201.888 139.92 201.792C140.064 201.84 140.208 201.888 140.352 201.984C140.112 201.888 140.448 202.032 140.448 202.032L140.736 202.224C141.168 202.512 141.552 202.8 141.936 203.136C142.896 203.856 144.288 204.624 145.488 204.096C146.352 203.712 146.736 202.704 146.736 201.792C146.736 200.496 146.016 199.344 145.152 198.432C144.624 197.856 144.048 197.376 143.376 196.992L144.144 198.192C144.24 197.376 144.048 196.56 143.664 195.888C142.752 194.208 140.976 193.488 139.104 193.536L140.496 195.36C141.312 194.736 141.648 193.68 141.264 192.72C140.688 191.52 139.296 190.848 138.096 190.512C135.12 189.744 132.144 191.136 129.984 193.152L131.712 194.784C132.672 193.728 133.728 192.144 133.44 190.656C133.152 189.552 132.288 188.688 131.184 188.448C130.56 188.304 129.84 188.496 129.36 188.928C128.736 189.504 128.112 190.08 127.536 190.752C126.528 191.76 125.472 192.72 124.368 193.584C124.224 193.68 124.08 193.776 123.936 193.872C123.792 193.968 124.08 193.776 123.936 193.872L123.696 194.064C123.456 194.208 123.216 194.352 122.976 194.496C122.4 194.784 121.824 195.072 121.2 195.36C117.84 196.8 114.384 198.048 110.88 199.152C107.232 200.352 103.536 201.456 99.7923 202.512C97.7763 203.088 95.8083 203.664 93.7923 204.192L95.3763 205.056L88.4163 189.12L87.4083 186.864C87.2163 186.432 86.3523 185.664 85.8243 186L78.0963 190.272L65.8563 196.992L63.0243 198.528C62.0163 199.056 63.6003 200.88 64.4163 200.4L72.1443 196.176L84.3843 189.456L87.2163 187.92L85.6323 187.056L92.5923 202.992L93.6003 205.248C93.8883 205.872 94.5123 206.256 95.1843 206.112C100.032 204.816 104.88 203.376 109.728 201.84C113.28 200.736 116.832 199.584 120.288 198.192C121.584 197.712 122.88 197.136 124.128 196.512C125.712 195.648 127.152 194.544 128.448 193.248C129.216 192.528 129.936 191.664 130.704 190.944C130.848 190.848 130.944 190.704 131.088 190.608C131.184 190.56 131.232 190.512 131.328 190.464C131.376 190.416 131.424 190.416 131.52 190.416C131.328 190.464 131.472 190.416 131.52 190.416C131.424 190.32 131.664 190.416 131.52 190.416C131.328 190.368 131.616 190.512 131.52 190.416C131.616 190.464 131.328 190.224 131.472 190.416C131.616 190.608 131.376 190.272 131.376 190.224C131.376 190.176 131.424 190.08 131.376 190.224C131.376 190.128 131.376 190.464 131.376 190.464C131.328 190.896 131.184 191.28 130.944 191.664C130.656 192.192 130.32 192.72 129.888 193.152C129.216 193.92 130.896 195.504 131.616 194.784C133.248 193.296 135.456 192 137.76 192.288C138.096 192.336 138.432 192.432 138.72 192.528C138.864 192.576 139.056 192.672 139.2 192.72C139.488 192.864 139.104 192.72 139.248 192.72L139.392 192.816C139.392 192.816 139.296 192.672 139.296 192.624C139.296 192.576 139.296 192.72 139.296 192.72C139.2 192.816 139.152 193.056 139.056 193.152C138.912 193.344 138.768 193.488 138.624 193.632C138.288 193.92 138.576 194.496 138.768 194.784C139.056 195.168 139.488 195.456 139.968 195.456C140.352 195.456 140.688 195.456 141.072 195.552C141.168 195.6 141.264 195.6 141.36 195.648L141.552 195.744C141.456 195.696 141.456 195.696 141.552 195.744C141.84 195.936 141.36 195.6 141.6 195.792C141.744 195.936 141.504 195.6 141.696 195.888C141.888 196.176 141.6 195.696 141.744 195.936C141.744 195.984 141.888 196.32 141.792 196.08C141.84 196.224 141.888 196.416 141.936 196.608C141.984 196.752 141.936 196.416 141.936 196.704C141.936 196.752 141.936 196.8 141.936 196.896C141.936 197.04 141.936 197.184 141.936 197.328C141.984 197.808 142.272 198.24 142.704 198.528C142.896 198.624 143.088 198.768 143.232 198.864C143.328 198.96 143.472 199.008 143.568 199.104C143.76 199.248 143.904 199.44 144.048 199.632C144.576 200.208 144.672 201.072 144.336 201.744C143.856 202.56 142.992 202.128 142.416 201.696C141.696 201.072 140.88 200.544 140.016 200.064C137.184 198.768 135.024 201.888 132.912 203.328L132.768 203.424L132.48 203.616L131.856 204.048C131.376 204.336 130.896 204.672 130.416 204.96C129.216 205.68 128.016 206.4 126.816 207.072C123.744 208.8 120.624 210.432 117.456 212.016C110.448 215.424 103.152 218.544 95.5203 220.224C93.8403 220.608 92.1603 220.896 90.4323 221.04C88.9443 221.184 87.5043 221.184 86.0163 221.088C85.3443 221.04 84.6723 220.896 84.0003 220.752L83.5683 220.656L83.3283 220.56C83.3763 220.56 83.5203 220.608 83.3283 220.56C82.9923 220.464 82.7043 220.32 82.3683 220.176L81.9843 219.984L81.7923 219.888C81.6483 219.792 82.0323 220.032 81.7923 219.888C81.2643 219.6 80.7363 219.264 80.2563 218.88C79.1523 218.16 78.1443 217.344 77.1363 216.528C71.7123 211.92 67.4403 206.064 64.7043 199.488C64.6563 199.344 64.4643 198.864 64.6563 199.344C64.4643 198.768 63.9843 198.336 63.4083 198.192C63.1683 198.24 62.6883 198.576 62.8803 199.104Z" fill="#3D3D3D"/>
<path d="M137.376 198.383L137.52 198.287C137.568 198.239 137.664 198.239 137.712 198.191C137.712 198.191 137.424 198.335 137.568 198.239L137.712 198.191C137.904 198.095 138.144 198.047 138.336 197.951L138.72 197.855C138.864 197.807 138.96 197.855 138.72 197.855C138.816 197.855 138.864 197.807 138.96 197.807L139.44 197.711L139.632 197.663C139.68 197.663 139.968 197.615 139.776 197.663C139.584 197.711 139.872 197.663 139.92 197.663H140.4C140.496 197.663 140.64 197.663 140.448 197.663C140.64 197.663 140.784 197.711 140.976 197.759C140.976 197.759 141.264 197.855 141.072 197.759C141.168 197.807 141.264 197.807 141.312 197.855C141.648 197.951 141.936 198.143 142.224 198.335C142.752 198.623 143.376 198.623 143.904 198.335C144.24 198.143 144.624 197.663 144.144 197.327C142.608 196.271 140.64 196.127 138.864 196.463C137.856 196.655 136.896 196.943 135.984 197.423C135.6 197.615 135.264 198.095 135.696 198.431C136.224 198.719 136.848 198.719 137.376 198.431V198.383Z" fill="#3D3D3D"/>
<path d="M134.784 197.039C135.408 196.607 136.032 196.271 136.704 195.983L136.896 195.887L137.088 195.791C136.992 195.839 137.232 195.743 137.232 195.743L137.472 195.647C137.808 195.551 138.144 195.407 138.48 195.359C138.864 195.263 139.2 195.215 139.584 195.167C139.584 195.167 139.872 195.119 139.728 195.167H140.016C140.208 195.167 140.448 195.167 140.64 195.167C141.024 195.215 141.36 194.927 141.408 194.543C141.408 194.447 141.408 194.303 141.36 194.207C141.168 193.631 140.64 193.247 140.016 193.199C138.336 193.151 136.704 193.535 135.216 194.207C134.496 194.495 133.776 194.879 133.152 195.359C132.192 195.983 133.872 197.663 134.784 197.039Z" fill="#3D3D3D"/>
<path d="M118.398 129.85C118.398 129.85 117.549 147.253 118.398 149.206C119.247 151.159 182.155 171.534 221.122 147.253V129.85H118.398Z" fill="#3D3D3D"/>
<path d="M116.361 129.171C116.191 132.907 116.021 136.642 116.021 140.378C116.021 142.585 115.936 144.877 116.106 147.169C116.191 148.188 116.276 148.867 117.125 149.462C119.247 150.82 121.794 151.584 124.171 152.348C128.416 153.706 132.661 154.81 136.906 155.744C148.791 158.461 160.931 159.819 173.072 159.989C186.74 160.074 200.833 158.291 213.567 152.942C215.18 152.263 216.708 151.499 218.236 150.735C219 150.395 219.68 149.971 220.359 149.547C221.208 149.122 221.972 148.698 222.736 148.188C223.075 147.849 222.991 147.679 222.991 147.169V130.615C222.991 130.105 222.057 129.766 221.717 129.596C220.953 129.256 220.189 129.086 219.34 129.002H120.86C119.587 129.002 118.144 128.917 116.87 129.002C116.785 129.002 116.785 129.002 116.7 129.002C115.767 129.002 116.955 129.851 117.21 129.935C118.059 130.445 118.993 130.7 120.011 130.7H210.086C214.246 130.7 218.406 130.869 222.566 130.7H222.736L219.085 129.087V145.302C219.085 145.556 219.17 146.236 219.085 146.49C219 146.745 217.812 147.254 217.472 147.424C216.708 147.849 215.944 148.273 215.18 148.698C203.295 154.98 189.711 157.527 176.382 158.121C164.242 158.546 152.102 157.527 140.217 155.15C135.632 154.216 131.727 153.367 127.228 152.093C126.379 151.839 125.53 151.584 124.681 151.329L124.511 151.244L124.001 151.075L122.983 150.735L121.285 150.141C120.86 149.971 121.2 150.141 121.37 150.141C121.285 150.056 121.2 150.056 121.03 150.056L120.351 149.801C119.842 149.547 120.691 149.971 120.351 149.801C119.926 149.547 120.011 149.631 120.351 149.801C120.096 149.631 120.266 149.801 120.351 149.801C120.266 149.716 120.436 150.056 120.351 149.801C120.096 148.188 120.011 146.575 120.011 145.047C120.011 140.548 120.181 136.048 120.351 131.548C120.351 131.209 120.351 130.954 120.351 130.615C120.436 129.511 116.446 128.747 116.361 129.171Z" fill="#3D3D3D"/>
<path d="M118.114 129.849C118.114 129.849 133.311 137.49 163.194 139.018C205.812 141.141 220.839 129.849 220.839 129.849C220.839 129.849 221.858 124.246 193.163 122.039C164.468 119.832 118.369 122.379 118.114 129.849Z" fill="#3D3D3D"/>
<path d="M118.313 130.954C121.964 132.652 125.699 134.01 129.52 135.029C139.792 137.915 150.404 139.613 161.016 140.293C172.902 141.226 184.872 140.887 196.758 139.359C203.464 138.51 210.001 136.897 216.369 134.435C217.982 133.84 219.51 133.076 220.953 132.312C221.547 132.058 222.057 131.718 222.566 131.294C223.075 130.784 222.821 130.105 222.566 129.511C221.717 128.067 220.444 126.964 219 126.2C216.623 124.841 213.992 123.908 211.36 123.313C206.436 122.125 201.427 121.361 196.418 120.936C185.806 120.002 175.194 119.578 164.582 119.833C154.649 119.917 144.716 120.597 134.868 121.785C131.133 122.21 127.482 122.974 123.832 123.908C121.709 124.502 119.162 125.266 117.549 126.879C117.04 127.388 116.7 128.068 116.616 128.747C116.531 130.105 120.096 132.143 120.181 130.784C120.181 130.614 120.181 130.529 120.266 130.36C120.266 130.275 120.351 130.19 120.266 130.36C120.266 130.275 120.351 130.19 120.351 130.105C120.521 129.85 120.775 129.596 121.03 129.341C121.709 128.747 122.473 128.322 123.322 127.983C126.039 126.879 128.926 126.115 131.812 125.605C140.726 123.908 149.81 123.313 158.809 122.974C168.997 122.549 179.184 122.634 189.287 123.144C194.72 123.398 200.238 123.908 205.587 124.672C207.709 125.011 209.832 125.351 211.954 125.86C213.397 126.2 214.841 126.539 216.199 127.049C216.708 127.219 217.218 127.473 217.727 127.643C218.236 127.813 217.472 127.473 217.982 127.728L218.576 128.067C218.661 128.152 219.17 128.492 218.831 128.237C218.491 127.983 218.916 128.322 219 128.407C218.831 128.237 219.51 128.747 219 128.407C219.085 128.492 219.17 128.577 219.255 128.662C219.51 128.832 218.831 128.237 219.17 128.577C219.51 128.916 219.34 128.747 219.085 128.492C219.17 128.577 219.34 129.001 219.255 128.662C219.17 128.322 219.255 128.747 219.255 128.747C219.17 128.916 219.34 128.407 219.255 128.662V128.747L219.595 128.322C217.982 129.426 216.199 130.36 214.331 131.124C208.643 133.416 202.7 135.029 196.588 135.963C185.636 137.576 174.6 138.085 163.563 137.491C152.527 137.066 141.49 135.538 130.793 132.737C126.548 131.633 122.304 130.19 118.229 128.492L118.483 128.662C117.974 128.407 116.785 127.898 116.616 128.747C116.446 129.596 117.719 130.699 118.313 130.954Z" fill="#3D3D3D"/>
<path d="M147 128.757V127H154.64V128.757H151.737V137.39H149.903V128.757H147Z" fill="white"/>
<path d="M161.024 136.947C160.494 137.161 159.995 137.314 159.526 137.406C159.058 137.497 158.615 137.543 158.197 137.543C157.046 137.543 156.175 137.217 155.584 136.565C154.993 135.913 154.698 135.047 154.698 133.968V133.051C154.698 132.328 154.83 131.701 155.095 131.171C155.36 130.642 155.737 130.229 156.226 129.934C156.715 129.638 157.29 129.491 157.953 129.491C158.492 129.491 158.997 129.603 159.465 129.827C159.944 130.041 160.331 130.382 160.627 130.851C160.932 131.309 161.085 131.9 161.085 132.623C161.085 132.837 161.07 133.066 161.039 133.311C161.009 133.545 160.958 133.794 160.886 134.059H156.394C156.414 134.691 156.572 135.165 156.868 135.48C157.163 135.796 157.637 135.954 158.289 135.954C158.635 135.954 158.992 135.913 159.358 135.832C159.735 135.75 160.122 135.628 160.52 135.465L161.024 136.947ZM157.953 130.973C157.484 130.973 157.117 131.126 156.852 131.431C156.598 131.727 156.45 132.154 156.409 132.715H159.343C159.353 132.664 159.358 132.618 159.358 132.577C159.358 132.526 159.358 132.48 159.358 132.44C159.358 131.951 159.221 131.584 158.946 131.339C158.671 131.095 158.34 130.973 157.953 130.973Z" fill="white"/>
<path d="M166.899 131.126C166.644 131.126 166.354 131.187 166.028 131.309C165.702 131.431 165.315 131.671 164.867 132.027V137.39H163.109V129.643H164.775V130.682C165.254 130.265 165.707 129.964 166.135 129.781C166.563 129.587 166.996 129.491 167.434 129.491C168.177 129.491 168.743 129.73 169.13 130.209C169.517 130.677 169.71 131.339 169.71 132.195V137.39H167.953V132.409C167.953 131.553 167.602 131.126 166.899 131.126Z" fill="white"/>
<path d="M177.9 137.467C177.381 137.467 176.963 137.36 176.647 137.146C176.342 136.932 176.117 136.667 175.975 136.351C175.537 136.759 175.114 137.059 174.707 137.253C174.299 137.446 173.861 137.543 173.392 137.543C172.71 137.543 172.206 137.324 171.88 136.886C171.564 136.448 171.406 135.893 171.406 135.221C171.406 134.772 171.488 134.38 171.651 134.044C171.824 133.698 172.104 133.428 172.491 133.234C172.878 133.041 173.408 132.944 174.08 132.944C174.345 132.944 174.62 132.964 174.905 133.005C175.19 133.036 175.476 133.076 175.761 133.127V132.226C175.761 131.798 175.644 131.508 175.409 131.355C175.175 131.192 174.859 131.11 174.462 131.11C174.156 131.11 173.82 131.151 173.454 131.233C173.097 131.314 172.71 131.441 172.292 131.615L171.788 130.117C172.817 129.699 173.749 129.491 174.584 129.491C175.338 129.491 175.919 129.618 176.326 129.873C176.744 130.127 177.034 130.463 177.197 130.881C177.36 131.299 177.442 131.747 177.442 132.226V135.205C177.442 135.358 177.482 135.506 177.564 135.648C177.656 135.781 177.829 135.847 178.083 135.847H178.251V137.467H177.9ZM173.102 135.19C173.102 135.465 173.163 135.684 173.286 135.847C173.408 136 173.586 136.076 173.82 136.076C174.055 136.076 174.319 136.015 174.615 135.893C174.91 135.771 175.292 135.485 175.761 135.037V134.38C175.231 134.289 174.712 134.243 174.202 134.243C173.805 134.243 173.52 134.324 173.347 134.487C173.184 134.65 173.102 134.884 173.102 135.19Z" fill="white"/>
<path d="M183.566 131.126C183.312 131.126 183.021 131.187 182.695 131.309C182.369 131.431 181.982 131.671 181.534 132.027V137.39H179.777V129.643H181.442V130.682C181.921 130.265 182.375 129.964 182.802 129.781C183.23 129.587 183.663 129.491 184.101 129.491C184.845 129.491 185.41 129.73 185.797 130.209C186.184 130.677 186.378 131.339 186.378 132.195V137.39H184.621V132.409C184.621 131.553 184.269 131.126 183.566 131.126Z" fill="white"/>
<path d="M193.361 137.131C193.096 137.253 192.79 137.35 192.444 137.421C192.097 137.502 191.746 137.543 191.389 137.543C190.799 137.543 190.325 137.421 189.968 137.176C189.612 136.932 189.352 136.591 189.189 136.153C189.036 135.715 188.96 135.216 188.96 134.655V131.171H187.707V129.643H188.96V127.626H190.717V129.643H193.131V131.171H190.717V134.655C190.717 135.124 190.804 135.45 190.977 135.633C191.16 135.806 191.42 135.893 191.756 135.893C191.919 135.893 192.092 135.878 192.276 135.847C192.469 135.806 192.683 135.74 192.917 135.648L193.361 137.131Z" fill="white"/>
<path d="M120.212 136.245C122.353 137.514 123.495 139.1 125.874 139.893C132.851 142.43 140.066 144.095 147.44 144.888C159.174 146.236 170.988 146.473 182.723 145.443C190.81 144.888 198.818 143.698 206.667 141.795C210.077 141.003 213.407 139.893 216.658 138.465L217.213 138.228C217.45 138.148 218.64 137.593 218.323 137.355C218.005 137.118 216.261 138.069 216.023 138.228C216.103 138.228 216.737 137.91 216.42 138.069C216.103 138.228 216.975 137.831 216.499 137.99L215.944 138.228L215.468 138.386C215.151 138.545 214.755 138.624 214.438 138.703C214.834 138.545 214.279 138.783 214.12 138.783L213.407 139.02C212.376 139.338 211.345 139.655 210.315 139.893C202.941 141.716 195.409 142.985 187.876 143.54C176.38 144.571 164.883 144.571 153.386 143.381C145.695 142.668 138.163 141.082 130.789 138.624C128.807 137.91 126.825 137.118 124.922 136.245C124.129 135.849 123.336 135.294 122.543 134.977L122.464 134.897C122.068 134.66 120.878 135.294 120.561 135.453C120.244 135.928 120.767 135.77 120.212 136.245Z" fill="#D9D9D9"/>
<path fill-rule="evenodd" clip-rule="evenodd" d="M170.2 92C171.194 92 172 92.8059 172 93.8V95.5233C172 96.5174 171.194 97.3233 170.2 97.3233C169.206 97.3233 168.4 96.5174 168.4 95.5233V93.8C168.4 92.8059 169.206 92 170.2 92ZM170.2 99.4101C171.194 99.4101 172 100.216 172 101.21V104.657C172 105.651 171.194 106.457 170.2 106.457C169.206 106.457 168.4 105.651 168.4 104.657V101.21C168.4 100.216 169.206 99.4101 170.2 99.4101ZM170.2 108.543C171.194 108.543 172 109.349 172 110.343V113.79C172 114.784 171.194 115.59 170.2 115.59C169.206 115.59 168.4 114.784 168.4 113.79V110.343C168.4 109.349 169.206 108.543 170.2 108.543ZM170.2 117.677C171.194 117.677 172 118.483 172 119.477V121.2C172 122.194 171.194 123 170.2 123C169.206 123 168.4 122.194 168.4 121.2V119.477C168.4 118.483 169.206 117.677 170.2 117.677Z" fill="#CECECE"/>
<path d="M119.317 75.0459C119.317 75.0459 118.472 92.374 119.317 94.4026C120.162 96.4312 182.797 116.633 221.595 92.4585V75.1304H119.317V75.0459Z" fill="#5A5A5A"/>
<path d="M117.373 74.2857C117.204 78.0049 117.035 81.7241 117.035 85.4433C116.95 87.7255 117.035 89.9232 117.12 92.1209C117.204 93.1353 117.289 93.8115 118.134 94.4032C120.247 95.7556 122.783 96.5163 125.15 97.2771C129.291 98.6295 133.602 99.7284 137.829 100.658C149.662 103.363 161.75 104.8 173.837 104.969C187.446 105.054 201.478 103.279 214.157 97.9533C215.763 97.2771 217.284 96.5163 218.806 95.7556C219.566 95.4175 220.243 94.9949 220.919 94.5722C221.764 94.2341 222.525 93.7269 223.286 93.2198C223.624 92.8817 223.539 92.7126 223.539 92.2055V75.7227C223.539 75.2155 222.609 74.8774 222.271 74.7084C221.51 74.3702 220.75 74.2012 219.904 74.1167H121.853C120.585 74.1167 119.233 74.0321 117.88 74.1167C117.796 74.1167 117.796 74.1167 117.711 74.1167C116.781 74.1167 117.965 74.9619 118.218 75.0465C119.064 75.5536 119.993 75.8072 121.008 75.8072H210.691C214.833 75.8072 218.975 75.9763 223.032 75.8072H223.201L219.566 74.2012V90.3459C219.566 90.5994 219.651 91.2757 219.566 91.5292C219.482 91.7828 218.298 92.29 217.96 92.459C217.2 92.8817 216.439 93.3043 215.678 93.7269C203.844 99.9819 190.404 102.518 177.049 103.109C164.962 103.532 152.874 102.518 141.041 100.151C136.476 99.3057 132.588 98.3759 128.108 97.108L125.572 96.3473L125.403 96.2628L124.896 96.0937L123.882 95.7556C123.29 95.5865 122.698 95.333 122.191 95.1639C121.769 94.9948 122.107 95.1639 122.276 95.1639L121.938 94.9949L121.261 94.7413C120.754 94.4877 121.599 94.9103 121.261 94.7413C120.839 94.4877 120.923 94.5722 121.261 94.7413C121.008 94.5722 121.177 94.7413 121.261 94.7413C121.177 94.7413 121.346 94.9948 121.261 94.7413C121.008 93.1353 120.923 91.5292 120.923 90.0078C120.923 85.5278 121.092 81.0479 121.261 76.5679C121.261 76.2298 121.261 75.9763 121.261 75.7227C121.43 74.7084 117.373 73.8631 117.373 74.2857Z" fill="#5A5A5A"/>
<path d="M119.317 75.0453C119.317 75.0453 134.448 82.6527 164.201 84.1742C206.634 86.2874 221.595 75.0453 221.595 75.0453C221.595 75.0453 222.609 69.4665 194.039 67.2688C165.469 65.0711 119.655 67.5224 119.317 75.0453Z" fill="#5A5A5A"/>
<path d="M119.233 76.1455C122.783 77.8361 126.587 79.1885 130.39 80.2028C140.618 83.0767 151.184 84.7673 161.75 85.4435C173.584 86.3733 185.502 86.0352 197.336 84.5137C204.014 83.6684 210.607 82.0624 216.862 79.6111C218.468 79.0194 219.989 78.2587 221.426 77.498C222.018 77.2444 222.525 76.9063 223.032 76.4836C223.539 75.9765 223.286 75.3002 223.032 74.7086C222.187 73.2716 220.919 72.1727 219.482 71.412C217.115 70.0596 214.495 69.1298 211.875 68.5381C206.972 67.3547 201.985 66.594 196.998 66.1713C186.432 65.2415 175.866 64.8189 165.3 65.0725C155.41 65.157 145.521 65.8332 135.716 67.1011C131.996 67.5238 128.362 68.2845 124.727 69.2143C122.614 69.806 120.163 70.5667 118.472 72.1727C117.965 72.6799 117.627 73.3561 117.542 74.0323C117.458 75.3848 121.008 77.4134 121.093 76.061C121.093 75.8919 121.092 75.8074 121.177 75.6384C121.177 75.5538 121.262 75.4693 121.177 75.6384C121.177 75.5538 121.262 75.4693 121.262 75.3848C121.431 75.1312 121.684 74.8776 121.938 74.624C122.614 74.0323 123.375 73.6097 124.22 73.2716C126.925 72.1727 129.799 71.412 132.673 70.9048C141.548 69.3834 150.508 68.5381 159.552 68.2845C169.696 67.8619 179.839 67.9464 189.898 68.4536C195.307 68.7071 200.801 69.2143 206.127 69.975C208.24 70.3131 210.353 70.6513 212.466 71.1584C213.903 71.4965 215.34 71.8346 216.693 72.3418C217.2 72.5108 217.707 72.7644 218.214 72.9335C218.721 73.1025 217.96 72.7644 218.468 73.018L219.059 73.3561C219.144 73.4406 219.651 73.7788 219.313 73.5252C218.975 73.2716 219.397 73.6097 219.482 73.6942C219.313 73.5252 219.989 74.0323 219.482 73.6942C219.651 73.8633 219.651 73.8633 219.736 73.9478C219.989 74.1169 219.313 73.5252 219.651 73.8633C219.989 74.2014 219.82 74.0323 219.651 73.7788C219.736 73.8633 219.905 74.2859 219.82 73.9478C219.736 73.6097 219.82 74.0323 219.82 74.0323C219.736 74.2014 219.905 73.6942 219.82 73.9478C219.82 73.9478 219.82 73.9478 219.82 74.0323L220.158 73.6097C218.468 74.7086 216.693 75.6384 214.833 76.3991C209.17 78.6813 203.253 80.2873 197.167 81.2171C186.263 82.8232 175.274 83.3303 164.286 82.7386C153.297 82.316 142.309 80.7945 131.658 78.0896C127.432 76.9908 123.206 75.5538 119.148 73.8633C119.148 73.8633 119.74 74.1169 119.402 73.9478C118.895 73.6942 117.711 73.1871 117.542 74.0323C117.373 74.8776 118.726 75.8074 119.233 76.1455Z" fill="#5A5A5A"/>
<path d="M120.9 80.2549C123.032 81.518 125.321 82.6232 127.689 83.4126C134.636 85.9388 141.82 87.5966 149.162 88.386C160.845 89.728 172.608 89.9649 184.291 88.9386C192.343 88.386 200.317 87.2019 208.132 85.3073C211.526 84.5178 214.842 83.4126 218.079 81.9917L218.631 81.7548C218.868 81.6759 220.052 81.1233 219.736 80.8865C219.421 80.6496 217.684 81.597 217.447 81.7548C217.526 81.7548 218.158 81.4391 217.842 81.597C217.526 81.7548 218.394 81.3601 217.921 81.518L217.368 81.7548L216.895 81.9127C216.579 82.0706 216.184 82.1496 215.868 82.2285C216.263 82.0706 215.71 82.3074 215.553 82.3074L214.842 82.5443C213.816 82.86 212.79 83.1758 211.763 83.4126C204.422 85.2283 196.922 86.4914 189.423 87.044C177.976 88.0702 166.529 88.0702 155.083 86.8861C147.425 86.1756 139.926 84.5968 132.584 82.1495C130.61 81.4391 128.637 80.6496 126.742 79.7813C125.953 79.3866 125.163 78.834 124.374 78.5182L124.295 78.4393C123.9 78.2024 122.716 78.834 122.4 78.9918C122.085 79.4655 121.453 79.7813 120.9 80.2549Z" fill="#D9D9D9"/>
<path d="M150 80.1018V70.5876H153.134C154.132 70.5876 154.878 70.8395 155.373 71.3432C155.876 71.8469 156.128 72.5185 156.128 73.3579V74.0995C156.128 74.939 155.876 75.6152 155.373 76.1282C154.878 76.6319 154.132 76.8838 153.134 76.8838H151.679V80.1018H150ZM153.134 72.1967H151.679V75.2748H153.134C153.544 75.2748 153.857 75.1722 154.072 74.967C154.295 74.7617 154.407 74.4726 154.407 74.0995V73.3579C154.407 72.9942 154.295 72.7097 154.072 72.5045C153.857 72.2993 153.544 72.1967 153.134 72.1967Z" fill="white"/>
<path d="M161.689 74.4773C161.251 74.4773 160.831 74.5472 160.43 74.6871C160.038 74.8177 159.66 75.0322 159.297 75.3307V80.1018H157.688V73.0082H159.213V74.0995C159.688 73.6518 160.113 73.3346 160.486 73.1481C160.859 72.9615 161.26 72.8682 161.689 72.8682V74.4773Z" fill="white"/>
<path d="M168.905 76.1282V76.9677C168.905 77.9565 168.634 78.7493 168.093 79.3463C167.552 79.9432 166.787 80.2417 165.799 80.2417C164.81 80.2417 164.045 79.9432 163.504 79.3463C162.963 78.7493 162.693 77.9565 162.693 76.9677V76.1282C162.693 75.1395 162.958 74.3513 163.49 73.7637C164.031 73.1667 164.801 72.8682 165.799 72.8682C166.797 72.8682 167.562 73.1667 168.093 73.7637C168.634 74.3513 168.905 75.1395 168.905 76.1282ZM167.254 76.1282C167.254 75.5593 167.128 75.1162 166.876 74.7991C166.624 74.4726 166.265 74.3094 165.799 74.3094C165.332 74.3094 164.973 74.4726 164.721 74.7991C164.47 75.1162 164.344 75.5593 164.344 76.1282V76.9677C164.344 77.5367 164.47 77.9844 164.721 78.3109C164.973 78.6374 165.332 78.8006 165.799 78.8006C166.265 78.8006 166.624 78.6374 166.876 78.3109C167.128 77.9844 167.254 77.5367 167.254 76.9677V76.1282Z" fill="white"/>
<path d="M172.36 71.665H170.667V70H172.36V71.665ZM169.254 83.2219V81.7108C169.72 81.7108 170.079 81.5989 170.331 81.375C170.583 81.1512 170.709 80.7454 170.709 80.1578V73.0082H172.318V80.1578C172.318 80.6894 172.229 81.1885 172.052 81.6549C171.884 82.1212 171.576 82.499 171.129 82.7882C170.69 83.0773 170.065 83.2219 169.254 83.2219Z" fill="white"/>
<path d="M179.921 79.6961C179.436 79.8919 178.979 80.0318 178.55 80.1158C178.121 80.1997 177.715 80.2417 177.333 80.2417C176.279 80.2417 175.481 79.9432 174.94 79.3463C174.399 78.7493 174.129 77.9565 174.129 76.9677V76.1282C174.129 75.466 174.25 74.8923 174.493 74.4073C174.735 73.9223 175.08 73.5445 175.528 73.274C175.976 73.0035 176.503 72.8682 177.109 72.8682C177.604 72.8682 178.065 72.9708 178.494 73.1761C178.933 73.3719 179.287 73.6844 179.558 74.1135C179.837 74.5332 179.977 75.0742 179.977 75.7365C179.977 75.9324 179.963 76.1422 179.935 76.3661C179.907 76.5806 179.861 76.8092 179.795 77.0517H175.682C175.701 77.63 175.845 78.0637 176.116 78.3529C176.386 78.642 176.82 78.7866 177.417 78.7866C177.734 78.7866 178.061 78.7493 178.396 78.6747C178.741 78.6001 179.096 78.4881 179.46 78.3389L179.921 79.6961ZM177.109 74.2254C176.68 74.2254 176.344 74.3653 176.102 74.6452C175.869 74.9157 175.733 75.3074 175.696 75.8204H178.382C178.392 75.7738 178.396 75.7318 178.396 75.6945C178.396 75.6479 178.396 75.6059 178.396 75.5686C178.396 75.1209 178.27 74.7851 178.019 74.5612C177.767 74.3373 177.464 74.2254 177.109 74.2254Z" fill="white"/>
<path d="M183.062 76.1422V76.9677C183.062 77.5647 183.17 78.0124 183.384 78.3109C183.599 78.6094 183.944 78.7586 184.419 78.7586C184.653 78.7586 184.914 78.7306 185.203 78.6747C185.501 78.6094 185.823 78.5114 186.168 78.3809L186.63 79.738C186.21 79.9059 185.814 80.0318 185.441 80.1158C185.068 80.1997 184.699 80.2417 184.335 80.2417C183.403 80.2417 182.689 79.9432 182.195 79.3463C181.7 78.7493 181.453 77.9565 181.453 76.9677V76.1422C181.453 75.1442 181.7 74.3513 182.195 73.7637C182.689 73.1667 183.403 72.8682 184.335 72.8682C184.69 72.8682 185.049 72.9102 185.413 72.9942C185.777 73.0781 186.159 73.1994 186.56 73.3579L186.098 74.7431C185.427 74.4819 184.867 74.3513 184.419 74.3513C183.944 74.3513 183.599 74.5006 183.384 74.7991C183.17 75.0882 183.062 75.5359 183.062 76.1422Z" fill="white"/>
<path d="M192.37 79.864C192.127 79.9759 191.848 80.0645 191.53 80.1298C191.213 80.2044 190.892 80.2417 190.565 80.2417C190.024 80.2417 189.59 80.1298 189.264 79.9059C188.937 79.6821 188.7 79.3696 188.55 78.9685C188.41 78.5674 188.34 78.1104 188.34 77.5973V74.4073H187.193V73.0082H188.34V71.1613H189.949V73.0082H192.16V74.4073H189.949V77.5973C189.949 78.0264 190.029 78.3249 190.187 78.4928C190.355 78.6514 190.593 78.7306 190.901 78.7306C191.05 78.7306 191.209 78.7167 191.377 78.6887C191.554 78.6514 191.75 78.5907 191.964 78.5068L192.37 79.864Z" fill="white"/>
<path fill-rule="evenodd" clip-rule="evenodd" d="M134.2 34C135.194 34 136 34.8059 136 35.8V37.5233C136 38.5174 135.194 39.3233 134.2 39.3233C133.206 39.3233 132.4 38.5174 132.4 37.5233L132.4 35.8C132.4 34.8059 133.206 34 134.2 34ZM201.2 41C202.194 41 203 41.8059 203 42.8V44.5233C203 45.5174 202.194 46.3233 201.2 46.3233C200.206 46.3233 199.4 45.5174 199.4 44.5233V42.8C199.4 41.8059 200.206 41 201.2 41ZM134.2 41.4101C135.194 41.4101 136 42.216 136 43.2101V46.6566C136 47.6507 135.194 48.4566 134.2 48.4566C133.206 48.4566 132.4 47.6507 132.4 46.6566L132.4 43.2101C132.4 42.216 133.206 41.4101 134.2 41.4101ZM201.2 48.4101C202.194 48.4101 203 49.2159 203 50.2101V53.6566C203 54.6507 202.194 55.4566 201.2 55.4566C200.206 55.4566 199.4 54.6507 199.4 53.6566V50.2101C199.4 49.2159 200.206 48.4101 201.2 48.4101ZM134.2 50.5434C135.194 50.5434 136 51.3493 136 52.3434L136 55.7899C136 56.784 135.194 57.5899 134.2 57.5899C133.206 57.5899 132.4 56.784 132.4 55.7899L132.4 52.3434C132.4 51.3493 133.206 50.5434 134.2 50.5434ZM201.2 57.5434C202.194 57.5434 203 58.3493 203 59.3434V62.7899C203 63.784 202.194 64.5899 201.2 64.5899C200.206 64.5899 199.4 63.784 199.4 62.7899V59.3434C199.4 58.3493 200.206 57.5434 201.2 57.5434ZM134.2 59.6767C135.194 59.6767 136 60.4826 136 61.4767L136 63.2C136 64.1941 135.194 65 134.2 65C133.206 65 132.4 64.1941 132.4 63.2L132.4 61.4767C132.4 60.4826 133.206 59.6767 134.2 59.6767ZM201.2 66.6767C202.194 66.6767 203 67.4826 203 68.4767V70.2C203 71.1941 202.194 72 201.2 72C200.206 72 199.4 71.1941 199.4 70.2V68.4767C199.4 67.4826 200.206 66.6767 201.2 66.6767Z" fill="#CECECE"/>
<path d="M97.6685 18.1699C97.6685 18.1699 97.0652 30.5373 97.6685 31.9248C98.2718 33.3124 142.975 47.7912 170.666 30.5373V18.1699H97.6685Z" fill="#8F8F8F"/>
<path d="M96.2809 17.6877C96.1603 20.3422 96.0396 22.9966 96.0396 25.6511C95.9793 27.28 95.9793 28.8485 96.1 30.4774C96.1603 31.2013 96.2206 31.684 96.8239 32.1063C98.3321 33.0715 100.142 33.6145 101.831 34.1574C104.787 35.1227 107.864 35.907 110.88 36.5706C119.326 38.5011 127.953 39.5267 136.58 39.6473C146.293 39.7077 156.308 38.4408 165.297 34.6401C166.443 34.1574 167.529 33.6748 168.615 33.0715C169.158 32.8302 169.64 32.5286 170.123 32.2269C170.726 31.9856 171.269 31.6236 171.812 31.2617C172.054 31.0203 171.993 30.8997 171.993 30.5377V18.7736C171.993 18.4117 171.33 18.1704 171.088 18.0497C170.545 17.8084 170.002 17.6877 169.399 17.6274H99.418C98.5131 17.6274 97.5478 17.5671 96.5826 17.6274C96.5223 17.6274 96.5223 17.6274 96.4619 17.6274C95.7983 17.6274 96.6429 18.2307 96.8239 18.291C97.4272 18.653 98.0908 18.834 98.8147 18.834H162.823C165.779 18.834 168.736 18.9546 171.631 18.834H171.752L169.158 17.7481V29.3311C169.158 29.5121 169.218 29.9948 169.158 30.1154C169.098 30.2361 168.253 30.6584 168.012 30.779C167.469 31.0807 166.926 31.3823 166.383 31.684C157.937 36.1483 148.344 37.9581 138.813 38.3804C130.186 38.6821 121.559 37.9581 113.113 36.2086C109.855 35.6053 107.08 34.9417 103.882 34.0368C103.279 33.8558 102.676 33.6748 102.072 33.4938L101.952 33.4335L101.59 33.3128L100.866 33.0715L99.6593 32.6492C99.3577 32.5286 99.599 32.6492 99.7197 32.6492L99.4784 32.5889L98.9957 32.4079C98.6338 32.2269 99.237 32.5286 98.9957 32.4079C98.6941 32.2269 98.7544 32.2872 98.9957 32.4079C98.8147 32.2872 98.9354 32.4079 98.9957 32.4079C98.9354 32.4079 99.0561 32.5889 98.9957 32.4079C98.8147 31.2617 98.7544 30.1154 98.7544 28.9692C98.7544 25.7718 98.8751 22.5743 98.9957 19.3769C98.9957 19.1959 98.9957 18.9546 98.9957 18.7133C99.1164 17.929 96.2809 17.3861 96.2809 17.6877Z" fill="#8F8F8F"/>
<path d="M97.6685 18.1701C97.6685 18.1701 108.467 23.5997 129.703 24.6856C159.988 26.1938 170.666 18.1701 170.666 18.1701C170.666 18.1701 171.39 14.1884 150.999 12.6199C130.608 11.0513 97.9098 12.8612 97.6685 18.1701Z" fill="#8F8F8F"/>
<path d="M97.6082 18.9548C100.202 20.1613 102.857 21.1266 105.572 21.8505C112.871 23.9017 120.412 25.1083 127.953 25.5909C136.399 26.2545 144.906 26.0132 153.352 24.9273C158.118 24.324 162.823 23.1778 167.288 21.4282C168.434 21.0059 169.52 20.463 170.545 19.92C170.968 19.739 171.33 19.4977 171.692 19.1961C172.054 18.8341 171.873 18.3515 171.692 17.9292C171.088 16.9036 170.184 16.1193 169.158 15.5764C167.469 14.6111 165.599 13.9475 163.728 13.5252C160.229 12.6806 156.67 12.1376 153.111 11.836C145.569 11.1724 138.028 10.8707 130.487 11.0517C123.429 11.1121 116.37 11.5947 109.372 12.4393C106.718 12.7409 104.124 13.2839 101.59 13.9475C100.082 14.3698 98.2719 14.9128 97.1256 16.059C96.7636 16.421 96.5223 16.9036 96.462 17.3862C96.4017 18.3515 98.9355 19.7994 98.9958 18.8341C98.9958 18.7135 98.9958 18.6531 99.0561 18.5325C99.0561 18.4721 99.1164 18.4118 99.0561 18.5325C99.0561 18.4721 99.1165 18.4118 99.1165 18.3515C99.2371 18.1705 99.4181 17.9895 99.5991 17.8085C100.082 17.3862 100.625 17.0846 101.228 16.8433C103.158 16.059 105.21 15.516 107.261 15.1541C113.595 14.0682 119.99 13.4649 126.445 13.2839C133.685 12.9822 140.924 13.0426 148.103 13.4045C151.964 13.5855 155.886 13.9475 159.686 14.4905C161.195 14.7318 162.703 14.9731 164.211 15.3351C165.237 15.5764 166.262 15.8177 167.227 16.1797C167.589 16.3003 167.951 16.4813 168.313 16.602C168.675 16.7226 168.132 16.4813 168.494 16.6623L168.917 16.9036C168.977 16.9639 169.339 17.2052 169.098 17.0243C168.856 16.8433 169.158 17.0846 169.218 17.1449C169.098 17.0243 169.58 17.3862 169.218 17.1449C169.339 17.2656 169.339 17.2656 169.399 17.3259C169.58 17.4466 169.098 17.0243 169.339 17.2656C169.58 17.5069 169.46 17.3862 169.339 17.2052C169.399 17.2656 169.52 17.5672 169.46 17.3259C169.399 17.0846 169.46 17.3862 169.46 17.4466C169.399 17.5672 169.52 17.2052 169.46 17.3862V17.4466L169.701 17.1449C168.555 17.9292 167.288 18.5928 165.96 19.1358C161.918 20.7646 157.695 21.9109 153.352 22.5745C145.569 23.7207 137.727 24.0827 129.884 23.6604C122.041 23.3588 114.259 22.2728 106.658 20.3423C103.641 19.5581 100.625 18.5325 97.7289 17.3259L97.9099 17.4466C97.5479 17.2656 96.7033 16.9036 96.5826 17.5069C96.462 18.1102 97.1859 18.7738 97.6082 18.9548Z" fill="#8F8F8F"/>
<path d="M98.7983 21.7406C100.32 22.6421 101.954 23.4309 103.644 23.9943C108.602 25.7973 113.729 26.9805 118.969 27.5439C127.308 28.5017 135.703 28.6708 144.042 27.9383C149.789 27.5439 155.479 26.6988 161.057 25.3465C163.48 24.7831 165.846 23.9943 168.156 22.9801L168.551 22.8111C168.72 22.7548 169.565 22.3604 169.34 22.1913C169.114 22.0223 167.875 22.6984 167.706 22.8111C167.762 22.8111 168.213 22.5857 167.987 22.6984C167.762 22.8111 168.382 22.5294 168.044 22.6421L167.649 22.8111L167.311 22.9238C167.086 23.0365 166.804 23.0928 166.579 23.1492C166.86 23.0365 166.466 23.2055 166.353 23.2055L165.846 23.3745C165.114 23.5999 164.381 23.8253 163.649 23.9943C158.409 25.2902 153.056 26.1917 147.704 26.5861C139.534 27.3185 131.364 27.3185 123.195 26.4734C117.73 25.9663 112.377 24.8395 107.137 23.0928C105.729 22.5857 104.32 22.0223 102.968 21.4025C102.404 21.1208 101.841 20.7264 101.277 20.5011L101.221 20.4447C100.939 20.2757 100.094 20.7264 99.8689 20.8391C99.6435 21.1772 99.1927 21.4026 98.7983 21.7406Z" fill="#D9D9D9"/>
<path d="M151.697 20.7344V14.5293H152.892V20.7344C152.892 20.8383 152.916 20.9388 152.965 21.0358C153.02 21.1259 153.124 21.1709 153.276 21.1709H153.443V22.2726H153.152C152.757 22.2726 152.455 22.1964 152.247 22.044C152.04 21.8915 151.894 21.6975 151.811 21.4619C151.735 21.2263 151.697 20.9838 151.697 20.7344Z" fill="white"/>
<path d="M150.309 21.9193C149.949 22.0648 149.609 22.1687 149.291 22.2311C148.972 22.2934 148.67 22.3246 148.386 22.3246C147.603 22.3246 147.011 22.1029 146.609 21.6594C146.207 21.2159 146.006 20.627 146.006 19.8925V19.2688C146.006 18.7769 146.096 18.3507 146.276 17.9904C146.457 17.6301 146.713 17.3495 147.046 17.1485C147.378 16.9476 147.77 16.8471 148.22 16.8471C148.587 16.8471 148.93 16.9233 149.249 17.0758C149.575 17.2213 149.838 17.4534 150.039 17.7721C150.247 18.084 150.351 18.4859 150.351 18.9778C150.351 19.1233 150.34 19.2792 150.32 19.4455C150.299 19.6049 150.264 19.7747 150.216 19.9548H147.16C147.174 20.3844 147.281 20.7067 147.482 20.9215C147.683 21.1363 148.005 21.2437 148.449 21.2437C148.684 21.2437 148.927 21.2159 149.176 21.1605C149.433 21.1051 149.696 21.0219 149.966 20.9111L150.309 21.9193ZM148.22 17.8553C147.901 17.8553 147.652 17.9592 147.472 18.1671C147.298 18.3681 147.198 18.6591 147.17 19.0402H149.166C149.173 19.0055 149.176 18.9744 149.176 18.9466C149.176 18.912 149.176 18.8808 149.176 18.8531C149.176 18.5205 149.083 18.271 148.896 18.1047C148.709 17.9384 148.483 17.8553 148.22 17.8553Z" fill="white"/>
<path d="M142.815 17.9592C142.642 17.9592 142.445 18.0008 142.223 18.084C142.001 18.1671 141.738 18.3299 141.433 18.5725V22.2207H140.238V16.951H141.371V17.6578C141.696 17.3737 142.005 17.1693 142.296 17.0446C142.587 16.9129 142.881 16.8471 143.179 16.8471C143.685 16.8471 144.07 17.0099 144.333 17.3356C144.596 17.6544 144.728 18.1047 144.728 18.6868V22.2207H143.533V18.8323C143.533 18.2503 143.294 17.9592 142.815 17.9592Z" fill="white"/>
<path d="M136.746 17.9592C136.572 17.9592 136.375 18.0008 136.153 18.084C135.931 18.1671 135.668 18.3299 135.363 18.5725V22.2207H134.168V16.951H135.301V17.6578C135.627 17.3737 135.935 17.1693 136.226 17.0446C136.517 16.9129 136.811 16.8471 137.109 16.8471C137.615 16.8471 138 17.0099 138.263 17.3356C138.526 17.6544 138.658 18.1047 138.658 18.6868V22.2207H137.463V18.8323C137.463 18.2503 137.224 17.9592 136.746 17.9592Z" fill="white"/>
<path d="M132.891 22.2726C132.538 22.2726 132.254 22.1999 132.039 22.0544C131.831 21.9089 131.679 21.7287 131.582 21.5139C131.284 21.7911 130.996 21.9955 130.719 22.1271C130.442 22.2588 130.144 22.3246 129.825 22.3246C129.361 22.3246 129.018 22.1756 128.796 21.8777C128.581 21.5797 128.474 21.2021 128.474 20.7448C128.474 20.4399 128.529 20.1731 128.64 19.9444C128.758 19.7089 128.949 19.5252 129.212 19.3936C129.475 19.2619 129.835 19.1961 130.293 19.1961C130.473 19.1961 130.66 19.2099 130.854 19.2377C131.048 19.2585 131.242 19.2862 131.436 19.3208V18.7076C131.436 18.4166 131.356 18.2191 131.197 18.1151C131.038 18.0043 130.823 17.9488 130.553 17.9488C130.345 17.9488 130.116 17.9766 129.867 18.032C129.624 18.0874 129.361 18.174 129.077 18.2918L128.734 17.2732C129.434 16.9892 130.068 16.8471 130.636 16.8471C131.149 16.8471 131.544 16.9337 131.821 17.1069C132.105 17.2802 132.302 17.5088 132.413 17.7929C132.524 18.077 132.579 18.3819 132.579 18.7076V20.7344C132.579 20.8383 132.607 20.9388 132.663 21.0358C132.725 21.1259 132.843 21.1709 133.016 21.1709H133.13V22.2726H132.891ZM129.628 20.724C129.628 20.9111 129.669 21.06 129.752 21.1709C129.835 21.2748 129.957 21.3268 130.116 21.3268C130.275 21.3268 130.456 21.2852 130.657 21.2021C130.858 21.1189 131.117 20.9249 131.436 20.62V20.1731C131.076 20.1107 130.722 20.0796 130.376 20.0796C130.106 20.0796 129.912 20.135 129.794 20.2459C129.683 20.3567 129.628 20.5161 129.628 20.724Z" fill="white"/>
<path d="M125.408 17.9592C125.235 17.9592 125.037 18.0008 124.815 18.084C124.594 18.1671 124.33 18.3299 124.026 18.5725V22.2207H122.83V14.5293H124.026V17.6058C124.344 17.3356 124.642 17.1416 124.919 17.0238C125.197 16.906 125.481 16.8471 125.772 16.8471C126.278 16.8471 126.662 17.0099 126.925 17.3356C127.189 17.6544 127.32 18.1047 127.32 18.6868V22.2207H126.125V18.8323C126.125 18.2503 125.886 17.9592 125.408 17.9592Z" fill="white"/>
<path d="M118.39 19.4248C118.39 19.9306 118.501 20.3463 118.723 20.672C118.945 20.9907 119.308 21.1501 119.814 21.1501C120.022 21.1501 120.237 21.1224 120.459 21.067C120.687 21.0115 120.968 20.918 121.3 20.7863L121.685 21.8673C121.311 22.0336 120.964 22.1514 120.646 22.2207C120.334 22.29 120.032 22.3246 119.741 22.3246C119.159 22.3246 118.671 22.1999 118.276 21.9504C117.888 21.701 117.597 21.358 117.403 20.9215C117.209 20.4849 117.112 19.986 117.112 19.4248V17.9384C117.112 17.3772 117.209 16.8783 117.403 16.4417C117.597 16.0052 117.888 15.6657 118.276 15.4232C118.671 15.1737 119.159 15.049 119.741 15.049C120.026 15.049 120.32 15.0836 120.625 15.1529C120.93 15.2153 121.262 15.3262 121.623 15.4855L121.238 16.5873C120.919 16.4556 120.653 16.3621 120.438 16.3066C120.223 16.2512 120.015 16.2235 119.814 16.2235C119.308 16.2235 118.945 16.3828 118.723 16.7016C118.501 17.0203 118.39 17.4326 118.39 17.9384V19.4248Z" fill="white"/>
<path d="M162.669 32.1699C162.669 32.1699 162.065 44.5373 162.669 45.9248C163.272 47.3124 207.975 61.7912 235.666 44.5373V32.1699H162.669Z" fill="#767676"/>
<path d="M161.281 31.6877C161.16 34.3422 161.04 36.9966 161.04 39.6511C160.979 41.28 160.979 42.8485 161.1 44.4774C161.16 45.2013 161.221 45.684 161.824 46.1063C163.332 47.0715 165.142 47.6145 166.831 48.1574C169.787 49.1227 172.864 49.907 175.88 50.5706C184.326 52.5011 192.953 53.5267 201.58 53.6473C211.293 53.7077 221.308 52.4408 230.297 48.6401C231.443 48.1574 232.529 47.6748 233.615 47.0715C234.158 46.8302 234.64 46.5286 235.123 46.2269C235.726 45.9856 236.269 45.6236 236.812 45.2617C237.054 45.0203 236.993 44.8997 236.993 44.5377V32.7736C236.993 32.4117 236.33 32.1704 236.088 32.0497C235.545 31.8084 235.002 31.6877 234.399 31.6274H164.418C163.513 31.6274 162.548 31.5671 161.583 31.6274C161.522 31.6274 161.522 31.6274 161.462 31.6274C160.798 31.6274 161.643 32.2307 161.824 32.291C162.427 32.653 163.091 32.834 163.815 32.834H227.823C230.779 32.834 233.736 32.9546 236.631 32.834H236.752L234.158 31.7481V43.3311C234.158 43.5121 234.218 43.9948 234.158 44.1154C234.098 44.2361 233.253 44.6584 233.012 44.779C232.469 45.0807 231.926 45.3823 231.383 45.684C222.937 50.1483 213.344 51.9581 203.813 52.3804C195.186 52.6821 186.559 51.9581 178.113 50.2086C174.855 49.6053 172.08 48.9417 168.882 48.0368C168.279 47.8558 167.676 47.6748 167.072 47.4938L166.952 47.4335L166.59 47.3128L165.866 47.0715L164.659 46.6492C164.358 46.5286 164.599 46.6492 164.72 46.6492L164.478 46.5889L163.996 46.4079C163.634 46.2269 164.237 46.5286 163.996 46.4079C163.694 46.2269 163.754 46.2872 163.996 46.4079C163.815 46.2872 163.935 46.4079 163.996 46.4079C163.935 46.4079 164.056 46.5889 163.996 46.4079C163.815 45.2617 163.754 44.1154 163.754 42.9692C163.754 39.7718 163.875 36.5743 163.996 33.3769C163.996 33.1959 163.996 32.9546 163.996 32.7133C164.116 31.929 161.281 31.3861 161.281 31.6877Z" fill="#767676"/>
<path d="M162.668 32.1701C162.668 32.1701 173.467 37.5997 194.703 38.6856C224.988 40.1938 235.666 32.1701 235.666 32.1701C235.666 32.1701 236.39 28.1884 215.999 26.6199C195.608 25.0513 162.91 26.8612 162.668 32.1701Z" fill="#767676"/>
<path d="M162.608 32.9548C165.202 34.1613 167.857 35.1266 170.572 35.8505C177.871 37.9017 185.412 39.1083 192.953 39.5909C201.399 40.2545 209.906 40.0132 218.352 38.9273C223.118 38.324 227.823 37.1778 232.288 35.4282C233.434 35.0059 234.52 34.463 235.545 33.92C235.968 33.739 236.33 33.4977 236.692 33.1961C237.054 32.8341 236.873 32.3515 236.692 31.9292C236.088 30.9036 235.184 30.1193 234.158 29.5764C232.469 28.6111 230.599 27.9475 228.728 27.5252C225.229 26.6806 221.67 26.1376 218.111 25.836C210.569 25.1724 203.028 24.8707 195.487 25.0517C188.429 25.1121 181.37 25.5947 174.372 26.4393C171.718 26.7409 169.124 27.2839 166.59 27.9475C165.082 28.3698 163.272 28.9128 162.126 30.059C161.764 30.421 161.522 30.9036 161.462 31.3862C161.402 32.3515 163.935 33.7994 163.996 32.8341C163.996 32.7135 163.996 32.6531 164.056 32.5325C164.056 32.4721 164.116 32.4118 164.056 32.5325C164.056 32.4721 164.116 32.4118 164.116 32.3515C164.237 32.1705 164.418 31.9895 164.599 31.8085C165.082 31.3862 165.625 31.0846 166.228 30.8433C168.158 30.059 170.21 29.516 172.261 29.1541C178.595 28.0682 184.99 27.4649 191.445 27.2839C198.685 26.9822 205.924 27.0426 213.103 27.4045C216.964 27.5855 220.886 27.9475 224.686 28.4905C226.195 28.7318 227.703 28.9731 229.211 29.3351C230.237 29.5764 231.262 29.8177 232.227 30.1797C232.589 30.3003 232.951 30.4813 233.313 30.602C233.675 30.7226 233.132 30.4813 233.494 30.6623L233.917 30.9036C233.977 30.9639 234.339 31.2052 234.098 31.0243C233.856 30.8433 234.158 31.0846 234.218 31.1449C234.098 31.0243 234.58 31.3862 234.218 31.1449C234.339 31.2656 234.339 31.2656 234.399 31.3259C234.58 31.4466 234.098 31.0243 234.339 31.2656C234.58 31.5069 234.46 31.3862 234.339 31.2052C234.399 31.2656 234.52 31.5672 234.46 31.3259C234.399 31.0846 234.46 31.3862 234.46 31.4466C234.399 31.5672 234.52 31.2052 234.46 31.3862V31.4466L234.701 31.1449C233.555 31.9292 232.288 32.5928 230.96 33.1358C226.918 34.7646 222.695 35.9109 218.352 36.5745C210.569 37.7207 202.727 38.0827 194.884 37.6604C187.041 37.3588 179.259 36.2728 171.658 34.3423C168.641 33.5581 165.625 32.5325 162.729 31.3259L162.91 31.4466C162.548 31.2656 161.703 30.9036 161.583 31.5069C161.462 32.1102 162.186 32.7738 162.608 32.9548Z" fill="#767676"/>
<path d="M163.798 35.7406C165.32 36.6421 166.954 37.4309 168.644 37.9943C173.602 39.7973 178.729 40.9805 183.969 41.5439C192.308 42.5017 200.703 42.6708 209.042 41.9383C214.789 41.5439 220.479 40.6988 226.057 39.3465C228.48 38.7831 230.846 37.9943 233.156 36.9801L233.551 36.8111C233.72 36.7548 234.565 36.3604 234.34 36.1913C234.114 36.0223 232.875 36.6984 232.706 36.8111C232.762 36.8111 233.213 36.5857 232.987 36.6984C232.762 36.8111 233.382 36.5294 233.044 36.6421L232.649 36.8111L232.311 36.9238C232.086 37.0365 231.804 37.0928 231.579 37.1492C231.86 37.0365 231.466 37.2055 231.353 37.2055L230.846 37.3745C230.114 37.5999 229.381 37.8253 228.649 37.9943C223.409 39.2902 218.056 40.1917 212.704 40.5861C204.534 41.3185 196.364 41.3185 188.195 40.4734C182.73 39.9663 177.377 38.8395 172.137 37.0928C170.729 36.5857 169.32 36.0223 167.968 35.4025C167.404 35.1208 166.841 34.7264 166.277 34.5011L166.221 34.4447C165.939 34.2757 165.094 34.7264 164.869 34.8391C164.643 35.1772 164.193 35.4026 163.798 35.7406Z" fill="#D9D9D9"/>
<path d="M184.278 33.8955C184.278 34.4013 184.389 34.817 184.611 35.1427C184.833 35.4614 185.197 35.6208 185.702 35.6208C185.91 35.6208 186.125 35.5931 186.347 35.5377C186.575 35.4822 186.856 35.3887 187.189 35.257L187.573 36.338C187.199 36.5043 186.853 36.6221 186.534 36.6914C186.222 36.7607 185.921 36.7953 185.63 36.7953C185.048 36.7953 184.559 36.6706 184.164 36.4211C183.776 36.1717 183.485 35.8287 183.291 35.3922C183.097 34.9556 183 34.4567 183 33.8955V32.4092C183 31.8479 183.097 31.349 183.291 30.9125C183.485 30.4759 183.776 30.1364 184.164 29.8939C184.559 29.6444 185.048 29.5197 185.63 29.5197C185.914 29.5197 186.208 29.5543 186.513 29.6236C186.818 29.686 187.151 29.7969 187.511 29.9562L187.126 31.058C186.808 30.9263 186.541 30.8328 186.326 30.7773C186.111 30.7219 185.903 30.6942 185.702 30.6942C185.197 30.6942 184.833 30.8536 184.611 31.1723C184.389 31.491 184.278 31.9033 184.278 32.4092V33.8955Z" fill="white"/>
<path d="M191.296 32.4299C191.123 32.4299 190.925 32.4715 190.704 32.5547C190.482 32.6378 190.219 32.8006 189.914 33.0432V36.6914H188.718V29H189.914V32.0766C190.232 31.8063 190.53 31.6123 190.808 31.4945C191.085 31.3767 191.369 31.3178 191.66 31.3178C192.166 31.3178 192.55 31.4806 192.814 31.8063C193.077 32.1251 193.209 32.5755 193.209 33.1575V36.6914H192.013V33.303C192.013 32.721 191.774 32.4299 191.296 32.4299Z" fill="white"/>
<path d="M198.779 36.7433C198.426 36.7433 198.142 36.6706 197.927 36.5251C197.719 36.3796 197.567 36.1994 197.47 35.9846C197.172 36.2618 196.884 36.4662 196.607 36.5978C196.33 36.7295 196.032 36.7953 195.713 36.7953C195.249 36.7953 194.906 36.6463 194.684 36.3484C194.469 36.0504 194.362 35.6728 194.362 35.2155C194.362 34.9106 194.418 34.6438 194.528 34.4151C194.646 34.1796 194.837 33.9959 195.1 33.8643C195.363 33.7326 195.724 33.6668 196.181 33.6668C196.361 33.6668 196.548 33.6807 196.742 33.7084C196.936 33.7292 197.13 33.7569 197.324 33.7915V33.1783C197.324 32.8873 197.245 32.6898 197.085 32.5858C196.926 32.475 196.711 32.4195 196.441 32.4195C196.233 32.4195 196.004 32.4473 195.755 32.5027C195.512 32.5581 195.249 32.6447 194.965 32.7625L194.622 31.744C195.322 31.4599 195.956 31.3178 196.524 31.3178C197.037 31.3178 197.432 31.4044 197.709 31.5777C197.993 31.7509 198.19 31.9795 198.301 32.2636C198.412 32.5477 198.468 32.8526 198.468 33.1783V35.2051C198.468 35.309 198.495 35.4095 198.551 35.5065C198.613 35.5966 198.731 35.6416 198.904 35.6416H199.018V36.7433H198.779ZM195.516 35.1947C195.516 35.3818 195.557 35.5307 195.641 35.6416C195.724 35.7455 195.845 35.7975 196.004 35.7975C196.164 35.7975 196.344 35.7559 196.545 35.6728C196.746 35.5896 197.006 35.3956 197.324 35.0907V34.6438C196.964 34.5814 196.611 34.5503 196.264 34.5503C195.994 34.5503 195.8 34.6057 195.682 34.7166C195.571 34.8274 195.516 34.9868 195.516 35.1947Z" fill="white"/>
<path d="M202.634 32.4299C202.461 32.4299 202.263 32.4715 202.041 32.5547C201.82 32.6378 201.556 32.8006 201.251 33.0432V36.6914H200.056V31.4217H201.189V32.1285C201.515 31.8444 201.823 31.64 202.114 31.5153C202.405 31.3836 202.7 31.3178 202.998 31.3178C203.503 31.3178 203.888 31.4806 204.151 31.8063C204.415 32.1251 204.546 32.5755 204.546 33.1575V36.6914H203.351V33.303C203.351 32.721 203.112 32.4299 202.634 32.4299Z" fill="white"/>
<path d="M208.704 32.4299C208.53 32.4299 208.333 32.4715 208.111 32.5547C207.889 32.6378 207.626 32.8006 207.321 33.0432V36.6914H206.126V31.4217H207.259V32.1285C207.585 31.8444 207.893 31.64 208.184 31.5153C208.475 31.3836 208.769 31.3178 209.067 31.3178C209.573 31.3178 209.958 31.4806 210.221 31.8063C210.484 32.1251 210.616 32.5755 210.616 33.1575V36.6914H209.421V33.303C209.421 32.721 209.182 32.4299 208.704 32.4299Z" fill="white"/>
<path d="M216.197 36.39C215.837 36.5355 215.497 36.6394 215.179 36.7018C214.86 36.7641 214.559 36.7953 214.274 36.7953C213.491 36.7953 212.899 36.5736 212.497 36.1301C212.095 35.6866 211.894 35.0977 211.894 34.3632V33.7396C211.894 33.2476 211.984 32.8214 212.165 32.4611C212.345 32.1008 212.601 31.8202 212.934 31.6192C213.266 31.4183 213.658 31.3178 214.108 31.3178C214.475 31.3178 214.818 31.394 215.137 31.5465C215.463 31.692 215.726 31.9241 215.927 32.2429C216.135 32.5547 216.239 32.9566 216.239 33.4485C216.239 33.594 216.229 33.7499 216.208 33.9162C216.187 34.0756 216.152 34.2454 216.104 34.4255H213.048C213.062 34.8551 213.169 35.1774 213.37 35.3922C213.571 35.607 213.893 35.7144 214.337 35.7144C214.572 35.7144 214.815 35.6866 215.064 35.6312C215.321 35.5758 215.584 35.4926 215.854 35.3818L216.197 36.39ZM214.108 32.326C213.789 32.326 213.54 32.4299 213.36 32.6378C213.187 32.8388 213.086 33.1298 213.058 33.5109H215.054C215.061 33.4762 215.064 33.4451 215.064 33.4173C215.064 33.3827 215.064 33.3515 215.064 33.3238C215.064 32.9912 214.971 32.7418 214.784 32.5755C214.597 32.4092 214.371 32.326 214.108 32.326Z" fill="white"/>
<path d="M217.585 35.2051V29H218.78V35.2051C218.78 35.309 218.804 35.4095 218.853 35.5065C218.908 35.5966 219.012 35.6416 219.165 35.6416H219.331V36.7433H219.04C218.645 36.7433 218.343 36.6671 218.136 36.5147C217.928 36.3622 217.782 36.1682 217.699 35.9326C217.623 35.697 217.585 35.4545 217.585 35.2051Z" fill="white"/>
<path d="M63.031 50.5357C63.031 50.5357 65.3484 46.8794 68.5928 48.0123C69.3652 48.3213 70.0347 48.8878 70.4467 49.6603C71.8371 52.1322 70.2407 55.4795 67.7173 55.4795L39.2905 55.428C37.2306 55.428 36.3036 52.2867 37.9515 50.7932C39.9084 49.0423 42.4833 50.5357 42.4833 50.5357C42.4833 50.5357 38.0545 42.914 43.3073 35.0864C48.5601 27.2587 56.2333 34.7774 55.4093 42.914C55.3578 42.914 63.752 36.8373 63.031 50.5357Z" fill="white"/>
<path d="M64.0607 49.8657C64.1122 49.7627 64.2152 49.6082 64.3182 49.5052C64.4212 49.4022 65.0907 48.8357 65.0907 48.6812C65.0907 48.8357 64.5242 48.9387 64.9877 48.7842C65.1937 48.6812 65.4512 48.6297 65.7087 48.5782C66.4296 48.4238 67.2021 48.5268 67.8716 48.8872C69.159 49.6082 69.9315 50.9986 69.8285 52.4921C69.8285 53.1616 69.6225 53.831 69.3135 54.3975C69.159 54.655 68.9015 54.861 68.7985 55.1185C69.2105 54.2945 69.9315 54.552 69.365 54.655C69.159 54.7065 68.953 54.758 68.7985 54.758C66.8416 54.861 64.8332 54.758 62.8763 54.758L41.4017 54.7065C40.3717 54.7065 39.3932 54.8095 38.7238 53.934C38.3118 53.419 38.1058 52.8011 38.1058 52.1316C38.1058 51.8226 38.1573 51.5136 38.2603 51.2046C38.3118 51.0501 38.3633 50.9472 38.4148 50.7927C38.4663 50.6897 38.5178 50.6382 38.5693 50.5352C38.8268 50.2262 38.6723 50.3292 38.0543 50.8442C38.2603 50.7927 38.4148 50.7412 38.6208 50.6897C38.8268 50.6382 39.0843 50.6382 39.2902 50.6382C39.6507 50.6382 40.0112 50.6897 40.3717 50.7927C40.7322 50.8957 41.0412 50.9986 41.3502 51.2046C41.6591 51.3591 43.6161 49.9687 43.4616 49.7627C41.5562 46.4668 41.2472 42.038 42.2771 38.4847C42.7921 36.8367 43.5646 35.2403 44.5945 33.8499C44.8005 33.5924 45.0065 33.3349 45.264 33.0774C45.367 32.9744 45.882 32.4594 45.47 32.8199C45.367 32.9229 45.4185 32.8199 45.5215 32.8199C45.6245 32.8199 45.779 32.7169 45.9335 32.6654C46.191 32.5624 46.4484 32.5109 46.7059 32.5109C48.8688 32.2534 50.8258 33.6954 52.0617 35.3948C53.7611 37.8152 54.5336 40.6991 54.2246 43.6345C54.2246 43.686 54.6881 43.48 54.7396 43.48C55.0486 43.274 55.3576 43.1195 55.6666 42.862C55.2031 43.2225 55.3576 43.068 55.4606 43.0165C55.5636 42.965 55.1001 43.274 55.3576 43.068C55.0486 43.2225 55.4606 43.0165 55.3576 43.068C55.6666 42.9135 55.2031 43.1195 55.5121 42.965L55.7181 42.862C55.8726 42.759 55.6151 42.9135 55.7696 42.8105C55.9241 42.7075 56.0786 42.656 56.2845 42.6045C56.5935 42.5015 56.9025 42.3985 57.263 42.347C59.2199 42.038 60.6104 43.1195 61.2798 44.9219C62.0008 46.9303 62.0008 49.1447 61.8978 51.2561C62.3098 51.1016 62.6703 50.8957 63.0308 50.6382C63.3912 50.5352 64.0607 50.1747 64.0607 49.8657C64.1637 47.8058 64.1637 45.6429 63.4942 43.686C63.1853 42.6045 62.5158 41.729 61.5888 41.1626C60.0954 40.3901 58.3445 41.0081 56.954 41.729C56.2845 42.0895 55.6151 42.5015 54.9456 42.965L56.3875 42.1925C56.6965 39.2571 55.9241 36.3733 54.2246 33.9529C52.8857 32.1504 50.7743 30.657 48.4569 31.069C46.9634 31.3265 45.6245 32.2534 44.4915 33.1804C43.2041 34.2618 42.1741 35.5493 41.4017 36.9912C39.8567 39.8236 39.2902 43.1195 39.7537 46.3123C39.9597 48.0633 40.5262 49.7112 41.3502 51.2561L43.4616 49.8142C42.5861 49.2992 41.5047 49.1447 40.5262 49.2992C39.5477 49.5567 38.5693 50.0202 37.7968 50.6382C37.0758 51.1016 36.5609 51.7196 36.2004 52.4406C35.7369 53.625 36.0974 54.964 37.0758 55.788C37.4878 56.0454 38.0028 56.1999 38.4663 56.1484C41.5561 56.1484 44.646 56.1484 47.7359 56.1484L61.2283 56.1999H65.6572H66.6356C67.7686 56.1999 68.6955 55.582 69.6225 54.964C70.9099 54.037 71.8884 52.9041 71.9914 51.3076C72.0944 49.7112 71.2704 47.8058 69.674 47.2393C68.232 46.7243 66.8931 47.1363 65.6572 47.9088C64.4212 48.6297 63.2882 49.5567 62.4128 50.6897C62.2583 50.8442 62.1038 51.0501 62.0008 51.2561C61.8978 51.4106 62.8248 50.9472 62.8763 50.8957C63.3398 50.6382 63.7517 50.2777 64.0607 49.8657Z" fill="#CECECE"/>
<path d="M49.031 55.5357C49.031 55.5357 51.3484 51.8794 54.5928 53.0123C55.3652 53.3213 56.0347 53.8878 56.4467 54.6603C57.8371 57.1322 56.2407 60.4795 53.7173 60.4795L25.2905 60.428C23.2306 60.428 22.3036 57.2867 23.9515 55.7932C25.9084 54.0423 28.4833 55.5357 28.4833 55.5357C28.4833 55.5357 24.0545 47.914 29.3073 40.0864C34.5601 32.2587 42.2333 39.7774 41.4093 47.914C41.3578 47.914 49.752 41.8373 49.031 55.5357Z" fill="white"/>
<path d="M50.0607 54.8657C50.1122 54.7627 50.2152 54.6082 50.3182 54.5052C50.4212 54.4022 51.0907 53.8357 51.0907 53.6812C51.0907 53.8357 50.5242 53.9387 50.9877 53.7842C51.1937 53.6812 51.4512 53.6297 51.7087 53.5782C52.4296 53.4238 53.2021 53.5268 53.8716 53.8872C55.159 54.6082 55.9315 55.9986 55.8285 57.4921C55.8285 58.1616 55.6225 58.831 55.3135 59.3975C55.159 59.655 54.9015 59.861 54.7985 60.1185C55.2105 59.2945 55.9315 59.552 55.365 59.655C55.159 59.7065 54.953 59.758 54.7985 59.758C52.8416 59.861 50.8332 59.758 48.8763 59.758L27.4017 59.7065C26.3717 59.7065 25.3932 59.8095 24.7238 58.934C24.3118 58.419 24.1058 57.8011 24.1058 57.1316C24.1058 56.8226 24.1573 56.5136 24.2603 56.2046C24.3118 56.0501 24.3633 55.9472 24.4148 55.7927C24.4663 55.6897 24.5178 55.6382 24.5693 55.5352C24.8268 55.2262 24.6723 55.3292 24.0543 55.8442C24.2603 55.7927 24.4148 55.7412 24.6208 55.6897C24.8268 55.6382 25.0843 55.6382 25.2902 55.6382C25.6507 55.6382 26.0112 55.6897 26.3717 55.7927C26.7322 55.8957 27.0412 55.9986 27.3502 56.2046C27.6591 56.3591 29.6161 54.9687 29.4616 54.7627C27.5562 51.4668 27.2472 47.038 28.2771 43.4847C28.7921 41.8367 29.5646 40.2403 30.5945 38.8499C30.8005 38.5924 31.0065 38.3349 31.264 38.0774C31.367 37.9744 31.882 37.4594 31.47 37.8199C31.367 37.9229 31.4185 37.8199 31.5215 37.8199C31.6245 37.8199 31.779 37.7169 31.9335 37.6654C32.191 37.5624 32.4484 37.5109 32.7059 37.5109C34.8688 37.2534 36.8258 38.6954 38.0617 40.3948C39.7611 42.8152 40.5336 45.6991 40.2246 48.6345C40.2246 48.686 40.6881 48.48 40.7396 48.48C41.0486 48.274 41.3576 48.1195 41.6666 47.862C41.2031 48.2225 41.3576 48.068 41.4606 48.0165C41.5636 47.965 41.1001 48.274 41.3576 48.068C41.0486 48.2225 41.4606 48.0165 41.3576 48.068C41.6666 47.9135 41.2031 48.1195 41.5121 47.965L41.7181 47.862C41.8726 47.759 41.6151 47.9135 41.7696 47.8105C41.9241 47.7075 42.0786 47.656 42.2845 47.6045C42.5935 47.5015 42.9025 47.3985 43.263 47.347C45.2199 47.038 46.6104 48.1195 47.2798 49.9219C48.0008 51.9303 48.0008 54.1447 47.8978 56.2561C48.3098 56.1016 48.6703 55.8957 49.0308 55.6382C49.3912 55.5352 50.0607 55.1747 50.0607 54.8657C50.1637 52.8058 50.1637 50.6429 49.4942 48.686C49.1853 47.6045 48.5158 46.729 47.5888 46.1626C46.0954 45.3901 44.3445 46.0081 42.954 46.729C42.2845 47.0895 41.6151 47.5015 40.9456 47.965L42.3875 47.1925C42.6965 44.2571 41.9241 41.3733 40.2246 38.9529C38.8857 37.1504 36.7743 35.657 34.4569 36.069C32.9634 36.3265 31.6245 37.2534 30.4915 38.1804C29.2041 39.2618 28.1741 40.5493 27.4017 41.9912C25.8567 44.8236 25.2902 48.1195 25.7537 51.3123C25.9597 53.0633 26.5262 54.7112 27.3502 56.2561L29.4616 54.8142C28.5861 54.2992 27.5047 54.1447 26.5262 54.2992C25.5477 54.5567 24.5693 55.0202 23.7968 55.6382C23.0758 56.1016 22.5609 56.7196 22.2004 57.4406C21.7369 58.625 22.0974 59.964 23.0758 60.788C23.4878 61.0454 24.0028 61.1999 24.4663 61.1484C27.5561 61.1484 30.646 61.1484 33.7359 61.1484L47.2283 61.1999H51.6572H52.6356C53.7686 61.1999 54.6955 60.582 55.6225 59.964C56.9099 59.037 57.8884 57.9041 57.9914 56.3076C58.0944 54.7112 57.2704 52.8058 55.674 52.2393C54.232 51.7243 52.8931 52.1363 51.6572 52.9088C50.4212 53.6297 49.2882 54.5567 48.4128 55.6897C48.2583 55.8442 48.1038 56.0501 48.0008 56.2561C47.8978 56.4106 48.8248 55.9472 48.8763 55.8957C49.3398 55.6382 49.7517 55.2777 50.0607 54.8657Z" fill="#CECECE"/>
</svg>
