<svg width="240" height="240" viewBox="0 0 240 240" fill="none" xmlns="http://www.w3.org/2000/svg">
<g id="Reset Password">
<g id="padlock">
<path id="Vector" d="M41.4244 59.951C39.3124 55.103 37.2484 50.063 37.0084 44.687C36.8164 40.319 37.9204 35.519 41.0884 32.303C44.0164 29.327 48.2884 28.031 52.3684 28.847C56.4484 29.711 59.6164 32.783 61.9684 36.047C63.3124 38.015 64.5604 40.127 65.5684 42.287C66.9124 44.879 68.0164 47.615 68.8804 50.399C69.1684 51.455 71.5204 51.023 71.1844 49.823C70.3684 47.135 69.3124 44.543 68.0164 42.047C67.0564 39.983 65.9044 37.967 64.6564 35.999C62.1604 32.255 58.8484 28.847 54.4324 27.503C49.7764 26.111 44.7364 26.975 40.8004 29.855C36.8644 32.783 34.9444 37.631 34.6564 42.431C34.2724 48.767 36.6724 54.815 39.1684 60.527C39.6004 61.535 41.9524 61.103 41.4244 59.951Z" fill="#3D3D3D"/>
<g id="padlock-2">
<path id="Vector_2" d="M83.8082 43.1504C83.8082 43.1504 99.5522 75.0704 102.144 92.5424C104.736 110.014 78.3842 114.142 65.7122 115.966C53.0402 117.79 32.1122 78.3824 31.8242 75.5984C31.5362 72.8144 33.2162 64.0304 35.4242 61.7264C37.6322 59.4224 83.8082 43.1504 83.8082 43.1504Z" fill="white"/>
<path id="Vector_3" d="M82.6561 43.3426C83.4241 44.8786 84.0961 46.3666 84.8161 47.9026C86.5921 51.6466 88.2721 55.4386 89.9041 59.2786C91.9681 64.1266 93.9361 69.0226 95.7601 74.0146C97.5361 78.8146 99.0241 83.6626 100.224 88.6546C100.8 90.7666 101.136 92.9266 101.184 95.1346C101.184 97.1026 100.704 99.0226 99.8401 100.799C98.0641 104.351 94.7521 106.847 91.3441 108.671C87.3601 110.783 83.0401 112.127 78.6721 113.183C74.7361 114.143 70.6561 114.815 66.5761 115.439L65.3281 115.631C64.9921 115.679 65.5201 115.631 65.1841 115.631C65.0881 115.631 64.6561 115.631 64.8001 115.631C64.9441 115.631 64.6081 115.631 64.5121 115.583L64.3201 115.535C64.0801 115.535 64.4641 115.583 64.2721 115.535C63.9361 115.487 63.6481 115.391 63.3121 115.295C63.1201 115.247 63.4561 115.343 63.2641 115.295L62.9761 115.199C62.8321 115.151 62.6401 115.103 62.4961 115.007C62.1601 114.863 61.8241 114.719 61.4881 114.575C60.8641 114.239 60.2401 113.855 59.6161 113.423C56.4961 111.263 53.8561 108.431 51.4081 105.551C48.5761 102.143 45.9841 98.5906 43.5841 94.8946C41.3281 91.4866 39.2641 87.9826 37.2961 84.4306C35.9521 82.0306 34.7041 79.6306 33.6001 77.0866C33.4561 76.7506 33.3121 76.4146 33.2161 76.0786C33.2641 76.2226 33.1681 75.9346 33.1681 75.8386C33.1201 75.6946 33.1201 75.5506 33.1201 75.4066C33.0241 73.2466 33.4561 70.9906 33.9361 68.8786C34.4161 66.6706 34.9921 64.2226 36.3361 62.3506C36.4801 62.1106 36.7201 61.8706 36.9601 61.7266C37.0081 61.7266 37.1041 61.6306 36.9601 61.7266L37.1521 61.6306L37.6321 61.3906C39.8881 60.2386 42.2401 59.3266 44.5921 58.4146C48.0961 57.0226 51.6481 55.6306 55.2001 54.3346C59.0881 52.8946 63.0721 51.4066 66.9121 50.0146C70.3681 48.7666 73.8241 47.5186 77.2801 46.2706C79.3921 45.5026 81.5041 44.7346 83.6641 44.0146L84.5281 43.6786C84.8641 43.5826 85.3441 43.2946 84.9601 42.9586C84.4801 42.6706 83.8561 42.6226 83.3281 42.8146C82.1281 43.2466 80.9281 43.6786 79.7281 44.1106C76.7521 45.1666 73.7281 46.2706 70.7521 47.3266C66.8161 48.7666 62.8321 50.2066 58.8961 51.6466C55.0081 53.0866 51.1201 54.5266 47.2321 56.0626C44.2081 57.2146 41.1841 58.4146 38.2561 59.7106C37.3441 60.0946 36.4801 60.5266 35.6161 60.9586C34.8001 61.3426 34.1281 61.9666 33.6961 62.7346C32.4961 64.8466 31.8721 67.3426 31.3921 69.6946C31.1521 70.8946 30.9601 72.0946 30.8161 73.3426C30.6721 74.1586 30.6721 74.9746 30.7201 75.7906C30.8641 76.4146 31.1041 77.0386 31.3921 77.6146C31.8721 78.7186 32.4001 79.8226 32.9281 80.8786C34.5601 84.1426 36.3841 87.3106 38.3041 90.4306C40.6081 94.2226 43.0561 97.9666 45.6961 101.519C48.1921 104.975 51.0241 108.239 54.0961 111.167C56.4961 113.375 59.2801 115.535 62.4961 116.351C64.0321 116.687 65.6641 116.687 67.2001 116.399C69.1681 116.111 71.1361 115.823 73.1041 115.439C77.6641 114.671 82.1761 113.567 86.5441 112.079C90.7201 110.639 94.8961 108.767 98.2561 105.839C101.28 103.151 103.344 99.5986 103.488 95.5186C103.584 93.3106 103.104 91.1506 102.624 88.9906C102.096 86.5906 101.424 84.1906 100.704 81.7906C99.1201 76.6066 97.2481 71.5186 95.2321 66.4786C93.4081 61.8706 91.4401 57.2626 89.4241 52.7506C88.1281 49.8706 86.8321 47.0386 85.4401 44.2066C85.2481 43.8226 85.0561 43.4386 84.8641 43.0546C84.6721 42.3826 82.3201 42.6226 82.6561 43.3426Z" fill="#3D3D3D"/>
<path id="Vector_4" d="M79.2481 89.2784C79.2481 89.2784 74.1601 78.9584 74.1121 77.4704C74.0641 75.9824 75.3121 69.7904 70.3681 68.0624C65.4241 66.3344 60.6241 68.7344 62.4961 73.8224C64.3681 78.9104 69.0241 77.8064 71.0881 79.9184C73.1521 82.0304 74.8321 90.0464 76.2241 91.0064C77.6161 91.9664 79.9681 90.8144 79.2481 89.2784Z" fill="#3D3D3D"/>
<path id="Vector_5" d="M80.3517 89.5662C78.7677 86.3022 77.1357 83.0382 75.8397 79.6782C75.5517 79.1022 75.3597 78.5262 75.2637 77.8542C75.2157 77.1342 75.3597 76.4142 75.3597 75.6942C75.4077 73.4862 75.0717 71.0382 73.3917 69.4542C72.1917 68.3022 70.4637 67.7742 68.8797 67.3902C67.3917 67.0062 65.8557 67.0062 64.4157 67.2942C63.2157 67.5342 62.2077 68.2542 61.4877 69.2622C60.8637 70.4622 60.7677 71.8542 61.1997 73.1022C61.5837 74.4942 62.4477 75.7902 63.5997 76.6542C64.7037 77.4222 65.9517 78.0462 67.2477 78.3822C67.7757 78.5742 68.3037 78.7182 68.8797 78.9102H68.8317L69.0237 79.0062C69.2157 79.0542 68.9757 78.9582 69.1677 79.0542C69.3597 79.1502 69.5037 79.2462 69.6477 79.3422C70.4637 79.9182 70.9437 80.9742 71.3277 81.8382C72.3837 84.1902 73.0557 86.7342 74.1117 89.1342C74.5437 90.0462 74.9277 90.7182 75.8397 91.1502C77.0877 91.7262 79.0557 92.2062 80.1117 91.0062C80.5437 90.7182 80.5917 90.0942 80.3517 89.5662C80.2077 89.2302 79.3437 89.0862 79.0077 88.9902C78.9117 88.9422 77.9997 88.7502 78.0957 88.9902C78.3357 89.5182 78.1917 90.0942 77.7597 90.4782C77.5197 90.6702 77.2797 90.8142 76.9917 90.9102C76.8477 90.9582 76.7517 90.9582 76.6077 91.0062C76.5597 91.0062 76.4637 91.0062 76.4157 91.0062C76.1277 91.1022 77.2317 91.1502 77.2317 91.2942C77.2317 91.2462 76.7997 90.7662 76.7517 90.6222C76.5117 90.1902 76.3197 89.8062 76.1757 89.3742C75.2637 87.1182 74.5917 84.8142 73.6317 82.6062C73.2957 81.6942 72.7677 80.8302 72.0957 80.1582C71.2317 79.4382 70.2237 78.9102 69.1197 78.6222C68.6397 78.4782 68.1597 78.3342 67.6797 78.1422C67.2957 78.0462 66.9117 77.9022 66.5277 77.7102C65.5197 77.1822 64.6557 76.3662 64.1277 75.3582C62.8797 73.1022 62.7837 70.0782 65.3277 68.7342C67.2957 67.6782 70.1757 67.6782 71.6637 69.4542C73.0077 71.0862 73.1997 73.2942 73.1037 75.2622C73.0557 75.8862 73.0077 76.5582 73.0077 77.1822C73.1037 77.7582 73.2477 78.2862 73.4877 78.8142C74.7837 82.2222 76.4157 85.4862 77.9997 88.7502L78.0957 88.9902C78.2877 89.3262 79.1037 89.5182 79.4397 89.6142C79.5837 89.6142 80.4957 89.8062 80.3517 89.5662Z" fill="#3D3D3D"/>
<path id="Vector_6" d="M34.4163 62.1094C35.7603 64.7974 37.2003 67.4374 38.6403 70.0774C41.7123 75.7414 44.8323 81.3094 48.1923 86.8294C51.3603 91.9654 54.6243 97.2454 58.6563 101.757C60.7203 104.061 63.3603 105.789 66.3363 106.749C69.6483 107.709 73.0563 108.141 76.5123 107.949C81.2163 107.805 85.9203 106.989 90.4323 105.597L90.6723 105.549C91.1523 105.453 91.4403 104.973 91.3443 104.541C91.3443 104.493 91.2963 104.397 91.2963 104.349C90.9603 103.821 90.2883 103.629 89.7123 103.773C88.6083 104.157 87.5043 104.397 86.4003 104.685C85.8243 104.829 85.2963 104.925 84.7203 105.069L83.8083 105.261C83.7603 105.261 83.5683 105.309 83.7603 105.261L83.5203 105.309L82.9443 105.405C81.4563 105.645 80.0163 105.837 78.5283 105.981C72.5763 106.509 65.7123 106.077 61.2963 101.565C59.5683 99.7414 57.9843 97.8214 56.5923 95.7574C54.7203 93.2134 53.0403 90.5254 51.3603 87.8374C47.9523 82.3654 44.7363 76.7014 41.6643 71.0374C39.9843 67.9174 38.4003 64.7494 36.6723 61.6774C36.6243 61.6294 36.6243 61.5814 36.5763 61.5334C36.0483 60.3814 33.7923 60.8614 34.4163 62.1094Z" fill="#3D3D3D"/>
</g>
</g>
<g id="character">
<path id="Vector_7" d="M187.92 204.431L184.176 204.479C184.176 204.479 173.568 208.703 174.528 210.671C175.488 212.639 183.696 212.255 190.992 211.919C199.68 211.487 198.672 209.519 196.128 204.527L187.92 204.431Z" fill="#3D3D3D"/>
<path id="Vector_8" d="M187.008 203.903C185.808 203.903 184.56 203.855 183.36 203.951C182.64 204.143 181.968 204.383 181.344 204.719C179.904 205.343 178.464 206.015 177.072 206.783C175.872 207.455 174.528 208.175 173.664 209.231C172.8 210.287 174.048 211.151 175.008 211.583C176.976 212.495 179.28 212.591 181.44 212.639C184.272 212.735 187.104 212.591 189.936 212.447C192.24 212.351 194.688 212.351 196.944 211.679C198.144 211.343 199.152 210.623 199.056 209.279C198.96 207.695 197.952 206.159 197.28 204.767C197.04 204.239 195.984 203.951 195.456 203.951L187.248 203.807C186.816 203.807 186.72 203.999 187.056 204.287C187.536 204.623 188.064 204.815 188.688 204.863L196.896 205.007L195.072 204.191C195.696 205.439 196.464 206.735 196.752 208.079C197.04 208.943 196.656 209.903 195.84 210.335C194.4 211.151 192.48 211.199 190.848 211.295C188.112 211.487 185.376 211.583 182.64 211.583C180.528 211.631 178.272 211.679 176.16 211.199C176.256 211.199 175.872 211.151 175.824 211.103C175.632 211.055 176.064 211.199 175.776 211.103C175.728 211.103 175.536 211.007 175.824 211.103C175.68 211.055 175.872 211.151 175.776 211.103C175.872 211.199 175.68 210.959 175.68 210.959C175.536 210.671 175.584 210.335 175.824 210.095C176.496 209.087 177.792 208.415 178.848 207.839C180.192 207.071 181.536 206.447 182.928 205.823C183.456 205.583 184.032 205.343 184.608 205.103C184.752 205.055 184.944 204.959 185.088 204.911C185.232 204.863 185.232 204.911 185.088 204.911C186.336 204.863 187.536 204.863 188.784 204.863C189.312 204.863 188.688 204.335 188.544 204.287C188.112 204.095 187.536 203.951 187.008 203.903Z" fill="#3D3D3D"/>
<path id="Vector_9" d="M178.081 155.279C178.081 155.279 187.441 200.735 187.249 201.791C187.057 202.847 177.889 207.071 178.801 207.599C179.713 208.127 181.921 207.839 188.353 206.879C194.305 206.015 196.321 206.207 196.417 204.911C196.513 203.615 193.969 160.559 193.969 160.559L178.081 155.279Z" fill="white"/>
<path id="Vector_10" d="M176.881 155.375C177.313 157.583 177.793 159.743 178.225 161.903C179.233 166.799 180.241 171.743 181.201 176.639C182.257 181.823 183.265 187.007 184.321 192.239C184.897 195.311 185.617 198.335 186.001 201.455C186.001 201.551 186.049 201.695 186.049 201.791C186.049 201.839 186.049 201.839 186.049 201.887C186.097 201.743 185.905 202.079 186.001 201.983C185.377 202.655 184.369 203.135 183.601 203.615C182.449 204.287 181.249 204.959 180.097 205.631C179.329 206.063 178.225 206.591 177.697 207.311C177.169 208.031 178.465 208.223 178.897 208.271C180.049 208.367 181.249 208.367 182.353 208.175C184.417 207.935 186.433 207.647 188.497 207.311C190.417 207.023 192.337 206.879 194.257 206.591C195.217 206.447 196.705 206.303 197.377 205.439C197.569 205.151 197.665 204.815 197.617 204.431C197.617 203.279 197.521 202.127 197.473 200.975C197.233 196.319 196.993 191.663 196.705 187.007C196.417 181.631 196.081 176.207 195.793 170.831C195.601 167.519 195.409 164.255 195.217 160.943L195.169 160.463C195.169 160.319 194.881 160.223 194.785 160.175L180.817 155.519L178.849 154.847C178.273 154.703 177.697 154.751 177.169 155.039C176.737 155.279 176.785 155.519 177.217 155.663L191.185 160.319L193.153 160.991L192.769 160.703L193.153 167.567C193.441 172.607 193.729 177.647 194.017 182.687C194.305 187.727 194.593 192.815 194.881 197.903C194.977 199.583 195.073 201.311 195.121 202.991C195.121 203.471 195.169 203.951 195.169 204.479C195.217 204.719 195.217 204.959 195.169 205.199C195.169 205.247 195.121 205.295 195.073 205.343C194.977 205.487 195.073 205.343 195.025 205.391C194.977 205.439 194.833 205.535 194.977 205.439C194.929 205.439 194.929 205.487 194.881 205.487C194.689 205.583 195.073 205.439 194.881 205.487L194.593 205.583C194.881 205.487 194.545 205.583 194.449 205.583L194.065 205.631C193.825 205.679 194.017 205.631 194.065 205.631L193.729 205.679C191.761 205.967 189.745 206.159 187.729 206.447C185.713 206.735 183.889 207.023 181.921 207.215C181.633 207.263 181.345 207.263 181.057 207.311C180.769 207.359 181.105 207.311 180.913 207.311H180.481H180.193C180.529 207.311 180.241 207.311 180.145 207.311L179.905 207.263C180.193 207.311 179.953 207.263 179.857 207.263C179.761 207.263 180.049 207.311 179.857 207.263C179.809 207.263 179.761 207.167 179.713 207.167C179.761 207.167 179.857 207.263 179.809 207.263C179.761 207.263 179.713 207.311 179.857 207.263C180.001 207.215 179.809 207.311 179.857 207.215C179.905 207.119 179.953 207.119 180.001 207.071C180.145 206.927 180.337 206.831 180.481 206.687C181.441 206.063 182.449 205.487 183.457 204.911C184.609 204.287 185.713 203.615 186.817 202.943C187.297 202.655 188.209 202.175 188.257 201.551C188.257 200.783 188.113 200.063 187.921 199.343C187.633 197.663 187.297 196.031 187.009 194.399C186.049 189.503 185.089 184.607 184.129 179.711C183.121 174.623 182.065 169.535 181.009 164.447C180.385 161.471 179.809 158.495 179.185 155.519L179.089 155.087C179.137 154.463 176.785 154.799 176.881 155.375Z" fill="#3D3D3D"/>
<path id="Vector_11" d="M156.288 203.039L152.544 203.087C152.544 203.087 141.936 207.311 142.896 209.279C143.856 211.247 152.064 210.863 159.36 210.527C168.048 210.095 167.04 208.127 164.496 203.135L156.288 203.039Z" fill="#3D3D3D"/>
<path id="Vector_12" d="M157.008 202.271C155.76 202.271 154.56 202.319 153.312 202.319C152.496 202.319 151.536 202.895 150.768 203.231C149.232 203.903 147.744 204.623 146.256 205.439C144.912 206.159 143.424 206.975 142.416 208.175C141.984 208.559 141.744 209.087 141.744 209.615C141.792 210.191 142.368 210.575 142.848 210.767C144.672 211.583 146.928 211.535 148.848 211.583C151.728 211.631 154.656 211.487 157.536 211.343C159.792 211.247 162.192 211.247 164.352 210.431C165.792 209.903 167.424 208.847 167.328 207.119C167.232 205.487 166.224 203.903 165.504 202.511C165.456 202.415 165.312 202.367 165.216 202.367L157.008 202.271C156.432 202.271 155.904 202.559 155.52 202.943C155.328 203.135 154.992 203.759 155.52 203.807L163.728 203.951L163.44 203.807C164.064 204.911 164.592 206.111 165.024 207.311C165.168 207.695 165.216 208.079 165.168 208.463C165.168 208.607 165.12 208.751 165.072 208.847C165.024 209.039 165.12 208.751 165.024 208.943C165.024 208.991 164.928 209.135 165.072 208.895C165.072 208.943 164.976 208.991 164.976 208.991C164.976 208.991 165.168 208.847 165.024 208.943C164.976 208.991 164.832 209.039 165.12 208.895C164.88 209.039 165.216 208.895 165.072 208.943C165.024 208.991 164.688 209.087 164.928 208.991C164.784 209.039 164.592 209.087 164.448 209.135C163.728 209.327 163.008 209.423 162.288 209.519C159.984 209.759 157.632 209.807 155.328 209.903C153.12 209.999 150.912 210.047 148.656 209.903C147.312 209.807 145.68 209.807 144.432 209.087C144.288 208.991 144.144 208.895 144 208.751C143.856 208.559 143.856 208.559 143.904 208.415C143.952 208.271 143.904 208.415 143.904 208.367C143.904 208.319 144 208.127 143.904 208.319C143.952 208.271 144 208.175 144.048 208.127C143.904 208.367 144.096 208.079 144.192 207.983C144.384 207.743 144.144 208.031 144.288 207.887C144.432 207.743 144.48 207.695 144.624 207.647L144.912 207.407C144.72 207.503 145.056 207.311 144.912 207.407L145.152 207.215C145.68 206.831 146.256 206.543 146.832 206.207C146.88 206.207 147.024 206.111 146.88 206.207L147.12 206.063L147.648 205.775L148.656 205.295C149.28 205.007 149.904 204.719 150.576 204.431C151.248 204.143 151.872 203.855 152.544 203.615L151.824 203.807L155.568 203.759C156.144 203.711 156.672 203.471 157.056 203.039C157.2 202.895 157.584 202.223 157.008 202.271Z" fill="#3D3D3D"/>
<path id="Vector_13" d="M156.193 150.959C156.193 150.959 155.809 199.295 155.617 200.351C155.425 201.407 146.257 205.631 147.169 206.159C148.081 206.687 150.289 206.399 156.721 205.439C162.673 204.575 164.689 204.767 164.785 203.471C164.881 202.175 171.121 153.119 171.121 153.119L156.193 150.959Z" fill="white"/>
<path id="Vector_14" d="M154.992 150.766L154.944 158.158C154.896 163.582 154.848 169.006 154.8 174.43C154.752 180.046 154.704 185.662 154.608 191.278C154.608 193.246 154.56 195.214 154.512 197.182C154.512 198.142 154.368 199.102 154.416 200.062C154.416 200.11 154.416 200.11 154.416 200.158C154.416 200.206 154.512 199.822 154.464 200.014C154.56 199.966 154.608 199.678 154.464 200.014C154.416 200.062 154.368 200.11 154.32 200.158C154.56 199.918 154.32 200.158 154.272 200.206C154.08 200.35 153.84 200.494 153.6 200.638C152.448 201.406 151.2 202.078 150 202.75C148.896 203.326 147.888 203.95 146.88 204.67C146.448 204.91 146.112 205.342 145.968 205.822C145.872 206.494 146.4 206.926 146.976 207.166C147.936 207.55 149.088 207.454 150.096 207.358C152.064 207.166 154.032 206.878 156.048 206.59C158.208 206.302 160.416 206.062 162.624 205.726C163.68 205.582 164.976 205.438 165.696 204.526C166.224 203.854 166.176 202.654 166.272 201.838C166.464 200.158 166.704 198.43 166.896 196.75C167.568 191.422 168.24 186.094 168.864 180.814C169.584 175.15 170.304 169.438 171.024 163.774L172.272 153.694L172.32 153.214C172.32 152.59 171.888 152.062 171.264 152.014L158.256 150.094L156.384 149.806C155.856 149.662 155.232 149.95 155.088 150.526C154.944 151.054 155.232 151.678 155.808 151.822C155.904 151.87 156 151.87 156.144 151.87L169.152 153.79L171.024 154.078L169.968 152.878C169.68 155.182 169.392 157.486 169.104 159.838C168.432 165.07 167.76 170.35 167.088 175.63C166.368 181.246 165.696 186.814 164.976 192.43C164.544 195.838 164.112 199.246 163.728 202.702C163.68 202.942 163.632 203.182 163.632 203.47C163.632 203.614 163.728 203.23 163.632 203.47C163.632 203.422 163.776 203.278 163.632 203.422C163.584 203.47 163.872 203.278 163.632 203.422C163.488 203.518 163.872 203.326 163.584 203.422C163.488 203.47 163.392 203.47 163.296 203.518C163.2 203.566 162.96 203.614 163.2 203.566C162.864 203.614 162.528 203.71 162.192 203.758C160.032 204.046 157.872 204.286 155.76 204.622C153.792 204.91 151.824 205.246 149.808 205.39C149.52 205.39 149.28 205.438 148.992 205.438H148.608C148.272 205.438 148.8 205.486 148.512 205.438L147.984 205.39C147.696 205.342 148.224 205.438 148.032 205.39C147.984 205.342 147.888 205.342 147.84 205.294C148.272 205.342 148.608 206.302 148.272 206.542C148.32 206.494 148.368 206.446 148.416 206.398C148.608 206.302 148.176 206.542 148.464 206.35C148.896 206.062 149.328 205.774 149.76 205.486C150.96 204.766 152.208 204.094 153.408 203.374C154.464 202.846 155.472 202.174 156.384 201.406C157.104 200.734 156.96 199.87 157.008 198.958C157.056 197.326 157.056 195.742 157.104 194.11C157.152 188.878 157.248 183.694 157.296 178.462C157.344 172.846 157.392 167.23 157.44 161.614L157.536 151.582V151.102C157.536 150.478 157.104 149.998 156.48 149.902C155.808 149.854 154.992 150.142 154.992 150.766Z" fill="#3D3D3D"/>
<path id="Vector_15" d="M155.329 115.247C155.329 115.247 146.113 184.607 152.977 194.447C159.841 204.287 170.977 200.735 174.289 188.879C175.297 185.231 171.169 160.751 171.169 160.751C171.169 160.751 172.849 189.791 180.625 196.271C188.401 202.751 198.769 201.455 200.401 189.647C202.033 177.839 190.561 114.047 190.561 114.047L155.329 115.247Z" fill="white"/>
<path id="Vector_16" d="M154.368 114.528C154.176 116.064 153.984 117.6 153.792 119.136C153.312 123.072 152.832 127.008 152.448 130.992C151.872 136.368 151.344 141.744 150.912 147.072C150.432 152.88 150 158.688 149.76 164.496C149.52 169.728 149.376 175.008 149.568 180.24C149.712 183.984 149.856 187.872 150.96 191.424C151.488 193.104 152.4 194.688 153.6 195.984C155.808 198.528 158.88 200.688 162.288 200.928C165.216 201.12 168.096 200.064 170.208 198.096C171.456 196.944 172.512 195.6 173.328 194.112C174.192 192.624 174.864 190.992 175.248 189.312C175.584 187.632 175.296 185.76 175.2 184.08C174.96 181.296 174.624 178.56 174.24 175.776C173.616 171.216 172.944 166.656 172.176 162.096C172.128 161.808 172.08 161.472 172.032 161.184C171.984 160.752 171.36 160.272 171.024 160.08C170.928 160.032 170.16 159.6 170.16 159.984C170.352 162.96 170.64 165.984 171.024 168.96C171.744 174.72 172.704 180.576 174.48 186.144C175.2 188.64 176.208 191.04 177.552 193.296C179.136 195.744 181.296 197.712 183.888 199.008C186.528 200.448 189.648 201.312 192.672 200.784C195.456 200.304 197.904 198.624 199.344 196.176C201.552 192.48 201.6 188.208 201.36 184.032C201.12 179.328 200.592 174.624 200.016 169.968C199.296 164.208 198.528 158.448 197.664 152.688C196.8 146.928 195.936 141.264 194.976 135.552C194.208 130.992 193.44 126.384 192.672 121.824C192.24 119.472 191.856 117.12 191.424 114.816C191.424 114.72 191.376 114.624 191.376 114.528C191.088 113.808 190.416 113.28 189.648 113.136L177.744 113.52L158.88 114.24L154.512 114.384C154.08 114.384 154.752 115.248 154.8 115.296C155.136 115.728 155.568 115.968 156.096 116.064L168 115.68L186.96 115.056L191.328 114.912L189.6 113.568C189.888 115.152 190.176 116.688 190.416 118.272C191.136 122.256 191.808 126.24 192.48 130.224C193.392 135.648 194.256 141.024 195.072 146.448C195.984 152.16 196.8 157.92 197.568 163.68C198.24 168.72 198.816 173.76 199.248 178.8C199.488 182.064 199.872 185.424 199.488 188.688C199.152 191.712 198.048 194.832 195.744 196.896C193.728 198.72 190.992 199.536 188.304 199.2C185.472 198.816 182.784 197.616 180.624 195.696C180.384 195.504 180.768 195.84 180.576 195.648C180.48 195.552 180.432 195.456 180.336 195.408L180.144 195.216C180.24 195.312 180.144 195.168 180.096 195.168L179.952 194.976C179.664 194.592 179.376 194.208 179.136 193.776C178.512 192.768 178.032 191.712 177.6 190.608C175.44 185.328 174.336 179.616 173.52 174C172.944 170.064 172.464 166.032 172.176 162.048C172.176 161.856 172.128 161.616 172.128 161.424L170.256 160.224C170.256 160.272 170.256 160.368 170.304 160.416C170.352 160.464 170.352 160.704 170.304 160.512C170.304 160.656 170.352 160.752 170.352 160.896C170.496 161.616 170.592 162.384 170.736 163.104C171.12 165.456 171.456 167.856 171.84 170.208C172.56 175.344 173.424 180.528 173.52 185.712C173.568 186.432 173.52 187.152 173.424 187.824C173.088 189.408 172.512 190.896 171.696 192.288C170.208 195.024 167.904 197.568 164.928 198.672C162.336 199.68 159.408 199.392 157.008 197.952C155.712 197.088 154.608 195.984 153.744 194.688C153.456 194.304 153.792 194.832 153.6 194.448C153.552 194.352 153.456 194.208 153.408 194.112L153.312 193.92C153.216 193.728 153.36 194.016 153.312 193.872C153.264 193.728 153.216 193.584 153.12 193.44C151.92 190.32 151.728 186.816 151.536 183.504C151.248 178.512 151.344 173.52 151.536 168.576C151.728 162.912 152.112 157.248 152.544 151.536C152.976 146.112 153.456 140.688 154.032 135.264C154.464 130.992 154.944 126.768 155.472 122.496C155.712 120.384 156 118.224 156.24 116.112C156.24 116.016 156.288 115.92 156.288 115.824C156.384 115.248 154.464 114 154.368 114.528Z" fill="#3D3D3D"/>
<path id="Vector_17" d="M163.537 123.551L164.545 129.647L166.945 144.287L169.825 161.903L172.321 177.119L173.137 182.159C173.233 182.975 173.329 183.743 173.521 184.511C173.521 184.559 173.521 184.607 173.521 184.607C173.617 185.183 175.969 185.039 175.921 184.655L174.913 178.559L172.513 163.919L169.633 146.303L167.137 131.087L166.321 126.047C166.225 125.231 166.129 124.463 165.937 123.695C165.937 123.647 165.937 123.647 165.937 123.599C165.841 123.023 163.489 123.167 163.537 123.551Z" fill="#3D3D3D"/>
<path id="Vector_18" d="M172.705 67.0077C172.705 67.0077 172.176 64.1277 163.824 68.4957C163.824 68.4957 118.129 95.9517 152.785 118.992L192.721 116.592C224.257 121.584 202.272 77.1837 172.705 67.0077Z" fill="#CECECE"/>
<path id="Vector_19" d="M173.472 67.8709C173.184 66.9109 172.56 66.0469 171.696 65.5189C170.688 64.8469 169.296 65.1349 168.192 65.4229C165.936 66.0469 163.776 67.0549 161.856 68.3509C157.44 71.2309 153.312 74.5909 149.616 78.3349C144.864 83.1349 140.4 89.0869 139.296 95.9509C138.768 99.4549 139.248 103.055 140.784 106.271C142.8 110.639 146.112 114.287 149.808 117.263C150.336 117.695 150.864 118.127 151.44 118.511L152.304 119.135C152.64 119.423 152.976 119.663 153.36 119.855C153.504 119.903 153.648 119.951 153.792 119.903L155.76 119.807L164.16 119.327L186.24 118.031L192.816 117.647C193.536 117.647 194.208 117.695 194.928 117.791C196.8 118.031 198.672 118.031 200.544 117.791C203.184 117.455 205.824 116.399 207.36 114.143C208.8 112.031 209.136 109.343 208.896 106.847C208.56 103.487 207.408 100.175 205.92 97.1509C204.096 93.3589 201.84 89.8069 199.2 86.4949C193.44 79.1989 186.336 72.8629 178.08 68.6389C176.16 67.6309 174.144 66.7669 172.08 66.0949C171.84 65.9989 172.368 66.8629 172.368 66.9109C172.608 67.2469 172.992 67.8229 173.376 67.9669C178.416 69.7429 183.12 72.3349 187.392 75.5989C189.504 77.1829 191.52 78.9589 193.44 80.7829C195.216 82.5109 196.896 84.3349 198.432 86.3029C199.92 88.1269 201.264 90.0469 202.464 92.0629C203.568 93.9349 204.576 95.8549 205.392 97.8709C206.736 101.135 207.744 104.831 207.264 108.383C206.928 111.263 205.104 113.759 202.464 114.959C200.784 115.679 199.008 116.015 197.184 116.063C195.984 116.111 194.832 116.063 193.632 115.919C193.056 115.823 192.432 115.727 191.856 115.727C189.696 115.775 187.488 115.967 185.328 116.111L172.8 116.879L159.888 117.647L152.4 118.079H152.016L152.208 118.127C150.432 116.975 148.704 115.679 147.12 114.239C146.448 113.663 145.824 112.991 145.2 112.367C144.96 112.079 144.72 111.791 144.48 111.503C144.384 111.359 143.952 110.831 143.856 110.735C142.224 108.527 141.12 105.935 140.688 103.199C139.872 97.9189 141.696 92.7349 144.432 88.3189C147.168 83.9029 150.912 80.0149 154.848 76.6069C157.536 74.2549 160.416 72.0949 163.44 70.1269C164.592 69.3589 165.84 68.7349 167.136 68.2069C168.48 67.6309 170.016 67.0069 171.504 67.0549C171.888 67.0549 172.224 67.1029 172.56 67.2469C172.56 67.2469 172.752 67.3909 172.8 67.3909C172.752 67.4389 172.128 66.6229 172.032 66.4309C172.032 66.4789 171.84 66.0949 171.936 66.1909C172.032 66.2869 171.936 66.0949 171.936 66.1429C172.08 66.6229 172.368 67.0549 172.704 67.3909C172.8 67.4869 173.52 68.1109 173.472 67.8709Z" fill="#3D3D3D"/>
<path id="Vector_20" d="M182.544 56.2548C182.832 41.6148 173.28 38.5908 166.752 38.7828C160.224 38.9748 156.192 41.8548 155.28 44.6388C154.56 46.7508 160.608 58.1268 160.608 58.1268L172.752 67.0068C172.704 67.0068 182.304 67.4388 182.544 56.2548Z" fill="#3D3D3D"/>
<path id="Vector_21" d="M154.992 64.8473C150.624 60.6233 155.856 47.0393 155.856 47.0393C158.208 46.5113 162 44.1113 162 44.1113C161.088 51.3113 169.584 52.9913 169.584 52.9913C171.12 49.0553 175.728 50.2553 175.632 54.0473C175.536 57.8393 171.888 58.4153 171.888 58.4153C171.888 58.4153 174.144 67.6793 173.856 69.2153C173.856 69.2153 167.856 73.7753 163.776 68.4473C163.824 68.4953 157.968 67.7273 154.992 64.8473Z" fill="white"/>
<path id="Vector_22" d="M156.049 64.3676C154.081 62.4476 154.225 59.0876 154.513 56.5916C154.849 53.8556 155.473 51.1196 156.385 48.5276C156.577 47.9516 156.769 47.3756 156.961 46.7996L155.665 47.5676C158.161 46.9436 160.513 45.6476 162.673 44.3036L160.849 44.4476C160.513 46.7516 161.329 49.1036 163.009 50.7356C164.305 51.9356 165.889 52.7996 167.617 53.3276C167.953 53.4716 168.337 53.5676 168.721 53.6156C169.297 53.7116 170.497 53.4236 170.737 52.7996C170.977 52.1756 171.409 51.5996 171.937 51.2156C171.841 51.2636 171.889 51.2636 171.985 51.2156C171.937 51.2636 171.889 51.2636 171.793 51.2636C172.033 51.2636 171.697 51.2636 171.937 51.2636C172.129 51.2636 172.369 51.3116 172.561 51.3596C173.761 51.7436 174.385 52.8956 174.481 54.0956C174.625 55.4396 174.097 56.7836 173.089 57.6476C173.041 57.6956 172.945 57.7436 172.897 57.7916L172.753 57.8876C172.849 57.8396 172.897 57.8396 172.753 57.8876L172.513 57.9836C172.849 57.8396 172.513 57.9836 172.465 57.9836C172.081 58.1276 172.657 57.9356 172.273 58.0316C171.985 58.0796 172.369 58.0316 172.369 58.0316C172.033 58.0796 170.641 58.4156 170.785 58.9916C171.169 60.5756 171.553 62.1596 171.889 63.7436C172.129 64.9436 172.369 66.1436 172.561 67.3436C172.753 68.1116 172.801 68.8796 172.753 69.6476L172.993 69.3596C172.849 69.4556 172.945 69.3596 173.041 69.3116C172.897 69.4076 172.801 69.5036 172.657 69.5516C172.513 69.5996 172.273 69.7436 172.129 69.8396C172.369 69.7436 172.033 69.8876 171.985 69.9356C171.841 70.0316 171.697 70.0796 171.505 70.1276C171.313 70.1756 171.457 70.1276 171.505 70.1276L171.313 70.2236L170.881 70.3676C171.073 70.3196 170.689 70.4156 170.593 70.4156C170.449 70.4636 170.305 70.4636 170.113 70.5116C169.441 70.6076 168.721 70.5596 168.049 70.3676C167.185 70.1276 166.417 69.6476 165.793 69.0236C165.361 68.6396 165.121 68.0636 164.545 67.9676C163.441 67.7756 162.337 67.4876 161.233 67.1996C159.313 66.6716 157.537 65.7116 156.049 64.4156C155.569 63.9836 153.457 64.9436 153.937 65.4236C155.473 66.9116 157.537 67.7276 159.553 68.3516C160.657 68.6876 161.761 68.9756 162.913 69.1196L162.673 68.9756C164.113 70.8956 166.465 71.9516 168.865 71.6636C170.737 71.4716 172.513 70.7996 174.097 69.7916C174.433 69.5996 174.913 69.3596 175.009 68.9756C175.057 68.3996 175.057 67.7756 174.913 67.2476C174.673 65.4236 174.289 63.6476 173.905 61.8716C173.617 60.6236 173.329 59.3756 173.041 58.1276L171.457 59.0876C173.521 58.7516 175.777 57.4556 176.497 55.3916C176.977 54.0956 176.929 52.4636 176.017 51.3596C175.201 50.3996 173.905 49.9196 172.657 50.1596C170.833 50.3996 169.249 51.5996 168.529 53.3276L170.545 52.5116C167.905 51.9836 165.025 50.3516 163.777 47.8556C163.201 46.6076 162.961 45.2636 163.153 43.9196C163.249 43.2476 161.569 43.9196 161.329 44.0636C159.841 45.0236 158.305 45.8396 156.625 46.4636C156.049 46.6556 154.993 46.7996 154.657 47.5676C154.513 47.9516 154.369 48.3836 154.225 48.8156C153.025 52.3676 152.065 56.1116 152.113 59.8556C152.113 61.8236 152.449 63.9836 153.937 65.4236C154.369 65.7596 156.481 64.7996 156.049 64.3676Z" fill="#3D3D3D"/>
<path id="Vector_23" d="M166.033 58.4153C166.129 58.7033 166.177 58.9433 166.225 59.2313L166.177 58.9913C166.225 59.4233 166.225 59.8073 166.177 60.2393L166.225 59.9993C166.177 60.1913 166.129 60.3833 166.033 60.5273L166.177 60.2873C166.129 60.3833 166.033 60.4793 165.937 60.5753L166.129 60.3833C166.081 60.4313 165.985 60.5273 165.889 60.5273L166.129 60.3833C166.033 60.4313 165.937 60.4793 165.841 60.4793L166.129 60.4313C165.985 60.4793 165.889 60.4793 165.745 60.4793H166.081C165.889 60.4793 165.697 60.4313 165.505 60.3833L165.841 60.4793H165.745C165.457 60.3833 165.121 60.3833 164.833 60.4793C164.593 60.5753 164.353 60.7673 164.257 61.0073C164.161 61.5833 164.497 62.1593 165.073 62.3033C165.793 62.5433 166.561 62.5433 167.281 62.3033C167.809 62.0633 168.241 61.6313 168.433 61.1033C168.673 60.2873 168.673 59.4713 168.433 58.6553C168.385 58.5113 168.337 58.3193 168.289 58.1753C168.193 57.8873 168.001 57.6953 167.761 57.5033C167.473 57.3593 167.185 57.2633 166.849 57.3113C166.561 57.3593 166.321 57.4553 166.129 57.6953C165.985 57.8873 165.937 58.1753 165.985 58.4633L166.033 58.4153Z" fill="#3D3D3D"/>
<path id="Vector_24" d="M158.593 54.2871C157.297 55.3911 155.857 56.2551 154.273 56.9271C149.041 59.2791 148.945 61.3431 150.913 61.9671C152.881 62.5911 160.081 59.8071 160.081 59.8071" fill="white"/>
<path id="Vector_25" d="M157.681 53.711C157.537 53.855 157.873 53.567 157.825 53.615C157.777 53.663 157.633 53.759 157.537 53.855C157.201 54.095 156.865 54.335 156.529 54.575C155.377 55.295 154.177 55.919 152.929 56.495C151.777 57.023 150.673 57.743 149.713 58.607C149.137 59.135 148.705 59.807 148.561 60.575C148.321 62.159 149.953 63.023 151.297 63.071C153.121 63.119 154.945 62.495 156.673 61.967C157.921 61.583 159.169 61.151 160.369 60.671C160.849 60.479 161.329 59.855 161.089 59.327C160.849 58.799 160.129 58.703 159.601 58.895C158.737 59.231 157.825 59.567 156.913 59.855L155.713 60.239L155.425 60.335H155.329L154.705 60.527C153.937 60.719 153.121 60.911 152.353 61.007L152.113 61.055C152.065 61.055 151.777 61.055 151.969 61.055C152.161 61.055 151.921 61.055 151.873 61.055H151.681H151.489C151.297 61.055 151.441 61.007 151.537 61.055C151.393 61.007 151.297 61.007 151.153 61.007C151.105 61.007 151.345 61.103 151.153 61.007L151.009 60.911L150.865 60.815C151.009 60.911 151.009 60.959 150.913 60.815C150.913 60.767 150.865 60.719 150.817 60.719C150.769 60.719 151.009 60.863 150.865 60.767C150.817 60.767 150.865 60.671 150.817 60.623C150.865 60.671 150.769 60.815 150.817 60.671C150.817 60.671 150.817 60.383 150.817 60.623C150.817 60.863 150.817 60.623 150.817 60.575C150.817 60.527 150.865 60.335 150.817 60.527C150.769 60.719 150.817 60.479 150.865 60.431C150.913 60.383 150.913 60.335 150.961 60.239C150.817 60.383 151.057 60.095 150.961 60.239C151.105 60.095 151.201 59.951 151.345 59.807C151.393 59.759 151.537 59.615 151.393 59.759C151.489 59.663 151.537 59.615 151.633 59.567C151.825 59.423 152.065 59.279 152.257 59.135C152.737 58.799 153.265 58.511 153.793 58.271C155.713 57.311 157.681 56.399 159.313 54.911C159.697 54.575 159.697 53.999 159.361 53.663C159.313 53.615 159.265 53.567 159.217 53.519C158.641 53.231 157.969 53.375 157.585 53.807L157.681 53.711Z" fill="#3D3D3D"/>
<path id="Vector_26" d="M161.713 52.7033C161.281 52.7513 160.993 53.1833 161.041 53.5673C161.041 53.6153 161.041 53.6633 161.089 53.6633C161.329 54.4793 162.337 54.1913 162.385 53.4233C162.433 53.0873 162.193 52.7033 161.857 52.6553C161.761 52.7033 161.761 52.7033 161.713 52.7033Z" fill="#3D3D3D"/>
<path id="Vector_27" d="M155.953 52.4629C155.521 52.5109 155.233 52.9429 155.281 53.3269C155.281 53.3749 155.281 53.4229 155.329 53.4709C155.569 54.2869 156.577 53.9989 156.625 53.2309C156.673 52.8469 156.433 52.5109 156.049 52.4629C156.001 52.4629 155.953 52.4629 155.953 52.4629Z" fill="#3D3D3D"/>
<path id="Vector_28" d="M177.313 60.432C178.609 63.312 182.161 68.688 185.809 65.664C187.585 64.176 188.929 61.104 187.249 59.088C186.001 57.552 183.409 57.216 182.017 58.704C180.145 60.72 181.825 64.032 183.121 65.856C184.705 68.064 187.153 70.08 189.841 70.656C190.945 70.944 192.097 70.752 193.009 70.08C193.825 69.312 194.209 68.16 194.017 67.008C193.777 65.04 192.049 63.792 190.225 63.36C188.641 62.976 186.577 63.12 185.425 64.368C183.841 66.096 185.089 68.496 186.289 70.032C186.817 70.704 187.393 71.28 187.969 71.856C188.401 72.336 189.073 72.432 189.649 72.144C190.129 71.904 190.273 71.28 189.985 70.848C189.937 70.8 189.889 70.752 189.889 70.704C188.977 69.888 188.209 68.928 187.537 67.92C187.441 67.728 187.345 67.536 187.249 67.344C187.201 67.248 187.153 67.152 187.153 67.056C187.201 67.248 187.153 67.008 187.153 66.96C187.105 66.816 187.105 66.672 187.105 66.48C187.057 66.672 187.105 66.432 187.105 66.48C187.105 66.432 187.105 66.336 187.153 66.24C187.201 66.144 187.201 66.096 187.201 66.048C187.153 66.192 187.153 66.24 187.201 66.048C187.249 66 187.249 65.952 187.297 65.904C187.201 66 187.393 65.712 187.297 65.904C187.393 65.808 187.441 65.712 187.537 65.664C187.297 65.904 187.585 65.664 187.681 65.568C187.777 65.472 187.969 65.472 187.681 65.568C187.729 65.568 187.777 65.52 187.873 65.52L188.305 65.424C188.065 65.472 188.353 65.424 188.305 65.424L188.545 65.376C188.689 65.376 188.881 65.376 189.025 65.376H189.265C189.409 65.376 189.601 65.424 189.745 65.472L189.985 65.52C189.745 65.424 190.177 65.568 189.985 65.52C190.225 65.616 190.321 65.616 190.465 65.712L190.657 65.808C190.465 65.664 190.849 65.904 190.657 65.808C190.849 65.952 190.945 66 191.041 66.096L191.233 66.24C191.089 66.048 191.281 66.288 191.233 66.24C191.377 66.432 191.473 66.48 191.569 66.624C191.473 66.432 191.617 66.672 191.569 66.624C191.617 66.672 191.617 66.768 191.665 66.816C191.713 66.864 191.713 66.96 191.761 67.008C191.809 67.056 191.761 66.864 191.761 67.056C191.809 67.392 191.809 67.728 191.761 68.064C191.761 68.16 191.713 68.352 191.761 68.16C191.713 68.256 191.713 68.304 191.665 68.4C191.617 68.496 191.569 68.592 191.665 68.448C191.617 68.496 191.569 68.592 191.473 68.64H191.425C191.233 68.736 191.617 68.592 191.425 68.64C191.377 68.688 191.281 68.688 191.185 68.688C191.425 68.64 191.281 68.688 191.137 68.688H190.897C190.849 68.688 191.089 68.736 190.849 68.688C190.609 68.64 190.417 68.64 190.177 68.592H190.225L190.081 68.544L189.793 68.448C189.553 68.352 189.313 68.256 189.073 68.16C188.161 67.68 187.345 67.056 186.577 66.336C185.713 65.52 184.993 64.56 184.465 63.504C184.177 63.024 183.985 62.496 183.841 61.92C183.793 61.68 183.745 61.44 183.745 61.248C183.745 61.2 183.745 60.912 183.745 61.104C183.745 61.008 183.745 60.864 183.793 60.768C183.793 60.672 183.841 60.576 183.841 60.48C183.889 60.288 183.793 60.624 183.841 60.432C183.889 60.384 183.889 60.288 183.937 60.24C183.985 60.096 183.793 60.336 183.985 60.192C184.033 60.144 184.081 60.096 184.129 60.048C184.081 60.096 184.273 59.904 184.129 60.048L184.321 59.952C184.417 59.856 184.081 60.048 184.225 60L184.369 59.952L184.561 59.904C184.609 59.904 184.321 59.904 184.513 59.904C184.561 59.904 184.657 59.904 184.705 59.904C184.849 59.952 185.185 60.048 184.897 59.904C184.993 59.952 185.425 60.192 185.137 60C185.281 60.096 185.377 60.144 185.473 60.24C185.233 60.048 185.569 60.336 185.617 60.432C185.665 60.528 185.569 60.288 185.617 60.48C185.665 60.576 185.713 60.624 185.713 60.72C185.809 60.912 185.713 60.576 185.713 60.768C185.713 60.864 185.761 60.96 185.761 61.056C185.761 61.152 185.761 61.344 185.761 61.248C185.761 61.152 185.761 61.392 185.761 61.44C185.761 61.68 185.665 61.92 185.617 62.112C185.665 62.016 185.521 62.304 185.521 62.352C185.473 62.448 185.425 62.592 185.377 62.688C185.281 62.976 185.137 63.264 184.993 63.504C184.753 63.888 184.417 64.224 184.033 64.464C183.841 64.56 184.129 64.416 183.937 64.512C183.841 64.56 183.793 64.56 183.697 64.608C183.937 64.56 183.745 64.656 183.649 64.608C183.505 64.512 183.841 64.656 183.601 64.608C183.553 64.608 183.265 64.56 183.457 64.608C183.649 64.656 183.361 64.56 183.313 64.56C183.265 64.56 183.121 64.464 183.025 64.416C182.833 64.32 183.121 64.512 182.929 64.368C182.737 64.224 182.641 64.128 182.449 64.032L182.305 63.888L182.113 63.696C181.825 63.36 181.537 63.024 181.249 62.688C181.105 62.544 181.009 62.352 180.913 62.208C180.865 62.112 180.817 62.016 180.769 61.968C180.673 61.824 180.817 62.064 180.673 61.824C180.337 61.296 180.049 60.768 179.761 60.192C179.713 60.096 179.665 60 179.617 59.904C179.089 58.704 176.785 59.28 177.409 60.624L177.313 60.432Z" fill="#3D3D3D"/>
<path id="Vector_29" d="M159.025 69.7435C150.913 69.7435 142.513 79.2955 142.513 79.2955C141.409 78.6715 140.305 78.1435 139.105 77.6635C137.329 76.9915 135.841 78.8155 135.841 78.8155C135.841 78.8155 81.0249 39.3115 77.7609 38.8315C74.4969 38.3515 72.5769 42.3835 72.9129 43.5355C73.2489 44.6875 80.5449 48.3835 80.5449 48.3835C80.5449 48.3835 75.8409 54.2395 75.8409 55.0555C75.8409 55.8715 77.1369 57.6475 78.7689 57.7915C80.4009 57.9355 85.5849 52.6075 85.5849 52.6075L89.8089 56.0155C89.8089 56.0155 87.2169 60.3835 87.0729 62.0155C86.9289 63.6475 88.0329 64.1275 89.0409 64.4635C90.0489 64.7995 94.3689 59.4715 94.3689 59.4715L133.201 84.7195C133.201 84.7195 131.425 86.0155 132.049 87.6475C132.673 89.2795 137.377 89.9035 137.377 89.9035C133.633 97.0075 133.441 113.855 147.361 119.519C161.281 125.183 175.873 109.151 177.313 93.5995C178.753 78.0475 167.137 69.7435 159.025 69.7435ZM170.545 100.847C163.585 118.511 145.825 118.751 140.929 103.919C136.033 89.0875 152.113 77.9995 152.113 77.9995C162.433 70.4155 177.505 83.1835 170.545 100.847Z" fill="#3D3D3D"/>
<path id="Vector_30" d="M159.936 69.0712C156.384 69.1192 153.024 70.7512 150.096 72.6232C147.504 74.3032 145.104 76.2712 142.896 78.4312C142.464 78.8632 141.984 79.3432 141.6 79.8232L143.52 78.6712C142.992 78.3352 142.416 78.0472 141.84 77.8072C140.976 77.3752 139.92 76.7992 138.912 76.9432C137.424 77.1352 135.888 78.2872 134.928 79.3912L136.848 78.2392C136.128 77.7112 135.408 77.2312 134.736 76.7032C132.816 75.3592 130.944 73.9672 129.024 72.6232C126.288 70.7032 123.6 68.7352 120.864 66.8152C117.648 64.5592 114.48 62.3032 111.264 59.9992C107.952 57.6472 104.64 55.3432 101.28 52.9912C98.1603 50.8312 95.0883 48.6712 91.9683 46.5592C89.4723 44.8312 86.9763 43.1512 84.4323 41.5192C82.8963 40.5112 81.3123 39.5032 79.6803 38.6392C79.2003 38.3512 78.6723 38.1592 78.0963 38.1592C76.7043 38.1592 75.4083 39.0232 74.3523 39.8392C73.4403 40.5592 72.7203 41.4232 72.2403 42.4792C72.0003 43.0072 71.6643 43.8232 71.9523 44.3992C72.2403 44.9752 72.9603 45.3592 73.4403 45.6952C75.0723 46.7512 76.7043 47.7112 78.4323 48.5752C78.7683 48.7672 79.1043 48.9592 79.4883 49.1032L79.5363 48.9112C78.7683 49.8232 78.0483 50.7832 77.3283 51.7432C76.8003 52.4632 76.2723 53.1832 75.7443 53.9032C75.3603 54.3832 75.0243 54.9112 74.7843 55.4872C74.5923 56.1592 75.2163 56.9752 75.6483 57.4072C76.2723 58.0312 77.2803 58.7032 78.1923 58.4632C79.0563 58.1752 79.8243 57.7912 80.5443 57.2152C81.3603 56.6392 82.1763 56.0152 82.9443 55.3432C84.0963 54.3832 85.1523 53.3272 86.2083 52.2712L84.4323 53.3272L87.8883 56.1592C88.0803 56.3032 88.3203 56.4952 88.5123 56.6872C88.5603 56.7352 88.6083 56.7832 88.6083 56.6872C88.6083 56.7352 88.5123 56.8312 88.5123 56.8792C88.0803 57.5992 87.6483 58.3192 87.3123 59.0872C86.5443 60.6232 84.7203 63.5512 86.8803 64.7992C87.2163 65.0392 87.6003 65.1832 87.9843 65.2312C88.3203 65.1832 88.7043 65.0392 88.9923 64.8472C89.9523 64.2712 90.8643 63.5992 91.6803 62.7832C92.8803 61.5832 94.0323 60.3352 95.0883 59.0392L93.1683 60.1912L97.0083 62.6872L106.32 68.7352L117.504 76.0312L127.248 82.3672L130.464 84.4312C130.944 84.8152 131.424 85.1512 132 85.4392L132.048 85.4872L132.672 84.8152C131.52 85.6792 129.888 87.6472 131.376 88.9912C132.528 90.0472 134.448 90.3832 135.936 90.6232C136.08 90.6232 136.224 90.6712 136.368 90.6712C136.32 90.5752 135.936 91.3912 135.888 91.4872C135.6 92.1592 135.36 92.8312 135.168 93.5512C134.688 95.1352 134.4 96.7672 134.256 98.4472C133.632 106.223 136.416 114.431 143.28 118.751C147.168 121.247 151.872 122.063 156.336 121.007C161.136 119.807 165.552 116.735 168.912 113.183C175.824 105.935 180.144 94.9432 177.744 84.9112C175.968 77.4232 169.92 70.7992 162.144 69.5032C161.52 69.1192 160.752 69.0712 159.936 69.0712C159.504 69.0712 159.024 69.5032 158.64 69.7432C158.544 69.7912 157.872 70.4152 158.112 70.4152C164.352 70.4632 170.208 74.6392 173.328 79.8232C177.84 87.3112 177.024 96.7192 173.52 104.399C170.256 111.599 164.16 118.895 155.856 119.759C148.224 120.575 141.072 115.535 138.096 108.671C135.696 102.959 135.504 96.5752 137.616 90.7672C137.808 90.2392 138.048 89.6632 138.336 89.1352C138.384 89.0872 138.336 89.0392 138.288 89.0392C136.944 88.8952 135.6 88.5112 134.352 87.9352C133.632 87.5512 132.912 87.0712 132.864 86.1592C132.864 85.6792 133.056 85.1512 133.344 84.7672C133.44 84.6232 133.584 84.5272 133.68 84.3832C133.536 84.5272 133.632 84.3832 133.68 84.3832C133.728 84.3832 133.44 84.5752 133.536 84.4792C133.632 84.3832 134.256 83.9032 134.16 83.8072L130.32 81.3112L120.96 75.4072L109.776 68.1592L100.032 61.8232L96.8643 59.7592C96.3843 59.3752 95.9043 59.0392 95.3283 58.7512L95.2803 58.7032C95.0883 58.5592 94.5603 58.9432 94.4163 59.0392C94.0323 59.2792 93.6483 59.5672 93.3603 59.9032C92.9283 60.4792 92.4483 61.0072 91.9683 61.5352C91.4883 62.0632 91.1523 62.4472 90.7203 62.8792C90.5283 63.1192 90.2883 63.3112 90.0483 63.5512L89.8083 63.7432L89.5203 63.9832C89.6163 63.9352 89.2803 64.1272 89.5683 63.9832C89.6163 63.9352 90.0003 63.6952 89.9043 63.7912C90.0003 63.6952 90.0483 63.7912 89.9523 63.7432C89.8563 63.6952 89.6643 63.6472 89.5203 63.5992C88.8483 63.4072 88.3203 62.8792 88.0803 62.2072C87.6963 60.9592 88.6083 59.4232 89.1843 58.3192C89.6643 57.3112 90.1923 56.3512 90.7683 55.3912V55.2952L86.5443 51.8872C86.2083 51.5992 84.9603 52.7032 84.7683 52.8952C84.0963 53.6152 83.3763 54.2872 82.6083 54.9592C82.0323 55.4872 81.3603 56.0632 80.7843 56.4952L80.5443 56.6872C80.3523 56.8312 80.7843 56.5432 80.4963 56.7352L80.3043 56.8792C80.5443 56.7352 80.2563 56.9272 80.2083 56.9272C80.0643 57.0232 80.2563 56.9272 80.1603 56.9752C80.0643 57.0232 79.9683 57.0712 79.8723 57.0712C79.0083 57.1672 78.0963 56.4952 77.5683 55.8712C77.2323 55.4392 76.6563 54.7672 76.8963 54.1912C77.1363 53.7112 77.4243 53.2312 77.7603 52.7992C78.1923 52.1272 78.6723 51.5032 79.2003 50.8312C79.9683 49.8712 80.6883 48.8632 81.4563 47.9032C81.5043 47.8552 81.5523 47.8072 81.5043 47.7112C80.3523 47.1352 79.2003 46.5112 78.0963 45.8872C77.2323 45.4072 76.3683 44.8792 75.5043 44.3032C74.9283 43.9672 74.4003 43.5832 73.9683 43.0552C73.6323 42.5272 74.0163 41.7112 74.2563 41.1832C74.4483 40.7992 74.6883 40.4152 74.9283 40.0312C75.0723 39.8872 75.1683 39.7432 75.3603 39.5992C75.2163 39.7432 75.2163 39.6952 75.4083 39.5992C76.1283 39.3592 76.8963 39.4552 77.5203 39.7912C79.0563 40.6072 80.5443 41.5192 81.9843 42.4792C84.3843 44.0152 86.7843 45.6472 89.1363 47.2312C95.4243 51.5032 101.616 55.8232 107.808 60.1912C113.76 64.4152 119.712 68.5912 125.664 72.8632C127.68 74.3032 129.696 75.7432 131.76 77.2312C132.384 77.7112 133.056 78.1432 133.728 78.6232C134.064 78.8632 134.4 79.1512 134.736 79.3432C134.784 79.3912 134.832 79.3912 134.88 79.4392C135.072 79.5832 135.6 79.1992 135.744 79.1032C136.128 78.8632 136.512 78.5752 136.8 78.2392C136.896 78.1432 136.704 78.3352 136.848 78.1912C136.992 78.0472 136.752 78.1912 136.944 78.0952C136.896 78.1432 136.656 78.3352 136.656 78.2872C136.896 78.1912 137.136 78.1432 137.376 78.1432C137.76 78.1432 138.144 78.2392 138.528 78.4312C139.584 78.8152 140.544 79.2952 141.504 79.8712C141.696 79.9672 142.224 79.6312 142.368 79.5352C142.752 79.2952 143.136 79.0072 143.424 78.6712L143.472 78.6232L143.52 78.5752C143.712 78.3832 143.904 78.1432 144.144 77.9512C144.864 77.2312 145.536 76.5592 146.304 75.9352C148.32 74.1112 150.576 72.5752 153.072 71.4712C154.656 70.7512 156.384 70.4152 158.112 70.3672C158.544 70.3672 159.072 69.9352 159.408 69.6952C159.504 69.6952 160.224 69.0712 159.936 69.0712Z" fill="#3D3D3D"/>
<path id="Vector_31" d="M169.536 101.423C168 105.263 165.648 109.199 162.288 111.599C162.144 111.695 161.76 111.935 161.52 112.079C161.28 112.223 160.944 112.415 160.608 112.559C159.888 112.895 159.12 113.183 158.352 113.375C156.816 113.807 155.232 113.903 153.648 113.759C146.112 112.943 141.312 105.407 141.024 98.3032C140.688 91.1032 144.96 84.5752 150.096 79.8712C149.952 79.9672 150.24 79.7272 150.288 79.6792L150.576 79.3912C150.768 79.1992 151.008 79.0552 151.2 78.8632L151.44 78.6712L151.536 78.5752C151.632 78.4792 151.296 78.7672 151.488 78.6232C151.68 78.4792 151.776 78.3832 151.92 78.2872C152.064 78.1912 152.64 77.8072 152.16 78.0952C152.496 77.8552 152.88 77.6152 153.264 77.3752C156.144 75.8872 159.696 76.0312 162.576 77.4232C165.744 78.9592 168.288 81.5992 169.68 84.8632C171.504 88.8472 171.648 93.4072 170.688 97.6312C170.4 99.0232 170.016 100.223 169.536 101.423C169.44 101.663 170.352 101.183 170.4 101.183C170.736 100.991 171.36 100.655 171.552 100.223C173.328 95.7112 173.952 90.7192 172.608 86.0152C171.6 82.2712 169.248 79.0552 165.984 76.9432C163.056 75.0712 159.456 74.5912 156.144 75.6472C155.184 75.9832 154.224 76.4152 153.36 76.9432C152.832 77.2312 152.352 77.5672 151.872 77.9512C152.16 77.7592 152.016 77.8552 151.968 77.9032C151.296 78.3832 150.672 78.8632 150.048 79.3912C144.72 83.8072 139.872 89.9992 139.2 97.1032C138.432 104.639 142.8 113.375 150.672 115.007C158.736 116.687 166.368 110.303 170.016 103.679C170.64 102.575 171.168 101.423 171.648 100.223C171.744 99.9352 170.832 100.415 170.784 100.463C170.304 100.703 169.68 101.039 169.536 101.423Z" fill="#CECECE"/>
<path id="Vector_32" d="M176.785 98.1112C176.785 98.1112 170.401 92.7352 167.761 91.4392C165.121 90.1432 164.161 92.6872 166.561 95.8552C166.561 95.8552 164.257 93.7912 163.681 96.6712C163.105 99.5512 166.465 103.439 166.465 103.439C166.465 103.439 161.041 100.655 160.561 102.815C160.081 104.975 190.321 116.975 192.769 116.591C195.217 116.207 196.225 100.799 195.313 99.7912C194.401 98.7832 180.529 97.6312 180.529 97.6312L179.617 94.5112" fill="white"/>
<path id="Vector_33" d="M177.601 97.6804C175.969 96.3364 174.289 94.9924 172.609 93.6964C171.457 92.7844 170.257 91.9684 169.009 91.2004C167.809 90.4804 165.889 89.6164 164.641 90.7684C163.153 92.1604 164.641 94.8004 165.553 96.0964L167.377 95.4724C166.657 94.8004 165.697 94.3684 164.737 94.3204C163.153 94.3204 162.481 95.8084 162.481 97.2004C162.481 98.7364 163.201 100.224 163.969 101.52C164.401 102.288 164.929 103.008 165.505 103.68L167.041 102.864C165.889 102.24 164.641 101.76 163.393 101.424C162.577 101.136 161.665 101.088 160.801 101.232C160.129 101.376 159.409 101.856 159.409 102.624C159.409 103.296 160.033 103.824 160.513 104.16C161.329 104.784 162.193 105.312 163.057 105.792C168.817 108.912 174.961 111.36 181.057 113.712C183.745 114.768 186.481 115.776 189.265 116.64C190.177 116.928 191.089 117.168 192.001 117.36C192.817 117.504 193.633 117.552 194.257 116.928C195.025 116.112 195.361 114.816 195.601 113.76C195.985 112.08 196.273 110.4 196.465 108.672C196.657 106.992 196.753 105.312 196.801 103.584C196.897 102.432 196.801 101.28 196.561 100.128C196.273 99.0244 195.121 98.7364 194.161 98.4964C192.769 98.1604 191.329 97.9204 189.889 97.7764C186.865 97.3444 183.841 97.0564 180.769 96.8164L180.193 96.7684L181.633 97.6324L180.721 94.5124C180.433 93.5524 178.129 93.2644 178.513 94.5124L179.425 97.6324C179.617 98.2084 180.337 98.4484 180.865 98.4964L181.393 98.5444L181.969 98.5924L182.353 98.6404C182.017 98.5924 182.545 98.6404 182.641 98.6884C184.081 98.8324 185.569 98.9764 187.009 99.1204C188.593 99.3124 190.177 99.5044 191.809 99.7444C192.433 99.8404 193.105 99.9364 193.729 100.08L194.449 100.272C194.017 100.176 194.641 100.368 194.737 100.368C194.977 100.416 194.449 100.176 194.641 100.32C194.641 100.32 194.401 100.08 194.353 100.08C194.305 100.08 194.305 99.8404 194.305 100.032C194.305 100.128 194.353 100.176 194.353 100.272C194.305 99.9844 194.401 100.464 194.401 100.608C194.449 100.896 194.449 101.136 194.449 101.376C194.497 102.768 194.449 104.112 194.353 105.504C194.161 108.48 193.921 111.648 192.865 114.48C192.769 114.72 192.673 114.912 192.577 115.152C192.529 115.248 192.481 115.344 192.433 115.44C192.337 115.632 192.481 115.344 192.433 115.44C192.385 115.536 192.385 115.536 192.337 115.584L192.145 115.776C192.001 115.92 192.289 115.728 192.145 115.776C191.905 115.872 192.433 115.728 192.289 115.776C191.953 115.824 192.481 115.824 192.289 115.776C192.145 115.728 192.049 115.728 191.905 115.728C191.569 115.68 191.233 115.584 190.897 115.488C190.801 115.44 190.417 115.344 190.849 115.488L190.513 115.392L189.793 115.2C189.265 115.008 188.689 114.864 188.161 114.672C186.865 114.24 185.569 113.76 184.273 113.28C178.321 111.072 172.417 108.672 166.705 105.936C166.993 106.08 166.513 105.84 166.465 105.792L166.033 105.6C165.745 105.456 165.505 105.312 165.217 105.168C164.737 104.928 164.257 104.64 163.777 104.4C163.297 104.16 162.961 103.92 162.577 103.68C162.433 103.584 162.289 103.488 162.145 103.392C162.001 103.296 162.385 103.584 162.145 103.392L161.953 103.248C161.857 103.152 161.761 103.056 161.713 103.008C162.001 103.248 161.809 103.152 161.761 103.056C161.665 102.864 161.809 103.152 161.761 103.104C161.713 102.912 161.809 103.344 161.761 103.152C161.809 103.44 161.761 103.2 161.857 103.056C161.761 103.2 161.905 103.056 161.905 103.008C161.809 103.104 161.905 103.008 161.953 103.008C161.713 103.104 162.289 102.96 162.001 103.008C162.145 103.008 162.289 103.008 162.433 103.008C162.625 103.008 162.145 102.96 162.481 103.008L162.673 103.056C162.913 103.104 163.105 103.152 163.345 103.2C163.681 103.296 163.201 103.152 163.441 103.2L163.729 103.296C163.921 103.344 164.113 103.392 164.257 103.488C164.593 103.584 164.929 103.728 165.217 103.872C165.457 103.968 165.697 104.064 165.937 104.208C165.649 104.064 166.177 104.352 165.937 104.208C166.369 104.496 166.849 104.544 167.329 104.352C167.617 104.208 167.761 103.824 167.569 103.536C167.569 103.488 167.521 103.44 167.473 103.392C166.273 102.048 165.361 100.416 164.881 98.6884C164.737 98.1604 164.737 97.6324 164.833 97.1044C164.881 96.8164 164.977 96.5764 165.121 96.3364C165.169 96.2884 165.313 96.1444 165.265 96.1444C165.217 96.1444 165.313 96.0964 165.361 96.1444C165.409 96.1924 165.313 96.1444 165.217 96.1444H165.313C165.121 96.0964 165.121 96.0964 165.265 96.1444C165.313 96.1924 165.409 96.1924 165.457 96.2404C165.505 96.2884 165.553 96.3364 165.649 96.3364C165.841 96.4324 165.457 96.1924 165.601 96.2884L165.745 96.3844C166.129 96.7684 166.705 96.9124 167.281 96.7684C167.617 96.6724 167.809 96.3364 167.713 96.0004C167.665 95.9044 167.665 95.8564 167.569 95.7604C167.041 95.0884 166.657 94.3204 166.465 93.5044C166.369 93.0724 166.369 92.4004 166.657 92.1124C166.705 92.0644 166.753 92.0164 166.801 92.0164C166.753 92.0164 166.849 92.0164 166.849 92.0164C166.897 92.0164 166.897 92.0164 166.945 92.0164L167.329 92.1604C167.617 92.3044 168.193 92.6404 168.529 92.8804C170.593 94.2724 172.561 95.7604 174.433 97.3444C174.961 97.7764 175.441 98.1604 175.969 98.5924C176.401 99.0244 177.025 99.1204 177.601 98.9284C178.081 98.5444 177.985 97.9684 177.601 97.6804Z" fill="#3D3D3D"/>
<path id="Vector_34" d="M171.121 101.278L167.569 95.9502L167.041 95.1823C166.753 94.7503 166.033 94.4142 165.553 94.6542C165.073 94.8942 165.217 95.6142 165.505 95.9982L169.057 101.326L169.585 102.094C169.873 102.526 170.593 102.862 171.073 102.622C171.553 102.382 171.361 101.662 171.121 101.278Z" fill="#3D3D3D"/>
<path id="Vector_35" d="M134.257 96.5269C134.257 96.5269 141.985 94.5589 143.089 96.5269C143.761 97.7269 142.321 99.6469 142.321 99.6469C142.321 99.6469 145.537 100.607 142.705 103.007C140.209 105.071 134.833 105.839 134.833 105.839C134.833 105.839 142.225 107.951 141.361 110.351C140.305 113.375 131.905 110.063 130.849 109.103C128.353 106.751 124.465 99.8869 135.553 90.0469" fill="white"/>
<path id="Vector_36" d="M134.592 96.6706L135.12 96.5266L135.648 96.4306L135.792 96.3826L136.176 96.2866C137.232 96.0466 138.336 95.9506 139.392 95.9026C140.112 95.9026 141.264 95.9026 141.792 96.5266C142.512 97.4386 141.696 98.9266 141.12 99.6946C141.072 99.7426 141.072 99.7906 141.12 99.8386C141.696 99.9826 142.224 100.367 142.512 100.847C143.04 102.095 141.312 103.247 140.4 103.727C139.2 104.351 137.952 104.831 136.656 105.119C136.368 105.167 136.128 105.263 135.84 105.311C135.792 105.311 135.744 105.359 135.696 105.359L135.408 105.407C135.264 105.455 134.352 105.599 135.024 105.455C134.592 105.503 134.208 105.599 133.824 105.743C133.632 105.839 133.488 105.935 133.776 106.031C133.776 106.031 133.68 105.983 133.872 106.079L134.448 106.271C135.024 106.463 135.6 106.655 136.128 106.895C137.376 107.375 138.768 107.999 139.728 109.007C140.064 109.343 140.256 109.823 140.208 110.255C140.16 110.495 140.064 110.735 139.92 110.879C139.824 110.975 139.776 111.023 139.68 111.119C139.632 111.167 139.584 111.167 139.536 111.215C139.536 111.215 139.872 111.119 139.728 111.167C139.584 111.215 139.92 111.167 139.68 111.167H139.584C139.248 111.167 138.912 111.167 138.576 111.119C137.808 111.023 137.04 110.831 136.272 110.639C134.976 110.303 133.68 109.775 132.48 109.103C131.856 108.671 131.28 108.143 130.896 107.519C129.648 105.695 129.072 103.439 129.36 101.231C129.888 96.6226 133.392 92.7826 136.704 89.8066C136.944 89.6146 135.888 89.6626 135.84 89.6626C135.312 89.6626 134.832 89.8066 134.4 90.0946C131.136 92.9746 127.872 96.6706 127.104 101.087C126.672 103.487 127.2 105.983 128.592 107.999C129.024 108.671 129.648 109.295 130.368 109.727C131.712 110.447 133.104 110.975 134.544 111.359C136.224 111.887 138.048 111.983 139.776 111.743C140.88 111.551 142.944 110.975 142.56 109.391C142.224 107.999 140.208 107.135 139.056 106.607C138 106.127 136.944 105.743 135.84 105.455L134.592 106.031C136.56 105.743 138.528 105.263 140.448 104.591C141.696 104.207 142.8 103.583 143.856 102.815C144.576 102.239 145.584 101.135 144.864 100.175C144.48 99.7906 144.048 99.5026 143.52 99.3106C143.616 99.3586 143.472 99.4546 143.616 99.3586C143.664 99.3106 143.712 99.2626 143.712 99.1666C143.856 98.9746 143.952 98.7826 144.096 98.5426C144.384 98.0146 144.576 97.3906 144.528 96.8146C144.336 94.8466 140.976 95.2306 139.632 95.3266C137.712 95.4706 135.84 95.8066 133.968 96.2866C133.824 96.3346 133.008 96.4786 133.2 96.7186C133.392 96.9586 134.448 96.7186 134.592 96.6706Z" fill="#3D3D3D"/>
<path id="Vector_37" d="M142.032 98.7355C141.6 98.6395 141.12 98.6875 140.688 98.8315C140.064 98.9755 139.488 99.1195 138.864 99.3115C137.472 99.6955 136.08 100.079 134.688 100.463C134.304 100.559 133.968 100.703 133.584 100.751C133.2 100.799 132.912 101.183 132.96 101.567C132.96 101.663 133.008 101.759 133.056 101.855C133.392 102.383 133.968 102.671 134.592 102.575C134.88 102.527 135.168 102.431 135.456 102.335L137.28 101.807C138.624 101.423 140.016 101.039 141.36 100.703C141.6 100.655 141.84 100.559 142.128 100.511L142.368 100.463C142.416 100.463 142.416 100.463 142.464 100.463C142.32 100.511 142.128 100.463 141.984 100.415C142.464 100.559 143.136 100.415 143.184 99.8395C143.232 99.2635 142.56 98.8795 142.032 98.7355Z" fill="#3D3D3D"/>
<path id="Vector_38" d="M73.6807 83.3272C65.4727 88.3192 61.3447 98.4472 62.6887 107.807C64.1287 117.839 71.1847 127.151 80.3047 131.519C85.1527 133.823 90.6247 134.495 95.6167 132.287C98.0167 131.135 100.225 129.599 102.193 127.775C104.113 126.095 105.841 124.223 107.377 122.159C108.865 120.143 110.017 117.887 110.785 115.487C111.121 114.287 111.313 113.087 111.361 111.839C111.409 110.639 111.313 109.391 110.401 108.431C109.441 107.423 107.905 107.231 106.753 107.999C105.697 108.671 105.025 109.871 104.545 111.023C103.633 113.375 103.537 115.967 104.257 118.415C105.025 121.007 106.369 123.359 108.241 125.327C110.017 127.295 112.081 129.023 114.337 130.367C116.641 131.711 119.329 132.719 122.017 132.479C124.273 132.287 126.385 131.231 127.873 129.551C128.545 128.735 129.025 127.727 129.217 126.671C129.409 125.663 127.297 124.559 127.057 125.711C126.673 127.679 125.281 129.119 123.505 129.935C121.585 130.799 119.377 130.847 117.361 130.079C115.201 129.263 113.233 128.015 111.553 126.383C109.825 124.895 108.337 123.071 107.233 121.055C106.177 119.039 105.745 116.735 105.985 114.479C106.129 113.375 106.465 112.271 106.993 111.311C107.329 110.687 108.145 109.343 109.057 109.487C108.865 109.439 108.961 109.295 109.009 109.583C109.009 109.775 109.105 109.967 109.105 110.111C109.153 110.639 109.153 111.167 109.105 111.647C109.009 112.751 108.769 113.855 108.433 114.959C107.713 117.119 106.609 119.135 105.265 120.911C103.873 122.735 102.289 124.463 100.561 125.999C98.7847 127.679 96.8167 129.071 94.6567 130.223C90.3847 132.383 85.5847 132.047 81.2647 130.175C73.2007 126.623 66.8647 118.607 65.0887 109.967C63.3607 101.663 66.0967 92.4472 72.6727 86.9272C73.4887 86.2552 74.3527 85.6312 75.2647 85.0552C76.3207 84.4312 74.5927 82.7992 73.6807 83.3272Z" fill="#CECECE"/>
<path id="Vector_39" d="M130.608 122.208V119.472C130.56 119.184 130.416 118.944 130.176 118.8C129.648 118.464 128.928 118.512 128.496 118.944C128.304 119.136 128.208 119.424 128.208 119.664V122.352C128.256 122.64 128.4 122.88 128.64 123.024C128.88 123.216 129.216 123.264 129.504 123.264C129.792 123.216 130.08 123.12 130.32 122.88C130.512 122.736 130.608 122.448 130.608 122.208Z" fill="#CECECE"/>
</g>
</g>
</svg>
