<svg width="240" height="240" viewBox="0 0 240 240" fill="none" xmlns="http://www.w3.org/2000/svg">
<g id="Change Password">
<g id="padlock">
<path id="Vector" d="M123.168 154.128C123.6 149.664 124.176 145.104 126.144 141.024C127.68 137.76 130.272 134.688 133.728 133.44C137.04 132.24 140.976 133.248 143.664 135.456C146.64 137.904 147.936 141.648 148.368 145.344C148.608 147.504 148.608 149.616 148.464 151.776C148.368 154.32 148.08 156.864 147.504 159.36C147.312 160.224 149.616 159.888 149.808 159.12C150.336 156.768 150.624 154.32 150.72 151.92C150.864 149.856 150.864 147.744 150.72 145.68C150.384 141.696 149.184 137.616 146.112 134.88C143.04 132.144 138.576 131.136 134.544 132C130.512 132.864 127.104 135.696 124.896 139.152C122.064 143.712 121.296 149.136 120.768 154.416C120.768 155.28 123.072 154.896 123.168 154.128Z" fill="#3D3D3D"/>
<g id="padlock-2">
<path id="Vector_2" d="M162.096 159.84C162.096 159.84 160.464 190.56 154.992 204.864C149.52 219.168 127.92 211.104 117.6 207.12C107.28 203.136 108.192 164.496 109.152 162.336C110.112 160.176 115.104 154.176 117.744 153.408C120.384 152.64 162.096 159.84 162.096 159.84Z" fill="#3D3D3D"/>
<path id="Vector_3" d="M160.992 159.312C160.704 164.256 160.272 169.2 159.744 174.096C158.784 182.88 157.68 191.76 155.232 200.256C154.224 203.904 152.976 207.552 149.808 209.856C146.832 212.016 142.944 212.544 139.344 212.4C135.264 212.16 131.232 211.44 127.344 210.192C125.424 209.616 123.552 208.992 121.632 208.32C120.768 208.032 120.192 207.792 119.328 207.456L118.176 207.024L117.696 206.832L117.408 206.736C117.12 206.64 117.504 206.784 117.408 206.736C117.312 206.688 117.168 206.592 117.456 206.784C117.408 206.736 117.312 206.736 117.264 206.688C117.552 206.88 117.216 206.688 117.168 206.64C117.408 206.784 117.024 206.544 116.976 206.496C116.88 206.448 116.832 206.352 116.736 206.304C116.352 205.92 115.968 205.536 115.632 205.104C114.864 204.048 114.192 202.848 113.712 201.648C112.512 198.576 111.648 195.408 111.12 192.144C109.968 185.136 109.488 178.032 109.632 170.928C109.632 168.672 109.68 166.416 109.92 164.16C109.968 163.68 110.016 163.2 110.208 162.768C110.544 162.048 111.024 161.328 111.504 160.704C112.128 159.84 112.8 159.024 113.52 158.208C114.816 156.72 116.352 155.04 118.176 154.176C118.464 154.032 118.752 153.936 119.04 153.936C119.28 153.936 119.52 153.936 119.76 153.936C121.968 154.032 124.128 154.32 126.288 154.608C133.152 155.52 140.016 156.624 146.832 157.728C151.92 158.544 157.008 159.408 162.096 160.272L162.864 160.416C163.344 160.512 162.672 159.984 162.624 159.936C162.144 159.648 161.664 159.408 161.088 159.312C157.248 158.64 153.408 158.016 149.568 157.392C142.464 156.192 135.408 155.088 128.256 154.032C125.52 153.648 122.736 153.264 120 152.976C119.184 152.88 118.368 152.832 117.552 152.784C116.784 152.784 116.016 152.976 115.392 153.456C113.568 154.608 112.032 156.288 110.688 157.92C110.016 158.688 109.392 159.552 108.816 160.368C108.48 160.848 108.192 161.328 107.952 161.904C107.808 162.432 107.712 163.008 107.712 163.536C107.616 164.544 107.568 165.552 107.52 166.608C107.232 173.424 107.52 180.24 108.336 187.056C108.72 190.608 109.392 194.064 110.352 197.52C111.12 200.208 112.176 202.944 114.096 205.056C115.056 206.064 116.208 206.88 117.504 207.408C119.136 208.08 120.816 208.656 122.496 209.28C126.384 210.72 130.368 211.872 134.448 212.736C141.552 214.128 151.008 214.608 155.136 207.312C156.048 205.584 156.72 203.76 157.2 201.84C157.776 199.824 158.304 197.76 158.736 195.696C159.696 191.136 160.416 186.528 161.04 181.92C161.952 175.152 162.576 168.336 163.008 161.472C163.008 161.088 163.056 160.752 163.056 160.368C163.056 159.984 162.288 159.744 162.048 159.648C162.096 159.6 160.992 159.12 160.992 159.312Z" fill="#3D3D3D"/>
<path id="Vector_4" d="M139.104 192.672C139.104 192.672 139.632 182.736 140.256 181.632C140.88 180.528 144.432 176.352 141.408 172.992C138.384 169.632 133.776 169.392 133.008 174C132.24 178.608 136.272 179.76 136.896 182.256C137.52 184.752 135.408 191.472 136.032 192.816C136.656 194.16 139.008 194.112 139.104 192.672Z" fill="white"/>
<path id="Vector_5" d="M140.16 193.056C140.304 189.984 140.496 186.864 140.928 183.792C140.976 183.216 141.072 182.688 141.264 182.16C141.6 181.44 142.176 180.768 142.56 180.096C143.808 177.84 144.192 175.248 142.416 173.184C140.784 171.264 138.096 169.68 135.504 169.824C133.056 169.968 131.904 172.176 131.808 174.384C131.712 176.688 133.104 178.32 134.592 179.904C135.168 180.432 135.6 181.104 135.84 181.824C135.984 182.736 135.984 183.696 135.84 184.656C135.696 186 135.408 187.344 135.216 188.688C134.976 189.696 134.88 190.704 134.88 191.76C134.976 193.008 136.272 193.776 137.28 194.112C138.288 194.448 140.016 194.592 140.16 193.152C140.208 192.432 138 191.76 138 192.144C138 192.528 137.76 192.912 137.376 193.056C137.232 193.104 137.088 193.104 136.944 193.104C136.848 193.104 136.656 192.96 137.088 193.152C137.52 193.344 137.28 193.296 137.232 193.2C137.136 192.96 137.088 192.768 137.04 192.528C137.04 192.144 137.04 191.76 137.088 191.376C137.328 189.312 137.808 187.344 138 185.28C138.144 184.416 138.144 183.6 138 182.736C137.808 182.016 137.424 181.344 136.896 180.768C135.744 179.424 134.352 178.272 134.016 176.4C133.68 174.48 134.352 171.744 136.464 171.168C136.8 171.072 137.184 171.024 137.52 171.072C137.712 171.072 137.952 171.12 138.144 171.168C138.288 171.216 138.432 171.264 138.576 171.36C139.488 171.84 140.256 172.56 140.784 173.424C141.984 175.44 141.024 177.84 139.92 179.664C139.536 180.144 139.248 180.672 138.96 181.248C138.816 181.728 138.672 182.256 138.672 182.784C138.24 185.904 138.048 189.12 137.904 192.288C137.952 192.816 140.16 193.68 140.16 193.056Z" fill="white"/>
<path id="Vector_6" d="M116.544 153.36C116.448 156.144 116.352 158.928 116.352 161.664C116.256 167.52 116.304 173.376 116.544 179.184C116.64 182.064 116.832 184.944 117.168 187.824C117.36 190.128 117.744 192.384 118.32 194.64C119.808 200.064 124.704 203.616 129.552 205.968C132.96 207.648 136.512 208.896 140.208 209.664L140.4 209.712C140.976 209.856 141.648 209.616 141.936 209.088C142.128 208.656 141.936 208.128 141.504 207.936C141.456 207.888 141.36 207.888 141.312 207.888C138.336 207.264 135.456 206.352 132.72 205.152C128.112 203.184 123.168 200.256 121.104 195.408C120.288 193.44 120 191.088 119.712 188.976C119.376 186.24 119.136 183.456 118.992 180.672C118.704 174.864 118.656 169.056 118.704 163.296C118.752 160.032 118.848 156.816 118.944 153.552C118.944 153.504 118.944 153.456 118.944 153.408C118.992 152.112 116.592 152.16 116.544 153.36Z" fill="white"/>
</g>
</g>
<g id="character">
<path id="Vector_7" d="M110.016 143.52C110.016 143.52 113.664 156.432 114.048 156.432L119.28 156.384V150.48L122.16 157.008L141.888 155.808C141.888 155.808 142.512 153.648 138.096 151.296C133.68 148.944 123.408 148.416 123.408 148.416L119.856 139.536L110.016 143.52Z" fill="#CECECE"/>
<path id="Vector_8" d="M80.9757 154.223C80.9757 154.223 104.448 138.287 105.312 139.151C106.176 140.015 109.344 149.567 109.344 149.567L124.992 142.607C124.992 142.607 127.296 125.807 114.864 121.151C102.432 116.495 71.9997 132.479 70.8477 132.767L80.9757 154.223Z" fill="white"/>
<path id="Vector_9" d="M81.7435 154.608C85.9195 151.776 90.0955 148.992 94.3195 146.256C97.1035 144.48 99.8395 142.704 102.719 141.072C102.959 140.928 103.247 140.784 103.487 140.64L103.871 140.448L103.967 140.4C104.255 140.256 103.823 140.448 104.015 140.4C104.351 140.208 104.735 140.064 105.119 139.872C105.503 139.68 104.831 139.92 105.215 139.824C105.455 139.776 104.879 139.872 105.071 139.824C104.831 139.824 104.639 139.824 104.447 139.728C104.255 139.632 104.351 139.584 104.399 139.728C104.447 139.776 104.495 139.872 104.543 139.92C104.591 140.016 104.639 140.064 104.687 140.16C104.735 140.304 104.831 140.448 104.879 140.592C106.175 143.616 107.327 146.736 108.287 149.856C108.479 150.432 109.535 150.288 109.919 150.096L124.463 143.616C124.991 143.376 126.095 143.04 126.287 142.416C126.383 141.888 126.431 141.312 126.431 140.736C126.575 137.952 126.335 135.12 125.711 132.384C124.847 128.832 123.071 125.376 120.239 123.024C117.407 120.768 113.855 119.52 110.255 119.568C106.319 119.52 102.431 120.288 98.6395 121.248C94.5595 122.304 90.5755 123.648 86.6395 125.184C83.2315 126.48 79.8715 127.92 76.5595 129.408C74.6875 130.272 72.8155 131.184 70.9435 132C70.7515 132.096 70.3195 132.192 70.7995 132.048C70.5115 132.144 69.5995 132.528 69.7915 133.008L73.1995 140.256L78.6235 151.776L79.8715 154.464C80.3035 155.328 82.5595 154.608 82.1755 153.84L78.7675 146.592L73.2955 135.072L71.9995 132.48L70.9915 133.44C71.9515 133.104 72.8635 132.72 73.7275 132.24C75.5995 131.376 77.4715 130.512 79.3915 129.648C84.7195 127.248 90.1915 125.184 95.7595 123.456C98.5915 122.592 101.423 121.92 104.351 121.44C105.071 121.344 105.743 121.248 106.463 121.2L107.423 121.104L107.903 121.056H108.143C108.143 121.056 108.527 121.056 108.335 121.056C108.959 121.056 109.583 121.056 110.207 121.104C110.495 121.104 110.783 121.152 111.071 121.152L111.503 121.2L111.695 121.248H111.791C114.479 121.68 116.927 122.928 118.895 124.8C120.815 126.72 122.207 129.12 122.975 131.76C123.647 134.016 124.031 136.32 124.079 138.672C124.127 139.968 124.031 141.264 123.935 142.56C123.935 142.608 123.935 142.704 123.935 142.752L124.607 142.08L110.879 148.176L108.959 149.04L110.591 149.28C109.631 146.4 108.623 143.52 107.471 140.688C107.231 140.064 106.943 139.488 106.607 138.912C106.319 138.528 105.839 138.336 105.359 138.432C104.399 138.528 103.487 139.056 102.671 139.488C99.9355 140.928 97.3435 142.608 94.7035 144.288C91.5835 146.256 88.5115 148.32 85.4395 150.336C83.7115 151.488 82.0315 152.64 80.3035 153.792C79.9195 154.032 79.6795 154.464 80.1115 154.8C80.5435 155.136 81.3115 154.896 81.7435 154.608Z" fill="#3D3D3D"/>
<path id="Vector_10" d="M128.399 91.824C129.071 91.824 134.255 93.792 138.479 91.296C142.703 88.8 140.063 85.296 136.895 86.784C133.727 88.272 130.271 86.784 130.271 86.784L126.671 88.656L128.399 91.824Z" fill="white"/>
<path id="Vector_11" d="M128.88 92.7837C129.552 92.8797 130.224 93.0236 130.896 93.2156C132.192 93.4556 133.536 93.5997 134.832 93.5037C136.368 93.4077 137.856 92.9757 139.2 92.2077C140.256 91.5837 141.36 90.6716 141.552 89.3756C141.936 86.9756 139.248 85.0077 137.04 85.4877C136.32 85.6317 135.648 86.0157 134.928 86.2077C134.16 86.3997 133.344 86.4476 132.528 86.3996C131.664 86.3036 130.8 86.1596 129.984 85.8716C129.36 85.6316 128.448 86.3996 127.92 86.6396L125.856 87.6956C125.616 87.8396 125.808 88.3197 125.904 88.4637L127.68 91.6316C127.92 92.1116 128.4 92.7357 128.88 92.7837C129.456 92.8317 129.36 92.3036 129.168 91.9196L127.44 88.7516L127.488 89.5196L131.088 87.6477H130.56C131.904 88.1757 133.296 88.4157 134.736 88.3677C135.312 88.3677 135.84 88.2717 136.416 88.1277C136.992 87.9837 137.472 87.7436 138.048 87.5516C138.624 87.3596 139.296 87.3596 139.872 87.5516C139.872 87.5996 139.968 87.5996 139.872 87.5516C139.872 87.5036 140.064 87.8396 139.872 87.5516C139.92 87.5996 140.016 87.7437 139.872 87.5037C139.728 87.2637 139.872 87.4557 139.872 87.5037C139.92 87.3597 139.872 87.6476 139.872 87.5996C139.872 87.7436 139.872 87.8876 139.872 88.0316C139.728 88.8956 139.008 89.5677 138.288 90.0477C136.464 91.2477 134.304 91.7756 132.192 91.5356C131.28 91.4876 130.32 91.3437 129.408 91.1037C128.928 90.9597 128.448 90.8636 127.968 90.8156C126.912 90.8156 128.16 92.7357 128.88 92.7837Z" fill="#CECECE"/>
<path id="Vector_12" d="M113.184 94.6562C113.184 94.6562 109.392 85.8722 111.936 81.7922C114.48 77.7122 117.6 88.5602 119.616 91.2002" fill="white"/>
<path id="Vector_13" d="M114.24 94.1754C114.096 93.8394 113.952 93.5034 113.856 93.1674C113.856 93.1194 113.76 92.8794 113.808 93.1194C113.76 93.0234 113.76 92.9274 113.712 92.8314C113.664 92.6394 113.616 92.4954 113.52 92.3514C113.376 91.8714 113.232 91.3434 113.04 90.8634C112.464 88.7514 111.936 86.4474 112.272 84.2394C112.368 83.4234 112.656 82.6074 113.136 81.9354L113.184 81.8874C113.088 81.9834 113.04 82.0314 113.136 81.9354C113.088 81.9354 113.616 81.7434 113.088 81.9354C113.232 81.8874 113.328 81.8874 112.992 81.9354C113.136 81.9354 113.232 81.9354 112.896 81.9354C112.992 81.9354 113.184 81.9834 112.8 81.9354C112.848 81.9354 112.896 81.9834 112.992 81.9834C113.04 81.9354 112.704 81.9354 112.944 81.9834C112.992 81.9834 113.232 82.1754 112.992 81.9834C113.232 82.1754 113.472 82.4154 113.664 82.7034C113.856 82.9434 113.568 82.5114 113.712 82.7994C113.76 82.8954 113.808 82.9914 113.904 83.0394C114.048 83.2314 114.192 83.4714 114.336 83.6634C114.864 84.5274 115.296 85.3914 115.68 86.3034C116.544 88.1274 117.216 90.1434 118.464 91.7274C118.8 92.2554 119.472 92.3994 120.048 92.1594C120.48 91.9674 121.008 91.2474 120.624 90.7674C119.472 89.2314 118.752 87.2634 117.936 85.4874C117.12 83.7114 116.256 81.6954 114.768 80.4954C114.048 79.8714 113.04 79.6794 112.128 80.0634C111.168 80.5434 110.544 81.5514 110.256 82.5114C109.44 84.9114 109.824 87.5994 110.352 90.0474C110.736 91.7754 111.312 93.5034 111.984 95.1354C112.56 96.3834 114.768 95.4714 114.24 94.1754Z" fill="#CECECE"/>
<path id="Vector_14" d="M101.279 102.096L90.9115 95.04L80.5435 103.728L86.7835 112.272L101.279 102.096Z" fill="white"/>
<path id="Vector_15" d="M101.712 101.28L92.6396 95.1359L91.3436 94.2239C91.0076 93.9359 90.4796 93.8879 90.1436 94.1759L81.0716 101.808L79.7756 102.912C79.4876 103.248 79.4876 103.776 79.7756 104.112L85.1996 111.504L85.9676 112.608C86.3516 113.136 87.0236 113.568 87.5996 113.136L100.32 104.256L102.144 103.008C102.624 102.672 102.24 101.856 101.952 101.52C101.616 101.088 100.992 100.944 100.512 101.232L87.7436 110.112L85.9196 111.36L87.5516 111.888L82.1276 104.496L81.3596 103.392V104.64L90.4316 97.0079L91.7276 95.9039L90.5276 95.8559L99.5996 102L100.896 102.912C101.328 103.2 102 103.296 102.24 102.768C102.48 102.24 102.096 101.568 101.712 101.28Z" fill="#CECECE"/>
<path id="Vector_16" d="M60.0473 195.936C60.0473 195.936 56.6393 212.112 57.0233 212.112C57.4073 212.112 63.3593 211.92 63.3593 211.92V206.016L66.2393 212.544L85.9673 211.344C85.9673 211.344 86.5913 209.184 82.1753 206.832C77.7593 204.48 70.5593 201.072 70.5593 201.072L75.4553 192L60.0473 195.936Z" fill="#CECECE"/>
<path id="Vector_17" d="M87.1197 128.544C87.1197 128.544 93.5997 171.024 76.2237 198.72H56.1597C56.1597 198.72 71.1837 157.728 61.1517 137.952L87.1197 128.544Z" fill="white"/>
<path id="Vector_18" d="M85.9675 128.976L86.0155 129.264C86.0155 129.312 86.0155 129.36 86.0155 129.408C86.0635 129.648 86.0155 129.36 86.0155 129.456C86.0155 129.552 86.0635 129.792 86.0635 129.984C86.2075 131.088 86.3035 132.144 86.3995 133.248C86.7835 137.088 86.9755 140.928 87.0235 144.768C87.1195 150.192 86.9275 155.568 86.4475 160.944C85.9195 167.088 84.8635 173.136 83.3275 179.088C81.7435 185.232 79.3915 191.184 76.2715 196.704C75.8875 197.376 75.4555 198.096 75.0235 198.768L76.4635 197.952H56.4475L57.1675 198.72C57.6955 197.328 58.1275 195.888 58.6075 194.448C59.7595 190.848 60.8155 187.152 61.7275 183.456C62.9755 178.608 63.9355 173.712 64.6555 168.768C65.4715 163.584 65.8075 158.304 65.6635 153.024C65.4715 148.272 64.7995 143.424 62.9275 139.056C62.7355 138.528 62.4955 138.048 62.2555 137.568L61.3915 138.624L70.1755 135.456L84.1435 130.368L87.3595 129.216C87.7435 129.072 88.4155 128.64 88.2235 128.16C88.0315 127.68 87.2155 127.776 86.8315 127.92L78.0475 131.088L64.0795 136.176L60.8635 137.328C60.5275 137.424 59.7595 137.952 59.9995 138.384C62.1115 142.512 62.9755 147.216 63.2635 151.776C63.5515 157.008 63.3595 162.192 62.5915 167.376C61.9195 172.368 61.0075 177.312 59.8075 182.208C58.8955 186 57.8875 189.744 56.6875 193.488C56.1595 195.216 55.5355 196.944 54.9595 198.672V198.72C54.7675 199.248 55.2475 199.488 55.6795 199.488H70.0795C71.9515 199.488 73.8235 199.584 75.6955 199.488C76.8955 199.44 77.3275 198.48 77.8555 197.568C78.4795 196.56 79.0075 195.552 79.5835 194.496C80.6395 192.48 81.5995 190.368 82.4155 188.256C85.8235 179.808 87.6475 170.736 88.6075 161.664C89.3755 154.176 89.5195 146.64 89.1355 139.152C88.9915 136.704 88.8475 134.256 88.5595 131.808C88.5115 130.608 88.3675 129.408 88.1275 128.208C88.1275 128.16 88.1275 128.112 88.1275 128.064C88.0315 127.536 87.0715 127.728 86.7355 127.824C86.3995 128.064 85.9195 128.448 85.9675 128.976Z" fill="#3D3D3D"/>
<path id="Vector_19" d="M38.0156 93.6004C38.0156 93.6004 52.9916 76.9444 69.8876 83.2324C83.8556 88.4164 91.1996 122.544 90.9116 123.984C88.8956 134.592 63.8876 146.256 61.9676 145.776C60.0476 145.296 51.8876 100.8 51.8876 100.8L45.7916 104.688L38.0156 93.6004Z" fill="#CECECE"/>
<path id="Vector_20" d="M39.2154 93.6479C40.1754 92.5919 41.1834 91.6319 42.2874 90.7199C44.7834 88.5599 47.5194 86.7359 50.3994 85.2479C53.9994 83.4239 57.9354 82.0799 62.0154 81.9359C65.5194 81.8399 68.9754 82.8479 71.8554 84.8639C74.3514 86.6399 76.3194 89.0879 77.9994 91.6319C79.8714 94.5599 81.5034 97.6319 82.8954 100.848C85.3914 106.608 87.3114 112.56 88.7514 118.656C89.1834 120.24 89.5194 121.824 89.7114 123.456C89.7114 124.176 89.5674 124.848 89.2794 125.472C88.7514 126.816 87.9834 128.064 87.0714 129.168C84.9114 131.904 82.1754 134.208 79.3434 136.224C76.3674 138.336 73.2474 140.256 70.0314 141.936C67.7274 143.184 65.3274 144.288 62.8314 145.2C62.4474 145.344 62.1114 145.44 61.7274 145.536C61.5354 145.584 61.5354 145.584 61.3914 145.584C61.1514 145.584 61.2474 145.584 61.3914 145.584C61.7274 145.584 63.0234 145.488 63.1194 145.728C63.0234 145.536 62.7354 145.2 62.6394 144.864C62.0634 143.28 61.5834 141.648 61.1994 139.968C60.5274 137.376 59.9514 134.736 59.3754 132.144C58.0314 125.952 56.7834 119.76 55.5834 113.568C54.8154 109.536 54.0474 105.456 53.2794 101.424C53.2314 101.232 53.1834 101.04 53.1834 100.8C53.1834 100.56 51.0714 100.512 50.8314 100.656L44.6394 104.544L46.9914 104.688L40.1754 95.0399L39.2154 93.6479C39.0714 93.4079 38.2554 93.4559 38.0154 93.4559C37.9194 93.4559 36.8154 93.5039 36.8154 93.5039L43.5834 103.2L44.5434 104.592C44.6874 104.784 45.4074 104.784 45.5994 104.784C45.9354 104.784 46.6554 104.928 46.9434 104.784L53.0394 100.896L50.6874 100.752C51.2634 103.824 51.8394 106.896 52.4154 110.016C53.6154 116.256 54.8634 122.496 56.1594 128.736C56.7834 131.664 57.4554 134.64 58.1274 137.568C58.6074 139.632 59.1354 141.744 59.8074 143.808C59.9514 144.336 60.1914 144.912 60.4314 145.392C60.8154 146.112 61.6794 145.968 62.3994 146.016C64.3674 146.064 66.2874 145.104 68.0634 144.336C71.1354 142.944 74.1114 141.36 76.9914 139.584C80.2074 137.664 83.2794 135.456 86.0634 132.96C88.3674 130.848 90.7194 128.4 91.7754 125.424C92.0154 124.8 92.1594 124.176 92.1114 123.504C92.0154 122.832 91.9194 122.16 91.7754 121.488C90.5754 115.776 88.9434 110.16 86.8314 104.688C85.5834 101.328 84.0474 98.0159 82.3194 94.8479C80.7354 91.9199 78.7674 89.2319 76.4154 86.8319C75.4074 85.8239 74.2554 84.9599 73.0554 84.2399C71.4234 83.3279 69.6474 82.6559 67.7754 82.3199C63.2154 81.3599 58.5114 81.5039 54.0474 82.7519C47.9034 84.5279 42.1914 88.2719 37.6794 92.7839C37.3914 93.0719 37.1514 93.3119 36.9114 93.5999C36.9114 93.5999 38.0154 93.7919 38.1114 93.7919C38.2554 93.7439 38.9754 93.8879 39.2154 93.6479Z" fill="#CECECE"/>
<path id="Vector_21" d="M67.9194 83.2323C67.9194 83.2323 78.8154 82.9923 94.6554 95.1363L84.5754 104.544L67.9194 83.2323Z" fill="#CECECE"/>
<path id="Vector_22" d="M68.4475 84.288C68.0155 84.288 68.4475 84.288 68.5915 84.288C68.8795 84.288 69.1675 84.336 69.5035 84.336C70.6555 84.48 71.8075 84.672 72.9115 84.912C77.1835 85.968 81.2635 87.6 85.1035 89.76C88.4155 91.584 91.5355 93.648 94.5115 95.952L93.8875 94.128L85.0555 102.384L83.8075 103.536L85.0555 104.064L79.4395 96.864L70.5115 85.44L68.4475 82.848C68.2075 82.512 67.6315 81.984 67.1995 82.32C66.7675 82.656 67.1515 83.376 67.3435 83.712L72.9595 90.912L81.9355 102.384L83.9515 105.024C84.1435 105.312 84.8155 105.936 85.2475 105.552L94.0795 97.296L95.3275 96.144C95.9035 95.616 95.1355 94.656 94.7035 94.32C89.7115 90.528 84.3355 87.168 78.4795 84.864C75.4555 83.616 72.2875 82.752 69.0235 82.32C68.4475 82.272 67.8715 82.224 67.2955 82.224C66.7195 82.224 66.9595 83.136 67.1035 83.424C67.3915 83.904 67.8715 84.24 68.4475 84.288Z" fill="#CECECE"/>
<path id="Vector_23" d="M79.3917 63.168C79.3917 63.168 81.5037 67.632 84.9117 68.496C88.3197 69.36 95.1837 70.128 94.9917 73.632C94.7997 77.136 89.9037 76.992 87.1677 75.6C87.1677 75.6 85.3917 84.576 79.4877 85.44C73.5837 86.304 71.5677 84.144 70.1757 87.6C70.1757 87.6 62.3037 87.6 63.5997 80.688C63.7917 79.632 64.6077 70.128 73.8237 68.352C73.7757 68.352 78.9597 67.68 79.3917 63.168Z" fill="white"/>
<path id="Vector_24" d="M78.2874 62.8796C78.9114 64.1276 79.7274 65.3277 80.7354 66.2877C81.5514 67.1517 82.5114 67.8236 83.5674 68.2556C84.6714 68.6876 85.7754 69.0236 86.9274 69.2156C88.8474 69.6476 90.8154 69.8877 92.3994 70.8477C93.8394 71.7597 94.3674 73.6316 93.1194 75.0237C92.3994 75.7917 91.2954 76.0316 90.2394 76.0796C89.7594 76.0796 89.2794 76.0316 88.8474 75.9356L88.6074 75.8877C88.8474 75.9357 88.2234 75.7436 88.4634 75.8396C88.2234 75.7436 88.0314 75.6476 87.7914 75.5516C87.6474 75.4556 86.0634 74.8796 86.0154 75.2156C85.5354 77.5676 84.6234 79.7757 83.2314 81.7437C82.2234 83.2317 80.7354 84.3836 79.0074 84.8637C76.9434 85.3917 74.7354 85.1516 72.6714 85.0556C71.9034 84.9596 71.1354 85.0557 70.4634 85.3437C69.7914 85.7757 69.2634 86.3997 69.0234 87.1677L69.2154 87.0716H69.2634H68.9274C68.7834 87.0716 68.6394 87.0237 68.4954 87.0237C68.2074 86.9757 68.6394 87.0237 68.3994 87.0237L68.0634 86.9756L67.8714 86.9277C67.9194 86.9277 68.1114 86.9757 67.9194 86.9277L67.6314 86.8316C67.9674 86.9276 67.5354 86.7837 67.4394 86.7837C67.7274 86.8797 67.3434 86.7357 67.2474 86.6877C67.4874 86.7837 67.1514 86.6396 67.1034 86.6396C66.9114 86.5436 67.0554 86.5917 67.0554 86.6396L66.8634 86.5437C66.6234 86.3997 66.4314 86.2556 66.1914 86.1116C64.3194 84.5756 64.5114 82.1757 64.8954 79.9677C65.2314 77.7117 66.0474 75.5996 67.2954 73.6796C69.0234 71.0396 71.7594 69.2637 74.8794 68.6877C77.6634 68.1597 80.2554 66.4796 80.6394 63.4556C80.6874 62.9756 78.3834 62.4956 78.3354 62.7356C77.9994 65.6156 75.5994 67.3436 72.9114 67.8716C72.8154 67.8716 73.0554 67.8236 72.9114 67.8716L72.6234 67.9196C72.0954 68.0156 71.5674 68.1596 71.0394 68.3516C68.5914 69.1676 66.5274 70.7516 65.0874 72.8637C63.7914 74.8797 62.9274 77.0877 62.5914 79.4877C62.3514 80.4957 62.3034 81.5517 62.3994 82.6077C62.5914 83.9517 63.3114 85.1516 64.4154 85.9196C66.3834 87.2636 68.7834 87.9837 71.1834 87.9837C71.2794 87.9837 71.3274 87.9837 71.3754 87.8877C71.5674 87.2157 72.0474 86.5917 72.6234 86.2077C73.1514 85.9677 73.7754 85.8716 74.3514 85.9196C76.5114 85.9676 78.6234 86.1596 80.7834 85.7756C84.3354 85.1516 86.3994 81.7437 87.5994 78.6237C87.9354 77.7597 88.2234 76.7997 88.4154 75.8877L86.6394 75.5516C88.7514 76.6076 91.4874 77.2796 93.8394 76.6556C95.6154 76.1756 96.9594 74.2556 95.9514 72.4316C95.4234 71.6156 94.6554 70.9917 93.7434 70.6077C92.6394 70.0797 91.4394 69.5996 90.2394 69.3116C89.0394 68.9756 87.8394 68.7357 86.5914 68.4477C86.1114 68.3517 85.6314 68.2076 85.1034 68.1116C85.1034 68.1116 84.7674 68.0157 84.9594 68.0637C85.0554 68.1116 84.8154 68.0156 84.8634 68.0156C84.6234 67.9196 84.4314 67.7756 84.2394 67.6316C82.7034 66.4796 81.5034 64.9916 80.6874 63.2636C80.4954 62.8796 79.6794 62.7356 79.3434 62.6396C79.0554 62.8316 78.1434 62.6396 78.2874 62.8796Z" fill="#3D3D3D"/>
<path id="Vector_25" d="M62.1115 77.0398C62.1115 77.0398 57.2155 77.9518 56.5915 75.3118C55.9675 72.6718 59.0395 73.4878 59.0395 73.4878C59.0395 73.4878 55.7755 67.9678 60.7675 67.3438C60.7675 67.3438 56.9275 63.0718 60.3835 59.5678C63.8395 56.0638 70.0795 58.8958 70.0795 58.8958C70.0795 58.8958 70.2715 53.1358 75.2155 54.1918C80.1595 55.2478 78.7675 58.6078 78.7675 58.6078C78.7675 58.6078 81.9355 59.2318 81.9355 61.2478C81.9355 63.2638 79.4395 63.8398 79.4395 63.8398C79.4395 63.8398 78.1915 69.4078 73.8715 68.3038L69.2635 75.1198C70.0315 76.8478 69.8395 78.8158 68.8315 80.3518C66.9115 82.9438 61.6315 80.6878 62.1115 77.0398Z" fill="#3D3D3D"/>
<path id="Vector_26" d="M61.5358 76.032C62.1118 75.936 61.3438 76.032 61.1998 76.08C60.8158 76.128 60.4318 76.128 60.0478 76.128H59.5198C59.2798 76.128 59.0398 76.08 58.7998 76.032C58.6078 75.984 58.4158 75.936 58.2238 75.888C58.1758 75.888 57.8878 75.696 58.1278 75.84C58.0798 75.84 57.7918 75.6 57.9358 75.696C57.8398 75.6 57.7918 75.504 57.7438 75.408C57.7918 75.6 57.6958 75.312 57.6958 75.264C57.6478 75.12 57.6478 74.976 57.6478 74.832C57.6478 74.64 57.6478 74.832 57.6958 74.688C57.7438 74.544 57.6478 74.784 57.7438 74.592C57.7918 74.496 57.8398 74.496 57.7438 74.592C57.7918 74.544 57.8398 74.544 57.8878 74.496C58.0798 74.4 57.7438 74.544 57.9358 74.496C58.0318 74.448 58.1758 74.448 57.9838 74.448C58.0798 74.448 58.1758 74.448 58.3198 74.4C58.4158 74.4 58.4638 74.4 58.5598 74.4C58.7518 74.4 58.9438 74.448 59.1358 74.496C59.6158 74.64 60.0958 74.352 60.2398 73.872C60.2878 73.632 60.2878 73.344 60.0958 73.152C59.9518 72.912 59.8558 72.672 59.7118 72.384C59.6638 72.24 59.6638 72.288 59.7118 72.432C59.6638 72.336 59.6638 72.288 59.6158 72.192C59.5678 72.096 59.5198 71.904 59.4718 71.808C59.3758 71.472 59.2798 71.184 59.2318 70.848C59.2798 71.04 59.2318 70.608 59.1838 70.56C59.1838 70.368 59.1838 70.224 59.1838 70.032C59.1838 69.984 59.2318 69.84 59.1838 69.984C59.1838 69.888 59.2318 69.792 59.2318 69.696C59.2798 69.6 59.3758 69.264 59.3278 69.408C59.7118 68.784 60.3838 68.4 61.1038 68.4C61.9678 68.304 62.1118 67.392 61.5838 66.768L61.4398 66.72L61.2958 66.528C61.1038 66.336 61.3438 66.624 61.2478 66.48C60.9598 66.048 60.6718 65.616 60.4798 65.136C59.9038 63.984 59.9038 62.64 60.4318 61.488C61.8718 58.752 65.1358 58.56 67.8238 59.232C67.9678 59.28 68.1118 59.328 68.2558 59.328L68.3998 59.376C68.7358 59.472 68.3039 59.328 68.4479 59.376C68.5919 59.424 68.9278 59.52 69.1198 59.616C69.3118 59.712 69.5518 59.76 69.7438 59.856C70.1758 60.096 70.7518 59.952 70.9918 59.52C71.0398 59.376 71.0878 59.28 71.1358 59.136C71.1358 58.992 71.1358 58.848 71.1838 58.752L71.2318 58.512C71.2798 58.32 71.2799 58.128 71.3279 57.984C71.3759 57.84 71.4238 57.6 71.5198 57.408C71.5678 57.312 71.5678 57.216 71.6158 57.12L71.6638 56.976C71.7118 56.88 71.6158 57.072 71.7118 56.928C71.8078 56.736 71.9039 56.544 72.0478 56.352C72.0958 56.256 72.1919 56.16 72.2879 56.064L72.4318 55.92C72.3358 56.016 72.4318 55.92 72.4798 55.92C73.3918 55.152 74.4958 55.152 75.7438 55.488C76.0798 55.584 76.3678 55.728 76.6558 55.872C76.7518 55.92 76.8478 55.968 76.9438 56.064C76.9918 56.112 77.3278 56.4 77.1358 56.208C77.2318 56.304 77.3278 56.4 77.3758 56.496C77.2798 56.352 77.4718 56.64 77.3758 56.496C77.4238 56.544 77.4238 56.592 77.4718 56.64C77.5198 56.736 77.6158 56.928 77.5198 56.736C77.5678 56.832 77.5678 56.928 77.6158 57.072C77.7118 57.36 77.6158 56.976 77.6638 57.216C77.6638 57.312 77.6638 57.408 77.6638 57.552V57.792C77.6638 57.888 77.7118 57.6 77.6638 57.84C77.6158 57.984 77.5678 58.176 77.5198 58.32C77.2318 58.992 78.0478 59.664 78.6238 59.808C78.7198 59.808 78.8638 59.856 78.9598 59.904C79.0558 59.952 78.7198 59.808 78.9118 59.904L79.1038 60C79.2478 60.048 79.3918 60.096 79.5358 60.144C79.6798 60.192 80.0158 60.384 79.8718 60.288C80.0638 60.384 80.2078 60.48 80.3518 60.624C80.1598 60.48 80.5438 60.864 80.4958 60.768C80.5438 60.864 80.5918 60.96 80.5918 61.056C80.7358 62.112 79.5358 62.784 78.6718 63.024C78.4318 63.12 78.2398 63.312 78.1438 63.552C78.0958 63.792 77.9998 64.08 77.9038 64.32C77.7118 64.848 77.4718 65.328 77.1358 65.808C76.2718 67.152 75.1678 67.776 73.6318 67.44C73.2958 67.344 72.9118 67.488 72.6718 67.776L68.0158 74.544C67.8238 74.832 67.8238 75.264 68.0158 75.552C68.1118 75.744 67.9198 75.264 68.0158 75.6C68.0638 75.792 68.1599 76.032 68.2079 76.272C68.3519 76.848 68.3518 77.424 68.2558 78C68.1598 78.768 67.8238 79.488 67.3438 80.064L67.1038 80.256C67.1038 80.256 66.8638 80.4 66.9598 80.352C66.7678 80.448 66.5758 80.496 66.3838 80.544C66.1918 80.544 65.9518 80.544 65.7598 80.544C65.6638 80.544 65.5198 80.496 65.4238 80.496C65.4238 80.496 65.0878 80.4 65.2318 80.448C64.7518 80.352 64.2719 80.064 63.8879 79.728C63.7439 79.632 63.6478 79.488 63.5038 79.344C63.3598 79.152 63.2638 78.96 63.1198 78.768C62.9278 78.288 62.8799 77.808 62.9279 77.328C63.0239 76.128 60.8158 75.504 60.6718 76.896C60.3838 79.536 62.5918 81.744 65.0398 82.416C66.1438 82.752 67.3438 82.656 68.3518 82.128C69.6478 81.408 70.2718 79.728 70.4158 78.336C70.5118 77.184 70.3198 75.984 69.7918 74.928V75.936L74.3998 69.12L73.4398 69.456C75.4558 69.984 77.5678 69.168 78.7198 67.44C79.3438 66.528 79.8238 65.52 80.0638 64.416L79.5358 64.944C81.3118 64.512 82.9918 62.832 82.4638 60.864C81.9838 59.04 79.9678 58.032 78.2398 57.696L79.3438 59.184C80.2558 56.928 78.5758 54.72 76.6079 53.856C75.0239 53.136 72.9598 52.752 71.3758 53.52C70.2238 54.144 69.3598 55.152 68.9758 56.4C68.6878 57.168 68.5438 57.936 68.5438 58.752L69.9358 58.032C67.7758 57.024 65.3758 56.64 63.0238 56.976C61.1518 57.216 59.4238 58.224 58.3678 59.808C57.4078 61.344 57.1678 63.264 57.8398 64.944C58.2238 66.096 58.8478 67.104 59.6158 68.016L60.0958 66.384C58.9918 66.528 57.8398 66.912 57.1198 67.872C56.6398 68.592 56.3998 69.504 56.5438 70.368C56.6878 71.616 57.0718 72.816 57.7438 73.872L58.7038 72.528C57.1198 72.096 55.0558 72.576 55.1038 74.544C55.1518 77.328 57.9358 78.288 60.2878 78.288C61.0078 78.288 61.7278 78.24 62.3998 78.096C62.9758 78 63.0238 77.184 62.7838 76.8C62.7838 76.176 62.1118 75.888 61.5358 76.032Z" fill="#3D3D3D"/>
<path id="Vector_27" d="M74.4478 69.5035C74.4478 69.5035 74.0158 65.6155 71.1358 66.1915C68.2558 66.7675 66.7198 75.4075 71.7118 75.5035" fill="white"/>
<path id="Vector_28" d="M75.6475 69.3593C75.5035 68.2553 75.1195 67.2473 74.4475 66.3833C73.2955 64.9913 71.2795 64.6553 69.7435 65.6633C68.5915 66.4793 67.9195 67.8713 67.5835 69.2153C67.1995 70.6553 67.1995 72.1913 67.6315 73.6313C68.2075 75.3113 69.7435 76.5113 71.5675 76.5113C72.1915 76.6073 72.7675 76.2233 72.9595 75.5993C73.0555 75.0233 72.6235 74.4953 72.0475 74.4473H71.9995C71.8075 74.4473 71.6635 74.4473 71.4715 74.3993L71.3275 74.3513C71.3755 74.3513 71.6155 74.3993 71.3275 74.3513L70.9435 74.2073C71.2315 74.3033 70.8475 74.1593 70.7515 74.0633L70.5595 73.9193C70.7515 74.0633 70.6555 74.0153 70.6075 73.9673C70.5595 73.9193 70.4155 73.7753 70.3195 73.6313C70.2715 73.5833 70.2715 73.5353 70.2235 73.5353C70.0795 73.3433 70.3195 73.7273 70.2235 73.5353C70.1755 73.3913 70.0795 73.2953 70.0315 73.1513C69.9835 73.0073 69.9355 72.9113 69.8875 72.8153C69.8395 72.7193 69.8395 72.5273 69.8875 72.7673C69.8875 72.7193 69.8875 72.6713 69.8395 72.6233C69.7915 72.2873 69.7435 71.9993 69.6955 71.6633C69.6955 71.5193 69.6955 71.3753 69.6955 71.2313C69.6955 71.1833 69.6955 70.8953 69.6955 71.1833C69.6955 71.1353 69.6955 71.0873 69.6955 71.0393C69.7435 70.7033 69.7435 70.4153 69.7915 70.0793C69.8395 69.7913 69.9355 69.5033 69.9835 69.2153L70.0315 68.9753C70.0315 69.0233 69.9355 69.1673 70.0315 69.0233C70.1275 68.8793 70.1275 68.7353 70.2235 68.5913C70.3195 68.3513 70.4635 68.1113 70.6075 67.8713L70.7035 67.7753C70.5595 67.9673 70.8475 67.5833 70.7035 67.7753C70.7995 67.6793 70.8475 67.5833 70.9435 67.4873C71.0395 67.3913 71.2315 67.2473 70.9915 67.4393L71.2795 67.2473C71.5195 67.0553 71.0395 67.3433 71.3275 67.2473C71.3755 67.2473 71.3755 67.2473 71.4235 67.1993C71.5195 67.1513 71.4715 67.1513 71.2795 67.2473L71.4715 67.1993C71.4715 67.1993 71.8075 67.1513 71.6155 67.1993C71.4235 67.2473 71.7115 67.1993 71.7595 67.1993C71.8075 67.1993 72.0955 67.2953 71.8075 67.1993L71.9515 67.2473C71.9995 67.2953 72.2395 67.3913 71.9995 67.2473L72.1915 67.3913L72.3355 67.4873C72.0955 67.2953 72.3355 67.5353 72.3835 67.5833C72.4315 67.6313 72.7195 68.0153 72.5755 67.7753C72.6715 67.9193 72.7195 68.0633 72.8155 68.2073C72.9115 68.4473 73.0555 68.7353 73.1035 69.0233C73.0555 68.7833 73.1995 69.2633 73.1035 69.0233C73.1035 69.0713 73.1515 69.1193 73.1515 69.2153C73.1515 69.3113 73.1995 69.4073 73.1995 69.5033C73.1995 69.5993 73.2475 69.6953 73.2475 69.7913C73.3915 71.1353 75.7915 70.8473 75.6475 69.5033V69.3593Z" fill="#3D3D3D"/>
<path id="Vector_29" d="M81.3595 69.7919C80.9755 69.5999 80.4955 69.7439 80.3035 70.1759C80.3035 70.2239 80.2555 70.2719 80.2555 70.2719C79.9675 71.1359 81.0235 71.4719 81.5035 70.7999C81.7435 70.5119 81.7435 70.0799 81.4555 69.8399C81.4075 69.8399 81.4075 69.7919 81.3595 69.7919Z" fill="#3D3D3D"/>
<path id="Vector_30" d="M76.3679 73.1042C76.2239 74.6882 76.6559 76.3202 77.6159 77.6162C77.8079 77.8562 77.9999 78.0962 78.1919 78.3362C78.2879 78.4322 78.4799 78.6722 78.6239 78.6722C78.9119 78.7202 78.3839 77.8562 78.3359 77.8082L78.2399 77.6162C78.2399 77.5682 78.1439 77.3282 78.1919 77.5202C77.8559 76.7042 77.7599 75.7922 77.8559 74.9282C77.8079 74.7362 77.7599 74.5442 77.6639 74.4002C77.5199 74.1122 77.3279 73.8722 77.1359 73.6322C77.0399 73.4882 76.4159 72.8162 76.3679 73.1042Z" fill="#3D3D3D"/>
<path id="Vector_31" d="M62.9756 152.784C66.5756 145.008 61.1516 132.624 61.1516 132.624C62.2556 131.856 63.2636 130.992 64.2236 130.08C65.6636 128.64 64.6076 126.48 64.6076 126.48C64.6076 126.48 140.16 82.3678 142.08 79.4398C144 76.5118 140.976 72.8638 139.728 72.6718C138.48 72.4798 131.664 77.8078 131.664 77.8078C131.664 77.8078 128.16 70.7038 127.392 70.3198C126.624 69.9358 124.32 70.4158 123.456 71.9038C122.592 73.3918 125.376 80.7358 125.376 80.7358L120.24 83.2798C120.24 83.2798 117.216 78.8158 115.728 77.9518C114.24 77.0878 113.28 77.9518 112.512 78.7198C111.744 79.4878 114.96 86.1118 114.96 86.1118L60.2396 121.2C60.2396 121.2 59.7595 118.896 57.9356 118.8C56.1115 118.704 53.3755 122.928 53.3755 122.928C48.1916 116.16 32.0635 108.48 20.3995 119.328C8.73555 130.176 17.6156 151.344 31.9195 159.696C46.2236 168.048 59.3755 160.56 62.9756 152.784ZM27.9836 149.952C14.1115 135.36 21.8395 118.176 38.2555 120.096C54.6716 122.016 58.1755 142.416 58.1755 142.416C60.8635 155.76 41.8076 164.544 27.9836 149.952Z" fill="#3D3D3D"/>
<path id="Vector_32" d="M64.1277 152.879C65.6157 149.663 65.6157 146.015 65.1357 142.607C64.7037 139.728 63.9837 136.896 62.9757 134.207C62.7837 133.632 62.5437 133.104 62.3037 132.528L62.2077 132.863C62.6877 132.575 63.1197 132.192 63.5517 131.856C64.3197 131.232 65.2797 130.607 65.7597 129.743C66.2877 128.687 66.2877 127.439 65.7597 126.383L65.6637 126.719L68.3997 125.136L75.6477 120.864L86.1117 114.671C90.2877 112.223 94.4157 109.776 98.5437 107.328C102.864 104.784 107.184 102.191 111.504 99.5995C115.584 97.1515 119.664 94.6555 123.744 92.2075C127.152 90.0955 130.608 88.0315 134.016 85.8715C136.32 84.4315 138.624 82.9435 140.88 81.4075C141.504 80.9755 142.08 80.5435 142.656 80.1115C143.904 79.1035 144.096 77.3755 143.616 75.8875C143.232 74.5915 142.368 73.4395 141.264 72.6715C140.208 71.9995 138.864 72.1915 137.808 72.7195C135.696 73.7275 133.824 75.2155 131.952 76.6075C131.52 76.9435 131.04 77.2795 130.608 77.6155L132.816 77.7115C132.24 76.5595 131.664 75.4555 131.088 74.3515C130.608 73.4875 130.176 72.6235 129.648 71.8075C129.36 71.2795 129.024 70.7995 128.64 70.3195C127.872 69.5995 126.288 69.7915 125.376 69.9355C124.272 70.1755 122.976 70.7035 122.352 71.6635C122.064 72.2875 121.968 72.9595 122.112 73.6315C122.256 74.5435 122.448 75.4555 122.736 76.3675C123.168 77.8555 123.648 79.2955 124.176 80.7355L124.32 80.5435L119.184 83.0875L121.392 83.1835C120.72 82.2235 120.048 81.3115 119.328 80.3995C118.272 79.0555 117.12 77.5675 115.392 77.2315C114.144 76.9915 112.896 77.2795 111.936 78.0955C111.504 78.4795 111.216 78.7195 111.264 79.3435C111.36 80.6875 112.032 82.0315 112.512 83.2315C112.944 84.2395 113.376 85.2475 113.856 86.2075L113.952 85.8715L108.528 89.3755L95.5197 97.7275L79.6797 107.903L66.0477 116.639L61.5357 119.52C60.8157 119.951 60.0957 120.383 59.4237 120.911C59.3757 120.911 59.3757 120.959 59.3277 120.959L61.5837 121.151C61.4397 120.383 61.0077 119.663 60.4317 119.135C59.3757 118.223 57.5997 118.128 56.3517 118.704C54.6237 119.472 53.3277 121.295 52.3197 122.831H54.6237C52.6077 120.239 49.7757 118.176 46.8477 116.688C43.1997 114.768 39.1677 113.711 35.0397 113.52C30.6237 113.327 26.2557 114.479 22.5117 116.784C19.1037 118.847 16.5117 121.967 15.0237 125.711C12.3837 132.911 14.7357 141.071 18.5277 147.408C23.1357 155.088 30.6717 161.424 39.5997 163.247C48.0477 164.927 57.8397 162.287 62.9277 154.991C63.3597 154.367 63.7917 153.647 64.1277 152.879C64.4157 152.303 62.0637 152.111 61.8237 152.688C58.6077 159.455 50.5437 163.487 43.1997 162.911C34.5597 162.239 26.9757 156.239 22.1277 149.327C18.0477 143.52 15.2637 135.984 16.5117 128.736C17.8557 121.2 24.5277 115.295 32.0637 114.431C35.6637 114.047 39.2637 114.767 42.5757 116.111C45.6477 117.311 48.4797 119.184 50.8317 121.488C51.3117 121.968 51.7437 122.495 52.1757 123.023C52.5117 123.455 54.1917 123.503 54.4797 123.023C55.2477 121.775 56.1597 120.671 57.2637 119.711C57.4077 119.567 57.5997 119.471 57.7437 119.375L57.9357 119.279L58.0797 119.231C58.1277 119.231 58.1277 119.231 58.0797 119.231C58.0797 119.375 57.3117 118.703 57.5517 119.231C57.5517 119.231 57.6957 119.28 57.7437 119.328C57.9357 119.472 58.1277 119.616 58.2717 119.759C58.6077 120.191 58.8957 120.672 58.9917 121.248C59.1357 121.92 60.8637 121.68 61.2477 121.439L66.7197 117.935L79.7277 109.583L95.5677 99.4075L109.2 90.6715C111.408 89.2315 113.712 87.8875 115.872 86.3995L115.968 86.3515C116.112 86.2555 116.16 86.1595 116.064 86.0155C115.152 84.2395 114.384 82.3195 113.76 80.3995C113.616 79.9675 113.52 79.5355 113.52 79.0555C113.52 78.8635 113.52 78.8635 113.712 78.7195C113.904 78.5755 113.952 78.4795 114.096 78.3355C114.24 78.1915 114.576 78.0955 114.624 77.9995C114.72 77.8075 114.24 78.1435 114.24 77.9995C114.24 77.9995 114.576 78.1435 114.624 78.1915C114.72 78.2395 114.816 78.3355 114.912 78.3835C115.152 78.5755 115.344 78.7675 115.584 79.0075C116.112 79.5355 116.592 80.1115 117.072 80.7355C117.792 81.5995 118.464 82.5115 119.088 83.4715C119.472 83.9995 120.816 83.8075 121.296 83.5675L126.432 81.0235C126.528 80.9755 126.576 80.8795 126.576 80.8315C126.192 79.8235 125.808 78.7675 125.52 77.7115C125.04 76.1755 124.464 74.4475 124.512 72.8155C124.56 72.0475 125.04 71.3755 125.712 71.0875C126.048 70.9435 126.384 70.7995 126.72 70.7515C126.528 70.7995 126.912 70.7995 126.672 70.7515L126.48 70.7035C126.384 70.7035 126.336 70.6075 126.432 70.7515C127.344 71.9515 128.112 73.1995 128.736 74.5435C129.36 75.6955 129.936 76.8475 130.512 78.0475C130.656 78.3355 131.28 78.3355 131.52 78.3355C131.952 78.3835 132.336 78.3355 132.72 78.1435C134.112 77.0395 135.504 76.0315 136.992 75.0235C137.904 74.3515 138.816 73.7755 139.824 73.2955L140.016 73.1995L140.16 73.1515C140.16 73.1515 140.112 73.1515 140.064 73.1515C139.968 73.1515 139.824 73.1515 139.728 73.1995L139.104 73.1035L139.152 73.1515C139.056 73.1035 139.2 73.1515 139.2 73.1995C139.68 73.5355 140.112 73.9195 140.448 74.3995C141.504 75.8395 142.176 78.2875 140.688 79.7275L140.592 79.8235C140.64 79.7755 140.688 79.7755 140.544 79.8715L140.16 80.1595C139.872 80.3995 139.536 80.5915 139.248 80.8315C137.184 82.2715 135.024 83.6155 132.912 84.9595C129.696 86.9755 126.432 88.9915 123.168 91.0075C119.232 93.4075 115.248 95.8075 111.312 98.2075C107.088 100.752 102.864 103.247 98.6397 105.791C94.5117 108.239 90.3837 110.688 86.2557 113.135C82.6557 115.247 79.0557 117.359 75.5037 119.471L67.6317 124.079C66.3837 124.799 65.0877 125.52 63.7917 126.288L63.6477 126.383C63.5037 126.479 63.4557 126.576 63.5517 126.719C63.9837 127.632 64.0797 128.927 63.4557 129.791C62.8317 130.511 62.1597 131.183 61.3437 131.711C60.9597 131.999 60.5757 132.288 60.1917 132.576C60.0477 132.672 59.9997 132.767 60.0957 132.911C60.7197 134.399 61.2477 135.935 61.6797 137.471C62.6397 140.639 63.1197 143.903 63.0717 147.167C63.0717 149.088 62.6397 151.007 61.8717 152.783C61.5837 153.263 63.8877 153.455 64.1277 152.879Z" fill="#3D3D3D"/>
<path id="Vector_33" d="M29.1358 149.856C25.7278 146.256 22.9438 141.792 22.1758 136.8C21.5998 132.96 22.3198 128.976 24.6238 125.808C29.5198 119.184 39.0718 119.088 45.5038 123.36C50.8798 126.912 54.2398 132.96 56.0638 139.008C56.4478 140.256 56.7838 141.552 57.0238 142.848C57.6478 146.448 56.5918 150.096 54.0958 152.784C52.8958 154.08 51.4558 155.136 49.8238 155.856C48.1918 156.576 46.4158 157.008 44.6398 157.104C40.2238 157.296 35.8078 155.424 32.2558 152.736C31.1518 151.824 30.1438 150.864 29.1358 149.856C28.8478 149.52 28.1278 149.52 27.6958 149.568C27.5518 149.568 26.5438 149.76 26.8798 150.096C30.5758 153.936 35.2798 156.816 40.5598 157.68C44.9278 158.352 49.6318 157.776 53.4718 155.472C56.7358 153.552 58.9918 150.336 59.5678 146.592C59.7598 144.576 59.6158 142.56 59.0398 140.64C57.5038 134.592 54.5278 128.496 49.6798 124.464C46.3198 121.68 42.1918 120 37.8238 119.664C33.3118 119.28 28.4638 120.144 24.8638 123.072C21.7918 125.616 19.9198 129.36 19.7278 133.344C19.4398 138.144 21.3598 142.848 24.0958 146.688C24.9598 147.888 25.9198 149.04 26.9278 150.096C27.2638 150.432 27.9838 150.432 28.4158 150.384C28.4158 150.336 29.4238 150.144 29.1358 149.856Z" fill="#3D3D3D"/>
<path id="Vector_34" d="M50.1594 128.928C50.1594 128.928 55.3914 133.008 56.8794 134.832C58.3674 136.656 56.4474 137.808 53.5194 136.464C53.5194 136.464 55.5354 137.904 53.2794 138.816C51.0234 139.728 47.3754 137.76 47.3754 137.76C47.3754 137.76 50.3994 141.504 48.7194 142.224C47.0394 142.944 29.3754 113.712 29.3274 111.792C29.3274 111.792 27.2634 106.272 29.9514 101.568C32.6394 96.8641 38.0154 93.6001 38.0154 93.6001L46.5594 103.968L41.5674 107.664C42.5274 108.24 49.9674 126 49.9674 126L52.6074 126.192" fill="white"/>
<path id="Vector_35" d="M49.0556 129.455C50.6396 130.655 52.1756 131.951 53.6156 133.247C54.4316 133.967 55.4876 134.783 56.0156 135.791C56.1596 136.031 56.2556 136.319 56.2076 136.607C56.2076 136.703 56.1596 136.799 56.1116 136.895C56.1116 136.943 56.0636 136.991 56.0156 136.991C57.1196 136.607 57.4556 136.415 56.9756 136.463C56.0636 136.463 55.1996 136.271 54.3836 135.935C54.0956 135.791 53.3756 136.223 53.1356 136.367C53.0396 136.415 52.1756 136.943 52.2716 136.991C52.6076 137.231 52.8956 137.567 53.0396 137.951C53.0876 138.095 53.0876 138.287 53.0396 138.431C53.0396 138.479 52.9916 138.527 52.9436 138.623C52.8956 138.671 52.8956 138.719 52.8476 138.767L53.5196 138.431C53.3276 138.431 53.1356 138.479 52.9436 138.527C52.7036 138.527 52.4636 138.527 52.1756 138.527C50.8316 138.335 49.5356 137.951 48.3356 137.279C47.9516 137.087 46.0316 138.143 46.1756 138.335C46.7036 138.959 47.1356 139.679 47.5196 140.399C47.8076 140.879 47.9516 141.359 48.0476 141.887C48.0476 142.079 47.9996 142.223 47.9516 142.415C47.5676 144.239 49.2956 141.503 49.5836 141.695C49.5836 141.695 49.5356 141.695 49.4876 141.695C48.7676 141.119 48.0956 140.447 47.5676 139.679C44.9756 136.223 42.5756 132.671 40.3196 129.023C37.7756 124.943 35.2796 120.863 32.9276 116.639C31.7756 114.527 30.5276 112.463 29.9516 110.111C29.5676 108.623 29.4716 107.039 29.5676 105.503C29.7596 103.487 30.4796 101.567 31.6796 99.8871C33.4556 97.4391 35.6636 95.375 38.1596 93.695C38.3996 93.503 38.0636 93.743 38.3516 93.599L38.4476 93.5031L36.7196 94.1271L44.4476 103.199L45.5036 104.447L45.7436 104.159L40.7516 107.855C40.7996 107.807 40.4156 108.095 40.5116 108.143C40.7036 108.335 40.8956 108.527 40.9916 108.767C41.2316 109.199 41.4716 109.679 41.7116 110.159C42.4316 111.599 43.1036 113.087 43.7756 114.575C45.2156 117.791 46.6076 121.007 47.9996 124.271C48.3356 124.991 48.6236 125.759 48.9116 126.479L48.9596 126.527L51.5996 126.719C52.0796 126.671 52.5596 126.527 52.9916 126.239C53.0876 126.191 53.8556 125.663 53.6156 125.615L51.2636 125.423C51.1676 125.423 51.0716 125.423 50.9756 125.423C51.0236 125.423 51.0716 125.471 51.0236 125.423C50.9756 125.327 50.9276 125.231 50.8796 125.087C50.3516 123.887 49.8236 122.639 49.3436 121.439C47.7596 117.695 46.1276 113.951 44.3516 110.255C44.0156 109.535 43.6796 108.815 43.2956 108.095C43.1516 107.711 42.9116 107.423 42.6716 107.135L42.4316 107.423L47.4236 103.727C47.4236 103.727 47.7596 103.487 47.6636 103.439L40.1276 94.271L39.0716 93.0231C38.8316 92.7351 37.5836 93.5031 37.3436 93.6471C35.2796 94.9431 33.4076 96.4791 31.7756 98.2071C30.3356 99.5991 29.1836 101.231 28.3676 103.055C27.6476 104.879 27.3596 106.847 27.5516 108.815C27.6476 110.207 27.9356 111.599 28.4636 112.895C29.0396 114.191 29.6636 115.439 30.3836 116.687C32.7836 121.007 35.3276 125.231 37.9196 129.407C40.3196 133.247 42.7196 137.087 45.5036 140.639C45.8876 141.119 46.3196 141.599 46.7516 142.079C46.9436 142.367 47.2316 142.559 47.5676 142.703C48.0956 142.799 48.7676 142.367 49.1996 142.175C49.7276 141.887 50.2556 141.551 50.3036 140.927C50.3996 139.871 49.4876 138.671 48.9116 137.855C48.7676 137.615 48.5756 137.423 48.4316 137.183L46.2716 138.191C47.8556 139.055 49.8236 139.775 51.6476 139.487C52.4636 139.343 53.2316 139.055 53.9516 138.623C54.4316 138.383 55.1516 137.999 55.3436 137.423C55.5356 136.847 55.0076 136.223 54.5276 135.887L52.4156 136.943C53.9036 137.663 55.6316 137.615 57.0716 136.799C57.5516 136.559 58.1756 136.223 58.3196 135.647C58.4156 135.119 58.2236 134.591 57.8876 134.207C57.2156 133.391 56.4956 132.671 55.6796 131.999C54.7676 131.183 53.8076 130.367 52.8476 129.599C52.3196 129.167 51.7436 128.735 51.2156 128.303C50.9756 128.111 50.2556 128.543 50.0636 128.639C49.9676 128.735 48.9596 129.311 49.0556 129.455Z" fill="#CECECE"/>
<path id="Vector_36" d="M48.3836 135.264L53.1836 137.184L53.8556 137.472C54.2396 137.616 54.8636 137.52 54.7676 136.992C54.6236 136.416 54.1916 135.984 53.6156 135.792L48.8156 133.872L48.1436 133.584C47.7596 133.44 47.1356 133.536 47.2316 134.064C47.3756 134.64 47.8076 135.072 48.3836 135.264Z" fill="#CECECE"/>
<path id="Vector_37" d="M89.3755 113.28C89.3755 113.28 103.247 123.744 110.255 119.76C117.263 115.776 120.959 100.8 120.959 100.8C126.287 98.5915 126.911 95.1355 126.911 95.1355C126.911 95.1355 129.695 95.5675 130.511 91.9675C131.327 88.3675 126.143 84.5755 121.775 84.4315C117.407 84.2875 120.287 88.3195 120.287 88.3195C120.287 88.3195 117.839 86.6875 116.303 87.7435C114.767 88.7995 113.999 90.8155 116.543 92.6395C119.087 94.4635 117.119 96.9115 117.119 96.9115" fill="white"/>
<path id="Vector_38" d="M88.608 113.951C90.288 115.199 92.064 116.351 93.888 117.359C97.104 119.183 100.656 120.863 104.352 121.439C106.176 121.775 108.048 121.679 109.824 121.103C111.456 120.479 112.896 119.423 114.048 118.079C116.688 115.199 118.464 111.551 119.904 107.951C120.816 105.695 121.584 103.391 122.16 101.039L121.632 101.615C123.744 100.799 125.568 99.4075 126.96 97.6315C127.488 96.9595 127.872 96.1915 128.064 95.3275L126.672 95.9515C128.016 96.1915 129.408 95.7115 130.368 94.7515C132.096 92.9275 132.24 90.1915 130.752 88.1755C129.312 85.9675 126.672 84.4795 124.176 83.7595C122.448 83.2795 118.896 82.7515 118.272 85.1035C117.936 86.3035 118.608 87.6955 119.328 88.7035L121.104 87.5995C119.184 86.3035 116.496 85.6795 114.72 87.5995C113.76 88.5115 113.472 89.9035 113.952 91.1035C114.288 91.8235 114.768 92.4475 115.392 92.9755C115.872 93.4075 116.448 93.7435 116.592 94.3675C116.736 95.0875 116.496 95.7595 116.064 96.3355C115.68 96.8155 116.16 97.4395 116.592 97.6795C117.12 97.9675 117.792 97.8715 118.176 97.3915C118.752 96.6715 119.04 95.7595 118.992 94.8475C118.944 94.0795 118.704 93.3595 118.176 92.7835C117.6 92.1115 116.688 91.6795 116.256 90.9115C115.824 89.9995 116.208 88.8475 117.168 88.4155C117.216 88.3675 117.264 88.3675 117.36 88.3675C117.792 88.2715 118.272 88.3195 118.656 88.5115C118.896 88.6075 119.136 88.7035 119.376 88.8475C119.52 88.8955 119.952 89.2315 119.52 88.8955C119.952 89.2315 120.576 89.2795 121.056 89.0395C121.44 88.7995 121.584 88.2715 121.344 87.8875C121.344 87.8395 121.296 87.8395 121.296 87.7915L121.2 87.6475C121.152 87.5995 121.008 87.3115 121.2 87.5995L121.056 87.3115C120.96 87.1195 120.864 86.8795 120.768 86.6875C120.72 86.5915 120.72 86.4955 120.672 86.3995C120.576 86.1595 120.672 86.5435 120.672 86.3995C120.672 86.3035 120.624 86.2555 120.624 86.1595C120.624 86.0635 120.624 85.7275 120.576 85.9675C120.576 85.8715 120.624 85.7275 120.624 85.6315C120.576 85.7275 120.624 85.5835 120.72 85.4875C120.624 85.5835 120.768 85.4875 120.768 85.4395C121.008 85.3435 121.248 85.2955 121.536 85.2955C122.064 85.2955 122.544 85.3435 123.024 85.4395C126.144 86.0635 131.136 89.2315 128.784 92.9755C128.592 93.2635 128.352 93.5515 128.064 93.7435C127.872 93.8875 128.016 93.7915 128.064 93.7435C127.968 93.7915 127.92 93.8395 127.824 93.8875L127.68 94.0795C127.584 94.1275 127.872 94.0315 127.632 94.0795C127.488 94.1275 127.344 94.1275 127.248 94.1755C127.152 94.2235 127.008 94.1755 127.344 94.1755C127.296 94.1755 127.248 94.1755 127.2 94.1755C127.056 94.1755 126.624 94.1275 127.2 94.2235C126.72 94.1275 125.904 94.2235 125.808 94.8475C125.808 94.9435 125.76 94.9915 125.76 95.0875L125.664 95.3275C125.664 95.3755 125.616 95.4235 125.616 95.4715C125.568 95.6155 125.712 95.2795 125.568 95.5195C125.232 96.1915 124.8 96.8155 124.272 97.3915C123.36 98.3035 122.304 99.0235 121.104 99.5995C120.624 99.8395 120 99.9835 119.808 100.559C119.76 100.655 119.76 100.751 119.76 100.799C118.992 103.823 117.936 106.799 116.64 109.631C115.728 111.695 114.576 113.663 113.232 115.487C112.128 116.975 110.688 118.463 109.008 119.183C107.424 119.855 105.504 119.759 103.776 119.375C101.712 118.895 99.744 118.175 97.824 117.263C96.768 116.783 95.7599 116.207 94.7519 115.631C94.2719 115.343 93.84 115.103 93.36 114.815C93.168 114.719 92.9759 114.575 92.8319 114.479L92.5919 114.335L92.448 114.239C91.68 113.711 90.864 113.183 90.096 112.607C89.616 112.223 88.944 112.175 88.416 112.559C88.08 112.895 88.032 113.423 88.368 113.807C88.512 113.855 88.56 113.903 88.608 113.951Z" fill="#CECECE"/>
<path id="Vector_39" d="M119.328 88.3197C119.712 88.5597 120.048 88.8477 120.336 89.1837C120.816 89.6637 121.296 90.1437 121.728 90.6717C122.688 91.7757 123.6 92.8797 124.416 94.0797C124.752 94.5117 124.992 94.9437 125.184 95.4237C125.328 95.7597 127.584 94.9437 127.44 94.6077C127.248 94.1757 127.056 93.7917 126.768 93.4077C126.384 92.8317 125.952 92.2557 125.568 91.7277C124.656 90.5757 123.696 89.4717 122.688 88.4157C122.304 88.0317 121.92 87.6477 121.44 87.3597C121.344 87.3117 120.96 87.3597 120.864 87.4077C120.576 87.4557 120.288 87.5517 120 87.6957C119.904 87.7917 119.04 88.1757 119.328 88.3197Z" fill="#CECECE"/>
<path id="Vector_40" d="M150.576 86.8321L156.192 84.1442L158.928 82.8001C159.312 82.5601 159.744 82.4161 160.128 82.2721C160.32 82.2241 160.512 82.2242 160.656 82.2242C160.608 82.2242 160.992 82.3201 160.848 82.2721C160.752 82.2241 160.848 82.3681 160.848 82.2721C160.896 82.4161 160.944 82.5601 160.992 82.7521C161.088 83.0401 161.136 83.3281 161.232 83.6161C161.472 84.3841 161.952 85.0561 162.624 85.5361C163.392 85.9681 164.304 85.9202 165.024 85.4882C165.936 84.9602 166.8 84.4322 167.616 83.8082L173.52 79.9201C174.288 79.3921 173.136 77.2802 172.416 77.8082L167.184 81.2161C166.32 81.7921 165.456 82.3681 164.64 82.8961C164.256 83.1361 163.872 83.3281 163.44 83.5201C163.248 83.5681 163.056 83.6161 162.864 83.6161C162.912 83.6161 162.48 83.5202 162.672 83.5682C162.672 83.4722 162.768 83.5682 162.672 83.5682C162.624 83.4242 162.576 83.2802 162.528 83.0882C162.432 82.8002 162.384 82.5122 162.288 82.2242C162.048 81.4562 161.568 80.7842 160.896 80.3042C160.176 79.9202 159.264 79.8721 158.544 80.2561C157.584 80.6401 156.672 81.1201 155.76 81.6001L149.424 84.6721C148.656 85.0561 149.712 87.2161 150.576 86.8321Z" fill="#CECECE"/>
<path id="Vector_41" d="M142.368 66.1919C146.064 63.1679 149.472 59.9039 152.64 56.3519C152.976 55.9679 153.264 55.3919 152.784 55.0079C152.256 54.7199 151.632 54.8159 151.2 55.2479C148.032 58.7999 144.624 62.0639 140.928 65.0879C140.544 65.4239 140.304 66.0959 140.784 66.4319C141.264 66.7679 141.984 66.5279 142.368 66.1919Z" fill="#CECECE"/>
<path id="Vector_42" d="M153.12 71.4715L158.016 70.0315C158.304 69.9835 158.592 69.7915 158.784 69.5995C158.976 69.4075 159.024 69.1675 158.976 68.8795C158.736 68.3515 158.16 68.0635 157.584 68.2555L152.688 69.6955C152.4 69.7435 152.112 69.9355 151.92 70.1275C151.728 70.3195 151.68 70.5595 151.728 70.8475C151.968 71.3755 152.544 71.6635 153.12 71.4715Z" fill="#CECECE"/>
</g>
<g id="password">
<path id="Vector_43" d="M148.799 197.19L147.827 210.402L223.941 216.005L224.913 202.793L148.799 197.19Z" fill="white"/>
<path id="Vector_44" d="M224.448 215.376L216.816 214.8L198.672 213.456L176.736 211.824L157.68 210.432L151.44 209.952C150.48 209.904 149.472 209.712 148.464 209.712H148.32L148.992 210.288L149.856 198.72L149.952 197.088L148.32 197.808L155.952 198.384L174.096 199.728L196.032 201.36L215.088 202.752L221.328 203.232C222.288 203.28 223.296 203.472 224.304 203.472C224.352 203.472 224.4 203.472 224.448 203.472L223.776 202.896L222.912 214.464L222.816 216.096C222.768 217.056 225.072 216.72 225.168 215.904L226.032 204.336L226.128 202.704C226.176 202.32 225.792 202.176 225.456 202.128L217.824 201.552L199.68 200.208L177.744 198.576L158.64 197.184C155.568 196.944 152.496 196.704 149.424 196.512H149.28C148.896 196.464 147.648 196.656 147.648 197.232L146.784 208.8L146.688 210.432C146.64 210.816 147.024 210.96 147.36 211.008L154.992 211.584L173.136 212.928L195.072 214.512L214.128 215.952C217.2 216.192 220.272 216.432 223.344 216.624H223.488C223.968 216.672 224.736 216.528 225.024 216.048C225.312 215.568 224.88 215.424 224.448 215.376Z" fill="#3D3D3D"/>
<path id="Vector_45" d="M205.267 201.12L204.338 214.384L225.312 215.852L226.24 202.588L205.267 201.12Z" fill="#3D3D3D"/>
<path id="Vector_46" d="M224.208 216.288H223.968L202.8 214.752L203.808 201.024H204.048L225.216 202.608L224.208 216.288ZM203.28 214.272L223.728 215.76L224.688 202.992L204.24 201.504L203.28 214.272Z" fill="#3D3D3D"/>
<path id="Vector_47" d="M215.712 206.304C215.712 206.304 213.312 205.968 213.216 208.32C213.12 210.672 215.952 210.768 216.672 208.848C217.392 206.928 215.712 206.304 215.712 206.304Z" fill="#CECECE"/>
<path id="Vector_48" d="M210.912 208.224C212.16 207.072 213.744 206.448 215.424 206.352C216.624 206.352 217.92 207.504 218.688 208.32C218.976 208.608 219.744 208.656 220.128 208.752C220.224 208.752 221.136 208.848 220.992 208.704C219.36 206.928 217.056 206.064 214.656 205.824C212.448 205.584 210.192 206.256 208.56 207.744C208.944 207.936 209.328 208.032 209.712 208.176C210 208.224 210.672 208.464 210.912 208.224Z" fill="#CECECE"/>
<path id="Vector_49" d="M156.528 206.544C158.496 206.112 160.368 205.44 162.096 204.432C162.576 204.192 161.424 202.944 161.232 202.8C160.704 202.32 159.888 202.032 159.312 202.56C158.64 203.184 158.928 204.288 159.312 205.008C160.176 206.64 161.856 207.84 163.728 207.648C164.688 207.504 165.648 207.168 166.464 206.64C167.136 206.256 168.096 205.776 168.048 204.864C167.952 203.856 167.328 202.992 166.416 202.512C165.6 202.176 164.976 202.944 164.976 203.712C164.976 204.72 165.6 205.68 166.224 206.352C166.848 207.072 167.76 207.552 168.672 207.696C169.632 207.792 170.592 207.696 171.552 207.456C172.368 207.264 173.424 207.072 174.096 206.544C174.768 206.016 174.576 205.152 174.144 204.432C173.856 203.952 172.752 202.656 172.128 203.376C171.552 204 172.272 205.152 172.608 205.68C173.136 206.496 173.904 207.216 174.768 207.648C176.592 208.608 179.04 208.128 180.624 206.928C181.344 206.448 181.68 205.584 181.536 204.72C181.296 203.616 180.528 202.656 179.472 202.224C179.328 202.176 179.232 202.176 179.136 202.32C178.608 203.856 179.472 205.488 180.48 206.592C181.584 207.888 183.12 208.512 184.656 209.088C185.136 209.28 184.944 208.608 184.848 208.416C184.608 207.888 184.224 207.456 183.744 207.216C182.784 206.928 181.872 206.544 181.056 205.968C180.48 205.488 180.528 204.624 180.768 204L180.432 204.096C180.816 204.24 180.624 204 179.952 203.424C179.952 203.52 179.952 203.568 179.952 203.664C179.952 203.856 179.904 204 179.856 204.192C179.712 204.528 179.472 204.816 179.184 205.008C178.512 205.536 177.744 205.872 176.928 206.064C176.112 206.304 175.248 206.304 174.432 206.064C174.096 205.968 173.76 205.824 173.52 205.584C173.52 205.392 173.568 205.344 173.616 205.2C173.904 205.104 173.808 204.912 173.328 204.624C173.088 204.048 172.944 203.904 172.944 204.192C172.848 204.288 172.8 204.48 172.656 204.576C172.368 204.816 172.032 204.96 171.696 205.056C170.832 205.344 169.92 205.584 169.008 205.68C168.576 205.728 168.144 205.776 167.712 205.728C167.472 205.728 167.232 205.68 166.992 205.632C166.848 205.536 166.656 205.488 166.512 205.392C166.224 205.344 166.656 205.488 166.608 205.488C166.56 205.488 166.608 205.008 166.608 205.008C166.656 204.816 166.752 204.672 166.848 204.528C166.944 204.432 166.992 204.384 167.088 204.336C167.328 204.336 167.328 204.288 167.136 204.24L166.464 203.52C166.176 203.088 166.416 203.232 166.272 203.52C166.176 203.712 166.032 203.856 165.84 204C165.504 204.24 165.216 204.432 164.832 204.624C164.016 205.152 163.056 205.488 162.096 205.584C161.712 205.632 161.328 205.584 160.992 205.488C160.848 205.44 160.656 205.392 160.512 205.296C160.416 205.248 160.32 205.2 160.272 205.152C160.176 205.056 160.176 205.104 160.272 205.2C160.272 205.296 160.32 205.344 160.368 205.296C160.368 205.152 160.368 205.056 160.368 204.912C160.368 204.72 160.464 204.528 160.608 204.384C160.704 204.288 160.8 204.192 160.944 204.144C161.088 204.096 161.424 204.144 161.328 204.048L160.512 202.464C158.832 203.424 157.056 204.096 155.184 204.48C154.656 204.72 155.904 206.688 156.528 206.544Z" fill="#CECECE"/>
</g>
</g>
</svg>
