<svg width="240" height="240" viewBox="0 0 240 240" fill="none" xmlns="http://www.w3.org/2000/svg">
<g id="Newsletter 1">
<g id="device">
<path id="Vector" d="M20.544 52.0799H153.696C156.768 52.0319 159.312 54.4319 159.408 57.5039V146.928C159.312 150 156.768 152.448 153.696 152.352H20.544C17.472 152.4 14.928 150 14.832 146.928V57.5039C14.928 54.4319 17.472 51.9839 20.544 52.0799Z" fill="white"/>
<path id="Vector_2" d="M21.1202 52.944H152.304C154.032 52.944 155.808 52.8 157.152 54.096C158.64 55.584 158.352 57.936 158.352 59.904V141.744C158.352 143.328 158.4 144.912 158.352 146.544C158.304 149.424 155.856 151.488 153.072 151.488H20.2562C18.9122 151.536 17.6642 151.008 16.7522 150.048C15.9842 149.088 15.7922 147.936 15.7922 146.736V59.328C15.7922 58.848 15.7922 58.416 15.7922 57.936C15.8402 55.056 18.2882 52.992 21.1202 52.944C21.6482 52.944 21.5042 52.272 21.3122 51.984C21.0242 51.504 20.4962 51.216 19.9202 51.168C16.6082 51.168 13.8722 53.808 13.8242 57.168C13.8242 57.6 13.8242 58.08 13.8242 58.512V146.16C13.8242 150.24 17.2802 153.216 21.2162 153.216H153.552C153.888 153.216 154.272 153.216 154.608 153.216C157.776 153.024 160.272 150.432 160.32 147.216C160.32 145.68 160.32 144.096 160.32 142.56V58.176C160.368 56.4 159.648 54.624 158.352 53.376C156.912 51.936 154.896 51.12 152.832 51.168H19.8722C19.2962 51.168 19.4402 51.84 19.6322 52.128C20.0162 52.656 20.5442 52.944 21.1202 52.944Z" fill="#3D3D3D"/>
<path id="Vector_3" d="M74.4962 152.016L62.4482 171.264H96.9122L108.816 152.016H74.4962Z" fill="white"/>
<path id="Vector_4" d="M73.4887 151.488L69.4087 158.016L62.9287 168.336L61.4407 170.736C61.2487 171.072 61.5367 171.456 61.7767 171.696C62.1127 171.984 62.5447 172.128 62.9767 172.128H94.2247C95.2327 172.128 96.3367 172.224 97.3447 172.128C97.7767 172.08 97.9207 171.84 98.1607 171.504L99.1687 169.824L102.913 163.728L107.137 156.864C108.001 155.472 108.865 154.128 109.681 152.736C109.729 152.688 109.777 152.592 109.825 152.544C110.017 152.208 109.729 151.824 109.537 151.584C109.201 151.296 108.769 151.152 108.337 151.152H74.0167C73.6807 151.152 73.3927 151.44 73.4407 151.776C73.4407 151.872 73.4887 152.016 73.5367 152.112C73.8247 152.592 74.4007 152.88 74.9767 152.832H109.297L107.809 151.44L103.777 157.968L97.3927 168.288L95.9047 170.688L96.4327 170.352H61.9687L63.4567 171.744L67.5367 165.216L74.0167 154.896L75.5047 152.496C76.0807 151.68 74.0167 150.576 73.4887 151.488Z" fill="#3D3D3D"/>
<path id="Vector_5" d="M72.7686 152.016C72.7686 152.016 58.6566 172.32 58.8486 173.04C59.0406 173.76 76.6566 173.04 76.6566 173.04V171.216H62.4486L74.4966 151.968H72.7686V152.016Z" fill="white"/>
<path id="Vector_6" d="M71.9041 151.2C70.6081 153.024 69.3601 154.848 68.1121 156.672C65.8081 160.032 63.5041 163.44 61.2481 166.848C60.3841 168.144 59.5681 169.44 58.7521 170.736C58.3201 171.456 57.5521 172.32 58.0801 173.184C58.8001 174.336 60.4801 174.192 61.6801 174.24C63.5521 174.288 65.4721 174.288 67.3441 174.24C70.5601 174.192 73.7761 174.192 76.9441 173.952H77.1361C77.4241 173.952 77.6161 173.76 77.6161 173.472C77.6161 173.472 77.6161 173.472 77.6161 173.424V171.6C77.5201 170.88 76.9441 170.304 76.1761 170.208H61.9681L63.2641 171.936L67.3441 165.408L73.8241 155.088L75.3121 152.688C75.7921 151.968 74.7361 150.96 74.0161 150.96H72.2401C71.7121 150.96 71.7121 151.584 71.9041 151.92C72.1441 152.448 72.6241 152.784 73.2001 152.832H74.9761L73.6801 151.104L69.6001 157.632L63.1201 167.952L61.6321 170.352C61.1521 171.12 62.2081 172.08 62.9281 172.08H77.1361L75.6961 170.688V172.512L76.1761 172.032C73.5841 172.128 70.9921 172.224 68.4001 172.272C66.4321 172.32 64.4641 172.368 62.4961 172.32C61.7281 172.32 60.9601 172.32 60.1921 172.272C59.9041 172.272 59.6161 172.224 59.3281 172.224H59.1361C59.0881 172.224 59.3281 172.272 59.1361 172.224L58.8481 172.176C58.7521 172.176 58.6081 172.08 58.8001 172.176C59.2321 172.464 59.5681 172.896 59.7601 173.376C59.8081 173.616 59.7121 173.52 59.8081 173.328C59.9521 172.992 60.1441 172.656 60.3361 172.32L60.3841 172.272L60.4801 172.08C60.5761 171.936 60.6241 171.84 60.7201 171.696L61.2481 170.832C61.6801 170.16 62.1121 169.488 62.5441 168.816C64.7041 165.504 66.9121 162.288 69.1201 159.024C70.5601 156.96 72.0001 154.896 73.3921 152.832L73.4401 152.736C74.1121 152.016 72.4321 150.48 71.9041 151.2Z" fill="#3D3D3D"/>
<path id="Vector_7" d="M112.416 171.264H76.6562V173.088H112.416V171.264Z" fill="white"/>
<path id="Vector_8" d="M112.032 170.592H76.2718C75.9358 170.592 75.5518 170.64 75.5518 171.024V172.848C75.5518 173.376 76.7038 173.712 77.0398 173.712H112.8C113.136 173.712 113.52 173.664 113.52 173.28V171.456C113.52 170.736 111.312 170.16 111.312 171.024V172.848L112.032 172.416H76.2718L77.7598 173.28V171.456L77.0398 171.888H112.8C113.184 171.888 113.664 171.744 113.424 171.312C113.184 170.88 112.464 170.592 112.032 170.592Z" fill="#3D3D3D"/>
<path id="Vector_9" d="M23.6641 52.6072H156.816C159.888 52.5592 162.432 54.9592 162.528 58.0312V147.455C162.432 150.527 159.888 152.975 156.816 152.879H23.6641C20.5921 152.975 18.0481 150.527 17.9521 147.455V58.0312C18.0481 54.9592 20.5921 52.5112 23.6641 52.6072Z" fill="white"/>
<path id="Vector_10" d="M24.3836 53.4713H155.616C157.44 53.4713 159.552 53.2793 160.944 54.6233C161.472 55.1033 161.712 56.3993 161.712 57.2633V141.935C161.712 143.471 161.712 145.055 161.712 146.591C161.616 149.615 159.12 152.015 156.096 151.967H22.9916C22.5596 151.967 22.1276 151.919 21.6956 151.823C20.8796 151.679 20.1596 151.295 19.5356 150.767C18.8156 149.903 18.7676 148.703 18.7676 147.599V60.1913C18.7676 59.7593 18.7676 59.2793 18.7676 58.8473C18.8636 55.8713 21.3596 53.4713 24.3836 53.4713C24.6716 53.4713 24.0956 52.7513 24.0476 52.6553C23.8556 52.4153 23.3276 51.6953 22.9916 51.6953C19.8716 51.7433 17.2316 54.0473 17.1836 57.2633C17.1836 57.7433 17.1836 58.2233 17.1836 58.6553V146.303C17.1836 150.143 20.6876 153.743 24.5276 153.743H156.864C157.2 153.743 157.584 153.743 157.92 153.743C160.896 153.599 163.248 151.151 163.296 148.175C163.296 146.591 163.296 145.007 163.296 143.375V59.1353C163.296 57.1193 162.384 55.4393 160.992 53.9993C159.696 52.5593 157.872 51.7433 155.904 51.6953H22.9436C22.6556 51.6953 23.1836 52.4153 23.2796 52.5113C23.4716 52.7513 23.9996 53.4713 24.3836 53.4713Z" fill="#3D3D3D"/>
<path id="Vector_11" d="M23.6641 51.4548H156.816C159.888 51.4068 162.432 53.8068 162.528 56.8788V131.759H17.9521V56.8788C18.0481 53.8068 20.5921 51.4068 23.6641 51.4548Z" fill="#3D3D3D"/>
<path id="Vector_12" d="M24.0963 52.3194H155.424C156.768 52.3194 158.16 52.1754 159.36 52.8954C161.616 54.2394 161.376 56.5914 161.376 58.7994V131.375L162 130.895H23.4243C21.5523 130.895 19.6803 130.847 17.8083 130.895H17.5683L19.0563 132.143V58.4154C19.0563 58.0794 19.0563 57.7434 19.0563 57.3594C19.0083 55.8714 19.6803 54.4794 20.7843 53.5194C21.6963 52.7514 22.8963 52.3194 24.0963 52.3194C24.4323 52.3674 24.7203 52.0794 24.7203 51.7434C24.7203 51.5994 24.6723 51.5034 24.6243 51.4074C24.3363 50.8794 23.8083 50.5914 23.2323 50.5914C19.7763 50.5434 16.9443 53.2794 16.8963 56.7354C16.8963 56.7834 16.8963 56.7834 16.8963 56.8314V121.055C16.8963 124.463 16.8483 127.871 16.8963 131.279V131.423C16.8963 132.191 17.7123 132.671 18.3843 132.671H157.056C158.928 132.671 160.8 132.719 162.672 132.671H162.912C163.152 132.671 163.536 132.479 163.536 132.191V62.8314C163.536 61.0554 163.536 59.2794 163.536 57.4554C163.536 53.3754 160.032 50.5914 156.144 50.5914H23.2323C22.8963 50.5914 22.6083 50.8314 22.6083 51.2154C22.6083 51.3594 22.6563 51.4554 22.7043 51.5514C22.9923 52.0314 23.5203 52.3194 24.0963 52.3194Z" fill="#3D3D3D"/>
<path id="Vector_13" d="M90.3841 145.344C92.0011 145.344 93.3121 144.076 93.3121 142.512C93.3121 140.948 92.0011 139.68 90.3841 139.68C88.767 139.68 87.4561 140.948 87.4561 142.512C87.4561 144.076 88.767 145.344 90.3841 145.344Z" fill="white"/>
<path id="Vector_14" d="M90.6717 140.063C90.7197 140.063 91.0077 140.063 90.6717 140.063C90.3837 140.015 90.9117 140.111 90.6717 140.063C90.8157 140.111 90.7197 140.063 90.6717 140.063L90.8637 140.159C91.0077 140.207 90.7197 140.063 90.9117 140.207C91.0557 140.303 91.1517 140.351 91.2957 140.447C91.6797 140.783 91.9197 141.167 92.0637 141.647C92.3517 142.655 92.0157 143.807 91.1997 144.479C91.0557 144.623 90.8637 144.719 90.6717 144.815C90.5277 144.863 90.4317 144.911 90.2877 144.959C90.0477 145.007 90.3837 144.959 90.1437 145.007C90.0957 145.007 89.8557 145.055 90.0477 145.007C90.0477 145.007 89.7597 145.007 89.9517 145.007H90.0477C89.8557 145.007 90.0957 145.007 90.0957 145.007C89.8077 144.959 90.3357 145.055 90.0477 145.007C89.9037 144.959 89.9997 145.007 90.0477 145.007L89.8557 144.911H89.8077L89.6157 144.767C88.4637 143.951 88.1757 142.319 89.0397 141.119C89.1837 140.927 89.3277 140.735 89.5197 140.591C89.7117 140.399 89.9517 140.303 90.1917 140.159C90.2877 140.111 90.4317 140.063 90.5277 140.063L90.6717 140.015C90.4797 140.063 90.8157 140.015 90.8637 140.015C91.0557 140.015 91.7277 139.871 91.3437 139.583C90.8637 139.343 90.3357 139.247 89.8077 139.295C88.3677 139.295 86.9277 140.015 86.4477 141.407C86.0157 142.703 86.5437 144.095 87.6957 144.815C88.5117 145.295 89.4717 145.583 90.4797 145.583C91.2957 145.631 92.0637 145.487 92.8317 145.151C94.0797 144.575 94.7037 143.183 94.4157 141.839C93.9357 139.967 91.9197 139.247 90.1437 139.247C89.9997 139.247 89.1357 139.247 89.2797 139.583C89.3277 139.727 89.6637 139.823 89.7597 139.823C90.0477 139.967 90.3357 140.015 90.6717 140.063Z" fill="#3D3D3D"/>
<path id="Vector_15" d="M156.528 57.167H23.6641V126.383H156.528V57.167Z" fill="white"/>
<path id="Vector_16" d="M24.0486 57.7915H151.537C153.265 57.7915 154.993 57.8395 156.721 57.7915H156.961L155.473 56.9275V125.087C155.425 125.375 155.425 125.711 155.473 125.999C155.473 126.047 155.473 126.095 155.473 126.095L156.193 125.663H28.6566C26.9286 125.663 25.2006 125.615 23.4726 125.663H23.2326L24.7206 126.527V60.1915C24.7686 59.2795 24.7686 58.4155 24.7206 57.5035V57.4075C24.7206 56.6875 22.5126 56.0635 22.5126 56.9755V123.359C22.4646 124.271 22.4646 125.135 22.5126 126.047C22.5126 126.095 22.5126 126.143 22.5126 126.143C22.5126 126.671 23.6166 127.007 24.0006 127.007H156.865C157.153 127.007 157.585 126.959 157.585 126.576V60.1915C157.633 59.2795 157.633 58.4155 157.585 57.5035C157.585 57.4555 157.585 57.4075 157.585 57.4075C157.585 56.8795 156.433 56.5435 156.097 56.5435H23.4726C23.3766 56.5435 23.3286 56.5435 23.2326 56.5435C22.8486 56.5435 22.3686 56.6395 22.6086 57.1195C22.8486 57.5995 23.6166 57.7915 24.0486 57.7915Z" fill="#3D3D3D"/>
<path id="Vector_17" d="M33.6967 66.4798C34.6511 66.4798 35.4248 65.7492 35.4248 64.8478C35.4248 63.9465 34.6511 63.2158 33.6967 63.2158C32.7424 63.2158 31.9688 63.9465 31.9688 64.8478C31.9688 65.7492 32.7424 66.4798 33.6967 66.4798Z" fill="#CECECE"/>
<path id="Vector_18" d="M39.936 66.3831C40.8904 66.3831 41.664 65.6525 41.664 64.7511C41.664 63.8498 40.8904 63.1191 39.936 63.1191C38.9817 63.1191 38.208 63.8498 38.208 64.7511C38.208 65.6525 38.9817 66.3831 39.936 66.3831Z" fill="#CECECE"/>
<path id="Vector_19" d="M46.2241 66.4798C47.1784 66.4798 47.9521 65.7492 47.9521 64.8478C47.9521 63.9465 47.1784 63.2158 46.2241 63.2158C45.2697 63.2158 44.4961 63.9465 44.4961 64.8478C44.4961 65.7492 45.2697 66.4798 46.2241 66.4798Z" fill="#CECECE"/>
</g>
<g id="news">
<g id="newspaper">
<path id="Vector_20" d="M117.265 165.263L148.609 159.167C148.609 159.167 146.545 151.343 138.817 153.071C128.161 155.423 117.265 165.263 117.265 165.263Z" fill="#CECECE"/>
<path id="Vector_21" d="M117.168 166.128L127.776 164.064L144.624 160.8L148.464 160.032C148.992 159.936 149.856 159.552 149.664 158.832C148.656 154.944 145.2 151.968 141.12 151.968C139.2 152.064 137.328 152.448 135.552 153.12C133.68 153.792 131.808 154.56 130.032 155.472C126.816 157.152 123.744 159.072 120.816 161.232C119.328 162.336 117.792 163.488 116.4 164.736C116.016 165.072 115.824 165.6 116.304 165.936C116.832 166.224 117.504 166.128 117.984 165.744C121.392 162.72 125.136 160.08 129.12 157.824C132.24 156.096 135.648 154.416 139.152 153.744C141.456 153.264 143.904 154.032 145.44 155.856C145.776 156.24 146.112 156.672 146.4 157.152L146.592 157.488L146.64 157.584C146.784 157.824 146.592 157.488 146.64 157.632C146.688 157.776 146.832 158.016 146.928 158.208C147.12 158.592 147.264 159.024 147.408 159.456L148.608 158.256L138 160.32L121.152 163.584L117.312 164.352C116.784 164.448 116.112 164.736 116.064 165.36C116.016 165.984 116.736 166.224 117.168 166.128Z" fill="#CECECE"/>
<path id="Vector_22" d="M225.168 161.471C225.168 161.471 214.704 160.031 212.256 153.167C209.808 146.303 220.272 135.407 208.56 136.607C196.848 137.807 165.12 158.351 169.44 117.263C173.856 75.5514 164.88 40.0314 152.208 37.9194C139.536 35.8074 57.1201 38.7834 57.1201 38.7834C124.128 37.5354 86.1601 152.783 107.952 164.255C120.672 170.975 128.16 153.839 138.768 153.071C138.768 153.071 146.928 152.543 144.384 159.167C141.84 165.791 143.664 169.247 152.208 172.079L225.168 161.471Z" fill="white"/>
<path id="Vector_23" d="M225.648 160.799C224.352 160.607 223.056 160.271 221.808 159.839C219.36 158.975 216.864 157.727 215.136 155.759C213.312 153.695 212.736 151.295 213.216 148.607C213.648 146.159 214.56 143.903 215.136 141.503C215.52 139.823 215.712 137.663 214.032 136.655C212.16 135.503 209.424 135.791 207.36 136.175C204.192 136.751 201.072 137.855 198 138.863C194.4 140.063 191.04 141.119 187.344 141.743C184.176 142.271 180.912 142.511 177.84 141.311C174.624 140.063 172.512 137.087 171.456 133.823C169.488 127.727 170.256 121.151 170.832 114.863C172.416 98.1115 172.272 80.8795 168.768 64.3675C167.52 58.5115 165.888 52.7035 163.2 47.3275C161.472 43.8715 159.072 40.1275 155.52 38.2555C153.216 37.0555 150.528 37.0075 147.984 36.8635C144.336 36.6715 140.64 36.5755 136.992 36.5755C126.864 36.4795 116.688 36.6235 106.56 36.8155C96.3363 37.0075 86.1123 37.2475 75.8883 37.5835C69.9843 37.7755 64.0803 37.9675 58.1763 38.1595L57.3123 38.2075C56.8803 38.2075 56.0643 38.3995 55.9683 38.9275C55.8723 39.4555 56.5443 39.5995 56.9283 39.5515C62.2083 39.4555 67.5363 40.1275 72.5283 41.9995C76.7043 43.5835 80.4963 46.0795 83.6163 49.2955C86.7363 52.6075 89.2803 56.3995 91.1043 60.5275C93.0723 64.9915 94.5603 69.6475 95.5683 74.4475C96.6723 79.6315 97.4403 84.9115 97.8723 90.2395C98.3523 95.7115 98.5923 101.231 98.6883 106.751C98.7843 112.175 98.7843 117.599 98.8323 122.975C98.8323 127.967 98.8323 132.959 99.0243 137.903C99.1203 142.127 99.4563 146.303 100.032 150.479C100.512 153.695 101.232 156.959 102.672 159.935C103.968 162.719 106.32 164.831 109.2 165.791C112.464 166.895 116.064 166.751 119.232 165.359C122.4 164.015 125.088 161.903 127.776 159.839C130.272 157.871 132.816 155.711 135.84 154.559C136.8 154.175 137.808 153.935 138.816 153.839H139.392C139.632 153.839 139.248 153.839 139.488 153.839C139.968 153.887 140.448 153.935 140.928 154.031C141.888 154.175 142.704 154.703 143.328 155.423C144.24 156.671 143.712 158.255 143.232 159.599C142.224 162.383 141.648 165.647 143.616 168.191C144.672 169.439 145.968 170.447 147.456 171.119C148.416 171.599 149.376 172.031 150.384 172.367C151.008 172.655 151.728 172.847 152.4 172.799C152.976 172.751 153.552 172.655 154.128 172.559L164.4 171.071L180.528 168.719L198.48 166.127L214.32 163.823L224.016 162.431L225.36 162.239C225.744 162.191 226.512 161.855 226.416 161.375C226.32 160.895 225.456 160.895 225.12 160.943L217.872 161.999L200.448 164.495L179.424 167.519L161.136 170.159L155.136 171.023C154.176 171.167 153.216 171.263 152.304 171.455H152.16L153.024 171.503C150.528 170.687 147.744 169.679 145.968 167.615C144.672 166.079 144.384 164.159 144.72 162.191C145.104 160.031 146.688 157.679 145.872 155.471C145.296 153.887 143.712 153.071 142.176 152.735C133.728 150.767 127.392 158.735 121.008 162.767C119.184 163.919 117.216 164.927 115.008 165.167C112.8 165.359 110.592 164.831 108.72 163.727C107.28 162.911 106.128 161.711 105.36 160.223C103.056 156.287 102.384 151.295 101.904 146.735C101.232 140.255 101.184 133.727 101.136 127.199C101.088 119.615 101.136 112.079 100.944 104.495C100.8 96.7675 100.224 89.0395 99.2163 81.4075C98.2083 74.4475 96.6243 67.4395 93.8403 60.9595C91.2963 55.0555 87.6483 49.6315 82.6083 45.5995C77.1363 41.2315 70.3203 39.0235 63.4083 38.3995C61.3923 38.2075 59.3283 38.1595 57.3123 38.2075L56.9283 39.5515C61.1523 39.4075 65.3283 39.2635 69.5043 39.1195C79.1043 38.7835 88.7523 38.5435 98.3523 38.3035C108.864 38.0635 119.424 37.8715 129.984 37.8715C134.208 37.8715 138.432 37.8715 142.704 38.0155C145.44 38.0155 148.176 38.2075 150.864 38.4955C152.064 38.5915 153.264 39.0235 154.272 39.6475C155.808 40.6555 157.104 41.9035 158.16 43.3915C161.232 47.5675 163.104 52.6075 164.592 57.5515C166.56 64.4635 167.856 71.5195 168.48 78.6235C169.344 87.2635 169.536 95.9515 169.152 104.591C168.96 109.295 168.48 113.951 168.096 118.655C167.76 121.967 167.712 125.279 168 128.591C168.384 132.671 169.44 137.183 172.56 140.159C177.984 145.343 186.528 143.615 193.008 141.839C196.512 140.879 199.92 139.679 203.376 138.623C204.144 138.383 204.912 138.143 205.68 137.951L205.968 137.903L206.448 137.807C206.784 137.711 207.12 137.663 207.456 137.615C207.792 137.567 208.032 137.519 208.368 137.471C208.8 137.423 208.224 137.471 208.656 137.423C209.088 137.375 209.664 137.327 210.192 137.375C211.008 137.375 212.016 137.471 212.592 138.143C213.792 139.487 212.832 142.031 212.4 143.471C211.68 145.871 210.864 148.271 210.768 150.767C210.576 156.431 216.144 159.839 220.944 161.375C222.192 161.807 223.488 162.095 224.784 162.287C225.264 162.335 226.08 162.239 226.368 161.759C226.656 161.279 226.08 160.847 225.648 160.799Z" fill="#CECECE"/>
<path id="Vector_24" d="M42.3364 50.736C42.3364 50.736 40.0324 43.584 57.1204 38.784C73.8724 34.08 86.2084 50.448 86.2084 50.448" fill="#CECECE"/>
<path id="Vector_25" d="M43.4885 50.5921C43.1525 49.5361 43.4885 48.3841 43.9685 47.4241C45.5045 44.1601 49.2485 42.2401 52.4645 40.9441C55.2485 39.7921 58.2725 38.8321 61.2965 38.5441C63.7445 38.3521 66.2405 38.5921 68.6405 39.2641C72.8645 40.5121 76.7525 42.6721 80.0165 45.6001C81.2165 46.6081 82.3685 47.7121 83.4725 48.8641C84.0005 49.4401 84.4805 50.0641 85.0085 50.6401L85.0565 50.7361C85.4885 51.3121 87.7445 50.7361 87.3125 50.1601C86.0165 48.5281 84.5765 46.9921 82.9925 45.6001C79.6325 42.5281 75.6485 40.1761 71.3285 38.6881C68.7365 37.8241 66.0005 37.3921 63.2645 37.4401C59.9045 37.4881 56.7365 38.3041 53.5685 39.3601C49.4405 40.7521 44.6885 42.8161 42.1445 46.5601C41.5685 47.4241 41.1845 48.4321 41.0405 49.4401C40.9445 49.9201 40.9445 50.4001 41.0885 50.8801V50.9281C41.3765 51.6961 43.7285 51.2161 43.4885 50.5921Z" fill="#CECECE"/>
<path id="Vector_26" d="M161.136 65.1348C161.136 65.1348 141.552 65.3748 139.536 65.1348C139.536 65.1348 140.544 84.0948 141.12 84.0948C141.696 84.0948 160.704 83.5668 162.48 82.9428C164.256 82.3188 161.136 65.1348 161.136 65.1348Z" fill="#CECECE"/>
<path id="Vector_27" d="M160.561 64.8959C154.609 64.9439 148.609 65.0399 142.657 64.9919H141.457H141.073H140.641H139.873C139.777 64.9919 139.345 64.9439 139.825 64.9919C139.681 64.9919 139.345 64.9439 139.873 64.9919C139.825 64.9919 138.337 64.7999 138.337 65.0399C138.577 68.9279 138.817 72.8639 139.057 76.7519C139.201 78.8639 139.345 81.0239 139.681 83.1359C139.681 83.3759 139.729 83.6159 139.825 83.8079C139.969 84.1919 140.401 84.1919 140.785 84.2399C141.457 84.2879 142.081 84.3359 142.753 84.2879C147.841 84.1439 152.977 83.9999 158.065 83.6639C159.169 83.6159 160.273 83.5199 161.425 83.4239C162.097 83.3759 162.817 83.2799 163.489 83.1359C164.017 82.9919 164.113 82.4639 164.209 81.9839C164.305 81.0239 164.353 80.0639 164.257 79.0559C163.921 74.4959 163.345 69.9839 162.433 65.4719C162.433 65.3759 162.385 65.2799 162.385 65.1839C162.289 64.7519 159.985 64.8959 159.985 64.9919C160.705 68.8319 161.281 72.7199 161.665 76.6079C161.761 77.7599 161.857 78.9119 161.905 80.0639C161.953 80.8319 161.905 81.5999 161.713 82.3199C161.665 82.4639 161.569 82.6079 161.425 82.7039C161.329 82.7519 161.521 82.7039 161.377 82.7039L161.233 82.7519L160.849 82.7999C160.225 82.8959 159.265 82.9919 158.449 83.0399C153.361 83.4239 148.273 83.5679 143.137 83.7119C142.417 83.7119 141.697 83.7599 141.025 83.7599C140.881 83.7599 140.737 83.7599 140.641 83.7599C139.825 83.8079 142.321 83.8559 142.369 84.0479C142.369 83.9999 142.369 83.9999 142.321 83.9999C142.273 83.9999 142.273 83.8079 142.273 83.7119C141.937 81.9359 141.745 80.1119 141.649 78.3359C141.313 74.0159 141.025 69.6959 140.785 65.3759V65.0879L139.201 65.2799C140.401 65.3759 141.649 65.4239 142.897 65.4239C144.625 65.4239 146.401 65.4239 148.129 65.4239C151.825 65.4239 155.521 65.3759 159.217 65.3279L161.761 65.2799C162.001 65.2799 162.529 65.2799 162.193 65.0399C161.857 64.7999 160.945 64.8959 160.561 64.8959Z" fill="#CECECE"/>
<path id="Vector_28" d="M129.792 117.888C129.792 117.888 110.256 118.224 108.24 117.888C108.24 117.888 109.248 144 109.824 144C110.4 144 129.408 143.28 131.184 142.416C132.96 141.552 129.792 117.888 129.792 117.888Z" fill="#CECECE"/>
<path id="Vector_29" d="M129.504 116.735C123.504 116.831 117.504 116.927 111.552 116.879C110.784 116.879 110.064 116.879 109.296 116.831H108.864C108.576 116.831 108.96 116.831 108.72 116.831C108.48 116.831 108.384 116.831 108.192 116.783C107.76 116.687 107.328 117.023 107.232 117.455C107.232 117.551 107.232 117.599 107.232 117.695C107.424 122.351 107.616 127.007 107.856 131.663C108 134.687 108.144 137.711 108.384 140.735C108.432 141.695 108.528 142.607 108.672 143.567C108.816 144.383 109.2 145.199 110.16 145.199C112.464 145.199 114.816 145.007 117.12 144.911C120.528 144.719 123.984 144.575 127.392 144.239C128.496 144.143 129.648 143.999 130.752 143.807C131.616 143.615 132.096 143.279 132.336 142.367C132.528 141.407 132.624 140.399 132.576 139.439C132.576 137.999 132.528 136.559 132.432 135.119C132.096 129.551 131.472 124.031 130.752 118.463L130.704 118.127C130.704 117.503 130.272 116.975 129.696 116.783C129.264 116.687 128.832 117.023 128.736 117.455C128.736 117.551 128.736 117.647 128.736 117.695C129.36 122.351 129.888 127.007 130.272 131.711C130.56 134.543 130.704 137.375 130.608 140.207C130.608 140.303 130.608 140.447 130.608 140.543C130.608 140.639 130.656 140.303 130.608 140.639C130.608 140.831 130.56 141.023 130.512 141.215C130.464 141.407 130.368 141.791 130.464 141.407C130.464 141.455 130.416 141.503 130.416 141.551C130.272 141.743 130.608 141.359 130.464 141.503C130.32 141.647 130.704 141.455 130.56 141.455C130.512 141.455 130.464 141.503 130.416 141.503L130.32 141.551C130.32 141.551 130.56 141.503 130.416 141.503L130.128 141.551C129.648 141.647 129.168 141.695 128.688 141.791C125.568 142.175 122.4 142.319 119.28 142.511C116.4 142.655 113.52 142.799 110.64 142.895C110.304 142.895 109.968 142.895 109.632 142.943C109.584 142.943 109.44 142.943 109.44 142.943C109.44 142.943 110.112 143.183 110.16 143.183C110.304 143.327 110.4 143.471 110.496 143.615C110.448 143.471 110.592 143.999 110.544 143.807C110.544 143.711 110.496 143.615 110.496 143.519L110.448 143.327C110.4 143.087 110.496 143.615 110.448 143.375C110.4 142.943 110.352 142.559 110.304 142.175C110.064 139.487 109.92 136.751 109.776 134.015C109.488 128.831 109.248 123.647 109.056 118.463C109.056 118.367 109.056 118.271 109.056 118.175L108.096 119.087C109.104 119.231 110.16 119.279 111.168 119.231C112.896 119.279 114.672 119.279 116.448 119.231C120.096 119.231 123.792 119.183 127.488 119.135L129.936 119.087C131.376 119.039 130.704 116.735 129.504 116.735Z" fill="#CECECE"/>
</g>
<path id="Vector_30" d="M139.008 152.879C139.68 152.831 140.352 152.735 141.024 152.591C142.08 152.351 143.184 152.159 144.24 151.919C147.6 151.199 150.96 150.431 154.368 149.663L166.512 146.927C170.064 146.111 173.616 145.343 177.168 144.527C178.416 144.239 179.616 143.999 180.864 143.759C181.296 143.663 181.728 143.567 182.112 143.519L182.544 143.423C182.736 143.375 183.024 143.375 182.592 143.423C182.736 143.423 183.024 143.423 182.448 143.423C182.88 143.423 183.696 143.375 183.888 142.895C184.08 142.415 183.312 142.271 182.976 142.271C182.304 142.319 181.632 142.415 180.96 142.559C179.904 142.799 178.8 142.991 177.744 143.231C174.384 143.951 171.024 144.719 167.664 145.487L155.52 148.223C151.968 149.039 148.416 149.855 144.864 150.623C143.616 150.911 142.416 151.151 141.168 151.439L139.92 151.679L139.488 151.775C139.248 151.823 139.008 151.823 139.44 151.775C139.296 151.775 139.008 151.775 139.584 151.775C139.152 151.775 138.336 151.823 138.144 152.303C137.952 152.783 138.72 152.879 139.008 152.879Z" fill="#CECECE"/>
<path id="Vector_31" d="M109.871 55.9679C111.599 56.1119 113.279 55.5359 114.575 54.3839C115.103 53.9039 115.583 53.3759 116.015 52.7999C116.495 52.1279 117.071 51.3598 117.119 50.4959C117.215 48.6719 115.055 48.2879 113.759 49.0559C112.463 49.8239 112.271 51.5039 112.895 52.7999C114.431 55.8719 118.703 55.7759 121.439 54.7679C124.079 53.8079 126.191 51.7439 127.247 49.1039C127.679 47.9519 128.015 46.4159 127.583 45.2159C126.959 43.5359 124.943 43.5359 123.551 44.2559C120.671 45.7919 121.919 50.0159 123.167 52.2239C124.511 54.7679 127.247 56.3039 130.127 56.0159C132.623 55.7759 135.887 54.0959 135.791 51.1679C135.695 49.1519 133.295 48.6239 131.807 49.5839C130.319 50.5439 130.559 52.3679 131.711 53.4239C134.351 55.8719 139.151 56.7839 141.743 53.7119C142.127 53.2799 141.455 52.9919 141.119 52.9919C140.543 52.9439 139.967 53.1359 139.583 53.5679C138.191 55.1999 135.839 53.9519 134.447 52.9919C133.727 52.5119 132.863 51.6479 133.151 50.6879C133.199 50.5439 133.295 50.4479 133.343 50.3039C133.343 50.3519 132.767 50.4479 132.767 50.4479L133.007 50.5919C133.391 50.9759 133.535 51.5039 133.439 52.0319C133.151 53.5199 131.903 54.6719 130.367 54.7199C128.639 54.8159 127.103 53.7599 126.095 52.4159C124.847 50.7839 124.175 48.7679 124.223 46.7039C124.223 46.2239 124.367 45.7439 124.655 45.3599C124.751 45.2639 124.799 45.1679 124.895 45.1199H124.751C124.847 45.1679 124.895 45.2159 124.943 45.2639C125.615 45.8399 125.471 46.9919 125.375 47.7599C124.799 51.1199 121.631 54.5279 117.983 53.9999C116.831 53.8559 115.823 53.1839 115.247 52.1759C114.959 51.6479 114.863 51.0719 114.959 50.5439C115.007 50.3039 115.151 50.1119 115.199 49.9199C115.247 49.6319 114.383 49.7759 114.527 50.0159C114.575 50.1119 114.719 50.2079 114.767 50.3039C115.295 51.3119 113.999 52.7039 113.375 53.4239C112.751 54.1439 111.935 54.8159 110.975 54.6719C110.399 54.5759 109.823 54.8159 109.439 55.2479C108.959 55.6799 109.487 55.8719 109.871 55.9679Z" fill="#CECECE"/>
<path id="Vector_32" d="M143.472 82.272C144.768 79.488 146.784 77.088 149.328 75.36C149.616 75.168 150 74.976 150.336 74.832C150.576 74.736 150.816 74.688 151.056 74.688C151.152 74.688 151.248 74.688 151.344 74.688C151.776 74.736 151.536 74.544 150.672 74.064C150.816 74.4 151.056 74.64 151.2 75.024C151.344 75.36 151.44 75.744 151.536 76.128C151.824 77.232 152.208 79.344 150.864 79.92L152.448 80.832C152.64 80.976 152.448 80.64 152.4 80.496C152.352 80.304 152.4 80.112 152.448 79.92C152.544 79.584 152.784 79.296 153.024 79.056C153.6 78.576 154.32 78.24 155.088 78.096C155.808 78 156.48 78 157.2 78.144C157.536 78.24 157.824 78.336 158.112 78.432C158.544 78.576 157.92 78.384 157.92 78.288C157.92 78.384 158.256 78.672 158.352 78.768C158.736 79.152 159.168 79.488 159.648 79.776C159.744 79.824 160.416 80.208 160.128 79.824C158.736 78.048 156.288 76.56 153.984 76.608C152.928 76.608 151.872 76.992 151.056 77.664C150.624 78 150.384 78.576 150.432 79.152C150.528 79.632 150.864 80.112 151.296 80.352C151.536 80.544 152.496 81.408 152.832 81.264C154.416 80.544 153.696 77.76 153.264 76.56C153.024 75.792 152.544 75.072 151.92 74.592C151.2 73.968 150.24 73.248 149.232 73.248C148.32 73.248 147.504 73.776 146.832 74.304C146.112 74.88 145.44 75.504 144.768 76.128C143.472 77.52 142.368 79.104 141.504 80.832C141.36 81.264 143.424 82.464 143.472 82.272Z" fill="white"/>
<path id="Vector_33" d="M153.887 71.5197C153.215 72.2397 153.311 73.3917 154.031 74.0157C154.079 74.0637 154.079 74.0637 154.127 74.1117C154.943 74.7837 156.287 74.8317 157.247 74.5437C158.303 74.2557 159.215 73.6317 159.887 72.7677C160.223 72.2877 160.223 71.6637 159.839 71.2317C159.551 70.8477 159.215 70.5597 158.831 70.2717C157.967 69.6477 157.007 69.2157 155.951 69.0717C155.663 69.0237 155.327 69.0717 155.039 69.2157C154.799 69.3117 154.559 69.5037 154.415 69.7437C154.175 70.2717 154.607 70.6557 155.087 70.7037L155.327 70.7517L155.471 70.7997H155.375C155.519 70.8477 155.663 70.8957 155.807 70.9437C155.951 70.9917 156.095 71.0397 156.239 71.1357L156.335 71.1837C156.431 71.2317 156.431 71.2317 156.287 71.1837C156.335 71.2317 156.431 71.2317 156.479 71.2797C156.767 71.4237 157.007 71.6157 157.247 71.8557L157.439 72.0477C157.487 72.0957 157.631 72.1917 157.487 72.0957C157.631 72.1917 157.727 72.3357 157.823 72.5277L157.727 72.3357C157.775 72.4317 157.775 72.4797 157.775 72.5757V72.3357C157.775 72.3837 157.727 72.5277 157.775 72.4317C157.823 72.3357 157.775 72.4317 157.775 72.4797C157.727 72.5277 157.727 72.6237 157.775 72.4797C157.727 72.5277 157.727 72.5277 157.679 72.5757C157.631 72.6717 157.535 72.7197 157.439 72.8157C157.391 72.8637 157.391 72.8637 157.343 72.9117C157.199 73.0557 157.487 72.8157 157.391 72.8637C157.295 72.9117 157.247 72.9597 157.151 73.0557L157.007 73.1517C156.911 73.2477 157.247 73.0557 157.103 73.1037C156.959 73.1517 156.911 73.1997 156.863 73.1997C156.815 73.1997 156.623 73.2957 156.815 73.1997C157.007 73.1037 156.815 73.1997 156.767 73.1997L156.479 73.2477C156.335 73.2957 156.767 73.1997 156.623 73.2477H156.479H156.335C156.095 73.2477 156.527 73.2477 156.431 73.2477L156.143 73.1997C156.383 73.1997 156.287 73.2477 156.191 73.1997C156.095 73.1517 156.095 73.1517 156.047 73.1517C155.999 73.1517 156.239 73.2477 156.095 73.1997L155.951 73.1037C155.951 73.1037 155.855 73.0077 155.903 73.1037C155.951 73.1997 155.903 73.0557 155.855 73.0557C155.807 72.9597 155.759 72.9117 155.711 72.8157L155.807 73.0077C155.759 72.8637 155.711 72.6717 155.711 72.5277V72.7677C155.711 72.6717 155.759 72.5757 155.759 72.4317C155.855 72.2397 155.615 72.6237 155.759 72.4797C156.047 72.2397 156.047 71.8557 155.855 71.5677C155.759 71.4717 155.663 71.3757 155.519 71.3757C154.943 70.9917 154.319 71.1357 153.887 71.5197Z" fill="white"/>
<path id="Vector_34" d="M112.608 137.471C113.856 134.591 116.16 131.759 119.088 130.415C119.28 130.319 119.472 130.271 119.664 130.175C119.808 130.127 119.952 130.079 120.096 130.079L119.184 129.983C119.184 130.031 119.472 130.223 119.52 130.271C119.664 130.415 119.76 130.607 119.856 130.799C120.144 131.519 120.288 132.287 120.336 133.055C120.432 134.303 120.768 136.751 119.376 137.471L121.728 137.855C120.912 136.415 122.208 134.783 123.36 133.919C123.984 133.439 124.704 133.103 125.472 132.959C126.144 132.863 125.184 132.959 125.232 132.863C125.232 132.863 125.616 133.007 125.664 133.055C126 133.247 126.288 133.535 126.528 133.823C126.768 134.111 127.632 134.111 127.968 134.159C128.064 134.159 128.976 134.207 128.832 134.063C128.16 133.295 127.2 132.767 126.144 132.623C124.944 132.335 123.696 132.335 122.496 132.671C120.816 133.247 118.224 135.455 119.328 137.423C119.472 137.663 120.096 137.711 120.336 137.759C120.672 137.807 121.344 137.999 121.68 137.807C122.4 137.423 122.688 136.607 122.736 135.839C122.832 134.783 122.784 133.679 122.64 132.623C122.544 131.807 122.352 130.895 121.728 130.271C120.96 129.551 119.568 129.407 118.56 129.407C116.64 129.407 114.912 130.847 113.616 132.095C112.176 133.439 111.024 135.119 110.256 136.895C110.208 137.135 112.416 137.855 112.608 137.471Z" fill="white"/>
<path id="Vector_35" d="M121.92 125.808C121.68 126.384 121.584 126.96 121.584 127.584C121.632 128.256 121.968 128.88 122.544 129.216C123.072 129.504 123.696 129.696 124.32 129.744C124.944 129.84 125.52 129.792 126.096 129.6C127.344 129.168 128.064 127.872 127.872 126.576C127.728 125.424 127.152 124.32 126.24 123.552C125.088 122.64 123.024 122.976 122.448 124.464C122.352 124.704 122.304 124.992 122.4 125.28C122.496 125.52 122.736 125.712 123.024 125.808C123.648 125.952 124.272 125.712 124.56 125.136C124.56 125.088 124.608 125.04 124.608 124.992C124.512 125.184 124.464 125.184 124.56 125.088L124.608 125.04C124.512 125.232 124.416 125.232 124.56 125.136L124.512 125.184C124.416 125.232 124.368 125.232 124.464 125.232C124.56 125.232 124.608 125.232 124.368 125.232C124.416 125.232 124.464 125.232 124.512 125.184C124.704 125.136 124.224 125.184 124.416 125.184C124.464 125.184 124.512 125.184 124.56 125.184L124.368 125.136H124.464C124.512 125.136 124.56 125.184 124.608 125.184L124.464 125.136L124.56 125.184C124.608 125.184 124.704 125.28 124.704 125.28C124.752 125.328 124.8 125.376 124.8 125.376C124.896 125.472 124.992 125.616 125.04 125.712L124.896 125.472C125.136 125.856 125.328 126.336 125.472 126.768L125.424 126.48C125.472 126.72 125.52 126.912 125.52 127.152C125.52 127.344 125.52 127.152 125.52 127.104C125.52 127.152 125.52 127.2 125.52 127.248C125.52 127.296 125.52 127.344 125.472 127.392C125.424 127.44 125.472 127.44 125.472 127.488C125.472 127.536 125.472 127.536 125.52 127.344C125.52 127.392 125.472 127.44 125.472 127.44L125.424 127.536C125.376 127.632 125.424 127.584 125.472 127.44C125.424 127.44 125.424 127.536 125.376 127.536C125.28 127.632 125.616 127.344 125.424 127.488C125.376 127.536 125.328 127.536 125.328 127.584C125.232 127.68 125.616 127.44 125.424 127.536C125.376 127.584 125.328 127.584 125.28 127.584C125.28 127.584 125.616 127.488 125.376 127.536L125.28 127.68C125.04 127.68 125.232 127.68 125.28 127.68C125.52 127.68 125.28 127.68 125.232 127.68H125.088C124.992 127.68 124.848 127.68 124.752 127.632C124.56 127.632 124.944 127.68 124.848 127.632L124.704 127.584C124.512 127.536 124.32 127.488 124.08 127.392C123.84 127.296 124.272 127.536 124.08 127.392L123.936 127.296C123.84 127.248 124.08 127.488 123.984 127.296C123.936 127.248 123.936 127.2 123.888 127.152L124.032 127.392C123.984 127.296 123.936 127.2 123.936 127.152L123.984 127.44C123.936 127.344 123.936 127.2 123.936 127.104C123.936 126.864 123.888 127.344 123.936 127.152C123.936 127.104 123.936 127.008 123.936 126.96C123.936 126.816 123.984 126.72 124.032 126.576L124.08 126.432C124.032 126.624 124.176 126.192 124.08 126.432C124.176 126.192 124.224 125.904 124.128 125.616C124.032 125.376 123.792 125.184 123.504 125.088C122.88 124.896 122.208 125.184 121.92 125.808Z" fill="white"/>
<path id="Vector_36" d="M106.321 70.4635C107.665 70.1755 111.217 69.4075 110.305 67.3435C110.017 66.6715 109.297 66.3355 108.625 66.4795C107.809 66.7675 107.377 67.6795 107.713 68.4955C107.713 68.5435 107.761 68.5915 107.761 68.6395C108.193 69.7435 109.441 70.2715 110.593 70.3195C112.705 70.3675 114.673 69.4555 116.017 67.8235C116.305 67.4875 115.969 66.9115 115.729 66.6235C115.393 66.2875 114.865 66.0955 114.385 66.2395C113.281 66.5275 113.233 67.8235 113.809 68.6395C114.481 69.5995 115.777 69.9835 116.881 70.1755C118.801 70.5595 121.345 69.7915 121.633 67.5355C121.681 67.0555 121.393 66.6235 121.009 66.3835C120.673 66.1915 120.001 65.9995 119.665 66.2875C118.897 67.0555 119.089 68.0155 119.665 68.8315C120.289 69.6475 121.201 70.1755 122.161 70.3675C123.985 70.7995 125.857 70.2235 127.105 68.8315C127.489 68.3995 126.913 67.6795 126.577 67.4395C126.145 67.1035 125.473 67.1515 125.089 67.5355C124.465 68.2075 123.553 68.5435 122.641 68.5435C122.545 68.5435 121.009 68.2075 121.345 67.9195L119.377 66.6715C119.233 67.5355 118.513 68.2075 117.649 68.3035C117.121 68.3515 116.593 68.2555 116.065 68.1115C115.969 68.0635 115.585 67.8715 115.537 67.9195C115.489 67.9675 115.681 68.1115 115.633 68.1115L114.001 66.5275C113.281 67.3915 112.321 67.9675 111.265 68.2555C110.785 68.3515 110.353 68.3515 109.873 68.3515C109.921 68.3515 109.729 68.3035 109.729 68.3035C109.729 68.3035 109.969 68.5435 109.921 68.4955C109.873 68.4475 109.969 68.3515 109.969 68.3035L108.289 67.4395C108.241 67.2955 108.433 67.2955 108.193 67.4395C108.145 67.4875 108.049 67.5355 107.953 67.6315C107.665 67.7755 107.377 67.9195 107.041 68.0155C106.417 68.2555 105.793 68.4475 105.121 68.5435C104.545 68.6395 104.593 69.4075 104.833 69.7915C105.121 70.3675 105.697 70.6075 106.321 70.4635Z" fill="#CECECE"/>
<path id="Vector_37" d="M105.744 77.808C107.184 77.52 111.312 76.608 110.304 74.304C110.064 73.728 109.248 73.68 108.768 73.872C107.808 74.16 107.28 75.168 107.568 76.128C107.568 76.176 107.568 76.176 107.616 76.224C108 77.232 109.152 77.616 110.112 77.664C112.32 77.712 114.432 76.752 115.824 75.072C116.448 74.304 115.632 73.344 114.768 73.584C113.712 73.824 112.848 74.832 113.376 75.936C113.904 76.992 115.392 77.328 116.4 77.52C118.512 77.904 121.248 76.992 121.536 74.544C121.68 73.344 120.048 73.296 119.424 73.92C118.8 74.592 118.752 75.6 119.328 76.32C119.904 77.088 120.768 77.616 121.68 77.76C123.6 78.192 125.568 77.568 126.912 76.128C127.92 75.024 125.856 74.112 125.04 75.024C124.464 75.648 123.696 75.984 122.832 75.936C122.448 75.936 122.016 75.792 121.68 75.6C121.584 75.504 121.2 75.12 121.296 75.072L119.184 74.448C119.088 75.216 118.416 75.792 117.648 75.792C117.12 75.792 116.64 75.696 116.16 75.504C116.016 75.456 115.824 75.312 115.632 75.264C115.392 75.216 115.776 75.216 115.44 75.408L114.864 75.6L115.008 75.552L113.904 74.016C113.28 74.832 112.368 75.408 111.408 75.648C110.976 75.792 110.496 75.84 110.064 75.744C109.968 75.696 109.824 75.552 109.824 75.552C109.824 75.552 109.872 75.504 109.824 75.504C109.776 75.504 109.584 75.648 109.632 75.648L108.096 75.216C108.048 75.072 108.144 75.072 108.048 75.072C107.952 75.072 107.904 75.168 107.856 75.216C107.616 75.312 107.376 75.456 107.088 75.504C106.56 75.696 106.032 75.888 105.456 75.984C104.928 76.08 104.304 76.464 104.4 77.136C104.592 77.616 105.168 77.952 105.744 77.808Z" fill="#CECECE"/>
<path id="Vector_38" d="M105.793 84.0481C107.233 84.0961 108.673 83.6161 109.825 82.8001C110.305 82.4641 110.689 82.0321 111.025 81.5521C111.217 81.3601 111.265 81.0721 111.217 80.8321C111.121 80.5441 110.737 80.4961 110.497 80.4961C109.249 80.5441 107.377 81.6001 108.289 83.0401C109.009 84.1921 110.545 84.0961 111.697 83.9041C112.513 83.8081 113.281 83.6161 114.049 83.3761C114.577 83.1841 115.681 82.7041 115.537 81.9841C115.441 81.5521 113.185 82.2241 113.281 82.8481C113.281 82.8961 113.281 82.9441 113.281 82.9921C113.185 82.7521 113.953 82.7041 114.097 82.6081C113.905 82.7041 113.665 82.7041 113.425 82.7521C112.993 82.8481 112.561 82.8961 112.129 82.9441C111.361 82.9921 110.641 82.5601 110.353 81.8401C110.305 81.6961 110.257 81.5041 110.305 81.3601C110.305 81.2641 110.353 81.1681 110.353 81.1201C110.497 80.4481 108.961 82.0321 108.913 81.6001C108.913 81.6961 109.009 81.6961 108.961 81.8401C108.961 81.9361 108.913 82.0321 108.865 82.0801C108.769 82.2241 108.673 82.3681 108.529 82.5121C108.433 82.6081 108.289 82.7521 108.145 82.8481C108.097 82.8961 108.001 82.9441 107.905 82.9921L108.097 82.9441C107.761 83.0401 108.193 82.9441 108.001 82.9921C107.857 83.0401 107.713 83.0401 107.617 83.0401C107.041 83.0401 106.513 83.1841 106.033 83.4721C105.889 83.5201 105.265 84.0481 105.793 84.0481Z" fill="#CECECE"/>
<path id="Vector_39" d="M117.744 82.4631C117.792 82.5591 117.792 82.6551 117.84 82.7511C117.936 82.9431 118.08 83.1351 118.224 83.2791C118.368 83.4711 118.56 83.6151 118.8 83.7111C118.896 83.7591 118.992 83.8071 119.088 83.8071H119.136C119.232 83.8071 119.328 83.8551 119.424 83.8551C119.52 83.8551 119.616 83.8551 119.712 83.8071H119.76L119.952 83.7111C120 83.6631 120.048 83.5671 120.096 83.5191C120.096 83.5191 120.096 83.4711 120.144 83.4711C120.192 83.3751 120.192 83.3271 120.192 83.2311C120.192 83.1351 120.192 83.0391 120.144 82.9431C120.144 82.8951 120.096 82.8471 120.096 82.7511C120.096 82.7031 120.048 82.6551 120.048 82.6071C120 82.5111 119.952 82.4151 119.904 82.3191C119.856 82.2231 119.76 82.1271 119.664 82.0311C119.568 81.9351 119.472 81.8391 119.376 81.7911C119.28 81.7431 119.184 81.6471 119.088 81.5991C118.896 81.5031 118.752 81.4551 118.56 81.4551C118.464 81.4551 118.32 81.5031 118.272 81.5511C118.176 81.5991 118.08 81.6951 118.08 81.7911C118.032 81.8871 118.032 82.0311 118.032 82.1271C118.032 82.2711 118.08 82.3671 118.128 82.5111L118.272 82.7511C118.416 82.9431 118.56 83.0871 118.704 83.2311L118.944 83.3751C119.088 83.4711 119.28 83.4711 119.424 83.4711L119.184 83.4231H119.232L118.992 83.3271H119.04L118.8 83.1831L118.848 83.2311L118.608 83.0391L118.656 83.0871L118.464 82.8471L118.512 82.8951L118.368 82.6551L118.416 82.7031L118.32 82.4631V82.5111V82.2711V82.3191L118.368 82.1271C118.368 82.1751 118.368 82.1751 118.32 82.1751L118.416 81.9831L118.368 82.0311L118.56 81.9351L118.512 81.9831L118.704 81.9351H118.656L118.896 81.9831H118.848L119.088 82.0791H119.04L119.28 82.2231L119.232 82.1751L119.472 82.3671V82.3191L119.664 82.5591V82.5111L119.808 82.7511C119.808 82.7511 119.808 82.7511 119.808 82.7031L119.904 82.9431C119.904 82.7991 119.808 82.6551 119.76 82.5591C119.712 82.4151 119.616 82.2711 119.472 82.1751C119.376 82.0791 119.232 81.9831 119.088 81.8871C118.992 81.7911 118.848 81.7431 118.704 81.7431L118.464 81.6951C118.32 81.6951 118.176 81.7431 118.08 81.8391L117.984 82.0311C117.936 82.1751 117.936 82.3671 117.936 82.5111L117.744 82.4631Z" fill="#CECECE"/>
<path id="Vector_40" d="M108.337 96.191C109.441 95.951 110.497 95.615 111.505 95.135C112.321 94.703 113.425 93.791 112.993 92.783C112.801 92.399 112.225 92.399 111.889 92.495C110.929 92.783 110.065 93.551 110.257 94.655C110.449 95.759 111.649 96.095 112.561 96.095C114.817 96.095 116.929 95.135 118.417 93.407C118.657 93.119 118.849 92.831 118.609 92.495C118.321 92.207 117.937 92.159 117.553 92.303C116.545 92.543 115.537 93.599 116.113 94.655C116.641 95.567 118.129 95.903 119.089 96.047C121.297 96.335 123.937 95.135 124.225 92.735C124.273 92.351 123.793 92.207 123.505 92.207C123.025 92.207 122.593 92.399 122.257 92.735C121.585 93.311 121.489 94.319 122.065 94.991C122.641 95.711 123.457 96.191 124.321 96.287C126.241 96.623 128.161 95.951 129.505 94.511C129.841 94.175 129.985 93.599 129.457 93.359C128.881 93.167 128.257 93.359 127.825 93.791C127.297 94.415 126.529 94.703 125.713 94.607C125.281 94.559 124.849 94.415 124.465 94.175C124.273 94.031 124.129 93.887 124.033 93.695C123.985 93.647 123.985 93.551 123.937 93.503C123.841 93.311 124.033 93.311 123.889 93.407L121.921 93.359C121.825 94.127 121.153 94.415 120.481 94.415C119.953 94.367 119.425 94.271 118.945 94.079C118.705 94.031 118.513 93.887 118.369 93.743C118.321 93.695 118.273 93.647 118.273 93.551C118.273 93.263 118.033 93.359 117.649 93.935L116.785 92.783C116.161 93.599 115.249 94.127 114.289 94.367C113.857 94.463 113.425 94.463 112.993 94.367C112.801 94.319 112.657 94.175 112.561 94.031C112.369 93.551 112.993 93.839 111.937 94.175L110.833 93.887C110.545 93.983 110.305 94.127 110.017 94.223C109.489 94.415 108.913 94.559 108.337 94.703C107.857 94.799 107.185 95.279 107.233 95.807C107.281 96.335 107.953 96.239 108.337 96.191Z" fill="#CECECE"/>
<path id="Vector_41" d="M109.009 103.296C109.969 103.104 113.761 102.288 113.041 100.656C112.753 100.032 111.793 99.7441 111.169 99.9361C110.497 100.08 110.065 100.752 110.209 101.424C110.257 101.568 110.257 101.664 110.353 101.76C110.833 102.72 112.177 103.056 113.137 103.104C115.249 103.2 117.313 102.336 118.657 100.704C119.281 99.9361 117.265 99.5521 116.833 99.6481C115.873 99.8881 115.633 100.896 116.305 101.616C117.025 102.48 118.369 102.816 119.425 102.96C121.297 103.296 123.937 102.768 124.225 100.512C124.321 99.6001 122.497 99.3121 121.969 99.7921C121.345 100.368 121.633 101.232 122.113 101.808C122.785 102.528 123.697 103.008 124.705 103.152C126.529 103.584 128.449 103.056 129.745 101.712C130.369 101.04 128.113 100.224 127.585 100.848C126.961 101.568 126.097 101.952 125.185 101.952C124.609 101.904 123.505 101.28 124.177 100.608L121.921 99.8881C121.825 100.848 121.057 101.568 120.145 101.712C119.665 101.76 119.185 101.664 118.753 101.52C118.609 101.472 118.417 101.424 118.321 101.328C118.273 101.184 118.273 101.04 118.321 100.944L116.497 99.8881C115.777 100.752 114.817 101.376 113.713 101.712C113.473 101.76 113.281 101.808 113.041 101.856C112.897 101.856 112.753 101.856 112.609 101.856C112.513 101.856 112.417 101.76 112.465 101.856C112.609 102 112.465 101.664 112.465 101.616C112.465 101.472 112.513 101.328 112.561 101.232L110.689 100.512C111.073 101.424 108.097 102 107.569 102.144C107.041 102.288 107.041 102.672 107.377 103.008C107.809 103.248 108.433 103.392 109.009 103.296Z" fill="#CECECE"/>
<path id="Vector_42" d="M109.681 110.447C110.833 110.495 111.937 110.111 112.753 109.343C113.233 108.959 113.569 108.479 113.713 107.903C113.809 106.943 113.137 106.031 112.177 105.839C111.553 105.791 110.977 106.271 110.881 106.895C110.737 107.615 110.929 108.383 111.409 108.959C112.273 110.207 113.617 110.543 115.057 110.351C115.729 110.303 116.353 110.159 117.025 109.967C117.361 109.871 117.649 109.679 117.889 109.439C118.081 109.103 118.129 108.719 118.033 108.335C117.889 107.759 117.409 107.279 116.785 107.183C116.161 107.135 116.065 107.711 116.161 108.191C116.065 107.567 116.305 107.759 116.113 107.807C116.065 107.807 116.017 107.855 115.921 107.903C115.681 107.951 115.441 107.999 115.201 108.047C114.673 108.191 114.097 108.239 113.569 108.287C113.329 108.287 113.089 108.239 112.897 108.143C112.705 108.095 113.041 108.191 112.897 108.143C112.801 108.047 112.801 108.047 112.897 108.143L112.849 108.047C112.897 108.335 112.801 107.903 112.897 108.143C112.801 107.951 112.897 108.047 112.897 108.143C112.897 108.095 112.945 107.951 112.945 107.951C112.945 107.951 112.945 107.951 112.993 107.903C112.945 107.951 112.849 107.951 112.801 107.951L112.321 107.663L112.225 107.567L111.841 107.039V106.751L111.793 106.847C111.745 106.895 111.697 106.991 111.649 107.039C111.601 107.135 111.505 107.231 111.409 107.327C111.169 107.567 110.929 107.759 110.641 107.903C110.161 108.191 109.585 108.335 109.057 108.287C108.481 108.287 108.289 108.815 108.433 109.295C108.625 109.871 109.105 110.303 109.681 110.447Z" fill="#CECECE"/>
<path id="Vector_43" d="M142.801 95.8079C143.953 95.5679 145.105 95.1839 146.161 94.7039C146.785 94.4639 148.081 93.8399 147.745 92.9759C147.649 92.6879 146.641 93.0239 146.545 93.0719C145.777 93.3119 144.625 93.7439 145.009 94.7999C145.297 95.7119 146.641 95.7599 147.409 95.6639C149.617 95.5199 151.969 94.5119 153.457 92.7839C153.649 92.5439 152.545 92.7359 152.545 92.7359C151.825 92.9279 150.145 93.4079 150.817 94.4639C151.297 95.2799 152.881 95.5679 153.745 95.6159C155.617 95.7119 158.689 94.8479 158.977 92.6399C158.977 92.4479 157.921 92.6879 157.921 92.6879C157.489 92.7839 157.057 92.9759 156.721 93.2639C156.145 93.8399 156.577 94.6559 157.105 95.0879C157.729 95.5679 158.545 95.8559 159.361 95.8559C161.185 95.9039 163.345 95.1839 164.593 93.8399C164.833 93.5999 163.729 93.7919 163.681 93.7919C163.201 93.8879 162.721 94.0799 162.337 94.4159C162.193 94.6079 162.001 94.7519 161.761 94.8959C161.425 95.1359 161.473 94.9439 161.713 94.9919C161.473 94.9919 161.233 95.0399 160.993 94.9919C160.753 94.9439 160.465 94.8959 160.225 94.8479C159.505 94.6079 158.065 93.5999 158.929 92.7359L156.673 93.3599C156.625 93.8399 156.385 94.2719 156.049 94.6079C155.953 94.7039 155.857 94.7519 155.761 94.8479C155.473 95.1359 155.953 94.7039 156.001 94.7999L154.945 94.7039C154.417 94.6079 153.889 94.4159 153.457 94.1279C153.265 93.9839 153.073 93.7919 153.025 93.5519C153.025 93.4559 153.025 93.3599 153.025 93.2639C153.025 93.1679 153.169 93.0239 153.073 93.0719L151.969 93.5039L152.113 93.4559L151.201 93.4079C150.865 93.8399 150.433 94.2239 149.953 94.5119C149.761 94.6559 149.569 94.7519 149.329 94.7999C149.377 94.7999 149.425 94.7519 149.329 94.7999C149.185 94.8479 149.041 94.8479 148.897 94.8479C148.369 94.9439 147.793 94.7519 147.409 94.4159C147.313 94.2719 147.217 94.1279 147.217 93.9359C147.169 93.3599 147.745 93.3119 146.689 93.6479L145.489 93.7439C145.921 94.7519 143.905 95.0399 143.281 95.1839C143.041 95.2319 141.937 95.4719 141.937 95.8079C141.937 96.1439 142.657 95.8079 142.801 95.8079Z" fill="#CECECE"/>
<path id="Vector_44" d="M143.137 103.775C144.673 103.439 148.657 102.431 147.649 100.079C147.409 99.6473 146.881 99.4553 146.449 99.5993C145.393 99.8393 144.721 100.895 144.913 101.951C145.153 103.103 146.353 103.583 147.409 103.631C149.665 103.679 151.777 102.671 153.169 100.943C153.553 100.607 153.601 99.9833 153.265 99.5993C152.977 99.2633 152.497 99.1673 152.113 99.3593C151.009 99.6473 150.241 100.799 150.769 101.903C151.297 103.007 152.737 103.343 153.745 103.487C155.905 103.823 158.593 102.815 158.881 100.319C158.977 99.3113 157.681 98.9273 157.009 99.5513C156.241 100.223 156.097 101.423 156.721 102.239C157.249 103.007 158.065 103.535 159.025 103.679C160.993 104.063 162.961 103.439 164.305 101.951C164.641 101.567 164.593 100.943 164.209 100.607C164.161 100.559 164.113 100.559 164.113 100.511C163.537 100.223 162.865 100.415 162.481 100.895C161.905 101.471 161.137 101.759 160.321 101.711C159.937 101.711 159.553 101.567 159.217 101.423C159.073 101.327 158.929 101.231 158.833 101.135C158.593 100.799 158.833 100.799 158.497 101.135L156.625 100.367C156.529 101.039 155.953 101.519 155.281 101.519C154.753 101.519 154.225 101.471 153.745 101.279C153.553 101.231 153.313 101.039 153.073 100.991C153.025 100.943 152.977 100.943 152.929 100.895C152.977 101.183 152.785 101.375 152.401 101.471L151.345 99.9353C150.721 100.703 149.857 101.231 148.897 101.471C148.465 101.615 148.033 101.615 147.553 101.567C147.361 101.519 147.313 101.423 147.121 101.375C147.121 101.375 147.121 101.375 147.169 101.375C147.073 101.567 146.881 101.711 146.689 101.759L145.489 101.279C145.441 101.183 145.633 100.991 145.537 100.943C145.537 100.943 145.393 101.039 145.345 101.039C145.057 101.135 144.817 101.279 144.529 101.375C144.001 101.567 143.425 101.711 142.849 101.855C142.225 101.951 141.793 102.527 141.841 103.151C141.985 103.727 142.513 104.063 143.089 103.919C143.137 103.823 143.137 103.823 143.137 103.775Z" fill="#CECECE"/>
<path id="Vector_45" d="M143.951 110.591C145.199 110.639 146.448 110.207 147.408 109.391C147.888 109.007 148.32 108.479 148.56 107.903C148.848 107.183 148.511 106.367 147.791 106.079C147.647 106.031 147.455 105.983 147.311 105.983C146.495 105.983 145.776 106.511 145.488 107.279C145.248 107.951 145.392 108.719 145.776 109.295C146.64 110.543 148.128 110.735 149.568 110.543C150.288 110.447 151.008 110.303 151.68 110.111C152.448 109.823 153.12 109.103 152.976 108.239C152.736 106.799 150.383 107.375 150.623 108.719C150.575 108.383 150.816 108.287 150.96 108.095C151.056 108.047 151.007 108.047 150.911 108.095L150.816 108.143C151.008 108.095 150.912 108.095 150.768 108.143L150.431 108.191C149.951 108.287 149.52 108.383 149.04 108.431C148.752 108.479 148.416 108.431 148.128 108.383C147.936 108.287 147.744 108.095 147.648 107.903C147.648 107.855 147.648 107.855 147.648 107.903C147.648 107.951 147.648 107.951 147.648 107.855C147.648 107.951 147.648 107.903 147.648 107.807C147.6 107.903 147.6 107.903 147.648 107.855C147.648 107.807 147.696 107.807 147.648 107.855C147.456 108.335 146.975 108.143 146.303 107.327L146.256 107.423C146.352 107.327 146.208 107.471 146.208 107.519L146.016 107.759C146.112 107.615 146.016 107.759 145.968 107.807L145.728 107.999C145.728 107.999 145.439 108.191 145.583 108.095C145.727 107.999 145.44 108.191 145.44 108.191C145.392 108.239 145.296 108.239 145.248 108.287C145.248 108.287 144.863 108.431 145.151 108.335C145.007 108.383 144.815 108.431 144.671 108.431C144.623 108.431 144.432 108.479 144.576 108.431H144.24C143.616 108.431 143.039 108.863 142.943 109.487C142.895 110.063 143.28 110.543 143.856 110.639C143.904 110.543 143.951 110.543 143.951 110.591Z" fill="#CECECE"/>
<path id="Vector_46" d="M154.896 108.528C154.896 108.576 154.944 108.624 154.944 108.672L154.992 108.72C155.04 108.768 155.088 108.816 155.136 108.816L155.184 108.864C155.328 108.96 155.52 109.008 155.664 109.056C155.856 109.104 156.096 109.152 156.288 109.152C156.48 109.152 156.72 109.152 156.96 109.152C157.056 109.152 157.152 109.152 157.248 109.104C157.344 109.104 157.392 109.056 157.488 109.056C157.536 109.056 157.584 109.008 157.632 108.96L157.68 108.912C157.728 108.864 157.728 108.816 157.728 108.768C157.728 108.72 157.728 108.72 157.728 108.672V108.624C157.728 108.576 157.68 108.528 157.68 108.48C157.632 108.432 157.584 108.336 157.488 108.288H157.44L157.248 108.192C156.96 108.096 156.672 108.048 156.384 108C156.24 108 156.048 108 155.904 108C155.76 108 155.664 108 155.52 108.048C155.424 108.048 155.328 108.096 155.28 108.144C155.232 108.144 155.184 108.192 155.184 108.24L155.232 108.336C155.328 108.432 155.424 108.48 155.52 108.528L155.76 108.576C155.952 108.624 156.144 108.672 156.336 108.672L156 108.624L155.712 108.576L155.472 108.528H155.568L155.376 108.432L155.424 108.48L155.328 108.384C155.376 108.432 155.376 108.432 155.424 108.48L155.376 108.384C155.424 108.432 155.424 108.528 155.376 108.576L155.424 108.48C155.424 108.528 155.376 108.528 155.376 108.528L155.52 108.48H155.472L155.664 108.432H155.52L155.76 108.384H156.048H156.384L156.72 108.432L157.008 108.48H156.96L157.2 108.528H157.152L157.344 108.624L157.296 108.576L157.392 108.672C157.344 108.672 157.344 108.624 157.344 108.576L157.392 108.672C157.392 108.672 157.392 108.672 157.392 108.624C157.392 108.576 157.344 108.528 157.296 108.48C157.248 108.432 157.152 108.384 157.056 108.336C156.912 108.288 156.816 108.24 156.672 108.24C156.528 108.192 156.336 108.192 156.192 108.192H155.856C155.664 108.192 155.472 108.192 155.328 108.24L155.136 108.288C155.04 108.288 154.992 108.384 154.944 108.432L154.896 108.528Z" fill="#CECECE"/>
<path id="Vector_47" d="M122.112 109.824C123.264 109.632 124.32 109.008 125.088 108.096C125.472 107.616 124.56 106.704 124.176 106.464C123.6 106.08 122.784 106.032 122.544 106.848C122.304 107.664 123.264 108.768 123.888 109.2C125.136 109.968 126.72 109.776 127.728 108.672C127.968 108.432 128.16 108.144 128.256 107.808C128.304 107.28 128.112 106.752 127.728 106.368C127.44 106.08 126.96 105.6 126.528 105.648C126.096 105.696 126.096 106.176 126.192 106.512C126.528 107.52 127.344 108.288 128.352 108.576C129.216 108.768 130.08 108.864 130.944 108.96C131.472 109.008 131.328 108.48 131.184 108.192C130.944 107.76 130.464 107.184 129.936 107.088L128.4 106.896L127.728 106.8L127.392 106.752C127.344 106.752 127.344 106.752 127.296 106.704C126.96 106.56 127.104 106.848 127.824 107.568L127.44 107.472L127.152 107.28L126.576 106.56L126.624 106.656L126.48 106.224C126.528 106.56 126 106.992 125.808 107.184C125.472 107.424 125.136 107.616 124.704 107.712C124.512 107.76 124.32 107.76 124.128 107.76C123.984 107.76 123.84 107.712 123.648 107.664C123.888 107.664 123.984 108.624 124.224 108.384C124.272 108.336 124.272 108.24 124.32 108.192C124.368 108.144 124.512 108 124.656 108.048L124.224 107.856L124.32 107.904L123.408 106.272C122.736 107.088 121.776 107.664 120.72 107.856C120.048 108.048 121.344 109.968 122.112 109.824Z" fill="#CECECE"/>
<path id="Vector_48" d="M143.904 124.704C145.44 124.368 148.704 123.744 147.696 121.488C147.504 121.056 147.072 120.24 146.496 120.432C145.584 120.72 145.68 121.968 145.968 122.64C146.352 123.648 147.264 124.368 148.32 124.512C150.288 124.704 152.256 123.648 153.456 122.208C153.936 121.632 152.928 120.048 152.208 120.192C151.056 120.48 151.632 122.16 152.016 122.784C152.64 123.696 153.6 124.08 154.656 124.32C156.48 124.752 158.784 124.08 159.024 121.968C159.072 121.44 158.304 119.52 157.584 120.24C156.864 120.96 157.344 122.064 157.728 122.736C158.208 123.6 159.024 124.224 159.984 124.512C161.616 124.992 163.392 124.464 164.544 123.216C165.072 122.64 163.776 120.624 163.152 121.344C162.432 122.112 161.472 122.544 160.416 122.544C159.936 122.544 159.456 122.448 158.976 122.256L158.592 122.064L158.688 122.352C158.736 122.304 158.832 122.208 158.88 122.16L157.44 120.432C157.248 121.488 156.384 122.256 155.328 122.304C154.704 122.352 154.08 122.304 153.456 122.064C153.216 121.968 152.976 121.824 152.736 121.776C152.496 121.584 152.544 121.728 152.832 122.064C152.88 122.448 152.976 122.544 153.072 122.4L153.312 122.304L152.064 120.288C151.296 121.2 150.288 121.824 149.136 122.16C148.608 122.304 148.032 122.352 147.456 122.304C147.36 122.304 147.216 122.256 147.12 122.256C147.072 122.256 146.976 122.208 146.928 122.208L147.264 122.928C147.264 122.928 147.264 122.736 147.312 122.736C147.36 122.736 147.456 122.592 147.6 122.592L146.4 121.44C146.304 121.152 146.496 120.96 146.208 121.248C146.112 121.344 146.016 121.392 145.92 121.488C145.632 121.632 145.344 121.776 145.008 121.92C144.384 122.16 143.712 122.352 143.04 122.496C142.176 122.688 143.184 124.848 143.904 124.704Z" fill="#CECECE"/>
<path id="Vector_49" d="M144.433 131.423C145.297 131.231 148.657 130.607 148.033 129.167C147.889 128.879 147.313 128.639 147.025 128.543C146.737 128.447 146.209 128.159 145.873 128.255C145.153 128.495 145.105 129.359 145.585 129.887C146.449 130.655 147.505 131.135 148.657 131.231C150.625 131.375 152.497 130.559 153.745 129.023C153.937 128.783 151.921 127.967 151.585 128.015C150.721 128.255 151.057 129.215 151.585 129.599C152.545 130.319 153.697 130.799 154.897 130.991C156.577 131.375 159.025 131.039 159.265 128.927C159.313 128.495 157.345 127.679 157.057 127.967C156.481 128.543 156.961 129.359 157.441 129.791C158.257 130.511 159.265 130.991 160.321 131.183C161.953 131.663 163.681 131.231 164.881 129.983C164.977 129.887 163.057 128.639 162.673 129.023C161.953 129.791 160.945 130.271 159.889 130.319C159.649 130.319 159.361 130.223 159.169 130.271C158.833 130.319 159.601 130.415 159.505 130.463C159.409 130.511 159.265 130.223 159.265 130.175C158.929 129.791 158.929 129.263 159.265 128.879L157.057 127.919C156.913 129.023 156.049 129.887 154.945 130.031C154.321 130.127 153.697 130.079 153.073 129.887C152.881 129.791 152.977 129.839 153.409 130.079L153.265 129.887C153.217 129.791 153.217 129.647 153.217 129.551C153.217 129.311 153.409 129.071 153.649 129.023L151.489 128.015C150.673 129.023 149.569 129.695 148.321 129.983C148.033 130.031 147.745 130.079 147.505 130.127C147.313 130.127 147.169 130.127 146.977 130.127C146.209 130.079 147.601 130.319 147.553 130.415C147.505 130.271 147.505 130.175 147.457 130.031C147.457 129.935 147.457 129.791 147.505 129.695C147.553 129.455 147.745 129.263 147.937 129.215L145.825 128.303C146.353 129.503 142.993 130.175 142.321 130.319C142.033 130.367 142.945 130.895 142.993 130.943C143.377 131.135 144.001 131.471 144.433 131.423Z" fill="#CECECE"/>
<path id="Vector_50" d="M145.392 138.192C146.4 138.24 147.408 137.856 148.176 137.232C148.512 136.944 148.992 136.464 148.992 135.984C148.944 135.696 148.752 135.456 148.512 135.312C148.032 134.976 147.504 134.736 146.928 134.592C146.496 134.448 146.016 134.688 145.92 135.12C145.92 135.168 145.92 135.216 145.872 135.216C145.824 135.696 145.968 136.176 146.304 136.56C147.312 137.664 148.8 138.24 150.288 138.144C150.96 138.048 151.68 137.952 152.352 137.808C152.784 137.712 153.36 137.472 153.264 136.944C153.264 136.8 152.928 136.608 152.832 136.56C152.592 136.368 152.304 136.272 152.016 136.128C151.872 136.08 151.008 135.744 151.104 136.128C151.2 136.56 150.432 136.704 150.144 136.752C149.568 136.896 148.944 136.992 148.368 137.04C148.224 137.04 148.08 137.04 147.936 137.04H147.84L148.272 137.232C148.56 137.376 148.416 137.328 148.32 137.184C148.272 137.088 148.176 136.992 148.128 136.896C148.032 136.704 148.032 136.464 148.08 136.272C148.08 136.176 148.128 136.08 148.176 135.984C148.224 135.888 148.416 135.792 148.32 135.744L147.504 135.456L147.6 135.504L146.88 135.072L146.976 135.12L146.736 134.88C146.928 135.168 146.592 135.552 146.4 135.744C146.16 136.032 145.872 136.272 145.584 136.464C145.008 136.848 144.336 137.04 143.616 136.992C143.088 136.992 143.664 137.472 143.808 137.568C144.288 137.952 144.816 138.144 145.392 138.192Z" fill="#CECECE"/>
<path id="Vector_51" d="M155.328 136.943C155.328 137.039 155.376 137.135 155.424 137.183C155.472 137.231 155.52 137.327 155.616 137.375C155.616 137.375 155.616 137.375 155.664 137.423C155.76 137.471 155.808 137.519 155.904 137.567C156.096 137.663 156.336 137.711 156.576 137.711C156.72 137.711 156.816 137.711 156.96 137.711C157.104 137.711 157.2 137.663 157.296 137.615C157.392 137.567 157.488 137.519 157.584 137.471C157.68 137.423 157.776 137.375 157.824 137.279C157.872 137.231 157.968 137.135 158.016 137.039C158.064 136.943 158.064 136.895 158.112 136.799V136.751C158.112 136.655 158.112 136.559 158.112 136.463V136.415C158.112 136.319 158.064 136.223 158.016 136.175C158.016 136.175 158.016 136.127 157.968 136.127C157.92 136.079 157.872 135.983 157.776 135.935C157.68 135.887 157.632 135.839 157.536 135.791C157.344 135.695 157.152 135.647 156.912 135.647C156.768 135.647 156.576 135.647 156.432 135.695C156.288 135.743 156.144 135.791 156 135.887C155.904 135.935 155.76 136.031 155.712 136.175C155.616 136.271 155.568 136.367 155.568 136.511V136.751C155.616 136.895 155.664 137.039 155.808 137.135L156.048 137.279C156.24 137.375 156.432 137.423 156.624 137.423L156.336 137.375H156.384L156.144 137.279H156.192L155.952 137.135L156 137.183L155.856 136.991C155.856 136.991 155.904 137.039 155.904 137.087L155.808 136.847C155.808 136.895 155.808 136.895 155.808 136.943V136.703V136.751L155.904 136.511C155.904 136.511 155.904 136.559 155.856 136.559L156 136.367L155.952 136.415L156.192 136.223H156.144L156.432 136.079H156.384L156.672 135.983H156.624H156.96H156.912L157.2 136.031H157.152L157.392 136.127L157.344 136.079L157.536 136.223C157.536 136.223 157.488 136.223 157.488 136.175L157.632 136.367L157.584 136.319L157.68 136.559C157.68 136.463 157.584 136.319 157.536 136.271C157.488 136.175 157.344 136.079 157.248 136.031C157.104 135.983 156.96 135.935 156.816 135.935C156.672 135.887 156.48 135.887 156.336 135.935L156.048 136.031C155.856 136.079 155.712 136.223 155.568 136.319L155.424 136.511C155.328 136.607 155.28 136.799 155.328 136.943Z" fill="#CECECE"/>
</g>
<g id="character">
<path id="Vector_52" d="M201.935 194.495C201.935 194.495 199.535 202.079 200.639 202.271C201.743 202.463 209.855 202.751 210.671 201.119C211.487 199.487 207.455 193.823 207.455 193.823L201.935 194.495Z" fill="white"/>
<path id="Vector_53" d="M200.735 194.64C200.207 196.224 199.775 197.808 199.439 199.44C199.295 200.208 198.959 201.264 199.199 202.032C199.391 202.704 200.351 202.56 200.879 202.608C203.327 202.8 205.775 202.704 208.223 202.368C209.327 202.224 210.671 202.032 211.583 201.312C212.255 200.784 211.967 199.824 211.727 199.152C210.959 197.184 209.951 195.36 208.655 193.68C208.463 193.392 207.695 193.488 207.455 193.536L201.935 194.208C201.743 194.16 200.735 194.304 200.735 194.64C200.783 194.928 201.839 194.784 201.983 194.784L207.503 194.112L206.303 193.968C207.263 195.312 208.127 196.8 208.895 198.288C209.279 199.056 209.759 200.064 209.615 200.928C209.567 201.168 209.423 201.36 209.231 201.504C209.135 201.6 208.991 201.648 208.847 201.696L208.703 201.744C208.751 201.744 208.895 201.696 208.703 201.744L208.415 201.792C208.559 201.744 208.175 201.84 208.175 201.84L207.983 201.888C207.791 201.936 208.175 201.84 208.031 201.888L207.167 201.984H206.975H206.543C206.255 201.984 205.919 202.032 205.631 202.032C205.199 202.032 204.671 202.032 204.047 202.032C203.567 202.032 203.087 202.032 202.607 201.984H202.319H202.223L201.743 201.936C201.695 201.936 201.647 201.936 201.599 201.936C201.455 201.936 201.791 201.936 201.743 201.984C201.695 202.032 201.647 201.84 201.647 201.792C201.455 201.072 201.695 200.16 201.839 199.488C202.175 197.76 202.655 196.032 203.183 194.352C203.231 194.112 202.031 194.208 201.983 194.208C201.599 194.208 200.831 194.256 200.735 194.64Z" fill="#3D3D3D"/>
<path id="Vector_54" d="M189.456 194.064C189.456 194.064 190.08 202.512 189.792 202.512C189.504 202.512 185.76 202.512 185.76 202.512L185.712 199.152L183.936 202.896L171.36 202.464C171.36 202.464 170.928 201.264 173.76 199.824C176.592 198.384 181.104 196.416 181.104 196.416V191.376L189.456 194.064Z" fill="white"/>
<path id="Vector_55" d="M188.591 194.207C188.687 195.791 188.831 197.423 188.879 199.007C188.927 199.967 188.975 200.927 188.975 201.935V202.175C188.975 202.319 188.975 202.175 188.975 202.223C189.023 202.559 188.639 202.607 189.455 202.175C190.127 201.791 189.983 201.887 189.599 201.887H188.879H185.903L186.623 202.367L186.575 199.007C186.575 198.287 185.087 198.527 184.895 199.007L183.119 202.751L184.079 202.319L173.039 201.983L171.455 201.935L172.175 202.415C172.175 202.415 172.175 202.367 172.175 202.319C172.223 202.175 172.127 202.367 172.175 202.223C172.223 201.983 172.367 201.695 172.559 201.503C173.423 200.495 174.911 200.015 176.111 199.439C177.839 198.623 179.615 197.807 181.391 197.039C181.679 196.895 181.967 196.703 181.967 196.367V191.327L180.527 191.999L188.975 194.687C189.407 194.831 189.887 194.783 190.223 194.495C190.415 194.351 190.463 194.015 190.319 193.823C190.271 193.775 190.175 193.679 190.079 193.679L181.631 190.991C181.103 190.799 180.191 190.943 180.191 191.663V196.703L180.767 196.031C178.703 196.943 176.639 197.903 174.623 198.863C173.327 199.487 171.887 200.111 170.975 201.263C170.687 201.647 170.351 202.271 170.495 202.751C170.591 203.039 170.927 203.231 171.215 203.231L182.255 203.567L183.839 203.615C184.223 203.663 184.559 203.471 184.799 203.183L186.575 199.439H184.895L184.943 202.799C184.943 203.135 185.423 203.279 185.711 203.279H188.543C189.263 203.279 190.655 203.519 190.847 202.511C190.943 201.647 190.895 200.783 190.799 199.919C190.751 198.719 190.655 197.471 190.607 196.271C190.559 195.551 190.511 194.783 190.463 194.063C190.415 193.343 188.543 193.391 188.591 194.207Z" fill="#3D3D3D"/>
<path id="Vector_56" d="M188.832 149.472L175.968 195.984L190.608 196.272L208.128 145.968L188.832 149.472Z" fill="#3D3D3D"/>
<path id="Vector_57" d="M187.679 149.568L186.383 154.176L183.311 165.312L179.615 178.704L176.399 190.32L175.343 194.16C175.151 194.736 175.007 195.36 174.863 195.984C174.863 196.032 174.863 196.032 174.863 196.08C174.767 196.368 175.295 196.368 175.487 196.416L188.303 196.656L190.127 196.704C190.463 196.704 191.663 196.608 191.807 196.176L193.535 191.184L197.759 179.136L202.799 164.64L207.167 152.064L208.607 147.936C208.895 147.264 209.135 146.64 209.279 145.92C209.279 145.872 209.279 145.872 209.327 145.824C209.471 145.344 208.271 145.536 208.127 145.584L191.183 148.656L188.783 149.088C188.543 149.136 187.583 149.328 187.679 149.664C187.775 150 188.735 149.856 188.927 149.808L205.871 146.736L208.271 146.304L207.071 146.064L205.343 151.056L201.119 163.104L195.983 177.6L191.567 190.176L190.127 194.304C189.887 194.928 189.599 195.6 189.455 196.272L189.407 196.368L191.087 195.84L178.271 195.6L176.447 195.552L177.071 195.888L178.367 191.28L181.439 180.144L185.135 166.752L188.351 155.136L189.407 151.296C189.551 150.72 189.791 150.096 189.887 149.472C189.887 149.472 189.887 149.424 189.887 149.376C190.127 148.848 187.823 149.04 187.679 149.568Z" fill="#3D3D3D"/>
<path id="Vector_58" d="M195.168 152.304C195.168 154.656 198.768 195.12 198.768 195.12L210.336 194.928L206.64 146.832L195.168 152.304Z" fill="#3D3D3D"/>
<path id="Vector_59" d="M193.967 152.352C193.967 154.08 194.207 155.808 194.351 157.536C194.639 160.992 194.927 164.448 195.215 167.856C195.839 175.296 196.511 182.688 197.135 190.08L197.567 195.12C197.567 195.36 198.335 195.36 198.479 195.36L208.607 195.168H210.047C210.191 195.168 211.583 195.168 211.535 194.784L211.151 189.984L210.287 178.512L209.231 164.64L208.319 152.64L208.031 148.704L207.935 147.456C207.935 147.216 207.935 147.024 207.887 146.784C207.887 146.736 207.887 146.736 207.887 146.688C207.887 146.448 207.119 146.448 206.975 146.448C206.495 146.4 206.063 146.496 205.631 146.688L195.551 151.44L194.111 152.112C193.631 152.352 194.399 152.496 194.591 152.544C195.167 152.592 195.695 152.544 196.223 152.304L206.303 147.552L207.743 146.88L205.487 146.832L205.871 151.632L206.735 163.104L207.791 176.976L208.703 189.024L208.991 192.96C208.991 193.584 209.039 194.208 209.135 194.832C209.135 194.88 209.135 194.88 209.135 194.928L210.623 194.544L200.495 194.736H199.055L199.967 194.976C199.535 190.368 199.151 185.712 198.767 181.104C198.095 173.52 197.423 165.984 196.847 158.4C196.655 156.336 196.415 154.224 196.415 152.16C196.367 151.776 193.967 151.872 193.967 152.352Z" fill="#3D3D3D"/>
<path id="Vector_60" d="M190.751 99.5996C190.751 99.5996 188.591 102.576 185.999 102.768C183.407 102.96 178.223 102.48 177.935 105.12C177.647 107.76 181.199 108.336 183.407 107.712C183.407 107.712 183.455 114.624 187.679 116.112C191.903 117.6 193.679 116.256 194.207 119.04C194.207 119.04 199.679 123.36 199.679 118.032C199.679 117.216 200.687 106.896 194.159 104.208C194.159 104.256 190.463 103.008 190.751 99.5996Z" fill="white"/>
<path id="Vector_61" d="M189.888 99.3596C189.12 100.416 188.112 101.328 186.96 101.952C185.424 102.768 183.552 102.48 181.872 102.576C180.48 102.672 178.608 102.768 177.6 103.824C176.592 104.88 177.216 106.608 178.416 107.328C180.192 108.336 182.256 108.624 184.224 108.096L182.544 107.52C182.592 110.4 183.456 113.952 186 115.584C187.2 116.256 188.496 116.736 189.888 116.976C190.416 117.072 190.992 117.168 191.568 117.264C191.952 117.36 192.336 117.408 192.768 117.456C192.96 117.456 192.72 117.456 192.672 117.408C192.768 117.552 192.912 117.6 193.008 117.744C193.248 118.08 193.248 118.656 193.488 118.944C193.776 119.184 194.064 119.424 194.4 119.568C195.696 120.384 197.472 121.296 199.056 121.008C200.544 120.768 200.544 119.136 200.64 117.936C200.784 114.72 200.592 111.312 199.104 108.384C198.624 107.424 197.952 106.56 197.184 105.792C196.752 105.408 196.272 105.024 195.744 104.736C195.504 104.592 195.264 104.448 194.976 104.352L194.544 104.16C194.256 104.064 194.256 104.064 194.544 104.16H194.4C194.16 104.064 194.496 104.208 194.304 104.112C194.112 104.016 194.16 104.064 194.016 103.968C193.632 103.728 193.248 103.488 192.912 103.2C192 102.384 191.52 101.136 191.616 99.9356C191.664 99.5036 189.936 99.2156 189.888 99.3596C189.744 101.76 191.568 103.44 193.68 104.304L193.872 104.4C194.496 104.64 193.824 104.352 194.016 104.448C194.208 104.544 194.304 104.592 194.448 104.688C195.024 105.024 195.504 105.408 195.936 105.888C196.752 106.8 197.376 107.856 197.808 109.008C198.576 111.12 198.912 113.328 198.912 115.584C198.912 116.256 198.912 116.88 198.864 117.552C198.816 118.368 198.864 119.328 198.24 120C197.952 120.288 197.568 120.48 197.136 120.432C197.088 120.432 196.944 120.432 197.04 120.432C196.992 120.432 196.896 120.384 196.848 120.384C196.944 120.432 196.704 120.336 196.704 120.336L196.416 120.192C195.888 119.952 195.408 119.616 194.976 119.28L195.072 119.424C194.832 118.176 194.112 117.552 192.912 117.12C191.52 116.688 189.984 116.688 188.592 116.256C185.952 115.536 184.944 112.608 184.512 110.16C184.368 109.488 184.32 108.768 184.272 108.048C184.272 107.664 182.88 107.376 182.592 107.472C181.488 107.76 179.904 108 179.136 106.944C178.368 105.888 178.944 104.448 180.096 103.92C181.44 103.296 183.024 103.296 184.416 103.248C185.952 103.2 187.488 103.296 188.832 102.48C189.936 101.856 190.848 100.992 191.568 99.9356C191.664 99.7916 190.128 99.0236 189.888 99.3596Z" fill="#3D3D3D"/>
<path id="Vector_62" d="M201.504 112.368C201.504 112.368 204.96 113.76 205.776 111.888C206.592 110.016 204.24 110.208 204.24 110.208C204.24 110.208 207.36 106.608 203.808 105.408C203.808 105.408 207.216 102.816 205.152 99.696C203.088 96.576 198.144 97.824 198.144 97.824C198.144 97.824 198.816 93.552 195.024 93.6C191.232 93.648 191.856 96.384 191.856 96.384C191.856 96.384 189.456 96.384 189.216 97.872C188.976 99.36 190.656 100.176 190.656 100.176C190.656 100.176 190.8 104.496 194.112 104.304L196.56 110.016C195.792 111.168 195.6 112.656 196.176 113.952C197.184 116.064 201.36 115.152 201.504 112.368Z" fill="#3D3D3D"/>
<path id="Vector_63" d="M202.08 113.04C203.28 113.52 205.68 114.096 206.4 112.56C206.88 111.456 205.968 110.496 205.104 109.92C204.672 109.632 204.144 109.536 203.616 109.584L204.864 110.88C205.488 110.16 205.92 109.296 206.112 108.384C206.208 107.712 206.016 107.088 205.584 106.56C205.008 105.744 204.192 105.12 203.28 104.784L204.48 106.08C206.064 104.832 207.024 102.72 206.112 100.8C205.44 99.4556 204.384 98.3996 203.088 97.6796C202.032 97.1516 200.88 96.9116 199.728 96.9596C199.008 96.9596 198.288 97.0556 197.568 97.1996L198.816 98.4956C198.96 97.5836 198.864 96.6236 198.48 95.8076C198.048 94.9916 197.472 94.2716 196.704 93.6956C195.984 93.1676 195.072 92.9276 194.208 93.0236C192.768 93.1196 191.328 93.7436 191.28 95.3756C191.28 95.5196 191.28 95.6636 191.28 95.7596C191.232 95.8556 191.28 95.8076 191.088 95.8076C190.368 95.8076 189.648 96.0476 189.072 96.4796C187.536 97.9196 190.032 100.224 191.28 100.848L190.08 99.5996C190.128 100.512 190.368 101.424 190.8 102.24C191.616 103.68 193.008 105.072 194.784 104.976L193.536 103.728L194.64 106.272L195.456 108.144C195.696 108.528 195.84 108.912 195.984 109.344C195.984 109.536 195.744 109.92 195.6 110.208C195.264 111.072 195.168 112.032 195.456 112.896C195.888 114.288 197.28 115.776 198.816 115.824C200.448 115.872 202.032 114.768 202.176 113.088C202.176 112.848 201.792 112.512 201.648 112.368C201.6 112.32 200.928 111.792 200.928 111.792C200.784 113.088 199.824 114.144 198.528 114.432C197.952 114.576 197.28 114.576 196.704 114.336C196.512 114.24 196.224 113.952 196.656 114.432C197.088 114.912 196.8 114.432 196.704 114.192C196.512 113.664 196.464 113.088 196.56 112.512C196.704 111.888 196.896 111.312 197.184 110.784C197.232 110.592 197.232 110.592 197.136 110.4L195.84 107.472L194.736 104.928C194.592 104.64 194.352 104.352 194.112 104.16C193.968 104.016 193.68 103.68 193.488 103.68C193.152 103.68 192.768 103.68 192.432 103.584C192.192 103.488 191.952 103.296 191.712 103.2C192.192 103.344 192.192 103.776 192 103.44C191.952 103.296 191.856 103.2 191.808 103.056C191.712 102.864 191.616 102.624 191.568 102.432C191.376 101.904 191.28 101.376 191.28 100.8C191.28 100.608 190.848 100.224 190.752 100.128C190.56 99.8876 190.368 99.6956 190.08 99.5516L189.84 99.4076C189.792 99.3596 189.696 99.2636 189.648 99.2636C189.984 99.6956 190.08 99.7436 189.936 99.4556C189.888 99.3596 189.888 99.3116 189.84 99.2156C189.696 98.6396 189.888 98.0636 190.32 97.7276C190.944 97.2956 191.712 97.0556 192.48 97.1036V97.0556C192.048 95.0396 194.352 94.2236 195.936 94.3196C196.272 94.3196 196.608 94.4156 196.944 94.5116C197.088 94.5596 197.184 94.6076 197.328 94.6556C197.664 94.7996 197.28 94.8956 197.04 94.2716C197.232 94.6556 197.424 95.0876 197.52 95.5196C197.616 96.0476 197.616 96.6236 197.568 97.1516C197.52 97.3916 198.576 98.5436 198.816 98.4476C200.64 98.0156 202.896 98.0156 204.48 99.0716C204.576 99.1196 204.624 99.1676 204.72 99.2156C204.624 99.0716 204.576 99.0236 204.624 99.1196C204.72 99.3116 204.864 99.4556 204.912 99.6476C205.104 100.032 205.2 100.464 205.2 100.848C205.248 101.568 205.056 102.24 204.72 102.864C204.336 103.536 203.856 104.16 203.232 104.688C203.088 104.784 204.24 105.936 204.432 105.984C204.624 106.032 204.816 106.176 205.008 106.224L205.152 106.32C204.768 105.792 204.624 105.648 204.768 105.936C204.864 106.176 204.864 106.416 204.912 106.704C204.864 107.136 204.768 107.568 204.576 108C204.336 108.528 204 109.008 203.616 109.488C203.472 109.632 204.624 110.832 204.864 110.784C205.248 110.784 205.632 110.832 205.968 110.976C206.208 111.12 206.112 110.976 205.68 110.592C205.344 110.16 205.248 110.016 205.296 110.256C205.296 110.304 205.344 110.448 205.344 110.544C205.344 110.784 205.248 110.976 205.152 111.168C205.008 111.504 204.768 111.744 204.432 111.936C203.376 112.464 201.936 112.08 200.928 111.648C200.784 111.6 201.216 112.176 201.264 112.224C201.504 112.56 201.744 112.848 202.08 113.04Z" fill="#3D3D3D"/>
<path id="Vector_64" d="M192.527 105.936C192.527 105.936 194.351 102.192 196.367 103.056C198.383 103.92 198.335 110.496 194.639 109.872" fill="white"/>
<path id="Vector_65" d="M193.439 105.984C193.775 105.312 194.159 104.736 194.639 104.16C194.927 103.776 195.311 103.488 195.743 103.248C195.743 103.248 195.983 103.152 195.791 103.2C195.839 103.2 196.031 103.152 195.839 103.2C195.743 103.2 195.647 103.2 195.599 103.2C195.695 103.248 195.839 103.296 195.935 103.392C196.463 103.968 196.799 104.736 196.847 105.504C196.991 106.464 196.847 107.376 196.511 108.288C196.319 108.672 196.079 109.056 195.743 109.344L195.599 109.44C195.455 109.536 195.599 109.44 195.503 109.488L195.407 109.536H195.455C195.407 109.536 195.407 109.536 195.359 109.584C195.167 109.584 195.551 109.584 195.359 109.584C195.167 109.584 195.599 109.584 195.311 109.584C195.023 109.584 195.503 109.584 195.311 109.584C195.215 109.584 195.215 109.584 195.359 109.584H195.215C194.783 109.488 194.351 109.536 193.967 109.728C193.679 109.968 194.111 110.16 194.303 110.16C195.599 110.4 197.087 110.16 197.903 109.008C198.479 108.096 198.767 106.992 198.671 105.936C198.623 105.024 198.431 103.872 197.711 103.248C196.655 102.24 194.735 102.528 193.679 103.392C192.863 104.064 192.191 104.928 191.759 105.936C191.567 106.368 193.295 106.512 193.487 106.032L193.439 105.984Z" fill="#3D3D3D"/>
<path id="Vector_66" d="M188.975 103.92C188.735 103.968 188.543 104.208 188.591 104.496V104.544C188.735 105.072 189.359 104.832 189.359 104.4C189.407 104.16 189.215 103.968 189.023 103.92C189.023 103.92 189.023 103.92 188.975 103.92Z" fill="#3D3D3D"/>
<path id="Vector_67" d="M209.855 146.303C209.855 146.303 204.911 112.607 195.551 115.727C186.191 118.847 184.607 151.151 184.607 151.151C184.607 151.151 200.735 158.591 209.855 146.303Z" fill="white"/>
<path id="Vector_68" d="M210.767 146.208C210.239 142.464 209.423 138.72 208.559 135.072C207.839 131.952 206.927 128.832 205.823 125.808C204.863 123.168 203.759 120.48 202.031 118.224C200.783 116.592 199.199 115.248 196.991 115.344C194.399 115.44 192.479 116.832 191.039 118.896C189.359 121.344 188.303 124.176 187.487 127.008C186.527 130.32 185.807 133.68 185.279 137.088C184.799 140.064 184.415 143.088 184.127 146.112C183.935 147.744 183.791 149.376 183.743 151.056C183.743 151.152 183.743 151.2 183.743 151.296L183.791 151.344C185.855 152.256 187.967 152.88 190.175 153.216C194.639 153.984 199.487 153.744 203.711 151.92C206.495 150.624 208.895 148.704 210.767 146.208C210.863 146.064 210.143 146.16 210.095 146.16C209.855 146.16 209.183 146.208 209.039 146.4C205.919 150.576 201.263 153.168 196.031 153.168C192.671 153.168 189.311 152.496 186.191 151.248C186.047 151.2 185.615 151.104 185.519 150.96C185.567 151.008 185.567 150.816 185.567 150.72C185.615 149.856 185.663 149.04 185.759 148.224C186.047 144.768 186.431 141.312 186.959 137.856C187.535 133.584 188.495 129.408 189.791 125.28C190.799 122.16 192.191 118.512 194.879 116.496C195.119 116.304 195.407 116.16 195.647 116.016C195.839 115.92 196.271 115.776 196.367 115.728C196.463 115.68 196.223 115.776 196.271 115.728C196.175 115.776 196.271 115.728 196.415 115.728C196.655 115.776 196.895 115.824 197.087 115.872C198.287 116.304 199.295 117.12 200.015 118.128C202.271 120.912 203.567 124.464 204.671 127.776C205.871 131.472 206.879 135.264 207.647 139.104C208.127 141.408 208.559 143.76 208.943 146.064C208.943 146.16 208.991 146.304 208.991 146.4C208.991 146.688 210.767 146.448 210.767 146.208Z" fill="#3D3D3D"/>
<path id="Vector_69" d="M190.56 127.536L189.216 117.792C191.568 116.448 195.504 113.76 193.776 113.376C192.048 112.992 189.024 114.432 189.024 114.432C185.52 112.992 184.992 107.376 184.512 106.944C183.216 105.648 182.736 108.816 182.736 108.816C180.768 108.288 180.96 111.696 180.96 111.696C178.56 110.64 179.328 119.52 182.352 120.528C182.352 120.528 180.24 133.68 186.816 139.632C193.392 145.584 200.064 130.992 200.064 130.992L193.488 123.312L190.56 127.536Z" fill="white"/>
<path id="Vector_70" d="M191.327 127.824L189.983 118.08L189.791 118.464C191.087 117.744 192.335 116.88 193.487 115.968C194.159 115.44 195.311 114.576 194.831 113.616C194.207 112.32 192.431 112.512 191.279 112.8C190.319 113.04 189.359 113.328 188.447 113.76L188.975 113.808C187.103 112.992 186.335 110.64 185.807 108.816C185.663 108.144 185.471 107.52 185.183 106.944C184.703 106.176 183.455 105.504 182.735 106.32C182.303 106.896 182.015 107.616 181.967 108.336L182.495 108.096C180.527 107.616 180.095 109.92 180.191 111.36L180.911 111.024C179.231 110.352 178.799 112.176 178.751 113.424C178.655 115.392 179.135 117.312 180.095 119.04C180.575 120 181.391 120.72 182.399 121.152L181.583 120.048C181.295 121.872 181.199 123.744 181.247 125.616C181.295 129.168 181.871 132.864 183.455 136.08C184.847 138.864 187.583 142.176 191.039 141.744C193.823 141.408 195.983 138.96 197.567 136.848C198.815 135.168 199.919 133.344 200.783 131.424C200.879 131.184 200.687 130.896 200.543 130.752L193.967 123.072C193.775 122.88 193.055 122.304 192.767 122.736L189.839 126.96C189.407 127.584 190.799 128.688 191.231 128.112L194.159 123.84L192.959 123.456L199.535 131.136L199.295 130.464C198.623 131.856 197.855 133.2 196.991 134.496C195.599 136.608 193.823 138.96 191.375 139.968C190.367 140.448 189.215 140.448 188.207 139.968C186.863 139.296 185.855 137.904 185.135 136.656C183.455 133.728 182.927 130.272 182.783 126.96C182.687 124.944 182.783 122.928 183.071 120.96C183.071 120.48 182.735 120 182.255 119.856C182.015 119.808 181.823 119.664 181.679 119.424C181.439 119.136 181.247 118.8 181.103 118.416C180.719 117.504 180.479 116.592 180.335 115.584C180.191 114.768 180.239 113.904 180.383 113.088C180.431 112.848 180.527 112.56 180.719 112.368C180.815 112.272 180.719 112.32 180.815 112.32C180.911 112.32 180.959 112.272 180.863 112.272C181.007 112.272 180.911 112.272 181.007 112.272C181.295 112.416 181.727 112.368 181.727 111.936C181.679 111.12 181.775 109.152 182.975 109.44C183.167 109.488 183.455 109.44 183.503 109.2C183.551 108.72 183.695 108.288 183.887 107.856C183.935 107.76 184.319 107.328 184.319 107.328C184.319 107.472 183.887 106.992 183.935 107.04C183.983 107.088 183.935 107.136 183.935 106.992C183.935 107.04 183.983 107.088 183.983 107.136C184.367 108.576 184.847 110.016 185.471 111.408C185.903 112.32 186.479 113.088 187.199 113.808C187.727 114.336 188.879 115.344 189.647 115.104C190.319 114.912 190.895 114.576 191.567 114.384C192.047 114.24 192.527 114.144 193.007 114.048C193.247 114 193.487 114 193.727 114C193.775 114 193.871 114 193.919 114.048C194.063 114.096 194.063 114.096 194.015 114.048C193.727 113.952 193.535 113.712 193.487 113.424C193.535 113.376 193.439 113.52 193.391 113.616C193.295 113.76 193.151 113.904 193.055 114.048C192.671 114.432 192.287 114.768 191.855 115.104C190.847 115.872 189.839 116.544 188.735 117.168C188.591 117.216 188.543 117.36 188.543 117.552L189.887 127.248C189.983 127.68 190.271 128.064 190.703 128.208C190.895 128.256 191.375 128.256 191.327 127.824Z" fill="#3D3D3D"/>
<path id="Vector_71" d="M183.743 114.815C183.743 114.815 182.255 110.927 182.783 108.815L183.743 114.815Z" fill="white"/>
<path id="Vector_72" d="M184.511 114.624C184.415 114.432 184.367 114.192 184.271 114C184.175 113.808 184.127 113.52 184.031 113.328C184.031 113.28 183.983 113.184 183.983 113.136C183.935 112.944 184.031 113.28 183.983 113.088C183.935 112.944 183.887 112.8 183.887 112.656C183.743 112.032 183.599 111.36 183.551 110.736C183.551 110.592 183.503 110.448 183.503 110.304C183.503 110.16 183.503 110.112 183.503 110.064C183.503 110.016 183.503 110.016 183.503 109.968C183.503 109.68 183.551 109.392 183.599 109.104C183.791 108.192 182.111 107.664 181.871 108.672C181.583 109.968 181.871 111.36 182.159 112.656C182.351 113.472 182.591 114.288 182.879 115.056C183.071 115.488 183.551 115.728 184.031 115.632C184.415 115.584 184.607 115.2 184.559 114.864C184.607 114.72 184.559 114.672 184.511 114.624Z" fill="#3D3D3D"/>
<path id="Vector_73" d="M180.959 111.695C180.959 112.895 181.103 114.143 181.439 115.295L180.959 111.695Z" fill="white"/>
<path id="Vector_74" d="M180.191 111.216C180.191 111.648 180.239 112.128 180.239 112.56C180.287 113.376 180.431 114.192 180.671 114.96C180.767 115.152 180.863 115.296 181.007 115.392C181.199 115.536 181.391 115.68 181.583 115.776C181.775 115.872 182.207 116.016 182.111 115.632C182.015 115.296 181.919 114.96 181.871 114.624C181.823 114.24 181.775 113.856 181.727 113.472C181.679 113.088 181.679 112.608 181.679 112.176C181.631 112.032 181.583 111.888 181.439 111.792C181.295 111.6 181.103 111.456 180.911 111.36C180.815 111.264 180.191 110.928 180.191 111.216Z" fill="#3D3D3D"/>
<path id="Vector_75" d="M204.143 157.152C203.951 158.208 203.663 159.264 203.327 160.272C202.751 162.192 202.127 164.064 201.551 165.936C200.207 170.064 198.815 174.192 197.375 178.32C196.943 179.52 196.559 180.768 196.031 181.968C195.887 182.256 196.847 181.92 196.943 181.92C197.279 181.776 198.047 181.536 198.191 181.152C199.391 178.32 200.303 175.296 201.263 172.416C202.655 168.288 204.047 164.16 205.343 159.936C205.775 158.688 206.111 157.44 206.351 156.144C206.351 155.952 205.247 156.384 205.151 156.432C204.863 156.528 204.143 156.816 204.143 157.152Z" fill="white"/>
<path id="Vector_76" d="M192.239 87.3592C191.663 84.4312 192.191 81.3592 192.335 78.3832C192.479 75.4072 192.095 72.0952 190.079 69.8872C187.679 67.4392 183.887 66.9592 181.007 68.8312C179.663 69.7432 178.751 71.9512 180.095 72.8632C180.575 73.1512 181.151 73.2472 181.679 73.1032C184.031 72.6712 185.279 69.9352 185.039 67.5352C184.655 62.6872 179.135 58.9432 174.479 60.3832" fill="white"/>
<path id="Vector_77" d="M193.343 87.4559C192.431 82.5599 194.447 77.5199 192.815 72.6719C192.191 70.6559 190.799 69.0239 188.927 68.0639C187.007 67.1039 184.799 66.8639 182.687 67.2959C180.815 67.7279 178.943 68.7839 178.367 70.7039C177.647 73.1519 180.383 74.1119 182.351 73.6319C184.319 73.1519 185.471 71.6159 185.951 69.7919C186.383 68.0159 186.143 66.0959 185.231 64.5119C183.071 60.6719 178.175 58.6079 173.951 59.8559C173.567 59.9519 173.135 60.2399 173.471 60.6719C173.903 61.0079 174.479 61.1519 175.007 61.0079C177.791 60.1919 180.623 61.5839 182.303 63.7919C183.983 65.9999 184.655 69.8399 182.351 71.9519C182.111 72.1919 181.823 72.3359 181.535 72.4799C181.343 72.5759 181.103 72.6239 180.911 72.6239C180.383 72.3359 180.479 71.4719 180.623 70.9919C181.103 69.5519 182.543 68.7359 183.983 68.4959C185.375 68.2559 186.815 68.5919 187.967 69.3599C189.407 70.3199 190.223 71.9039 190.655 73.4879C191.903 78.0479 190.127 82.7999 190.943 87.4079C191.183 88.1759 193.487 88.1759 193.343 87.4559Z" fill="#3D3D3D"/>
</g>
</g>
</svg>
