<svg width="240" height="240" viewBox="0 0 240 240" fill="none" xmlns="http://www.w3.org/2000/svg">
<path d="M82.4641 61.4401L73.3441 54.4321L56.0161 70.1761L82.4641 61.4401Z" fill="#CECECE"/>
<path d="M83.328 60.6723L75.36 54.5763L74.208 53.7123C73.872 53.4723 73.008 54.0483 72.816 54.2403L66.96 59.5203L57.6 68.0643L55.44 70.0323C55.248 70.1763 54.816 70.5603 54.96 70.8483C55.104 71.1363 55.488 70.9923 55.728 70.9443L64.656 67.9683L78.912 63.2643L82.224 62.1603C82.656 62.0163 83.376 61.5843 83.472 61.1043C83.568 60.6243 83.04 60.6723 82.752 60.7683L73.824 63.7443L59.568 68.4483L56.256 69.5523L56.496 70.4643L62.352 65.1363L71.712 56.6403L73.872 54.7203L72.48 55.2003L80.448 61.2963L81.6 62.1603C82.08 62.5443 84 61.1523 83.328 60.6723Z" fill="#CECECE"/>
<path d="M74.7358 61.5839L82.4638 61.4399L75.4558 64.4159L74.7358 61.5839Z" fill="white"/>
<path d="M75.7441 61.8245L82.4641 61.6805H83.4241L81.2641 61.2005L75.1681 63.8405L74.3041 64.2245L76.6081 64.6565L75.8881 61.8245C75.8401 61.6325 74.9281 61.5365 74.7361 61.4885C74.3521 61.4405 73.9201 61.3925 73.5361 61.3925L74.2561 64.2245C74.3041 64.4165 75.1201 64.5125 75.2641 64.5125C75.5041 64.5605 75.7921 64.6085 76.0321 64.6085C76.2241 64.6565 76.4161 64.6565 76.6081 64.6085L82.7041 61.9685L83.5681 61.5845C83.7121 61.5365 82.9441 61.2965 82.8961 61.2965C82.4161 61.1525 81.8881 61.1045 81.4081 61.1045L74.6881 61.2485H73.7281C73.2481 61.2485 74.0641 61.4885 74.1121 61.4885C74.6881 61.7285 75.2161 61.8245 75.7441 61.8245Z" fill="#CECECE"/>
<path d="M73.3439 54.4323L71.3759 47.7603L51.9839 72.7203L78.0479 74.6883L74.7359 61.5843L56.0159 70.1763L73.3439 54.4323Z" fill="white"/>
<path d="M74.3519 54.1923L72.3839 47.5202C72.1919 46.8482 71.0879 46.1762 70.5599 46.8962L63.9839 55.3922L53.5679 68.7843L51.1679 71.8562C50.7839 72.4322 50.9279 73.2482 51.5039 73.6322C51.6959 73.7282 51.8879 73.8242 52.0799 73.8242L60.8639 74.4962L74.8799 75.5522L78.0959 75.7922C78.9119 75.8402 79.1519 75.0242 79.0079 74.4002L76.1279 62.9283L75.6959 61.3442C75.5519 60.7203 74.8799 60.3362 74.2559 60.4802C74.2079 60.4802 74.1119 60.5282 74.0639 60.5282L67.7279 63.4083L57.6479 68.0162L55.2959 69.0722L56.7359 70.9443L62.5919 65.6162L71.9519 57.1202L74.1119 55.2002C75.0719 54.3362 73.4879 52.5603 72.4319 53.4722L66.5759 58.8002L57.2159 67.2962L55.0559 69.2162C54.6239 69.6002 54.8159 70.3682 55.1039 70.7043C55.3919 71.1362 56.0159 71.3283 56.4959 71.0883L62.8319 68.2083L72.9119 63.6002L75.2639 62.5443L73.6319 61.7762L76.5119 73.2483L76.8959 74.8322L77.8079 73.4402L69.0239 72.7683L55.0079 71.7122L51.7919 71.4722L52.7039 73.4883L59.2799 64.9922L69.6959 51.6002L72.0959 48.5282L70.2719 47.9043L72.2399 54.5762C72.4319 55.2002 73.0079 55.5362 73.6319 55.4882C74.1599 55.2962 74.4959 54.7203 74.3039 54.1923C74.3999 54.2403 74.3519 54.1923 74.3519 54.1923Z" fill="#CECECE"/>
<path d="M90.72 59.04C95.184 51.696 101.952 46.032 109.632 42.336C117.696 38.448 126.528 36.528 135.456 36.72C140.352 36.816 145.44 37.68 149.712 40.224C153.168 42.288 156.192 45.408 157.44 49.296C158.16 51.504 158.304 54.048 157.152 56.112C156.24 57.792 154.368 59.136 152.4 59.088C151.968 59.088 151.536 58.992 151.152 58.848C150.48 58.56 151.248 58.944 151.056 58.992C151.104 58.992 151.344 58.32 151.392 58.272C151.968 57.552 152.688 57.024 153.552 56.736C155.328 56.112 157.248 56.208 158.976 56.976C162.912 58.656 164.4 63.456 165.216 67.296C165.984 71.088 166.176 75.504 164.16 78.912C163.68 79.776 163.008 80.496 162.288 81.12C161.472 81.792 162.912 83.712 163.68 83.04C167.28 80.016 167.952 75.072 167.52 70.656C167.04 65.856 165.552 60.432 162 57.024C159.024 54.144 153.408 52.752 150.192 56.16C149.232 57.168 148.944 58.512 149.808 59.712C150.528 60.72 151.92 61.2 153.072 61.2C155.328 61.2 157.392 60.096 158.64 58.224C160.08 55.968 160.128 53.088 159.552 50.592C158.976 48.192 157.872 45.936 156.336 43.968C153.168 39.984 148.848 37.152 143.904 35.856C138.576 34.368 132.96 34.368 127.536 34.944C122.784 35.472 118.128 36.528 113.664 38.16C104.784 41.376 96.624 46.848 91.056 54.528C90.384 55.488 89.712 56.448 89.136 57.456C88.56 58.224 90.192 60 90.72 59.04Z" fill="#CECECE"/>
<path d="M102.72 111.12C102.72 111.12 135.792 117.024 143.424 109.824C143.424 109.824 135.936 85.6319 132.48 80.8799C129.024 76.1279 113.712 78.4319 107.808 83.3759C101.904 88.3199 102.72 111.12 102.72 111.12Z" fill="white"/>
<path d="M103.584 111.648C107.472 112.32 111.408 112.848 115.344 113.232C122.304 113.952 129.504 114.432 136.464 113.376C139.248 112.944 142.416 112.272 144.528 110.304V110.256C143.184 105.888 141.744 101.52 140.208 97.1999C139.056 93.8879 137.856 90.6239 136.56 87.4079C136.032 86.1119 135.504 84.8159 134.88 83.5679C134.496 82.6079 133.92 81.7439 133.248 80.9279C132.096 79.6799 130.32 78.9599 128.736 78.4319C127.104 77.9519 125.376 77.7119 123.696 77.7599C119.664 77.7599 115.68 78.5279 111.936 80.0159C110.304 80.6399 108.768 81.4559 107.328 82.4639C106.32 83.1839 105.552 84.1919 104.976 85.2959C103.536 88.0799 102.96 91.2959 102.48 94.3679C101.76 99.6959 101.472 105.024 101.616 110.4C101.616 110.496 101.616 110.592 101.616 110.688C101.616 110.976 102.432 111.264 102.624 111.36C102.672 111.408 103.776 111.84 103.776 111.696C103.68 108.864 103.728 106.032 103.872 103.2C104.112 98.3039 104.544 93.1199 106.176 88.4639C106.8 86.6879 107.664 84.9119 109.152 83.7119C111.264 82.0319 113.904 80.9759 116.496 80.2559C119.328 79.3919 122.256 78.9599 125.232 78.9119C126.528 78.8639 127.872 79.0079 129.12 79.2479C129.36 79.2959 129.6 79.3439 129.84 79.4399L130.128 79.5359L130.272 79.5839C130.368 79.6319 130.176 79.5359 130.368 79.6319C130.176 79.5359 130.32 79.6319 130.368 79.6319L130.32 79.5839C130.176 79.4879 130.464 79.6799 130.32 79.5839L130.464 79.6799L130.56 79.7759C130.656 79.8719 130.752 79.9199 130.848 80.0159C131.376 80.5439 131.76 81.1199 132.096 81.7919C132.528 82.5599 132.912 83.4239 133.296 84.2399C134.256 86.3999 135.12 88.6079 135.936 90.8159C137.664 95.5199 139.296 100.224 140.832 104.976C141.264 106.32 141.696 107.664 142.128 109.008C142.176 109.152 142.224 109.296 142.272 109.44C142.272 109.632 142.32 109.536 142.08 109.68C141.408 110.16 140.736 110.592 140.016 110.976C138.144 111.792 136.128 112.32 134.112 112.56C131.664 112.896 129.168 113.04 126.672 113.04C121.584 113.04 116.496 112.752 111.408 112.128C108.336 111.792 105.216 111.36 102.144 110.832L101.712 110.736C101.232 110.64 101.904 111.12 102 111.168C102.528 111.312 103.056 111.504 103.584 111.648Z" fill="#3D3D3D"/>
<path d="M133.824 104.208L133.392 111.312C133.392 111.84 133.584 112.32 133.872 112.704C133.968 112.944 134.112 113.136 134.304 113.28C134.352 113.328 134.544 113.472 134.544 113.28L134.976 106.176C134.976 105.648 134.784 105.168 134.496 104.784C134.4 104.544 134.256 104.352 134.064 104.208C134.016 104.16 133.824 104.016 133.824 104.208Z" fill="#3D3D3D"/>
<path d="M109.488 96.1441C109.488 96.1441 108.048 91.8241 106.272 93.0241C104.496 94.2241 107.184 102.48 109.968 100.608C112.752 98.7361 109.488 96.1441 109.488 96.1441Z" fill="white"/>
<path d="M110.688 96.0482C110.496 95.5202 110.304 95.0402 110.064 94.5602C109.728 93.7922 109.2 93.1202 108.48 92.6402C107.472 92.1122 105.744 92.2082 104.928 93.1202C104.592 93.6482 104.4 94.2722 104.496 94.9442C104.544 96.6722 105.12 98.4002 106.128 99.8402C106.56 100.512 107.184 100.992 107.904 101.232C109.104 101.568 110.4 101.28 111.36 100.464C111.84 100.08 112.176 99.5522 112.272 98.9282C112.32 98.4002 112.176 97.8722 111.888 97.4402C111.552 96.8642 111.12 96.3362 110.64 95.9522C110.208 95.6642 109.632 95.6162 109.152 95.7602C109.008 95.8082 108 96.0962 108.384 96.3842C109.2 97.0082 110.16 98.2082 109.872 99.3122C109.728 99.7442 109.44 100.128 109.008 100.416L108.864 100.512C108.912 100.512 109.008 100.416 108.912 100.512C108.816 100.608 108.864 100.512 108.816 100.56C108.768 100.608 109.008 100.464 108.912 100.512H108.96C109.296 100.464 108.768 100.56 109.104 100.464C109.44 100.368 108.912 100.464 109.296 100.464C109.68 100.464 109.056 100.416 109.536 100.464C109.344 100.464 109.584 100.464 109.584 100.464C109.392 100.416 109.536 100.416 109.536 100.464C109.44 100.416 109.296 100.32 109.2 100.272C109.104 100.224 109.296 100.32 109.2 100.272L109.104 100.224L108.96 100.08C108.816 99.9362 108.72 99.8402 108.624 99.6962C107.712 98.4962 107.184 97.1042 106.992 95.6162C106.944 95.2802 106.896 94.9442 106.944 94.6082C106.944 94.3682 106.992 94.0802 107.04 93.8402C107.088 93.7442 107.136 93.6002 107.184 93.5042C107.232 93.4562 107.424 93.2162 107.28 93.3122C107.328 93.2642 107.376 93.2642 107.376 93.2162C107.232 93.3122 107.52 93.2162 107.376 93.2162C107.136 93.2642 106.896 93.3122 106.608 93.3122C106.512 93.3122 106.464 93.3122 106.368 93.2642C106.416 93.2642 106.56 93.3602 106.368 93.2642C106.656 93.4082 106.896 93.6482 107.088 93.9362C107.328 94.2722 107.568 94.6082 107.712 94.9922C107.952 95.4242 108.096 95.8562 108.288 96.2882C108.528 96.9602 110.88 96.5282 110.688 96.0482Z" fill="#3D3D3D"/>
<path d="M133.968 96.4801C133.968 96.4801 136.08 92.4481 137.664 93.9361C139.248 95.4241 135.216 103.104 132.768 100.8C130.32 98.4961 133.968 96.4801 133.968 96.4801Z" fill="white"/>
<path d="M134.784 97.2959C134.976 96.9119 135.216 96.5759 135.456 96.2399C135.648 95.9519 135.888 95.6639 136.128 95.4239C136.368 95.1839 136.656 94.9439 136.944 94.7519C137.088 94.7039 136.896 94.7519 137.04 94.7039C137.136 94.7039 137.184 94.6559 137.28 94.6559C137.328 94.6559 137.52 94.6559 137.328 94.6559C137.424 94.6559 137.664 94.7519 137.424 94.6559C137.328 94.5599 137.664 94.7519 137.424 94.6559C137.184 94.4639 137.28 94.5599 137.328 94.6079C137.376 94.6559 137.136 94.4159 137.184 94.4639C137.28 94.6079 136.992 94.1759 137.088 94.3199C137.088 94.3679 137.136 94.4639 137.088 94.2719C136.944 93.9839 137.136 94.5119 137.088 94.2239C137.04 94.0319 137.088 94.2719 137.088 94.3199C137.088 94.3679 137.088 94.5599 137.088 94.3199C137.088 94.4639 137.088 94.6079 137.088 94.7519C137.088 94.8959 137.04 95.0399 137.04 95.1839C137.04 95.2319 137.04 95.2799 137.04 95.2799C137.04 95.1839 137.04 95.3759 137.04 95.2799C137.04 95.3759 136.992 95.4719 136.992 95.5679C136.608 97.0079 135.888 98.3519 134.832 99.4559C134.592 99.6959 134.352 99.8879 134.112 100.032L133.92 100.128C133.872 100.128 133.68 100.224 133.824 100.176C133.68 100.224 133.584 100.272 133.44 100.272H133.248C133.056 100.272 133.296 100.32 133.2 100.272C133.152 100.272 133.056 100.224 133.008 100.224C132.864 100.224 133.2 100.272 132.96 100.224C132.816 100.176 133.104 100.368 132.96 100.224C132.912 100.176 132.912 100.176 132.864 100.128C132.864 100.128 133.056 100.32 132.96 100.224C132.912 100.176 132.864 100.128 132.816 100.08C132.864 100.128 132.96 100.272 132.816 100.08C132.768 100.032 132.72 99.9839 132.72 99.9359C132.816 100.08 132.816 100.08 132.768 100.032C132.768 99.9839 132.72 99.9839 132.72 99.9359C132.72 99.9839 132.864 100.128 132.768 99.9839C132.672 99.8399 132.768 100.128 132.768 99.9839C132.768 99.9359 132.768 99.8879 132.768 99.8399C132.816 99.9839 132.768 99.8879 132.768 99.7919C132.768 99.6959 132.768 99.5039 132.768 99.5519C132.768 99.5999 132.768 99.4559 132.768 99.4559C132.768 99.4559 132.816 99.3599 132.816 99.3119C132.96 98.9759 133.152 98.6399 133.44 98.3999C133.776 98.0159 134.208 97.6799 134.64 97.4399C134.784 97.3439 134.784 97.0559 134.736 96.9119C134.688 96.6239 134.544 96.3839 134.352 96.1439C134.112 95.8559 133.584 95.3279 133.152 95.5679C131.904 96.2879 130.704 97.6319 131.04 99.1679C131.28 99.9839 131.712 100.704 132.288 101.28C132.672 101.712 133.152 102 133.68 102.192C134.4 102.336 135.12 102.192 135.648 101.712C136.32 101.184 136.896 100.512 137.328 99.7919C137.808 99.0239 138.192 98.2559 138.432 97.3919C138.72 96.6239 138.816 95.8079 138.672 94.9919C138.48 93.9359 137.568 92.7839 136.464 92.5919C135.456 92.4479 134.64 93.2639 134.064 93.9839C133.632 94.5119 133.296 95.0399 132.96 95.6639C132.72 96.3839 134.352 98.1119 134.784 97.2959Z" fill="#3D3D3D"/>
<path d="M116.304 106.032L114.144 112.032C114.144 112.032 118.464 118.8 125.232 113.184L125.136 108.096L116.304 106.032Z" fill="white"/>
<path d="M115.392 105.36L113.76 109.824C113.52 110.4 113.28 110.976 113.184 111.6C113.088 112.272 113.616 112.848 114.048 113.328C115.248 114.816 116.928 115.92 118.8 116.352C120.048 116.592 121.344 116.496 122.544 116.064C123.312 115.824 124.032 115.44 124.704 115.008C125.088 114.768 125.424 114.48 125.76 114.192C126.048 113.952 126.24 113.616 126.192 113.232C126.144 111.552 126.096 109.872 126.096 108.192C126.048 107.568 125.616 107.088 124.992 106.944L116.16 104.928C115.584 104.784 115.296 105.408 115.344 105.888C115.392 106.512 115.824 106.992 116.448 107.136L125.28 109.152L124.176 107.904L124.272 112.992L124.656 112.08C123.456 113.184 121.968 113.904 120.336 114.192C119.28 114.336 118.224 114.144 117.264 113.616C116.88 113.424 116.544 113.184 116.256 112.944L115.968 112.704C115.92 112.656 115.632 112.416 115.872 112.656C115.728 112.512 115.584 112.368 115.44 112.224C115.296 112.08 115.056 111.792 114.912 111.6C114.672 111.312 115.104 111.888 114.864 111.552L115.008 112.656L117.168 106.656C117.312 106.08 117.12 105.456 116.64 105.072C116.256 104.832 115.632 104.784 115.392 105.36Z" fill="#3D3D3D"/>
<path d="M109.248 94.3678C109.248 94.3678 108.528 107.328 117.984 110.688C129.792 114.864 135.84 101.616 135.264 91.5838C135.264 91.5838 126.096 89.5198 124.416 83.8078C124.464 83.7598 114.624 95.2798 109.248 94.3678Z" fill="white"/>
<path d="M108.576 93.4078C108.528 95.1838 108.672 96.9598 109.008 98.6878C109.632 102.384 111.36 105.84 113.904 108.576C116.64 111.456 120.912 112.992 124.896 112.272C128.64 111.552 131.424 108.72 133.152 105.504C135.264 101.472 136.272 96.9598 135.984 92.4478C135.888 92.0638 135.744 91.6798 135.504 91.3918C135.36 91.1518 135.024 90.5758 134.736 90.5278C133.248 90.1918 131.808 89.6638 130.416 89.0398C129.216 88.5118 128.064 87.7918 127.008 86.9758C126.528 86.5918 126.048 86.1118 125.664 85.6318L125.472 85.3438C125.328 85.1038 125.232 84.8158 125.136 84.5278C125.088 84.3358 124.032 82.4638 123.792 82.7038C122.64 84.0478 121.392 85.2958 120.144 86.5438C117.936 88.7038 115.488 90.8638 112.752 92.3038C111.504 92.9278 110.064 93.5518 108.672 93.3118C108.384 93.2638 108.864 94.0798 108.864 94.1758C109.008 94.4638 109.44 95.2798 109.824 95.3278C112.512 95.7598 115.296 93.7438 117.312 92.2078C119.664 90.3838 121.824 88.3678 123.84 86.1598C124.272 85.6798 124.704 85.1998 125.136 84.7198L123.792 82.8958C125.28 87.7918 129.936 90.6718 134.544 92.1118C134.976 92.2558 135.408 92.3998 135.84 92.4958L134.592 90.5758C134.784 94.4158 134.112 98.3038 132.624 101.856C131.232 105.072 128.976 108.144 125.712 109.584C122.256 111.12 117.888 110.448 114.768 108.288C114.096 107.808 113.472 107.28 112.944 106.656C112.56 106.224 112.224 105.744 111.936 105.216C111.264 103.872 110.784 102.48 110.448 100.992C110.016 99.1198 109.824 97.1518 109.92 95.2318C109.92 94.7998 109.488 94.2238 109.248 93.8878C109.2 93.8878 108.576 93.1678 108.576 93.4078Z" fill="#3D3D3D"/>
<path d="M114.576 98.4002C114.528 98.7842 114.528 99.1682 114.624 99.5042C114.672 99.8402 114.816 100.128 114.96 100.416C115.056 100.608 115.2 100.752 115.392 100.896C115.584 101.04 115.776 101.184 115.968 101.28C116.304 101.424 116.688 101.52 117.072 101.568C117.504 101.616 117.984 101.568 118.416 101.472C118.656 101.424 118.896 101.28 118.992 101.04C119.088 100.848 119.088 100.608 118.944 100.416C118.752 100.224 118.512 100.032 118.272 99.9842L117.936 99.9362C117.744 99.8882 117.504 99.9362 117.312 99.9842H117.264L117.552 99.9362C117.36 99.9842 117.168 99.9842 116.976 99.9842H117.312C117.216 99.9842 117.072 99.9842 116.976 99.9362L117.264 99.9842C117.168 99.9842 117.072 99.9362 116.976 99.8882L117.264 99.9842C117.168 99.9362 117.072 99.8882 117.024 99.8882L117.264 100.032C117.168 99.9842 117.12 99.9362 117.024 99.8402L117.216 100.032C117.12 99.9362 117.024 99.7922 116.976 99.6962L117.072 99.8882C116.976 99.6482 116.88 99.3602 116.88 99.1202V99.3122C116.832 99.0722 116.832 98.8322 116.88 98.5442C116.88 98.3042 116.784 98.1122 116.592 97.9682C116.352 97.7762 116.064 97.6802 115.776 97.6802C115.344 97.7282 114.624 97.8242 114.576 98.4002Z" fill="#3D3D3D"/>
<path d="M124.128 81.8878C124.416 81.4558 124.032 81.9838 123.984 82.0798C123.744 82.4158 123.504 82.7518 123.216 83.1358C122.352 84.2398 121.44 85.2958 120.48 86.3038C117.936 88.9918 114.96 91.5358 111.456 92.8318C109.536 93.5998 107.472 93.7438 105.456 93.3118C104.976 93.2158 104.208 93.3118 103.968 93.8398C103.728 94.3678 104.304 94.7998 104.736 94.8958C112.896 96.8158 120.24 90.3358 124.944 84.4318C125.472 83.7598 125.952 83.0878 126.432 82.4158C126.768 81.9358 126 81.4558 125.664 81.3598C125.088 81.2158 124.464 81.4078 124.128 81.8878Z" fill="#3D3D3D"/>
<path d="M107.904 92.448C113.184 90.912 119.616 88.704 122.064 83.28C122.592 82.08 120.288 81.504 119.808 82.608C117.648 87.504 111.552 89.376 106.848 90.768C106.368 90.912 106.128 91.344 106.224 91.824C106.224 91.872 106.272 91.968 106.32 92.016C106.656 92.496 107.328 92.688 107.904 92.448Z" fill="#3D3D3D"/>
<path d="M106.656 90.3838C110.736 88.0318 115.104 85.4878 117.456 81.2158C118.032 80.1598 115.68 79.6318 115.2 80.5438C113.04 84.5278 108.912 86.8798 105.12 89.0878C104.784 89.2318 104.64 89.6638 104.784 89.9998C104.832 90.0958 104.928 90.1918 104.976 90.2398C105.456 90.6238 106.128 90.6718 106.656 90.3838Z" fill="#3D3D3D"/>
<path d="M126.48 84.6239C128.544 86.8319 131.232 88.4159 134.16 89.2319C134.688 89.3759 135.456 89.2319 135.648 88.7039C135.84 88.1759 135.36 87.6959 134.88 87.5999C134.544 87.5039 134.256 87.4079 133.92 87.3119L133.824 87.2639L133.584 87.1679L133.152 86.9759C132.528 86.7359 131.952 86.3999 131.376 86.0639L131.184 85.9679C131.04 85.8719 131.28 86.0159 131.136 85.9199L130.704 85.6319C130.464 85.4399 130.176 85.2479 129.936 85.0559C129.696 84.8639 129.456 84.6239 129.216 84.4319C129.12 84.3359 128.976 84.2399 128.88 84.1439L128.688 83.9519C128.688 83.9519 128.544 83.7599 128.592 83.8559C128.208 83.3759 127.536 83.2319 126.96 83.4719C126.528 83.6159 126.048 84.1919 126.48 84.6239Z" fill="#3D3D3D"/>
<path d="M124.992 100.368C124.992 100.368 131.808 99.312 133.344 95.472C134.88 91.632 130.08 91.44 125.952 95.472" fill="white"/>
<path d="M125.136 101.184C127.536 100.848 129.888 99.9357 131.904 98.5917C133.296 97.6317 134.592 96.1917 134.784 94.4157C134.928 93.6957 134.64 92.9277 134.112 92.3997C133.44 91.8717 132.624 91.6317 131.808 91.7277C129.216 91.7757 126.768 93.3597 124.992 95.0877C124.704 95.3277 124.704 95.7117 124.896 95.9997C124.992 96.0957 125.088 96.1437 125.184 96.1917C125.76 96.3837 126.384 96.2877 126.864 95.9037C127.632 95.1357 128.496 94.5117 129.408 93.9837C129.744 93.7917 130.08 93.6957 130.416 93.5517L130.704 93.4557C130.464 93.5037 130.656 93.4557 130.704 93.4557C130.944 93.4077 131.136 93.3597 131.376 93.3117C131.04 93.3597 131.52 93.3117 131.616 93.3117C131.712 93.3117 131.856 93.3597 131.616 93.3117L131.856 93.3597C131.904 93.3597 132.144 93.4557 131.856 93.3597L132.048 93.4077C132.096 93.4077 132.144 93.4557 132.144 93.4557C131.904 93.3597 132.144 93.4557 132.192 93.5037C132.24 93.5517 132.336 93.6957 132.192 93.5037C132.24 93.5517 132.288 93.5997 132.288 93.6477C132.336 93.6957 132.336 93.7437 132.384 93.7917C132.384 93.7437 132.336 93.5997 132.384 93.7437C132.432 93.8877 132.432 94.0317 132.48 94.1277C132.48 94.1277 132.48 94.3677 132.48 94.2237C132.48 94.3197 132.48 94.3677 132.432 94.4637C132.336 95.1357 132.048 95.8077 131.568 96.3357L131.52 96.3837C131.472 96.4317 131.424 96.4797 131.376 96.5277C131.232 96.6717 131.136 96.7677 130.992 96.9117C130.848 97.0557 130.752 97.1037 130.656 97.1997C130.416 97.3917 130.848 97.1037 130.608 97.2477L130.32 97.4397C130.032 97.6317 129.744 97.8237 129.456 97.9677C129.36 98.0157 129.312 98.0637 129.216 98.1117C129.12 98.1597 128.88 98.2557 129.168 98.1597L128.688 98.3997C128.112 98.6397 127.488 98.8797 126.864 99.0717C126.768 99.1197 126.192 99.3117 126.624 99.1677C126.48 99.2157 126.384 99.2157 126.24 99.2637C126 99.3117 125.76 99.3597 125.52 99.4557C125.28 99.5517 125.088 99.5517 124.848 99.5997C124.416 99.6477 123.696 100.032 123.84 100.608C123.984 101.184 124.656 101.232 125.136 101.184Z" fill="#3D3D3D"/>
<path d="M106.8 103.44L106.368 110.544C106.32 111.072 106.704 111.552 107.232 111.6C107.28 111.6 107.28 111.6 107.328 111.6C107.808 111.648 108.672 111.408 108.72 110.784L109.152 103.68C109.2 103.152 108.816 102.672 108.288 102.624C108.24 102.624 108.24 102.624 108.192 102.624C107.712 102.576 106.848 102.816 106.8 103.44Z" fill="#3D3D3D"/>
<path d="M127.392 92.0642C127.488 92.4002 127.296 92.7842 126.96 92.8802C126.912 92.8802 126.912 92.8802 126.864 92.8802C126.144 92.9762 126 92.1122 126.624 91.8242C126.864 91.6802 127.2 91.7282 127.392 91.9682C127.344 92.0162 127.344 92.0642 127.392 92.0642Z" fill="#3D3D3D"/>
<path d="M122.16 92.6882C122.256 93.0242 122.064 93.4082 121.728 93.5042C121.68 93.5042 121.68 93.5042 121.632 93.5042C120.912 93.6002 120.768 92.7362 121.344 92.4482C121.584 92.3042 121.92 92.3522 122.112 92.5922C122.112 92.6402 122.16 92.6402 122.16 92.6882Z" fill="#3D3D3D"/>
<path d="M87.072 135.12C87.072 135.12 74.256 129.024 79.92 122.88C85.584 116.736 103.344 110.304 118.8 109.104C134.256 107.904 164.352 119.184 162.528 126.192C160.704 133.2 152.88 135.36 152.88 135.36L140.832 128.928L106.896 129.216L96.672 135.312C93.456 135.888 90.192 135.792 87.072 135.12Z" fill="#3D3D3D"/>
<path d="M87.5518 134.256L87.4078 134.208L87.2158 134.112C86.9278 133.968 87.4078 134.208 87.1678 134.112C86.6878 133.824 86.1598 133.584 85.6798 133.248C84.3358 132.48 83.0878 131.52 81.9838 130.464C80.8798 129.36 79.9198 128.16 79.6798 126.672C79.5838 126 79.7278 125.328 80.0158 124.704C80.4478 123.936 80.9758 123.312 81.6478 122.736C83.1358 121.44 84.7678 120.288 86.5438 119.328C88.7518 118.08 91.0078 117.024 93.3598 116.112C98.9758 113.904 104.784 112.224 110.688 111.168C113.52 110.64 116.448 110.256 119.328 110.064C121.2 109.968 123.072 110.016 124.896 110.16C129.312 110.592 133.68 111.408 138 112.608C142.368 113.76 146.64 115.296 150.72 117.12C152.448 117.888 154.08 118.752 155.712 119.712C156.432 120.144 157.152 120.624 157.824 121.104C158.112 121.296 158.352 121.488 158.64 121.728C158.784 121.824 158.928 121.968 159.072 122.112C159.312 122.304 158.976 122.016 159.12 122.16L159.36 122.352C159.84 122.784 160.272 123.216 160.656 123.744L160.752 123.84C160.656 123.648 160.896 124.032 160.752 123.84C160.8 123.936 160.896 124.08 160.992 124.176C161.136 124.368 161.232 124.608 161.328 124.8C161.424 125.04 161.328 124.656 161.376 124.944C161.376 125.04 161.424 125.136 161.424 125.232C161.424 125.328 161.424 125.472 161.472 125.568C161.52 125.664 161.472 125.76 161.472 125.472C161.472 125.52 161.472 125.616 161.472 125.712C161.328 126.624 160.992 127.488 160.56 128.256C159.6 129.984 158.208 131.472 156.576 132.576C155.904 133.008 155.232 133.44 154.512 133.776C154.224 133.92 153.936 134.064 153.648 134.16L153.456 134.208L153.072 134.352C152.88 134.4 152.688 134.496 152.496 134.544L153.696 134.736C149.76 132.624 145.776 130.512 141.84 128.448C141.408 128.208 140.928 128.112 140.448 128.112H138.768L131.952 128.16L113.904 128.352L107.952 128.4C107.616 128.4 107.232 128.4 106.896 128.4C106.272 128.448 105.648 128.928 105.168 129.264L97.8238 133.632L96.5758 134.4C96.4798 134.448 96.3358 134.544 96.1918 134.64C96.0478 134.736 95.9038 134.736 96.3358 134.592H96.4798L96.1918 134.64C95.8078 134.688 95.4238 134.736 95.0398 134.736C93.8878 134.832 92.7838 134.88 91.6318 134.832C90.1918 134.784 88.7518 134.592 87.3598 134.256C86.7838 134.112 86.2078 134.448 86.0158 135.024C85.9198 135.648 86.5438 136.032 87.0718 136.176C89.8558 136.8 92.6878 136.944 95.5198 136.704C96.3838 136.704 97.2478 136.512 97.9678 136.08L105.36 131.664L107.76 130.224L107.184 130.368L118.656 130.272L136.944 130.08L141.12 130.032L140.208 129.792L148.896 134.448C150 135.024 151.104 135.648 152.256 136.224C153.408 136.8 155.04 135.888 156.096 135.36C158.256 134.352 160.128 132.864 161.616 131.04C162.528 129.888 163.248 128.544 163.68 127.152C163.92 126.48 164.016 125.712 163.872 125.04C163.536 123.6 162.528 122.4 161.52 121.44C160.032 120.096 158.352 118.896 156.576 117.936C151.92 115.344 146.976 113.328 141.84 111.792C136.464 110.064 130.944 108.912 125.328 108.384C118.944 107.856 112.56 108.768 106.32 110.208C99.5038 111.744 92.6398 113.952 86.4478 117.216C84.0958 118.368 81.8878 119.856 79.9198 121.584C78.2878 123.072 77.0398 125.088 77.6158 127.344C78.1438 129.504 79.7758 131.184 81.4558 132.576C82.7998 133.68 84.2878 134.688 85.8238 135.504C86.1598 135.696 86.4958 135.84 86.8318 136.032C87.4078 136.272 88.0318 136.128 88.4158 135.6C88.4638 134.976 87.9838 134.448 87.5518 134.256Z" fill="#3D3D3D"/>
<path d="M95.9518 125.616C95.9518 125.616 102.432 116.736 106.128 117.408C109.824 118.08 112.848 134.304 111.312 134.736C109.776 135.168 92.8798 137.328 92.6878 135.168C92.4958 133.008 92.7358 131.472 95.9518 125.616Z" fill="white"/>
<path d="M97.0077 125.856C97.9197 124.608 98.9277 123.408 99.9837 122.304C100.848 121.344 101.808 120.432 102.816 119.568C103.248 119.184 103.728 118.848 104.208 118.56C104.448 118.416 104.64 118.32 104.784 118.224L105.12 118.08L105.312 118.032C105.216 118.08 105.216 118.08 105.312 118.032C105.408 117.984 105.696 117.936 105.456 117.984C105.504 117.984 105.552 117.984 105.648 117.984H105.552C105.744 117.984 105.744 118.08 105.648 117.984C105.648 117.984 105.744 118.032 105.744 117.984L105.6 117.936L105.696 117.984C105.696 117.984 105.936 118.128 105.744 117.984C105.792 118.032 105.888 118.08 105.936 118.08C106.032 118.176 106.272 118.368 106.272 118.368C106.848 119.04 107.376 119.808 107.712 120.672C108.672 122.832 109.392 125.136 109.872 127.488C110.352 129.456 110.64 131.52 110.64 133.536C110.64 133.68 110.64 133.824 110.592 134.016C110.592 134.064 110.592 134.16 110.592 134.208C110.592 134.064 110.592 134.208 110.544 134.256C110.496 134.352 110.448 134.448 110.448 134.496C110.448 134.496 110.592 134.4 110.496 134.448C110.544 134.4 110.88 134.16 111.024 134.208C110.832 134.208 110.64 134.256 110.448 134.304L109.968 134.4C109.776 134.448 110.256 134.352 109.968 134.4L109.68 134.448C107.52 134.784 105.36 135.024 103.248 135.216C102 135.312 100.704 135.408 99.4557 135.456L98.5437 135.504H98.2557H97.9197C97.3917 135.504 96.8157 135.504 96.2877 135.504C96.0957 135.504 95.8557 135.504 95.6157 135.456H95.3277C95.2317 135.456 94.8957 135.408 95.1837 135.456C94.9917 135.456 94.8477 135.408 94.6557 135.36C94.4637 135.312 94.0797 135.216 94.3677 135.312C94.2717 135.264 93.9837 135.168 94.0797 135.216C94.2717 135.312 93.7437 135.024 94.0317 135.216C94.0317 135.216 93.9357 135.12 93.9837 135.12C94.0317 135.12 94.0317 135.264 93.9837 135.168C93.9357 134.976 93.9357 134.784 93.9357 134.592C93.8397 132.432 94.7997 130.416 95.7597 128.544C96.2397 127.632 96.7197 126.72 97.2477 125.808C97.4877 125.328 96.6237 125.136 96.3357 125.136C95.8557 125.136 95.1837 125.232 94.8957 125.712C93.9357 127.392 93.0717 129.12 92.3037 130.896C91.9197 131.856 91.6317 132.864 91.5837 133.92C91.5357 134.592 91.4397 135.552 91.9677 136.032C92.5917 136.464 93.2637 136.704 93.9837 136.704C96.4317 137.04 98.9757 136.848 101.424 136.704C103.872 136.56 106.416 136.272 108.912 135.936C109.728 135.84 110.592 135.696 111.408 135.552C112.032 135.456 112.656 135.216 112.896 134.592C113.088 133.872 113.136 133.104 113.04 132.384C112.944 131.28 112.8 130.176 112.608 129.072C112.176 126.48 111.504 123.888 110.544 121.44C109.872 119.808 108.912 117.456 106.944 117.024C104.256 116.448 101.712 118.464 99.8877 120.144C98.2077 121.728 96.6717 123.456 95.2797 125.28C95.1837 125.376 95.0877 125.52 95.0397 125.616C94.2717 126.336 96.5757 126.48 97.0077 125.856Z" fill="#3D3D3D"/>
<path d="M149.904 125.184C149.904 125.184 143.424 116.304 139.728 116.976C136.032 117.648 133.008 133.872 134.544 134.304C136.08 134.736 152.976 136.896 153.168 134.736C153.36 132.576 153.168 131.04 149.904 125.184Z" fill="white"/>
<path d="M150.96 125.376C149.904 123.984 148.8 122.64 147.6 121.392C145.68 119.376 143.424 117.264 140.688 116.592C139.728 116.352 138.672 116.256 137.856 116.928C137.184 117.552 136.608 118.272 136.224 119.088C135.12 121.392 134.304 123.792 133.824 126.288C133.344 128.4 132.912 130.608 133.008 132.768C133.056 133.488 133.152 134.016 133.776 134.4C134.496 134.784 135.312 134.976 136.128 135.072C138.384 135.456 140.64 135.696 142.896 135.888C145.44 136.176 148.032 136.272 150.624 136.224C151.488 136.224 152.4 136.128 153.264 135.936C153.888 135.744 154.272 135.552 154.32 134.88C154.512 132.576 153.6 130.512 152.592 128.448C152.112 127.488 151.584 126.48 151.056 125.52C150.72 125.136 150.288 124.848 149.76 124.752C149.664 124.704 148.608 124.56 148.8 124.896C149.712 126.48 150.528 128.112 151.248 129.792C151.632 130.704 151.92 131.664 152.064 132.672C152.112 133.152 152.256 134.112 151.968 134.544C151.824 134.64 151.68 134.736 151.488 134.832C151.2 134.928 150.912 134.976 150.624 135.024C148.512 135.264 146.352 135.264 144.24 135.024C141.888 134.88 139.584 134.64 137.28 134.304C136.464 134.208 135.696 134.064 134.88 133.968L134.544 133.92L134.4 133.872C134.208 133.824 134.688 133.968 134.496 133.872H134.4C134.736 133.968 135.072 134.16 135.408 134.352C135.456 134.352 135.504 134.352 135.456 134.448C135.456 134.4 135.36 134.256 135.36 134.16C135.216 133.488 135.216 132.816 135.312 132.144C135.408 131.136 135.504 130.08 135.696 129.072C136.08 126.672 136.752 124.272 137.568 121.968C137.904 120.96 138.384 120 138.912 119.088C139.248 118.416 139.776 117.888 140.4 117.552C140.496 117.504 140.592 117.456 140.688 117.456C140.736 117.456 140.784 117.456 140.88 117.456C141.072 117.456 140.88 117.408 141.12 117.504C140.832 117.456 141.312 117.552 141.12 117.504C140.928 117.456 141.312 117.552 141.36 117.6C141.072 117.504 141.504 117.648 141.552 117.696L141.6 117.744L141.744 117.84C142.752 118.464 143.712 119.232 144.576 120.096C146.064 121.536 147.408 123.12 148.656 124.752L148.896 125.04C149.28 125.424 149.808 125.664 150.384 125.712C150.624 125.76 151.248 125.808 150.96 125.376Z" fill="#3D3D3D"/>
<path d="M150.912 131.664C150.912 131.664 159.072 121.776 157.056 119.856C155.04 117.936 148.56 124.8 148.56 124.8" fill="white"/>
<path d="M151.824 131.616C153.984 128.976 156.192 126.096 157.68 122.976C158.16 121.968 159.216 119.712 157.68 118.992C156.816 118.56 155.712 118.944 154.848 119.28C153.696 119.808 152.592 120.48 151.584 121.248C150.144 122.352 148.8 123.552 147.552 124.896C147.216 125.232 147.456 125.52 147.888 125.52C148.464 125.472 148.992 125.184 149.424 124.752C149.472 124.656 149.568 124.608 149.664 124.512C149.76 124.416 149.808 124.368 149.904 124.272L150.096 124.08L150.144 124.032C150.816 123.408 151.488 122.784 152.16 122.208L152.736 121.728C152.976 121.536 153.12 121.44 153.264 121.344C153.408 121.248 153.648 121.056 153.84 120.96L154.176 120.768L154.32 120.672C154.176 120.768 154.512 120.576 154.32 120.672C154.464 120.576 154.704 120.48 154.896 120.384C154.704 120.48 154.848 120.384 154.944 120.384L155.088 120.336C154.896 120.384 155.232 120.288 155.088 120.336L155.328 120.288C155.136 120.336 155.328 120.288 155.376 120.288L155.616 120.336C156.144 120.528 156.24 120.96 156.192 121.488C156.096 122.208 155.856 122.928 155.472 123.6C154.56 125.424 153.504 127.104 152.304 128.736C151.536 129.792 150.72 130.848 149.904 131.856C149.616 132.24 149.76 132.48 150.24 132.48C150.912 132.336 151.44 132.096 151.824 131.616Z" fill="#3D3D3D"/>
<path d="M97.728 107.232L146.88 106.56L142.224 137.712H101.664L97.728 107.232Z" fill="#CECECE"/>
<path fill-rule="evenodd" clip-rule="evenodd" d="M116.723 123.963L117.963 117.673C118.012 117.427 118.227 117.25 118.478 117.25H124.761C125.093 117.25 125.341 117.553 125.276 117.878L125.028 119.123H126.36C126.691 119.123 126.94 119.425 126.875 119.75L125.622 126.04C125.573 126.285 125.358 126.462 125.107 126.462H118.837C118.507 126.462 118.258 126.16 118.322 125.836L118.568 124.59H117.239C116.908 124.59 116.66 124.287 116.723 123.963ZM123.939 124.589L125.028 119.123H120.077C119.826 119.123 119.61 119.3 119.562 119.546L118.568 124.589H122.31L123.382 125.465C123.537 125.592 123.77 125.506 123.807 125.31L123.939 124.589Z" fill="white"/>
<path d="M97.8237 108.24L102.72 108.192L114.432 108.048L128.64 107.856L140.928 107.712L144.96 107.664C145.584 107.664 146.256 107.712 146.88 107.664H146.976L145.776 106.272L144.192 116.832L141.696 133.584L141.12 137.424L142.128 136.8H101.568L102.816 137.952L101.472 127.68L99.3117 111.216L98.8317 107.472C98.7357 106.848 98.2077 106.416 97.5837 106.32C97.1037 106.224 96.6237 106.56 96.5757 107.04C96.5757 107.088 96.5757 107.184 96.5757 107.232L97.9197 117.456L100.08 133.92L100.56 137.664C100.656 138.288 101.184 138.72 101.76 138.816H142.32C142.752 138.816 143.28 138.672 143.328 138.144L144.912 127.584L147.408 110.832L147.984 106.992C148.032 106.272 147.504 105.648 146.784 105.6L141.888 105.648L130.128 105.792L115.92 105.984L103.632 106.128L97.6317 106.224H97.5357C96.0477 106.224 96.4797 108.24 97.8237 108.24Z" fill="#CECECE"/>
<path d="M94.4641 132.912C94.4641 132.912 87.3601 123.216 89.5681 121.152C91.7761 119.088 97.5361 125.808 97.5361 125.808" fill="white"/>
<path d="M95.5678 132.528C93.7918 130.176 92.3038 127.68 91.0558 124.992C90.7198 124.272 90.4798 123.552 90.3358 122.784C90.3358 122.64 90.2878 122.448 90.2878 122.304C90.2878 122.256 90.2878 122.016 90.2878 122.256C90.2878 122.208 90.2878 122.112 90.3358 122.064L90.3838 121.872C90.2878 122.064 90.4318 121.68 90.3838 121.872C90.4318 121.824 90.4318 121.776 90.4798 121.728L90.4318 121.776C90.4798 121.728 90.4798 121.728 90.5278 121.68C90.2878 121.68 90.5758 121.872 90.5278 121.68C90.2878 121.776 90.7678 121.68 90.5278 121.68C90.2398 121.728 90.7678 121.584 90.5278 121.68C90.2878 121.632 90.8158 121.632 90.5278 121.68C90.6238 121.68 90.6718 121.68 90.7678 121.728C90.4798 121.68 90.7678 121.728 90.8158 121.776L91.1038 121.872C91.1998 121.92 91.1998 121.92 91.1038 121.872L91.2958 121.968C92.1118 122.352 92.8318 122.832 93.5038 123.456C94.6078 124.368 95.6638 125.424 96.6238 126.528C97.3918 127.392 99.4558 126.384 98.5438 125.328C97.6318 124.272 96.6718 123.312 95.6158 122.4C94.0798 121.104 91.9678 119.424 89.8078 120.096C87.8878 120.672 87.7918 122.592 88.3198 124.224C88.9918 126.24 89.9518 128.16 91.1038 129.936C91.8238 131.136 92.5918 132.288 93.4078 133.44C93.7918 133.92 94.4158 134.064 94.9438 133.872C95.3278 133.584 95.9518 133.008 95.5678 132.528Z" fill="#3D3D3D"/>
<path d="M216.24 201.12C224.4 200.352 234.912 200.544 231.696 189.648C225.216 167.76 197.76 140.16 188.544 149.52C163.728 174.96 153.744 175.968 153.744 175.968" fill="white"/>
<path d="M216 201.936C218.448 201.696 220.896 201.6 223.344 201.216C225.696 200.88 228.096 200.304 230.064 199.008C231.888 197.856 233.136 195.936 233.376 193.824C233.664 191.136 232.656 188.4 231.696 185.952C229.584 180.528 226.8 175.392 223.44 170.64C220.128 165.792 216.288 161.28 212.064 157.2C208.512 153.84 204.624 150.624 200.16 148.56C196.992 147.072 193.2 146.112 189.888 147.744C189.12 148.128 188.4 148.656 187.776 149.232C186.336 150.672 184.944 152.112 183.504 153.552C180.912 156.096 178.224 158.592 175.536 160.992C171.744 164.4 167.76 167.52 163.584 170.4C163.2 170.64 162.816 170.88 162.432 171.168L161.856 171.504L161.52 171.744C160.896 172.128 160.224 172.512 159.552 172.896C158.544 173.424 157.536 173.952 156.48 174.432L156.192 174.576C156.528 174.432 156.336 174.528 156.144 174.576L155.616 174.768C155.328 174.864 155.04 174.96 154.752 175.056L154.416 175.152L154.272 175.2C154.032 175.248 154.32 175.152 154.416 175.152C154.368 175.152 154.128 175.2 154.08 175.2H153.984C153.408 175.248 152.88 175.632 152.64 176.16C152.496 176.688 153.024 176.832 153.456 176.784C154.176 176.688 154.896 176.496 155.568 176.208C157.68 175.44 159.696 174.432 161.616 173.28C165.216 171.072 168.672 168.624 171.936 165.936C177.168 161.664 182.16 157.104 186.912 152.304C187.632 151.584 188.4 150.816 189.12 150.048L189.648 149.52C189.504 149.616 189.792 149.376 189.648 149.52L189.888 149.328C189.984 149.28 190.368 149.04 190.176 149.088C189.984 149.136 190.224 149.04 190.272 149.04L190.56 148.896L190.8 148.8C190.608 148.848 190.656 148.896 190.8 148.8L191.328 148.656L191.424 148.608C191.568 148.56 191.184 148.656 191.376 148.608L191.616 148.56C191.808 148.512 192 148.512 192.144 148.464H192.432C192.24 148.464 192.384 148.464 192.48 148.464C192.672 148.464 192.864 148.464 193.056 148.464C193.824 148.464 194.544 148.608 195.312 148.8C199.44 149.856 203.088 152.448 206.352 155.088C210.624 158.64 214.512 162.624 217.92 166.992C221.568 171.552 224.688 176.496 227.28 181.68C228.48 184.128 229.536 186.624 230.352 189.216C231.072 191.376 231.696 194.016 230.64 196.224C230.592 196.272 230.448 196.56 230.352 196.704C230.256 196.848 230.16 196.992 230.016 197.136C229.872 197.328 229.728 197.472 229.536 197.616C229.68 197.472 229.44 197.664 229.392 197.712C229.344 197.76 229.2 197.856 229.104 197.952C229.008 198.048 228.768 198.144 228.864 198.096C228.96 198.048 228.72 198.192 228.672 198.192C228.432 198.336 228.24 198.432 228 198.528C227.952 198.528 227.76 198.624 227.904 198.576H227.856L227.52 198.672C227.28 198.768 226.992 198.864 226.752 198.912C224.688 199.536 222.24 199.776 219.984 199.968C218.832 200.064 217.632 200.16 216.48 200.256C215.904 200.304 215.376 200.688 215.136 201.216C215.04 201.84 215.568 201.984 216 201.936Z" fill="#3D3D3D"/>
<path d="M213.072 153.84C213.072 153.84 178.752 152.64 173.088 143.28C173.088 143.28 181.488 119.472 187.008 116.88C196.896 112.224 211.008 119.28 212.4 125.856C215.184 139.392 213.072 153.84 213.072 153.84Z" fill="#3D3D3D"/>
<path d="M212.208 153.216C208.368 153.072 204.48 152.736 200.64 152.304C197.136 151.92 193.632 151.392 190.176 150.72C188.448 150.384 186.768 150 185.088 149.52C184.272 149.28 183.408 149.04 182.592 148.8C181.824 148.56 181.104 148.32 180.48 148.08C180.048 147.936 179.664 147.744 179.28 147.6L178.704 147.36C178.416 147.216 178.848 147.408 178.656 147.36L178.32 147.216C177.936 147.024 177.6 146.832 177.264 146.64C176.976 146.496 177.408 146.736 177.264 146.64L176.976 146.448C176.832 146.352 176.64 146.256 176.496 146.16L176.352 146.064C176.112 145.872 176.352 146.064 176.208 145.968C176.064 145.872 175.92 145.776 175.776 145.632C175.632 145.488 175.488 145.392 175.392 145.296C175.536 145.44 175.2 145.104 175.152 145.056C174.72 144.672 174.384 144.192 174.048 143.712L174.096 143.952C175.2 140.784 176.448 137.664 177.792 134.544C178.896 131.856 180.096 129.216 181.392 126.624C182.496 124.32 183.84 122.112 185.328 120C185.856 119.232 186.528 118.56 187.248 117.984C188.304 117.168 189.744 116.784 191.04 116.496C194.64 115.776 198.384 116.016 201.84 117.264C204.72 118.272 207.552 119.856 209.568 122.208C210.384 123.12 210.96 124.272 211.248 125.472C211.776 127.872 212.112 130.368 212.304 132.816C212.928 139.536 212.832 146.304 211.968 153.024C211.968 153.12 211.92 153.264 211.92 153.36C211.824 154.032 213.984 154.8 214.032 154.464C214.608 150.192 214.848 145.92 214.752 141.6C214.752 137.568 214.464 133.584 213.888 129.6C213.648 128.064 213.504 126.432 212.88 124.992C212.4 123.936 211.728 122.976 210.912 122.112C208.848 119.952 206.352 118.272 203.616 117.12C200.688 115.776 197.568 114.96 194.352 114.768C191.52 114.624 188.208 114.96 185.712 116.4C184.32 117.168 183.312 118.608 182.448 119.856C179.808 123.744 177.84 128.112 175.968 132.432C174.576 135.648 173.28 138.912 172.08 142.224C171.984 142.416 171.936 142.608 171.888 142.8C171.888 143.088 172.32 143.52 172.464 143.76C172.752 144.096 173.04 144.432 173.328 144.72C174.768 146.064 176.448 147.12 178.224 147.936C182.448 149.952 187.056 151.104 191.664 152.016C196.272 152.928 200.784 153.504 205.392 153.936C208.032 154.176 210.72 154.416 213.408 154.512H213.792C214.32 154.512 213.792 153.984 213.648 153.84C213.312 153.504 212.784 153.264 212.208 153.216Z" fill="#3D3D3D"/>
<path d="M209.424 133.728C205.152 131.088 199.776 127.68 198.96 122.304C198.816 121.728 198.384 121.248 197.76 121.104C197.424 121.008 197.04 121.2 196.944 121.536C196.896 121.632 196.896 121.776 196.944 121.872C197.856 128.112 203.808 132.192 208.752 135.264C209.136 135.504 209.76 135.696 210.048 135.168C210.336 134.64 209.808 134.016 209.424 133.728Z" fill="white"/>
<path d="M211.392 132.192C208.32 129.072 204.912 125.664 203.904 121.248C203.808 120.768 203.328 120.144 202.752 120.192C202.176 120.24 202.176 120.96 202.272 121.392C203.424 126.432 207.168 130.368 210.72 133.92C210.96 134.208 211.392 134.304 211.68 134.064C211.776 134.016 211.824 133.92 211.872 133.824C212.112 133.248 211.776 132.576 211.392 132.192Z" fill="white"/>
<path d="M178.176 141.6C174.912 135.264 185.904 122.304 185.904 122.304C188.688 122.592 193.776 121.44 193.776 121.44C190.032 129.072 198.816 134.112 198.816 134.112C202.032 130.368 206.64 133.44 205.056 137.568C203.472 141.696 199.296 140.976 199.296 140.976C199.296 140.976 198.288 152.064 197.376 153.648C197.376 153.648 189.072 156.384 186.528 148.992C186.528 148.992 180.384 145.92 178.176 141.6Z" fill="white"/>
<path d="M179.232 141.84C177.792 139.008 179.328 135.312 180.576 132.672C182.016 129.792 183.744 127.008 185.712 124.464C186.144 123.888 186.576 123.36 187.008 122.832L186.576 122.976C189.264 123.216 192.096 122.688 194.688 122.064L192.72 120.96C191.472 123.456 191.52 126.384 192.816 128.832C193.872 130.656 195.312 132.288 197.04 133.488C197.472 133.824 197.904 134.112 198.336 134.352C198.672 134.544 199.536 134.928 199.92 134.544C200.688 133.632 201.936 132.864 203.088 133.008C203.136 133.008 203.184 133.008 203.232 133.056C203.376 133.2 203.52 133.296 203.664 133.488C204 133.968 204.24 134.496 204.288 135.072C204.576 137.52 202.656 139.872 200.304 140.256C199.968 140.304 199.632 140.352 199.248 140.352C199.104 140.352 199.008 140.352 198.864 140.352C198.72 140.352 199.152 140.4 198.96 140.352C198.864 140.352 198.288 140.256 198.24 140.448C197.904 143.952 197.568 147.456 196.944 150.912C196.848 151.68 196.656 152.448 196.32 153.12L196.56 152.976C195.888 153.168 195.216 153.312 194.544 153.408C193.92 153.504 193.248 153.504 192.624 153.456C192.288 153.456 191.952 153.408 191.616 153.312C191.328 153.264 191.088 153.168 190.848 153.072L190.56 152.928C190.224 152.784 190.752 153.024 190.416 152.88L190.224 152.784C189.888 152.592 190.368 152.88 190.08 152.688C189.744 152.448 189.456 152.208 189.168 151.872C188.832 151.536 188.592 151.104 188.352 150.72C188.064 150.24 187.968 149.616 187.68 149.184C187.44 148.8 186.816 148.56 186.432 148.32C185.712 147.888 185.184 147.6 184.56 147.168C182.4 145.728 180.432 144.048 179.232 141.84C178.992 141.36 178.272 141.12 177.792 141.024C177.504 140.976 176.928 140.976 177.168 141.408C178.368 143.712 180.384 145.488 182.448 146.976C183.6 147.84 184.848 148.608 186.096 149.28L185.472 148.656C186.336 151.296 188.448 153.36 191.04 154.224C192.912 154.848 194.928 154.992 196.848 154.608C197.28 154.56 197.712 154.464 198.144 154.32C198.624 154.128 198.72 153.504 198.816 153.024C199.296 150.864 199.632 148.656 199.824 146.448C200.016 144.768 200.208 143.136 200.352 141.456L199.68 141.6C201.696 141.984 203.76 141.312 205.152 139.776C206.16 138.576 206.784 136.752 206.304 135.168C205.824 133.584 204.384 132.48 202.8 132C200.832 131.424 199.008 132.096 197.664 133.632L199.248 133.824C198.864 133.584 199.152 133.776 199.248 133.824C199.056 133.68 198.864 133.584 198.672 133.44C198.048 133.008 197.472 132.528 196.992 132C195.408 130.512 194.352 128.544 194.016 126.432C193.872 124.896 194.16 123.312 194.88 121.92C195.024 121.632 194.4 121.248 194.256 121.152C193.872 120.912 193.392 120.768 192.912 120.816C190.848 121.344 188.736 121.632 186.624 121.728C186.144 121.728 185.136 121.536 184.752 121.824C184.704 121.872 184.656 121.92 184.608 122.016C184.272 122.4 183.984 122.832 183.648 123.216C181.008 126.624 178.512 130.416 177.12 134.544C176.4 136.752 176.016 139.2 177.072 141.36C177.312 141.792 178.032 142.08 178.512 142.176C178.896 142.272 179.472 142.272 179.232 141.84Z" fill="#3D3D3D"/>
<path d="M186.144 131.328C184.32 132.048 182.352 132.48 180.384 132.624C173.76 133.248 172.8 135.456 174.768 136.896C176.736 138.336 185.712 138 185.712 138" fill="white"/>
<path d="M185.52 130.464C185.328 130.56 185.712 130.416 185.664 130.416C185.52 130.464 185.376 130.512 185.28 130.56C184.848 130.704 184.368 130.848 183.888 130.992C182.352 131.328 180.768 131.616 179.184 131.76C177.744 131.904 176.304 132.288 174.96 132.864C174.144 133.2 173.472 133.776 172.992 134.496C172.176 136.032 173.376 137.616 174.816 138.144C176.784 138.912 179.04 138.96 181.104 139.056C182.64 139.104 184.224 139.104 185.808 139.056C186.384 139.104 186.912 138.672 186.96 138.096C187.008 137.52 186.576 136.992 186 136.944C185.904 136.944 185.808 136.944 185.712 136.944C184.56 136.992 183.408 136.992 182.256 136.992C180.384 137.04 178.512 136.896 176.688 136.512L176.16 136.368C175.872 136.272 176.4 136.464 176.112 136.368C176.064 136.32 175.968 136.32 175.872 136.272C175.776 136.224 175.44 135.984 175.68 136.224C175.536 136.128 175.44 136.032 175.296 135.888C175.536 136.128 175.296 135.84 175.248 135.792C175.2 135.744 175.2 135.696 175.152 135.648C175.296 135.888 175.2 135.744 175.2 135.696C175.056 135.408 175.2 135.84 175.152 135.6C175.152 135.264 175.056 135.744 175.152 135.456C175.2 135.36 175.248 135.264 175.152 135.504C175.2 135.456 175.2 135.408 175.248 135.36C175.296 135.312 175.44 135.168 175.248 135.36C175.296 135.312 175.344 135.264 175.392 135.216L175.584 135.072C175.344 135.264 175.584 135.072 175.632 135.024C175.824 134.928 176.064 134.784 176.256 134.688C176.688 134.496 177.12 134.352 177.6 134.256C178.224 134.112 178.848 133.968 179.52 133.872C182.016 133.536 184.56 133.296 186.912 132.288C187.392 132.048 187.632 131.52 187.392 131.04C187.344 130.992 187.344 130.944 187.296 130.848C186.768 130.272 186.096 130.176 185.52 130.464Z" fill="#3D3D3D"/>
<path d="M190.176 130.8C189.696 130.704 189.216 131.04 189.12 131.52C189.12 131.568 189.12 131.616 189.12 131.664C189.072 132.672 190.32 132.72 190.608 131.904C190.8 131.52 190.656 131.088 190.272 130.848C190.272 130.848 190.224 130.8 190.176 130.8Z" fill="#3D3D3D"/>
<path d="M183.936 128.352C183.456 128.256 182.976 128.592 182.88 129.072C182.88 129.12 182.88 129.168 182.88 129.216C182.832 130.224 184.08 130.272 184.368 129.456C184.56 129.072 184.416 128.64 184.032 128.4C184.032 128.352 183.984 128.352 183.936 128.352Z" fill="#3D3D3D"/>
<path d="M202.32 142.8C202.032 145.68 201.888 148.608 201.792 151.536C201.792 152.352 203.904 153.36 203.952 152.496C204 149.568 204.192 146.688 204.48 143.76C204.576 142.944 202.416 141.888 202.32 142.8Z" fill="white"/>
<path d="M205.968 144L208.992 147.888C209.136 148.032 209.28 148.128 209.424 148.224C209.664 148.368 209.952 148.512 210.24 148.656C210.432 148.752 210.672 148.848 210.912 148.896C210.96 148.896 211.152 148.944 211.104 148.848L208.08 144.96C207.936 144.816 207.792 144.72 207.648 144.624C207.408 144.48 207.12 144.336 206.832 144.192C206.592 144.096 206.4 144 206.16 143.952C206.064 143.952 205.872 143.904 205.968 144Z" fill="white"/>
<path d="M210.768 140.304C210.624 140.304 211.104 140.352 210.912 140.304H210.816C210.432 140.208 210.672 140.304 210.816 140.304C210.624 140.256 210.384 140.208 210.192 140.16L209.904 140.064L209.712 140.016H209.664C209.856 140.064 209.664 140.016 209.616 140.016L209.424 139.92L209.04 139.728C208.8 139.632 208.512 139.488 208.272 139.344C208.128 139.296 207.984 139.2 207.84 139.104C207.792 139.056 207.696 139.056 207.648 139.008C207.888 139.2 207.648 139.008 207.6 139.008C207.36 138.864 207.072 138.672 206.832 138.528L206.496 138.288L206.304 138.144C206.352 138.192 206.448 138.24 206.304 138.144C205.872 137.712 205.248 137.568 204.672 137.664C204.24 137.808 204 138.288 204.384 138.624C205.488 139.584 206.736 140.352 208.08 140.928C209.184 141.456 210.384 141.792 211.584 141.888C212.016 141.888 212.544 141.504 212.256 141.072C211.92 140.592 211.344 140.304 210.768 140.304Z" fill="white"/>
<path d="M189.36 141.36C189.648 141.072 193.68 137.184 193.68 137.184C193.68 137.184 195.936 138.336 194.112 141.072C192.288 143.808 189.36 141.36 189.36 141.36Z" fill="#3D3D3D"/>
<path d="M190.368 141.648C191.616 140.4 192.912 139.2 194.16 137.952L194.688 137.472L192.816 137.856C192.912 137.904 192.96 137.952 193.056 138L193.152 138.048C193.296 138.192 193.008 137.952 193.104 138C193.2 138.048 193.296 138.192 193.344 138.288C193.392 138.384 193.44 138.528 193.536 138.576C193.392 138.432 193.488 138.432 193.488 138.528C193.488 138.624 193.536 138.624 193.536 138.624C193.584 138.72 193.584 138.768 193.584 138.864C193.584 138.912 193.632 139.008 193.632 139.104C193.632 139.2 193.584 139.2 193.632 139.056C193.632 139.104 193.632 139.152 193.632 139.2C193.632 139.392 193.584 139.584 193.536 139.776C193.488 139.968 193.584 139.584 193.536 139.776L193.488 139.92C193.44 140.064 193.392 140.16 193.296 140.304C193.248 140.4 193.2 140.544 193.104 140.64C193.104 140.64 192.96 140.88 193.056 140.736L192.912 140.928C192.816 141.024 192.72 141.168 192.624 141.264C192.528 141.36 192.528 141.264 192.672 141.216C192.624 141.264 192.576 141.312 192.528 141.36L192.384 141.456C192.336 141.504 192.24 141.504 192.48 141.408C192.432 141.408 192.384 141.456 192.336 141.504C192.288 141.552 192.048 141.6 192.288 141.552C192.528 141.504 192.192 141.552 192.144 141.6C191.952 141.648 192.432 141.552 192.288 141.6C192.24 141.6 192.192 141.6 192.144 141.6H192C191.856 141.6 192.144 141.6 192.144 141.6C192.144 141.6 191.856 141.6 191.808 141.552H191.712C191.52 141.552 191.952 141.6 191.808 141.552L191.568 141.504C191.376 141.456 191.232 141.408 191.04 141.312C190.896 141.264 191.232 141.408 191.136 141.36L190.992 141.312L190.8 141.216C190.656 141.168 190.56 141.072 190.416 140.976C190.32 140.928 190.224 140.832 190.128 140.736C189.888 140.592 189.6 140.544 189.36 140.592C189.024 140.64 188.736 140.736 188.496 140.928C188.304 141.072 188.16 141.312 188.112 141.552C188.112 141.792 188.208 141.984 188.4 142.128C188.736 142.416 189.168 142.656 189.6 142.848C190.56 143.328 191.664 143.424 192.72 143.136C194.064 142.704 195.12 141.696 195.6 140.4C196.032 139.488 195.984 138.48 195.504 137.568C195.264 137.136 194.928 136.8 194.496 136.56C193.872 136.272 193.104 136.416 192.624 136.944L188.976 140.496C188.736 140.688 188.544 140.928 188.304 141.12C188.064 141.36 188.064 141.792 188.304 142.032C188.4 142.128 188.496 142.176 188.64 142.224C189.312 142.272 189.936 142.128 190.368 141.648Z" fill="#3D3D3D"/>
<path d="M154.56 175.152L154.08 171.984C154.08 171.984 144.528 168 141.072 161.376C141.072 161.376 137.04 160.128 137.472 158.016C137.904 155.904 140.16 156.576 140.16 156.576C140.16 156.576 141.504 155.232 144 157.92C144 157.92 160.416 157.872 160.944 157.44C161.472 157.008 163.536 153.744 166.848 152.352C170.16 150.96 171.552 153.456 169.92 155.136C168.768 156.336 167.712 157.632 166.752 158.976C166.752 158.976 169.632 163.824 165.936 167.664L166.896 171.216C166.944 171.216 162.768 175.056 154.56 175.152Z" fill="white"/>
<path d="M155.712 174.72L155.328 172.416C155.28 172.032 155.328 171.648 154.992 171.504C153.552 170.832 152.112 170.064 150.72 169.248C148.464 167.904 146.4 166.224 144.576 164.304C144.096 163.776 143.664 163.248 143.232 162.672C143.04 162.384 142.848 162.144 142.656 161.808C142.512 161.472 142.368 161.184 142.128 160.944C141.984 160.848 141.792 160.8 141.6 160.752C141.168 160.608 140.784 160.416 140.352 160.176C139.488 159.696 138.384 158.88 138.528 157.728C138.576 157.344 138.72 157.008 138.912 156.72C138.96 156.672 139.008 156.624 139.056 156.528L139.104 156.48L137.904 156.96C138 156.96 138.096 156.96 138.192 156.96C138.48 156.96 138.72 157.008 139.008 157.056C139.296 157.152 139.872 156.816 140.112 156.72C140.496 156.624 140.832 156.432 141.12 156.192C141.12 156.144 141.216 156.096 141.072 156.192C141.12 156.144 141.168 156.144 141.072 156.192C139.488 157.104 139.536 156.528 140.448 156.768C140.832 156.864 141.216 157.056 141.6 157.296C141.84 157.44 142.032 157.632 142.224 157.824C142.416 157.968 142.608 158.304 142.8 158.4C142.944 158.4 143.088 158.4 143.232 158.4H144.288C146.976 158.4 149.664 158.352 152.4 158.304C154.752 158.304 157.056 158.256 159.36 158.016C160.464 157.92 161.52 157.392 162.288 156.576C163.344 155.136 164.64 153.936 166.08 152.88C166.32 152.784 166.608 152.64 166.8 152.448H166.848C166.608 152.544 166.608 152.544 166.8 152.496C166.992 152.448 167.136 152.448 167.28 152.448C167.712 152.4 168.144 152.544 168.528 152.736C169.104 153.12 169.392 153.84 169.248 154.512C169.056 154.992 168.768 155.424 168.384 155.76C167.904 156.288 167.424 156.816 166.992 157.392C166.464 158.016 165.984 158.64 165.456 159.312V159.36C166.08 160.464 166.464 161.76 166.512 163.008C166.608 164.208 166.368 165.408 165.792 166.464C165.6 166.8 165.408 167.088 165.168 167.376C165.024 167.568 164.688 167.808 164.64 168.048C164.592 168.192 164.736 168.432 164.784 168.576L165.408 170.928C165.504 171.12 165.552 171.36 165.6 171.6C165.6 171.552 165.6 171.552 165.552 171.648C165.312 171.888 165.024 172.08 164.688 172.272C164.16 172.656 163.584 172.944 163.008 173.232L162.624 173.376C162.384 173.472 162.288 173.52 162 173.616C161.424 173.808 160.848 173.952 160.272 174.096C158.688 174.48 157.104 174.672 155.472 174.672C154.992 174.72 154.512 174.864 154.08 175.104C153.84 175.152 153.648 175.296 153.456 175.44C153.456 175.44 153.216 175.584 153.408 175.584C157.056 175.536 160.656 174.72 163.968 173.184C165.408 172.608 166.752 171.792 167.904 170.784V170.736L167.328 168.624C167.232 168.24 167.088 167.808 166.992 167.424C166.992 167.28 166.944 167.28 166.992 167.184C167.04 167.088 167.28 166.896 167.376 166.752C167.472 166.608 167.664 166.416 167.76 166.224C169.104 164.16 169.056 161.568 168.144 159.36C168.048 159.12 167.904 158.88 167.808 158.64C167.808 158.592 167.76 158.544 167.76 158.592C167.76 158.496 167.952 158.304 168 158.256C168.96 157.056 169.968 155.904 170.976 154.704C171.552 154.032 171.888 152.976 171.312 152.208C170.592 151.248 169.152 151.44 168.192 151.728C165.264 152.592 162.672 154.32 160.752 156.768L159.984 157.68C159.408 158.4 160.944 157.344 161.52 157.104C161.712 157.008 161.616 157.104 161.472 157.104C160.992 157.152 160.464 157.2 159.936 157.2C156.096 157.392 152.208 157.392 148.368 157.44H146.208C145.824 157.488 145.44 157.488 145.104 157.44C144.816 157.344 144.48 156.864 144.192 156.624C143.76 156.24 143.232 156 142.704 155.808C141.648 155.568 140.448 156.096 139.536 156.624C139.344 156.72 139.2 156.816 139.056 156.96L141.216 156.096C140.304 155.808 139.344 156.096 138.528 156.48C137.424 156.912 135.984 157.776 136.416 159.264C136.704 160.272 137.808 160.896 138.672 161.328C139.008 161.52 139.392 161.664 139.776 161.808C140.16 161.952 140.256 162.384 140.448 162.72C143.088 166.992 147.744 170.016 152.208 172.128C152.448 172.224 152.64 172.32 152.832 172.416C152.976 172.512 152.928 172.56 152.976 172.752L153.456 175.632C153.504 175.68 155.76 175.104 155.712 174.72Z" fill="#3D3D3D"/>
<path d="M150.624 163.152C150.624 163.152 145.968 160.464 144.048 157.92L150.624 163.152Z" fill="white"/>
<path d="M151.44 162.432C150.576 161.952 149.76 161.376 148.896 160.8C148.176 160.272 147.456 159.744 146.784 159.168C146.688 159.12 146.688 159.072 146.736 159.168L146.592 159.072L146.304 158.832C146.16 158.688 146.016 158.544 145.872 158.4C145.536 158.064 145.248 157.776 145.008 157.392C144.336 156.528 142.176 157.536 142.944 158.544C144.144 159.984 145.536 161.232 147.072 162.24C147.936 162.816 148.752 163.392 149.664 163.92C150.192 164.208 150.864 164.112 151.344 163.68C151.776 163.344 151.968 162.72 151.44 162.432Z" fill="#3D3D3D"/>
<path d="M140.208 156.576C140.208 156.576 139.104 157.68 141.12 161.376L140.208 156.576Z" fill="white"/>
<path d="M139.104 156.192C138.912 156.384 138.816 156.624 138.768 156.912C138.672 157.68 138.768 158.4 139.008 159.12C139.248 159.84 139.536 160.56 139.92 161.232C140.16 161.664 140.832 161.856 141.264 161.904C141.408 161.904 142.416 162 142.224 161.568C141.648 160.608 141.264 159.504 141.072 158.4V158.256C141.072 158.352 141.072 158.256 141.072 158.208C141.072 158.16 141.072 158.064 141.072 157.968C141.072 157.824 141.072 157.68 141.12 157.584C141.168 157.44 141.216 157.248 141.264 157.104C141.312 157.056 141.36 156.864 141.264 157.056C141.264 157.056 141.264 157.008 141.312 157.008C141.6 156.672 140.88 156.336 140.64 156.24C140.352 156.144 140.064 156.048 139.728 156.048C139.536 156.048 139.248 156.048 139.104 156.192Z" fill="#3D3D3D"/>
<path d="M152.208 160.416C152.208 160.416 145.488 158.736 144.48 158.16L152.208 160.416Z" fill="white"/>
<path d="M152.88 159.744C150.768 159.216 148.656 158.688 146.544 158.016L146.304 157.968C146.496 158.016 146.352 157.968 146.256 157.968L145.872 157.824C145.68 157.776 145.536 157.68 145.344 157.584C144.864 157.296 144.096 157.536 143.712 157.824C143.328 158.112 143.088 158.544 143.568 158.832C143.952 159.024 144.384 159.216 144.816 159.312C145.488 159.552 146.112 159.744 146.784 159.936C148.08 160.32 149.376 160.656 150.672 160.944C150.96 160.992 151.248 161.088 151.536 161.184C152.112 161.28 152.736 161.088 153.168 160.704C153.504 160.272 153.36 159.84 152.88 159.744Z" fill="#3D3D3D"/>
<path d="M154.656 163.632C154.608 163.632 154.272 163.728 154.464 163.68L154.752 163.632L154.944 163.584C155.136 163.536 154.8 163.632 154.752 163.632C154.8 163.632 154.848 163.632 154.896 163.632C155.088 163.632 155.28 163.584 155.472 163.584C155.664 163.584 155.136 163.584 155.328 163.584H155.52C155.616 163.584 155.76 163.584 155.856 163.584C155.952 163.584 156.144 163.584 155.904 163.584C155.664 163.584 155.904 163.584 155.952 163.584C156.096 163.584 156.192 163.632 156.336 163.632C156.384 163.632 156.576 163.68 156.384 163.632C156.192 163.584 156.432 163.632 156.48 163.68C156.576 163.728 156.72 163.776 156.816 163.776C156.912 163.776 157.008 163.872 156.864 163.776L157.008 163.872C157.152 163.92 157.248 164.016 157.344 164.064L157.536 164.208L157.584 164.256C157.488 164.208 157.584 164.256 157.632 164.304C157.728 164.4 157.824 164.496 157.92 164.64C158.16 164.928 158.352 165.216 158.496 165.552C158.544 165.696 158.928 165.792 159.072 165.84C159.36 165.888 159.696 165.888 159.984 165.792C160.32 165.696 160.944 165.504 160.752 165.072C159.648 162.528 156.576 162.192 154.176 162.624C153.888 162.672 153.6 162.72 153.36 162.816C153.024 162.912 152.592 163.296 152.976 163.584C153.36 163.872 154.176 163.728 154.656 163.632Z" fill="#3D3D3D"/>
<path d="M203.088 142.416C207.621 142.416 211.296 138.741 211.296 134.208C211.296 129.675 207.621 126 203.088 126C198.555 126 194.88 129.675 194.88 134.208C194.88 138.741 198.555 142.416 203.088 142.416Z" fill="#CECECE"/>
<path d="M193.824 134.016C193.872 137.952 196.32 141.456 199.968 142.896C203.568 144.288 207.648 143.28 210.192 140.352C212.688 137.328 213.024 133.008 211.008 129.648C208.992 126.336 205.056 124.368 201.216 125.088C196.944 125.952 193.872 129.648 193.824 134.016C193.824 135.216 195.936 135.936 195.936 134.448C195.984 131.424 197.904 128.688 200.736 127.632C204.288 126.192 208.272 127.92 209.712 131.472C210.528 133.536 210.336 135.84 209.136 137.712C207.552 140.352 204.528 141.744 201.504 141.216C198.24 140.592 195.888 137.76 195.936 134.448C195.936 133.2 193.824 132.528 193.824 134.016Z" fill="#CECECE"/>
<path d="M205.344 128.208C206.112 125.808 206.928 123.264 206.544 120.72C206.256 118.608 205.296 116.544 203.424 115.392C202.896 115.056 202.224 115.056 201.744 115.392C201.36 115.632 201.312 116.16 201.552 116.544C201.6 116.592 201.648 116.688 201.744 116.736C205.536 119.088 204.096 124.32 203.04 127.728C202.656 128.976 205.008 129.36 205.344 128.208Z" fill="#CECECE"/>
<path d="M204.528 198.624C205.008 198.624 205.68 198.288 205.584 197.712C205.488 197.136 204.768 196.8 204.24 196.8C203.712 196.8 203.088 197.136 203.184 197.712C203.28 198.288 204 198.624 204.528 198.624Z" fill="#3D3D3D"/>
<path d="M193.536 194.544C193.536 194.544 195.888 201.312 205.776 196.704C205.776 196.704 208.464 193.872 208.896 188.4C208.896 188.4 197.088 182.304 188.832 183.312C180.576 184.32 177.024 187.776 177.936 189.072C178.848 190.368 187.632 187.968 187.632 187.968C187.632 187.968 185.424 190.896 186.48 193.68C187.536 196.464 189.648 196.08 189.648 196.08C189.648 196.08 193.44 200.64 195.264 197.76C195.264 197.76 200.496 200.016 205.728 197.136" fill="white"/>
<path d="M192.528 193.92C193.248 195.984 195.36 197.616 197.28 198.432C199.104 199.152 201.168 199.248 203.04 198.72C203.664 198.576 204.288 198.384 204.912 198.144C205.536 198 206.16 197.712 206.688 197.376C206.976 197.136 207.168 196.8 207.36 196.512C208.8 194.256 209.616 191.664 209.808 188.976C209.856 188.592 208.752 187.92 208.464 187.776C206.352 186.72 204.192 185.76 201.936 184.992C197.952 183.552 193.632 182.304 189.36 182.4C186.912 182.496 184.512 182.928 182.208 183.744C180.624 184.224 179.136 185.04 177.84 186.096C177.312 186.576 176.496 187.392 176.736 188.208C176.976 189.024 177.936 189.6 178.608 189.888C179.136 190.08 179.664 190.176 180.192 190.128C181.92 190.08 183.648 189.792 185.328 189.408C186.336 189.168 187.344 188.928 188.4 188.688L186.528 187.248C185.184 189.072 184.608 191.568 185.616 193.632C186.288 194.928 187.392 195.936 188.736 196.512C189.264 196.752 189.792 196.848 190.368 196.8L188.688 195.744C189.552 196.8 190.608 197.712 191.76 198.432C193.104 199.296 194.976 200.112 196.08 198.48L195.696 198.432C199.2 199.824 203.184 199.632 206.544 197.856C206.736 197.76 205.824 196.992 205.728 196.896C205.488 196.704 204.912 196.224 204.576 196.416C202.416 197.568 199.968 198.048 197.52 197.808C196.752 197.712 196.032 197.568 195.264 197.376C194.976 197.328 194.736 197.232 194.496 197.136C194.448 197.136 194.16 196.992 194.112 197.088C193.824 197.616 193.296 197.952 192.672 198C192.432 198 192.24 197.952 192 197.904C191.904 197.856 191.808 197.856 191.712 197.808C191.76 197.856 191.424 197.616 191.616 197.76C191.568 197.712 191.232 197.472 191.424 197.616L191.088 197.328C190.992 197.232 191.04 197.28 191.088 197.328L190.944 197.184L190.704 196.944C190.656 196.896 190.464 196.704 190.608 196.848L190.416 196.656C190.368 196.608 190.32 196.56 190.272 196.512C189.984 196.176 189.12 195.312 188.592 195.456C188.304 195.456 188.016 195.456 187.728 195.408C187.632 195.408 187.632 195.312 187.68 195.408C187.728 195.456 187.824 195.504 187.92 195.6C188.112 195.696 187.968 195.648 187.92 195.552C187.872 195.456 187.776 195.36 187.728 195.264C187.392 194.736 187.2 194.112 187.104 193.488C186.96 191.808 187.488 190.176 188.496 188.88C188.736 188.544 187.008 187.344 186.624 187.44C184.512 188.016 182.304 188.496 180.144 188.784C179.52 188.88 178.848 188.928 178.224 188.928C178.032 188.928 177.792 188.88 177.6 188.88C177.408 188.88 177.552 188.88 177.6 188.88H177.552C177.12 188.688 177.456 188.976 178.608 189.696C178.704 189.792 178.656 189.84 178.656 189.744C178.656 189.456 178.704 189.168 178.848 188.88C179.088 188.448 179.424 188.112 179.808 187.776C181.056 186.768 182.448 186 183.984 185.568C186.144 184.8 188.4 184.368 190.656 184.224C194.592 184.032 198.624 185.088 202.32 186.384C204 186.96 205.632 187.632 207.264 188.352L208.128 188.736L208.512 188.928L208.608 188.976C208.416 188.88 208.8 189.072 208.608 188.976L209.136 189.216L207.792 188.016C207.6 190.32 206.928 192.528 205.776 194.544C205.488 195.024 205.2 195.504 204.816 195.936C204.384 196.464 203.616 196.608 202.992 196.848C201.12 197.52 199.008 198 197.04 197.616C196.752 197.568 196.416 197.472 196.128 197.376C196.08 197.376 195.696 197.184 195.84 197.28L195.696 197.184C195.408 197.04 195.744 197.184 195.552 197.136C195.504 197.088 195.36 196.992 195.6 197.184L195.408 197.04C195.696 197.28 195.36 196.992 195.312 196.944C195.552 197.136 195.264 196.896 195.216 196.848L195.264 196.896L195.072 196.704C194.976 196.56 194.832 196.416 194.784 196.272C194.688 196.128 194.592 195.936 194.496 195.792L194.4 195.6C194.352 195.456 194.448 195.696 194.4 195.552C194.4 195.504 194.352 195.456 194.352 195.456C194.112 195.024 193.728 194.64 193.296 194.448C193.344 194.064 192.432 193.632 192.528 193.92Z" fill="#3D3D3D"/>
<path d="M190.656 189.072C189.12 190.128 188.112 191.808 187.92 193.68C187.872 194.592 188.064 195.456 188.4 196.272C188.688 196.752 189.216 196.944 189.744 196.752C190.08 196.656 190.944 196.272 190.752 195.744C190.56 195.312 190.416 194.88 190.32 194.4C190.224 194.064 190.224 193.68 190.272 193.296C190.32 192.912 190.416 192.576 190.512 192.24C190.464 192.432 190.56 192.144 190.56 192.144C190.56 192.144 190.608 192 190.656 191.904C190.704 191.76 190.8 191.616 190.896 191.472C190.992 191.328 191.04 191.232 191.136 191.088C191.28 190.848 191.04 191.184 191.136 191.04C191.232 190.896 191.232 190.944 191.232 190.896C191.376 190.704 191.52 190.512 191.712 190.368L191.904 190.176L192 190.08C192.096 189.984 191.76 190.272 191.904 190.176L192.048 190.08C192.432 189.84 192.672 189.312 192.24 188.976C191.76 188.688 191.088 188.736 190.656 189.072Z" fill="#3D3D3D"/>
<path d="M139.728 202.56L122.592 164.352L175.392 163.104L187.632 202.656L139.728 202.56Z" fill="#CECECE"/>
<path d="M140.88 202.272L139.152 198.48L135.072 189.36L130.128 178.32L125.856 168.768L124.464 165.6C124.272 165.072 124.032 164.592 123.792 164.112C123.792 164.112 123.792 164.064 123.744 164.064L122.784 165.36L128.016 165.216L140.64 164.928L155.904 164.544L169.104 164.256L173.472 164.16C174.144 164.16 174.864 164.16 175.536 164.112H175.632L174.384 163.392L175.584 167.328L178.512 176.784L182.064 188.208L185.136 198.144L186.144 201.408C186.288 201.936 186.432 202.464 186.624 202.944V202.992L187.584 201.696H182.832H171.408L157.44 201.6H145.536C143.616 201.6 141.648 201.504 139.728 201.6H139.632C139.104 201.552 138.624 201.984 138.576 202.56C138.576 202.608 138.576 202.608 138.576 202.656C138.72 203.232 139.296 203.664 139.92 203.616H144.672H156.144L169.968 203.664H181.872C183.792 203.664 185.76 203.76 187.68 203.664H187.776C188.304 203.712 188.784 203.28 188.784 202.752C188.784 202.608 188.784 202.464 188.736 202.368L187.536 198.432L184.608 188.976L181.104 177.6L178.032 167.664L177.024 164.4C176.88 163.92 176.736 163.344 176.544 162.864V162.816C176.304 162.336 175.824 162.096 175.296 162.096L170.064 162.192L157.44 162.48L142.176 162.864L128.976 163.152C126.816 163.2 124.704 163.2 122.544 163.296H122.448C121.92 163.248 121.44 163.68 121.44 164.208C121.44 164.352 121.44 164.496 121.488 164.592L123.168 168.384L127.248 177.504L132.192 188.544L136.464 198.096C137.136 199.632 137.808 201.216 138.528 202.704L138.576 202.752C139.152 204 141.456 203.616 140.88 202.272Z" fill="#CECECE"/>
<path fill-rule="evenodd" clip-rule="evenodd" d="M149.723 184.963L150.963 178.673C151.012 178.427 151.227 178.25 151.478 178.25H157.761C158.093 178.25 158.341 178.553 158.276 178.878L158.028 180.123H159.36C159.691 180.123 159.94 180.425 159.875 180.75L158.622 187.04C158.573 187.285 158.358 187.462 158.107 187.462H151.837C151.507 187.462 151.258 187.16 151.322 186.836L151.568 185.59H150.239C149.908 185.59 149.66 185.287 149.723 184.963ZM156.939 185.589L158.028 180.123H153.077C152.826 180.123 152.61 180.3 152.562 180.546L151.568 185.589H155.31L156.382 186.465C156.537 186.592 156.77 186.506 156.807 186.31L156.939 185.589Z" fill="white"/>
<path d="M25.7757 201.84C16.5597 201.696 4.7517 201.216 8.3997 188.928C15.6477 164.256 35.9517 141.264 50.6877 140.256C71.3757 138.816 71.8077 195.216 71.8077 195.216C71.8077 195.216 44.2557 202.08 25.7757 201.84Z" fill="white"/>
<path d="M25.1997 200.832C22.2717 200.832 19.3917 200.688 16.5117 200.256C14.1597 199.872 11.4717 199.2 9.79169 197.568C9.93569 197.712 9.69569 197.472 9.64769 197.376C9.59969 197.28 9.35969 196.992 9.50369 197.232L9.26369 196.896C9.16769 196.704 9.21569 196.848 9.26369 196.896L9.11969 196.656C9.07169 196.608 9.07169 196.512 9.02369 196.464C8.92769 196.32 9.07169 196.608 9.02369 196.416C8.97569 196.224 8.92769 196.128 8.87969 196.032C8.78369 195.792 8.73569 195.504 8.68769 195.264C8.44769 193.824 8.54369 192.288 8.92769 190.896C9.45569 188.88 10.0797 186.864 10.8477 184.896C11.5677 182.928 12.3837 180.96 13.2477 179.04C16.6557 171.408 21.1197 164.304 26.4477 157.872C30.9597 152.544 36.1917 147.504 42.3837 144.144C46.2237 142.08 51.1197 140.256 55.3917 141.84C56.1597 142.128 56.8317 142.464 57.5037 142.944C57.6957 143.04 57.8397 143.184 58.0317 143.328C57.8877 143.232 58.0317 143.328 58.1277 143.376L58.4157 143.616C58.5597 143.76 58.7517 143.904 58.8957 144.048L59.1357 144.288L59.2317 144.384C59.1357 144.288 59.3757 144.528 59.2317 144.384C59.5677 144.72 59.8557 145.056 60.1437 145.392C60.2397 145.488 60.2877 145.584 60.3837 145.632L60.4797 145.776C60.4317 145.776 60.2877 145.536 60.4317 145.728C60.5757 145.92 60.7197 146.112 60.8637 146.304C61.1517 146.688 61.4397 147.12 61.6797 147.504C61.5357 147.312 61.6797 147.504 61.7277 147.6C61.7757 147.696 61.8717 147.792 61.9197 147.936C62.0637 148.176 62.2077 148.416 62.3037 148.608C62.5437 149.088 62.7837 149.52 63.0717 150L63.2637 150.336L63.3597 150.528C63.3117 150.384 63.4557 150.672 63.3597 150.528C63.4557 150.768 63.5997 151.056 63.6957 151.296C64.1757 152.304 64.5597 153.36 64.9437 154.416C65.7597 156.624 66.4317 158.88 66.9597 161.136C68.1117 165.84 68.9757 170.64 69.5517 175.44C70.0797 179.52 70.4157 183.6 70.6557 187.728C70.7997 189.888 70.8957 192.048 70.8957 194.208V194.496L71.1357 194.16C67.6797 195.024 64.2237 195.792 60.7677 196.464C53.3277 198 45.8397 199.248 38.2557 200.064C33.9357 200.592 29.5677 200.832 25.1997 200.832C24.7197 200.832 25.1037 201.696 25.1997 201.888C25.3917 202.272 25.8237 202.896 26.3517 202.896C34.2717 202.992 42.1437 201.984 49.9677 200.784C56.2557 199.776 62.5437 198.528 68.7837 197.136C69.9837 196.848 71.1837 196.608 72.3837 196.272C72.5277 196.272 72.6717 196.128 72.6237 195.936C72.6237 194.352 72.5277 192.72 72.4797 191.136C72.2877 187.2 71.9997 183.264 71.5677 179.328C71.0397 174.336 70.2237 169.392 69.1677 164.496C68.0637 159.696 66.6717 154.896 64.5117 150.432C62.7357 146.736 60.2397 142.992 56.6397 140.832C55.1037 139.872 53.3277 139.344 51.5517 139.248C49.0557 139.104 46.5597 139.776 44.2557 140.688C37.8717 143.184 32.3997 147.936 27.7917 152.88C22.0797 159.072 17.2317 166.08 13.4397 173.616C11.4717 177.552 9.74369 181.584 8.35169 185.76C7.29569 188.976 6.23969 192.432 7.53569 195.744C9.79169 201.456 16.5597 202.464 21.9357 202.752C23.4237 202.848 24.8637 202.848 26.3517 202.896C26.8317 202.896 26.4477 202.032 26.3517 201.84C26.1117 201.456 25.6797 200.832 25.1997 200.832Z" fill="#3D3D3D"/>
<path d="M63.8396 145.824C56.1596 146.688 57.0236 142.608 55.0076 147.36C55.0076 147.36 52.7516 152.016 44.7836 145.392C43.6796 144.48 46.2236 127.632 58.8476 122.88C58.8476 122.88 65.6156 122.592 66.8156 116.784C66.8156 116.784 68.9276 122.832 73.1996 124.416C77.4716 126 86.2556 127.776 85.4876 132.336C84.7196 136.896 78.4796 136.128 75.1196 134.016L72.0476 139.968C67.6796 139.296 67.8236 134.4 67.8236 134.4C67.8236 134.4 63.5996 137.184 63.6956 139.2C63.7916 141.216 67.5836 143.472 67.5836 143.472C66.7676 144.768 65.3756 145.68 63.8396 145.824Z" fill="white"/>
<path d="M63.9355 144.816C62.4955 145.008 61.0555 144.96 59.6155 144.72C59.3755 144.672 59.1835 144.624 58.9435 144.576C58.7035 144.528 58.8955 144.576 58.9435 144.576L58.7995 144.528L58.5115 144.432C58.1755 144.336 57.8395 144.192 57.4555 144.096C56.6875 143.904 55.8715 144.144 55.3435 144.672C55.0075 145.008 54.7675 145.392 54.5275 145.872C54.2395 146.304 54.0475 146.784 53.9035 147.264C53.9035 147.216 54.0955 146.976 53.9035 147.216C53.8555 147.264 53.8075 147.312 53.7595 147.408C53.6155 147.648 53.9995 147.216 53.7595 147.408L53.4715 147.648C53.3275 147.792 53.5675 147.6 53.5675 147.6C53.5195 147.648 53.4235 147.696 53.3755 147.696L53.1835 147.792C52.9435 147.936 53.3275 147.744 53.1835 147.792C53.0395 147.84 52.8475 147.888 52.7035 147.936C52.5595 147.984 52.9435 147.888 52.7995 147.936H52.7035H52.4155C52.3195 147.936 52.2235 147.936 52.1275 147.936C51.9355 147.936 52.0795 147.936 52.1275 147.936H51.8875C51.3595 147.888 50.8795 147.744 50.3995 147.6C48.7675 146.928 47.2315 146.016 45.9355 144.864C45.8395 144.816 45.7435 144.624 45.6475 144.624C45.6475 144.624 45.8395 144.864 45.7435 144.768C45.6475 144.672 45.7915 145.008 45.7435 144.816C45.6955 144.624 45.6955 144.432 45.6475 144.24C45.5995 144.048 45.6475 144.48 45.6475 144.24C45.6475 144.192 45.6475 144.096 45.6475 144.048C45.6475 143.904 45.6475 143.76 45.6475 143.568C45.6475 143.232 45.6955 142.848 45.7435 142.512C46.0315 140.592 46.5115 138.672 47.2315 136.896C49.0555 132.048 52.1755 127.536 56.6875 124.944C57.3115 124.608 57.9835 124.32 58.5595 124.032C58.6075 123.984 58.9435 123.888 58.6075 123.936H58.6555C58.7515 123.936 58.7995 123.936 58.8955 123.936C59.6635 123.84 60.4315 123.696 61.1515 123.504C63.6475 122.784 65.8555 121.296 67.0555 118.944C67.3915 118.272 67.6795 117.504 67.8235 116.784L65.5675 117.216C66.1915 118.944 67.0555 120.576 68.1595 122.016C69.0715 123.216 70.1755 124.224 71.4715 124.992C72.6715 125.568 73.9195 126 75.2155 126.336C77.7595 127.152 80.5915 127.92 82.7035 129.504C83.5675 130.128 84.1435 130.8 84.2875 131.76C84.3355 132.24 84.2395 132.768 84.0475 133.2C83.9515 133.392 83.8555 133.584 83.7115 133.776C83.5675 133.968 83.6635 133.824 83.6635 133.824L83.5195 133.92C83.4715 133.968 83.4235 134.016 83.3755 134.016C83.2795 134.112 83.5195 133.968 83.3275 134.064C82.8955 134.352 82.3675 134.544 81.8395 134.592C81.1675 134.688 80.4955 134.64 79.8235 134.544C78.3835 134.352 76.9915 133.824 75.7435 133.056C75.1195 132.672 74.3035 133.296 74.0155 133.824L70.9435 139.776L72.4315 138.96C70.9915 138.72 69.7435 137.712 69.3115 136.32C69.3115 136.32 69.2635 136.176 69.2155 136.032C69.1675 135.888 69.1195 135.744 69.1195 135.6C69.0715 135.36 69.0235 135.12 68.9755 134.88C68.9275 134.64 68.9755 134.496 68.9275 134.352C68.9275 134.304 68.9275 134.592 68.9275 134.352C68.9275 133.488 67.9675 133.152 67.2955 133.632C66.4795 134.16 65.7115 134.736 64.9915 135.408C63.9835 136.32 62.7835 137.52 62.5435 138.96C62.3035 140.4 63.4075 141.696 64.3675 142.608C65.1355 143.28 65.9515 143.904 66.8635 144.432L66.4795 143.328C66.4315 143.424 66.3835 143.376 66.5755 143.184C66.5275 143.232 66.4795 143.328 66.4315 143.376C66.3835 143.472 66.2875 143.568 66.2395 143.664C66.1915 143.76 66.0475 143.904 66.1435 143.76C66.2395 143.616 66.0475 143.856 66.0475 143.856C65.8075 144.096 65.5675 144.288 65.2795 144.432C64.8475 144.624 64.4155 144.768 63.9355 144.816C63.3595 144.864 62.8315 145.296 62.6875 145.92C62.6395 146.4 63.0235 146.832 63.5035 146.832C63.5515 146.832 63.6475 146.832 63.6955 146.832C65.7115 146.592 67.6795 145.44 68.5915 143.568C68.7835 143.136 68.5915 142.656 68.1595 142.464L67.9675 142.368L67.8715 142.32L67.6315 142.176C67.1515 141.84 66.7195 141.504 66.2395 141.12C65.8075 140.784 65.4235 140.352 65.0875 139.92C64.7995 139.584 64.6555 139.152 64.7035 138.672C64.8475 138.288 65.0875 137.904 65.3755 137.568C65.7115 137.136 66.1435 136.752 66.5275 136.416C66.9115 136.08 67.3435 135.744 67.7755 135.408C67.8235 135.36 68.0635 135.168 67.7755 135.408C67.8235 135.36 67.9675 135.312 67.9675 135.264C67.9675 135.216 68.0635 135.168 68.1115 135.168L66.4795 134.448C66.4795 135.504 66.6715 136.56 67.0555 137.52C67.8235 139.344 69.4555 140.64 71.4235 140.928C72.0475 141.024 72.6235 140.64 72.9115 140.112L75.9835 134.16L74.3995 134.88C76.7995 136.368 80.0635 137.136 82.7995 136.368C85.5355 135.6 87.5515 132.528 86.2075 129.792C85.6315 128.64 84.5275 127.824 83.4715 127.152C82.1755 126.432 80.8315 125.808 79.4395 125.328C78.0475 124.848 76.6075 124.416 75.2155 123.936C73.8715 123.6 72.6235 122.928 71.5675 122.064C70.4635 121.008 69.5035 119.76 68.8315 118.416C68.5435 117.936 68.3035 117.408 68.1115 116.88C68.0635 116.736 67.9675 116.544 67.9195 116.4C67.8235 116.16 67.9195 116.352 67.9195 116.448C67.4875 115.248 65.8555 115.872 65.6635 116.88C65.4235 118.08 64.7995 119.184 63.8395 120L63.5035 120.288C63.3115 120.432 63.4555 120.336 63.4555 120.336L63.2635 120.48C63.0235 120.672 62.7355 120.816 62.4955 120.96C62.3995 121.008 62.2555 121.056 62.1595 121.152C61.8715 121.296 62.2075 121.152 62.0155 121.2C61.8235 121.248 61.4875 121.392 61.2475 121.488C61.0075 121.584 60.8155 121.632 60.5755 121.68L60.2875 121.728L60.0475 121.776L59.7115 121.824L59.3275 121.872C58.3195 122.064 57.3595 122.4 56.4955 122.928C51.4075 125.568 47.7595 130.368 45.5995 135.6C44.7355 137.616 44.1115 139.776 43.7275 141.936C43.5835 142.656 43.4875 143.376 43.4875 144.144C43.4395 144.72 43.4875 145.296 43.6795 145.824C43.8715 146.16 44.1595 146.448 44.4955 146.64C45.3115 147.312 46.1755 147.888 47.0875 148.464C48.2875 149.232 49.6315 149.712 51.0235 149.952C52.7515 150.24 54.5275 149.616 55.7275 148.272C55.9675 147.984 56.1595 147.648 56.3035 147.264C56.3995 147.024 56.5435 146.736 56.6395 146.496C56.6875 146.4 56.7355 146.304 56.7835 146.208C56.8795 145.968 56.6875 146.304 56.8315 146.112L56.9755 145.872C57.0715 145.728 57.0715 145.776 56.9275 145.92C57.2155 145.68 56.8315 145.968 56.7355 145.968C56.9275 145.92 56.5435 146.016 56.5915 145.968C56.7835 145.968 56.5435 145.968 56.4955 145.968C56.5915 146.016 56.7355 146.016 56.8795 146.016C56.4955 145.968 56.9755 146.064 57.0715 146.064L57.5995 146.256C58.7995 146.64 59.9995 146.832 61.2475 146.88C62.1115 146.88 62.9755 146.88 63.8875 146.784C64.5115 146.736 65.0395 146.304 65.1355 145.68C65.1835 145.2 64.7995 144.768 64.3195 144.768C64.0795 144.816 64.0315 144.816 63.9355 144.816Z" fill="#3D3D3D"/>
<path d="M42.5755 132.768C42.5755 132.768 36.1435 133.392 35.7115 129.888C35.2795 126.384 39.0715 127.824 39.0715 127.824C39.0715 127.824 35.6155 120.24 42.0955 120.048C42.0955 120.048 37.7275 114.048 42.6235 109.872C47.5195 105.696 55.1995 110.16 55.1995 110.16C55.1995 110.16 56.2075 102.72 62.4475 104.688C68.6875 106.656 66.3835 110.88 66.3835 110.88C66.3835 110.88 70.4155 112.08 70.0795 114.672C69.7435 117.264 66.5275 117.744 66.5275 117.744C66.5275 117.744 64.1755 124.848 58.7515 122.88L51.8875 131.184C51.8875 131.184 53.2315 134.832 50.5915 137.952C47.9515 141.072 41.5195 137.472 42.5755 132.768Z" fill="#3D3D3D"/>
<path d="M42.5758 131.856C42.4318 131.856 42.4798 131.952 42.7198 131.856C42.6238 131.856 42.5278 131.856 42.3838 131.856C42.0478 131.856 41.6638 131.856 41.3278 131.856C40.4158 131.856 39.5038 131.712 38.6398 131.424C37.8238 131.232 37.1518 130.608 36.8638 129.792C36.8158 129.552 36.7678 129.312 36.8158 129.072C36.8158 128.976 36.8158 128.88 36.8158 128.784L36.8638 128.64C36.9598 128.352 36.8638 128.736 36.8638 128.544C36.8638 128.496 36.9118 128.448 36.9118 128.448C36.8158 128.64 36.8638 128.496 36.9118 128.448C36.8158 128.592 37.0078 128.256 36.9118 128.448C36.9118 128.496 36.6238 128.544 36.8638 128.496C36.9118 128.496 37.0078 128.448 36.8638 128.496C36.7198 128.544 37.0078 128.496 37.0558 128.448C37.1998 128.448 36.9598 128.448 36.9598 128.448H37.1038H37.4398H37.5838C37.4878 128.448 37.3918 128.4 37.5358 128.448L37.8238 128.496C38.0158 128.544 38.2078 128.592 38.3998 128.64C39.0718 128.88 40.4638 128.16 40.0798 127.344C39.5998 126.288 39.3118 125.184 39.2158 124.032C39.2158 123.792 39.2158 123.552 39.2158 123.36C39.2158 123.264 39.2158 123.168 39.2158 123.072C39.2158 123.024 39.2638 122.688 39.2158 122.832C39.2638 122.448 39.4078 122.112 39.5998 121.776C39.6478 121.728 39.8398 121.488 39.6478 121.68C39.7438 121.584 39.7918 121.488 39.8878 121.392C40.0798 121.2 39.7438 121.488 39.9358 121.344C39.9838 121.296 40.3678 121.104 40.0798 121.248C40.2238 121.2 40.3678 121.104 40.5118 121.056C40.7518 120.96 40.3678 121.056 40.6558 121.008C40.9918 120.912 41.2798 120.912 41.6158 120.864C42.3358 120.816 43.4878 120.144 42.9118 119.328L42.8158 119.184V119.136C42.7678 119.04 42.6718 118.944 42.6238 118.8C42.2878 118.272 42.0478 117.696 41.8078 117.072C41.2318 115.488 41.0398 113.712 41.8078 112.128C43.5838 108.384 48.0958 108.528 51.4558 109.632C52.4158 109.92 53.3758 110.352 54.2398 110.832C54.9598 111.168 55.7758 110.88 56.1118 110.16C56.1598 110.064 56.2078 109.968 56.2078 109.824C56.2078 109.68 56.1598 110.112 56.2078 109.872C56.2558 109.728 56.2558 109.584 56.3038 109.44C56.3998 109.008 56.5438 108.576 56.6878 108.144C56.8318 107.664 57.0718 107.184 57.3598 106.752C57.4558 106.656 57.5038 106.512 57.5998 106.416C57.5998 106.416 57.7918 106.128 57.6478 106.32C57.6958 106.272 57.7438 106.224 57.7918 106.176C57.8878 106.08 58.0318 105.936 58.1278 105.84C58.1758 105.792 58.2238 105.744 58.2718 105.696C58.0798 105.84 58.3198 105.648 58.3678 105.648C58.7998 105.312 59.2798 105.168 59.8078 105.12C60.7678 105.12 61.7278 105.312 62.5918 105.696C63.4078 106.032 64.1758 106.512 64.7998 107.184C65.1358 107.616 65.3758 108.096 65.4718 108.624C65.5198 108.912 65.5198 109.2 65.5198 109.488C65.5198 109.536 65.5198 109.632 65.4718 109.68C65.4718 109.872 65.5198 109.488 65.4718 109.728C65.4718 109.824 65.4238 109.92 65.4238 110.016C65.3758 110.208 65.3278 110.352 65.2318 110.496C65.1358 110.784 65.3278 110.304 65.2318 110.448C64.9918 110.784 65.0878 111.216 65.3758 111.456C65.4718 111.504 65.5678 111.552 65.6638 111.6C65.8078 111.648 65.9998 111.696 66.1438 111.792C65.9038 111.696 66.3838 111.888 66.4318 111.936C66.6238 112.032 66.8638 112.128 67.0078 112.224C67.7278 112.656 68.5438 113.232 68.7358 114.096C68.8318 114.576 68.7358 115.056 68.4478 115.44C68.2558 115.776 67.9678 116.064 67.5838 116.208C67.5358 116.256 67.2958 116.352 67.4878 116.256C67.3918 116.304 67.2478 116.352 67.1518 116.4C66.9598 116.496 66.7678 116.544 66.6238 116.592C67.0078 116.496 66.4798 116.64 66.3358 116.64C65.8558 116.736 65.4238 117.024 65.2318 117.504C65.1358 117.84 64.9918 118.176 64.8478 118.464C64.7998 118.608 64.8958 118.32 64.7998 118.56C64.7518 118.608 64.7518 118.704 64.7038 118.8C64.6078 118.944 64.5118 119.136 64.4158 119.28C64.1758 119.664 63.9358 120.048 63.6478 120.384C63.5518 120.528 63.4078 120.672 63.3118 120.768C63.1678 120.96 62.9758 121.104 62.7838 121.248C62.5918 121.392 62.7838 121.248 62.6398 121.392C62.5438 121.44 62.4478 121.536 62.3518 121.584L62.0638 121.776C61.8718 121.872 62.1598 121.728 61.9198 121.872L61.5358 122.016C61.2958 122.112 61.6798 121.968 61.3918 122.064L61.0558 122.112C60.9598 122.112 60.9118 122.112 60.8158 122.16C60.9118 122.16 60.9118 122.16 60.8158 122.16C60.2398 122.16 59.6638 122.064 59.1358 121.872C58.6078 121.776 58.0798 121.92 57.7438 122.256L51.4558 129.84C51.1678 130.176 50.5438 130.8 50.5438 131.232C50.5918 131.472 50.6398 131.76 50.7358 132C50.8318 132.432 50.8798 132.864 50.8798 133.344C50.9278 134.832 50.4478 136.272 49.4878 137.424C49.3918 137.52 49.2958 137.616 49.1998 137.712L49.0078 137.808C48.8158 137.952 49.1038 137.808 48.9118 137.856C48.8638 137.856 48.4798 138 48.6718 137.952C48.5758 138 48.4798 138 48.3358 138H48.0958C47.8558 138 47.6638 138 47.4238 137.952C45.0238 137.52 42.8638 135.12 43.3918 132.576C43.6798 131.232 41.3758 131.424 41.1358 132.528C40.4638 135.744 42.6238 138.576 45.6478 139.536C47.1358 140.016 48.7198 139.872 50.1118 139.104C51.7918 138.144 52.7518 136.08 53.0398 134.256C53.2318 133.008 53.1358 131.76 52.7518 130.56L52.4638 131.472L58.4638 124.224L59.3278 123.168L57.9358 123.552C60.6238 124.512 63.3598 123.552 65.1358 121.44C66.1438 120.288 66.9118 118.992 67.3918 117.552L66.2878 118.416C68.4958 118.032 71.0878 116.352 70.9918 113.856C70.8958 111.696 68.5438 110.352 66.6718 109.776L67.1038 110.928C67.4878 110.16 67.6798 109.344 67.6318 108.48C67.5358 106.608 66.2398 105.216 64.6078 104.4C62.5918 103.344 60.1438 102.768 57.9838 103.728C56.4478 104.448 55.1998 105.744 54.5278 107.328C54.0958 108.24 53.8558 109.2 53.7118 110.16L55.6798 109.152C52.8958 107.52 49.6798 106.752 46.4158 107.04C43.8718 107.328 41.5198 108.672 40.0318 110.736C38.8318 112.56 38.4958 114.816 39.1198 116.928C39.4558 118.176 40.0318 119.376 40.7518 120.48L42.0478 118.944C39.7918 119.04 37.4878 119.952 36.8638 122.304C36.4318 123.84 36.7678 125.52 37.2478 127.008C37.3438 127.392 37.4878 127.728 37.6318 128.064L39.3118 126.768C37.2958 126 34.4158 126.528 34.1758 129.072C33.8878 132.24 37.1038 133.296 39.6478 133.488C40.5118 133.584 41.3758 133.584 42.2398 133.488C42.7678 133.44 43.3918 132.96 43.3918 132.384C43.3918 131.808 43.0558 131.808 42.5758 131.856Z" fill="#3D3D3D"/>
<path d="M59.5195 124.464C59.5195 124.464 59.4715 119.328 55.7275 119.76C51.9835 120.192 48.8155 131.232 55.2475 131.904" fill="white"/>
<path d="M60.6718 124.32C60.6718 123.12 60.3358 121.92 59.7118 120.864C58.5598 119.04 55.8718 118.8 54.0478 119.76C52.6078 120.48 51.6478 122.016 51.0718 123.504C50.3518 125.184 50.1598 127.008 50.4958 128.784C50.9758 130.896 52.5598 132.096 54.6718 132.336C55.1518 132.384 55.9198 132.336 56.3038 132C56.6878 131.664 56.1118 131.472 55.8238 131.424C52.5598 131.04 52.4158 126.864 53.1358 124.32C53.4718 122.928 54.1918 121.632 55.2478 120.576C55.4398 120.384 55.6318 120.24 55.8718 120.144C55.9198 120.096 56.0158 120.048 55.8718 120.144C55.9678 120.096 56.1598 120.096 55.8718 120.144C56.0638 120.144 55.7758 120.144 55.7758 120.144C55.7758 120.144 55.9678 120.144 55.9198 120.144C56.5918 120.24 57.1678 120.672 57.5518 121.248C58.1278 122.256 58.4638 123.408 58.4638 124.56C58.4638 125.136 60.8638 124.992 60.8638 124.272L60.6718 124.32Z" fill="#3D3D3D"/>
<path d="M67.5836 124.848C68.0156 125.04 68.1596 125.52 67.9676 125.952C67.9676 126 67.9196 126.048 67.9196 126.048C67.3916 126.816 66.4796 126.192 66.6716 125.376C66.7196 124.992 67.1036 124.704 67.4876 124.8C67.4876 124.848 67.5356 124.848 67.5836 124.848Z" fill="#3D3D3D"/>
<path d="M53.2798 135.648C57.8129 135.648 61.4878 131.973 61.4878 127.44C61.4878 122.907 57.8129 119.232 53.2798 119.232C48.7466 119.232 45.0718 122.907 45.0718 127.44C45.0718 131.973 48.7466 135.648 53.2798 135.648Z" fill="#CECECE"/>
<path d="M60.3838 126.96C60.3838 130.128 58.4638 132.96 55.5838 134.208C52.9438 135.312 49.6797 134.832 47.8077 132.576C45.8397 130.128 45.5997 126.768 47.1357 124.032C48.6717 121.296 51.7438 119.76 54.8638 120.144C58.2238 120.672 60.3838 123.696 60.3838 126.96C60.3838 127.488 60.9118 127.92 61.3918 128.16C61.6318 128.256 62.5438 128.544 62.5438 127.968C62.4478 124.08 60.0478 120.624 56.3997 119.184C52.8477 117.744 48.7677 118.464 46.1757 121.344C43.6797 124.224 43.3438 128.352 45.3118 131.616C47.3277 134.928 51.3117 136.992 55.1997 136.416C59.3757 135.744 62.4477 132.192 62.4957 127.968C62.4957 127.44 61.9678 127.008 61.4878 126.768C61.2478 126.672 60.3838 126.432 60.3838 126.96Z" fill="#CECECE"/>
<path d="M52.8957 121.92C52.1757 119.712 51.4557 117.36 51.6957 115.008C51.8397 113.088 52.8477 111.312 54.4797 110.256C54.8157 110.064 53.4237 108.096 52.9917 108.384C51.3117 109.44 50.3997 111.36 50.1597 113.328C49.8717 115.776 50.6397 118.224 51.3597 120.528C51.5517 121.056 51.8877 121.536 52.2717 121.872C52.4157 121.968 53.0877 122.4 52.8957 121.92Z" fill="#CECECE"/>
<path d="M64.5113 154.512C60.5753 157.728 55.9673 160.08 51.0233 161.376C48.9113 161.904 46.5593 162.048 44.8313 160.56C43.9193 159.792 43.1993 158.832 42.2873 158.112C41.2793 157.344 40.1273 156.816 38.9273 156.528C37.4393 156.24 35.9513 156.048 34.4633 156L29.5673 155.568C29.0393 155.52 28.3673 155.808 28.3193 156.384C28.2713 156.96 28.9433 157.344 29.4233 157.392L33.8393 157.776C35.1353 157.872 36.4793 157.92 37.7753 158.16C38.9273 158.352 40.0313 158.832 40.9433 159.648C41.8553 160.464 42.6233 161.424 43.5833 162.144C45.7433 163.728 48.5273 163.824 51.0713 163.296C53.6633 162.72 56.1593 161.856 58.5113 160.704C61.2473 159.408 63.7913 157.824 66.1433 155.952C67.2953 154.992 65.4713 153.792 64.5113 154.512Z" fill="#3D3D3D"/>
<path d="M64.1756 168.576C61.5356 170.352 58.6556 171.696 55.6316 172.608C54.1916 173.04 52.6556 173.52 51.1196 173.472C50.3996 173.472 49.7276 173.28 49.1036 172.944C48.4796 172.512 47.9516 171.984 47.3276 171.504C44.9276 169.68 41.8076 169.392 38.9276 169.584C35.5676 169.824 32.3036 170.88 28.8956 170.88C26.0156 170.88 22.8476 169.824 21.3116 167.232C20.8316 166.368 18.6716 167.472 19.1516 168.336C20.6396 170.88 23.4716 172.128 26.3036 172.464C29.8076 172.896 33.3116 171.888 36.7676 171.408C39.6956 171.024 43.0076 171.072 45.4556 172.992C46.0316 173.52 46.6556 174 47.3276 174.432C48.0476 174.816 48.8156 175.056 49.6316 175.152C51.3116 175.296 52.9916 174.864 54.6236 174.432C58.4636 173.424 62.0637 171.792 65.3277 169.584C65.6637 169.344 66.0476 168.768 65.6637 168.432C65.2796 168.096 64.5596 168.384 64.1756 168.576Z" fill="#3D3D3D"/>
<path d="M11.1836 196.272C12.1916 192.192 14.2556 188.496 17.1836 185.472C20.0156 182.544 23.8076 180.048 27.8876 179.28C29.9996 178.8 32.2076 179.328 33.9356 180.672C34.2716 180.96 34.9916 180.912 35.4236 180.912C35.5196 180.912 36.4796 180.816 36.2876 180.624C34.3196 179.04 31.8236 178.56 29.3276 178.56C26.8796 178.56 24.4316 179.088 22.1756 180.096C17.9516 182.016 14.3996 185.088 11.9036 188.976C10.4636 191.184 9.40762 193.584 8.78362 196.128C8.68762 196.368 11.0396 196.752 11.1836 196.272Z" fill="#3D3D3D"/>
<path d="M95.0874 202.944L112.271 164.64L59.4234 163.44L47.2314 202.992L95.0874 202.944Z" fill="white"/>
<path fill-rule="evenodd" clip-rule="evenodd" d="M74.7235 184.963L75.9631 178.673C76.0116 178.427 76.2274 178.25 76.4782 178.25H82.7614C83.0926 178.25 83.341 178.553 83.2763 178.878L83.0284 180.123H84.3601C84.6912 180.123 84.9397 180.425 84.875 180.75L83.6223 187.04C83.5734 187.285 83.3578 187.462 83.1074 187.462H76.8372C76.5065 187.462 76.2582 187.16 76.3221 186.836L76.5677 185.59H75.2386C74.9079 185.59 74.6595 185.287 74.7235 184.963ZM81.9393 185.589L83.0284 180.123H78.0768C77.826 180.123 77.6102 180.3 77.5617 180.546L76.5677 185.589H80.31L81.3823 186.465C81.5369 186.592 81.7704 186.506 81.8065 186.31L81.9393 185.589Z" fill="#CECECE"/>
<path d="M95.8554 203.808L97.5834 200.016L101.663 190.896L106.607 179.856L110.879 170.304L112.271 167.184C112.559 166.704 112.751 166.224 112.943 165.696L112.991 165.648C113.183 165.216 112.031 163.776 111.647 163.776L106.415 163.632L93.7914 163.344L78.5274 162.96L65.3274 162.672L60.9594 162.576C60.2874 162.48 59.5674 162.48 58.8954 162.528H58.7994C58.7034 162.528 58.6554 162.528 58.6554 162.624L57.4554 166.56L54.5274 176.016L51.0234 187.44L47.9994 197.328L46.9914 200.592C46.7994 201.072 46.6554 201.6 46.5114 202.128V202.176C46.3674 202.608 47.4234 204.048 47.8554 204.048H52.6074H64.0314L77.8554 204H89.7594H93.6954C94.3194 204.048 94.9434 204.048 95.5674 204H95.6634C96.0474 204 95.5674 203.232 95.4714 203.088C95.2794 202.8 94.7994 202.032 94.4154 202.032H89.7594H78.2874L64.4634 202.08H52.5594H48.6234C47.9994 202.08 47.3754 202.032 46.7514 202.08H46.6554L47.9994 203.952L49.5354 198.96L53.0874 187.44L57.0234 174.624L59.7594 165.696L60.0954 164.688C60.0954 164.592 60.2874 164.256 60.1434 164.4C59.9994 164.544 60.2874 164.448 60.3834 164.448H61.2474L69.0714 164.64L81.4554 164.928L95.0874 165.264L106.607 165.552L112.655 165.696H112.943L111.599 163.824L109.871 167.616L105.791 176.736L100.847 187.776L96.5274 197.376L95.1354 200.496C94.8474 200.976 94.6554 201.456 94.4634 201.984C94.4634 202.032 94.4634 202.032 94.4154 202.032C94.1274 202.512 95.7114 204.144 95.8554 203.808Z" fill="#CECECE"/>
<path d="M53.3275 189.36C53.3275 189.36 63.3595 186.672 67.0075 186.576C70.6555 186.48 70.4155 189.84 66.0475 192.192C66.0475 192.192 69.7435 191.04 68.8795 194.64C68.0155 198.24 62.2075 200.832 62.2075 200.832C62.2075 200.832 69.7915 200.544 69.1675 203.232C68.5435 205.92 28.2235 203.616 25.6315 201.888C23.0395 200.16 29.9995 182.256 31.5835 181.632C33.1675 181.008 49.3915 186.96 49.3915 186.96L52.0315 183.888" fill="white"/>
<path d="M53.5677 190.368C55.7757 189.792 57.9837 189.264 60.1917 188.736C61.8237 188.352 63.3117 188.064 64.9437 187.824C65.5677 187.728 66.1917 187.68 66.8157 187.632C67.1517 187.584 67.4877 187.632 67.8237 187.728C67.9677 187.824 68.1117 187.872 68.2557 188.016C68.1597 187.92 68.3037 188.112 68.3037 188.112C68.2557 187.92 68.3037 188.112 68.3037 188.16C68.3037 188.208 68.3517 188.352 68.3037 188.16C68.3037 188.256 68.3037 188.352 68.3037 188.448C68.2557 188.64 68.3037 188.496 68.3037 188.448C68.2557 188.688 68.1597 188.928 68.0157 189.168C67.3437 190.08 66.4797 190.8 65.4717 191.28C64.9437 191.52 64.7517 192.144 64.9917 192.624C65.2317 193.104 65.7597 193.296 66.2397 193.152H66.3357L66.4317 193.104C66.6237 193.056 66.1437 193.152 66.3837 193.104C66.5277 193.104 66.6717 193.056 66.8157 193.056H67.0077C67.2957 193.056 66.9597 193.056 67.1037 193.056L67.3437 193.104H67.4397C67.5837 193.152 67.2477 193.008 67.3917 193.104L67.5837 193.2C67.6797 193.248 67.5357 193.152 67.5357 193.152C67.5837 193.2 67.6317 193.248 67.6797 193.296C67.6797 193.296 67.6797 193.2 67.6797 193.344C67.6797 193.488 67.6797 193.296 67.7277 193.44C67.7757 193.632 67.7757 193.872 67.7277 194.112C67.4397 196.32 65.1837 197.856 63.4077 198.96C62.9757 199.2 62.5917 199.44 62.1597 199.68C62.0157 199.776 61.1997 200.112 61.8717 199.824C61.3437 199.968 60.9597 200.496 60.9597 201.072C61.0077 201.6 61.4877 201.984 62.0157 201.936C62.3997 201.936 62.8317 201.936 63.2157 201.936H63.4557H63.5517C63.7917 201.936 63.9837 201.936 64.2237 201.984C64.6557 202.032 65.1357 202.08 65.5677 202.128C65.7597 202.176 65.9997 202.176 66.1917 202.224C66.2877 202.224 66.3837 202.272 66.4797 202.272C66.5757 202.272 66.8637 202.368 66.7677 202.368C66.6717 202.368 67.1037 202.464 67.1997 202.56L67.4397 202.656C67.5357 202.704 67.7277 202.848 67.5357 202.704C67.6317 202.8 67.9197 203.088 67.7277 202.848C67.7757 202.896 67.7757 202.944 67.8237 203.04C67.9197 203.184 67.6797 202.896 67.8237 203.088C67.7757 203.088 67.9677 203.28 67.8237 203.088C67.7277 203.28 67.8717 203.088 67.8237 203.088C67.7277 203.232 68.0157 202.752 67.8717 202.944C67.8717 202.944 68.1117 202.656 68.0157 202.752C67.9677 202.8 67.8717 202.848 68.0637 202.704C67.8237 202.704 68.2077 202.656 68.1597 202.656C68.0637 202.656 68.0157 202.704 67.9677 202.752C67.7757 202.8 67.6317 202.848 67.4397 202.896C67.2477 202.944 67.0557 202.944 67.3917 202.896L67.0557 202.944C65.8557 203.136 64.6557 203.232 63.4557 203.28C59.8557 203.472 56.3037 203.424 52.7037 203.328C48.5757 203.232 44.5917 203.04 40.4157 202.752C36.9597 202.512 33.5517 202.224 30.1437 201.792C29.0877 201.648 27.9837 201.504 26.9277 201.264C26.7357 201.216 26.5917 201.168 26.3997 201.12C26.7357 201.168 26.4477 201.12 26.2557 201.072C26.2077 201.072 26.1597 201.024 26.1117 201.024C25.9197 200.976 26.3517 201.216 26.1597 201.072C26.0157 200.928 26.1117 201.024 26.1597 201.072C26.3037 201.216 26.1597 201.072 26.1597 201.024C26.1597 200.976 26.1117 200.928 26.1117 200.928C26.0157 200.832 26.1597 201.168 26.1117 200.976C26.1117 200.88 26.0637 200.784 26.0157 200.64C25.9677 200.496 25.9677 200.16 25.9677 200.448C25.9677 200.16 25.9677 199.824 25.9677 199.536C25.9677 199.152 26.0157 198.768 26.1117 198.384C26.1117 198.192 26.1597 198 26.2077 197.808C26.2077 197.712 26.2557 197.616 26.2557 197.52L26.3037 197.328C26.7357 195.36 27.2637 193.44 27.9357 191.52C28.5597 189.6 29.2797 187.728 30.0957 185.904C30.2877 185.52 30.4317 185.088 30.6237 184.704C30.5277 184.896 30.6237 184.704 30.6717 184.656L30.7677 184.416C30.8637 184.272 30.9117 184.08 31.0077 183.936C31.2477 183.456 31.5837 183.024 31.8717 182.544C31.9677 182.4 31.6797 182.736 31.7757 182.64C31.8237 182.64 31.8237 182.592 31.8717 182.544C32.0157 182.304 31.7757 182.592 31.7757 182.592C31.6797 182.64 31.4397 182.784 31.3917 182.736C31.4877 182.736 31.5357 182.736 31.6317 182.736C31.7757 182.688 31.3437 182.688 31.5357 182.736H31.6797L32.0637 182.784C32.3997 182.832 32.6877 182.88 33.0237 182.976C34.7997 183.36 36.3837 183.888 38.0637 184.416C41.3757 185.472 44.6397 186.624 47.9037 187.776L48.4797 188.016C48.9597 188.208 49.5357 188.112 49.8717 187.728L52.5117 184.656C52.8957 184.224 53.0877 183.552 52.5597 183.168C52.0797 182.784 51.3597 182.88 50.9277 183.312L48.2397 186.384L49.6317 186.096C46.9437 185.088 44.2077 184.176 41.5197 183.264C39.5037 182.592 37.4397 181.92 35.3757 181.344C34.1757 181.008 32.7357 180.528 31.4397 180.624C30.1437 180.72 29.4717 182.16 28.9437 183.168C28.0797 184.896 27.3117 186.624 26.6397 188.448C25.8717 190.512 25.1517 192.576 24.5757 194.688C24.0477 196.464 23.7117 198.24 23.6157 200.112C23.6157 201.264 23.7597 202.56 24.9117 203.088C25.7277 203.376 26.6397 203.616 27.5037 203.712C30.7197 204.24 34.0317 204.528 37.2957 204.768C41.6637 205.104 45.9837 205.344 50.3517 205.488C54.2877 205.632 58.2237 205.728 62.1597 205.584C63.5517 205.536 64.9437 205.488 66.2877 205.296C67.1997 205.2 68.2557 205.056 69.0717 204.576C69.5997 204.288 69.9357 203.76 69.9837 203.184C70.0317 202.272 69.5517 201.36 68.6877 200.976C67.1037 200.016 64.9437 199.968 63.1197 199.92C62.6877 199.92 62.3037 199.92 61.8717 199.92L62.0637 201.984C64.1277 201.072 65.9997 199.824 67.5837 198.24C68.7837 197.136 69.5517 195.648 69.7437 194.016C69.8877 192.672 69.2157 191.52 67.8717 191.184C67.0557 191.04 66.2397 191.088 65.4237 191.328L66.1917 193.2C67.9677 192.24 70.2237 190.512 70.3197 188.256C70.3677 186.144 68.1597 185.568 66.4317 185.616C64.7037 185.76 62.9757 186.048 61.2957 186.432C59.4717 186.816 57.5997 187.248 55.7757 187.68C54.7677 187.92 53.7597 188.208 52.7517 188.448C51.6477 188.688 52.0317 190.704 53.5677 190.368Z" fill="#3D3D3D"/>
<path d="M56.9756 195.312C60.7676 195.264 64.2716 193.824 67.7276 192.432C68.2556 192.24 67.8716 191.664 67.5836 191.472C67.1036 191.136 66.4796 191.04 65.9516 191.232C62.8316 192.528 59.5676 193.92 56.1596 193.968C55.7756 193.968 55.2476 194.208 55.4876 194.688C55.7276 195.168 56.5436 195.312 56.9756 195.312Z" fill="#3D3D3D"/>
</svg>
