<svg width="240" height="240" viewBox="0 0 240 240" fill="none" xmlns="http://www.w3.org/2000/svg">
<g id="Tenant Setting">
<g id="screen">
<path id="Vector" d="M95.9036 21.3125C95.9036 21.3125 225.888 20.5445 224.88 23.2325C223.872 25.9205 206.4 178.608 203.856 178.656C201.312 178.704 72.9116 175.968 71.5196 174.912C70.1276 173.856 93.9356 22.1765 95.9036 21.3125Z" fill="white"/>
<path id="Vector_2" d="M94.9917 21.8401H99.0717L110.064 21.7921C115.392 21.7921 120.672 21.7441 126 21.7441C132.384 21.7441 138.72 21.7441 145.104 21.7441C151.92 21.7441 158.736 21.7921 165.6 21.8401C172.224 21.8881 178.896 21.9361 185.52 22.0321C191.328 22.0801 197.136 22.1761 202.992 22.3201C207.408 22.4161 211.776 22.5601 216.192 22.8001C218.544 22.9441 220.944 22.8961 223.2 23.4241C223.392 23.4721 223.584 23.5201 223.776 23.6161C223.776 23.6161 223.824 23.6161 223.776 23.7121C223.68 24.2401 223.584 24.7681 223.488 25.2481C223.104 27.7921 222.768 30.3361 222.48 32.8801C221.952 37.1041 221.424 41.3761 220.896 45.6001C220.224 51.1681 219.504 56.7361 218.832 62.3041C218.064 68.7361 217.248 75.1681 216.48 81.5521C215.664 88.3681 214.8 95.1841 213.936 102C213.072 108.816 212.208 115.632 211.344 122.4C210.528 128.784 209.712 135.168 208.848 141.552C208.128 147.072 207.36 152.544 206.592 158.016C206.016 162.192 205.392 166.32 204.72 170.496C204.336 172.896 203.952 175.344 203.328 177.696C203.28 177.984 203.184 178.224 203.088 178.512C203.04 178.608 202.992 178.704 202.992 178.752C202.944 178.944 202.944 178.752 202.992 178.8C202.896 178.56 204.672 178.032 204.816 178.08H204.432H203.52C200.736 178.032 197.952 177.984 195.168 177.936L180.96 177.648L162.672 177.216C155.856 177.072 149.04 176.88 142.272 176.736C135.36 176.544 128.4 176.4 121.44 176.208C115.056 176.064 108.624 175.872 102.24 175.68C96.9597 175.536 91.6797 175.344 86.3997 175.152C82.8957 175.008 79.3917 174.912 75.8877 174.672L74.3037 174.576C73.8717 174.528 73.5837 174.528 73.2957 174.48C73.1037 174.48 72.9117 174.432 72.7197 174.384C72.6237 174.336 72.6717 174.432 72.6717 174.24C72.6237 173.712 72.6237 173.184 72.7197 172.704C72.8157 171.648 72.9117 170.592 73.0557 169.536C73.4397 166.032 73.9197 162.528 74.3997 159.024C75.0717 154.032 75.7917 149.04 76.5117 144.048C77.3757 138.048 78.2877 132.048 79.1997 126C80.2077 119.376 81.2157 112.752 82.2717 106.128C83.3277 99.3121 84.4317 92.4961 85.4877 85.6321C86.5437 79.0561 87.5997 72.4801 88.7037 65.9041C89.6637 60.0481 90.6237 54.1921 91.6317 48.2881C92.4477 43.5361 93.2637 38.7841 94.1277 34.0321C94.7037 30.8161 95.2797 27.6001 95.9997 24.4321C96.1917 23.5681 96.3837 22.7041 96.5757 21.8881C96.6237 21.6481 96.7197 21.4081 96.8157 21.1681C97.0077 20.6401 96.9597 20.9761 96.2877 21.3121C96.3837 21.2641 97.1997 20.8801 96.9597 20.6881C96.7197 20.4961 95.7597 20.9281 95.5197 21.0721C94.9437 21.3121 94.5117 21.8401 94.4637 22.4641C94.2237 23.3281 94.0317 24.1921 93.8397 25.0561C93.1677 28.2241 92.5917 31.4401 91.9677 34.6081C91.1037 39.3601 90.2877 44.1601 89.4717 48.9121C88.4637 54.8161 87.4557 60.7201 86.4957 66.6241C85.3917 73.2001 84.3357 79.8241 83.2797 86.4001C82.1757 93.2641 81.1197 100.128 80.0157 106.944C78.9597 113.616 77.9517 120.336 76.9437 127.056C76.0317 133.104 75.1197 139.152 74.2557 145.2C73.5357 150.192 72.8157 155.184 72.1437 160.176C71.6637 163.632 71.1837 167.088 70.7997 170.544C70.7037 171.552 70.5597 172.608 70.5117 173.616C70.4637 173.952 70.3197 174.72 70.4637 175.056C70.6077 175.392 71.0397 175.296 71.3277 175.344C72.2877 175.44 73.2477 175.488 74.2077 175.584C77.7597 175.776 81.3597 175.92 84.9117 176.064C90.2877 176.256 95.6157 176.448 100.992 176.592C107.472 176.784 113.952 176.976 120.384 177.12C127.344 177.312 134.304 177.456 141.312 177.648L161.808 178.128L180.096 178.56L194.16 178.848L202.032 178.992C202.944 179.088 203.856 178.896 204.672 178.464C205.2 178.176 205.536 177.696 205.584 177.12C206.16 174.864 206.64 172.56 206.928 170.208C207.6 166.128 208.224 162 208.8 157.92C209.568 152.496 210.336 147.024 211.056 141.552C211.92 135.168 212.736 128.736 213.552 122.352C214.416 115.488 215.28 108.672 216.144 101.808C217.008 94.9441 217.824 88.0801 218.688 81.1681C219.504 74.6881 220.272 68.2081 221.088 61.6801C221.76 56.0641 222.48 50.4481 223.152 44.8321C223.68 40.5121 224.256 36.1921 224.784 31.8721C225.12 29.2801 225.456 26.7361 225.84 24.1441C225.936 23.6641 226.032 23.1841 226.08 22.7521C226.08 22.3681 225.792 22.3201 225.408 22.2241C223.152 21.6961 220.656 21.6961 218.304 21.5521C213.888 21.3121 209.472 21.1681 205.056 21.0721C199.2 20.9281 193.296 20.8321 187.44 20.7841C180.768 20.6881 174.096 20.6401 167.424 20.5921C160.56 20.5441 153.744 20.5441 146.88 20.4961C140.496 20.4961 134.064 20.4961 127.68 20.4961C122.352 20.4961 116.976 20.4961 111.648 20.5441L100.8 20.5921H96.9597C96.3837 20.6401 95.8557 20.8321 95.4237 21.1201C95.0877 21.4081 94.4637 21.8401 94.9917 21.8401Z" fill="#CECECE"/>
<path id="Vector_3" d="M105.695 33.8885H113.903C114.479 33.8885 114.671 33.2645 114.527 32.7845C114.335 32.2085 113.855 31.7765 113.231 31.7285H104.975C104.399 31.7285 104.207 32.3525 104.351 32.8325C104.591 33.4565 105.119 33.8885 105.695 33.8885Z" fill="#CECECE"/>
<path id="Vector_4" d="M105.456 37.3443H113.664C114.144 37.3443 113.76 36.5283 113.664 36.3363C113.472 36.0003 113.04 35.2803 112.56 35.2803H104.352C103.872 35.2803 104.256 36.0963 104.352 36.2883C104.544 36.6243 104.976 37.3443 105.456 37.3443Z" fill="#CECECE"/>
<path id="Vector_5" d="M138.816 152.16L134.544 155.232L133.92 155.664C133.728 155.808 133.872 156.144 133.92 156.336C134.064 156.672 134.304 156.96 134.592 157.152L139.008 160.272C139.248 160.464 139.968 160.848 140.112 160.368C140.256 159.888 139.68 159.264 139.344 159.024L134.928 155.904L135.6 157.392L139.872 154.32L140.496 153.888C140.64 153.792 140.592 153.456 140.544 153.36C140.448 153.072 140.256 152.832 140.064 152.64C139.776 152.352 139.2 151.872 138.816 152.16Z" fill="#CECECE"/>
<path id="Vector_6" d="M144.528 153.168L148.56 157.2L148.368 155.952L144.144 158.928C143.232 159.6 145.056 161.088 145.872 160.512L150.096 157.536C150.576 157.2 150.192 156.576 149.904 156.288L145.872 152.256C145.536 151.92 144.816 151.584 144.336 151.92C143.856 152.256 144.288 152.88 144.528 153.168Z" fill="#CECECE"/>
<path id="Vector_7" d="M121.152 32.5439L206.016 33.7919L203.856 42.1439L119.184 41.0399L121.152 32.5439Z" fill="white"/>
<path id="Vector_8" d="M121.776 33.1678L124.032 33.2158L130.224 33.3118L139.344 33.4558L150.48 33.5998L162.72 33.7918L175.008 33.9838L186.48 34.1278L196.224 34.2718L203.184 34.3678C204.288 34.3678 205.392 34.4638 206.496 34.4158H206.64L204.864 33.3118L202.704 41.6158L203.184 41.4238L200.928 41.3758L194.736 41.2798L185.664 41.1838L174.528 41.0398L162.336 40.8958L150.096 40.7998L138.624 40.6558L128.928 40.5118L121.968 40.4158C120.864 40.4158 119.76 40.3198 118.656 40.3678H118.512L120.288 41.4718L122.256 32.9758C122.448 32.2558 120.144 31.4398 120.048 32.0638L118.128 40.5598C117.984 41.2318 119.424 41.6638 119.904 41.6638L122.16 41.7118L128.352 41.8078L137.424 41.9038L148.56 42.0478L160.752 42.1918L172.992 42.3358L184.464 42.4798L194.16 42.6238L201.12 42.7198C202.224 42.7198 203.328 42.7678 204.432 42.7678H204.576C204.672 42.7678 205.008 42.7198 205.056 42.5758L207.216 34.2718C207.408 33.5998 205.92 33.1678 205.44 33.1678L203.184 33.1198L196.992 33.0238L187.872 32.8798L176.736 32.7358L164.496 32.5438L152.208 32.3518L140.64 32.2078L130.896 32.0638L123.936 31.9678C122.832 31.9678 121.728 31.9198 120.624 31.9198H120.48C120 31.9198 119.904 32.2558 120.24 32.5438C120.624 32.9278 121.2 33.1678 121.776 33.1678Z" fill="#CECECE"/>
<path id="Vector_9" d="M102.335 53.0879L206.255 54.5759L201.983 82.2719L98.0635 80.8319L102.335 53.0879Z" fill="white"/>
<path id="Vector_10" d="M101.712 53.8558L104.496 53.9038L112.08 53.9998L123.264 54.1438L136.944 54.3358L151.824 54.5278L166.944 54.7198L181.008 54.9118L192.864 55.0558L201.456 55.1998C202.8 55.1998 204.192 55.3438 205.536 55.2478H205.728L205.2 54.8158L203.76 64.1758L201.456 79.0558L200.928 82.5118L202.656 81.5038L199.872 81.4558L192.288 81.3598L181.104 81.2158L167.424 81.0238L152.544 80.8318L137.424 80.5918L123.36 80.3998L111.504 80.2558L102.96 80.1598C101.616 80.1598 100.224 80.0158 98.8797 80.1118H98.6877L99.2157 80.5438L100.656 71.1838L102.96 56.2558L103.488 52.8478C103.632 51.9838 101.376 52.6078 101.232 53.4238L99.7917 62.8318L97.4877 77.7598L96.9597 81.1678C96.9117 81.4558 97.2477 81.5998 97.4877 81.5998L100.272 81.6478L107.856 81.7438L119.04 81.8878L132.72 82.0798L147.6 82.2718L162.72 82.4638L176.784 82.6558L188.64 82.7998L197.184 82.8958C198.528 82.8958 199.872 82.9438 201.264 82.9438H201.456C202.032 82.9438 203.088 82.6558 203.184 81.9358L204.624 72.6238L206.928 57.7438L207.456 54.3358C207.504 54.0478 207.168 53.9038 206.928 53.9038L204.144 53.8558L196.56 53.7598L185.376 53.6158L171.696 53.4238L156.816 53.2318L141.696 53.0398L127.632 52.8478L115.776 52.7038L107.232 52.6078C105.888 52.6078 104.544 52.5598 103.2 52.5598H103.008C102.432 52.5598 101.856 52.7998 101.424 53.2318C101.088 53.3758 101.184 53.8078 101.712 53.8558Z" fill="#3D3D3D"/>
<path id="Vector_11" d="M138.672 71.2799C139.968 70.6079 141.216 69.8879 142.464 69.1199C143.376 68.5919 144.24 67.9679 145.056 67.2959C145.632 66.8159 146.304 66.1439 146.256 65.3759C146.208 64.2239 144.768 63.9839 143.904 64.3679C143.088 64.7999 142.512 65.5199 142.176 66.3839C141.504 67.9679 141.312 70.3199 142.944 71.3759C144.144 72.1439 145.632 71.9039 146.928 71.5679C148.416 71.1839 149.76 70.4639 150.912 69.4559C151.728 68.8319 152.352 68.0159 152.688 67.1039C153.072 65.9039 151.92 65.2799 150.864 65.6159C148.944 66.2399 147.792 69.1679 149.232 70.7039C150.24 71.8079 151.92 71.7599 153.312 71.5199C154.896 71.2319 156.432 70.5119 157.68 69.5039C158.352 68.9759 159.408 67.9679 159.12 67.0079C158.736 65.7119 156.96 66.2879 156.24 66.9599C154.944 68.1599 153.888 71.4719 156.384 71.9519C157.056 72.0479 157.728 71.9519 158.352 71.7599C158.88 71.5679 159.36 71.0399 159.168 70.4639C158.928 69.9359 158.304 69.6959 157.728 69.8879C157.584 69.9359 157.44 69.9839 157.296 69.9839C157.488 69.9359 157.248 69.9839 157.2 69.9839C157.152 69.9839 156.912 69.9839 157.152 69.9839C156.96 69.9839 157.248 70.0799 157.104 69.9839C157.152 70.0319 157.248 70.1279 157.152 70.0319L157.104 69.9839C157.2 70.0799 157.248 70.0799 157.152 70.0319C157.104 70.0799 157.248 70.2239 157.152 70.0319C157.104 69.9839 157.104 69.7439 157.152 69.9839C157.152 69.4559 157.296 68.9759 157.584 68.5439L157.68 68.3519C157.824 68.1119 157.536 68.4959 157.728 68.3039C157.776 68.2559 157.824 68.2079 157.824 68.2079C157.92 68.0639 158.016 68.1599 157.824 68.2079C158.112 68.1599 157.632 68.2559 157.584 68.2559C157.152 68.2559 156.816 67.9679 156.72 67.5839C156.72 67.4879 156.72 67.2959 156.72 67.4879C156.72 67.5839 156.864 67.2959 156.72 67.4399C156.672 67.4879 156.432 67.8239 156.624 67.6319C156.48 67.7759 156.384 67.9199 156.24 68.0159C156.096 68.1599 155.952 68.2559 155.808 68.3519C154.944 68.9759 153.984 69.3599 152.976 69.5999C152.496 69.6959 152.064 69.7439 151.584 69.6479C151.2 69.5999 151.728 69.6959 151.392 69.5999C151.392 69.5999 151.056 69.4559 151.248 69.5519C151.2 69.5039 151.152 69.5039 151.104 69.4559C151.008 69.3599 151.152 69.5519 151.008 69.3119C150.96 69.2639 150.96 69.2159 150.912 69.1679C151.008 69.3599 150.912 69.1679 150.912 69.1199C150.912 69.0719 150.864 69.0239 150.864 68.9759C150.816 68.7359 150.864 69.1679 150.864 68.9279C150.864 68.7839 150.864 68.6399 150.864 68.4959C150.816 68.6879 150.96 68.2559 150.96 68.1599C150.96 68.0639 151.104 67.8719 151.008 68.0639C151.056 68.0159 151.056 67.9679 151.104 67.9199L151.248 67.7279C151.152 67.8239 151.392 67.4879 151.248 67.7279L151.392 67.5839C151.2 67.6799 151.584 67.3919 151.392 67.5839C151.488 67.5359 151.488 67.5839 151.296 67.6319C151.584 67.5839 151.056 67.6319 151.2 67.6319C150.72 67.6319 150.288 67.4399 150.24 66.9599C150.24 67.1039 150.336 66.8159 150.24 66.9599C150.192 67.0079 150.192 67.0559 150.192 67.1519C150.192 67.1039 150.288 66.9119 150.192 67.1039C150.096 67.2959 150 67.3919 149.904 67.5359C149.904 67.5359 149.712 67.8239 149.856 67.6319L149.712 67.7759C149.568 67.9199 149.424 68.0639 149.28 68.2079C148.944 68.4959 148.608 68.7839 148.224 69.0239C147.36 69.5519 146.4 69.9359 145.392 70.0319C145.248 70.0319 145.152 70.0799 145.008 70.0799C144.624 70.0799 145.104 70.0799 144.912 70.0799L144.672 70.0319C144.384 69.9839 144.864 70.1279 144.576 70.0319L144.432 69.9839C144.192 69.8879 144.624 70.0799 144.384 69.9359C144.336 69.8879 144.288 69.8879 144.24 69.8399C144.096 69.7439 144.336 69.9839 144.144 69.7439L144.048 69.5999C143.904 69.4079 144.096 69.7919 144.048 69.5519C144 69.4079 143.952 69.3119 143.904 69.1679C143.904 69.1199 143.856 68.8799 143.904 69.1199C143.904 69.0719 143.904 69.0239 143.904 68.9759C143.904 68.7839 143.904 68.6399 143.904 68.4479C143.904 68.3519 143.904 68.2559 143.904 68.1599C143.904 68.1599 143.952 67.8719 143.904 68.0159C143.856 68.1599 143.952 67.8719 143.904 67.8719C143.904 67.7759 143.952 67.6799 143.952 67.6319C144.048 67.3439 144.144 67.0079 144.288 66.7199C144.192 66.9599 144.336 66.5759 144.384 66.5279C144.432 66.4799 144.528 66.3359 144.576 66.2399C144.384 66.4319 144.72 66.0479 144.576 66.2399C144.624 66.1919 144.624 66.1919 144.672 66.1439C144.768 66.0959 144.912 65.9999 144.624 66.1919C144.864 66.0479 144.432 66.2399 144.528 66.2399C144.624 66.2399 144.72 66.2399 144.384 66.2879C144.24 66.3359 144.144 66.2879 144 66.2399C144.048 66.2399 143.808 66.0479 143.808 66.0959C143.712 65.9519 143.664 65.7599 143.76 65.6159C143.76 65.6639 143.76 65.6639 143.712 65.7119C143.712 65.6159 143.856 65.5679 143.712 65.6639C143.664 65.7119 143.616 65.7599 143.616 65.8079C143.712 65.6639 143.76 65.6639 143.616 65.8079L143.28 66.1439L142.848 66.4799C142.608 66.6719 143.04 66.3359 142.8 66.5279L142.56 66.7199C141.84 67.2479 141.072 67.7279 140.304 68.1599C139.344 68.7359 138.336 69.3119 137.28 69.8399C136.8 70.0799 136.56 70.6559 136.8 71.1839C136.8 71.2319 136.848 71.2319 136.848 71.2799C137.232 71.8079 137.952 71.7119 138.48 71.4719L138.672 71.2799Z" fill="#3D3D3D"/>
<path id="Vector_12" d="M165.984 70.3203C166.752 70.0323 167.52 69.6963 168.288 69.3603C168.672 69.1683 170.496 68.4483 170.256 67.8243C170.016 67.2963 168.672 67.5363 168.288 67.5843C167.76 67.6323 167.232 67.7283 166.992 68.2563C166.608 69.0723 166.8 70.0323 167.472 70.6083C168 71.0403 168.864 71.0403 169.488 70.9923C170.592 70.9443 171.648 70.7043 172.656 70.3203C173.472 69.9843 174.24 69.5523 174.96 69.0243C175.2 68.8323 175.92 68.3043 175.92 67.9203C175.92 67.3923 174.672 67.5843 174.384 67.6323C173.664 67.6323 172.992 67.8723 172.416 68.2563C171.744 68.8803 171.552 69.9843 172.32 70.6083C172.992 71.1363 174.048 71.0883 174.864 71.0403C176.112 70.9923 177.36 70.7523 178.56 70.3203C179.136 70.1283 180.288 69.6483 180.288 68.8803C180.288 68.6883 177.888 68.7363 177.888 69.1203C177.888 69.5043 177.552 69.7443 177.36 69.8883C177.024 70.1283 176.64 70.3203 176.256 70.4163C175.92 70.5123 175.632 70.5603 175.296 70.6083C175.392 70.6083 175.584 70.6563 175.44 70.6083C175.296 70.5603 175.152 70.5603 175.008 70.5123C174.384 70.2243 174.048 69.5043 174.336 68.8803C174.432 68.5443 174.624 68.3043 174.912 68.1123C174.96 68.0643 175.008 68.0643 175.056 68.0163L175.152 67.9683C174.624 68.0643 174.096 68.1123 173.568 68.0643C173.568 68.0643 173.616 68.2083 173.568 68.2563C173.232 69.1203 172.032 69.7443 171.264 70.1283C170.976 70.2723 170.736 70.3683 170.448 70.4643C170.256 70.5123 170.112 70.5603 169.92 70.6563C169.248 70.8483 170.112 70.5123 170.352 70.6563C170.064 70.4643 169.728 70.4643 169.488 70.0803C169.152 69.5523 169.104 68.8803 169.344 68.3043C169.392 68.2083 169.44 68.1123 169.536 68.0163C169.584 67.9683 169.632 67.9683 169.632 67.9203C169.296 68.3523 167.904 68.4003 167.76 68.1123C167.856 68.3043 168 68.2563 167.856 68.4963C167.616 68.7843 167.28 69.0243 166.944 69.1683C166.56 69.4083 166.128 69.6003 165.696 69.7923C165.12 70.0323 164.496 70.2723 163.92 70.5123C163.44 70.7043 164.304 70.7523 164.352 70.7523C164.928 70.5603 165.504 70.5123 165.984 70.3203Z" fill="#3D3D3D"/>
<path id="Vector_13" d="M107.952 61.248L130.512 61.632L128.304 76.56L105.984 75.984L107.952 61.248Z" fill="#3D3D3D"/>
<path id="Vector_14" d="M113.472 69.2163L116.352 73.1043C116.592 73.4403 117.216 73.8723 117.6 73.4403L122.352 67.6323L123.024 66.8163C123.408 66.3843 123.168 65.6643 122.88 65.2323C122.64 64.8963 122.016 64.4643 121.632 64.8963L116.88 70.7043L116.208 71.5203L117.456 71.8563L114.576 67.9683C114.288 67.6323 113.712 67.2003 113.328 67.6323C112.944 68.0643 113.136 68.8323 113.472 69.2163Z" fill="white"/>
<path id="Vector_15" d="M96.5279 92.4482L200.448 93.9362L196.176 121.632L92.2559 120.192L96.5279 92.4482Z" fill="white"/>
<path id="Vector_16" d="M96.1439 93.2644L98.9279 93.3124L106.512 93.4084L117.696 93.5524L131.376 93.7444L146.256 93.9364L161.376 94.1284L175.44 94.3204L187.296 94.5124L195.84 94.6564C197.184 94.6564 198.576 94.7524 199.92 94.7044H200.112L199.344 94.0804L197.904 103.44L195.6 118.32L195.072 121.728L196.608 120.768L193.824 120.72L186.288 120.672L175.104 120.528L161.424 120.336L146.544 120.144L131.424 119.952L117.36 119.76L105.504 119.616L96.9119 119.52C95.5679 119.52 94.1759 119.424 92.8319 119.472H92.6399L93.4079 120.096L94.8479 110.736L97.1519 95.8084L97.6799 92.4004C97.8239 91.3924 95.5199 91.8244 95.3759 92.7364L93.9359 102.096L91.6319 117.024L91.1039 120.432C91.0559 120.864 91.5359 121.056 91.8719 121.056L94.6559 121.104L102.24 121.2L113.424 121.344L127.104 121.536L141.984 121.728L157.104 121.92L171.168 122.112L183.024 122.256L191.568 122.352C192.912 122.352 194.256 122.4 195.648 122.4H195.84C196.368 122.4 197.28 122.112 197.376 121.44L198.816 112.08L201.12 97.2004L201.648 93.7924C201.696 93.3604 201.216 93.1684 200.88 93.1684L198.096 93.1204L190.512 93.0244L179.328 92.8804L165.648 92.6884L150.768 92.4964L135.648 92.3044L121.584 92.1124L109.728 91.9204L101.184 91.8244C99.8399 91.8244 98.4959 91.7764 97.1519 91.7764H96.9599C96.4319 91.7764 95.7119 92.0164 95.4719 92.4964C95.2319 92.9764 95.6639 93.2164 96.1439 93.2644Z" fill="#CECECE"/>
<path id="Vector_17" d="M133.44 109.728C134.736 109.056 135.984 108.336 137.232 107.568C138.096 107.04 138.912 106.464 139.68 105.84C139.968 105.6 140.736 104.976 140.496 104.544C140.4 104.352 140.112 104.304 139.872 104.256C139.056 104.16 138.24 104.304 137.472 104.592C136.896 104.928 136.512 105.456 136.32 106.08C135.792 107.424 135.6 109.584 137.28 110.208C137.808 110.352 138.384 110.4 138.96 110.352C139.968 110.304 140.928 110.112 141.888 109.872C143.232 109.536 144.528 108.864 145.584 107.952C146.112 107.472 146.928 106.752 147.024 105.984C147.072 105.744 147.024 105.648 146.784 105.6C146.4 105.552 145.968 105.552 145.584 105.648C145.2 105.696 144.768 105.744 144.384 105.888C142.896 106.368 142.176 108.864 143.664 109.776C144.192 110.064 144.768 110.16 145.344 110.16C146.4 110.16 147.456 110.016 148.464 109.824C149.904 109.536 151.248 108.912 152.4 108C152.64 107.808 153.84 106.848 153.408 106.416C153.312 106.368 153.168 106.32 153.072 106.32C152.544 106.32 152.016 106.368 151.488 106.464C151.008 106.512 150.576 106.704 150.24 106.992C149.664 107.568 149.28 108.384 149.184 109.248C149.136 110.304 149.904 110.544 150.816 110.496C151.68 110.448 152.592 110.352 153.408 110.064C153.84 109.92 153.024 109.968 152.976 109.968C152.448 109.968 151.872 110.064 151.344 110.208C150.528 110.448 151.776 109.872 152.304 110.16C152.256 110.112 152.16 110.16 152.064 110.112C151.968 110.064 151.872 109.968 151.776 109.872C151.632 109.632 151.536 109.344 151.584 109.056C151.632 108.384 151.872 107.76 152.256 107.232C152.4 106.992 152.592 106.8 152.784 106.656C152.832 106.608 152.88 106.608 152.928 106.56L151.008 106.752H151.056C151.056 106.8 151.104 106.848 151.104 106.944C151.152 107.472 150.24 108.144 149.904 108.384C148.992 109.056 147.936 109.536 146.832 109.824C146.4 109.968 147.456 109.872 147.072 109.824C146.928 109.776 146.832 109.776 146.688 109.776C146.496 109.728 146.352 109.68 146.16 109.584C145.872 109.44 145.584 109.2 145.44 108.864C145.2 108.24 145.2 107.568 145.488 106.944C145.584 106.656 145.776 106.416 145.968 106.224C146.112 106.08 146.208 105.984 146.352 105.888C146.4 105.84 146.448 105.84 146.496 105.84C147.024 105.456 144.672 107.952 144.576 106.032C144.576 106.128 144.624 106.224 144.624 106.368C144.576 106.656 144.432 106.896 144.288 107.088C143.808 107.808 143.184 108.384 142.416 108.864C141.984 109.152 141.504 109.44 140.976 109.632C140.736 109.728 140.448 109.824 140.208 109.92C140.064 109.968 139.872 110.016 139.728 110.064C139.152 110.208 139.776 109.92 140.112 110.064C139.824 110.016 139.536 109.92 139.2 109.824C138.912 109.68 138.72 109.44 138.576 109.152C137.952 108.096 138.288 106.56 138.816 105.504C139.056 105.12 139.344 104.736 139.68 104.448C138.48 105.504 137.664 104.496 137.856 104.688C137.856 104.688 137.904 104.688 137.952 104.736C138 104.784 138.048 104.832 138.096 104.928C138.144 105.072 138.096 105.216 138.048 105.36C137.664 105.936 137.184 106.368 136.608 106.752C135.888 107.28 135.072 107.808 134.256 108.24C133.248 108.864 132.192 109.44 131.136 109.968C130.992 110.016 131.904 110.016 132 110.016C132.48 110.016 133.008 109.92 133.44 109.728Z" fill="#CECECE"/>
<path id="Vector_18" d="M159.984 110.352C160.8 110.064 161.568 109.728 162.336 109.344C163.008 109.008 164.736 108.336 164.352 107.28C163.92 106.032 161.808 105.84 161.232 107.04C160.848 108 161.04 109.056 161.712 109.824C163.056 111.312 165.216 110.88 166.848 110.208C167.664 109.872 168.432 109.44 169.104 108.864C169.488 108.528 170.016 108.096 170.064 107.568C170.16 106.704 169.056 106.224 168.336 106.224C167.712 106.224 167.136 106.464 166.656 106.944C165.84 107.76 165.84 109.104 166.656 109.92C168.192 111.456 170.88 110.928 172.656 110.256C173.376 109.968 174.384 109.344 174.384 108.432C174.384 107.52 172.08 106.896 172.08 108.048C172.08 107.76 172.128 107.952 172.032 108.096C171.936 108.24 172.128 108 171.984 108.144C171.936 108.192 171.696 108.432 171.744 108.384C170.832 108.96 169.728 109.296 168.624 109.248C168.624 109.248 168.192 109.2 168.432 109.248C168.192 109.152 168.384 109.248 168.432 109.248C168.192 109.104 168.528 109.392 168.384 109.2C168.576 109.392 168.384 109.2 168.336 109.152C168.384 109.392 168.336 109.104 168.336 109.104C168.336 109.296 168.336 109.008 168.336 109.008C168.336 108.912 168.336 108.768 168.384 108.672C168.432 108.384 168.624 108.144 168.864 107.952C168.72 108.048 169.152 107.76 168.96 107.904L169.056 107.856C169.2 107.808 169.152 107.808 169.008 107.856C169.536 107.856 169.152 107.616 167.808 107.136C167.76 107.04 167.76 106.944 167.76 106.896C167.808 106.944 167.712 106.992 167.616 107.136C167.52 107.28 167.376 107.376 167.232 107.52C166.8 107.904 166.272 108.24 165.744 108.48C165.168 108.768 164.544 109.008 163.92 109.152C163.968 109.152 163.584 109.2 163.632 109.2C163.68 109.2 163.248 109.248 163.44 109.2C163.104 109.2 163.584 109.2 163.392 109.2C163.296 109.152 163.344 109.2 163.488 109.248C163.392 109.2 163.392 109.2 163.536 109.296C163.296 109.2 163.632 109.44 163.488 109.248C163.44 109.2 163.344 109.008 163.44 109.2C163.392 109.104 163.392 109.056 163.344 108.96C163.248 108.72 163.344 109.104 163.344 108.864C163.296 108.624 163.296 108.336 163.392 108.096C163.392 108.048 163.536 107.664 163.488 107.856L163.536 107.76C163.104 107.808 162.336 107.808 162.144 107.232C162.144 107.184 162.048 106.944 162.096 106.992C162.048 106.944 162.192 106.896 162.048 107.04C161.808 107.232 161.52 107.424 161.232 107.568C160.8 107.808 160.368 108 159.984 108.192C159.456 108.432 158.88 108.672 158.304 108.864C157.728 109.056 158.064 109.728 158.352 109.968C158.784 110.352 159.408 110.448 159.984 110.256V110.352Z" fill="#CECECE"/>
<path id="Vector_19" d="M102.48 101.616L101.52 101.52L101.712 100.128H103.104V101.088H102.528L102.48 101.616Z" fill="#3D3D3D"/>
<path id="Vector_20" d="M121.872 101.424L120 101.376V100.416L121.872 100.464V101.424ZM118.128 101.376L116.256 101.328V100.368L118.128 100.416V101.376ZM114.384 101.28L112.512 101.232V100.272L114.384 100.32V101.28ZM110.592 101.232L108.72 101.184V100.224L110.592 100.272V101.232ZM106.848 101.184L104.976 101.136V100.176L106.848 100.224V101.184Z" fill="#3D3D3D"/>
<path id="Vector_21" d="M125.088 102L124.128 101.856L124.176 101.472H123.792V100.512H125.28L125.088 102Z" fill="#3D3D3D"/>
<path id="Vector_22" d="M123.408 113.185L122.448 113.041L122.736 111.169L123.696 111.313L123.408 113.185ZM123.936 109.441L122.976 109.297L123.264 107.425L124.224 107.569L123.936 109.441ZM124.512 105.745L123.552 105.601L123.84 103.729L124.8 103.873L124.512 105.745Z" fill="#3D3D3D"/>
<path id="Vector_23" d="M122.928 116.4L121.536 116.352V115.392H122.112L122.16 114.864L123.12 115.008L122.928 116.4Z" fill="#3D3D3D"/>
<path id="Vector_24" d="M119.664 116.304L117.792 116.256V115.296L119.664 115.344V116.304ZM115.968 116.208L114.096 116.16L114.144 115.2L116.016 115.248L115.968 116.208ZM112.272 116.112L110.4 116.064V115.104L112.272 115.152V116.112ZM108.528 116.016L106.656 115.968L106.704 115.008L108.576 115.056L108.528 116.016ZM104.832 115.968L102.96 115.92L103.008 114.96L104.88 115.008L104.832 115.968Z" fill="#3D3D3D"/>
<path id="Vector_25" d="M101.088 115.872L99.5996 115.824L99.7916 114.336L100.752 114.48L100.704 114.864L101.136 114.912L101.088 115.872Z" fill="#3D3D3D"/>
<path id="Vector_26" d="M100.992 112.608L100.032 112.464L100.272 110.64L101.232 110.784L100.992 112.608ZM101.472 108.96L100.512 108.816L100.752 106.992L101.712 107.136L101.472 108.96ZM101.952 105.312L100.992 105.168L101.232 103.344L102.192 103.488L101.952 105.312Z" fill="#3D3D3D"/>
</g>
<g id="character">
<path id="Vector_27" d="M46.5121 208.08C46.5121 208.08 46.0801 218.208 46.3201 218.208C46.5601 218.208 50.6401 218.064 50.6401 218.064V214.08L52.6081 218.544L66.1441 217.728C66.1441 217.728 66.5761 216.24 63.5521 214.608C60.5281 212.976 55.6321 210.672 55.6321 210.672L55.5361 204.624L46.5121 208.08Z" fill="#CECECE"/>
<path id="Vector_28" d="M46.176 208.032C46.08 210.096 46.032 212.16 45.936 214.224C45.888 215.376 45.84 216.528 45.888 217.632C45.888 217.776 45.888 218.064 45.984 218.208C46.176 218.448 46.752 218.304 46.992 218.304L50.784 218.16C50.784 218.16 50.88 218.16 50.88 218.112V214.032L50.304 213.936L52.272 218.4C52.32 218.544 52.656 218.544 52.752 218.544L64.608 217.824L66.288 217.728C66.288 217.728 66.384 217.728 66.384 217.68C66.432 217.152 66.24 216.624 65.904 216.192C64.992 214.992 63.456 214.32 62.112 213.648C60 212.592 57.888 211.536 55.728 210.528L55.872 210.624L55.776 204.576C55.776 204.432 55.344 204.384 55.248 204.384L46.272 207.84C46.128 207.888 46.656 208.08 46.752 208.032L55.728 204.576L55.2 204.384L55.296 210.432C55.296 210.48 55.392 210.528 55.44 210.528C57.456 211.488 59.424 212.448 61.392 213.408C62.736 214.08 64.416 214.752 65.376 216C65.616 216.288 65.808 216.672 65.856 217.056C65.856 217.152 65.808 217.488 65.952 217.392C65.76 217.488 65.184 217.44 64.992 217.44L62.64 217.584L56.4 217.968L52.416 218.208L52.896 218.352L50.928 213.888C50.88 213.792 50.352 213.648 50.352 213.792V215.424C50.304 216.192 50.304 216.912 50.352 217.68C50.352 217.728 50.352 217.824 50.352 217.872C50.352 217.92 50.496 217.824 50.4 217.872C50.112 217.92 49.824 217.92 49.536 217.92L47.04 218.016C46.8 217.968 46.512 217.968 46.272 218.016C46.032 218.064 46.608 218.208 46.656 218.112C46.704 218.016 46.656 217.968 46.656 217.92C46.656 217.392 46.608 216.912 46.656 216.384C46.656 214.704 46.704 213.072 46.8 211.392C46.848 210.288 46.896 209.136 46.944 208.032C46.8 208.032 46.224 207.936 46.176 208.032Z" fill="#CECECE"/>
<path id="Vector_29" d="M37.0562 207.888C37.0562 207.888 37.5842 218.496 37.2482 218.496C36.9122 218.496 32.4482 218.352 32.4482 218.352V214.128L30.1922 218.784L15.1682 217.92C15.1682 217.92 14.6882 216.384 18.0962 214.656C21.5042 212.928 26.9282 210.576 26.9282 210.576L27.0242 204.288L37.0562 207.888Z" fill="#CECECE"/>
<path id="Vector_30" d="M36.768 207.936C36.864 209.904 36.912 211.92 37.008 213.888C37.056 215.136 37.104 216.336 37.056 217.584C37.008 217.872 36.96 218.16 37.008 218.448C37.008 218.448 37.392 218.4 37.248 218.304C37.2 218.304 37.056 218.304 37.008 218.304H36.24L32.496 218.208L32.736 218.352V214.08C32.736 213.84 32.256 213.936 32.16 214.08L29.952 218.736L30.288 218.592L17.136 217.872L15.216 217.776L15.456 217.92C15.264 217.392 15.792 216.72 16.128 216.336C17.28 215.088 19.056 214.464 20.544 213.744C22.704 212.736 24.864 211.776 27.024 210.816C27.072 210.768 27.216 210.72 27.216 210.624L27.36 204.288L26.88 204.48L35.664 207.648L36.912 208.08C37.152 208.176 37.632 207.84 37.296 207.696L28.512 204.528L27.264 204.096C27.12 204.048 26.784 204.096 26.784 204.288L26.688 210.576L26.88 210.384C24.432 211.44 22.032 212.544 19.632 213.696C18.144 214.416 16.464 215.088 15.456 216.432C15.168 216.816 14.784 217.44 14.976 217.968C15.024 218.064 15.12 218.112 15.216 218.112L28.32 218.88L30.24 218.976C30.384 218.976 30.48 218.928 30.576 218.832L32.784 214.176H32.16V218.4C32.16 218.496 32.352 218.544 32.4 218.544L35.904 218.64C36.384 218.688 36.864 218.736 37.296 218.688C37.584 218.592 37.584 218.4 37.632 218.16C37.68 217.104 37.68 216 37.632 214.944C37.584 213.456 37.536 211.968 37.488 210.48L37.392 207.84C37.344 207.552 36.768 207.648 36.768 207.936Z" fill="#CECECE"/>
<path id="Vector_31" d="M29.7599 122.112C29.7599 122.112 20.1599 205.392 22.8959 207.552C25.6319 209.712 40.7039 206.352 40.7039 206.352L42.5279 189.12L43.4399 207.84C43.4399 207.84 55.1999 210.864 59.4239 209.328C59.4239 209.328 65.4719 130.224 65.4719 118.752C65.4719 107.28 29.7599 122.112 29.7599 122.112Z" fill="#3D3D3D"/>
<path id="Vector_32" d="M28.6561 122.4C28.5601 123.456 28.4161 124.464 28.3201 125.52C27.9841 128.304 27.6961 131.088 27.4081 133.872C26.9761 137.856 26.5441 141.888 26.1121 145.872C25.6321 150.576 25.1521 155.28 24.6721 159.936C24.1921 164.784 23.7121 169.632 23.2801 174.528C22.8481 179.088 22.4641 183.6 22.1281 188.16C21.8401 191.856 21.6001 195.552 21.4561 199.248C21.3121 201.6 21.3121 203.904 21.4561 206.256C21.4561 206.832 21.5521 207.408 21.7921 207.888C22.0801 208.272 22.5121 208.56 23.0401 208.656C24.0481 208.896 25.0561 209.04 26.0641 209.04C28.5601 209.04 31.0561 208.8 33.5041 208.416C35.6161 208.08 37.7281 207.744 39.8401 207.312L40.8001 207.12C41.2801 207.024 41.9041 206.64 41.9521 206.064L43.5361 190.992L43.7761 188.832L41.5201 189.408L42.3361 205.776L42.4321 208.128C42.4321 208.32 42.5761 208.512 42.7681 208.56C46.9921 209.616 51.3601 210.48 55.7281 210.576C57.1201 210.624 58.5601 210.432 59.9041 210C60.3361 209.856 60.6721 209.52 60.7681 209.04C60.8641 207.504 61.0081 205.968 61.1041 204.432C61.3921 200.448 61.6801 196.416 62.0161 192.432C62.4481 186.912 62.8321 181.392 63.2161 175.872C63.6481 169.728 64.0801 163.536 64.5121 157.392C64.9441 151.488 65.3281 145.584 65.7121 139.68C66.0001 134.976 66.2881 130.272 66.5281 125.568C66.6241 123.984 66.6721 122.352 66.7201 120.768C66.7681 119.52 66.9121 118.176 66.5281 116.976C65.3761 113.184 59.7601 113.424 56.6881 113.712C51.3121 114.192 46.0801 115.68 40.9441 117.36C37.2961 118.512 33.6961 119.808 30.1441 121.248L29.6161 121.44C29.2321 121.584 28.6081 122.064 28.8001 122.592C28.9921 123.12 29.8081 122.928 30.1921 122.784C32.6881 121.776 35.1841 120.816 37.7281 119.952L38.5441 119.664L38.7361 119.616C38.4961 119.712 38.6881 119.616 38.7841 119.616L39.2641 119.424L41.0881 118.848C42.3361 118.464 43.5841 118.08 44.8801 117.696C47.4721 116.928 50.1121 116.304 52.7521 115.824L53.1841 115.776L53.3761 115.728H53.4721C53.8081 115.68 54.1441 115.632 54.4321 115.584C55.0081 115.488 55.6321 115.44 56.2561 115.392C56.8801 115.344 57.4081 115.296 57.9841 115.296C58.2241 115.296 58.5121 115.296 58.7521 115.296H58.9441H59.3761C59.8561 115.344 60.2881 115.392 60.7681 115.44C60.9601 115.488 61.2001 115.536 61.3921 115.584C61.2481 115.536 61.5841 115.632 61.3921 115.584L61.5361 115.632C61.6321 115.68 61.7761 115.68 61.8721 115.728C62.5441 115.92 63.1681 116.256 63.6481 116.784C63.8401 116.976 64.0321 117.216 64.1281 117.504C64.2241 117.648 64.2721 117.84 64.3201 117.984C64.3201 118.08 64.3681 118.128 64.3681 118.224L64.4161 118.32C64.4641 118.512 64.4161 118.224 64.4161 118.368C64.4641 118.944 64.5121 119.52 64.4641 120.096C64.4161 121.488 64.3681 122.88 64.3201 124.272C64.1281 128.592 63.8401 132.912 63.6001 137.232C63.2641 142.896 62.8801 148.608 62.4961 154.272C62.0641 160.416 61.6321 166.512 61.2001 172.656C60.8161 178.32 60.3841 184.032 59.9521 189.696C59.6161 194.112 59.3281 198.48 58.9921 202.896C58.8481 205.056 58.6561 207.216 58.5121 209.376V209.664L59.3761 208.704C59.6161 208.608 59.3761 208.704 59.2801 208.704L58.9441 208.8L58.6561 208.848L58.3201 208.896C57.7441 208.944 57.1681 208.992 56.5921 208.992C55.3441 208.992 54.0481 208.896 52.8001 208.704C50.4481 208.416 48.0961 207.984 45.7441 207.456L44.6401 207.216L44.3521 207.168H44.4481L44.7841 207.6L43.9681 191.232L43.8721 188.832C43.8241 187.728 41.6641 188.544 41.6161 189.408L39.8401 204.432L39.6001 206.592L40.7521 205.536C37.2001 206.352 33.6001 206.928 29.9521 207.264C29.3281 207.312 28.7521 207.36 28.1281 207.408C27.8401 207.408 27.6001 207.408 27.3121 207.408H26.5921C26.1121 207.408 25.6321 207.36 25.1521 207.312L24.8161 207.264L24.6241 207.216C24.6241 207.216 24.2881 207.12 24.1921 207.072L23.9521 206.976C23.8081 206.928 24.0961 207.024 23.9041 206.976C23.8561 206.976 23.8081 206.88 23.8081 206.88C23.9521 206.928 23.8561 207.024 23.8081 206.832C23.7601 206.736 23.7601 206.64 23.7121 206.544C23.6641 206.448 23.7121 206.448 23.6641 206.352C23.6161 206.256 23.7121 206.592 23.6641 206.448V206.352C23.4721 204.336 23.4241 202.272 23.5681 200.256C23.6641 196.8 23.9041 193.344 24.1441 189.888C24.4801 185.52 24.8161 181.104 25.2001 176.736C25.6321 171.936 26.0641 167.136 26.5441 162.336C27.0241 157.632 27.5041 152.88 27.9841 148.176C28.4161 144 28.8481 139.872 29.3281 135.696C29.6641 132.624 30.0001 129.552 30.3361 126.48C30.4801 124.992 30.7201 123.504 30.8161 122.064C30.8161 122.016 30.8161 121.92 30.8161 121.872C31.0081 120.816 28.7521 121.44 28.6561 122.4Z" fill="#3D3D3D"/>
<path id="Vector_33" d="M44.5919 150.528L44.1599 156.048L43.1999 169.392L42.0479 185.52L41.0399 199.44C40.8959 201.696 40.6559 203.952 40.5599 206.16C40.5599 206.208 40.5599 206.208 40.5599 206.256C40.5119 206.88 40.7999 207.456 41.3279 207.792C41.5679 207.984 41.9039 207.936 42.0959 207.696C42.1919 207.6 42.2399 207.456 42.2399 207.312L42.6239 201.744L43.5839 188.448L44.7359 172.32L45.7439 158.4C45.8879 156.144 46.1279 153.888 46.2239 151.68C46.2239 151.632 46.2239 151.632 46.2239 151.584C46.2719 150.96 45.9839 150.384 45.4559 150.048C45.2159 149.856 44.8799 149.904 44.6879 150.144C44.5919 150.24 44.5439 150.384 44.5919 150.528Z" fill="white"/>
<path id="Vector_34" d="M26.3042 101.472C26.3042 101.472 39.9362 88.176 52.8482 93.072C65.7602 97.968 71.7122 133.248 69.3602 138.912C67.0082 144.576 22.3202 126.864 19.9202 123.504C17.5202 120.144 26.3042 101.472 26.3042 101.472Z" fill="white"/>
<path id="Vector_35" d="M26.9758 102.432C28.1278 101.328 29.3758 100.32 30.6718 99.408C33.4078 97.344 36.4318 95.712 39.6478 94.464C43.3918 93.12 47.4718 92.544 51.4078 93.552C52.1758 93.744 52.8958 93.984 53.6158 94.32L53.9998 94.512C54.0478 94.56 54.3358 94.704 54.1438 94.608C54.4318 94.752 54.6718 94.944 54.9118 95.088C55.1518 95.232 55.3918 95.424 55.5838 95.616C55.6318 95.664 56.0158 95.952 55.8238 95.808L56.2078 96.144C56.6878 96.576 57.1198 97.056 57.5518 97.536C57.5998 97.584 57.8398 97.872 57.7918 97.824C57.7438 97.776 57.9838 98.064 58.0318 98.112C58.2718 98.4 58.4638 98.688 58.7038 98.976C59.1358 99.552 59.5198 100.128 59.8558 100.752L60.1438 101.184L60.2398 101.376L60.2878 101.472C60.4798 101.808 60.6718 102.192 60.8638 102.528C61.2478 103.2 61.5838 103.872 61.9198 104.592C63.3118 107.568 64.4638 110.64 65.3758 113.808C67.1518 119.616 68.3038 125.616 68.7358 131.712C68.7838 132.816 68.8318 133.92 68.8318 135.024C68.8318 135.264 68.8318 135.456 68.7838 135.696C68.7838 135.456 68.7838 135.84 68.7838 135.888L68.7358 136.224C68.6878 136.608 68.6398 136.944 68.5918 137.328C68.5438 137.472 68.5438 137.616 68.4958 137.76L68.4478 137.952C68.3998 138.192 68.5438 137.856 68.4478 138L68.3038 138.24C68.2078 138.432 68.3998 138.192 68.2078 138.336C68.1118 138.384 68.0158 138.48 67.9198 138.528L67.7758 138.576C67.6318 138.672 67.9678 138.528 67.7278 138.576C67.4878 138.672 67.1998 138.72 66.9118 138.768C66.2398 138.864 65.5198 138.912 64.7998 138.816C63.7918 138.768 62.8318 138.624 61.8718 138.432C59.3758 138 56.9278 137.424 54.5278 136.752C48.6718 135.12 42.9598 133.104 37.2958 130.896C32.4958 129.12 27.7918 127.056 23.2318 124.752C22.8478 124.56 22.5118 124.368 22.1278 124.176C22.0798 124.128 21.7918 123.984 22.0798 124.128L21.8398 123.984C21.6958 123.888 21.5038 123.792 21.3598 123.696C21.1198 123.552 20.8798 123.408 20.6398 123.216L20.3518 123.024C20.1598 122.88 20.5918 123.264 20.4478 123.072C20.3998 123.024 20.3998 122.976 20.3518 122.976C20.3038 122.976 20.3038 122.928 20.2558 122.88C20.1118 122.784 20.4958 123.168 20.3998 123.024C20.2078 122.784 20.5438 123.216 20.4478 123.072C20.4478 123.024 20.3998 123.024 20.3998 122.976C20.3038 122.784 20.4478 123.216 20.4478 123.024C20.4478 122.928 20.3998 122.832 20.3998 122.784C20.3518 122.592 20.3998 122.976 20.3998 122.688C20.3998 122.4 20.3518 122.208 20.3518 121.968C20.3518 121.776 20.3518 121.584 20.3518 121.392C20.3998 121.104 20.3998 120.816 20.4478 120.48C20.5438 119.856 20.6878 119.232 20.8318 118.608C22.0798 113.328 24.2878 108.192 26.5438 103.248C26.6878 102.912 26.8798 102.528 27.0238 102.192C27.1678 101.664 27.0238 101.04 26.5918 100.704C26.3518 100.464 25.6318 100.032 25.3918 100.512C23.3758 104.736 21.6478 109.056 20.1598 113.472C19.3438 115.968 18.3838 118.752 18.4798 121.44C18.4798 122.448 18.8638 123.408 19.4878 124.176C19.9198 124.56 20.3518 124.944 20.8318 125.232C22.4158 126.24 24.0958 127.104 25.8238 127.872C28.2238 129.024 30.6718 130.08 33.1198 131.088C38.9758 133.488 44.8798 135.696 50.9278 137.568C53.7118 138.432 56.4958 139.248 59.3278 139.92C61.4398 140.448 63.5998 140.784 65.8078 140.928C67.0078 140.976 68.6878 141.024 69.6478 140.16C70.0798 139.68 70.3198 139.104 70.4158 138.48C70.5598 137.568 70.6558 136.656 70.6558 135.744C70.7038 133.2 70.5118 130.656 70.1278 128.16C69.6958 124.944 69.0718 121.728 68.3038 118.56C66.7198 111.936 64.4638 105.264 60.8158 99.504C59.3278 97.152 57.4558 94.896 55.1518 93.312C52.1278 91.248 48.2878 90.624 44.6878 90.912C37.9678 91.488 31.5838 95.184 26.5438 99.504C26.2078 99.792 25.8718 100.08 25.5838 100.368C25.1998 100.752 25.3918 101.376 25.6798 101.76C25.9198 102.144 26.5918 102.816 26.9758 102.432Z" fill="#3D3D3D"/>
<path id="Vector_36" d="M41.568 82.8959C41.568 82.8959 34.272 83.2799 33.552 80.2079C32.832 77.1359 37.248 78.5279 37.248 78.5279C37.248 78.5279 32.832 71.8559 40.224 71.8559C40.224 71.8559 34.848 66.5279 40.176 63.0239C45.504 59.5199 54.528 63.5999 54.528 63.5999C54.528 63.5999 55.2 57.1679 62.448 59.0399C69.696 60.9119 67.344 64.5119 67.344 64.5119C67.344 64.5119 72 65.6639 71.808 67.8719C71.616 70.0799 67.968 70.4639 67.968 70.4639C67.968 70.4639 65.712 76.6079 59.424 74.7359L52.08 81.7919C52.08 81.7919 53.856 85.0079 51.072 87.5999C48.288 90.1919 40.656 86.9279 41.568 82.8959Z" fill="#3D3D3D"/>
<path id="Vector_37" d="M40.8481 82.1282C39.2641 82.2241 37.7281 82.0801 36.1921 81.6961C35.9041 81.6481 35.6641 81.5521 35.3761 81.4561C35.5201 81.5041 35.2321 81.4081 35.1841 81.3601C34.9441 81.2641 35.2321 81.4081 34.9921 81.2641C34.7521 81.1201 35.0401 81.3121 34.8961 81.2161C34.7521 81.1201 34.9441 81.3121 34.8001 81.1201C34.6561 80.9281 34.8961 81.2161 34.8001 81.1201C34.7521 81.0721 34.7521 81.0241 34.7041 81.0241C34.6561 80.9281 34.6081 80.8321 34.6081 80.7361C34.3201 79.8241 34.7521 79.1521 35.6641 79.0561C36.0961 79.0081 36.5761 79.0561 37.0081 79.1521L37.2961 79.2001C37.2001 79.2001 37.5361 79.2481 37.2961 79.2001L37.4881 79.2481C37.9681 79.3922 38.5441 79.2481 38.1121 78.6721C38.0641 78.5761 38.0161 78.4801 37.9681 78.3841C37.9201 78.2881 37.8241 78.1922 37.7761 78.0482C37.8721 78.2402 37.6801 77.8561 37.6801 77.8081C37.3441 77.1362 37.1041 76.4641 37.0081 75.6961C36.8641 74.9281 37.0561 74.1601 37.5841 73.5361C38.4001 72.6721 39.7921 72.5761 40.9441 72.5761C41.5201 72.5761 41.1841 71.9521 40.9441 71.7121C40.8961 71.6641 40.8481 71.6161 40.8001 71.5201L40.6081 71.3281L40.5121 71.1841C40.3681 70.9921 40.6081 71.2801 40.4641 71.1361C40.0801 70.6081 39.6961 70.0801 39.4081 69.5041C38.6401 67.8241 38.6401 66.0481 39.9361 64.6561C42.8161 61.5361 47.9521 62.1122 51.6001 63.1681C52.3681 63.3601 53.1361 63.6481 53.8561 63.9361L54.1921 64.0801C53.8561 63.9361 54.1921 64.0802 54.2881 64.1281L54.5281 64.2241C54.7681 64.3201 55.5361 64.6082 55.5841 64.1281C55.7761 62.4002 56.8321 60.8641 58.3681 60.0001C60.1441 59.1361 62.2081 59.5681 63.9841 60.1441C64.4641 60.2881 64.8961 60.4801 65.3281 60.7201C65.3281 60.7201 65.6161 60.9121 65.7601 60.9601C65.5681 60.8161 66.1921 61.2961 66.0001 61.1521C66.1921 61.2961 66.3841 61.4882 66.4801 61.7281C66.4321 61.6322 66.5281 61.9202 66.5761 61.9682C66.6241 62.0161 66.6721 62.2561 66.6721 62.2561C66.7681 62.8321 66.6721 63.4082 66.3841 63.8882C66.0481 64.4162 67.2961 65.1361 67.6801 65.2321C67.8721 65.2801 68.0641 65.3281 68.2081 65.3761C68.5441 65.4721 68.8801 65.6161 69.2161 65.7601C69.4561 65.8561 69.6961 66.0001 69.9361 66.0961C69.7441 66.0001 70.0801 66.1921 70.1281 66.1921C70.3681 66.3361 70.1281 66.1921 70.3201 66.2881C70.3681 66.2881 70.6081 66.5281 70.4641 66.3841C70.5601 66.4321 70.6081 66.5281 70.6561 66.5761C70.7521 66.7201 70.8001 66.8641 70.8481 67.0081C71.1361 68.7361 68.6401 69.5041 67.3441 69.6001C67.2481 69.6001 67.1521 69.6481 67.0561 69.7441C66.1441 72.1921 63.8401 74.2082 61.1521 74.2082C60.6241 74.2082 60.0961 74.1601 59.6161 74.0161C59.1841 73.9201 58.8481 73.7281 58.4641 74.0161C58.1281 74.3041 57.8401 74.5921 57.5521 74.8801L53.8561 78.3841L51.1681 80.9282C51.0241 81.0721 51.2161 81.3601 51.2641 81.4561C51.0721 81.1201 51.2161 81.3601 51.2641 81.4561C51.3121 81.6481 51.4081 81.7921 51.4561 81.9841C51.6001 82.5121 51.6961 83.0401 51.6961 83.5681C51.6481 85.0562 50.8801 86.4002 49.6321 87.1681C48.6241 87.6481 47.5201 87.7441 46.4161 87.4561C45.8881 87.3601 45.3601 87.1681 44.8801 86.9282C44.4481 86.7362 44.0641 86.4961 43.7281 86.1601C43.6321 86.1121 43.5841 86.0161 43.4881 85.9201C43.3921 85.8241 43.2961 85.6801 43.2481 85.6321C43.1041 85.4401 42.9601 85.2001 42.8641 84.9601C42.6241 84.4321 42.5761 83.8081 42.7201 83.2321C42.8641 82.5601 40.8001 81.4081 40.6081 82.2241C39.9361 85.4401 43.7281 87.8401 46.2721 88.6561C47.6641 89.1841 49.2001 89.2801 50.6881 88.8961C52.2721 88.4641 53.4241 86.9281 53.7121 85.3441C53.9521 84.0961 53.7601 82.8001 53.1361 81.6961L53.2321 82.1761L60.5281 75.1681L59.7601 75.2161C62.3521 75.9361 64.9441 75.6961 66.9601 73.8241C67.8721 73.0081 68.5921 72.0001 69.0241 70.8481L68.7361 70.9921C70.1281 70.8481 72.0481 70.3201 72.6721 68.9281C73.7281 66.7201 70.8481 64.9441 69.1681 64.2241C68.4961 63.9361 67.8241 63.6961 67.1041 63.5041L68.4001 64.8482C69.9361 62.4482 67.1521 60.0481 65.2321 59.1361C61.8721 57.4081 56.5441 56.4481 54.3361 60.3841C53.9041 61.1521 53.6161 61.9681 53.5201 62.8321L54.5761 62.7361C51.6001 61.3921 48.3361 60.6241 45.0721 60.5761C42.7201 60.5761 40.3201 61.1041 38.4961 62.6401C36.9121 63.9841 36.3841 66.1921 37.2001 68.1121C37.7281 69.4561 38.4961 70.6561 39.5041 71.6641V70.8001C37.7281 70.8001 35.4721 71.2322 34.9921 73.2481C34.7041 74.5441 35.1841 75.9361 35.7601 77.0882C35.9521 77.4242 36.1441 77.8081 36.3361 78.1441L36.9601 77.5681C35.4721 77.1362 32.0641 76.6561 32.4001 79.1521C32.7841 82.2721 36.9601 83.1361 39.5041 83.3761C40.4161 83.4721 41.3281 83.4721 42.2881 83.4241C42.8161 83.3761 42.5281 82.8001 42.2881 82.5601C41.9041 82.4161 41.4241 82.1761 40.8481 82.1282Z" fill="#3D3D3D"/>
<path id="Vector_38" d="M66.3839 91.7282C71.0879 86.6882 67.2959 71.5202 67.2959 71.5202C62.1119 72.0002 54.4799 65.9521 54.4799 65.9521C56.3999 70.9921 50.9759 79.2482 50.9759 79.2482C49.3439 74.7362 44.7359 74.4002 44.6879 78.7202C44.6399 83.0402 48.7199 83.8082 48.7199 83.8082C48.7199 83.8082 45.3599 97.1041 45.6479 98.8321C45.9359 100.56 55.4879 103.488 58.8959 95.4242C58.8959 95.4722 62.3039 96.0962 66.3839 91.7282Z" fill="white"/>
<path id="Vector_39" d="M67.4402 92.1599C69.6482 89.7119 69.9362 85.9199 69.9362 82.7519C69.8882 79.6319 69.5522 76.4639 68.9282 73.3919C68.7842 72.6719 68.6402 71.9519 68.4482 71.2319C68.3522 70.7999 67.6802 70.5599 67.2962 70.6079C64.7042 70.7999 61.9202 69.4559 59.5682 68.1599C58.0802 67.2959 56.6402 66.3839 55.2962 65.3279C54.6722 64.7999 52.8962 65.1839 53.3282 66.2879C54.2882 68.9279 53.2802 71.9519 52.2722 74.3999C51.6482 75.9839 50.8322 77.4719 49.9202 78.8639L52.1282 79.0079C51.6002 77.3279 50.4002 75.9839 48.8642 75.1679C47.5202 74.5919 45.8402 74.6399 44.7362 75.5999C43.5362 76.7039 43.3442 78.4799 43.6322 80.0159C43.9202 81.4559 44.7362 82.7519 45.9842 83.5679C46.7522 84.0959 47.5682 84.4799 48.4802 84.6719L47.6162 83.5679C46.6082 87.6479 45.5522 91.7759 44.8322 95.9519C44.6402 96.8159 44.4962 97.7279 44.4962 98.6399C44.5442 99.3599 44.9762 99.9839 45.6002 100.32C47.4242 101.568 49.9682 101.904 52.1282 101.664C53.7602 101.472 55.3442 100.944 56.6882 100.032C58.2242 98.9279 59.4242 97.4399 60.0962 95.6639L58.6562 96.3359C59.6162 96.4799 60.6242 96.3839 61.5362 96.0959C63.8402 95.3759 65.8082 93.8879 67.4402 92.1599C67.8722 91.6799 67.4402 91.0559 66.9602 90.9119C66.3842 90.6719 65.7602 90.8159 65.3282 91.2959C64.5602 92.1119 63.6962 92.8799 62.7362 93.4559C62.1122 93.8399 61.4402 94.1759 60.7202 94.3679C60.4322 94.4639 60.1922 94.5119 59.9042 94.5599C60.1922 94.5119 59.9042 94.5599 59.7602 94.5599C59.6162 94.5599 59.5682 94.5599 59.4722 94.5599C59.3762 94.5599 59.3282 94.5599 59.2322 94.5599C58.9922 94.5599 59.3282 94.5599 59.3762 94.5599C59.3282 94.5599 59.2802 94.5599 59.2322 94.5599C58.6562 94.4159 58.0802 94.7039 57.7922 95.2319C57.2642 96.5279 56.4002 97.6799 55.2962 98.5439C54.3842 99.2159 53.3282 99.6479 52.2242 99.7919L51.9842 99.8399H52.0322L51.6002 99.8879C51.3122 99.8879 51.0242 99.8879 50.7362 99.8879H50.3522C50.1122 99.8879 50.3042 99.8879 50.3522 99.8879H50.1602C49.8722 99.8399 49.6322 99.8399 49.3442 99.7919C49.0562 99.7439 48.9122 99.6959 48.7202 99.6479C48.3842 99.5999 48.7682 99.6479 48.5762 99.5999L48.2402 99.5039C48.0482 99.4559 47.8562 99.3599 47.6642 99.2639L47.3762 99.1199C47.2802 99.0719 47.4722 99.1679 47.4722 99.1679L47.2802 99.0719C47.1842 98.9759 47.0402 98.8799 46.9442 98.8319C46.8482 98.7839 47.0882 99.0239 46.9442 98.8319C46.8962 98.7839 46.8482 98.7359 46.8482 98.6879C46.7522 98.6399 46.9442 98.9279 46.8962 98.7359C46.8482 98.5439 46.8962 98.8319 46.8962 98.8319C46.8962 98.7359 46.8962 98.6399 46.8962 98.4959C46.8962 98.1599 46.9442 97.8239 46.9922 97.4879C47.0402 97.1519 47.0882 96.7679 47.1842 96.2399C47.6162 93.7919 48.1922 91.3919 48.7202 88.9439C49.1042 87.3119 49.4882 85.6319 49.9202 83.9999C50.0642 83.4239 49.5842 82.9919 49.0562 82.8959H48.9602C48.6242 82.7999 49.1042 82.9439 48.9122 82.8959C48.6242 82.7999 48.2882 82.6559 48.0002 82.5119C47.8562 82.4159 48.0962 82.6079 47.9042 82.4639L47.6642 82.3199C47.4722 82.1759 47.3282 82.0799 47.1362 81.9359C46.8002 81.5999 46.5122 81.2159 46.3202 80.8319C45.7442 79.7279 45.6962 78.4319 46.1762 77.2799C46.1762 77.2319 46.4162 76.8959 46.4642 76.8959C46.5122 76.8959 46.6082 76.7519 46.6562 76.7519C46.5122 76.8479 46.7042 76.7039 46.8002 76.7039C46.6082 76.7519 46.9442 76.6559 46.8002 76.7039C46.8482 76.7039 46.8962 76.6559 46.9442 76.6559C47.1842 76.6559 46.7522 76.6559 47.0402 76.6559C47.3282 76.6559 46.8962 76.6079 47.1842 76.6559C47.2322 76.6559 47.5682 76.7519 47.3762 76.6559C48.5762 77.0399 49.4402 78.3359 49.8722 79.5839C50.1602 80.3999 51.6482 80.4479 52.0802 79.7279C53.0882 78.1439 54.0002 76.4159 54.7202 74.6879C55.8242 71.9519 56.7842 68.6399 55.6802 65.7119L53.7122 66.6719C55.2002 67.8239 56.7362 68.8319 58.3682 69.7439C61.0562 71.2319 64.2242 72.7199 67.3922 72.4799L66.2402 71.8559C66.2882 71.9999 66.2882 72.0959 66.3362 72.2399C66.3842 72.3839 66.3842 72.5279 66.4322 72.7199L66.4802 73.0079L66.5282 73.1519C66.5762 73.3439 66.5282 73.1999 66.5282 73.2479C66.7682 74.4959 67.0082 75.7919 67.1522 77.0399C67.5842 80.3039 67.8722 83.7599 67.2962 87.0239C67.0082 88.6559 66.5282 90.1439 65.4242 91.3439C65.0402 91.7759 65.4242 92.3999 65.9042 92.5919C66.3362 92.7359 67.0082 92.5919 67.4402 92.1599Z" fill="#3D3D3D"/>
<path id="Vector_40" d="M61.9199 86.4954C61.9199 86.4954 71.1359 91.0074 74.4959 86.5434C77.8559 82.0794 71.6639 77.4234 64.8479 79.8714" fill="white"/>
<path id="Vector_41" d="M62.1601 87.3603C64.9441 88.7043 68.4001 89.8084 71.5201 89.4243C73.6321 89.1844 75.5041 87.9363 76.1281 85.7763C76.8001 83.3763 75.1201 80.9763 73.2001 79.6323C70.5121 77.8083 67.1041 77.8563 64.1281 78.8643C63.6481 79.0563 64.8481 81.0243 65.6161 80.7843C67.9201 79.9683 70.7521 79.8243 73.0081 80.9763C73.3921 81.1683 73.7281 81.4084 74.0161 81.6484C74.2561 81.8404 74.4001 82.0804 74.4961 82.3684C74.7361 83.1364 74.6401 84.0003 74.2561 84.7203C72.5281 88.3683 67.7761 87.6004 64.6561 86.6884C63.8881 86.4484 63.1681 86.2083 62.4001 85.8723C62.1601 85.7763 61.9681 85.6803 61.7281 85.5844C61.6321 85.5363 61.9201 85.6803 61.7281 85.5844L61.6801 85.5363C61.2961 85.3443 61.0081 85.4884 61.1041 85.9684C61.2961 86.5924 61.6801 87.0723 62.1601 87.3603Z" fill="#3D3D3D"/>
<path id="Vector_42" d="M56.5921 87.2163C56.5921 87.2163 53.8081 85.8723 54.1921 82.9443L56.5921 87.2163Z" fill="white"/>
<path id="Vector_43" d="M57.0718 86.8804C56.0638 86.3524 55.2958 85.4884 54.9118 84.3844C54.7678 83.8564 54.7198 83.2804 54.7678 82.7524C54.8158 82.4644 54.3358 82.5604 54.1918 82.6084C53.9518 82.7044 53.7118 82.8964 53.6638 83.1844C53.4718 84.8644 54.3358 86.5444 55.7758 87.4084C55.8718 87.5044 56.0158 87.5524 56.1118 87.6004C56.3518 87.6964 56.6398 87.6004 56.8798 87.4084C57.0238 87.3604 57.3118 87.0244 57.0718 86.8804Z" fill="#3D3D3D"/>
<path id="Vector_44" d="M60.3837 76.08C60.2397 76.464 60.4317 76.896 60.8157 77.04C60.8157 77.04 60.8637 77.04 60.9117 77.04C61.6797 77.232 61.9197 76.272 61.2957 75.888C61.0077 75.696 60.6237 75.744 60.4317 75.984C60.3837 76.032 60.3837 76.032 60.3837 76.08Z" fill="#3D3D3D"/>
<path id="Vector_45" d="M63.6479 76.6083C63.5039 76.9923 63.6959 77.4243 64.0799 77.5203C64.1279 77.5203 64.1279 77.5203 64.1759 77.5683C64.9439 77.7603 65.1839 76.8003 64.5599 76.4163C64.2719 76.2243 63.8879 76.2723 63.6959 76.5123C63.6959 76.5603 63.6479 76.6083 63.6479 76.6083Z" fill="#3D3D3D"/>
<path id="Vector_46" d="M39.168 130.56C39.168 130.56 45.936 95.4718 46.944 94.4638C47.952 93.4558 102.624 108.384 104.256 110.352C105.888 112.32 94.464 140.736 92.544 143.328C90.624 145.92 38.448 132.864 39.168 130.56Z" fill="#3D3D3D"/>
<path id="Vector_47" d="M97.3443 132.288C97.3443 132.288 103.68 137.712 100.8 139.344C98.9763 140.304 96.8643 140.544 94.8483 140.016C94.8483 140.016 94.5603 147.072 90.6243 148.656C86.6883 150.24 80.2083 146.736 80.2083 146.736C80.2083 146.736 79.3443 148.704 76.4163 146.736C76.4163 146.736 75.8883 148.32 72.4803 146.016C69.0723 143.712 68.9283 139.296 70.9923 138.816C73.0563 138.336 75.1683 141.696 75.1683 141.696C75.1683 141.696 76.8003 138.24 79.1523 141.84C79.3443 140.784 80.4003 140.064 81.4563 140.304C81.6003 140.352 81.6963 140.352 81.8403 140.4C84.0483 141.12 84.3363 142.704 86.2563 143.232C88.1763 143.76 92.5443 143.328 92.5443 143.328" fill="white"/>
<path id="Vector_48" d="M96.3842 132.528C97.4402 133.44 98.4002 134.448 99.2642 135.552C99.7442 136.224 100.368 137.04 100.368 137.904C100.368 138.192 100.272 138.432 100.08 138.672C99.5042 139.104 98.8322 139.392 98.1122 139.536C97.3922 139.68 96.6242 139.728 95.8562 139.632C95.7122 139.632 95.5682 139.584 95.3762 139.584C95.6162 139.632 95.3282 139.584 95.2802 139.536C95.1842 139.536 95.0882 139.488 94.9922 139.488C94.7042 139.392 93.6962 139.296 93.6962 139.776C93.6482 141.936 93.0722 144.096 92.0162 146.016C91.2482 147.312 90.1442 148.272 88.5602 148.416C86.9282 148.512 85.3442 148.224 83.8082 147.648C83.0882 147.408 82.3682 147.12 81.6482 146.784L81.2642 146.592L81.1682 146.544L80.9282 146.448C80.4482 146.208 79.3442 145.872 79.0562 146.544C79.1042 146.448 79.1042 146.496 79.0082 146.64C78.9122 146.784 78.8162 146.88 78.6722 146.928C78.5282 147.024 78.5762 146.976 78.4802 147.024C78.4322 147.024 78.3842 147.024 78.3362 147.024C78.2402 146.976 78.1442 146.976 78.0002 146.928C77.7122 146.784 77.4242 146.64 77.1842 146.448C76.7522 146.16 75.5522 145.872 75.3122 146.544C75.2642 146.64 75.4082 146.448 75.3602 146.496C75.3122 146.544 75.2642 146.64 75.2162 146.688C75.3602 146.544 75.0242 146.832 75.1682 146.688C75.0242 146.784 75.2642 146.688 75.1202 146.688H75.1682C75.0242 146.688 75.1202 146.688 75.2162 146.688C74.9762 146.64 74.7362 146.544 74.5442 146.448C74.1122 146.256 73.6802 145.968 73.2962 145.68C72.6722 145.248 72.1922 144.72 71.7602 144.096C71.0402 143.088 70.7522 141.84 70.9442 140.64C70.9922 140.256 71.1842 139.872 71.5202 139.632C71.7122 139.488 71.7122 139.488 71.9042 139.488C71.6642 139.488 71.9522 139.536 71.8562 139.488C71.9522 139.536 72.0962 139.584 72.1922 139.632C73.0082 140.208 73.6802 140.928 74.1602 141.744C74.5442 142.32 76.0322 142.704 76.4162 141.984C76.4642 141.936 76.5122 141.84 76.4162 141.984C76.4642 141.888 76.5122 141.84 76.5602 141.744C76.7042 141.504 76.9442 141.264 77.1362 141.072C77.1842 141.024 77.3762 140.976 77.4722 140.88H77.4242C77.5202 140.832 77.5202 140.832 77.4242 140.88H77.2802C77.4242 140.88 77.4242 140.88 77.2322 140.832C76.8962 140.736 77.1842 140.88 77.1362 140.832C77.0882 140.784 77.4242 141.072 77.3762 141.024C77.6642 141.312 77.9042 141.6 78.0962 141.936C78.3842 142.368 80.1602 142.992 80.3522 142.176C80.4482 141.648 80.9762 140.928 81.4082 140.976C82.1282 141.024 82.8002 141.696 83.2802 142.176C83.8562 142.752 84.5282 143.28 85.2962 143.616C86.7842 144.24 88.5122 144.24 90.0962 144.24C91.0562 144.24 92.0642 144.192 93.0242 144.096C93.4562 144.048 93.9362 143.856 93.6482 143.376C93.3602 142.896 92.5922 142.704 92.1122 142.752C91.3922 142.8 90.6722 142.848 89.9522 142.896C89.3762 142.896 88.7522 142.944 88.1762 142.896C87.8882 142.896 87.6002 142.848 87.3122 142.848L86.9282 142.8L86.7362 142.752C86.4962 142.704 86.9762 142.8 86.6402 142.752C85.5362 142.512 84.8162 141.408 83.9522 140.784C82.7042 139.92 80.8802 139.296 79.3922 139.92C78.6722 140.256 78.1922 140.88 78.0002 141.648L80.2562 141.888C79.2962 140.4 77.4722 139.008 75.6002 139.824C74.8802 140.16 74.3042 140.736 74.0162 141.504L76.2722 141.744C75.5522 140.592 74.5922 139.632 73.4402 138.912C72.0002 138.096 69.6482 137.76 68.7842 139.536C68.1122 140.976 68.6402 142.752 69.3602 144.048C70.5602 145.968 72.4322 147.36 74.5922 147.936C75.4562 148.176 77.1842 148.32 77.5682 147.216L75.6962 147.312C77.1362 148.272 80.3522 149.424 81.3602 147.216L79.4882 147.312C82.2242 148.8 85.4402 149.904 88.6082 149.952C90.4322 149.952 92.2562 149.424 93.4562 148.032C94.5122 146.736 95.1842 145.2 95.5202 143.568C95.7602 142.56 95.9522 141.552 96.0002 140.544L94.7042 140.88C95.9042 141.216 97.1522 141.312 98.4002 141.168C99.4082 141.072 100.416 140.784 101.328 140.352C101.856 140.16 102.336 139.728 102.576 139.2C102.96 138.288 102.432 137.232 101.952 136.464C101.328 135.504 100.608 134.592 99.7442 133.776C99.2642 133.248 98.7362 132.768 98.2082 132.288C97.7282 131.904 97.1522 131.76 96.5762 131.856C96.1442 131.76 96.0002 132.144 96.3842 132.528Z" fill="#3D3D3D"/>
<path id="Vector_49" d="M78.5278 143.04C78.3838 144.528 78.9118 146.016 79.9198 147.168C80.4478 147.696 81.0238 148.08 81.7438 148.32C82.1758 148.416 82.6558 148.272 82.8958 147.888C83.1358 147.648 83.2318 147.216 82.8478 147.072C82.5598 146.976 82.3198 146.832 82.0798 146.688C81.8398 146.544 81.6478 146.352 81.4078 146.16C81.3598 146.112 81.3118 146.064 81.2638 146.016L81.2158 145.92C81.1198 145.824 81.0718 145.728 80.9758 145.632C80.8318 145.44 80.7358 145.2 80.6398 145.008C80.5438 144.816 80.4478 144.576 80.3998 144.384L80.3518 144.288V144.336C80.3518 144.288 80.3038 144.24 80.3038 144.192C80.3038 144.144 80.2558 144 80.2558 143.904C80.2078 143.568 80.1598 143.28 80.1598 142.944C80.1598 142.8 80.1598 142.608 80.1598 142.464C80.1598 142.32 80.0158 142.176 79.8718 142.128C79.6798 142.08 79.4878 142.08 79.2958 142.176C78.9118 142.272 78.5758 142.608 78.5278 143.04Z" fill="#3D3D3D"/>
<path id="Vector_50" d="M74.3037 141.744C74.0637 143.28 74.3517 144.864 75.0717 146.256C75.4077 146.784 75.8397 147.216 76.4157 147.504C76.7997 147.696 77.2797 147.648 77.6637 147.408C77.9037 147.216 78.1917 146.832 77.8077 146.64C77.7117 146.592 77.6157 146.544 77.5197 146.448L77.3757 146.352L77.2797 146.256C77.0877 146.112 76.9437 145.92 76.7997 145.728C76.6557 145.536 76.5597 145.344 76.5117 145.152C76.4157 144.912 76.3197 144.672 76.2717 144.432C76.1757 144 76.0797 143.52 76.0317 143.088C76.0317 142.992 76.0317 142.896 76.0317 142.8C76.0317 142.704 76.0317 142.608 76.0317 142.704C76.0317 142.8 76.0317 142.656 76.0317 142.608C76.0317 142.464 76.0317 142.32 76.0317 142.128C76.0317 141.936 76.0317 141.792 76.0797 141.6C76.1757 140.784 74.3997 141.072 74.3037 141.744Z" fill="#3D3D3D"/>
<path id="Vector_51" d="M26.3042 101.473C26.3042 101.473 11.8562 114.577 18.1922 124.561C24.5282 134.545 57.6002 138.241 57.6002 138.241L51.8402 134.065C51.8402 134.065 65.0882 143.953 64.6082 140.689C64.1282 137.425 55.3922 128.737 55.3922 128.737C55.3922 128.737 63.8882 126.961 61.4402 124.321C59.8082 122.593 51.1682 123.457 51.1682 123.457C51.1682 123.457 46.6082 118.081 40.3682 121.537L32.1602 116.545C32.1602 116.545 30.5762 102.481 26.3042 101.473Z" fill="white"/>
<path id="Vector_52" d="M25.2479 101.376C22.3679 104.016 19.9679 107.04 18.0479 110.448C16.6079 112.992 15.5039 115.824 15.4079 118.752C15.3119 121.44 16.2719 124.08 18.0479 126.096C19.6319 127.728 21.4559 129.072 23.5199 130.08C25.9679 131.328 28.4639 132.384 31.0559 133.2C36.4319 134.928 41.8559 136.272 47.4239 137.232C50.5439 137.808 53.7119 138.384 56.8799 138.672H57.0239C57.4559 138.72 57.9359 138.624 58.3199 138.48C58.4159 138.432 58.9439 138.192 58.7039 138L52.9439 133.824C52.4639 133.584 51.9359 133.536 51.4559 133.728C51.3119 133.776 50.3519 134.112 50.6879 134.352C51.9359 135.264 53.1839 136.176 54.4319 137.04C56.5439 138.576 58.7519 139.92 61.0559 141.072C61.9199 141.552 62.8319 141.792 63.7919 141.84C64.5599 141.84 65.9039 141.6 65.7599 140.592C65.6639 139.488 64.8479 138.384 64.2239 137.472C63.3119 136.176 62.3519 134.976 61.3439 133.776C59.8079 131.952 58.1759 130.224 56.4959 128.544L55.7279 129.168C56.7839 128.928 57.8399 128.64 58.8479 128.304C60.1919 127.824 62.0159 127.248 62.7839 125.952C63.5519 124.656 62.1119 123.648 61.0079 123.36C59.1839 122.832 57.1679 122.832 55.2959 122.88C53.9039 122.88 52.5119 122.976 51.0719 123.12L52.2719 123.264C49.1039 119.568 43.5359 119.184 39.4559 121.44L41.3279 121.296L33.0719 116.208L33.2639 116.4C33.0719 114.72 32.7839 113.088 32.4479 111.456C31.8719 108.72 31.1999 105.84 29.7599 103.392C29.1359 102.336 28.2719 101.376 27.0239 101.088C26.4479 100.992 25.8719 101.04 25.3439 101.328C24.9599 101.568 24.9599 101.808 25.4399 101.952C25.5839 102 25.3919 101.904 25.5359 102C25.6319 102.048 25.6799 102.048 25.7759 102.096C25.9199 102.192 26.0639 102.288 26.2079 102.384C26.5439 102.672 26.8319 103.008 27.0719 103.344C27.6959 104.208 28.1759 105.168 28.5119 106.176C29.3279 108.384 29.9039 110.688 30.2879 112.992C30.4319 113.856 30.5759 114.72 30.7199 115.584C30.7199 115.968 30.7679 116.352 30.8639 116.736C31.0079 117.072 31.6799 117.312 31.9679 117.504L34.5119 119.088L39.3119 122.016C39.7919 122.304 40.7519 122.064 41.1839 121.872C42.4319 121.104 43.9199 120.816 45.3599 121.104C46.5119 121.392 47.6159 121.872 48.5759 122.592C49.0559 122.976 49.4879 123.456 49.9679 123.84C50.3519 124.08 50.8319 124.128 51.2639 124.032L51.5519 123.984H51.5039H51.8399C54.0959 123.792 56.3999 123.696 58.5599 124.032C59.3279 124.176 60.2399 124.368 60.5759 125.184C60.9119 126 60.2399 126.528 59.6639 126.864C58.7039 127.44 57.6959 127.824 56.6399 128.112C56.5919 128.16 56.4959 128.16 56.4479 128.16L56.1119 128.256L55.5359 128.4L55.0079 128.544C54.8639 128.592 53.9039 128.88 54.2399 129.168C55.4879 130.416 56.6879 131.712 57.8879 133.008C58.8959 134.112 59.8559 135.264 60.8159 136.464C61.6319 137.472 62.3519 138.576 62.9759 139.728C63.1679 140.112 63.3119 140.544 63.4079 140.976C63.4079 141.072 63.4079 141.312 63.4079 141.216L63.3599 141.312C63.3599 141.312 63.5519 141.168 63.5039 141.216C63.7919 141.12 64.0799 141.024 64.3679 141.024C64.2239 141.024 64.6559 141.024 64.5119 141.024C64.3679 141.024 64.4639 140.976 64.5119 141.024C64.5599 141.072 64.6079 141.024 64.5119 141.024H64.4159L64.1759 140.976C64.3679 141.024 64.0799 140.928 64.0319 140.928L63.7439 140.832C63.5519 140.736 63.3119 140.64 63.1199 140.544C61.0079 139.488 58.9919 138.24 57.0719 136.848C55.6799 135.888 54.2879 134.928 52.9439 133.92L50.6879 134.448L56.4479 138.624L58.1279 137.904C57.4559 137.808 56.7359 137.712 56.0639 137.664C55.9199 137.664 56.2559 137.664 56.1119 137.664H55.9679L55.7279 137.616L55.1519 137.52L53.8559 137.328C52.8479 137.184 51.8399 136.992 50.8319 136.848C45.5039 135.984 40.2719 134.784 35.0879 133.248C32.4479 132.48 29.9039 131.52 27.3599 130.416C25.1999 129.504 23.1839 128.256 21.3599 126.768C19.4879 125.232 18.2399 123.072 17.8559 120.672C17.3759 117.792 18.1439 114.912 19.3439 112.32C21.1679 108.384 23.9999 104.832 27.1199 101.808L27.3119 101.664C27.6959 101.328 27.0719 101.184 26.8319 101.136C26.3039 100.944 25.7279 101.088 25.2479 101.376Z" fill="#3D3D3D"/>
<path id="Vector_53" d="M64.5601 120C65.4721 121.488 66.48 122.928 67.536 124.32C67.776 124.704 68.1121 125.088 68.5441 125.328C69.3121 125.664 70.1761 125.664 70.9441 125.376C71.8561 125.088 72.72 124.32 73.536 123.744C76.5601 121.632 79.44 119.424 82.272 117.072C82.944 116.496 83.3761 115.248 82.3201 114.768C81.2641 114.288 79.8721 114.624 79.056 115.344C77.472 116.688 75.792 118.032 74.112 119.328C73.68 119.664 73.2481 119.952 72.8641 120.288L72.336 120.672L71.952 120.96C72.144 120.816 72.0961 120.864 71.9041 121.008C71.0881 121.632 70.2241 122.208 69.3601 122.736L70.5601 122.304H70.416L72.0001 122.496C72.1921 122.64 72.1921 122.64 72.0001 122.448L71.712 122.112L71.3281 121.584C71.0401 121.152 70.704 120.768 70.416 120.336C69.84 119.472 69.2641 118.608 68.6881 117.744C68.4481 117.36 67.6801 117.264 67.3441 117.264C66.7201 117.264 66.0961 117.408 65.5681 117.744C64.5601 118.176 63.8881 119.04 64.5601 120Z" fill="white"/>
<path id="Vector_54" d="M101.136 130.464C101.808 133.776 104.16 137.232 107.568 138.048C110.352 138.624 113.28 137.904 115.536 136.08C117.312 134.544 118.608 132.576 119.376 130.368C119.952 128.784 120.528 126.816 120.24 125.136C119.856 123.072 117.168 124.704 116.256 125.568C114.912 126.864 114.192 129.36 115.872 130.704C116.832 131.472 118.224 131.472 119.376 131.28C121.152 131.04 122.784 130.368 124.224 129.312C127.536 126.624 126.864 121.344 125.76 117.696L125.664 117.408C125.52 116.976 123.264 117.792 123.456 118.272C123.792 119.28 124.032 120.336 124.176 121.44C124.464 123.408 124.56 125.568 123.792 127.44C123.456 128.304 122.928 129.072 122.16 129.648C122.016 129.744 121.92 129.792 121.776 129.888C121.488 130.032 121.152 130.128 120.816 130.176C120.288 130.272 119.712 130.32 119.184 130.224C117.312 129.888 116.688 127.968 117.408 126.336C117.6 125.904 117.84 125.568 118.176 125.232C118.32 125.088 118.512 124.992 118.656 124.8C118.56 124.896 118.56 124.848 118.416 124.944C118.176 125.088 117.888 125.136 117.6 125.184C117.456 125.184 117.456 125.136 117.552 125.184C117.648 125.232 117.648 125.232 117.696 125.28C117.84 125.424 117.888 125.616 117.936 125.808C118.272 127.2 117.84 128.88 117.408 130.224C116.832 132.144 115.872 133.92 114.528 135.456C114.24 135.792 113.856 136.128 113.52 136.368C113.376 136.464 113.184 136.608 113.04 136.656C112.944 136.704 112.8 136.8 112.656 136.848C112.56 136.896 112.464 136.944 112.368 136.944C112.128 136.992 111.888 137.04 111.648 137.04C111.024 137.088 110.4 137.04 109.776 136.944C106.128 136.272 104.352 132.864 103.344 129.696C103.296 129.648 103.296 129.552 103.296 129.456C103.296 129.168 100.992 129.84 101.136 130.464Z" fill="#3D3D3D"/>
</g>
</g>
</svg>
