<svg width="120" height="120" viewBox="0 0 120 120" fill="none" xmlns="http://www.w3.org/2000/svg">
<path d="M36.624 43.1277C36.624 43.1277 34.392 63.7437 58.776 76.8477C58.776 76.8477 39.672 86.9517 37.848 110.352H84.192C84.192 110.352 85.824 91.9197 62.64 76.7517C62.64 76.7517 81.552 70.2957 82.368 43.1517L36.624 43.1277Z" fill="white"/>
<path d="M36.0479 43.2477C35.9759 43.9677 35.9759 44.6877 35.9999 45.4317C36.0719 47.3277 36.312 49.2237 36.744 51.0717C37.368 53.8077 38.3039 56.4237 39.5759 58.9197C41.2079 62.1117 43.2719 65.0637 45.7199 67.6557C48.912 70.9917 52.5599 73.8717 56.5679 76.1517C57.1199 76.4877 57.696 76.7997 58.272 77.1117L58.5599 76.6557C57.864 77.0397 57.1919 77.4477 56.52 77.9037C54.864 79.0317 53.2799 80.2557 51.7679 81.5997C49.6319 83.5197 47.6879 85.6077 45.9359 87.8877C41.2559 93.9597 38.328 101.184 37.4399 108.792C37.3679 109.344 37.32 109.92 37.272 110.472C37.272 110.592 37.392 110.664 37.512 110.664H83.856C84.096 110.664 84.72 110.544 84.768 110.208C84.816 109.536 84.816 108.864 84.744 108.192C84.624 106.44 84.36 104.688 83.928 102.984C83.28 100.392 82.344 97.8957 81.12 95.5197C79.488 92.3517 77.496 89.3997 75.144 86.7117C72.096 83.2557 68.616 80.1837 64.7999 77.5677C64.2479 77.1837 63.72 76.8237 63.168 76.4637L62.7359 76.9917C63.4319 76.7277 64.1279 76.4397 64.7759 76.0797C66.4319 75.2157 67.992 74.2077 69.456 73.0557C71.5919 71.3517 73.512 69.4077 75.168 67.2237C77.256 64.4397 78.936 61.3677 80.16 58.1037C81.744 53.8797 82.56 49.4397 82.848 44.9517C82.896 44.3037 82.92 43.6557 82.944 43.0077C82.944 42.8637 82.824 42.8157 82.704 42.8157H36.9599C36.6719 42.7917 36.3839 42.9117 36.1679 43.1037C36.0239 43.2477 36.0479 43.4637 36.2879 43.4637H81.336C81.528 43.4877 81.7439 43.4877 81.936 43.4637C81.96 43.4637 81.984 43.4637 82.008 43.4637L81.768 43.2717C81.624 47.8797 80.952 52.4637 79.512 56.8557C78.408 60.2397 76.824 63.4317 74.784 66.3597C73.224 68.5917 71.352 70.6077 69.264 72.3597C68.472 73.0317 67.632 73.6557 66.744 74.2317C66.36 74.4717 65.9999 74.7117 65.6159 74.9517L65.52 74.9997L65.424 75.0477L65.16 75.1917L64.6559 75.4557C64.1519 75.7197 63.6239 75.9837 63.0959 76.2237C62.9759 76.2717 63.0239 76.2477 63.0959 76.2237L62.9519 76.2717L62.7359 76.3677L62.4959 76.4637H62.4719C62.3999 76.4877 61.7759 76.7997 62.04 76.9917C66.048 79.5597 69.72 82.6317 72.96 86.0877C75.456 88.7517 77.592 91.7037 79.344 94.8957C80.664 97.3197 81.72 99.9117 82.464 102.576C82.968 104.376 83.304 106.224 83.472 108.096C83.52 108.624 83.544 109.128 83.544 109.704C83.544 109.944 83.52 110.208 83.52 110.448V110.472L84.4319 110.016H38.8799C38.6639 109.992 38.4719 109.992 38.2559 110.016C38.2319 110.016 38.208 110.016 38.184 110.016L38.424 110.208C38.736 106.056 39.672 101.952 41.184 98.0637C42.48 94.7757 44.1839 91.6557 46.2479 88.7997C47.9519 86.4477 49.872 84.2637 51.984 82.2957C53.496 80.8797 55.08 79.5837 56.784 78.4317C57.288 78.0717 57.816 77.7357 58.368 77.3997L58.6559 77.2317C58.4639 77.3517 58.68 77.2077 58.752 77.1837C58.824 77.1597 58.9199 77.0877 59.0159 77.0397L59.0399 77.0157C59.1119 76.9677 59.5439 76.6797 59.3279 76.5597C55.1519 74.3277 51.24 71.5917 47.8799 68.2557C45.24 65.6637 43.008 62.7117 41.232 59.4717C39.864 56.9517 38.808 54.2877 38.112 51.5277C37.608 49.6077 37.3199 47.6397 37.1999 45.6477C37.1759 45.0477 37.1519 44.4477 37.1759 43.8477C37.1759 43.5837 37.224 43.2957 37.224 43.0317V43.0077C37.224 42.5997 36.0959 42.8877 36.0479 43.2477Z" fill="#CECECE"/>
<path d="M34.8001 39.9597C34.8001 39.9597 84.1201 40.1517 84.2161 41.1117C84.3121 42.0717 85.2481 43.6317 84.2161 43.9437C83.1841 44.2557 37.3921 43.7277 35.6161 43.1277C33.8401 42.5277 34.8001 39.9597 34.8001 39.9597Z" fill="white"/>
<path d="M34.92 40.4159H36.264C37.488 40.4159 38.688 40.4159 39.912 40.4399C41.712 40.4399 43.512 40.4639 45.288 40.4879C47.472 40.5119 49.656 40.5359 51.84 40.5359C54.216 40.5599 56.592 40.5839 58.992 40.6319C61.392 40.6559 63.792 40.7039 66.216 40.7519C68.448 40.7999 70.68 40.8479 72.912 40.8959C74.784 40.9439 76.656 40.9919 78.528 41.0639C79.848 41.1119 81.192 41.1599 82.512 41.2799L82.872 41.3039L83.016 41.3279C83.136 41.3279 82.896 41.3279 82.968 41.3279H83.04C83.208 41.3519 83.4 41.3759 83.568 41.3999C83.688 41.4239 83.808 41.4479 83.928 41.4719C84.048 41.4959 84 41.4959 83.904 41.4479C84.024 41.4959 83.928 41.4719 83.832 41.3999C83.856 41.4239 83.712 41.3039 83.712 41.2559C83.664 41.1839 83.616 40.9919 83.64 41.1839C83.688 41.5439 83.784 41.8799 83.904 42.2159C84.024 42.5279 84.072 42.8399 84.096 43.1759C84.096 43.2959 84.024 43.4159 83.904 43.4639C83.832 43.5119 83.88 43.4639 83.952 43.4639C83.904 43.4639 83.856 43.4639 83.832 43.4639L83.448 43.4879C82.416 43.5359 81.384 43.5359 80.352 43.5359C78.648 43.5359 76.92 43.5359 75.216 43.5359C73.032 43.5359 70.848 43.5119 68.664 43.4879C66.24 43.4639 63.816 43.4399 61.368 43.3919C58.872 43.3679 56.4 43.3199 53.904 43.2719C51.576 43.2239 49.272 43.1759 46.944 43.1279C45 43.0799 43.056 43.0319 41.112 42.9599C39.768 42.9119 38.4 42.8639 37.056 42.7679C36.84 42.7679 36.624 42.7439 36.384 42.7199L36.096 42.6959C36.024 42.6959 36.288 42.7199 36.12 42.6959H36L35.664 42.6479H35.616C35.496 42.6239 35.712 42.6479 35.712 42.6719C35.712 42.6959 35.568 42.6239 35.544 42.5999C35.448 42.5519 35.592 42.6479 35.52 42.5759L35.424 42.5039C35.352 42.4559 35.304 42.3839 35.256 42.3119C34.896 41.7119 35.04 40.7519 35.28 40.1279C35.496 39.5759 34.392 39.0959 34.176 39.6719C33.864 40.5359 33.744 41.5919 34.152 42.4319C34.488 43.0799 35.112 43.5119 35.832 43.5839C36.792 43.7039 37.776 43.7519 38.736 43.7759C40.392 43.8479 42.048 43.8959 43.68 43.9439C45.84 44.0159 48.024 44.0639 50.184 44.1119C52.656 44.1599 55.104 44.2079 57.576 44.2559C60.096 44.3039 62.616 44.3279 65.136 44.3519C67.512 44.3759 69.888 44.3999 72.264 44.4239C74.256 44.4479 76.272 44.4479 78.264 44.4479C79.68 44.4479 81.072 44.4479 82.488 44.4239C82.896 44.4239 83.304 44.3999 83.712 44.3999C83.952 44.3999 84.168 44.3759 84.408 44.3279C85.248 44.1119 85.272 43.2719 85.104 42.5759C85.008 42.1919 84.888 41.8319 84.792 41.4719C84.768 41.2799 84.72 41.0639 84.648 40.8959C84.456 40.5839 84.072 40.4879 83.76 40.4399C82.824 40.2959 81.864 40.2239 80.904 40.1999C79.32 40.1039 77.736 40.0559 76.128 40.0079C74.064 39.9359 72 39.8879 69.912 39.8399C67.536 39.7919 65.184 39.7439 62.808 39.7199C60.336 39.6719 57.888 39.6479 55.416 39.6239C53.064 39.5999 50.712 39.5759 48.36 39.5519C46.296 39.5279 44.232 39.5039 42.168 39.5039L37.488 39.4799L34.896 39.4559H34.56C34.344 39.4319 34.128 39.5999 34.104 39.8159C34.104 39.8639 34.104 39.8879 34.104 39.9359C34.344 40.2479 34.608 40.4399 34.92 40.4159Z" fill="#CECECE"/>
<path d="M61.7999 80.3282C62.1359 79.0322 61.7999 75.2161 61.7999 75.2161C68.6159 71.4481 73.4399 63.8401 73.4399 63.8401C67.6799 64.0561 60.7439 62.3281 54.0959 58.4881C47.4479 54.6481 41.9519 56.7601 41.9519 56.7601C45.8879 68.7361 59.9039 75.4561 59.9039 75.4561C59.9039 75.4561 59.2799 83.9521 59.9039 83.0401C60.5279 82.1281 60.6239 79.7521 60.9119 80.6642C61.1999 81.5761 61.6319 80.9762 61.7999 80.3282Z" fill="#CECECE"/>
<path d="M62.352 80.5201C62.592 79.5361 62.52 78.4561 62.472 77.4481C62.448 76.7281 62.4 76.0081 62.352 75.2881L62.256 75.5521C64.848 74.1121 67.128 72.1921 69.168 70.0561C70.656 68.4961 72.048 66.8401 73.296 65.0881C73.536 64.7521 73.752 64.4401 73.968 64.1041C74.208 63.7441 73.512 63.3601 73.224 63.3601C68.184 63.5521 63.144 62.2801 58.56 60.2641C57.24 59.6881 55.968 59.0401 54.72 58.3441C53.496 57.6241 52.224 57.0241 50.88 56.5441C48.864 55.8481 46.704 55.5601 44.568 55.7041C43.56 55.7521 42.576 55.9441 41.616 56.2561C41.472 56.2801 41.4 56.4241 41.424 56.5681C42.936 61.1521 45.888 65.0881 49.392 68.4001C52.008 70.8481 54.888 72.9841 57.984 74.7601C58.608 75.1201 59.232 75.4801 59.88 75.7921L59.376 75.1921C59.256 76.8721 59.16 78.5281 59.112 80.2081C59.112 80.7121 59.088 81.1921 59.112 81.6961C59.112 82.0561 59.136 82.3921 59.208 82.7521C59.304 83.1841 59.808 83.6881 60.264 83.4481C60.408 83.3521 60.528 83.1841 60.6 83.0161C60.744 82.7041 60.864 82.3681 60.936 82.0321C61.032 81.6961 61.08 81.3601 61.176 81.0241C61.2 80.9041 61.224 80.9041 61.272 80.7841C61.272 80.7361 61.272 80.7601 61.272 80.7841C61.08 81.0001 60.816 80.9281 60.456 80.5681L60.408 80.4961C60.408 80.5201 60.432 80.5441 60.432 80.5441C60.432 80.4721 60.432 80.5681 60.456 80.6161C60.624 81.0961 61.128 81.6721 61.704 81.5041C62.112 81.4081 62.256 80.8801 62.352 80.5201C62.472 80.0641 61.392 79.5601 61.272 80.0881C61.224 80.2561 61.176 80.4001 61.08 80.5441C61.056 80.5681 61.032 80.6161 61.008 80.6401C60.912 80.9041 61.56 80.6401 61.584 80.8561C61.584 80.8561 61.56 80.7841 61.536 80.7841C61.464 80.4481 61.224 80.1601 60.912 80.0161C60.264 79.7761 60.168 80.4001 60.048 80.8801C59.904 81.4561 59.808 82.0561 59.52 82.5601C59.496 82.6081 59.472 82.6321 59.448 82.6801C59.424 82.7041 59.52 82.6321 59.472 82.6561C59.784 82.5841 60.12 82.7281 60.312 82.9921C60.312 82.9441 60.288 82.8721 60.288 82.8241C60.288 82.7761 60.264 82.7041 60.264 82.6561C60.264 82.5121 60.264 82.6081 60.264 82.4881C60.264 82.2961 60.24 82.1041 60.24 81.9121C60.24 81.4321 60.24 80.9761 60.264 80.4961C60.288 79.4641 60.336 78.4321 60.408 77.4001C60.432 76.8001 60.48 76.2001 60.528 75.6001C60.552 75.3121 60.24 75.1201 60.024 75.0001C60.288 75.1201 60.12 75.0481 60.048 75.0241L59.76 74.8801C59.424 74.6881 59.064 74.5201 58.728 74.3281C57.528 73.6561 56.352 72.9121 55.224 72.1441C54.864 71.8801 54.648 71.7361 54.24 71.4481C53.832 71.1601 53.448 70.8721 53.064 70.5601C52.272 69.9361 51.504 69.2881 50.76 68.6161C49.104 67.1521 47.616 65.5201 46.272 63.7681C44.664 61.6801 43.416 59.3281 42.552 56.8321L42.36 57.1441C43.08 56.8801 43.848 56.7361 44.616 56.6641C46.584 56.4481 48.552 56.6401 50.448 57.2401C51.744 57.6481 52.992 58.2001 54.168 58.8961C55.44 59.6161 56.712 60.2641 58.032 60.8641C60.48 61.9681 63.048 62.8321 65.688 63.4561C68.328 64.0801 71.016 64.3441 73.728 64.2721L72.984 63.5281C72.36 64.4881 71.664 65.4241 70.944 66.3361C69.336 68.3761 67.536 70.2481 65.544 71.9281C64.248 73.0321 62.856 73.9921 61.392 74.8321C61.296 74.8801 61.296 75.0241 61.296 75.0961C61.344 75.7201 61.392 76.4161 61.416 77.1121C61.44 78.0961 61.512 79.1521 61.272 80.1121C61.152 80.5681 62.208 81.0721 62.352 80.5201Z" fill="#CECECE"/>
<path d="M62.2321 92.112C63.2401 93.648 65.7841 97.488 71.8081 103.176C75.6481 106.8 78.6961 110.352 78.6961 110.352H42.7441C42.7441 110.352 45.3601 106.008 50.5921 101.184C56.9521 95.328 59.3041 94.32 59.9281 90.576C59.9281 90.576 59.8561 87.048 60.3841 87.144C60.9121 87.24 62.2321 92.112 62.2321 92.112Z" fill="#CECECE"/>
<path d="M62.112 92.184C63.456 94.224 64.944 96.168 66.552 98.016C69.576 101.496 73.056 104.52 76.2 107.856C77.064 108.768 77.904 109.704 78.72 110.64L78.384 109.8H43.92C43.464 109.8 42.984 109.776 42.528 109.8H42.456L43.056 110.808C44.064 109.2 45.216 107.664 46.464 106.248C49.08 103.176 52.08 100.536 55.104 97.896C56.088 97.056 57.072 96.192 57.984 95.256C58.656 94.584 59.232 93.816 59.664 92.976C60.024 92.28 60.24 91.488 60.264 90.696C60.264 90.192 60.264 89.712 60.288 89.208C60.288 88.704 60.36 88.224 60.504 87.744C60.528 87.696 60.552 87.648 60.576 87.6C60.6 87.576 60.672 87.552 60.672 87.576C60.672 87.6 60.48 87.384 60.48 87.384C60.432 87.288 60.456 87.36 60.456 87.36C60.288 87.12 60.432 87.288 60.432 87.312C60.432 87.336 60.528 87.48 60.456 87.336C60.672 87.768 60.84 88.224 60.984 88.704C61.296 89.64 61.584 90.6 61.848 91.56C61.872 91.608 61.872 91.68 61.896 91.728C61.992 92.016 62.136 92.256 62.352 92.448C62.52 92.592 62.592 92.544 62.52 92.328C62.304 91.56 62.088 90.792 61.848 90.048C61.512 88.992 61.2 87.84 60.528 86.952C60.312 86.664 60 86.352 59.808 86.808C59.664 87.288 59.592 87.792 59.592 88.296C59.568 88.8 59.568 89.28 59.568 89.784C59.568 90.144 59.496 90.48 59.4 90.816C58.848 92.904 57.264 94.368 55.704 95.76C52.728 98.424 49.632 100.968 46.944 103.92C45.312 105.696 43.728 107.592 42.48 109.656C42.456 109.68 42.456 109.704 42.432 109.752C42.312 109.944 42.816 110.76 43.032 110.76H77.52C77.976 110.76 78.456 110.808 78.912 110.76H78.984C79.224 110.76 78.696 109.992 78.648 109.92C76.512 107.448 74.232 105.072 71.856 102.816C69.072 100.176 66.384 97.392 64.08 94.344C63.888 94.08 63.696 93.816 63.504 93.552L63.264 93.216L63.144 93.024L63.096 92.952C63.024 92.856 63.144 93.024 63.096 92.952C62.856 92.592 62.616 92.256 62.376 91.896C62.328 91.824 62.064 91.392 61.92 91.464C61.776 91.536 62.088 92.136 62.112 92.184Z" fill="#CECECE"/>
<path d="M35.5681 108.312C35.5681 108.312 84.8882 108.504 85.0082 109.464C85.1282 110.424 86.0402 111.984 85.0082 112.296C83.9762 112.608 38.1601 112.08 36.3841 111.48C34.6081 110.88 35.5681 108.312 35.5681 108.312Z" fill="white"/>
<path d="M35.832 108.768H37.176L40.824 108.792L46.176 108.84C48.36 108.864 50.544 108.888 52.728 108.888C55.128 108.912 57.504 108.936 59.904 108.984C62.304 109.008 64.704 109.056 67.104 109.104C69.336 109.152 71.592 109.2 73.824 109.248C75.696 109.296 77.568 109.344 79.464 109.416C80.784 109.464 82.128 109.536 83.448 109.632C83.856 109.656 84.24 109.704 84.648 109.752C84.768 109.776 84.888 109.8 85.032 109.824L85.104 109.848C85.2 109.872 85.008 109.824 85.08 109.848C85.152 109.872 85.176 109.896 85.056 109.824C84.936 109.752 84.84 109.656 84.744 109.536C84.696 109.464 84.672 109.344 84.6 109.248C84.528 109.152 84.6 109.32 84.624 109.392C84.696 109.752 84.816 110.112 84.912 110.472C85.032 110.88 85.296 111.72 84.696 111.864C84.504 111.888 84.312 111.912 84.12 111.912C83.112 111.96 82.08 111.96 81.048 111.96C79.368 111.96 77.664 111.96 75.96 111.96C73.8 111.96 71.616 111.936 69.456 111.912C67.008 111.888 64.584 111.864 62.136 111.84C59.64 111.816 57.168 111.768 54.672 111.72C52.368 111.672 50.04 111.624 47.736 111.576C45.792 111.528 43.848 111.48 41.88 111.408C40.512 111.36 39.144 111.312 37.8 111.216C37.416 111.192 37.008 111.168 36.624 111.12C36.504 111.12 36.384 111.096 36.288 111.072C36.264 111.072 36.216 111.048 36.192 111.048C36.408 111.096 36.12 111 36.048 110.976C36.048 110.976 35.952 110.928 36.024 110.976C35.928 110.88 36 110.976 36.024 110.976C36 110.952 35.976 110.928 35.952 110.88C36 110.976 35.904 110.76 35.928 110.832C35.904 110.784 35.88 110.712 35.88 110.64C35.856 110.52 35.832 110.4 35.832 110.28C35.808 110.04 35.832 109.776 35.88 109.536C35.928 109.248 36 108.96 36.096 108.696C36.216 108.36 35.328 107.568 35.184 107.952C34.872 108.792 34.776 109.848 35.184 110.664C35.544 111.384 36.216 111.888 36.984 112.008C37.896 112.128 38.832 112.152 39.744 112.2C41.4 112.272 43.056 112.32 44.712 112.368C46.872 112.44 49.056 112.488 51.216 112.536C53.664 112.584 56.112 112.632 58.56 112.656C61.08 112.704 63.624 112.728 66.144 112.752C68.52 112.776 70.896 112.8 73.272 112.824C75.288 112.848 77.304 112.848 79.32 112.848C80.736 112.848 82.152 112.848 83.568 112.824C83.976 112.824 84.408 112.824 84.816 112.8C85.008 112.8 85.176 112.8 85.368 112.752C86.112 112.56 85.992 111.696 85.848 111.144C85.752 110.784 85.632 110.424 85.536 110.064C85.512 109.824 85.44 109.584 85.32 109.368C85.08 109.08 84.744 108.888 84.384 108.84C83.496 108.696 82.584 108.624 81.696 108.6C80.112 108.504 78.528 108.456 76.944 108.408C74.856 108.336 72.792 108.288 70.704 108.24C68.352 108.192 66 108.144 63.624 108.12C61.152 108.072 58.704 108.048 56.232 108.024C53.88 108 51.504 107.976 49.152 107.952C47.088 107.928 45.024 107.928 42.96 107.904L38.28 107.88H35.688H35.352C34.8 107.832 35.472 108.768 35.832 108.768Z" fill="#CECECE"/>
<path d="M45.624 61.1278C45.96 62.5678 46.728 63.8398 47.832 64.8238C48.048 65.0158 48.432 65.1118 48.648 64.8718C48.864 64.6558 48.84 64.3198 48.648 64.1038C48.648 64.1038 48.648 64.1038 48.624 64.0798C48.384 63.8638 48.144 63.6238 47.952 63.3838L47.928 63.3598C47.904 63.3358 47.88 63.3118 47.856 63.2638C47.832 63.2158 47.76 63.1198 47.712 63.0718C47.616 62.9278 47.52 62.7838 47.448 62.6398C47.376 62.4958 47.304 62.3758 47.232 62.2318C47.232 62.2318 47.16 62.0878 47.184 62.1358C47.208 62.1838 47.16 62.0878 47.16 62.0878C47.136 62.0158 47.088 61.9438 47.064 61.8478C46.944 61.5358 46.848 61.2238 46.776 60.8878C46.68 60.5998 46.368 60.4078 46.056 60.4558C45.792 60.5038 45.6 60.7678 45.648 61.0318C45.624 61.0798 45.648 61.1038 45.624 61.1278Z" fill="white"/>
<path d="M49.4159 66.5517C49.8239 67.0797 50.3039 67.5597 50.8319 67.9677C50.9519 68.0637 51.0959 68.1357 51.2399 68.1837C51.3119 68.2077 51.4799 68.2557 51.5519 68.2077C51.7679 68.0877 51.4559 67.7997 51.3599 67.7277L51.1919 67.6077L51.0959 67.5357L51.0479 67.5117L51.0959 67.5597C50.9999 67.4637 50.8799 67.3677 50.7839 67.2717C50.6879 67.1757 50.5919 67.0797 50.4959 66.9597L50.4719 66.9357L50.5199 66.9837L50.4959 66.9597L50.4239 66.8637L50.2799 66.6957C50.1839 66.5757 50.0879 66.4797 49.9439 66.4077C49.8239 66.3357 49.6799 66.2637 49.5359 66.2397C49.4639 66.2397 49.3199 66.2157 49.2959 66.2877C49.3199 66.4077 49.3439 66.5037 49.4159 66.5517Z" fill="white"/>
<path d="M50.4239 57.744C50.4239 57.744 50.7119 63.744 50.5439 63.744C50.3759 63.744 47.8079 63.672 47.8079 63.672V61.272L46.5599 63.912L38.0159 63.432C38.0159 63.432 37.7519 62.568 39.6719 61.608C41.5919 60.648 44.6879 59.304 44.6879 59.304L44.7599 55.728L50.4239 57.744Z" fill="#3D3D3D"/>
<path d="M69.7678 58.2959C69.7678 58.2959 69.4798 64.2959 69.6478 64.2959C69.8158 64.2959 72.3838 64.2239 72.3838 64.2239V61.8239L73.6318 64.4639L82.1518 63.9839C82.1518 63.9839 82.4158 63.1199 80.4958 62.1599C78.5758 61.1999 75.4798 59.8319 75.4798 59.8319L75.4078 56.2559L69.7678 58.2959Z" fill="#3D3D3D"/>
<path d="M56.304 35.3037C56.304 35.3037 52.512 33.3357 49.2 35.3037C45.888 37.2717 41.76 59.5917 41.76 59.5917H52.512L57.312 39.9357H63.912L68.04 59.5917L77.136 58.4397C77.136 58.4397 73.32 35.3277 69.36 34.1757C64.464 32.7357 61.992 35.4237 61.992 35.4237L56.304 35.3037Z" fill="#3D3D3D"/>
<path d="M56.6399 35.0397C55.5839 34.5117 54.4559 34.2237 53.2799 34.1517C52.2239 34.0797 51.1919 34.1997 50.1839 34.5597C49.5599 34.7517 48.9839 35.0637 48.5039 35.4957C47.9999 36.0477 47.5679 36.6957 47.2799 37.3917C46.8239 38.3757 46.4159 39.3837 46.0799 40.4157C45.1919 42.9837 44.4719 45.6237 43.8239 48.2637C43.1999 50.7597 42.6479 53.2557 42.1199 55.7757C41.9519 56.6397 41.7599 57.4797 41.5919 58.3437C41.5199 58.7517 41.3999 59.1837 41.3519 59.5917C41.3519 59.6157 41.3519 59.6397 41.3519 59.6397C41.3279 59.7837 41.5439 59.8317 41.6399 59.8317H52.3919C52.6079 59.8317 52.9199 59.7117 52.9679 59.4717L54.5999 52.7997L57.1679 42.2397L57.7679 39.8157L57.1919 40.1757H63.7919L63.5039 40.0557L64.9199 46.7517L67.1279 57.3117L67.6319 59.7117C67.6559 59.8557 67.9199 59.8317 68.0159 59.8077L75.9599 58.7997L77.1119 58.6557C77.3039 58.6317 77.6159 58.4637 77.5679 58.2477C77.3759 57.0717 77.1599 55.8957 76.9439 54.7437C76.4399 52.1277 75.8879 49.5117 75.2639 46.9197C74.6399 44.1357 73.8239 41.3997 72.8639 38.7117C72.5039 37.6797 72.0239 36.6477 71.4959 35.6877C71.1119 35.0637 70.6559 34.3677 70.0079 34.0077C69.8159 33.9117 69.5999 33.8397 69.3839 33.7917C68.8079 33.6477 68.2319 33.5277 67.6559 33.4797C66.7199 33.3837 65.7599 33.4557 64.8239 33.6717C63.6959 33.9357 62.6639 34.4637 61.7999 35.2077C61.7519 35.2557 61.7039 35.2797 61.6799 35.3277L62.1839 35.1117L57.1919 35.0157L56.4719 34.9917C56.2559 34.9917 56.0399 35.0877 55.9199 35.2797C55.8239 35.4717 56.0159 35.5197 56.1839 35.5437L59.8319 35.6157L61.6799 35.6397C61.9439 35.6637 62.1839 35.5917 62.3759 35.4237L62.3999 35.3757L62.4479 35.3277C62.5199 35.2557 62.4479 35.3277 62.4719 35.3037C62.8559 34.9677 63.3119 34.6797 63.7919 34.4877C64.6559 34.1277 65.5679 33.9597 66.4799 33.9837C67.1279 33.9837 67.7759 34.0797 68.3999 34.2237C68.7359 34.2717 69.0479 34.3677 69.3359 34.5117C69.4079 34.5357 69.3359 34.5117 69.3839 34.5357L69.4799 34.6077C69.5519 34.6797 69.6239 34.7277 69.6959 34.7997C69.8399 34.9437 69.9839 35.1117 70.1279 35.2797C70.8479 36.2157 71.3279 37.3437 71.7599 38.4237C72.3359 39.8877 72.8159 41.3997 73.2479 42.9117C74.1839 46.1757 74.9279 49.4877 75.5999 52.7997C75.8639 54.0477 76.1039 55.3197 76.3199 56.5677C76.4399 57.1917 76.4879 57.8397 76.6559 58.4397C76.6559 58.4637 76.6559 58.4877 76.6799 58.5357L77.1359 58.1277L69.1919 59.1357L68.0399 59.2797L68.4239 59.3757L67.0079 52.6797L64.7999 42.1197L64.2959 39.7197C64.2719 39.5997 64.1039 39.5997 64.0079 39.5997H57.4079C57.1919 39.5997 56.8799 39.7437 56.8319 39.9597L55.1999 46.6317L52.6319 57.1917L52.0319 59.5917L52.6079 59.2317H41.8559L42.1439 59.4237C42.3359 58.4157 42.5279 57.4317 42.7199 56.4237C43.1999 54.0957 43.7039 51.7677 44.2559 49.4637C44.8799 46.8477 45.5519 44.2317 46.3679 41.6397C46.7039 40.5357 47.0879 39.4557 47.5199 38.3997C47.8319 37.5837 48.2399 36.7917 48.6959 36.0717C48.7679 35.9517 48.8639 35.8557 48.9599 35.7357C49.0079 35.6877 49.0559 35.6397 49.1039 35.5917L49.1759 35.5197C49.2479 35.4477 49.1519 35.5437 49.1999 35.4957C49.2479 35.4477 49.2959 35.4237 49.3439 35.3997L49.3679 35.3757C49.2239 35.4717 49.3679 35.3757 49.3919 35.3517C49.5359 35.2797 49.6559 35.2077 49.7999 35.1357C50.2799 34.9197 50.7839 34.7757 51.2879 34.6797C52.7759 34.4877 54.2879 34.7277 55.6319 35.3517C55.7039 35.3757 55.7999 35.4237 55.8719 35.4717C56.2319 35.6637 56.9999 35.2557 56.6399 35.0397Z" fill="#3D3D3D"/>
<path d="M53.064 34.3919C53.064 34.3919 51.24 19.7999 56.664 17.6639C64.464 14.5679 65.664 23.5199 66.408 33.8879C66.408 33.8639 57.336 36.2159 53.064 34.3919Z" fill="white"/>
<path d="M53.4721 34.2241C53.3041 32.8081 53.2321 31.3921 53.1841 29.9761C53.1361 27.3121 53.2321 24.5761 53.9281 22.0081C54.2401 20.9041 54.6721 19.7761 55.3921 18.9121C55.6801 18.5521 56.0641 18.2401 56.4961 18.0241C56.5201 18.0001 56.5681 18.0001 56.5921 17.9761L56.8081 17.9041C57.0241 17.8321 57.2161 17.7601 57.4321 17.6881C57.7921 17.5681 58.1521 17.4961 58.5361 17.4241C59.6881 17.2081 60.8881 17.4961 61.8481 18.1921C62.8801 18.9841 63.5281 20.1841 63.9841 21.3841C64.5601 22.9921 64.9681 24.6481 65.2081 26.3281C65.5201 28.3441 65.7121 30.3841 65.8801 32.4001C65.9281 32.9281 65.9761 33.4801 66.0001 34.0081L66.4801 33.5281C65.4001 33.8161 64.2961 34.0081 63.1921 34.2001C61.0321 34.5601 58.8241 34.8241 56.6161 34.7041C55.4881 34.6801 54.3601 34.4641 53.3041 34.0561C52.9681 33.9121 52.3201 34.5121 52.7761 34.7041C54.7921 35.5441 57.1441 35.4961 59.2801 35.3281C61.2481 35.1841 63.1921 34.8721 65.1361 34.4641C65.5201 34.3681 65.9281 34.2961 66.3121 34.2001C66.5281 34.1521 66.8161 33.9841 66.7921 33.7201C66.6241 31.5601 66.4561 29.4001 66.1681 27.2401C65.9521 25.4161 65.5681 23.5921 65.0401 21.8401C64.6081 20.4961 64.0081 19.1521 63.0001 18.0961C62.1361 17.2081 60.9361 16.7041 59.6881 16.7041C58.9201 16.7041 58.1521 16.8481 57.4081 17.0881C56.7361 17.2801 56.1121 17.5681 55.5361 17.9761C54.5761 18.6961 53.9521 19.7521 53.5201 20.8561C52.5121 23.4481 52.3201 26.3521 52.3201 29.0881C52.3201 30.2641 52.3681 31.4401 52.4401 32.6161C52.4881 33.2401 52.5121 33.8641 52.6081 34.4641C52.6081 34.4881 52.6081 34.5121 52.6081 34.5601C52.7041 34.9441 53.5201 34.6081 53.4721 34.2241Z" fill="#3D3D3D"/>
<path d="M56.3521 24.7681L56.3281 23.5201C56.3281 23.5201 53.7121 18.8401 52.1041 18.8881C50.4961 18.9361 50.4961 21.0241 51.2881 22.1521C51.7441 22.8001 52.1521 23.4481 52.5121 24.1441C52.5121 24.1441 42.5281 35.8321 46.8241 36.3361C54.8401 37.3201 56.3521 24.7681 56.3521 24.7681Z" fill="white"/>
<path d="M56.7839 24.6718C56.7839 24.2878 56.7839 23.8798 56.7599 23.4958C56.7359 23.3278 56.6639 23.1598 56.5439 23.0158C56.0399 22.1518 55.4879 21.3358 54.8639 20.5438C54.2879 19.7998 53.5199 18.8158 52.5359 18.6238C51.9359 18.5278 51.3119 18.6958 50.8799 19.1278C50.4959 19.5358 50.2799 20.1118 50.3279 20.6878C50.3519 21.4798 50.6879 22.1038 51.1199 22.7518C51.4799 23.2798 51.7919 23.8078 52.0799 24.3598L52.1279 24.1198C51.0239 25.4158 49.9919 26.7598 48.9839 28.1278C48.1679 29.2318 47.3999 30.3838 46.7039 31.5598C46.1519 32.5438 45.5759 33.5758 45.3599 34.7038C45.2159 35.4478 45.3119 36.2638 46.1039 36.5758C46.7039 36.7918 47.4239 36.7918 48.0479 36.7438C48.7919 36.6958 49.4879 36.5278 50.1839 36.2398C52.7759 35.1358 54.3599 32.5918 55.3439 30.0718C55.7759 28.9918 56.1119 27.8878 56.3519 26.7598C56.5199 26.1358 56.6399 25.4878 56.7119 24.8398C56.7119 24.8158 56.7119 24.7918 56.7119 24.7438C56.7599 24.3358 55.8959 24.5518 55.8479 24.9358C55.6559 26.3518 55.3199 27.7438 54.8639 29.0878C54.0959 31.4158 52.8719 33.9118 50.7839 35.2798C49.6799 35.9758 48.3839 36.2878 47.1119 36.1438C46.9199 36.1438 46.7519 36.0958 46.5839 36.0238C46.4639 35.9758 46.3679 35.9038 46.2959 35.7838C46.3199 35.8318 46.2479 35.7118 46.2239 35.6638C46.1999 35.5918 46.1759 35.5198 46.1519 35.4478C46.1519 35.4718 46.1519 35.4238 46.1519 35.3758C46.1519 35.3278 46.1519 35.3038 46.1519 35.2558C46.1519 35.1598 46.1519 35.0638 46.1519 34.9678C46.2239 34.0558 46.7279 33.0718 47.1839 32.2318C47.8319 31.0798 48.5519 29.9518 49.3199 28.8718C50.4239 27.3358 51.6239 25.8958 52.7759 24.4078L52.8479 24.3358C52.8959 24.2638 52.9199 24.1678 52.8959 24.0958C52.7039 23.7118 52.4879 23.3518 52.2479 22.9918C51.8879 22.4158 51.4319 21.8878 51.2639 21.2158C51.0959 20.7358 51.1199 20.1838 51.3359 19.7278C51.4079 19.5838 51.5279 19.4638 51.6719 19.3918C51.7679 19.3678 51.8639 19.3438 51.9599 19.3438C52.0319 19.3438 52.1039 19.3438 52.1519 19.3678C52.9199 19.5838 53.5919 20.4958 54.0959 21.0958C54.6719 21.8158 55.1999 22.5598 55.6559 23.3518C55.7279 23.4718 55.7759 23.5678 55.8479 23.6878C55.8719 23.7118 55.8719 23.7358 55.8959 23.7598C55.8959 23.6398 55.9199 23.7838 55.8959 23.7598C55.8719 24.1678 55.8719 24.5518 55.9199 24.9598C55.9439 25.2958 56.8079 25.0558 56.7839 24.6718Z" fill="#3D3D3D"/>
<path d="M52.2 20.5197C52.2 20.5197 53.064 22.1037 53.856 21.5997C54.648 21.0957 53.976 19.0077 52.296 18.8877C50.616 18.7677 50.664 20.5437 50.664 20.5437" fill="white"/>
<path d="M51.936 20.4479C52.056 20.6639 52.1761 20.8559 52.3441 21.0479C52.6081 21.4319 52.9681 21.7439 53.4 21.9599C53.712 22.1279 54.096 22.0559 54.336 21.8159C54.504 21.5759 54.5761 21.2639 54.5521 20.9759C54.4801 20.1119 53.8081 19.2959 53.0641 18.8639C52.3921 18.4799 51.36 18.3599 50.808 18.9839C50.496 19.3439 50.3521 19.7999 50.3521 20.2799C50.3761 20.4719 50.4961 20.6399 50.6641 20.7599C50.6881 20.7839 51.0241 21.0239 51.0241 20.8559C51.0241 20.5439 51.072 20.2319 51.216 19.9679C51.528 19.3679 52.1761 19.1759 52.8001 19.2959C52.9681 19.3199 53.136 19.3919 53.2801 19.4639L53.3041 19.4879L53.328 19.5119L53.4241 19.5839C53.3521 19.5359 53.424 19.5839 53.448 19.6079C53.472 19.6319 53.5201 19.6799 53.4721 19.6319C53.4241 19.5839 53.496 19.6559 53.496 19.6559L53.5201 19.7039C53.568 19.7519 53.472 19.6319 53.496 19.6799L53.568 19.7759C53.616 19.8239 53.5441 19.7279 53.5921 19.7999C53.6161 19.8479 53.6401 19.8719 53.6641 19.9199C53.6401 19.8719 53.6881 19.9679 53.6641 19.9199L53.688 19.9679C53.712 20.0159 53.712 20.0399 53.736 20.0879C53.76 20.1359 53.7841 20.2079 53.7841 20.2559C53.9041 20.6639 53.856 21.3839 53.256 21.4079C53.184 21.4079 53.1361 21.4079 53.0641 21.3599C53.1121 21.3839 52.9921 21.3359 52.9921 21.3119C52.9921 21.2879 52.992 21.3119 53.016 21.3119L52.9441 21.2639C52.8961 21.2399 52.992 21.3119 52.968 21.2639L52.896 21.2159C52.944 21.2639 52.8721 21.1919 52.8721 21.1919L52.776 21.0959C52.848 21.1679 52.7761 21.0959 52.7521 21.0719L52.656 20.9759C52.632 20.9519 52.584 20.8559 52.608 20.9279C52.632 20.9999 52.5841 20.8799 52.5841 20.8799C52.5841 20.8799 52.536 20.8319 52.536 20.8079C52.536 20.7839 52.4641 20.7119 52.44 20.6399C52.3441 20.4479 52.176 20.3039 51.96 20.2319C51.7921 20.1359 51.888 20.3519 51.936 20.4479Z" fill="#3D3D3D"/>
<path d="M63.4318 17.4718C63.4318 17.4718 66.3838 17.6398 66.6958 16.3918C67.0078 15.1438 65.1838 15.6958 65.1838 15.6958C65.1838 15.6958 66.9838 13.0078 63.9838 12.9838C63.9838 12.9838 66.1678 10.8238 64.0078 9.40783C61.8478 7.99183 58.1758 9.62383 58.1758 9.62383C58.1758 9.62383 57.9118 7.00783 54.9598 7.75183C52.0078 8.49583 52.9678 9.98383 52.9678 9.98383C52.9678 9.98383 51.0718 10.4398 51.1438 11.3518C51.2158 12.2638 52.7038 12.4078 52.7038 12.4078C52.7038 12.4078 53.6158 14.9038 56.1598 14.1598L59.1358 17.0158C58.7278 17.8078 58.8958 18.7918 59.5438 19.3918C60.6958 20.4478 63.8158 19.1038 63.4318 17.4718Z" fill="#3D3D3D"/>
<path d="M63.6239 17.8079C64.4639 17.8799 65.3279 17.7839 66.1439 17.5199C66.6239 17.3279 67.0319 17.0159 67.0799 16.4879C67.1039 15.8879 66.6719 15.3599 66.0959 15.2399C65.7119 15.1919 65.3279 15.2159 64.9679 15.3359L65.5199 16.0319C65.8559 15.5519 66.0479 14.9999 66.0959 14.4239C66.0959 13.9439 65.8799 13.4639 65.4959 13.1519C65.0159 12.7199 64.3919 12.6239 63.7679 12.6239L64.3199 13.3199C64.6559 12.9839 64.9199 12.5759 65.1119 12.1439C65.4719 11.3519 65.3519 10.4399 64.7759 9.79195C63.4799 8.23195 61.2719 8.30395 59.4719 8.75995C58.9439 8.87995 58.4399 9.04795 57.9359 9.26395L58.5359 9.83995C58.4159 8.80795 57.7679 7.91995 56.8319 7.48795C55.9439 7.10395 54.9359 7.29595 54.0719 7.60795C53.4479 7.84795 52.7039 8.23195 52.5359 8.92795C52.4639 9.31195 52.5599 9.69595 52.7759 10.0079L52.7279 9.62395C52.0559 9.79195 50.8559 10.1999 50.8319 11.0159C50.8079 12.0479 52.0559 12.6479 52.9199 12.7439L52.4159 12.2399C52.6319 12.8159 52.9919 13.3199 53.4479 13.7519C54.2399 14.5199 55.3919 14.8079 56.4479 14.4719L56.1359 14.3279L59.1119 17.1839L58.8479 16.6799C58.2479 17.7599 58.8479 19.1759 59.8559 19.7999C60.8639 20.4239 62.3039 19.9919 63.1439 19.2719C63.5999 18.8639 63.9119 18.2879 63.7919 17.6639C63.7439 17.4479 63.5999 17.2799 63.4319 17.1599C63.3359 17.1119 63.0959 17.0159 63.1199 17.2079C63.3599 18.4799 61.7039 19.2719 60.6719 19.3679C60.0479 19.4159 59.4959 19.2479 59.3279 18.5999C59.2079 18.1439 59.2799 17.6639 59.4959 17.2559C59.5919 17.1119 59.3039 16.8239 59.2319 16.7519L56.8559 14.4719L56.3519 13.9919C56.3279 13.9679 56.3039 13.9439 56.2559 13.9199C56.0399 13.7519 55.9439 13.7759 55.6799 13.8479C54.9359 14.0159 54.1439 13.8959 53.5919 13.3679C53.4239 13.1999 53.2799 13.0079 53.1839 12.8159L53.1119 12.6719C53.0879 12.6239 53.0399 12.5279 53.0879 12.6239L53.0399 12.5279C52.9679 12.3359 52.7519 12.0479 52.5359 12.0239C52.2959 11.9999 52.0559 11.9519 51.8399 11.8559C51.5519 11.7359 51.3839 11.5679 51.5999 11.2319C51.9119 10.7039 52.7039 10.4399 53.2559 10.3199C53.4479 10.2719 53.2559 10.0079 53.2079 9.93595C53.3279 10.1039 53.2559 10.0079 53.2319 9.98395C53.2079 9.95995 53.2079 9.88795 53.2319 10.0079C53.2319 9.98395 53.2079 9.95995 53.2079 9.93595C53.1839 9.83995 53.1839 9.93595 53.1839 9.81595C53.1839 9.74395 53.1839 9.67195 53.1839 9.59995C53.2319 9.07195 53.7359 8.71195 54.1679 8.49595C54.9119 8.13595 55.8959 7.84795 56.7359 8.03995C56.9519 8.08795 57.1679 8.18395 57.3599 8.32795C57.4079 8.37595 57.4559 8.42395 57.4799 8.47195C57.5279 8.54395 57.5759 8.61595 57.6239 8.71195C57.7439 8.92795 57.8159 9.16795 57.8399 9.40795C57.8639 9.57595 58.1999 10.0799 58.4159 9.98395C59.4239 9.52795 60.5039 9.26395 61.6079 9.19195C62.4239 9.14395 63.3119 9.21595 64.0079 9.67195C64.7039 10.1279 64.7519 10.7759 64.4639 11.4719C64.2959 11.9279 64.0079 12.3119 63.6719 12.6479C63.4559 12.8639 64.0319 13.3199 64.2239 13.3439C64.5119 13.3439 64.7759 13.3679 65.0639 13.4639C65.1359 13.4879 65.2079 13.5119 65.2799 13.5599C65.3519 13.6079 65.3279 13.5839 65.3039 13.5599C65.3279 13.5839 65.3279 13.6079 65.3519 13.6319C65.3759 13.7039 65.3759 13.7519 65.3759 13.8239C65.3759 13.9679 65.3759 14.1119 65.3519 14.2319C65.2559 14.6399 65.0879 15.0239 64.8719 15.3599C64.7279 15.5759 65.1839 16.1279 65.4239 16.0559C65.7359 15.9359 66.0959 15.9119 66.4319 15.9599C66.4319 15.9599 66.5519 15.9839 66.5519 16.0079C66.5039 15.9839 66.4799 15.9599 66.4559 15.9359C66.3599 15.7919 66.3359 15.7439 66.3839 15.8399C66.3359 15.9119 66.3839 16.0799 66.3359 16.1759C66.2399 16.4159 66.0719 16.6079 65.8559 16.7039C65.3279 16.9679 64.7759 17.1119 64.1999 17.1119C63.9599 17.1359 63.7199 17.1359 63.5039 17.1359H63.2639H63.2159C62.8799 17.0879 63.3839 17.8079 63.6239 17.8079Z" fill="#3D3D3D"/>
<path d="M53.3519 21.0236C51.4559 18.9596 52.9919 12.8156 52.9919 12.8156C55.1039 13.0076 58.2239 10.5596 58.2239 10.5596C57.4319 12.5996 59.6399 15.9836 59.6399 15.9836C60.3119 14.1356 62.1839 14.0156 62.1839 15.7676C62.1839 17.5196 60.5279 17.8316 60.5279 17.8316C60.5279 17.8316 61.3919 20.7596 61.2959 21.4556C61.1999 22.1516 57.7679 25.8236 56.3999 22.5596C56.3759 22.5596 55.0079 22.8236 53.3519 21.0236Z" fill="white"/>
<path d="M53.7599 20.9759C52.9199 20.0399 52.8479 18.5519 52.8479 17.3519C52.8719 16.1279 53.0159 14.9039 53.2559 13.6799C53.3039 13.4159 53.3519 13.1519 53.4239 12.9119L53.0639 13.0799C54.3359 13.1759 55.5839 12.6239 56.6639 12.0239C57.3359 11.6639 57.9839 11.2319 58.5839 10.7759L57.7679 10.5119C57.3359 11.6639 57.7439 12.9839 58.1759 14.0639C58.4639 14.7599 58.7999 15.4319 59.2079 16.0559C59.3519 16.2719 59.9519 16.3679 60.0479 16.0799C60.2399 15.5519 60.6479 14.9039 61.2719 14.8079C61.2959 14.8079 61.3199 14.8079 61.3679 14.8079C61.2719 14.8079 61.3679 14.8319 61.3439 14.8079C61.4159 14.8559 61.4879 14.9279 61.5359 14.9999C61.6799 15.2639 61.7519 15.5519 61.7279 15.8639C61.7039 16.4399 61.4159 16.9679 60.9599 17.3039C60.8159 17.3999 60.6479 17.4959 60.4799 17.5439L60.3119 17.5919C60.2399 17.6159 60.2399 17.6159 60.3359 17.5919C60.2399 17.6159 60.0479 17.6639 60.0959 17.8079C60.2399 18.2879 60.3839 18.7919 60.5039 19.2959C60.5999 19.6799 60.6959 20.0639 60.7679 20.4719C60.8399 20.7599 60.8639 21.0479 60.8639 21.3359C60.8159 21.7199 60.3599 22.1759 60.0719 22.4639C59.6159 22.9679 59.0399 23.3519 58.3919 23.5919C58.2719 23.6399 58.1279 23.6639 57.9839 23.6639C57.8639 23.6639 57.7439 23.6399 57.6479 23.5919C57.2639 23.3999 57.0239 22.9679 56.8559 22.5839C56.7119 22.3919 56.4479 22.2959 56.2079 22.3439H56.1599C56.0399 22.3439 56.2559 22.3439 56.0879 22.3439C55.9439 22.3439 55.7999 22.3199 55.6559 22.2719C54.9119 22.0559 54.2879 21.5279 53.7599 20.9759C53.5919 20.8319 53.3759 20.7599 53.1599 20.7839C53.0399 20.8079 52.7999 20.9279 52.9439 21.0719C53.5919 21.8159 54.4079 22.3679 55.3199 22.6559C55.7279 22.7999 56.1359 22.8239 56.5679 22.7759L55.9439 22.5359C56.3279 23.4239 56.9999 24.0959 58.0079 24.1439C58.8239 24.1919 59.5919 23.7839 60.2399 23.3039C60.7919 22.8959 61.2719 22.3919 61.6079 21.8159C61.8959 21.2639 61.6319 20.5199 61.5119 19.9439C61.3439 19.2479 61.1759 18.5519 60.9599 17.8559L60.7199 18.0959C61.5359 17.9519 62.2319 17.3519 62.4959 16.5599C62.6879 15.9839 62.6639 15.2159 62.2559 14.7599C61.8239 14.3279 61.1999 14.1839 60.6239 14.3519C59.9039 14.5679 59.4239 15.2159 59.1839 15.8879L60.0239 15.9119C59.6399 15.3119 59.3279 14.6879 59.0639 14.0399C58.6319 12.9839 58.2479 11.7359 58.6559 10.6319C58.7759 10.3439 58.0079 10.2479 57.8399 10.3679C57.2879 10.7999 56.7119 11.1839 56.0879 11.5199C55.1519 12.0719 53.9999 12.6479 52.8719 12.5519C52.7519 12.5519 52.5359 12.5759 52.5119 12.7199C52.3199 13.4639 52.1999 14.2079 52.1039 14.9759C51.9119 16.3679 51.8159 17.8079 52.0799 19.1999C52.1759 19.8959 52.4639 20.5199 52.9199 21.0719C53.0879 21.2159 53.3039 21.2879 53.5199 21.2639C53.6639 21.2399 53.9039 21.1439 53.7599 20.9759Z" fill="#3D3D3D"/>
<path d="M55.6321 15.6478C55.6561 15.8158 55.5601 15.9598 55.3921 16.0078C55.3681 16.0078 55.3681 16.0078 55.3441 16.0078C55.0081 16.0318 54.9841 15.6238 55.2481 15.5278C55.3681 15.4558 55.5121 15.4798 55.5841 15.5998C55.6321 15.5998 55.6321 15.6238 55.6321 15.6478Z" fill="#3D3D3D"/>
<path d="M53.7359 15.7679C53.7599 15.9359 53.6639 16.0799 53.4959 16.1279C53.4719 16.1279 53.4719 16.1279 53.4479 16.1279C53.1119 16.1519 53.0879 15.7439 53.3519 15.6479C53.4719 15.5759 53.6159 15.5999 53.6879 15.7199C53.7359 15.7439 53.7359 15.7679 53.7359 15.7679Z" fill="#3D3D3D"/>
<path d="M55.6799 19.2238C55.6799 19.2238 52.3439 21.7438 50.6639 20.2318C48.9839 18.7198 51.0719 16.3678 53.9759 16.8238" fill="white"/>
<path d="M55.32 18.9596C54.408 19.6556 53.28 20.2556 52.128 20.4236C51.744 20.4956 51.36 20.4716 51 20.3516C50.904 20.3276 50.832 20.2796 50.736 20.2316C50.616 20.1836 50.76 20.1116 50.88 20.3516C50.856 20.3276 50.832 20.2796 50.784 20.2556C50.664 20.1116 50.568 19.9436 50.496 19.7756C50.232 19.0556 50.64 18.3356 51.192 17.8796C52.056 17.1596 53.232 16.9676 54.312 17.1356C54.384 17.1356 54.12 16.9196 54.096 16.8956C53.976 16.7996 53.784 16.6076 53.64 16.5836C52.584 16.4396 51.432 16.6076 50.568 17.2556C49.944 17.7356 49.488 18.5276 49.824 19.3196C50.04 19.7516 50.352 20.1356 50.76 20.3996C51.12 20.7116 51.552 20.9036 52.008 20.9996C52.872 21.1196 53.76 20.8076 54.528 20.4476C55.056 20.1836 55.56 19.8956 56.04 19.5356C56.016 19.5356 55.44 18.8636 55.32 18.9596Z" fill="#3D3D3D"/>
<path d="M57.4799 19.0797L58.0319 18.8637C58.0799 18.8637 58.1039 18.8397 58.1279 18.8157C58.1519 18.7917 58.1759 18.7437 58.1759 18.7197C58.1759 18.6717 58.1759 18.6237 58.1759 18.5757C58.1759 18.5277 58.1519 18.4797 58.1279 18.4317C58.0799 18.3357 58.0079 18.2397 57.9119 18.1677L57.8159 18.1197C57.7679 18.0957 57.7199 18.0957 57.6479 18.0957L57.0959 18.3117C57.0479 18.3117 57.0239 18.3357 56.9999 18.3597C56.9759 18.3837 56.9519 18.4317 56.9519 18.4557C56.9519 18.5037 56.9519 18.5517 56.9519 18.5997C56.9519 18.6477 56.9759 18.6957 56.9999 18.7437C57.0479 18.8397 57.1199 18.9357 57.2159 19.0077L57.3119 19.0557C57.3839 19.0797 57.4319 19.1037 57.4799 19.0797Z" fill="#3D3D3D"/>
<path d="M61.2478 29.232C61.2478 29.232 59.2078 25.272 59.5918 23.376C59.7598 22.296 60.5758 21.456 61.6318 21.24C61.6318 21.24 60.6478 19.536 62.2798 18.984C63.9118 18.432 64.8958 19.992 64.8958 19.992C64.8958 19.992 65.9518 19.296 66.0958 20.64C66.0958 20.64 67.3198 20.472 67.2958 21.936C67.2718 23.4 66.4558 25.032 65.3518 25.464C65.3518 25.464 75.3118 33.696 70.3198 36.288C66.8158 38.064 61.2478 29.232 61.2478 29.232Z" fill="white"/>
<path d="M61.6559 29.0401C61.1759 28.1281 60.7919 27.1921 60.4559 26.2081C59.9999 24.8641 59.5199 23.1121 60.6479 21.9361C60.7439 21.8401 60.8639 21.7441 60.9839 21.6721C61.0319 21.6481 61.0799 21.6001 61.1279 21.5761C61.1519 21.5521 61.2959 21.5041 61.1999 21.5281L61.3679 21.4801C61.4399 21.4561 61.2959 21.5041 61.3919 21.4801C61.4159 21.4801 61.4639 21.4561 61.4879 21.4561C61.6079 21.4321 62.1359 21.2161 62.0399 21.0241C61.7519 20.4961 61.4879 19.4641 62.2079 19.1761C63.0479 18.8401 64.0319 19.4401 64.4879 20.1601C64.5839 20.3281 64.9679 20.1361 65.0879 20.0641C65.2079 19.9921 64.9919 20.0881 65.1359 20.0401C65.0159 20.0641 65.1839 20.0401 65.1359 20.0401C65.1839 20.0161 65.1839 20.0161 65.2559 20.0161C65.5919 20.0641 65.6879 20.4961 65.7119 20.7841C65.7119 20.8321 65.8559 20.8561 65.8799 20.8321C66.0479 20.8081 66.2159 20.8321 66.3599 20.9041C66.7919 21.0961 66.9119 21.5761 66.9119 22.0081C66.8879 22.6801 66.7439 23.3281 66.4559 23.9281C66.2399 24.3841 65.9039 24.9601 65.3999 25.1761C65.3039 25.2241 64.7999 25.4641 64.9919 25.6081C65.8799 26.3521 66.7199 27.1441 67.5359 27.9841C68.9039 29.3761 70.3199 30.9841 71.0159 32.8321C71.2799 33.5281 71.4479 34.3201 71.1599 35.0401C71.0159 35.3761 70.7999 35.6641 70.5119 35.8561C70.2719 36.0721 69.9599 36.1921 69.6239 36.1921C68.7119 36.2401 67.8479 35.7361 67.1279 35.2321C66.2159 34.5601 65.3759 33.7921 64.6319 32.9521C63.5519 31.7281 62.5679 30.4321 61.6799 29.0641C61.6799 29.0881 61.6799 29.0641 61.6559 29.0401C61.5119 28.8001 60.7199 29.2321 60.8399 29.4241C61.6319 30.6721 62.5199 31.8481 63.4799 32.9761C64.2479 33.8881 65.0879 34.7281 66.0239 35.4721C66.7919 36.0721 67.7279 36.6481 68.7119 36.7441C69.7439 36.8161 70.7519 36.4081 71.4479 35.6401C71.9999 35.0401 72.2159 34.2481 72.0719 33.4561C71.9279 32.5201 71.4719 31.6561 70.9439 30.8641C70.3439 29.9761 69.6959 29.1121 68.9519 28.3201C68.3039 27.6241 67.6319 26.9281 66.9359 26.2801C66.5759 25.8961 66.1679 25.5361 65.7599 25.2241L65.7119 25.1761L65.3039 25.6081C66.7679 25.0081 67.6079 23.4481 67.7039 21.9121C67.7279 21.3601 67.6559 20.7601 67.1039 20.4721C66.8639 20.3521 66.5759 20.3041 66.3119 20.3281L66.4799 20.3761C66.4079 19.8721 66.1679 19.4641 65.6399 19.4881C65.3039 19.5121 64.9679 19.6321 64.7039 19.8241L65.3039 19.7281C64.8719 19.0321 64.1279 18.6001 63.3359 18.5521C62.2079 18.5041 60.7919 19.2241 60.9599 20.5201C61.0079 20.8081 61.1039 21.1201 61.2479 21.3841L61.7999 20.9521C60.4799 21.1921 59.4479 22.2241 59.1839 23.5681C59.0639 24.3121 59.2319 25.1041 59.4239 25.8001C59.6399 26.5921 59.9279 27.3601 60.2639 28.1281C60.4559 28.5601 60.6479 28.9921 60.8639 29.4001C60.9599 29.6641 61.7759 29.2561 61.6559 29.0401Z" fill="#3D3D3D"/>
<path d="M62.3038 20.7361L62.3758 20.6881C62.3518 20.7121 62.3038 20.7361 62.2798 20.7601L62.1838 20.8081L62.1358 20.8321L62.1118 20.8561C62.0878 20.8801 62.2078 20.8081 62.1598 20.8321L62.0158 20.9041L61.9198 20.9281C61.8478 20.9521 61.8958 20.9281 61.9198 20.9281C61.9438 20.9281 61.9918 20.9041 61.9198 20.9281C61.8718 20.9521 61.7998 20.9521 61.7278 20.9761C61.7758 20.9761 61.8958 20.9521 61.7278 20.9761H61.6318C61.5118 20.9761 61.4158 21.0001 61.3198 21.0721C61.2718 21.1201 61.1758 21.1921 61.1998 21.2641C61.2238 21.4561 61.5118 21.4801 61.6558 21.4801C62.1838 21.4801 62.6878 21.2881 63.0958 20.9521C63.1438 20.9041 63.1678 20.8321 63.1198 20.7601C63.0718 20.6881 62.9998 20.6401 62.9038 20.6161C62.7118 20.5441 62.4718 20.5921 62.3038 20.7361Z" fill="#3D3D3D"/>
<path d="M66.5281 21.4556C66.5521 21.3356 66.5761 21.2156 66.6001 21.1196C66.6241 20.8316 66.5521 20.5436 66.4321 20.2796C66.3841 20.1836 66.2881 20.1356 66.1921 20.0876C66.0721 20.0396 65.9521 20.0396 65.8561 20.0636C65.7601 20.0876 65.6641 20.1356 65.6161 20.2076C65.5681 20.2796 65.5681 20.3756 65.6161 20.4476C65.6401 20.4956 65.6641 20.5436 65.6881 20.5916L65.6641 20.5196C65.7121 20.6396 65.7361 20.7836 65.7361 20.9276V20.8316C65.7361 20.9996 65.7121 21.1676 65.6641 21.3116C65.6401 21.3836 65.7121 21.5036 65.7601 21.5516C65.8321 21.6236 65.9521 21.6716 66.0481 21.6956C66.1681 21.7196 66.2641 21.6956 66.3841 21.6476L66.4561 21.5996C66.4801 21.5756 66.5041 21.5276 66.5281 21.4556Z" fill="#3D3D3D"/>
<path d="M65.2321 20.9279C65.2801 20.8319 65.3281 20.7119 65.3281 20.6159C65.3521 20.3039 65.2561 19.9919 65.0881 19.7519C65.0161 19.6559 64.9441 19.5599 64.8241 19.5119C64.7281 19.4639 64.6321 19.4399 64.5361 19.4399C64.4641 19.4399 64.3921 19.4879 64.3921 19.5599C64.3921 19.6559 64.4161 19.7279 64.4641 19.7999L64.4881 19.8479L64.4401 19.7519C64.4881 19.8239 64.5121 19.9199 64.5361 19.9919L64.5121 19.9199C64.5361 20.0159 64.5601 20.1119 64.5601 20.2079V20.1359C64.5601 20.2319 64.5361 20.3279 64.5121 20.4239L64.5361 20.3519L64.5121 20.3759C64.4161 20.5439 64.5841 20.7599 64.7281 20.8559C64.8241 20.9279 64.9201 20.9759 65.0161 20.9999C65.0881 20.9759 65.1841 20.9759 65.2321 20.9279Z" fill="#3D3D3D"/>
</svg>
