<svg width="16" height="17" viewBox="0 0 16 17" fill="none" xmlns="http://www.w3.org/2000/svg">
<path fill-rule="evenodd" clip-rule="evenodd" d="M5.9987 14.8333C5.9987 14.4651 6.29717 14.1667 6.66536 14.1667H9.33203C9.70022 14.1667 9.9987 14.4651 9.9987 14.8333C9.9987 15.2015 9.70022 15.5 9.33203 15.5H6.66536C6.29717 15.5 5.9987 15.2015 5.9987 14.8333Z" fill="black"/>
<path fill-rule="evenodd" clip-rule="evenodd" d="M7.9987 1.5C4.86908 1.5 2.33203 4.03705 2.33203 7.16667C2.33203 9.26233 3.46999 11.0914 5.15849 12.0711C5.5945 12.3241 5.83203 12.6966 5.83203 13.0389V13.1667C5.83203 13.5349 6.13051 13.8333 6.4987 13.8333H9.4987C9.86689 13.8333 10.1654 13.5349 10.1654 13.1667V13.0389C10.1654 12.6966 10.4029 12.3241 10.8389 12.0711C12.5274 11.0914 13.6654 9.26233 13.6654 7.16667C13.6654 4.03705 11.1283 1.5 7.9987 1.5ZM6.9987 7.5C6.63051 7.5 6.33203 7.79848 6.33203 8.16667C6.33203 8.53486 6.63051 8.83333 6.9987 8.83333H7.33203V11.8333C7.33203 12.2015 7.63051 12.5 7.9987 12.5C8.36689 12.5 8.66536 12.2015 8.66536 11.8333L8.66537 8.83333H8.9987C9.36689 8.83333 9.66536 8.53486 9.66536 8.16667C9.66536 7.79848 9.36634 7.5 8.99815 7.5H6.9987Z" fill="#FFCC00"/>
</svg>
