<svg width="16" height="16" viewBox="0 0 16 16" fill="currentColor" xmlns="http://www.w3.org/2000/svg">
<path d="M3.99976 9L3.99976 2.5M3.99976 9C4.55204 9 4.99976 9.44772 4.99976 10C4.99976 10.5523 4.55204 11 3.99976 11M3.99976 9C3.44747 9 2.99976 9.44772 2.99976 10C2.99976 10.5523 3.44747 11 3.99976 11M3.99976 13.5L3.99976 11M11.9998 9V2.5M11.9998 9C12.552 9 12.9998 9.44772 12.9998 10C12.9998 10.5523 12.552 11 11.9998 11M11.9998 9C11.4475 9 10.9998 9.44772 10.9998 10C10.9998 10.5523 11.4475 11 11.9998 11M11.9998 13.5L11.9998 11M7.99976 5V2.5M7.99976 5C8.55204 5 8.99976 5.44772 8.99976 6C8.99976 6.55228 8.55204 7 7.99976 7M7.99976 5C7.44747 5 6.99976 5.44772 6.99976 6C6.99976 6.55228 7.44747 7 7.99976 7M7.99976 13.5V7" stroke="currentColor" stroke-width="1.46667" stroke-linecap="round" stroke-linejoin="round"/>
</svg>
