<svg width="24" height="24" viewBox="0 0 24 24" fill="currentColor" xmlns="http://www.w3.org/2000/svg">
<path fill-rule="evenodd" clip-rule="evenodd" d="M21.0278 2.97221C21.4574 3.40178 21.4574 4.09827 21.0278 4.52784L16.6557 8.90002H18.5C19.1075 8.90002 19.6 9.39251 19.6 10C19.6 10.6075 19.1075 11.1 18.5 11.1H14C13.3925 11.1 12.9 10.6075 12.9 10V5.50002C12.9 4.89251 13.3925 4.40002 14 4.40002C14.6075 4.40002 15.1 4.89251 15.1 5.50002V7.34439L19.4722 2.97221C19.9018 2.54263 20.5983 2.54263 21.0278 2.97221ZM4.40002 14C4.40003 13.3925 4.89251 12.9 5.50003 12.9L10 12.9C10.6075 12.9 11.1 13.3925 11.1 14L11.1 18.5C11.1 19.1075 10.6075 19.6 10 19.6C9.39251 19.6 8.90002 19.1075 8.90002 18.5V16.6557L4.52784 21.0278C4.09827 21.4574 3.40178 21.4574 2.97221 21.0278C2.54263 20.5983 2.54263 19.9018 2.97221 19.4722L7.34439 15.1H5.50002C4.89251 15.1 4.40002 14.6075 4.40002 14Z" />
</svg>
