<svg width="24" height="24" viewBox="0 0 24 24" fill="currentColor" xmlns="http://www.w3.org/2000/svg">
<path d="M2.9999 5C2.9999 4.44772 3.44762 4 3.9999 4H19.9999C20.5522 4 20.9999 4.44772 20.9999 5C20.9999 5.55228 20.5522 6 19.9999 6H3.9999C3.44762 6 2.9999 5.55228 2.9999 5Z"  />
<path d="M2.8999 12C2.8999 11.3925 3.39239 10.9 3.9999 10.9H19.9999C20.6074 10.9 21.0999 11.3925 21.0999 12C21.0999 12.6075 20.6074 13.1 19.9999 13.1H3.9999C3.39239 13.1 2.8999 12.6075 2.8999 12Z"  />
<path d="M3.9999 17.9C3.39239 17.9 2.8999 18.3925 2.8999 19C2.8999 19.6075 3.39239 20.1 3.9999 20.1H19.9999C20.6074 20.1 21.0999 19.6075 21.0999 19C21.0999 18.3925 20.6074 17.9 19.9999 17.9H3.9999Z"  />
</svg>
