<svg width="24" height="24" viewBox="0 0 24 24" fill="currentColor" xmlns="http://www.w3.org/2000/svg">
<path fill-rule="evenodd" clip-rule="evenodd" d="M11.9999 1.40002C6.14568 1.40002 1.3999 6.14581 1.3999 12C1.3999 17.8542 6.14568 22.6 11.9999 22.6C17.8541 22.6 22.5999 17.8542 22.5999 12C22.5999 6.14581 17.8541 1.40002 11.9999 1.40002ZM3.6001 12C3.6001 7.36085 7.36091 3.60004 12.0001 3.60004C13.9231 3.60004 15.6953 4.24625 17.1111 5.33337L5.33343 17.1111C4.24631 15.6952 3.6001 13.9231 3.6001 12ZM20.4001 12C20.4001 16.6392 16.6393 20.4 12.0001 20.4C10.0771 20.4 8.30494 19.7538 6.88906 18.6667L18.6668 6.889C19.7539 8.30488 20.4001 10.077 20.4001 12Z"  />
</svg>
