<svg width="24" height="24" viewBox="0 0 24 24" fill="currentColor" xmlns="http://www.w3.org/2000/svg">
<path fill-rule="evenodd" clip-rule="evenodd" d="M12 1.5C6.20101 1.5 1.5 6.20101 1.5 12C1.5 17.799 6.20101 22.5 12 22.5C17.799 22.5 22.5 17.799 22.5 12C22.5 6.20101 17.799 1.5 12 1.5ZM17.3222 7.92216C17.7518 7.49258 18.4483 7.49258 18.8779 7.92216C19.3074 8.35173 19.3074 9.04821 18.8779 9.47779L11.3779 16.9778C11.1716 17.1841 10.8918 17.3 10.6 17.3C10.3083 17.3 10.0285 17.1841 9.82222 16.9778L5.32218 12.4778C4.89261 12.0482 4.89261 11.3517 5.32218 10.9222C5.75176 10.4926 6.44824 10.4926 6.87782 10.9222L10.6 14.6444L17.3222 7.92216Z"  />
</svg>
