<svg width="24" height="24" viewBox="0 0 24 24" fill="currentColor" xmlns="http://www.w3.org/2000/svg">
<path d="M3.506 5.26077C1.70959 7.05718 1.70959 9.96974 3.506 11.7662L5.71303 13.9732C6.14261 14.4028 6.83909 14.4028 7.26867 13.9732C7.69824 13.5436 7.69825 12.8471 7.26867 12.4175L5.06164 10.2105C4.12438 9.27326 4.12438 7.75366 5.06164 6.8164L6.8164 5.06163C7.75366 4.12438 9.27326 4.12438 10.2105 5.06164L12.4175 7.26867C12.8471 7.69825 13.5436 7.69825 13.9732 7.26867C14.4028 6.83909 14.4028 6.14261 13.9732 5.71303L11.7662 3.506C9.96974 1.70959 7.05718 1.70959 5.26077 3.506L3.506 5.26077Z"  />
<path d="M11.5113 16.6602C11.0817 16.2306 10.3853 16.2306 9.95567 16.6602C9.5261 17.0898 9.5261 17.7862 9.95567 18.2158L11.9911 20.2513C13.7875 22.0477 16.7001 22.0477 18.4965 20.2513L20.2513 18.4965C22.0477 16.7001 22.0477 13.7875 20.2513 11.9911L18.2158 9.95567C17.7862 9.5261 17.0898 9.5261 16.6602 9.95567C16.2306 10.3853 16.2306 11.0817 16.6602 11.5113L18.6956 13.5468C19.6329 14.484 19.6329 16.0036 18.6956 16.9409L16.9409 18.6956C16.0036 19.6329 14.484 19.6329 13.5468 18.6956L11.5113 16.6602Z"  />
<path d="M11.4138 9.68647C10.9842 9.2569 10.2878 9.2569 9.85819 9.68647C9.42861 10.1161 9.42861 10.8125 9.85819 11.2421L12.6866 14.0705C13.1162 14.5001 13.8127 14.5001 14.2423 14.0705C14.6718 13.641 14.6718 12.9445 14.2423 12.5149L11.4138 9.68647Z"  />
</svg>
