<svg width="24" height="24" viewBox="0 0 24 24" fill="currentColor" xmlns="http://www.w3.org/2000/svg">
<path d="M3.22208 3.22221C3.65166 2.79263 4.34814 2.79263 4.77772 3.22221L11.9999 10.4444L19.2221 3.22221C19.6517 2.79263 20.3481 2.79263 20.7777 3.22221C21.2073 3.65178 21.2073 4.34827 20.7777 4.77784L13.5555 12L20.7777 19.2222C21.2073 19.6518 21.2073 20.3483 20.7777 20.7778C20.3481 21.2074 19.6517 21.2074 19.2221 20.7778L11.9999 13.5557L4.77772 20.7778C4.34814 21.2074 3.65166 21.2074 3.22208 20.7778C2.79251 20.3483 2.79251 19.6518 3.22208 19.2222L10.4443 12L3.22208 4.77784C2.79251 4.34827 2.79251 3.65178 3.22208 3.22221Z"  />
</svg>
