<svg width="24" height="24" viewBox="0 0 24 24" fill="currentColor" xmlns="http://www.w3.org/2000/svg">
<path fill-rule="evenodd" clip-rule="evenodd" d="M6 1L18 1C18.5523 1 19 1.44772 19 2C19 2.55228 18.5523 3 18 3H6C5.44772 3 5 2.55228 5 2C5 1.44772 5.44772 1 6 1ZM12 4C12.5523 4 13 4.44772 13 5V7.58579L14.2929 6.29289C14.6834 5.90237 15.3166 5.90237 15.7071 6.29289C16.0976 6.68342 16.0976 7.31658 15.7071 7.70711L12.7071 10.7071C12.3166 11.0976 11.6834 11.0976 11.2929 10.7071L8.29289 7.70711C7.90237 7.31658 7.90237 6.68342 8.29289 6.29289C8.68342 5.90237 9.31658 5.90237 9.70711 6.29289L11 7.58579V5C11 4.44772 11.4477 4 12 4ZM8.29289 16.2929L11.2929 13.2929C11.6834 12.9024 12.3166 12.9024 12.7071 13.2929L15.7071 16.2929C16.0976 16.6834 16.0976 17.3166 15.7071 17.7071C15.3166 18.0976 14.6834 18.0976 14.2929 17.7071L13 16.4142V19C13 19.5523 12.5523 20 12 20C11.4477 20 11 19.5523 11 19V16.4142L9.70711 17.7071C9.31658 18.0976 8.68342 18.0976 8.29289 17.7071C7.90237 17.3166 7.90237 16.6834 8.29289 16.2929ZM5 22C5 21.4477 5.44772 21 6 21H18C18.5523 21 19 21.4477 19 22C19 22.5523 18.5523 23 18 23H6C5.44772 23 5 22.5523 5 22Z" />
</svg>
