<svg width="24" height="24" viewBox="0 0 24 24" fill="currentColor" xmlns="http://www.w3.org/2000/svg">
<path d="M6.5 13.5C7.32843 13.5 8 12.8284 8 12C8 11.1716 7.32843 10.5 6.5 10.5C5.67157 10.5 5 11.1716 5 12C5 12.8284 5.67157 13.5 6.5 13.5Z"  />
<path d="M13.5 12C13.5 12.8284 12.8284 13.5 12 13.5C11.1716 13.5 10.5 12.8284 10.5 12C10.5 11.1716 11.1716 10.5 12 10.5C12.8284 10.5 13.5 11.1716 13.5 12Z"  />
<path d="M17.5 13.5C18.3284 13.5 19 12.8284 19 12C19 11.1716 18.3284 10.5 17.5 10.5C16.6716 10.5 16 11.1716 16 12C16 12.8284 16.6716 13.5 17.5 13.5Z"  />
</svg>
