<svg width="24" height="24" viewBox="0 0 24 24" fill="currentColor" xmlns="http://www.w3.org/2000/svg">
<path d="M13.0999 4.00002C13.0999 3.39251 12.6074 2.90002 11.9999 2.90002C11.3924 2.90002 10.8999 3.39251 10.8999 4.00002L10.8999 12.1084L9.21578 10.6648C8.75452 10.2695 8.06009 10.3229 7.66472 10.7842C7.26936 11.2454 7.32278 11.9398 7.78404 12.3352L11.284 15.3352C11.696 15.6883 12.3038 15.6883 12.7158 15.3352L16.2158 12.3352C16.677 11.9398 16.7305 11.2454 16.3351 10.7842C15.9397 10.3229 15.2453 10.2695 14.784 10.6648L13.0999 12.1084V4.00002Z"  />
<path d="M3.9999 12.9C4.60742 12.9 5.0999 13.3925 5.0999 14V18C5.0999 18.4971 5.50285 18.9 5.9999 18.9H17.9999C18.497 18.9 18.8999 18.4971 18.8999 18V14C18.8999 13.3925 19.3924 12.9 19.9999 12.9C20.6074 12.9 21.0999 13.3925 21.0999 14V18C21.0999 19.7121 19.712 21.1 17.9999 21.1H5.9999C4.28782 21.1 2.8999 19.7121 2.8999 18V14C2.8999 13.3925 3.39239 12.9 3.9999 12.9Z"  />
</svg>
