<svg width="24" height="24" viewBox="0 0 24 24" fill="currentColor" xmlns="http://www.w3.org/2000/svg">
<path d="M6.77772 3.72218C7.2073 4.15175 7.2073 4.84823 6.77772 5.27781L5.65554 6.39999H19.9999C20.6074 6.39999 21.0999 6.89248 21.0999 7.49999C21.0999 8.10751 20.6074 8.59999 19.9999 8.59999H5.65554L6.77772 9.72218C7.2073 10.1518 7.2073 10.8482 6.77772 11.2778C6.34814 11.7074 5.65166 11.7074 5.22208 11.2778L2.22208 8.27781C1.79251 7.84824 1.79251 7.15175 2.22208 6.72218L5.22208 3.72218C5.65166 3.2926 6.34814 3.2926 6.77772 3.72218Z"  />
<path d="M17.2221 12.7222C17.6517 12.2926 18.3481 12.2926 18.7777 12.7222L21.7777 15.7222C22.2073 16.1518 22.2073 16.8482 21.7777 17.2778L18.7777 20.2778C18.3481 20.7074 17.6517 20.7074 17.2221 20.2778C16.7925 19.8482 16.7925 19.1518 17.2221 18.7222L18.3443 17.6H3.9999C3.39239 17.6 2.8999 17.1075 2.8999 16.5C2.8999 15.8925 3.39239 15.4 3.9999 15.4H18.3443L17.2221 14.2778C16.7925 13.8482 16.7925 13.1518 17.2221 12.7222Z"  />
</svg>
