<svg width="24" height="24" viewBox="0 0 24 24" fill="currentColor" xmlns="http://www.w3.org/2000/svg">
<path fill-rule="evenodd" clip-rule="evenodd" d="M6 1L18 1C18.5523 1 19 1.44772 19 2C19 2.55228 18.5523 3 18 3H6C5.44772 3 5 2.55228 5 2C5 1.44772 5.44772 1 6 1ZM11.2929 4.29289C11.6834 3.90237 12.3166 3.90237 12.7071 4.29289L15.7071 7.29289C16.0976 7.68342 16.0976 8.31658 15.7071 8.70711C15.3166 9.09763 14.6834 9.09763 14.2929 8.70711L13 7.41421V10C13 10.5523 12.5523 11 12 11C11.4477 11 11 10.5523 11 10V7.41421L9.70711 8.70711C9.31658 9.09763 8.68342 9.09763 8.29289 8.70711C7.90237 8.31658 7.90237 7.68342 8.29289 7.29289L11.2929 4.29289ZM11 16.5858L9.70711 15.2929C9.31658 14.9024 8.68342 14.9024 8.29289 15.2929C7.90237 15.6834 7.90237 16.3166 8.29289 16.7071L11.2929 19.7071C11.6834 20.0976 12.3166 20.0976 12.7071 19.7071L15.7071 16.7071C16.0976 16.3166 16.0976 15.6834 15.7071 15.2929C15.3166 14.9024 14.6834 14.9024 14.2929 15.2929L13 16.5858V14C13 13.4477 12.5523 13 12 13C11.4477 13 11 13.4477 11 14V16.5858ZM5 22C5 21.4477 5.44772 21 6 21H18C18.5523 21 19 21.4477 19 22C19 22.5523 18.5523 23 18 23H6C5.44772 23 5 22.5523 5 22Z" />
</svg>
