<svg width="24" height="24" viewBox="0 0 24 24" fill="currentColor" xmlns="http://www.w3.org/2000/svg">
<path fill-rule="evenodd" clip-rule="evenodd" d="M21 2C21.5523 2 22 2.44772 22 3V9C22 9.55228 21.5523 10 21 10C20.4477 10 20 9.55228 20 9V5.41421L12.7071 12.7071C12.3166 13.0976 11.6834 13.0976 11.2929 12.7071C10.9024 12.3166 10.9024 11.6834 11.2929 11.2929L18.5858 4H15C14.4477 4 14 3.55228 14 3C14 2.44772 14.4477 2 15 2H21Z" />
<path fill-rule="evenodd" clip-rule="evenodd" d="M5 4C4.44772 4 4 4.44772 4 5V19C4 19.5523 4.44772 20 5 20H19C19.5523 20 20 19.5523 20 19V13.25C20 12.6977 20.4477 12.25 21 12.25C21.5523 12.25 22 12.6977 22 13.25V19C22 20.6569 20.6569 22 19 22H5C3.34315 22 2 20.6569 2 19V5C2 3.34315 3.34315 2 5 2H10C10.5523 2 11 2.44772 11 3C11 3.55228 10.5523 4 10 4H5Z" />
</svg>
