<svg width="24" height="24" viewBox="0 0 24 24" fill="currentColor" xmlns="http://www.w3.org/2000/svg">
<path d="M10.6369 2.10326C10.1417 1.75141 9.45498 1.86766 9.10312 2.36291C8.75127 2.85816 8.86752 3.54487 9.36277 3.89672L11.0112 5.06784V10.288L6.84043 7.87999L6.27409 5.51173C6.13279 4.92088 5.53927 4.55644 4.94842 4.69773C4.35756 4.83903 3.99312 5.43255 4.13442 6.0234L4.55457 7.78037L2.95008 8.16144C2.359 8.30182 1.99364 8.89478 2.13402 9.48585C2.2744 10.0769 2.86736 10.4423 3.45843 10.3019L5.70935 9.76731L9.79963 12.1288L5.8534 14.4072L3.51925 13.7135C2.93691 13.5405 2.32454 13.8722 2.15147 14.4546C1.97841 15.0369 2.3102 15.6493 2.89254 15.8224L4.6242 16.337L4.15196 17.917C3.978 18.4991 4.30883 19.112 4.89091 19.286C5.47298 19.4599 6.08587 19.1291 6.25983 18.547L6.92233 16.3304L11.0112 13.9697V18.5268L9.24337 20.2014C8.80233 20.6192 8.78347 21.3154 9.20127 21.7565C9.61906 22.1975 10.3153 22.2164 10.7563 21.7986L12.0678 20.5562L13.2001 21.7552C13.6172 22.1969 14.3134 22.2169 14.7551 21.7997C15.1968 21.3826 15.2167 20.6864 14.7996 20.2448L13.2112 18.5627V14.0985L17.4281 16.5331L17.7047 18.3934C17.794 18.9944 18.3536 19.4091 18.9545 19.3197C19.5554 19.2304 19.9701 18.6708 19.8808 18.0699L19.6476 16.5019L21.2508 15.7677C21.8031 15.5147 22.0458 14.8619 21.7928 14.3095C21.5398 13.7572 20.887 13.5145 20.3347 13.7675L18.4962 14.6095L14.1996 12.1288L18.641 9.56458L20.3904 10.2552C20.9555 10.4783 21.5944 10.201 21.8175 9.63596C22.0406 9.07089 21.7633 8.43196 21.1983 8.20889L19.7238 7.62679L19.8895 5.87131C19.9466 5.26648 19.5025 4.72989 18.8977 4.67281C18.2929 4.61572 17.7563 5.05975 17.6992 5.66457L17.5092 7.6777L13.2112 10.1592V5.03108L14.684 3.86137C15.1597 3.48355 15.2391 2.7916 14.8612 2.31587C14.4834 1.84014 13.7915 1.76078 13.3157 2.13861L12.0744 3.1245L10.6369 2.10326Z"  />
</svg>
