<svg width="24" height="24" viewBox="0 0 24 24" fill="currentColor" xmlns="http://www.w3.org/2000/svg">
<path d="M6.22209 11.2222C6.65166 10.7926 7.34814 10.7926 7.77772 11.2222L10.8999 14.3444L10.8999 3.00002C10.8999 2.39251 11.3924 1.90002 11.9999 1.90002C12.6074 1.90002 13.0999 2.39251 13.0999 3.00002L13.0999 14.3444L16.2221 11.2222C16.6517 10.7926 17.3481 10.7926 17.7777 11.2222C18.2073 11.6518 18.2073 12.3483 17.7777 12.7778L12.7777 17.7778C12.5714 17.9841 12.2916 18.1 11.9999 18.1C11.7082 18.1 11.4284 17.9841 11.2221 17.7778L6.22209 12.7778C5.79251 12.3483 5.79251 11.6518 6.22209 11.2222Z"  />
<path d="M18.0999 21C18.0999 21.6075 17.6074 22.1 16.9999 22.1H6.9999C6.39239 22.1 5.8999 21.6075 5.8999 21C5.8999 20.3925 6.39239 19.9 6.9999 19.9H16.9999C17.6074 19.9 18.0999 20.3925 18.0999 21Z"  />
</svg>
