<svg width="24" height="24" viewBox="0 0 24 24" fill="currentColor" xmlns="http://www.w3.org/2000/svg">
<path d="M6.22208 18.7778C5.79251 18.3483 5.79251 17.6518 6.22209 17.2222L11.4443 12L6.22209 6.77784C5.79251 6.34827 5.79251 5.65178 6.22209 5.22221C6.65166 4.79263 7.34814 4.79263 7.77772 5.22221L13.7777 11.2222C13.984 11.4285 14.0999 11.7083 14.0999 12C14.0999 12.2918 13.984 12.5716 13.7777 12.7778L7.77772 18.7778C7.34814 19.2074 6.65166 19.2074 6.22208 18.7778Z"  />
<path d="M16.9999 5.00002C17.5522 5.00002 17.9999 5.44774 17.9999 6.00002V18C17.9999 18.5523 17.5522 19 16.9999 19C16.4476 19 15.9999 18.5523 15.9999 18V6.00002C15.9999 5.44774 16.4476 5.00002 16.9999 5.00002Z"  />
</svg>
