<svg width="24" height="24" viewBox="0 0 24 24" fill="currentColor" xmlns="http://www.w3.org/2000/svg">
<path d="M6.9999 19.1C6.39239 19.1 5.8999 18.6075 5.8999 18V6.00002C5.8999 5.39251 6.39239 4.90002 6.9999 4.90002C7.60742 4.90002 8.0999 5.39251 8.0999 6.00002L8.0999 18C8.0999 18.6075 7.60742 19.1 6.9999 19.1Z"  />
<path d="M17.7777 6.77784L12.5555 12L17.7777 17.2222C18.2073 17.6518 18.2073 18.3483 17.7777 18.7778C17.3481 19.2074 16.6517 19.2074 16.2221 18.7778L10.2221 12.7778C10.0158 12.5716 9.8999 12.2918 9.8999 12C9.8999 11.7083 10.0158 11.4285 10.2221 11.2222L16.2221 5.22221C16.6517 4.79263 17.3481 4.79263 17.7777 5.22221C18.2073 5.65178 18.2073 6.34827 17.7777 6.77784Z"  />
</svg>
