<svg width="24" height="24" viewBox="0 0 24 24" fill="currentColor" xmlns="http://www.w3.org/2000/svg">
<path d="M5.8999 3.00002C5.8999 2.39251 6.39239 1.90002 6.9999 1.90002H16.9999C17.6074 1.90002 18.0999 2.39251 18.0999 3.00002C18.0999 3.60754 17.6074 4.10002 16.9999 4.10002H6.9999C6.39239 4.10002 5.8999 3.60754 5.8999 3.00002Z"  />
<path d="M16.2221 12.7778L13.0999 9.65566V21C13.0999 21.6075 12.6074 22.1 11.9999 22.1C11.3924 22.1 10.8999 21.6075 10.8999 21V9.65566L7.77772 12.7778C7.34814 13.2074 6.65166 13.2074 6.22208 12.7778C5.79251 12.3483 5.79251 11.6518 6.22209 11.2222L11.2221 6.22221C11.4284 6.01592 11.7082 5.90002 11.9999 5.90002C12.2916 5.90002 12.5714 6.01592 12.7777 6.22221L17.7777 11.2222C18.2073 11.6518 18.2073 12.3483 17.7777 12.7778C17.3481 13.2074 16.6517 13.2074 16.2221 12.7778Z"  />
</svg>
