<svg width="24" height="24" viewBox="0 0 24 24" fill="currentColor" xmlns="http://www.w3.org/2000/svg">
<path d="M11.2511 13.0114C11.1259 13.0114 11.1094 12.8701 11.1094 12.8701V9.70198C11.1262 9.56077 11.2511 9.56077 11.2511 9.56077H11.7659C11.8513 9.57332 11.8827 9.62234 11.8968 9.64436L11.8992 9.64817L11.9022 9.65235L13.3308 11.5841V9.70221C13.3308 9.58502 13.4725 9.56054 13.4725 9.56054H13.9829C14.0973 9.56054 14.1246 9.70221 14.1246 9.70221V12.8698C14.1246 12.986 13.9829 13.0114 13.9829 13.0114C13.9829 13.0114 13.5478 13.0115 13.4725 13.0114C13.3971 13.0113 13.3563 12.9521 13.3563 12.9521L11.9022 10.9889V12.8701C11.9022 12.9921 11.7605 13.0114 11.7605 13.0114H11.2511Z"  />
<path d="M9.96237 9.56064L10.493 9.56064C10.6163 9.57878 10.6163 9.70186 10.6135 9.70208C10.6106 9.70231 10.6163 12.8697 10.6163 12.8697C10.6163 13.0113 10.493 13.0113 10.493 13.0113H9.96173C9.96173 13.0113 9.82028 12.9944 9.82028 12.8697V9.70186C9.82028 9.70186 9.8407 9.56064 9.96237 9.56064Z"  />
<path d="M7.84668 9.70221C7.84668 9.58958 7.72617 9.56077 7.72617 9.56077H7.19491C7.06966 9.56077 7.05347 9.70198 7.05347 9.70198V12.8698C7.05347 12.9945 7.19491 13.0114 7.19491 13.0114H9.2327C9.35254 13.0114 9.37414 12.8698 9.37414 12.8698V12.3383C9.37414 12.2181 9.2327 12.2181 9.2327 12.2181H7.84668V9.70221Z"  />
<path d="M14.626 9.70221C14.6457 9.56054 14.7674 9.56077 14.7674 9.56077H16.805C16.805 9.56077 16.9465 9.58808 16.9465 9.70221V10.2405C16.9465 10.2405 16.908 10.3536 16.8051 10.3536H15.4191V10.8891H16.8051C16.8051 10.8891 16.9318 10.9038 16.9465 11.0307V11.541C16.9465 11.541 16.9246 11.6826 16.8051 11.6826H15.4191V12.2182H16.8051C16.8051 12.2182 16.9313 12.2337 16.9465 12.3597V12.8698C16.9465 12.8698 16.9284 13.0114 16.805 13.0114H14.7674C14.7674 13.0114 14.626 12.9995 14.626 12.8698V9.70221Z"  />
<path fill-rule="evenodd" clip-rule="evenodd" d="M6.3 2C3.92518 2 2 3.92518 2 6.3V17.7C2 20.0748 3.92518 22 6.3 22H17.7C20.0748 22 22 20.0748 22 17.7V6.3C22 3.92518 20.0748 2 17.7 2H6.3ZM11.8702 5.213C16.2819 5.213 19.2535 8.09665 19.2535 11.1362C19.3547 14.0602 16.0882 16.3475 14.727 17.3006C14.5062 17.4553 14.3355 17.5748 14.2375 17.6562C13.5266 18.1334 12.2234 18.9311 11.9216 19.0358C11.6417 19.1403 11.2834 19.234 11.3001 18.8124C11.3079 18.7087 11.3344 18.5602 11.3632 18.3992C11.4099 18.1384 11.4624 17.8448 11.4502 17.6562C11.4502 17.3608 11.4136 17.1137 10.7598 16.9801C7.31191 16.5302 4.65561 14.1194 4.65561 11.1301C4.65561 7.63961 8.21481 5.213 11.8702 5.213Z"  />
</svg>
