<svg width="24" height="24" viewBox="0 0 24 24" fill="currentColor" xmlns="http://www.w3.org/2000/svg">
<path d="M6 6C6 6.82843 5.32843 7.5 4.5 7.5C3.67157 7.5 3 6.82843 3 6C3 5.17157 3.67157 4.5 4.5 4.5C5.32843 4.5 6 5.17157 6 6Z"  />
<path d="M7.9 6C7.9 5.39249 8.39249 4.9 9 4.9H20C20.6075 4.9 21.1 5.39249 21.1 6C21.1 6.60751 20.6075 7.1 20 7.1H9C8.39249 7.1 7.9 6.60751 7.9 6Z"  />
<path d="M6 12C6 12.8284 5.32843 13.5 4.5 13.5C3.67157 13.5 3 12.8284 3 12C3 11.1716 3.67157 10.5 4.5 10.5C5.32843 10.5 6 11.1716 6 12Z"  />
<path d="M7.9 12C7.9 11.3925 8.39249 10.9 9 10.9H20C20.6075 10.9 21.1 11.3925 21.1 12C21.1 12.6075 20.6075 13.1 20 13.1H9C8.39249 13.1 7.9 12.6075 7.9 12Z"  />
<path d="M6 18C6 18.8284 5.32843 19.5 4.5 19.5C3.67157 19.5 3 18.8284 3 18C3 17.1716 3.67157 16.5 4.5 16.5C5.32843 16.5 6 17.1716 6 18Z"  />
<path d="M7.9 18C7.9 17.3925 8.39249 16.9 9 16.9H20C20.6075 16.9 21.1 17.3925 21.1 18C21.1 18.6075 20.6075 19.1 20 19.1H9C8.39249 19.1 7.9 18.6075 7.9 18Z"  />
</svg>
