<svg width="24" height="24" viewBox="0 0 24 24" fill="none" xmlns="http://www.w3.org/2000/svg">
<path fill-rule="evenodd" clip-rule="evenodd" d="M11.9997 22.5C14.7844 22.5 17.455 21.3938 19.4241 19.4246C21.3932 17.4555 22.4994 14.7848 22.4994 12H23.9994C23.9994 15.1826 22.7351 18.2348 20.4848 20.4853C18.2344 22.7357 15.1822 24 11.9997 24C8.81717 24 5.765 22.7357 3.51462 20.4853C1.26425 18.2348 1.90735e-06 15.1826 1.90735e-06 12H1.5C1.5 14.7848 2.60622 17.4555 4.5753 19.4246C6.54437 21.3938 9.21501 22.5 11.9997 22.5Z" fill="url(#paint0_linear_3949_3567)"/>
<path fill-rule="evenodd" clip-rule="evenodd" d="M22.4994 12C22.4994 9.21522 21.3932 6.5445 19.4241 4.57537C17.455 2.60624 14.7844 1.5 11.9997 1.5C9.21501 1.5 6.54437 2.60624 4.5753 4.57537C2.60622 6.5445 1.5 9.21522 1.5 12H1.90735e-06C1.90735e-06 8.81741 1.26425 5.76516 3.51462 3.51473C5.765 1.26429 8.81717 0 11.9997 0C15.1822 0 18.2344 1.26429 20.4848 3.51473C22.7351 5.76516 23.9994 8.81741 23.9994 12H22.4994Z" fill="url(#paint1_linear_3949_3567)"/>
<path fill-rule="evenodd" clip-rule="evenodd" d="M23.2416 12.9843C22.8274 12.98 22.4951 12.6408 22.4994 12.2266C22.5002 12.1536 22.5002 12.0807 22.4994 12.0078C22.4951 11.5936 22.8274 11.2544 23.2416 11.25C23.6558 11.2457 23.995 11.578 23.9993 11.9922C24.0002 12.0755 24.0002 12.1589 23.9993 12.2422C23.995 12.6564 23.6558 12.9886 23.2416 12.9843Z" fill="white"/>
<defs>
<linearGradient id="paint0_linear_3949_3567" x1="23.2494" y1="23.25" x2="0.75" y2="23.25" gradientUnits="userSpaceOnUse">
<stop stop-color="white" stop-opacity="0"/>
<stop offset="1" stop-color="white" stop-opacity="0.5"/>
</linearGradient>
<linearGradient id="paint1_linear_3949_3567" x1="23.2494" y1="12" x2="0.75" y2="12" gradientUnits="userSpaceOnUse">
<stop stop-color="white"/>
<stop offset="1" stop-color="white" stop-opacity="0.5"/>
</linearGradient>
</defs>
</svg>
