<svg width="24" height="24" viewBox="0 0 24 24" fill="currentColor" xmlns="http://www.w3.org/2000/svg">
<path d="M14.0999 17C14.0999 16.3925 13.6074 15.9 12.9999 15.9C12.3924 15.9 11.8999 16.3925 11.8999 17V18C11.8999 18.4971 11.497 18.9 10.9999 18.9H5.9999C5.50285 18.9 5.0999 18.4971 5.0999 18L5.0999 6.00002C5.0999 5.50297 5.50285 5.10002 5.9999 5.10002L10.9999 5.10002C11.497 5.10002 11.8999 5.50297 11.8999 6.00003V7.00002C11.8999 7.60754 12.3924 8.10002 12.9999 8.10002C13.6074 8.10002 14.0999 7.60754 14.0999 7.00002V6.00003C14.0999 4.28794 12.712 2.90002 10.9999 2.90002H5.9999C4.28782 2.90002 2.8999 4.28794 2.8999 6.00002V18C2.8999 19.7121 4.28782 21.1 5.9999 21.1H10.9999C12.712 21.1 14.0999 19.7121 14.0999 18V17Z"  />
<path d="M18.0851 7.78415C17.6897 7.3229 16.9953 7.26948 16.534 7.66484C16.0728 8.06021 16.0194 8.75464 16.4147 9.21589L17.8583 10.9H10.7499C10.1424 10.9 9.6499 11.3925 9.6499 12C9.6499 12.6075 10.1424 13.1 10.7499 13.1L17.8583 13.1L16.4147 14.7842C16.0194 15.2454 16.0728 15.9398 16.534 16.3352C16.9953 16.7306 17.6897 16.6772 18.0851 16.2159L21.0851 12.7159C21.4382 12.304 21.4382 11.6961 21.0851 11.2842L18.0851 7.78415Z"  />
</svg>
