<svg width="24" height="24" viewBox="0 0 24 24" fill="currentColor" xmlns="http://www.w3.org/2000/svg">
<path d="M11.9999 2.90002C12.6074 2.90002 13.0999 3.39251 13.0999 4.00002V10.9H19.9999C20.6074 10.9 21.0999 11.3925 21.0999 12C21.0999 12.6075 20.6074 13.1 19.9999 13.1H13.0999V20C13.0999 20.6075 12.6074 21.1 11.9999 21.1C11.3924 21.1 10.8999 20.6075 10.8999 20L10.8999 13.1H3.9999C3.39239 13.1 2.8999 12.6075 2.8999 12C2.8999 11.3925 3.39239 10.9 3.9999 10.9H10.8999L10.8999 4.00002C10.8999 3.39251 11.3924 2.90002 11.9999 2.90002Z"  />
</svg>
