<svg width="24" height="24" viewBox="0 0 24 24" fill="currentColor" xmlns="http://www.w3.org/2000/svg">
<path d="M11.9999 5.10002C10.1619 5.10002 8.49381 5.81721 7.25629 6.9892C6.81519 7.40694 6.11897 7.388 5.70123 6.94691C5.28349 6.50581 5.30242 5.80959 5.74352 5.39185C7.37333 3.84834 9.57706 2.90002 11.9999 2.90002C16.7592 2.90002 20.6652 6.55366 21.066 11.2091L21.939 10.2567C22.3495 9.8089 23.0454 9.77864 23.4932 10.1892C23.941 10.5997 23.9713 11.2955 23.5608 11.7433L20.8108 14.7433C20.6024 14.9706 20.3082 15.1 19.9999 15.1C19.6916 15.1 19.3974 14.9706 19.189 14.7433L16.439 11.7433C16.0285 11.2955 16.0588 10.5997 16.5066 10.1892C16.9544 9.77864 17.6503 9.8089 18.0608 10.2567L18.843 11.1101C18.4065 7.7197 15.5091 5.10002 11.9999 5.10002Z"  />
<path d="M11.9999 18.9C13.9733 18.9 15.7517 18.073 17.0107 16.7436C17.4285 16.3025 18.1247 16.2836 18.5658 16.7014C19.0069 17.1191 19.0258 17.8153 18.6081 18.2564C16.9509 20.0062 14.6022 21.1 11.9999 21.1C7.24058 21.1 3.33461 17.4464 2.9338 12.7909L2.06078 13.7433C1.65027 14.1912 0.954443 14.2214 0.506612 13.8109C0.0587808 13.4004 0.0285276 12.7046 0.439039 12.2567L3.18904 9.25673C3.39739 9.02944 3.69157 8.90003 3.99991 8.90003C4.30825 8.90003 4.60243 9.02944 4.81078 9.25673L7.56078 12.2567C7.97129 12.7046 7.94104 13.4004 7.49321 13.8109C7.04538 14.2214 6.34955 14.1912 5.93904 13.7433L5.15676 12.8899C5.59333 16.2803 8.49069 18.9 11.9999 18.9Z"  />
</svg>
