<svg width="24" height="24" viewBox="0 0 24 24" fill="currentColor" xmlns="http://www.w3.org/2000/svg">
<path d="M15.7423 5.8109C15.9696 5.60255 16.099 5.30837 16.099 5.00003C16.099 4.69169 15.9696 4.39751 15.7423 4.18916L12.7423 1.43916C12.2945 1.02865 11.5987 1.0589 11.1882 1.50673C10.7776 1.95456 10.8079 2.65039 11.2557 3.0609L12.2851 4.00449C12.1901 4.00152 12.0947 4.00003 11.999 4.00003C7.02846 4.00003 2.99902 8.02947 2.99902 13C2.99902 17.9706 7.02846 22 11.999 22C16.9696 22 20.999 17.9706 20.999 13C20.999 12.4477 20.5516 12 19.9993 12C19.4471 12 18.999 12.4477 18.999 13C18.999 16.866 15.865 20 11.999 20C8.13303 20 4.99902 16.866 4.99902 13C4.99902 9.13404 8.13303 6.00003 11.999 6.00003C12.0913 6.00003 12.1831 6.00181 12.2744 6.00535L11.2557 6.93916C10.8079 7.34967 10.7776 8.0455 11.1882 8.49333C11.5987 8.94116 12.2945 8.97141 12.7423 8.5609L15.7423 5.8109Z"  />
</svg>
