<svg width="24" height="24" viewBox="0 0 24 24" fill="currentColor" xmlns="http://www.w3.org/2000/svg">
<path fill-rule="evenodd" clip-rule="evenodd" d="M2 10.5159C2 5.81268 5.84359 2 10.5849 2C15.3262 2 19.1698 5.81268 19.1698 10.5159C19.1698 12.5376 18.4596 14.3948 17.2731 15.8553L21.6961 20.2427C22.1013 20.6447 22.1013 21.2965 21.6961 21.6985C21.2908 22.1005 20.6337 22.1005 20.2285 21.6985L15.7859 17.2916C14.3426 18.3834 12.5401 19.0317 10.5849 19.0317C5.84359 19.0317 2 15.219 2 10.5159ZM10.5849 4.05878C6.98984 4.05878 4.07547 6.94972 4.07547 10.5159C4.07547 14.082 6.98984 16.9729 10.5849 16.9729C14.18 16.9729 17.0943 14.082 17.0943 10.5159C17.0943 6.94972 14.18 4.05878 10.5849 4.05878Z"  />
</svg>
