<svg width="24" height="24" viewBox="0 0 24 24" fill="currentColor" xmlns="http://www.w3.org/2000/svg">
<path fill-rule="evenodd" clip-rule="evenodd" d="M1.8999 12.5C1.8999 10.5118 3.51168 8.89999 5.4999 8.89999C6.42513 8.89999 7.26883 9.24903 7.90653 9.82261L13.9841 6.27738C13.9289 6.02703 13.8999 5.7669 13.8999 5.49999C13.8999 3.51177 15.5117 1.89999 17.4999 1.89999C19.4881 1.89999 21.0999 3.51177 21.0999 5.49999C21.0999 7.48822 19.4881 9.09999 17.4999 9.09999C16.5746 9.09999 15.7309 8.75094 15.0932 8.17732L9.01573 11.7225C9.07085 11.9729 9.0999 12.2331 9.0999 12.5C9.0999 12.6868 9.08568 12.8702 9.05825 13.0494L14.9259 15.9832C15.5795 15.3148 16.4912 14.9 17.4999 14.9C19.4881 14.9 21.0999 16.5118 21.0999 18.5C21.0999 20.4882 19.4881 22.1 17.4999 22.1C15.5117 22.1 13.8999 20.4882 13.8999 18.5C13.8999 18.3132 13.9141 18.1298 13.9415 17.9507L8.07389 15.0169C7.4203 15.6852 6.50854 16.1 5.4999 16.1C3.51168 16.1 1.8999 14.4882 1.8999 12.5ZM16.1001 5.50001C16.1001 6.2732 16.7269 6.90001 17.5001 6.90001C18.2733 6.90001 18.9001 6.2732 18.9001 5.50001C18.9001 4.72681 18.2733 4.10001 17.5001 4.10001C16.7269 4.10001 16.1001 4.72681 16.1001 5.50001ZM4.1001 12.5C4.1001 13.2732 4.7269 13.9 5.5001 13.9C6.2733 13.9 6.9001 13.2732 6.9001 12.5C6.9001 11.7268 6.2733 11.1 5.5001 11.1C4.7269 11.1 4.1001 11.7268 4.1001 12.5ZM17.5001 17.1C16.7269 17.1 16.1001 17.7268 16.1001 18.5C16.1001 19.2732 16.7269 19.9 17.5001 19.9C18.2733 19.9 18.9001 19.2732 18.9001 18.5C18.9001 17.7268 18.2733 17.1 17.5001 17.1Z"  />
</svg>
