<svg width="24" height="24" viewBox="0 0 24 24" fill="currentColor" xmlns="http://www.w3.org/2000/svg">
<path d="M18.8779 7.92216C19.3074 8.35173 19.3074 9.04821 18.8779 9.47779L11.3779 16.9778C11.1716 17.1841 10.8918 17.3 10.6 17.3C10.3083 17.3 10.0285 17.1841 9.82222 16.9778L5.32218 12.4778C4.89261 12.0482 4.89261 11.3517 5.32218 10.9222C5.75176 10.4926 6.44824 10.4926 6.87782 10.9222L10.6 14.6444L17.3222 7.92216C17.7518 7.49258 18.4483 7.49258 18.8779 7.92216Z" fill="white"/>
<path fill-rule="evenodd" clip-rule="evenodd" d="M4 2C2.89543 2 2 2.89543 2 4V20C2 21.1046 2.89543 22 4 22H20C21.1046 22 22 21.1046 22 20V4C22 2.89543 21.1046 2 20 2H4ZM17.3222 7.92216C17.7518 7.49258 18.4483 7.49258 18.8779 7.92216C19.3074 8.35173 19.3074 9.04821 18.8779 9.47779L11.3779 16.9778C11.1716 17.1841 10.8918 17.3 10.6 17.3C10.3083 17.3 10.0285 17.1841 9.82222 16.9778L5.32218 12.4778C4.89261 12.0482 4.89261 11.3517 5.32218 10.9222C5.75176 10.4926 6.44824 10.4926 6.87782 10.9222L10.6 14.6444L17.3222 7.92216Z"  />
</svg>
