<svg width="24" height="24" viewBox="0 0 24 24" fill="currentColor" xmlns="http://www.w3.org/2000/svg">
<g clip-path="url(#clip0_1346_2921)">
<path d="M13.4995 12C13.4995 12.8285 12.8279 13.5 11.9995 13.5C11.1711 13.5 10.4995 12.8285 10.4995 12C10.4995 11.1716 11.1711 10.5 11.9995 10.5C12.8279 10.5 13.4995 11.1716 13.4995 12Z"  />
<path fill-rule="evenodd" clip-rule="evenodd" d="M11.9999 0.900024C5.86954 0.900024 0.899902 5.86966 0.899902 12C0.899902 18.1304 5.86954 23.1 11.9999 23.1C18.1303 23.1 23.0999 18.1304 23.0999 12C23.0999 5.86966 18.1303 0.900024 11.9999 0.900024ZM20.8442 13C20.3839 17.1164 17.1161 20.3842 12.9997 20.8445V18C12.9997 17.4477 12.552 17 11.9997 17C11.4474 17 10.9997 17.4477 10.9997 18V20.8445C6.88339 20.3842 3.61553 17.1164 3.15527 13H5.99972C6.552 13 6.99972 12.5523 6.99972 12C6.99972 11.4477 6.552 11 5.99972 11H3.15527C3.61553 6.88369 6.88339 3.61584 10.9997 3.15558V6.00002C10.9997 6.55231 11.4474 7.00002 11.9997 7.00002C12.552 7.00002 12.9997 6.55231 12.9997 6.00002V3.15558C17.1161 3.61584 20.3839 6.88369 20.8442 11H17.9997C17.4474 11 16.9997 11.4477 16.9997 12C16.9997 12.5523 17.4474 13 17.9997 13H20.8442Z"  />
</g>
<defs>
<clipPath id="clip0_1346_2921">
<rect width="24" height="24" fill="white"/>
</clipPath>
</defs>
</svg>
