<svg width="24" height="24" viewBox="0 0 24 24" fill="currentColor" xmlns="http://www.w3.org/2000/svg">
<path d="M12.7158 3.16484C12.3038 2.81175 11.696 2.81175 11.284 3.16484L7.78403 6.16484C7.32277 6.56021 7.26935 7.25464 7.66472 7.71589C8.06008 8.17715 8.75451 8.23057 9.21577 7.83521L10.8999 6.39167L10.8999 14C10.8999 14.6075 11.3924 15.1 11.9999 15.1C12.6074 15.1 13.0999 14.6075 13.0999 14V6.39167L14.784 7.83521C15.2453 8.23057 15.9397 8.17715 16.3351 7.71589C16.7304 7.25464 16.677 6.56021 16.2158 6.16484L12.7158 3.16484Z"  />
<path d="M3.9999 10.4C4.60742 10.4 5.0999 10.8925 5.0999 11.5V18C5.0999 18.4971 5.50285 18.9 5.9999 18.9H17.9999C18.497 18.9 18.8999 18.4971 18.8999 18V11.5C18.8999 10.8925 19.3924 10.4 19.9999 10.4C20.6074 10.4 21.0999 10.8925 21.0999 11.5V18C21.0999 19.7121 19.712 21.1 17.9999 21.1H5.9999C4.28782 21.1 2.8999 19.7121 2.8999 18V11.5C2.8999 10.8925 3.39239 10.4 3.9999 10.4Z"  />
</svg>
