<svg width="24" height="24" viewBox="0 0 24 24" fill="currentColor" xmlns="http://www.w3.org/2000/svg">
<path d="M12.7254 4.07705C13.1822 3.67649 13.2277 2.98149 12.8271 2.52475C12.4266 2.068 11.7316 2.02246 11.2748 2.42302C10.5692 3.04191 9.85944 4.37514 9.61023 6.02585C9.35195 7.73665 9.56877 9.88012 10.8437 12.1664L10.859 12.1938L10.8758 12.2202C12.7124 15.1131 12.0205 18.0108 10.5857 20.163C10.2487 20.6685 10.3853 21.3515 10.8908 21.6884C11.3963 22.0254 12.0793 21.8888 12.4162 21.3834C14.1632 18.7629 15.1732 14.911 12.7508 11.069C11.7354 9.23516 11.5981 7.59616 11.7856 6.35426C11.983 5.04645 12.5229 4.25468 12.7254 4.07705Z"  />
<path d="M6.00612 8.52099C6.27766 7.97754 6.05722 7.31686 5.51377 7.04533C4.97031 6.77379 4.30964 6.99423 4.0381 7.53768C3.47762 8.65944 3.5251 9.95015 3.79128 11.125C4.06136 12.3171 4.58981 13.539 5.17937 14.6421C6.28116 16.7035 5.5957 18.6443 4.2444 19.9956C3.81482 20.4252 3.81482 21.1217 4.2444 21.5513C4.67397 21.9808 5.37045 21.9808 5.80003 21.5513C7.63476 19.7165 8.79982 16.7487 7.11963 13.6051C6.58055 12.5964 6.14733 11.5677 5.9369 10.6389C5.72255 9.6928 5.77066 8.99224 6.00612 8.52099Z"  />
<path d="M18.6069 8.52099C18.8784 7.97754 18.658 7.31686 18.1145 7.04533C17.5711 6.77379 16.9104 6.99423 16.6389 7.53768C16.0784 8.65944 16.1259 9.95015 16.3921 11.125C16.6621 12.3171 17.1906 13.539 17.7802 14.6421C18.8819 16.7035 18.1965 18.6443 16.8452 19.9956C16.4156 20.4252 16.4156 21.1217 16.8452 21.5513C17.2748 21.9808 17.9712 21.9808 18.4008 21.5513C20.2355 19.7165 21.4006 16.7487 19.7204 13.6051C19.1813 12.5964 18.7481 11.5677 18.5377 10.6389C18.3233 9.6928 18.3714 8.99224 18.6069 8.52099Z"  />
</svg>
