<svg width="24" height="24" viewBox="0 0 24 24" fill="none" xmlns="http://www.w3.org/2000/svg">
<path d="M1.71313 15.178L3.85789 4.29618C4.05935 3.27402 4.95568 2.53711 5.99751 2.53711H16.8216C18.1971 2.53711 19.2291 3.7949 18.9604 5.14387L16.4435 17.7805L16.0008 20.184L13.0597 17.7805H3.85275C2.47906 17.7805 1.4475 16.5257 1.71313 15.178Z" fill="#5D7BE7"/>
<path d="M5.03345 19.0671L7.1782 8.18534C7.37966 7.16318 8.27599 6.42627 9.31782 6.42627H20.1419C21.5174 6.42627 22.5494 7.68406 22.2807 9.03303L20.1134 19.9148C19.9102 20.935 19.0148 21.6696 17.9746 21.6696H7.17307C5.79938 21.6696 4.76781 20.4149 5.03345 19.0671Z" fill="#48DECC"/>
<path fill-rule="evenodd" clip-rule="evenodd" d="M18.7044 6.42627L16.4431 17.7797L16.3345 18.3693C16.1843 19.185 15.2144 19.541 14.5722 19.0161L13.0593 17.7797H5.28711L7.17813 8.18534C7.37959 7.16318 8.27592 6.42627 9.31775 6.42627H18.7044Z" fill="#3C53A5"/>
</svg>
