<svg width="24" height="24" viewBox="0 0 24 24" fill="currentColor" xmlns="http://www.w3.org/2000/svg">
<path fill-rule="evenodd" clip-rule="evenodd" d="M12 1.25C9.46199 1.25 7.67155 3.10129 7.31514 5.4H6.37107C4.73903 5.4 3.3865 6.66537 3.27794 8.29379L2.5446 19.2938C2.42532 21.0831 3.8445 22.6 5.63774 22.6H18.3622C20.1554 22.6 21.5746 21.0831 21.4553 19.2938L20.722 8.29379C20.6134 6.66537 19.2609 5.4 17.6289 5.4H16.6848C16.3284 3.10129 14.5379 1.25 12 1.25ZM12 3.25C13.3039 3.25 14.335 4.11242 14.6502 5.4H9.34976C9.66496 4.11242 10.696 3.25 12 3.25ZM4.73973 19.4401L5.47306 8.44013C5.50458 7.96736 5.89725 7.6 6.37107 7.6H7.24996V10C7.24996 10.5523 7.69768 11 8.24996 11C8.80225 11 9.24996 10.5523 9.24996 10V7.6H14.75V10C14.75 10.5523 15.1977 11 15.75 11C16.3022 11 16.75 10.5523 16.75 10V7.6H17.6289C18.1027 7.6 18.4953 7.96737 18.5269 8.44013L19.2602 19.4401C19.2948 19.9596 18.8828 20.4 18.3622 20.4H5.63774C5.11712 20.4 4.7051 19.9596 4.73973 19.4401Z"  />
</svg>
