<svg width="24" height="24" viewBox="0 0 24 24" fill="currentColor" xmlns="http://www.w3.org/2000/svg">
<path fill-rule="evenodd" clip-rule="evenodd" d="M13.1007 2.29922C13.1007 1.69171 12.6082 1.19922 12.0007 1.19922C11.3932 1.19922 10.9007 1.69171 10.9007 2.29922V2.9649C7.35331 3.19979 4.49288 6.04586 4.28733 9.64432L4.00475 14.5912C3.9465 15.611 3.66257 16.6051 3.17346 17.5018L2.53471 18.6729C2.3488 19.0137 2.35632 19.4273 2.5545 19.7611C2.75268 20.095 3.11216 20.2996 3.50039 20.2996H20.5004C20.8886 20.2996 21.2481 20.095 21.4463 19.7611C21.6445 19.4273 21.652 19.0137 21.4661 18.6729L20.8273 17.5018C20.3382 16.6051 20.0543 15.611 19.996 14.5912L19.7135 9.64431C19.5079 6.04604 16.6478 3.20009 13.1007 2.96494V2.29922ZM6.48375 9.76978C6.63189 7.17637 8.77813 5.14922 11.3758 5.14922H12.625C15.2227 5.14922 17.3689 7.17636 17.517 9.76978L17.7996 14.7167C17.8667 15.8911 18.1607 17.0398 18.6638 18.0996H5.33702C5.84003 17.0398 6.13408 15.8911 6.20117 14.7167L6.48375 9.76978Z"  />
<path d="M10.0004 21.0996C9.39288 21.0996 8.90039 21.5921 8.90039 22.1996C8.90039 22.8071 9.39288 23.2996 10.0004 23.2996H14.0004C14.6079 23.2996 15.1004 22.8071 15.1004 22.1996C15.1004 21.5921 14.6079 21.0996 14.0004 21.0996H10.0004Z"  />
</svg>
