<svg width="24" height="24" viewBox="0 0 24 24" fill="currentColor" xmlns="http://www.w3.org/2000/svg">
<path fill-rule="evenodd" clip-rule="evenodd" d="M18.0001 2.30035C16.8403 2.30035 15.9001 3.24056 15.9001 4.40035V5.40035H14.5001C13.8926 5.40035 13.4001 5.89284 13.4001 6.50035C13.4001 7.10787 13.8926 7.60035 14.5001 7.60035H14.7114L12.4714 10.4004H9.10011V8.60035H9.49967C10.1072 8.60035 10.5997 8.10787 10.5997 7.50035C10.5997 6.89284 10.1072 6.40035 9.49967 6.40035H1.99967C1.39215 6.40035 0.899668 6.89284 0.899668 7.50035C0.899668 8.10787 1.39215 8.60035 1.99967 8.60035H2.68548L0.904814 12.0133C0.527492 12.7365 0.450422 13.5793 0.690312 14.3589L1.19004 15.983C1.00297 16.4523 0.900109 16.9643 0.900109 17.5004C0.900109 19.7647 2.73574 21.6004 5.00011 21.6004C6.88343 21.6004 8.47018 20.3305 8.95087 18.6004H14.0493C14.53 20.3305 16.1168 21.6004 18.0001 21.6004C20.2645 21.6004 22.1001 19.7647 22.1001 17.5004C22.1001 17.1912 22.0659 16.89 22.001 16.6004H22.5001C23.1076 16.6004 23.6001 16.1079 23.6001 15.5004V14.5004C23.6001 13.8928 23.1076 13.4004 22.5001 13.4004H21.6799L18.7799 7.60035H22.0001C22.6076 7.60035 23.1001 7.10787 23.1001 6.50035V3.40035C23.1001 2.79284 22.6076 2.30035 22.0001 2.30035H18.0001ZM6.90011 11.5004C6.90011 12.1079 7.3926 12.6004 8.00011 12.6004H13.0001C13.3343 12.6004 13.6503 12.4485 13.8591 12.1875L16.7851 8.52999L19.3306 13.6211C18.9134 13.478 18.4658 13.4004 18.0001 13.4004C16.1168 13.4004 14.53 14.6702 14.0493 16.4004H8.95087C8.47018 14.6702 6.88343 13.4004 5.00011 13.4004C4.22374 13.4004 3.49776 13.6161 2.8789 13.991L2.79303 13.7119C2.72338 13.4856 2.74576 13.2409 2.8553 13.0309L5.16691 8.60035H6.90011V11.5004ZM5.00011 19.4004C3.95077 19.4004 3.10011 18.5497 3.10011 17.5004C3.10011 16.451 3.95077 15.6004 5.00011 15.6004C6.04945 15.6004 6.90011 16.451 6.90011 17.5004C6.90011 18.5497 6.04945 19.4004 5.00011 19.4004ZM18.0001 19.4004C16.9508 19.4004 16.1001 18.5497 16.1001 17.5004C16.1001 16.451 16.9508 15.6004 18.0001 15.6004C19.0494 15.6004 19.9001 16.451 19.9001 17.5004C19.9001 18.5497 19.0494 19.4004 18.0001 19.4004ZM20.9001 5.40035H18.1001V4.50035H20.9001V5.40035Z"  />
</svg>
