<svg width="24" height="24" viewBox="0 0 24 24" fill="currentColor" xmlns="http://www.w3.org/2000/svg">
<path fill-rule="evenodd" clip-rule="evenodd" d="M2.8999 4.49999C2.8999 2.78791 4.28782 1.39999 5.9999 1.39999H17.9999C19.712 1.39999 21.0999 2.78791 21.0999 4.49999V20.8298C21.0999 22.4169 19.4072 23.4304 18.0082 22.6809L11.9999 19.4622L5.99157 22.6809C4.59262 23.4304 2.8999 22.4169 2.8999 20.8298V4.49999ZM5.9999 3.59999C5.50285 3.59999 5.0999 4.00294 5.0999 4.49999V20.6628L11.0082 17.4976C11.6277 17.1658 12.3721 17.1658 12.9916 17.4976L18.8999 20.6628V4.49999C18.8999 4.00294 18.497 3.59999 17.9999 3.59999H5.9999Z"  />
</svg>
