<svg width="24" height="24" viewBox="0 0 24 24" fill="currentColor" xmlns="http://www.w3.org/2000/svg">
<path d="M9.25 11.25C9.25 11.9404 8.69036 12.5 8 12.5C7.30964 12.5 6.75 11.9404 6.75 11.25C6.75 10.5597 7.30964 10 8 10C8.69036 10 9.25 10.5597 9.25 11.25Z"  />
<path d="M13.25 11.25C13.25 11.9404 12.6904 12.5 12 12.5C11.3096 12.5 10.75 11.9404 10.75 11.25C10.75 10.5597 11.3096 10 12 10C12.6904 10 13.25 10.5597 13.25 11.25Z"  />
<path d="M17.2559 11.25C17.2559 11.9404 16.6962 12.5 16.0059 12.5C15.3155 12.5 14.7559 11.9404 14.7559 11.25C14.7559 10.5597 15.3155 10 16.0059 10C16.6962 10 17.2559 10.5597 17.2559 11.25Z"  />
<path fill-rule="evenodd" clip-rule="evenodd" d="M0.899902 7.25002C0.899902 4.43337 3.18325 2.15002 5.9999 2.15002H17.9999C20.8166 2.15002 23.0999 4.43337 23.0999 7.25002V14.75C23.0999 17.5667 20.8166 19.85 17.9999 19.85H17.8296L17.0576 22.5522C16.9541 22.9144 16.6724 23.1985 16.3111 23.3051C15.9498 23.4117 15.5591 23.3259 15.2755 23.0779L11.5866 19.85H5.9999C3.18325 19.85 0.899902 17.5667 0.899902 14.75V7.25002ZM5.9999 4.35002C4.39828 4.35002 3.0999 5.6484 3.0999 7.25002V14.75C3.0999 16.3517 4.39828 17.65 5.9999 17.65H11.9999C12.2663 17.65 12.5237 17.7467 12.7243 17.9222L15.4188 20.2799L15.9422 18.4478C16.0771 17.9756 16.5088 17.65 16.9999 17.65H17.9999C19.6015 17.65 20.8999 16.3517 20.8999 14.75V7.25002C20.8999 5.6484 19.6015 4.35002 17.9999 4.35002H5.9999Z"  />
</svg>
