<svg width="24" height="24" viewBox="0 0 24 24" fill="currentColor" xmlns="http://www.w3.org/2000/svg">
<path fill-rule="evenodd" clip-rule="evenodd" d="M0.899902 7.24999C0.899902 4.43334 3.18325 2.14999 5.9999 2.14999H17.9999C20.8166 2.14999 23.0999 4.43334 23.0999 7.24999V14.75C23.0999 17.5666 20.8166 19.85 17.9999 19.85H17.8296L17.0576 22.5522C16.9541 22.9144 16.6724 23.1985 16.3111 23.3051C15.9498 23.4116 15.5591 23.3259 15.2755 23.0778L11.5866 19.85H5.9999C3.18325 19.85 0.899902 17.5666 0.899902 14.75V7.24999ZM5.9999 4.34999C4.39828 4.34999 3.0999 5.64837 3.0999 7.24999V14.75C3.0999 16.3516 4.39828 17.65 5.9999 17.65H11.9999C12.2663 17.65 12.5237 17.7467 12.7243 17.9222L15.4188 20.2799L15.9422 18.4478C16.0771 17.9756 16.5088 17.65 16.9999 17.65H17.9999C19.6015 17.65 20.8999 16.3516 20.8999 14.75V7.24999C20.8999 5.64837 19.6015 4.34999 17.9999 4.34999H5.9999Z"  />
</svg>
