<svg width="24" height="24" viewBox="0 0 24 24" fill="currentColor" xmlns="http://www.w3.org/2000/svg">
<path fill-rule="evenodd" clip-rule="evenodd" d="M14.3999 3.49996C14.3999 2.89245 14.8924 2.39996 15.4999 2.39996H18.7499C20.3239 2.39996 21.5999 3.67595 21.5999 5.24996C21.5999 6.82397 20.3239 8.09996 18.7499 8.09996H17.5261L18.9264 12.3009C18.9508 12.3005 18.9754 12.3004 18.9999 12.3004C21.5404 12.3004 23.5999 14.3598 23.5999 16.9004C23.5999 19.4409 21.5404 21.5004 18.9999 21.5004C16.4594 21.5004 14.3999 19.4409 14.3999 16.9004C14.3999 15.1589 15.3676 13.6435 16.7946 12.8625L15.7961 9.86717L15.4915 10.4765L12.4987 16.9609C12.3189 17.3505 11.929 17.6 11.4999 17.6H9.54704C9.21005 19.8084 7.30256 21.5004 4.9999 21.5004C2.45939 21.5004 0.399902 19.4409 0.399902 16.9004C0.399902 14.3598 2.45939 12.3004 4.9999 12.3004C5.35604 12.3004 5.70273 12.3408 6.03562 12.4174L7.30054 9.93147L6.04935 7.25035H4.2499C3.64239 7.25035 3.1499 6.75787 3.1499 6.15035C3.1499 5.54284 3.64239 5.05035 4.2499 5.05035H9.2499C9.85742 5.05035 10.3499 5.54284 10.3499 6.15035C10.3499 6.75787 9.85742 7.25035 9.2499 7.25035H8.47712L9.24694 8.89996H13.8201L15.016 6.50803C15.2024 6.13537 15.5833 5.89996 15.9999 5.89996H18.7499C19.1089 5.89996 19.3999 5.60895 19.3999 5.24996C19.3999 4.89098 19.1089 4.59996 18.7499 4.59996H15.4999C14.8924 4.59996 14.3999 4.10748 14.3999 3.49996ZM9.1744 11.1L7.99816 13.4116C8.60956 13.9376 9.08117 14.6214 9.34966 15.4H10.7961L12.7807 11.1H9.1744ZM4.9999 14.5004C3.67442 14.5004 2.5999 15.5749 2.5999 16.9004C2.5999 18.2258 3.67442 19.3004 4.9999 19.3004C6.32539 19.3004 7.3999 18.2258 7.3999 16.9004C7.3999 15.5749 6.32539 14.5004 4.9999 14.5004ZM18.9999 14.5004C17.6744 14.5004 16.5999 15.5749 16.5999 16.9004C16.5999 18.2258 17.6744 19.3004 18.9999 19.3004C20.3254 19.3004 21.3999 18.2258 21.3999 16.9004C21.3999 15.5749 20.3254 14.5004 18.9999 14.5004Z"  />
</svg>
