<svg width="24" height="24" viewBox="0 0 24 24" fill="currentColor" xmlns="http://www.w3.org/2000/svg">
<path d="M17.9999 16.75C17.9999 17.4404 17.4403 18 16.7499 18C16.0595 18 15.4999 17.4404 15.4999 16.75C15.4999 16.0597 16.0595 15.5 16.7499 15.5C17.4403 15.5 17.9999 16.0597 17.9999 16.75Z"  />
<path d="M13.2499 18C13.9403 18 14.4999 17.4404 14.4999 16.75C14.4999 16.0597 13.9403 15.5 13.2499 15.5C12.5595 15.5 11.9999 16.0597 11.9999 16.75C11.9999 17.4404 12.5595 18 13.2499 18Z"  />
<path fill-rule="evenodd" clip-rule="evenodd" d="M7.9999 1.40002C8.60742 1.40002 9.0999 1.89251 9.0999 2.50002V3.90002H14.8999V2.50002C14.8999 1.89251 15.3924 1.40002 15.9999 1.40002C16.6074 1.40002 17.0999 1.89251 17.0999 2.50002V3.90002H18.9999C20.712 3.90002 22.0999 5.28794 22.0999 7.00002V19C22.0999 20.7121 20.712 22.1 18.9999 22.1H4.9999C3.28782 22.1 1.8999 20.7121 1.8999 19V7.00002C1.8999 5.28794 3.28782 3.90002 4.9999 3.90002H6.8999V2.50002C6.8999 1.89251 7.39239 1.40002 7.9999 1.40002ZM4.9999 6.10002C4.50285 6.10002 4.0999 6.50297 4.0999 7.00002V8.40002H19.8999V7.00002C19.8999 6.50297 19.497 6.10002 18.9999 6.10002H4.9999ZM18.9999 19.9C19.497 19.9 19.8999 19.4971 19.8999 19V10.6H4.0999V19C4.0999 19.4971 4.50285 19.9 4.9999 19.9H18.9999Z"  />
</svg>
