<svg width="24" height="24" viewBox="0 0 24 24" fill="currentColor" xmlns="http://www.w3.org/2000/svg">
<path d="M16.7499 14.5C17.4403 14.5 17.9999 13.9404 17.9999 13.25C17.9999 12.5597 17.4403 12 16.7499 12C16.0595 12 15.4999 12.5597 15.4999 13.25C15.4999 13.9404 16.0595 14.5 16.7499 14.5Z"  />
<path d="M13.2499 18C13.9403 18 14.4999 17.4404 14.4999 16.75C14.4999 16.0597 13.9403 15.5 13.2499 15.5C12.5595 15.5 11.9999 16.0597 11.9999 16.75C11.9999 17.4404 12.5595 18 13.2499 18Z"  />
<path d="M17.9999 16.75C17.9999 17.4404 17.4403 18 16.7499 18C16.0595 18 15.4999 17.4404 15.4999 16.75C15.4999 16.0597 16.0595 15.5 16.7499 15.5C17.4403 15.5 17.9999 16.0597 17.9999 16.75Z"  />
<path d="M13.2499 14.5C13.9403 14.5 14.4999 13.9404 14.4999 13.25C14.4999 12.5597 13.9403 12 13.2499 12C12.5595 12 11.9999 12.5597 11.9999 13.25C11.9999 13.9404 12.5595 14.5 13.2499 14.5Z"  />
<path fill-rule="evenodd" clip-rule="evenodd" d="M4.9999 1.90002C3.28782 1.90002 1.8999 3.28794 1.8999 5.00002V19C1.8999 20.7121 3.28782 22.1 4.9999 22.1H18.9999C20.712 22.1 22.0999 20.7121 22.0999 19V5.00002C22.0999 3.28794 20.712 1.90002 18.9999 1.90002H4.9999ZM4.0999 5.00002C4.0999 4.50297 4.50285 4.10002 4.9999 4.10002H18.9999C19.497 4.10002 19.8999 4.50297 19.8999 5.00002V6.40002H4.0999V5.00002ZM19.8999 19C19.8999 19.4971 19.497 19.9 18.9999 19.9H4.9999C4.50285 19.9 4.0999 19.4971 4.0999 19V8.60002H19.8999V19Z"  />
</svg>
