<svg width="24" height="24" viewBox="0 0 24 24" fill="currentColor" xmlns="http://www.w3.org/2000/svg">
<g clip-path="url(#clip0_1346_2687)">
<path d="M10.1959 11.2605L11.0003 10.4561C11.4795 9.97689 11.5153 9.18724 11.0858 8.56893L10.5482 7.74167C9.97891 6.92212 8.85436 6.75001 8.21916 7.38521L7.52417 8.0802C6.83655 8.76782 6.89777 9.89476 7.29242 10.9689C7.69804 12.0729 8.50772 13.2934 9.60714 14.3928C10.7066 15.4922 11.927 16.3019 13.031 16.7075C14.1052 17.1022 15.2321 17.1634 15.9197 16.4758L16.6147 15.7808C17.2499 15.1456 17.0778 14.021 16.2583 13.4517L15.4292 12.9124C14.8109 12.4828 14.0212 12.5186 13.542 12.9978L12.7377 13.8022C12.727 13.7966 12.7158 13.7907 12.7042 13.7844C12.4735 13.659 12.0661 13.3808 11.3426 12.6573C10.6191 11.9339 10.3392 11.5247 10.2137 11.2939C10.2074 11.2823 10.2015 11.2712 10.1959 11.2605Z"  />
<path fill-rule="evenodd" clip-rule="evenodd" d="M0.899902 12C0.899902 5.86966 5.86954 0.900024 11.9999 0.900024C18.1303 0.900024 23.0999 5.86966 23.0999 12C23.0999 18.1304 18.1303 23.1 11.9999 23.1C5.86954 23.1 0.899902 18.1304 0.899902 12ZM11.9999 3.10002C7.08457 3.10002 3.0999 7.08469 3.0999 12C3.0999 16.9154 7.08457 20.9 11.9999 20.9C16.9152 20.9 20.8999 16.9154 20.8999 12C20.8999 7.08469 16.9152 3.10002 11.9999 3.10002Z"  />
</g>
<defs>
<clipPath id="clip0_1346_2687">
<rect width="24" height="24" fill="white"/>
</clipPath>
</defs>
</svg>
