<svg width="24" height="24" viewBox="0 0 24 24" fill="currentColor" xmlns="http://www.w3.org/2000/svg">
<path fill-rule="evenodd" clip-rule="evenodd" d="M9.34514 10.1787L10.3732 9.15065C11.4132 8.11061 11.5752 6.48133 10.7604 5.25681L9.50974 3.3773C8.42972 1.75425 6.13439 1.52597 4.75586 2.90451L3.24755 4.41282C1.75525 5.90511 1.75503 8.21776 2.44699 10.3844C3.15819 12.6113 4.688 15.0326 6.82771 17.1723C8.96743 19.312 11.3887 20.8418 13.6156 21.553C15.7822 22.245 18.0949 22.2447 19.5872 20.7525L21.0955 19.2441C22.474 17.8656 22.2458 15.5703 20.6227 14.4903L18.7432 13.2396C17.5187 12.4248 15.8894 12.5868 14.8493 13.6268L13.8213 14.6549C13.8026 14.6459 13.7832 14.6364 13.7631 14.6264L13.7545 14.622C13.2936 14.3897 12.4862 13.8628 11.3117 12.6883C10.1372 11.5138 9.61031 10.7064 9.37799 10.2455C9.37653 10.2426 9.37508 10.2398 9.37364 10.2369C9.36357 10.2168 9.35408 10.1974 9.34514 10.1787ZM17.5293 15.0639L19.4088 16.3145C19.88 16.6281 19.9463 17.2945 19.546 17.6947L18.0377 19.203C17.4231 19.8176 16.1728 20.0694 14.2822 19.4656C12.4519 18.8811 10.3216 17.5673 8.37716 15.6228C6.43268 13.6784 5.11894 11.5481 4.53437 9.71775C3.93057 7.82716 4.18236 6.5769 4.797 5.96227L6.3053 4.45396C6.70552 4.05374 7.37191 4.12001 7.68546 4.59122L8.93615 6.47074C9.17271 6.82624 9.12566 7.29926 8.82372 7.6012L7.33637 9.08855C7.14014 9.28478 7.02568 9.54817 7.01612 9.82552L7.01604 9.82793L7.01596 9.83037L7.01582 9.83532L7.01561 9.84554L7.01543 9.8672C7.01544 9.88217 7.01571 9.89823 7.01631 9.91535C7.01753 9.94961 7.02008 9.98806 7.02453 10.0307C7.03345 10.1161 7.04993 10.2176 7.07825 10.3353C7.13489 10.5708 7.23832 10.8689 7.42132 11.232C7.7857 11.9547 8.47175 12.9472 9.76227 14.2377C11.0528 15.5282 12.0453 16.2143 12.768 16.5787C13.1311 16.7617 13.4292 16.8651 13.6647 16.9218C13.7824 16.9501 13.8839 16.9665 13.9693 16.9755C14.0119 16.9799 14.0504 16.9825 14.0847 16.9837C14.1018 16.9843 14.1178 16.9846 14.1328 16.9846L14.1545 16.9844L14.1647 16.9842L14.1696 16.984L14.1721 16.984L14.1745 16.9839C14.4518 16.9743 14.7152 16.8599 14.9114 16.6636L16.3988 15.1763C16.7007 14.8743 17.1738 14.8273 17.5293 15.0639Z"  />
</svg>
