<svg width="24" height="24" viewBox="0 0 24 24" fill="currentColor" xmlns="http://www.w3.org/2000/svg">
<path fill-rule="evenodd" clip-rule="evenodd" d="M9.3999 13.4998C9.3999 11.2355 11.2355 9.39984 13.4999 9.39984C15.7643 9.39984 17.5999 11.2355 17.5999 13.4998C17.5999 15.7642 15.7643 17.5998 13.4999 17.5998C11.2355 17.5998 9.3999 15.7642 9.3999 13.4998ZM13.4999 11.5998C12.4506 11.5998 11.5999 12.4505 11.5999 13.4998C11.5999 14.5492 12.4506 15.3998 13.4999 15.3998C14.5492 15.3998 15.3999 14.5492 15.3999 13.4998C15.3999 12.4505 14.5492 11.5998 13.4999 11.5998Z"  />
<path d="M6.20445 11.9998C6.8948 11.9998 7.45445 11.4402 7.45445 10.7498C7.45445 10.0595 6.8948 9.49984 6.20445 9.49984C5.51409 9.49984 4.95445 10.0595 4.95445 10.7498C4.95445 11.4402 5.51409 11.9998 6.20445 11.9998Z"  />
<path fill-rule="evenodd" clip-rule="evenodd" d="M10.1817 2.39984C9.78057 2.39984 9.41123 2.61822 9.2179 2.9697L7.71316 5.7054H3.81808C2.20642 5.7054 0.899902 7.01191 0.899902 8.62358V18.6817C0.899902 20.2933 2.20642 21.5998 3.81808 21.5998H20.1817C21.7934 21.5998 23.0999 20.2933 23.0999 18.6817V8.62358C23.0999 7.01191 21.7934 5.7054 20.1817 5.7054H19.0139L17.5092 2.9697C17.3158 2.61822 16.9465 2.39984 16.5454 2.39984H10.1817ZM9.32736 7.33554L10.8321 4.59984H15.895L17.3997 7.33554C17.593 7.68702 17.9624 7.9054 18.3635 7.9054H20.1817C20.5784 7.9054 20.8999 8.22694 20.8999 8.62358V18.6817C20.8999 19.0783 20.5784 19.3998 20.1817 19.3998H3.81808C3.42144 19.3998 3.0999 19.0783 3.0999 18.6817V8.62358C3.0999 8.22694 3.42144 7.9054 3.81808 7.9054H8.36354C8.76469 7.9054 9.13403 7.68702 9.32736 7.33554Z"  />
</svg>
