<svg width="24" height="24" viewBox="0 0 24 24" fill="currentColor" xmlns="http://www.w3.org/2000/svg">
<path fill-rule="evenodd" clip-rule="evenodd" d="M2.01606 4.24464L0.487727 8.06854L0.40028 8.47085C0.400029 8.48052 0.399902 8.49023 0.399902 8.49996V16C0.399902 16.7608 0.804555 17.4272 1.4104 17.7956C1.5619 19.922 3.33494 21.6 5.4999 21.6C7.56045 21.6 9.26598 20.0799 9.55631 18.1H13.4435C13.7338 20.0799 15.4393 21.6 17.4999 21.6C19.7191 21.6 21.5265 19.8368 21.5977 17.635L23.2911 15.8818C23.4892 15.6767 23.5999 15.4027 23.5999 15.1176V12.1448C23.5999 10.9494 22.9125 9.86044 21.8333 9.34623L18.2725 7.64959L16.2441 4.2691C15.5483 3.10949 14.2951 2.39996 12.9428 2.39996H4.73989C3.54014 2.39996 2.46132 3.13058 2.01606 4.24464ZM3.12415 7.39996L4.05893 5.06113C4.17025 4.78262 4.43995 4.59996 4.73989 4.59996H7.39898V7.39996H3.12415ZM17.2512 9.59996L20.887 11.3323C21.2003 11.4816 21.3999 11.7977 21.3999 12.1448V14.6731L20.8931 15.1978C20.1554 14.1127 18.9109 13.4 17.4999 13.4C15.8032 13.4 14.3472 14.4306 13.7238 15.9H9.27597C8.65259 14.4306 7.1966 13.4 5.4999 13.4C4.36728 13.4 3.34192 13.8592 2.5999 14.6017V9.59996H17.2512ZM14.3577 5.40102L15.5571 7.39996H9.59898V4.59996H12.9428C13.5224 4.59996 14.0595 4.90405 14.3577 5.40102ZM5.4999 19.4C4.45056 19.4 3.5999 18.5493 3.5999 17.5C3.5999 16.4506 4.45056 15.6 5.4999 15.6C6.54924 15.6 7.3999 16.4506 7.3999 17.5C7.3999 18.5493 6.54924 19.4 5.4999 19.4ZM15.5999 17.5C15.5999 16.4506 16.4506 15.6 17.4999 15.6C18.5492 15.6 19.3999 16.4506 19.3999 17.5C19.3999 18.5493 18.5492 19.4 17.4999 19.4C16.4506 19.4 15.5999 18.5493 15.5999 17.5Z"  />
</svg>
