<svg width="24" height="24" viewBox="0 0 24 24" fill="currentColor" xmlns="http://www.w3.org/2000/svg">
<g clip-path="url(#clip0_1346_2723)">
<path d="M7.72208 7.72221C8.15166 7.29263 8.84814 7.29263 9.27772 7.72221L11.9999 10.4444L14.7221 7.72221C15.1517 7.29263 15.8481 7.29263 16.2777 7.72221C16.7073 8.15178 16.7073 8.84826 16.2777 9.27784L13.5555 12L16.2777 14.7222C16.7073 15.1518 16.7073 15.8483 16.2777 16.2778C15.8481 16.7074 15.1517 16.7074 14.7221 16.2778L11.9999 13.5557L9.27772 16.2778C8.84814 16.7074 8.15166 16.7074 7.72208 16.2778C7.29251 15.8483 7.29251 15.1518 7.72208 14.7222L10.4443 12L7.72208 9.27784C7.29251 8.84826 7.29251 8.15178 7.72208 7.72221Z"  />
<path fill-rule="evenodd" clip-rule="evenodd" d="M0.899902 12C0.899902 5.86966 5.86954 0.900024 11.9999 0.900024C18.1303 0.900024 23.0999 5.86966 23.0999 12C23.0999 18.1304 18.1303 23.1 11.9999 23.1C5.86954 23.1 0.899902 18.1304 0.899902 12ZM11.9999 3.10002C7.08457 3.10002 3.0999 7.08469 3.0999 12C3.0999 16.9154 7.08457 20.9 11.9999 20.9C16.9152 20.9 20.8999 16.9154 20.8999 12C20.8999 7.08469 16.9152 3.10002 11.9999 3.10002Z"  />
</g>
<defs>
<clipPath id="clip0_1346_2723">
<rect width="24" height="24" fill="white"/>
</clipPath>
</defs>
</svg>
