<svg width="24" height="24" viewBox="0 0 24 24" fill="currentColor" xmlns="http://www.w3.org/2000/svg">
<path fill-rule="evenodd" clip-rule="evenodd" d="M8.83333 5.66667C8.83333 3.91776 10.2511 2.5 12 2.5H18.3333C20.0822 2.5 21.5 3.91777 21.5 5.66667V12C21.5 13.7489 20.0822 15.1667 18.3333 15.1667H12C10.2511 15.1667 8.83333 13.7489 8.83333 12V5.66667ZM12 4.61111C11.417 4.61111 10.9444 5.0837 10.9444 5.66667V12C10.9444 12.583 11.417 13.0556 12 13.0556H18.3333C18.9163 13.0556 19.3889 12.583 19.3889 12V5.66667C19.3889 5.0837 18.9163 4.61111 18.3333 4.61111H12Z"  />
<path d="M5.66667 10.9444C5.0837 10.9444 4.61111 11.417 4.61111 12V18.3333C4.61111 18.9163 5.0837 19.3889 5.66667 19.3889H12C12.583 19.3889 13.0556 18.9163 13.0556 18.3333V17.5123H15.1667V18.3333C15.1667 20.0822 13.7489 21.5 12 21.5H5.66667C3.91776 21.5 2.5 20.0822 2.5 18.3333V12C2.5 10.2511 3.91776 8.83333 5.66667 8.83333H6.48765V10.9444H5.66667Z"  />
</svg>
