<svg width="24" height="24" viewBox="0 0 24 24" fill="currentColor" xmlns="http://www.w3.org/2000/svg">
<path fill-rule="evenodd" clip-rule="evenodd" d="M1 6.06593C1 4.37266 2.37541 3 4.07207 3H19.9279C21.6246 3 23 4.37267 23 6.06593V17.9341C23 19.6273 21.6246 21 19.9279 21H4.07207C2.37541 21 1 19.6273 1 17.9341V6.06593ZM4.07207 5.17582C3.57949 5.17582 3.18018 5.57434 3.18018 6.06593V8H20.8198V6.06593C20.8198 5.57434 20.4205 5.17582 19.9279 5.17582H4.07207ZM19.9279 18.8242C20.4205 18.8242 20.8198 18.4257 20.8198 17.9341V10H3.18018V17.9341C3.18018 18.4257 3.57949 18.8242 4.07207 18.8242H19.9279Z"  />
</svg>
