<svg width="24" height="24" viewBox="0 0 24 24" fill="currentColor" xmlns="http://www.w3.org/2000/svg">
<path d="M9.82199 8.22221C10.2516 7.79263 10.948 7.79263 11.3776 8.22221L13.5998 10.4444L15.822 8.22221C16.2516 7.79263 16.948 7.79263 17.3776 8.22221C17.8072 8.65178 17.8072 9.34827 17.3776 9.77784L15.1554 12L17.3776 14.2222C17.8072 14.6518 17.8072 15.3483 17.3776 15.7778C16.948 16.2074 16.2516 16.2074 15.822 15.7778L13.5998 13.5557L11.3776 15.7778C10.948 16.2074 10.2516 16.2074 9.82199 15.7778C9.39241 15.3483 9.39241 14.6518 9.82199 14.2222L12.0442 12L9.82199 9.77784C9.39241 9.34827 9.39241 8.65178 9.82199 8.22221Z"  />
<path fill-rule="evenodd" clip-rule="evenodd" d="M4.97951 4.35703C5.546 3.45064 6.53945 2.90002 7.6083 2.90002H19.9998C21.7119 2.90002 23.0998 4.28794 23.0998 6.00002V18C23.0998 19.7121 21.7119 21.1 19.9998 21.1H7.6083C6.53945 21.1 5.546 20.5494 4.97951 19.643L1.22951 13.643C0.601232 12.6378 0.601233 11.3623 1.22951 10.357L4.97951 4.35703ZM7.6083 5.10002C7.29799 5.10002 7.00957 5.25988 6.8451 5.52302L3.0951 11.523C2.9127 11.8149 2.9127 12.1852 3.0951 12.477L6.8451 18.477C7.00957 18.7402 7.29799 18.9 7.6083 18.9H19.9998C20.4969 18.9 20.8998 18.4971 20.8998 18V6.00002C20.8998 5.50297 20.4969 5.10002 19.9998 5.10002H7.6083Z"  />
</svg>
