<svg width="24" height="24" viewBox="0 0 24 24" fill="currentColor" xmlns="http://www.w3.org/2000/svg">
<path fill-rule="evenodd" clip-rule="evenodd" d="M1.8999 3.50002C1.8999 2.89251 2.39239 2.40002 2.9999 2.40002H13.9999C15.5937 2.40002 16.9065 3.60272 17.0804 5.15002H19.1711C20.4193 5.15002 21.5458 5.89872 22.0292 7.0496L23.6145 10.8241C23.6711 10.9589 23.7003 11.1037 23.7003 11.25V15.25C23.7003 16.9621 22.3124 18.35 20.6003 18.35H20.5985C20.5456 20.292 18.9547 21.85 16.9999 21.85C15.0451 21.85 13.4542 20.292 13.4013 18.35H8.09854C8.04558 20.292 6.45469 21.85 4.4999 21.85C2.51168 21.85 0.899902 20.2383 0.899902 18.25C0.899902 16.2618 2.51168 14.65 4.4999 14.65C5.70442 14.65 6.77077 15.2416 7.42427 16.15H14.0755C14.3038 15.8327 14.5825 15.554 14.8999 15.3257V5.50002C14.8999 5.00297 14.497 4.60002 13.9999 4.60002H2.9999C2.39239 4.60002 1.8999 4.10754 1.8999 3.50002ZM17.0999 14.6514C18.2633 14.6831 19.2889 15.2668 19.9243 16.15H20.6003C21.0974 16.15 21.5003 15.7471 21.5003 15.25V12.35H17.0999V14.6514ZM20.0008 7.90152C19.8605 7.56739 19.5335 7.35002 19.1711 7.35002H17.0999V10.15H20.9452L20.0008 7.90152ZM3.0999 18.25C3.0999 19.0232 3.7267 19.65 4.4999 19.65C5.2731 19.65 5.8999 19.0232 5.8999 18.25C5.8999 17.4768 5.2731 16.85 4.4999 16.85C3.7267 16.85 3.0999 17.4768 3.0999 18.25ZM15.5999 18.25C15.5999 19.0232 16.2267 19.65 16.9999 19.65C17.7731 19.65 18.3999 19.0232 18.3999 18.25C18.3999 17.4768 17.7731 16.85 16.9999 16.85C16.2267 16.85 15.5999 17.4768 15.5999 18.25Z"  />
<path d="M0.399902 8.00002C0.399902 7.39251 0.892389 6.90002 1.4999 6.90002L7.9999 6.90002C8.60742 6.90002 9.0999 7.39251 9.0999 8.00003C9.0999 8.60754 8.60742 9.10003 7.9999 9.10003L1.4999 9.10002C0.892389 9.10002 0.399902 8.60754 0.399902 8.00002Z"  />
<path d="M1.8999 12C1.8999 11.3925 2.39239 10.9 2.9999 10.9L9.9999 10.9C10.6074 10.9 11.0999 11.3925 11.0999 12C11.0999 12.6075 10.6074 13.1 9.9999 13.1H2.9999C2.39239 13.1 1.8999 12.6075 1.8999 12Z"  />
</svg>
