<svg width="24" height="24" viewBox="0 0 24 24" fill="currentColor" xmlns="http://www.w3.org/2000/svg">
<path d="M7.6499 8.00002C7.6499 7.39251 8.14239 6.90002 8.7499 6.90002H15.2499C15.8574 6.90002 16.3499 7.39251 16.3499 8.00002C16.3499 8.60754 15.8574 9.10002 15.2499 9.10002H8.7499C8.14239 9.10002 7.6499 8.60754 7.6499 8.00002Z"  />
<path d="M7.6499 12C7.6499 11.3925 8.14239 10.9 8.7499 10.9H15.2499C15.8574 10.9 16.3499 11.3925 16.3499 12C16.3499 12.6075 15.8574 13.1 15.2499 13.1H8.7499C8.14239 13.1 7.6499 12.6075 7.6499 12Z"  />
<path d="M8.7499 14.9C8.14239 14.9 7.6499 15.3925 7.6499 16C7.6499 16.6075 8.14239 17.1 8.7499 17.1H11.7499C12.3574 17.1 12.8499 16.6075 12.8499 16C12.8499 15.3925 12.3574 14.9 11.7499 14.9H8.7499Z"  />
<path fill-rule="evenodd" clip-rule="evenodd" d="M2.8999 4.50002C2.8999 2.78794 4.28782 1.40002 5.9999 1.40002H17.9999C19.712 1.40002 21.0999 2.78794 21.0999 4.50002V20.5C21.0999 21.6598 20.1597 22.6 18.9999 22.6H4.9999C3.8401 22.6 2.8999 21.6598 2.8999 20.5V4.50002ZM5.9999 3.60002C5.50285 3.60002 5.0999 4.00297 5.0999 4.50002V20.4H18.8999V4.50002C18.8999 4.00297 18.497 3.60002 17.9999 3.60002H5.9999Z"  />
</svg>
