<svg width="24" height="24" viewBox="0 0 24 24" fill="currentColor" xmlns="http://www.w3.org/2000/svg">
<g clip-path="url(#clip0_1346_2659)">
<path d="M9.27772 12.2222C8.84814 11.7926 8.15166 11.7926 7.72208 12.2222C7.29251 12.6518 7.29251 13.3483 7.72208 13.7778L11.2221 17.2778C11.6517 17.7074 12.3481 17.7074 12.7777 17.2778L16.2777 13.7778C16.7073 13.3483 16.7073 12.6518 16.2777 12.2222C15.8481 11.7926 15.1517 11.7926 14.7221 12.2222L13.0999 13.8444V7.50002C13.0999 6.89251 12.6074 6.40002 11.9999 6.40002C11.3924 6.40002 10.8999 6.89251 10.8999 7.50002L10.8999 13.8444L9.27772 12.2222Z"  />
<path fill-rule="evenodd" clip-rule="evenodd" d="M11.9999 0.900024C5.86954 0.900024 0.899902 5.86966 0.899902 12C0.899902 18.1304 5.86954 23.1 11.9999 23.1C18.1303 23.1 23.0999 18.1304 23.0999 12C23.0999 5.86966 18.1303 0.900024 11.9999 0.900024ZM3.0999 12C3.0999 7.08469 7.08457 3.10002 11.9999 3.10002C16.9152 3.10002 20.8999 7.08469 20.8999 12C20.8999 16.9154 16.9152 20.9 11.9999 20.9C7.08457 20.9 3.0999 16.9154 3.0999 12Z"  />
</g>
<defs>
<clipPath id="clip0_1346_2659">
<rect width="24" height="24" fill="white"/>
</clipPath>
</defs>
</svg>
