<svg width="16" height="16" viewBox="0 0 16 16" fill="currentColor" xmlns="http://www.w3.org/2000/svg">
<path fill-rule="evenodd" clip-rule="evenodd" d="M14.2066 5.26236C14.9877 4.48131 14.9877 3.21498 14.2066 2.43393L13.7373 1.96464C12.9563 1.18359 11.69 1.1836 10.9089 1.96464L2.46643 10.4071C2.20066 10.6729 2.01515 11.0082 1.93119 11.3746L1.55416 13.0196C1.33443 13.9784 2.19293 14.8369 3.15166 14.6171L4.79672 14.2401C5.16308 14.1561 5.49837 13.9706 5.76414 13.7049L14.2066 5.26236ZM13.2638 3.37674C13.5242 3.63709 13.5242 4.0592 13.2638 4.31955L11.5917 5.9917L10.1796 4.57961L11.8517 2.90745C12.1121 2.6471 12.5342 2.6471 12.7945 2.90745L13.2638 3.37674ZM9.23677 5.52242L10.6489 6.93451L4.82133 12.762C4.73274 12.8506 4.62098 12.9125 4.49886 12.9405L2.8538 13.3175L3.23082 11.6724C3.25881 11.5503 3.32065 11.4385 3.40924 11.3499L9.23677 5.52242Z" />
</svg>
