<svg width="24" height="24" viewBox="0 0 24 24" fill="currentColor" xmlns="http://www.w3.org/2000/svg">
<g clip-path="url(#clip0_1346_2632)">
<path d="M10.0999 7.50002C10.0999 6.89251 9.60742 6.40002 8.99991 6.40002C8.3924 6.40002 7.89991 6.89251 7.89991 7.50002L7.89991 13.8444L7.77772 13.7222C7.34814 13.2926 6.65166 13.2926 6.22208 13.7222C5.79251 14.1518 5.79251 14.8483 6.22208 15.2778L8.22208 17.2778C8.42838 17.4841 8.70816 17.6 8.9999 17.6C9.29164 17.6 9.57143 17.4841 9.77772 17.2778L11.7777 15.2778C12.2073 14.8483 12.2073 14.1518 11.7777 13.7222C11.3481 13.2926 10.6517 13.2926 10.2221 13.7222L10.0999 13.8444V7.50002Z"  />
<path d="M15.7777 6.72221C15.5714 6.51592 15.2916 6.40002 14.9999 6.40002C14.7082 6.40002 14.4284 6.51592 14.2221 6.72221L12.2221 8.72221C11.7925 9.15178 11.7925 9.84826 12.2221 10.2778C12.6517 10.7074 13.3481 10.7074 13.7777 10.2778L13.8999 10.1557V16.5C13.8999 17.1075 14.3924 17.6 14.9999 17.6C15.6074 17.6 16.0999 17.1075 16.0999 16.5L16.0999 10.1557L16.2221 10.2778C16.6517 10.7074 17.3481 10.7074 17.7777 10.2778C18.2073 9.84826 18.2073 9.15178 17.7777 8.72221L15.7777 6.72221Z"  />
<path fill-rule="evenodd" clip-rule="evenodd" d="M23.0999 12C23.0999 5.86966 18.1303 0.900024 11.9999 0.900024C5.86954 0.900024 0.899902 5.86966 0.899902 12C0.899902 18.1304 5.86954 23.1 11.9999 23.1C18.1303 23.1 23.0999 18.1304 23.0999 12ZM11.9999 20.9C7.08457 20.9 3.0999 16.9154 3.0999 12C3.0999 7.08469 7.08457 3.10002 11.9999 3.10002C16.9152 3.10002 20.8999 7.08469 20.8999 12C20.8999 16.9154 16.9152 20.9 11.9999 20.9Z"  />
</g>
<defs>
<clipPath id="clip0_1346_2632">
<rect width="24" height="24" fill="white"/>
</clipPath>
</defs>
</svg>
