<svg width="24" height="24" viewBox="0 0 24 24" fill="currentColor" xmlns="http://www.w3.org/2000/svg">
<path fill-rule="evenodd" clip-rule="evenodd" d="M21.9701 3.44401C22.3997 3.87359 22.3997 4.57007 21.9701 4.99964L19.9478 7.02192C21.158 8.27146 22.1954 9.80046 22.9985 11.5387C23.1337 11.8314 23.1337 12.1686 22.9985 12.4613C20.7343 17.3622 16.6064 20.6 11.9994 20.6C10.4106 20.6 8.87882 20.2148 7.46074 19.509L4.99955 21.9702C4.56997 22.3998 3.87349 22.3998 3.44391 21.9702C3.01433 21.5406 3.01433 20.8441 3.44391 20.4146L20.4145 3.44401C20.844 3.01443 21.5405 3.01443 21.9701 3.44401ZM18.3939 8.5759L15.5529 11.4168C15.5838 11.6067 15.5999 11.8014 15.5999 12C15.5999 13.9882 13.9881 15.6 11.9999 15.6C11.8014 15.6 11.6066 15.5839 11.4167 15.553L9.12834 17.8414C10.0632 18.2095 11.0304 18.4 11.9994 18.4C15.3779 18.4 18.7326 16.0861 20.7793 12C20.1093 10.6624 19.2991 9.51468 18.3939 8.5759Z"  />
<path d="M11.9994 5.6C12.9683 5.6 13.9353 5.79032 14.8701 6.15819L16.5378 4.49049C15.1198 3.78502 13.5881 3.4 11.9994 3.4C7.3933 3.4 3.26547 6.63783 1.00132 11.5387C0.866096 11.8314 0.866096 12.1686 1.00132 12.4613C1.80416 14.1991 2.84134 15.7278 4.05106 16.9772L5.60504 15.4232C4.70015 14.4846 3.89028 13.3372 3.22048 12C5.26724 7.91383 8.62188 5.6 11.9994 5.6Z"  />
<path d="M12.5815 8.44674C12.3922 8.41599 12.1979 8.4 11.9999 8.4C10.0117 8.4 8.3999 10.0118 8.3999 12C8.3999 12.198 8.41589 12.3923 8.44664 12.5816L12.5815 8.44674Z"  />
</svg>
