<svg width="24" height="24" viewBox="0 0 24 24" fill="currentColor" xmlns="http://www.w3.org/2000/svg">
<path fill-rule="evenodd" clip-rule="evenodd" d="M8.39979 12C8.39979 10.0118 10.0116 8.40002 11.9998 8.40002C13.988 8.40002 15.5998 10.0118 15.5998 12C15.5998 13.9882 13.988 15.6 11.9998 15.6C10.0116 15.6 8.39979 13.9882 8.39979 12ZM11.9998 10.6C11.2266 10.6 10.5998 11.2268 10.5998 12C10.5998 12.7732 11.2266 13.4 11.9998 13.4C12.773 13.4 13.3998 12.7732 13.3998 12C13.3998 11.2268 12.773 10.6 11.9998 10.6Z"  />
<path fill-rule="evenodd" clip-rule="evenodd" d="M1.43776 10.657C3.76813 6.25768 7.67565 3.40002 11.9993 3.40002C16.3238 3.40002 20.2314 6.25761 22.5618 10.657C23.0068 11.4972 23.0068 12.5029 22.5618 13.343C20.2314 17.7424 16.3238 20.6 11.9993 20.6C7.67565 20.6 3.76813 17.7424 1.43776 13.343C0.992752 12.5029 0.992752 11.4972 1.43776 10.657ZM11.9993 5.60002C8.70857 5.60002 5.44516 7.79167 3.38186 11.6868C3.27805 11.8828 3.27805 12.1172 3.38186 12.3132C5.44516 16.2084 8.70857 18.4 11.9993 18.4C15.291 18.4 18.5545 16.2083 20.6177 12.3132C20.7215 12.1172 20.7215 11.8828 20.6177 11.6869C18.5545 7.79174 15.291 5.60002 11.9993 5.60002Z"  />
</svg>
