<svg width="24" height="24" viewBox="0 0 24 24" fill="currentColor" xmlns="http://www.w3.org/2000/svg">
<g clip-path="url(#clip0_1346_2623)">
<path d="M6.8999 9.00002C6.8999 8.39251 7.39239 7.90002 7.9999 7.90002H15.9999C16.6074 7.90002 17.0999 8.39251 17.0999 9.00002C17.0999 9.60754 16.6074 10.1 15.9999 10.1H7.9999C7.39239 10.1 6.8999 9.60754 6.8999 9.00002Z"  />
<path d="M7.8999 12.5C7.8999 11.8925 8.39239 11.4 8.9999 11.4H14.9999C15.6074 11.4 16.0999 11.8925 16.0999 12.5C16.0999 13.1075 15.6074 13.6 14.9999 13.6H8.9999C8.39239 13.6 7.8999 13.1075 7.8999 12.5Z"  />
<path d="M9.9999 14.9C9.39239 14.9 8.8999 15.3925 8.8999 16C8.8999 16.6075 9.39239 17.1 9.9999 17.1H13.9999C14.6074 17.1 15.0999 16.6075 15.0999 16C15.0999 15.3925 14.6074 14.9 13.9999 14.9H9.9999Z"  />
<path fill-rule="evenodd" clip-rule="evenodd" d="M0.899902 12C0.899902 5.86966 5.86954 0.900024 11.9999 0.900024C18.1303 0.900024 23.0999 5.86966 23.0999 12C23.0999 18.1304 18.1303 23.1 11.9999 23.1C5.86954 23.1 0.899902 18.1304 0.899902 12ZM11.9999 3.10002C7.08457 3.10002 3.0999 7.08469 3.0999 12C3.0999 16.9154 7.08457 20.9 11.9999 20.9C16.9152 20.9 20.8999 16.9154 20.8999 12C20.8999 7.08469 16.9152 3.10002 11.9999 3.10002Z"  />
</g>
<defs>
<clipPath id="clip0_1346_2623">
<rect width="24" height="24" fill="white"/>
</clipPath>
</defs>
</svg>
