<svg width="24" height="24" viewBox="0 0 24 24" fill="currentColor" xmlns="http://www.w3.org/2000/svg">
<path fill-rule="evenodd" clip-rule="evenodd" d="M5.41723 2.05659C5.51091 1.53197 5.96718 1.14996 6.5001 1.14996H17.5001C18.033 1.14996 18.4893 1.53197 18.583 2.05659L19.8232 9.00185C20.5846 13.2659 17.3877 17.1886 13.0999 17.3451V20.65H16.4999C17.1074 20.65 17.5999 21.1425 17.5999 21.75C17.5999 22.3575 17.1074 22.85 16.4999 22.85H7.5001C6.89258 22.85 6.4001 22.3575 6.4001 21.75C6.4001 21.1425 6.89258 20.65 7.5001 20.65H10.8999V17.3451C6.61231 17.1884 3.41559 13.2658 4.177 9.00185L5.41723 2.05659ZM7.42114 3.34996L6.34281 9.38859C5.8065 12.3919 8.11563 15.15 11.1665 15.15H12.8338C15.8847 15.15 18.1938 12.3919 17.6575 9.38859L16.5792 3.34996H13.6476L12.3699 5.64996H13.5004C13.8925 5.64996 14.255 5.85869 14.4518 6.19784C14.6486 6.53699 14.65 6.95526 14.4555 7.29571L12.4555 10.7957C12.154 11.3232 11.4821 11.5064 10.9546 11.205C10.4272 10.9036 10.2439 10.2317 10.5453 9.70421L11.6049 7.84996H10.5004C10.1106 7.84996 9.74999 7.64371 9.55233 7.3078C9.35468 6.97188 9.34954 6.55646 9.53882 6.21575L11.1309 3.34996H7.42114Z"  />
</svg>
