<svg width="17" height="16" viewBox="0 0 17 16" fill="currentColor" xmlns="http://www.w3.org/2000/svg">
<path fill-rule="evenodd" clip-rule="evenodd" d="M4.24695 4.89274C4.50084 5.07634 4.76702 5.24392 5.04405 5.39399C5.19375 4.72409 5.40061 4.10699 5.65623 3.56607C5.10884 3.91787 4.63071 4.36838 4.24695 4.89274ZM8.49994 1.2666C5.98132 1.2666 3.78671 2.64977 2.6326 4.69443C2.08106 5.67154 1.7666 6.80012 1.7666 7.99994C1.7666 8.58086 1.84034 9.14562 1.97934 9.68493C2.72754 12.5878 5.36226 14.7333 8.49994 14.7333C11.6376 14.7333 14.2723 12.5878 15.0205 9.68493C15.1595 9.14562 15.2333 8.58086 15.2333 7.99994C15.2333 6.80012 14.9188 5.67154 14.3673 4.69443C13.2132 2.64977 11.0186 1.2666 8.49994 1.2666ZM8.49994 2.73327C8.09892 2.73327 7.53844 3.07742 7.03453 4.08525C6.77557 4.60318 6.56357 5.24207 6.42283 5.96559C7.08082 6.16146 7.77795 6.2666 8.49994 6.2666C9.22192 6.2666 9.91905 6.16146 10.577 5.96559C10.4363 5.24207 10.2243 4.60318 9.96534 4.08525C9.46143 3.07742 8.90096 2.73327 8.49994 2.73327ZM11.9558 5.39399C11.8061 4.72409 11.5993 4.10699 11.3436 3.56607C11.891 3.91787 12.3692 4.36838 12.7529 4.89274C12.499 5.07634 12.2328 5.24392 11.9558 5.39399ZM10.7529 7.43974C10.034 7.63119 9.27878 7.73327 8.49994 7.73327C7.72109 7.73327 6.96585 7.63119 6.247 7.43974C6.23794 7.62349 6.23327 7.81037 6.23327 7.99994C6.23327 8.74204 6.30481 9.44276 6.43129 10.0772C7.10167 10.2016 7.79307 10.2666 8.49994 10.2666C9.2068 10.2666 9.8982 10.2016 10.5686 10.0772C10.6951 9.44276 10.7666 8.74204 10.7666 7.99994C10.7666 7.81037 10.7619 7.6235 10.7529 7.43974ZM12.1224 9.67182C12.1951 9.13516 12.2333 8.57454 12.2333 7.99994C12.2333 7.63294 12.2177 7.27164 12.1875 6.91865C12.6297 6.71241 13.0517 6.47026 13.4498 6.19598C13.6547 6.7582 13.7666 7.3655 13.7666 7.99994C13.7666 8.34719 13.7331 8.686 13.6693 9.01352C13.174 9.26975 12.6573 9.49033 12.1224 9.67182ZM10.0958 11.6342C9.57295 11.6996 9.04031 11.7333 8.49994 11.7333C7.95956 11.7333 7.42692 11.6996 6.90404 11.6342C6.94604 11.7312 6.98957 11.8247 7.03453 11.9146C7.53844 12.9224 8.09892 13.2666 8.49994 13.2666C8.90096 13.2666 9.46143 12.9224 9.96534 11.9146C10.0103 11.8247 10.0538 11.7312 10.0958 11.6342ZM11.3437 12.4336C11.5072 12.0877 11.6507 11.7108 11.772 11.3087C12.1379 11.2117 12.4973 11.0988 12.8495 10.9708C12.4508 11.5533 11.9382 12.0516 11.3437 12.4336ZM5.65614 12.4336C5.49271 12.0877 5.34922 11.7108 5.22785 11.3087C4.86199 11.2117 4.50256 11.0988 4.15036 10.9708C4.54903 11.5533 5.06169 12.0516 5.65614 12.4336ZM3.33057 9.01352C3.82586 9.26975 4.3426 9.49033 4.87747 9.67182C4.80476 9.13516 4.7666 8.57454 4.7666 7.99994C4.7666 7.63294 4.78217 7.27164 4.81236 6.91865C4.3702 6.71241 3.94818 6.47026 3.55011 6.19598C3.34516 6.7582 3.23327 7.3655 3.23327 7.99994C3.23327 8.34719 3.26678 8.686 3.33057 9.01352Z" />
</svg>
