<svg width="24" height="24" viewBox="0 0 24 24" fill="currentColor" xmlns="http://www.w3.org/2000/svg">
<path fill-rule="evenodd" clip-rule="evenodd" d="M1.3999 9.76433C1.3999 5.94493 4.34624 3.19995 7.54678 3.19995C8.77559 3.19995 9.86333 3.70761 10.7427 4.36326C11.2036 4.70689 11.6243 5.10341 11.9999 5.51973C12.3754 5.10341 12.7962 4.7069 13.2571 4.36326C14.1365 3.70761 15.2242 3.19995 16.453 3.19995C19.6535 3.19995 22.5999 5.94493 22.5999 9.76433C22.5999 13.7291 19.8442 16.9022 17.6135 18.8687C16.4431 19.9004 15.2822 20.7182 14.4183 21.2767C14.1496 21.4504 13.6357 21.7152 13.2488 21.91C13.0427 22.0138 12.8504 22.1088 12.7099 22.1776C12.6396 22.2121 12.5819 22.2402 12.5417 22.2597L12.495 22.2824L12.4783 22.2905C12.1763 22.4362 11.8239 22.4363 11.5219 22.2907L11.5048 22.2824L11.4581 22.2597C11.4179 22.2402 11.3602 22.2121 11.2899 22.1776C11.1494 22.1088 10.9571 22.0138 10.751 21.91C10.3641 21.7152 9.85016 21.4504 9.58156 21.2767C8.71761 20.7182 7.55672 19.9005 6.38632 18.8688C4.15561 16.9023 1.3999 13.7291 1.3999 9.76433ZM12.0001 20.0781C12.0001 20.0781 13.1824 19.3875 13.5337 19.1604C14.2347 18.7072 15.1729 18.0459 16.1148 17.2157C17.9555 15.5929 20.4 12.9646 20.4 10.0499C20.4 7.32555 18.6642 5.3999 16.5 5.3999C15.5701 5.3999 14 6.29993 13 7.79993C12.7125 8.08743 12.5903 8.20962 12.4433 8.28004C12.3347 8.33208 12.2125 8.35585 12 8.39717C11.7875 8.35585 11.6653 8.33208 11.5567 8.28004C11.4097 8.20962 11.2875 8.08743 11 7.79993C10 6.29993 8.42993 5.3999 7.5001 5.3999C5.33589 5.3999 3.6001 7.32555 3.6001 10.0499C3.6001 12.9646 6.04469 15.5929 7.8854 17.2157C8.82727 18.0459 9.76548 18.7072 10.4665 19.1604C10.8178 19.3875 12.0001 20.0781 12.0001 20.0781Z"  />
</svg>
