<svg width="24" height="24" viewBox="0 0 24 24" fill="currentColor" xmlns="http://www.w3.org/2000/svg">
<path fill-rule="evenodd" clip-rule="evenodd" d="M10.2803 2.32436C11.3216 1.63016 12.6782 1.63016 13.7195 2.32436L21.2195 7.32436C22.0819 7.8993 22.5999 8.86722 22.5999 9.90371V19.5C22.5999 21.2121 21.212 22.6 19.4999 22.6L14.6388 22.6C14.3471 22.6 14.0673 22.4841 13.861 22.2778C13.6547 22.0715 13.5388 21.7917 13.5388 21.5V16.2667H10.461V21.5C10.461 21.7917 10.3451 22.0715 10.1388 22.2778C9.93254 22.4841 9.65275 22.6 9.36101 22.6L4.49989 22.6C2.78781 22.6 1.3999 21.2121 1.3999 19.5V9.90371C1.3999 8.86722 1.91792 7.8993 2.78033 7.32436L10.2803 2.32436ZM12.4991 4.15487C12.1968 3.95333 11.803 3.95333 11.5007 4.15487L4.00067 9.15487C3.75029 9.32178 3.5999 9.60279 3.5999 9.90371V19.5C3.5999 19.997 4.00284 20.4 4.4999 20.4L8.26101 20.4V15.1667C8.26101 14.5592 8.7535 14.0667 9.36101 14.0667H14.6388C15.2463 14.0667 15.7388 14.5592 15.7388 15.1667V20.4L19.4999 20.4C19.997 20.4 20.3999 19.997 20.3999 19.5V9.90371C20.3999 9.60279 20.2495 9.32178 19.9991 9.15487L12.4991 4.15487Z"  />
</svg>
