<svg width="24" height="24" viewBox="0 0 24 24" fill="currentColor" xmlns="http://www.w3.org/2000/svg">
<g clip-path="url(#clip0_1346_2732)">
<path d="M11.9999 9.00002C12.6903 9.00002 13.2499 8.44038 13.2499 7.75002C13.2499 7.05967 12.6903 6.50002 11.9999 6.50002C11.3095 6.50002 10.7499 7.05967 10.7499 7.75002C10.7499 8.44038 11.3095 9.00002 11.9999 9.00002Z"  />
<path d="M11.9999 9.90002C12.6074 9.90002 13.0999 10.3925 13.0999 11V17C13.0999 17.6075 12.6074 18.1 11.9999 18.1C11.3924 18.1 10.8999 17.6075 10.8999 17V11C10.8999 10.3925 11.3924 9.90002 11.9999 9.90002Z"  />
<path fill-rule="evenodd" clip-rule="evenodd" d="M11.9999 0.900024C5.86954 0.900024 0.899902 5.86966 0.899902 12C0.899902 18.1304 5.86954 23.1 11.9999 23.1C18.1303 23.1 23.0999 18.1304 23.0999 12C23.0999 5.86966 18.1303 0.900024 11.9999 0.900024ZM3.0999 12C3.0999 7.08469 7.08457 3.10002 11.9999 3.10002C16.9152 3.10002 20.8999 7.08469 20.8999 12C20.8999 16.9154 16.9152 20.9 11.9999 20.9C7.08457 20.9 3.0999 16.9154 3.0999 12Z"  />
</g>
<defs>
<clipPath id="clip0_1346_2732">
<rect width="24" height="24" fill="white"/>
</clipPath>
</defs>
</svg>
