<svg width="24" height="24" viewBox="0 0 24 24" fill="currentColor" xmlns="http://www.w3.org/2000/svg">
<g clip-path="url(#clip0_1346_2668)">
<path d="M11.7777 7.72221C12.2073 8.15178 12.2073 8.84826 11.7777 9.27784L10.1555 10.9L16.4999 10.9C17.1074 10.9 17.5999 11.3925 17.5999 12C17.5999 12.6075 17.1074 13.1 16.4999 13.1H10.1555L11.7777 14.7222C12.2073 15.1518 12.2073 15.8483 11.7777 16.2778C11.3481 16.7074 10.6517 16.7074 10.2221 16.2778L6.72208 12.7778C6.29251 12.3483 6.29251 11.6518 6.72208 11.2222L10.2221 7.72221C10.6517 7.29263 11.3481 7.29263 11.7777 7.72221Z"  />
<path fill-rule="evenodd" clip-rule="evenodd" d="M11.9999 0.900024C18.1303 0.900024 23.0999 5.86967 23.0999 12C23.0999 18.1304 18.1303 23.1 11.9999 23.1C5.86954 23.1 0.899902 18.1304 0.899902 12C0.899902 5.86966 5.86954 0.900024 11.9999 0.900024ZM20.8999 12C20.8999 7.08469 16.9152 3.10002 11.9999 3.10002C7.08457 3.10002 3.0999 7.08469 3.0999 12C3.0999 16.9154 7.08457 20.9 11.9999 20.9C16.9152 20.9 20.8999 16.9154 20.8999 12Z"  />
</g>
<defs>
<clipPath id="clip0_1346_2668">
<rect width="24" height="24" fill="white"/>
</clipPath>
</defs>
</svg>
