<svg width="24" height="24" viewBox="0 0 24 24" fill="currentColor" xmlns="http://www.w3.org/2000/svg">
<path fill-rule="evenodd" clip-rule="evenodd" d="M9.45676 16C9.33943 16 9.28076 15.9414 9.28076 15.824V8.10203C9.28076 7.98469 9.33943 7.92603 9.45676 7.92603H12.1518C13.2664 7.92603 14.1098 8.17536 14.6818 8.67403C15.2538 9.17269 15.5398 9.90969 15.5398 10.885C15.5398 11.853 15.2538 12.59 14.6818 13.096C14.1098 13.5947 13.2664 13.844 12.1518 13.844H11.3048V15.824C11.3048 15.9414 11.2461 16 11.1288 16H9.45676ZM13.0868 9.92803C12.8448 9.73736 12.5148 9.64202 12.0968 9.64202H11.3048V12.128H12.0968C12.5148 12.128 12.8448 12.0327 13.0868 11.842C13.3288 11.6514 13.4498 11.325 13.4498 10.863C13.4498 10.423 13.3288 10.1114 13.0868 9.92803Z"  />
<path fill-rule="evenodd" clip-rule="evenodd" d="M12 23C18.0751 23 23 18.0751 23 12C23 5.92487 18.0751 1 12 1C5.92487 1 1 5.92487 1 12C1 18.0751 5.92487 23 12 23ZM12 3C16.9706 3 21 7.02944 21 12C21 16.9706 16.9706 21 12 21C7.02944 21 3 16.9706 3 12C3 7.02944 7.02944 3 12 3Z"  />
</svg>
