<svg width="24" height="24" viewBox="0 0 24 24" fill="currentColor" xmlns="http://www.w3.org/2000/svg">
<path d="M10.75 13C10.75 13.6904 11.3096 14.25 12 14.25C12.6904 14.25 13.25 13.6904 13.25 13C13.25 12.3096 12.6904 11.75 12 11.75C11.3096 11.75 10.75 12.3096 10.75 13Z"  />
<path d="M12 17.75C11.3096 17.75 10.75 17.1904 10.75 16.5C10.75 15.8096 11.3096 15.25 12 15.25C12.6904 15.25 13.25 15.8096 13.25 16.5C13.25 17.1904 12.6904 17.75 12 17.75Z"  />
<path fill-rule="evenodd" clip-rule="evenodd" d="M4.9999 6.9C3.28782 6.9 1.8999 8.28792 1.8999 10V19C1.8999 20.7121 3.28782 22.1 4.9999 22.1H18.9999C20.712 22.1 22.0999 20.7121 22.0999 19V10C22.0999 8.28792 20.712 6.9 18.9999 6.9H17.8993C17.3827 4.11164 14.9379 2 11.9999 2C9.06193 2 6.61715 4.11164 6.10051 6.9H4.9999ZM5.0001 19.9C4.50304 19.9 4.1001 19.4971 4.1001 19V10C4.1001 9.50295 4.50304 9.10001 5.0001 9.10001H19.0001C19.4972 9.10001 19.9001 9.50295 19.9001 10V19C19.9001 19.4971 19.4972 19.9 19.0001 19.9H5.0001ZM8.15283 6.9C8.63068 5.22574 10.172 4 11.9997 4C13.8273 4 15.3687 5.22574 15.8465 6.9H8.15283Z"  />
</svg>
