<svg width="24" height="24" viewBox="0 0 24 24" fill="currentColor" xmlns="http://www.w3.org/2000/svg">
<path fill-rule="evenodd" clip-rule="evenodd" d="M1.25 6.75C1.25 4.95507 2.70507 3.5 4.5 3.5H19.5C21.2949 3.5 22.75 4.95507 22.75 6.75V17.25C22.75 19.0449 21.2949 20.5 19.5 20.5H4.5C2.70508 20.5 1.25 19.0449 1.25 17.25V6.75ZM3.25 6.75V6.99271C3.25 7.42679 3.47519 7.82979 3.84488 8.05728L11.3449 12.6727C11.7466 12.9199 12.2534 12.9199 12.6551 12.6727L20.1551 8.05728C20.5248 7.82979 20.75 7.42679 20.75 6.99271V6.75C20.75 6.05964 20.1904 5.5 19.5 5.5H4.5C3.80964 5.5 3.25 6.05964 3.25 6.75ZM20.75 10.0396L13.7033 14.376C12.6587 15.0188 11.3413 15.0188 10.2967 14.376L3.25 10.0396V17.25C3.25 17.9404 3.80964 18.5 4.5 18.5H19.5C20.1904 18.5 20.75 17.9404 20.75 17.25V10.0396Z" />
</svg>
