<svg width="24" height="24" viewBox="0 0 24 24" fill="currentColor" xmlns="http://www.w3.org/2000/svg">
<path d="M14 10C14 11.1046 13.1046 12 12 12C10.8954 12 9.99999 11.1046 9.99999 10C9.99999 8.89543 10.8954 8 12 8C13.1046 8 14 8.89543 14 10Z"  />
<path fill-rule="evenodd" clip-rule="evenodd" d="M2.5 10.5C2.5 4.92416 6.77714 1 12 1C17.2228 1 21.5 4.92416 21.5 10.5C21.5 15.912 18.0763 19.6352 13.3907 23.1089C13.046 23.3644 12.629 23.5 12.2043 23.5H11.7956C11.371 23.5 10.954 23.3644 10.6093 23.1089C5.92368 19.6351 2.5 15.912 2.5 10.5ZM12 3C7.834 3 4.5 6.07584 4.5 10.5C4.5 14.9019 7.21621 18.1032 11.7973 21.5H12.2027C16.7838 18.1032 19.5 14.9019 19.5 10.5C19.5 6.07584 16.166 3 12 3Z"  />
</svg>
