<svg width="24" height="24" viewBox="0 0 24 24" fill="currentColor" xmlns="http://www.w3.org/2000/svg">
<g clip-path="url(#clip0_1346_2705)">
<path d="M6.8999 12C6.8999 11.3925 7.39239 10.9 7.9999 10.9H15.9999C16.6074 10.9 17.0999 11.3925 17.0999 12C17.0999 12.6075 16.6074 13.1 15.9999 13.1H7.9999C7.39239 13.1 6.8999 12.6075 6.8999 12Z"  />
<path fill-rule="evenodd" clip-rule="evenodd" d="M0.899902 12C0.899902 5.86966 5.86954 0.900024 11.9999 0.900024C18.1303 0.900024 23.0999 5.86966 23.0999 12C23.0999 18.1304 18.1303 23.1 11.9999 23.1C5.86954 23.1 0.899902 18.1304 0.899902 12ZM11.9999 3.10002C7.08457 3.10002 3.0999 7.08469 3.0999 12C3.0999 16.9154 7.08457 20.9 11.9999 20.9C16.9152 20.9 20.8999 16.9154 20.8999 12C20.8999 7.08469 16.9152 3.10002 11.9999 3.10002Z"  />
</g>
<defs>
<clipPath id="clip0_1346_2705">
<rect width="24" height="24" fill="white"/>
</clipPath>
</defs>
</svg>
