<svg width="24" height="24" viewBox="0 0 24 24" fill="currentColor" xmlns="http://www.w3.org/2000/svg">
<path fill-rule="evenodd" clip-rule="evenodd" d="M8.85356 2.06489C9.17721 2.26546 9.37411 2.61915 9.37411 2.9999C9.37411 7.08588 10.3869 9.93702 12.2249 11.775C14.0629 13.613 16.914 14.6258 21 14.6258C21.3808 14.6258 21.7344 14.8227 21.935 15.1463C22.1356 15.47 22.1545 15.8744 21.9851 16.2153C20.253 19.7008 16.6544 22.0999 12.4934 22.0999C6.64283 22.0999 1.9 17.3571 1.9 11.5065C1.9 7.34554 4.29915 3.74695 7.78458 2.01484C8.12555 1.84539 8.52991 1.86432 8.85356 2.06489ZM7.25079 4.95117C5.32893 6.49018 4.1 8.85548 4.1 11.5065C4.1 16.1421 7.85785 19.8999 12.4934 19.8999C15.1444 19.8999 17.5097 18.671 19.0487 16.7491C15.538 16.4625 12.7032 15.3646 10.6693 13.3306C8.63534 11.2967 7.53745 8.46194 7.25079 4.95117Z" />
</svg>
