<svg width="24" height="24" viewBox="0 0 24 24" fill="currentColor" xmlns="http://www.w3.org/2000/svg">
<path d="M14.6404 12.6867C14.319 12.2849 14.319 11.7141 14.6404 11.3123L16.6404 8.81234C17.0199 8.33795 17.7121 8.26104 18.1865 8.64055C18.6609 9.02006 18.7378 9.71228 18.3583 10.1867L16.908 11.9995L18.3583 13.8123C18.7378 14.2867 18.6609 14.979 18.1865 15.3585C17.7121 15.738 17.0199 15.6611 16.6404 15.1867L14.6404 12.6867Z"  />
<path d="M9.35827 11.3129C9.67966 11.7146 9.67966 12.2854 9.35827 12.6872L7.35827 15.1872C6.97876 15.6616 6.28654 15.7385 5.81215 15.359C5.33776 14.9795 5.26085 14.2872 5.64036 13.8129L7.09063 12L5.64036 10.1872C5.26085 9.7128 5.33776 9.02058 5.81215 8.64107C6.28654 8.26156 6.97876 8.33847 7.35827 8.81286L9.35827 11.3129Z"  />
<path fill-rule="evenodd" clip-rule="evenodd" d="M0.899902 6.00002C0.899902 4.28794 2.28782 2.90002 3.9999 2.90002H19.9999C21.712 2.90002 23.0999 4.28794 23.0999 6.00002V18C23.0999 19.7121 21.712 21.1 19.9999 21.1H3.9999C2.28782 21.1 0.899902 19.7121 0.899902 18V6.00002ZM3.9999 5.10002C3.50285 5.10002 3.0999 5.50297 3.0999 6.00002V18C3.0999 18.4971 3.50285 18.9 3.9999 18.9H19.9999C20.497 18.9 20.8999 18.4971 20.8999 18V6.00002C20.8999 5.50297 20.497 5.10002 19.9999 5.10002H3.9999Z"  />
</svg>
