<svg width="24" height="24" viewBox="0 0 24 24" fill="currentColor" xmlns="http://www.w3.org/2000/svg">
<g clip-path="url(#clip0_1346_2696)">
<path d="M9.10379 16.5C9.7953 16.5 10.2077 16.1066 10.2077 15.3985V11.2404H10.2584L13.7858 15.8827C14.122 16.3245 14.4329 16.5 14.9024 16.5C15.6066 16.5 15.9999 16.1308 15.9999 15.459V8.60157C15.9999 7.89343 15.5939 7.50002 14.896 7.50002C14.2045 7.50002 13.7921 7.89343 13.7921 8.60157V12.7112H13.7414L10.2394 8.11737C9.89046 7.6816 9.57326 7.50002 9.12916 7.50002C8.40593 7.50002 7.9999 7.86922 7.9999 8.55315V15.3985C7.9999 16.1066 8.40593 16.5 9.10379 16.5Z"  />
<path fill-rule="evenodd" clip-rule="evenodd" d="M0.899902 12C0.899902 5.86966 5.86954 0.900024 11.9999 0.900024C18.1303 0.900024 23.0999 5.86966 23.0999 12C23.0999 18.1304 18.1303 23.1 11.9999 23.1C5.86954 23.1 0.899902 18.1304 0.899902 12ZM11.9999 3.10002C7.08457 3.10002 3.0999 7.08469 3.0999 12C3.0999 16.9154 7.08457 20.9 11.9999 20.9C16.9152 20.9 20.8999 16.9154 20.8999 12C20.8999 7.08469 16.9152 3.10002 11.9999 3.10002Z"  />
</g>
<defs>
<clipPath id="clip0_1346_2696">
<rect width="24" height="24" fill="white"/>
</clipPath>
</defs>
</svg>
