<svg width="24" height="24" viewBox="0 0 24 24" fill="none" xmlns="http://www.w3.org/2000/svg">
<path fill-rule="evenodd" clip-rule="evenodd" d="M1.25 3C1.25 2.44772 1.69772 2 2.25 2H21.75C22.3023 2 22.75 2.44772 22.75 3C22.75 3.55228 22.3023 4 21.75 4H21.25V14.25C21.25 16.0449 19.7949 17.5 18 17.5H17.1374L18.1987 20.6838C18.3733 21.2077 18.0902 21.774 17.5662 21.9487C17.0423 22.1233 16.476 21.8402 16.3013 21.3162L16.0292 20.5H7.97076L7.69868 21.3162C7.52404 21.8402 6.95772 22.1233 6.43377 21.9487C5.90983 21.774 5.62667 21.2077 5.80132 20.6838L6.86257 17.5H6C4.20507 17.5 2.75 16.0449 2.75 14.25V4H2.25C1.69772 4 1.25 3.55228 1.25 3ZM4.75 4V14.25C4.75 14.9404 5.30964 15.5 6 15.5H18C18.6904 15.5 19.25 14.9404 19.25 14.25V4H4.75ZM8.97076 17.5L8.63743 18.5H15.3626L15.0292 17.5H8.97076ZM15 5.75C15.5523 5.75 16 6.19772 16 6.75V12.75C16 13.3023 15.5523 13.75 15 13.75C14.4477 13.75 14 13.3023 14 12.75V6.75C14 6.19772 14.4477 5.75 15 5.75ZM12 8C12.5523 8 13 8.44772 13 9V12.75C13 13.3023 12.5523 13.75 12 13.75C11.4477 13.75 11 13.3023 11 12.75V9C11 8.44772 11.4477 8 12 8ZM9 10.25C9.55228 10.25 10 10.6977 10 11.25V12.75C10 13.3023 9.55228 13.75 9 13.75C8.44772 13.75 8 13.3023 8 12.75V11.25C8 10.6977 8.44772 10.25 9 10.25Z" fill="black"/>
</svg>
