<svg width="24" height="24" viewBox="0 0 24 24" fill="currentColor" xmlns="http://www.w3.org/2000/svg">
<g clip-path="url(#clip0_1346_2714)">
<path d="M7.9999 10.9C7.39239 10.9 6.8999 11.3925 6.8999 12C6.8999 12.6075 7.39239 13.1 7.9999 13.1H10.8999V16C10.8999 16.6075 11.3924 17.1 11.9999 17.1C12.6074 17.1 13.0999 16.6075 13.0999 16V13.1H15.9999C16.6074 13.1 17.0999 12.6075 17.0999 12C17.0999 11.3925 16.6074 10.9 15.9999 10.9H13.0999V8.00002C13.0999 7.39251 12.6074 6.90002 11.9999 6.90002C11.3924 6.90002 10.8999 7.39251 10.8999 8.00002V10.9H7.9999Z"  />
<path fill-rule="evenodd" clip-rule="evenodd" d="M11.9999 0.900024C5.86954 0.900024 0.899902 5.86966 0.899902 12C0.899902 18.1304 5.86954 23.1 11.9999 23.1C18.1303 23.1 23.0999 18.1304 23.0999 12C23.0999 5.86966 18.1303 0.900024 11.9999 0.900024ZM3.0999 12C3.0999 7.08469 7.08457 3.10002 11.9999 3.10002C16.9152 3.10002 20.8999 7.08469 20.8999 12C20.8999 16.9154 16.9152 20.9 11.9999 20.9C7.08457 20.9 3.0999 16.9154 3.0999 12Z"  />
</g>
<defs>
<clipPath id="clip0_1346_2714">
<rect width="24" height="24" fill="white"/>
</clipPath>
</defs>
</svg>
