<svg width="24" height="24" viewBox="0 0 24 24" fill="currentColor" xmlns="http://www.w3.org/2000/svg">
<g clip-path="url(#clip0_1346_2783)">
<path d="M18.9995 9.50003C18.9995 10.1904 18.4399 10.75 17.7495 10.75C17.0592 10.75 16.4995 10.1904 16.4995 9.50003C16.4995 8.80967 17.0592 8.25003 17.7495 8.25003C18.4399 8.25003 18.9995 8.80967 18.9995 9.50003Z"  />
<path fill-rule="evenodd" clip-rule="evenodd" d="M0.899902 15C0.899902 16.7121 2.28782 18.1 3.9999 18.1H4.8999V22C4.8999 22.6075 5.39239 23.1 5.9999 23.1H17.9999C18.6074 23.1 19.0999 22.6075 19.0999 22V18.1H19.9999C21.712 18.1 23.0999 16.7121 23.0999 15V8.00002C23.0999 6.28794 21.712 4.90002 19.9999 4.90002H19.0999V2.00002C19.0999 1.39251 18.6074 0.900024 17.9999 0.900024H5.9999C5.39239 0.900024 4.8999 1.39251 4.8999 2.00002V4.90002H3.9999C2.28782 4.90002 0.899902 6.28794 0.899902 8.00002V15ZM3.1001 8.00001C3.1001 7.50295 3.50304 7.10001 4.0001 7.10001H20.0001C20.4972 7.10001 20.9001 7.50295 20.9001 8.00001V15C20.9001 15.4971 20.4972 15.9 20.0001 15.9H19.1001V13C19.1001 12.3925 18.6076 11.9 18.0001 11.9H6.0001C5.39258 11.9 4.9001 12.3925 4.9001 13V15.9H4.0001C3.50304 15.9 3.1001 15.4971 3.1001 15V8.00001ZM7.1001 4.90001V3.10001H16.9001V4.90001H7.1001ZM7.1001 20.9V14.1H16.9001V20.9H7.1001Z"  />
</g>
<defs>
<clipPath id="clip0_1346_2783">
<rect width="24" height="24" fill="white"/>
</clipPath>
</defs>
</svg>
