<svg width="24" height="24" viewBox="0 0 24 24" fill="currentColor" xmlns="http://www.w3.org/2000/svg">
<g clip-path="url(#clip0_1346_2750)">
<path d="M12.5331 13.4043C12.4306 13.8623 12.164 14.1289 11.6786 14.1289C11.0976 14.1289 10.7558 13.7324 10.7558 13.1719V13.0762C10.7558 12.2696 11.1728 11.7364 11.9794 11.2647C12.8612 10.7383 13.1278 10.3965 13.1278 9.7676C13.1278 9.09768 12.6083 8.63284 11.8563 8.63284C11.1864 8.63284 10.7353 8.96096 10.5165 9.56936C10.3456 10.0069 10.038 10.1983 9.621 10.1983C9.08096 10.1983 8.746 9.86331 8.746 9.34377C8.746 9.04983 8.81436 8.79006 8.95107 8.5303C9.38857 7.62795 10.4823 7.0469 11.9521 7.0469C13.8935 7.0469 15.1991 8.11331 15.1991 9.70608C15.1991 10.7383 14.7001 11.4424 13.7362 12.0098C12.8271 12.5362 12.622 12.8301 12.5331 13.4043Z"  />
<path d="M12.8134 16.0977C12.8134 16.6992 12.3144 17.1709 11.6923 17.1709C11.0771 17.1709 10.578 16.6992 10.578 16.0977C10.578 15.4961 11.0771 15.0244 11.6923 15.0244C12.3144 15.0244 12.8134 15.4961 12.8134 16.0977Z"  />
<path fill-rule="evenodd" clip-rule="evenodd" d="M23.0999 12C23.0999 5.86966 18.1303 0.900024 11.9999 0.900024C5.86954 0.900024 0.899902 5.86966 0.899902 12C0.899902 18.1304 5.86954 23.1 11.9999 23.1C18.1303 23.1 23.0999 18.1304 23.0999 12ZM11.9999 20.9C7.08457 20.9 3.0999 16.9154 3.0999 12C3.0999 7.08469 7.08457 3.10002 11.9999 3.10002C16.9152 3.10002 20.8999 7.08469 20.8999 12C20.8999 16.9154 16.9152 20.9 11.9999 20.9Z"  />
</g>
<defs>
<clipPath id="clip0_1346_2750">
<rect width="24" height="24" fill="white"/>
</clipPath>
</defs>
</svg>
