<svg width="24" height="24" viewBox="0 0 24 24" fill="currentColor" xmlns="http://www.w3.org/2000/svg">
<path d="M12.25 19C12.9404 19 13.5 18.4404 13.5 17.75C13.5 17.0597 12.9404 16.5 12.25 16.5C11.5596 16.5 11 17.0597 11 17.75C11 18.4404 11.5596 19 12.25 19Z"  />
<path d="M17 17.75C17 18.4404 16.4404 19 15.75 19C15.0596 19 14.5 18.4404 14.5 17.75C14.5 17.0597 15.0596 16.5 15.75 16.5C16.4404 16.5 17 17.0597 17 17.75Z"  />
<path fill-rule="evenodd" clip-rule="evenodd" d="M15.972 3.65002C15.7753 2.84441 15.3611 2.17409 14.7915 1.66994C14.0005 0.969875 12.9797 0.650024 11.9999 0.650024C11.0202 0.650024 9.99929 0.969875 9.20835 1.66994C8.63875 2.17409 8.22447 2.84441 8.02785 3.65002H5.82599C4.20996 3.65002 2.8999 4.96008 2.8999 6.57611V20.1739C2.8999 21.79 4.20996 23.1 5.82599 23.1H18.1738C19.7898 23.1 21.0999 21.79 21.0999 20.1739V6.57611C21.0999 4.96008 19.7898 3.65002 18.1738 3.65002H15.972ZM5.1001 6.57612C5.1001 6.17512 5.42518 5.85004 5.82618 5.85004H6.4001V8.75004C6.4001 9.35755 6.89258 9.85004 7.5001 9.85004H16.5001C17.1076 9.85004 17.6001 9.35755 17.6001 8.75004V5.85004H18.174C18.575 5.85004 18.9001 6.17512 18.9001 6.57612V20.174C18.9001 20.575 18.575 20.9 18.174 20.9H5.82618C5.42518 20.9 5.1001 20.575 5.1001 20.174V6.57612ZM13.3335 3.31734C13.6465 3.59432 13.9001 4.03779 13.9001 4.75004V5.85004H15.4001V7.65004H8.6001V5.85004H10.1001V4.75004C10.1001 4.03779 10.3537 3.59432 10.6667 3.31734C11.0007 3.02167 11.4798 2.85004 12.0001 2.85004C12.5203 2.85004 12.9995 3.02167 13.3335 3.31734Z"  />
</svg>
