<svg width="24" height="24" viewBox="0 0 24 24" fill="currentColor" xmlns="http://www.w3.org/2000/svg">
<g clip-path="url(#clip0_1346_2678)">
<path d="M12.2221 16.2778C11.7925 15.8483 11.7925 15.1518 12.2221 14.7222L13.8443 13.1L7.4999 13.1C6.89239 13.1 6.3999 12.6075 6.3999 12C6.3999 11.3925 6.89239 10.9 7.4999 10.9L13.8443 10.9L12.2221 9.27784C11.7925 8.84827 11.7925 8.15178 12.2221 7.72221C12.6517 7.29263 13.3481 7.29263 13.7777 7.72221L17.2777 11.2222C17.7073 11.6518 17.7073 12.3483 17.2777 12.7778L13.7777 16.2778C13.3481 16.7074 12.6517 16.7074 12.2221 16.2778Z"  />
<path fill-rule="evenodd" clip-rule="evenodd" d="M11.9999 23.1C5.86954 23.1 0.899902 18.1304 0.899902 12C0.899902 5.86966 5.86954 0.900024 11.9999 0.900024C18.1303 0.900024 23.0999 5.86966 23.0999 12C23.0999 18.1304 18.1303 23.1 11.9999 23.1ZM3.0999 12C3.0999 16.9154 7.08457 20.9 11.9999 20.9C16.9152 20.9 20.8999 16.9154 20.8999 12C20.8999 7.08469 16.9152 3.10002 11.9999 3.10003C7.08457 3.10003 3.0999 7.08469 3.0999 12Z"  />
</g>
<defs>
<clipPath id="clip0_1346_2678">
<rect width="24" height="24" fill="white"/>
</clipPath>
</defs>
</svg>
