<svg width="24" height="24" viewBox="0 0 24 24" fill="currentColor" xmlns="http://www.w3.org/2000/svg">
<path fill-rule="evenodd" clip-rule="evenodd" d="M12 8.79258C10.2211 8.79258 8.77509 10.2386 8.77509 12.0175C8.77509 13.7964 10.2211 15.2424 12 15.2424C13.7789 15.2424 15.2249 13.7964 15.2249 12.0175C15.2249 10.2386 13.7789 8.79258 12 8.79258ZM11.0638 12.0175C11.0638 11.4974 11.4799 11.0812 12 11.0812C12.5202 11.0812 12.9363 11.4974 12.9363 12.0175C12.9363 12.5376 12.5202 12.9538 12 12.9538C11.4799 12.9538 11.0638 12.5376 11.0638 12.0175Z"  />
<path fill-rule="evenodd" clip-rule="evenodd" d="M20.5408 12.0175C20.5408 12.34 20.5096 12.6937 20.4784 12.9746L20.4576 12.9538L21.0714 13.5884C22.0701 14.6182 22.2677 16.1891 21.5499 17.4374L21.4771 17.5727C20.7593 18.821 19.2925 19.4452 17.8985 19.0915L17.0454 18.873C16.827 19.0395 16.5357 19.2371 16.2756 19.3932C15.9947 19.5596 15.6618 19.7157 15.4018 19.8301L15.1625 20.6831C14.7672 22.0667 13.5084 23.0238 12.0624 23.0238H11.9168C10.4812 23.0238 9.21201 22.0667 8.8167 20.6831L8.57742 19.8405C8.30694 19.7261 7.93244 19.5596 7.64116 19.3932C7.37068 19.2475 7.11062 19.0499 6.90256 18.8835L6.08072 19.0915C4.68672 19.4452 3.2199 18.821 2.5021 17.5727L2.42927 17.4374C1.71147 16.1891 1.90915 14.6182 2.90783 13.5884L3.5216 12.9538C3.49039 12.6729 3.45919 12.3192 3.45919 11.9967C3.45919 11.6742 3.49039 11.3205 3.5216 11.0396L2.90783 10.4051C1.90915 9.37516 1.71147 7.8043 2.42927 6.55595L2.5021 6.4207C3.2199 5.17235 4.68672 4.54818 6.08072 4.90188L6.93377 5.12034L7.0033 5.07154C7.19829 4.93453 7.43011 4.77164 7.66196 4.64181C7.94283 4.48576 8.30694 4.30891 8.57742 4.18408L8.82711 3.32064C9.22242 1.93705 10.4812 0.97998 11.9272 0.97998H12.0728C13.5084 0.97998 14.7776 1.93705 15.1729 3.32064L15.4226 4.20487C15.6827 4.32971 16.0051 4.49618 16.2756 4.65222C16.4951 4.78024 16.7467 4.94845 16.9527 5.0862L17.035 5.14116L17.9193 4.92268C19.3133 4.56898 20.7801 5.19318 21.4979 6.44153L21.5707 6.57674C22.2885 7.8251 22.0909 9.39596 21.0922 10.4258L20.4784 11.0604C20.5096 11.3413 20.5408 11.695 20.5408 12.0175ZM18.1689 10.9564L18.1481 10.8628V10.8315L18.1169 10.8212C18.0649 10.4675 18.1793 10.1138 18.429 9.8537L19.4277 8.82378C19.719 8.5221 19.771 8.06438 19.5629 7.70028L19.4901 7.56504C19.2821 7.20093 18.8556 7.02407 18.4498 7.1281L17.0662 7.48183C16.7333 7.56505 16.39 7.50262 16.1196 7.30496V7.28417H16.0988L16.0259 7.23213L16.025 7.23153C15.9626 7.18992 15.8694 7.12777 15.7659 7.0553C15.5474 6.89926 15.2977 6.73281 15.1105 6.62878C14.9128 6.51434 14.6423 6.36869 14.3927 6.25425C14.2678 6.19184 14.1638 6.13984 14.091 6.10863L14.0078 6.05659H13.9766C13.6749 5.92136 13.446 5.6509 13.3524 5.32841L12.9571 3.9448C12.8427 3.54948 12.4681 3.26861 12.052 3.26861H11.9064C11.4799 3.26861 11.1158 3.53908 11.0013 3.9448L10.606 5.32841C10.5124 5.6613 10.2731 5.93178 9.95062 6.07742H9.91941L9.82579 6.11901C9.78838 6.13771 9.74467 6.15642 9.69655 6.17701C9.6376 6.20224 9.57201 6.23031 9.5033 6.26467C9.23282 6.3895 8.95193 6.52475 8.77508 6.62878C8.59823 6.7224 8.37976 6.87845 8.1821 7.02409C8.14105 7.05602 8.102 7.08595 8.0667 7.113C8.02157 7.14758 7.9824 7.17759 7.95324 7.20093L7.89082 7.25296L7.87003 7.27375C7.58915 7.49222 7.22503 7.57543 6.88173 7.49221L5.49816 7.13851C5.09244 7.03448 4.66592 7.21135 4.45786 7.57545L4.38503 7.71066C4.17697 8.07476 4.22899 8.53251 4.52028 8.8342L5.51895 9.86408C5.76862 10.1137 5.88307 10.4778 5.83106 10.8315L5.81023 10.8524V10.946C5.80768 10.9638 5.80451 10.9842 5.80103 11.0065C5.79027 11.0755 5.7765 11.1638 5.76864 11.2581C5.73743 11.5181 5.71661 11.8094 5.71661 12.0071C5.71661 12.2047 5.73743 12.496 5.76864 12.7561C5.78451 12.8513 5.79432 12.9345 5.80269 13.0055L5.81023 13.0682L5.83106 13.1618V13.193C5.88307 13.5467 5.76862 13.9004 5.51895 14.1605L4.52028 15.1904C4.22899 15.4921 4.17697 15.9498 4.38503 16.3139L4.45786 16.4492C4.66592 16.8133 5.09244 16.9901 5.49816 16.8861L6.88173 16.5324C7.24584 16.4387 7.64115 16.5324 7.92203 16.782V16.8029H7.94286L8.00527 16.8549C8.02353 16.8695 8.04436 16.8867 8.06775 16.9059C8.11093 16.9416 8.16308 16.9846 8.22372 17.0317C8.26316 17.0608 8.3026 17.0903 8.3417 17.1195C8.4986 17.2367 8.65017 17.35 8.77508 17.4166C8.94153 17.5103 9.20161 17.6247 9.47209 17.7391C9.57706 17.7829 9.67467 17.8192 9.75256 17.8483L9.79458 17.864C9.83619 17.8848 9.8882 17.916 9.8882 17.916H9.91941C10.2627 18.0408 10.5228 18.3217 10.6268 18.6754L11.0221 20.059C11.1366 20.4543 11.5111 20.7352 11.9272 20.7352H12.0728C12.4993 20.7352 12.8634 20.4647 12.9779 20.059L13.3732 18.6754C13.4668 18.3321 13.7165 18.0616 14.0494 17.916H14.0806L14.1638 17.8848C14.247 17.8536 14.3511 17.8119 14.4655 17.7599C14.7152 17.6559 14.9752 17.5311 15.1521 17.427C15.3185 17.3334 15.5474 17.1669 15.7555 17.0109C15.8595 16.9381 15.9427 16.8757 16.0051 16.8237L16.078 16.7717L16.0988 16.7508C16.3796 16.5324 16.7541 16.4492 17.0974 16.5324L18.4811 16.8861C18.8868 16.9901 19.3133 16.8133 19.5213 16.4492L19.5941 16.3139C19.8022 15.9498 19.7502 15.4921 19.4589 15.1904L18.4602 14.1605C18.2106 13.9108 18.0961 13.5467 18.1481 13.193L18.1689 13.1722V13.0786C18.1715 13.0607 18.1747 13.0403 18.1782 13.0179C18.1889 12.949 18.2027 12.8607 18.2106 12.7665C18.2418 12.5064 18.2626 12.2152 18.2626 12.0175C18.2626 11.8198 18.2418 11.5286 18.2106 11.2685C18.1947 11.1731 18.1848 11.0899 18.1765 11.0189L18.1689 10.9564Z"  />
</svg>
