<svg width="24" height="24" viewBox="0 0 24 24" fill="currentColor" xmlns="http://www.w3.org/2000/svg">
<path fill-rule="evenodd" clip-rule="evenodd" d="M10.0177 2.68327C10.7982 0.992255 13.2016 0.992255 13.9821 2.68327L15.9623 6.97375L20.7231 7.65387C22.504 7.90828 23.2301 10.0867 21.9581 11.3587L18.5505 14.7663L19.5902 19.9649C19.9525 21.7765 18.0411 23.1911 16.4145 22.3153L11.9999 19.9382L7.58531 22.3153C5.95869 23.1911 4.04727 21.7765 4.40958 19.9649L5.44931 14.7663L2.04175 11.3587C0.769673 10.0867 1.4958 7.90828 3.2767 7.65387L8.0375 6.97375L10.0177 2.68327ZM11.9999 3.72518L9.81311 8.46324C9.65416 8.80763 9.33146 9.04796 8.95598 9.1016L3.69839 9.85269L7.45381 13.6081C7.71818 13.8725 7.83293 14.2515 7.7596 14.6181L6.62471 20.2925L11.4698 17.6837C11.8007 17.5055 12.1991 17.5055 12.53 17.6837L17.3751 20.2925L16.2402 14.6181C16.1669 14.2515 16.2816 13.8725 16.546 13.6081L20.3014 9.85269L15.0438 9.1016C14.6683 9.04796 14.3456 8.80763 14.1867 8.46324L11.9999 3.72518Z"  />
</svg>
