<svg width="24" height="24" viewBox="0 0 24 24" fill="currentColor" xmlns="http://www.w3.org/2000/svg">
<path fill-rule="evenodd" clip-rule="evenodd" d="M23.0999 7.00002L22.9595 6.4623L21.2909 3.48461C20.7426 2.50603 19.7083 1.90002 18.5866 1.90002H5.41323C4.29147 1.90002 3.25723 2.50603 2.70887 3.48461L1.04029 6.4623L0.899902 7.00002V8.14288C0.899902 9.15504 1.27612 10.089 1.8999 10.7951V19C1.8999 20.7121 3.28782 22.1 4.9999 22.1H11.9999C12.6074 22.1 13.0999 21.6075 13.0999 21V16.1H15.8999V21C15.8999 21.6075 16.3924 22.1 16.9999 22.1H18.9999C20.712 22.1 22.0999 20.7121 22.0999 19V10.7951C22.7237 10.089 23.0999 9.15504 23.0999 8.14288V7.00002ZM3.87744 5.90004L4.6283 4.56008C4.7875 4.27597 5.08777 4.10004 5.41344 4.10004H18.5868C18.9125 4.10004 19.2127 4.27597 19.3719 4.56008L20.1228 5.90004H3.87744ZM6.45565 8.10004C6.45565 9.0999 5.67548 9.90004 4.77788 9.90004C3.88027 9.90004 3.1001 9.0999 3.1001 8.10004H6.45565ZM13.6779 8.10004C13.6779 9.0999 12.8977 9.90004 12.0001 9.90004C11.1025 9.90004 10.3223 9.0999 10.3223 8.10004H13.6779ZM20.9001 8.10004C20.9001 9.0999 20.1199 9.90004 19.2223 9.90004C18.3247 9.90004 17.5445 9.0999 17.5445 8.10004H20.9001ZM15.6112 9.58527C16.1725 11.046 17.5618 12.1 19.2223 12.1C19.454 12.1 19.6805 12.0795 19.9001 12.0402V19C19.9001 19.4971 19.4972 19.9 19.0001 19.9H18.1001V15C18.1001 14.3925 17.6076 13.9 17.0001 13.9H12.0001C11.3926 13.9 10.9001 14.3925 10.9001 15V19.9H5.0001C4.50304 19.9 4.1001 19.4971 4.1001 19V12.0402C4.31973 12.0795 4.54616 12.1 4.77788 12.1C6.43844 12.1 7.82774 11.046 8.38899 9.58527C8.95023 11.046 10.3395 12.1 12.0001 12.1C13.6607 12.1 15.05 11.046 15.6112 9.58527Z"  />
</svg>
