<svg width="24" height="24" viewBox="0 0 24 24" fill="currentColor" xmlns="http://www.w3.org/2000/svg">
<g clip-path="url(#clip0_3782_272)">
<path fill-rule="evenodd" clip-rule="evenodd" d="M12 8.0999C9.84609 8.0999 8.1 9.84599 8.1 11.9999C8.1 14.1538 9.84609 15.8999 12 15.8999C14.1539 15.8999 15.9 14.1538 15.9 11.9999C15.9 9.84599 14.1539 8.0999 12 8.0999ZM5.9 11.9999C5.9 8.63097 8.63106 5.8999 12 5.8999C15.3689 5.8999 18.1 8.63097 18.1 11.9999C18.1 15.3688 15.3689 18.0999 12 18.0999C8.63106 18.0999 5.9 15.3688 5.9 11.9999Z" />
<path fill-rule="evenodd" clip-rule="evenodd" d="M12 4.0999C11.3925 4.0999 10.9 3.60742 10.9 2.9999V1.9999C10.9 1.39239 11.3925 0.899902 12 0.899902C12.6075 0.899902 13.1 1.39239 13.1 1.9999V2.9999C13.1 3.60742 12.6075 4.0999 12 4.0999Z" />
<path fill-rule="evenodd" clip-rule="evenodd" d="M12 23.0999C11.3925 23.0999 10.9 22.6074 10.9 21.9999V20.9999C10.9 20.3924 11.3925 19.8999 12 19.8999C12.6075 19.8999 13.1 20.3924 13.1 20.9999V21.9999C13.1 22.6074 12.6075 23.0999 12 23.0999Z" />
<path fill-rule="evenodd" clip-rule="evenodd" d="M17.5861 6.41376C17.1566 5.98418 17.1566 5.2877 17.5861 4.85812L18.2932 4.15102C18.7228 3.72144 19.4193 3.72144 19.8489 4.15102C20.2785 4.58059 20.2785 5.27708 19.8489 5.70665L19.1418 6.41376C18.7122 6.84334 18.0157 6.84334 17.5861 6.41376Z" />
<path fill-rule="evenodd" clip-rule="evenodd" d="M4.15111 19.8488C3.72154 19.4192 3.72154 18.7227 4.15111 18.2932L4.85822 17.586C5.2878 17.1565 5.98428 17.1565 6.41386 17.586C6.84343 18.0156 6.84343 18.7121 6.41386 19.1417L5.70675 19.8488C5.27717 20.2784 4.58069 20.2784 4.15111 19.8488Z" />
<path fill-rule="evenodd" clip-rule="evenodd" d="M17.5862 17.5861C18.0158 17.1565 18.7123 17.1565 19.1418 17.5861L19.8489 18.2932C20.2785 18.7228 20.2785 19.4193 19.8489 19.8488C19.4194 20.2784 18.7229 20.2784 18.2933 19.8488L17.5862 19.1417C17.1566 18.7122 17.1566 18.0157 17.5862 17.5861Z" />
<path fill-rule="evenodd" clip-rule="evenodd" d="M4.15114 4.15104C4.58072 3.72146 5.2772 3.72146 5.70677 4.15104L6.41388 4.85815C6.84346 5.28772 6.84346 5.98421 6.41388 6.41378C5.9843 6.84336 5.28782 6.84336 4.85824 6.41378L4.15114 5.70668C3.72156 5.2771 3.72156 4.58062 4.15114 4.15104Z" />
<path fill-rule="evenodd" clip-rule="evenodd" d="M19.9001 11.9999C19.9001 11.3924 20.3926 10.8999 21.0001 10.8999H22.0001C22.6076 10.8999 23.1001 11.3924 23.1001 11.9999C23.1001 12.6074 22.6076 13.0999 22.0001 13.0999H21.0001C20.3926 13.0999 19.9001 12.6074 19.9001 11.9999Z" />
<path fill-rule="evenodd" clip-rule="evenodd" d="M0.900032 11.9999C0.900032 11.3924 1.39252 10.8999 2.00003 10.8999H3.00003C3.60755 10.8999 4.10003 11.3924 4.10003 11.9999C4.10003 12.6074 3.60755 13.0999 3.00003 13.0999H2.00003C1.39252 13.0999 0.900032 12.6074 0.900032 11.9999Z" />
</g>
<defs>
<clipPath id="clip0_3782_272">
<rect width="24" height="24" fill="white"/>
</clipPath>
</defs>
</svg>
