<svg width="24" height="24" viewBox="0 0 24 24" fill="currentColor" xmlns="http://www.w3.org/2000/svg">
<path fill-rule="evenodd" clip-rule="evenodd" d="M10.8363 2.67964C11.3921 2.45469 12.0075 2.40002 12.5071 2.40002C13.4145 2.40002 14.1301 2.79042 14.5686 3.44493C14.9613 4.03108 15.0598 4.71955 15.0598 5.26052V8.92601H18.1709C20.0697 8.92601 21.5223 10.6175 21.2354 12.4944L20.1899 19.3338L20.1897 19.3352C19.9916 20.6457 18.8585 21.6 17.5423 21.6L3.4999 21.6C2.89239 21.6 2.3999 21.1076 2.3999 20.5V11.5C2.3999 10.8925 2.89239 10.4 3.4999 10.4H6.95444C7.50527 9.47016 8.03854 8.25634 8.48043 7.1031C9.01394 5.71075 9.36962 4.52646 9.43798 4.23506C9.6364 3.38929 10.2537 2.91539 10.8363 2.67964ZM11.5737 4.76312C11.4645 5.21394 11.0755 6.4792 10.5348 7.89026C10.0304 9.20673 9.356 10.752 8.5999 11.921V19.4H17.5423C17.7883 19.4 17.9817 19.2235 18.0144 19.0062L18.0148 19.0038L19.0606 12.162C19.1439 11.6171 18.7222 11.126 18.1709 11.126H14.9598C13.8 11.126 12.8598 10.1858 12.8598 9.02601V5.26052C12.8598 4.93998 12.7937 4.74821 12.7409 4.66948C12.7225 4.64206 12.7112 4.63537 12.7025 4.63087C12.692 4.62545 12.6388 4.60002 12.5071 4.60002C12.132 4.60002 11.8402 4.64669 11.6616 4.71897C11.6164 4.73724 11.5889 4.75305 11.5737 4.76312ZM4.5999 12.6V19.4H6.3999V12.6H4.5999Z"  />
</svg>
