<svg width="24" height="24" viewBox="0 0 24 24" fill="currentColor" xmlns="http://www.w3.org/2000/svg">
<path d="M6.4999 10.25C6.4999 10.9404 7.05955 11.5 7.7499 11.5C8.44026 11.5 8.9999 10.9404 8.9999 10.25C8.9999 9.55967 8.44026 9.00002 7.7499 9.00002C7.05955 9.00002 6.4999 9.55967 6.4999 10.25Z"  />
<path d="M7.7499 15C7.05955 15 6.4999 14.4404 6.4999 13.75C6.4999 13.0597 7.05955 12.5 7.7499 12.5C8.44026 12.5 8.9999 13.0597 8.9999 13.75C8.9999 14.4404 8.44026 15 7.7499 15Z"  />
<path fill-rule="evenodd" clip-rule="evenodd" d="M1.9999 3.40002C1.39239 3.40002 0.899902 3.89251 0.899902 4.50002V19.5C0.899902 20.1075 1.39239 20.6 1.9999 20.6H5.68411C5.92533 20.6 6.15985 20.5207 6.35158 20.3744L7.78938 19.2768L9.22717 20.3744C9.4189 20.5207 9.65343 20.6 9.89464 20.6H21.9999C22.6074 20.6 23.0999 20.1075 23.0999 19.5V4.50002C23.0999 3.89251 22.6074 3.40002 21.9999 3.40002H9.89464C9.65343 3.40002 9.4189 3.47931 9.22717 3.62568L7.78938 4.72328L6.35158 3.62568C6.15985 3.47931 5.92533 3.40002 5.68411 3.40002H1.9999ZM5.31223 5.60002L7.12191 6.98151C7.51603 7.28238 8.06272 7.28238 8.45685 6.98151L10.2665 5.60002H20.8999V18.4H10.2665L8.45685 17.0185C8.06272 16.7177 7.51603 16.7177 7.12191 17.0185L5.31223 18.4H3.0999V5.60002H5.31223Z"  />
</svg>
