<svg width="24" height="24" viewBox="0 0 24 24" fill="currentColor" xmlns="http://www.w3.org/2000/svg">
<path d="M11.9999 6.40071C12.6074 6.40071 13.0999 6.89319 13.0999 7.50071V11.9848L15.7042 14.1558C16.1709 14.5448 16.2338 15.2384 15.8448 15.705C15.4558 16.1717 14.7622 16.2346 14.2956 15.8456L11.2956 13.3448C11.0449 13.1358 10.8999 12.8263 10.8999 12.4999V7.50071C10.8999 6.89319 11.3924 6.40071 11.9999 6.40071Z"  />
<path fill-rule="evenodd" clip-rule="evenodd" d="M1.3999 12C1.3999 6.14581 6.14568 1.40002 11.9999 1.40002C17.8541 1.40002 22.5999 6.14581 22.5999 12C22.5999 17.8542 17.8541 22.6 11.9999 22.6C6.14568 22.6 1.3999 17.8542 1.3999 12ZM11.9999 3.60002C7.36071 3.60002 3.5999 7.36083 3.5999 12C3.5999 16.6392 7.36071 20.4 11.9999 20.4C16.6391 20.4 20.3999 16.6392 20.3999 12C20.3999 7.36083 16.6391 3.60002 11.9999 3.60002Z"  />
</svg>
