<svg width="24" height="24" viewBox="0 0 24 24" fill="currentColor" xmlns="http://www.w3.org/2000/svg">
<path d="M14.8411 1.5C14.6997 1.5 14.5598 1.53002 14.4308 1.58806L11.2932 2.99985H4.49991C3.94762 2.99985 3.49991 3.44756 3.49991 3.99985C3.49991 4.55213 3.94762 4.99985 4.49991 4.99985H19.4999C20.0522 4.99985 20.4999 4.55213 20.4999 3.99985V2.5C20.4999 1.94772 20.0522 1.5 19.4999 1.5H14.8411Z"  />
<path d="M10.2499 12.15C10.8574 12.15 11.3499 12.6425 11.3499 13.25V16.25C11.3499 16.8575 10.8574 17.35 10.2499 17.35C9.64239 17.35 9.14991 16.8575 9.14991 16.25V13.25C9.14991 12.6425 9.64239 12.15 10.2499 12.15Z"  />
<path d="M14.8499 13.25C14.8499 12.6425 14.3574 12.15 13.7499 12.15C13.1424 12.15 12.6499 12.6425 12.6499 13.25V16.25C12.6499 16.8575 13.1424 17.35 13.7499 17.35C14.3574 17.35 14.8499 16.8575 14.8499 16.25V13.25Z"  />
<path fill-rule="evenodd" clip-rule="evenodd" d="M4.49991 5.9C4.19031 5.9 3.89505 6.03047 3.6866 6.25937C3.47815 6.48828 3.37581 6.79443 3.40471 7.10267L4.64906 20.3757C4.79381 21.9198 6.08987 23.1 7.6407 23.1H16.3591C17.9099 23.1 19.206 21.9198 19.3508 20.3757L20.5951 7.10267C20.624 6.79443 20.5217 6.48828 20.3132 6.25937C20.1048 6.03047 19.8095 5.9 19.4999 5.9H4.49991ZM6.83945 20.1704L5.70785 8.1H18.292L17.1604 20.1704C17.1216 20.5839 16.7745 20.9 16.3591 20.9H7.6407C7.22534 20.9 6.87822 20.5839 6.83945 20.1704Z"  />
</svg>
