<svg width="24" height="24" viewBox="0 0 24 24" fill="currentColor" xmlns="http://www.w3.org/2000/svg">
<g clip-path="url(#clip0_1346_2650)">
<path d="M16.2777 11.7778C15.8481 12.2074 15.1517 12.2074 14.7221 11.7778L13.0999 10.1557L13.0999 16.5C13.0999 17.1075 12.6074 17.6 11.9999 17.6C11.3924 17.6 10.8999 17.1075 10.8999 16.5V10.1557L9.27772 11.7778C8.84814 12.2074 8.15166 12.2074 7.72209 11.7778C7.29251 11.3483 7.29251 10.6518 7.72208 10.2222L11.2221 6.72221C11.4284 6.51592 11.7082 6.40002 11.9999 6.40002C12.2916 6.40002 12.5714 6.51592 12.7777 6.72221L16.2777 10.2222C16.7073 10.6518 16.7073 11.3483 16.2777 11.7778Z"  />
<path fill-rule="evenodd" clip-rule="evenodd" d="M0.899902 12C0.899902 5.86966 5.86954 0.900024 11.9999 0.900024C18.1303 0.900024 23.0999 5.86966 23.0999 12C23.0999 18.1304 18.1303 23.1 11.9999 23.1C5.86954 23.1 0.899902 18.1304 0.899902 12ZM11.9999 3.10002C7.08457 3.10002 3.0999 7.08469 3.0999 12C3.0999 16.9154 7.08457 20.9 11.9999 20.9C16.9152 20.9 20.8999 16.9154 20.8999 12C20.8999 7.08469 16.9152 3.10002 11.9999 3.10002Z"  />
</g>
<defs>
<clipPath id="clip0_1346_2650">
<rect width="24" height="24" fill="white"/>
</clipPath>
</defs>
</svg>
