<svg width="24" height="24" viewBox="0 0 24 24" fill="currentColor" xmlns="http://www.w3.org/2000/svg">
<path fill-rule="evenodd" clip-rule="evenodd" d="M2 5.625C2 4.45139 2.9514 3.5 4.125 3.5H19.875C21.0486 3.5 22 4.45139 22 5.625V18.375C22 19.5486 21.0486 20.5 19.875 20.5H4.125C2.95139 20.5 2 19.5486 2 18.375V5.625ZM10 18.5H14V5.5H10V18.5ZM8 5.5V18.5H4.125C4.05596 18.5 4 18.444 4 18.375V5.625C4 5.55596 4.05596 5.5 4.125 5.5H8ZM16 5.5V18.5H19.875C19.944 18.5 20 18.444 20 18.375V5.625C20 5.55596 19.944 5.5 19.875 5.5H16Z" />
</svg>
