<svg width="24" height="24" viewBox="0 0 24 24" fill="currentColor" xmlns="http://www.w3.org/2000/svg">
<g clip-path="url(#clip0_1346_2741)">
<path d="M13.0663 12.7549C13.0458 13.459 12.6903 13.8692 11.9999 13.8692C11.3026 13.8692 10.954 13.459 10.9335 12.7549L10.8036 8.50295C10.8036 8.44547 10.8017 8.38421 10.7999 8.32612L10.7993 8.30643C10.798 8.26124 10.7968 8.21851 10.7968 8.18166C10.7968 7.42288 11.2479 6.97854 12.0067 6.97854C12.7587 6.97854 13.203 7.42288 13.203 8.18166C13.203 8.27053 13.1962 8.39358 13.1894 8.50295L13.0663 12.7549Z"  />
<path d="M13.2919 15.9951C13.2919 16.6856 12.7108 17.2256 11.9999 17.2256C11.2821 17.2256 10.7011 16.6856 10.7011 15.9951C10.7011 15.3115 11.2821 14.7715 11.9999 14.7715C12.7108 14.7715 13.2919 15.3115 13.2919 15.9951Z"  />
<path fill-rule="evenodd" clip-rule="evenodd" d="M0.899902 12C0.899902 5.86966 5.86954 0.900024 11.9999 0.900024C18.1303 0.900024 23.0999 5.86966 23.0999 12C23.0999 18.1304 18.1303 23.1 11.9999 23.1C5.86954 23.1 0.899902 18.1304 0.899902 12ZM11.9999 3.10002C7.08457 3.10002 3.0999 7.08469 3.0999 12C3.0999 16.9154 7.08457 20.9 11.9999 20.9C16.9152 20.9 20.8999 16.9154 20.8999 12C20.8999 7.08469 16.9152 3.10002 11.9999 3.10002Z"  />
</g>
<defs>
<clipPath id="clip0_1346_2741">
<rect width="24" height="24" fill="white"/>
</clipPath>
</defs>
</svg>
