<svg width="24" height="24" viewBox="0 0 24 24" fill="currentColor" xmlns="http://www.w3.org/2000/svg">
<path d="M13.0666 14.2764C13.0461 14.9805 12.6906 15.3906 12.0002 15.3906C11.3029 15.3906 10.9543 14.9805 10.9338 14.2764L10.8039 10.0244C10.8039 9.96699 10.802 9.90577 10.8002 9.84771L10.7996 9.828C10.7982 9.78279 10.797 9.74 10.797 9.70315C10.797 8.94436 11.2482 8.50002 12.007 8.50002C12.759 8.50002 13.2033 8.94436 13.2033 9.70315C13.2033 9.79202 13.1965 9.91506 13.1896 10.0244L13.0666 14.2764Z"  />
<path d="M13.2922 17.5166C13.2922 18.2071 12.7111 18.7471 12.0002 18.7471C11.2824 18.7471 10.7013 18.2071 10.7013 17.5166C10.7013 16.833 11.2824 16.293 12.0002 16.293C12.7111 16.293 13.2922 16.833 13.2922 17.5166Z"  />
<path fill-rule="evenodd" clip-rule="evenodd" d="M11.585 1.90002C10.8263 1.90002 10.1266 2.30924 9.7547 2.97048L1.30827 17.9864C0.958895 18.6075 0.948345 19.3634 1.28025 19.994L1.7982 20.9781C2.16134 21.6681 2.87685 22.1 3.65653 22.1H20.3438C21.1235 22.1 21.839 21.6681 22.2021 20.9781L22.7201 19.994C23.052 19.3634 23.0414 18.6075 22.6921 17.9864L14.2456 2.97048C13.8737 2.30923 13.174 1.90002 12.4153 1.90002H11.585ZM3.25242 19.0175L11.6435 4.10002H12.3568L20.7479 19.0175L20.2834 19.9H3.7169L3.25242 19.0175Z"  />
</svg>
