<svg width="24" height="24" viewBox="0 0 24 24" fill="currentColor" xmlns="http://www.w3.org/2000/svg">
<path d="M5.14095 12.6872C4.81955 12.2854 4.81955 11.7146 5.14095 11.3129L7.14095 8.81286C7.52046 8.33847 8.21268 8.26156 8.68707 8.64107C9.16146 9.02058 9.23837 9.7128 8.85886 10.1872L7.40859 12L8.85886 13.8129C9.23837 14.2872 9.16146 14.9795 8.68707 15.359C8.21268 15.7385 7.52046 15.6616 7.14095 15.1872L5.14095 12.6872Z"  />
<path d="M16.8589 15.1872L18.8589 12.6872C19.1803 12.2854 19.1803 11.7146 18.8589 11.3129L16.8589 8.81286C16.4793 8.33847 15.7871 8.26156 15.3127 8.64107C14.8384 9.02058 14.7614 9.7128 15.1409 10.1872L16.5912 12L15.1409 13.8129C14.7614 14.2872 14.8384 14.9795 15.3127 15.359C15.7871 15.7385 16.4793 15.6616 16.8589 15.1872Z"  />
<path fill-rule="evenodd" clip-rule="evenodd" d="M3.9999 2.90002C2.28782 2.90002 0.899902 4.28794 0.899902 6.00002V18C0.899902 19.7121 2.28782 21.1 3.9999 21.1H19.9999C21.712 21.1 23.0999 19.7121 23.0999 18V6.00002C23.0999 4.28794 21.712 2.90002 19.9999 2.90002H3.9999ZM3.0999 6.00002C3.0999 5.50297 3.50285 5.10002 3.9999 5.10002H19.9999C20.497 5.10002 20.8999 5.50297 20.8999 6.00002V18C20.8999 18.4971 20.497 18.9 19.9999 18.9H3.9999C3.50285 18.9 3.0999 18.4971 3.0999 18V6.00002Z"  />
</svg>
