<svg width="240" height="240" viewBox="0 0 240 240" fill="none" xmlns="http://www.w3.org/2000/svg">
<path d="M76.7041 210.911C76.7041 210.911 68.9281 146.255 74.4481 144.623C79.9681 142.991 94.7521 144.143 99.0241 144.143C103.296 144.143 105.024 148.799 105.024 148.799C105.024 148.799 143.856 150.047 146.64 150.815C149.424 151.583 137.904 210.911 137.904 210.911H76.7041Z" fill="#CECECE"/>
<path d="M77.8081 211.2C77.7121 210.24 77.568 209.28 77.472 208.272C77.184 205.728 76.896 203.184 76.656 200.64C76.272 197.04 75.936 193.44 75.6 189.84C75.216 185.712 74.88 181.584 74.544 177.456C74.256 173.376 73.968 169.248 73.776 165.168C73.632 161.664 73.536 158.16 73.584 154.656C73.536 152.208 73.776 149.76 74.256 147.36C74.4 146.688 74.64 146.064 74.976 145.488C75.072 145.344 75.0241 145.392 75.1681 145.296C75.2641 145.248 75.3121 145.2 75.4081 145.152C75.5041 145.104 75.408 145.152 75.36 145.152C75.456 145.104 75.5521 145.104 75.6481 145.056C75.8401 145.008 76.08 144.96 76.272 144.912C76.752 144.816 77.28 144.72 77.76 144.672C82.848 144 88.0801 144.288 93.1681 144.48C95.1841 144.576 97.2001 144.672 99.264 144.72C99.6961 144.72 100.128 144.72 100.56 144.816C100.704 144.864 100.848 144.912 100.944 144.96C101.136 145.056 101.328 145.2 101.52 145.296C102.576 146.16 103.392 147.264 103.92 148.56C104.112 149.136 105.264 149.376 105.744 149.376L111.744 149.568C116.256 149.712 120.72 149.904 125.232 150.048C129.936 150.24 134.592 150.432 139.296 150.72C141.024 150.816 142.752 150.912 144.48 151.056L145.44 151.152H145.632L146.016 151.2C146.208 151.2 146.4 151.248 146.592 151.248L146.832 151.296C147.12 151.344 146.64 151.248 146.784 151.296C146.4 151.152 146.016 151.008 145.728 150.768C145.824 150.864 145.728 150.816 145.728 150.72C145.728 150.816 145.824 150.912 145.824 151.008C145.92 151.296 145.92 151.632 145.968 151.92C146.016 152.976 145.968 154.032 145.872 155.088C145.632 158.592 145.104 162.144 144.624 165.6C143.952 170.16 143.232 174.72 142.464 179.28C141.696 183.936 140.88 188.544 140.016 193.2C139.344 196.944 138.624 200.688 137.952 204.432C137.568 206.4 137.184 208.32 136.8 210.288C136.8 210.384 136.752 210.48 136.752 210.528L137.184 210.384H83.5681C81.0721 210.384 78.5761 210.336 76.1281 210.384H76.032C75.6 210.384 75.504 210.624 75.84 210.912C76.32 211.248 76.8481 211.488 77.4241 211.488H131.04C133.536 211.488 136.032 211.536 138.48 211.488H138.576C138.672 211.488 138.96 211.488 139.008 211.344C139.296 209.952 139.536 208.56 139.776 207.216C140.448 203.712 141.072 200.256 141.744 196.752C142.608 192.144 143.424 187.584 144.192 182.976C145.008 178.272 145.776 173.568 146.496 168.864C147.072 165.072 147.6 161.232 147.984 157.392C148.08 156.096 148.224 154.848 148.224 153.552C148.272 152.832 148.224 152.112 147.984 151.44C147.552 150.48 146.208 150.336 145.248 150.24C143.856 150.096 142.512 150 141.12 149.904C136.704 149.616 132.288 149.424 127.92 149.232C123.072 149.04 118.272 148.848 113.424 148.656L104.736 148.368H104.304L106.128 149.232C105.552 147.84 104.64 146.592 103.44 145.632C102.288 144.72 100.896 144.096 99.456 143.856C98.496 143.76 97.584 143.712 96.6241 143.712C91.536 143.52 86.4 143.232 81.312 143.376C78.96 143.376 76.608 143.568 74.256 144.048C73.44 144.24 72.9121 144.384 72.5281 145.152C72.1921 145.872 71.952 146.64 71.856 147.408C71.664 148.56 71.52 149.712 71.472 150.912C71.28 154.176 71.28 157.44 71.376 160.704C71.472 164.736 71.712 168.768 71.952 172.8C72.24 177.072 72.576 181.344 72.96 185.616C73.296 189.504 73.68 193.392 74.064 197.28C74.352 200.256 74.688 203.232 75.024 206.16C75.168 207.6 75.264 209.136 75.552 210.576C75.552 210.624 75.552 210.72 75.552 210.768C75.648 211.2 77.9041 211.728 77.8081 211.2Z" fill="#CECECE"/>
<path d="M125.376 85.7752C114.768 85.4392 104.544 92.4952 100.704 102.335C99.696 104.927 99.168 107.711 99.072 110.495C98.976 114.047 99.456 117.551 99.312 121.103C99.264 124.127 98.496 127.151 97.056 129.791C95.664 132.143 93.84 134.159 91.632 135.743C89.184 137.519 86.4 138.863 83.424 139.583C82.176 139.967 80.832 140.063 79.536 139.871C79.296 139.823 79.056 139.775 78.864 139.679C78.864 139.679 78.48 139.487 78.672 139.583C78.432 139.487 78.672 139.631 78.528 139.487C78.384 139.391 78.288 139.295 78.24 139.151C78.096 138.911 78.048 138.623 78.048 138.335L77.904 138.575C78.72 137.903 79.92 137.999 80.592 138.767C80.64 138.815 80.64 138.815 80.688 138.863C81.792 140.111 81.84 141.743 81.552 143.327C80.928 146.735 78.72 149.759 79.392 153.359C79.68 155.135 80.784 156.671 82.368 157.535C82.656 157.679 83.424 158.063 83.664 157.631C83.904 157.199 83.136 156.671 82.896 156.575C81.648 155.903 81.408 154.031 81.408 152.687C81.408 150.719 82.224 148.895 82.848 147.071C83.472 145.247 84.192 142.991 83.568 140.975C82.944 139.247 81.648 137.807 79.92 137.039C79.152 136.655 78.288 136.511 77.424 136.559C77.088 136.607 76.704 136.703 76.416 136.847C75.984 137.087 75.792 137.279 75.888 137.759C76.176 139.439 77.76 140.495 79.248 140.975C82.56 142.127 86.352 140.831 89.376 139.439C92.784 137.903 95.712 135.599 97.968 132.623C100.416 129.263 101.376 125.375 101.424 121.247C101.472 116.687 100.704 112.079 101.568 107.519C102.24 104.015 103.728 100.703 105.84 97.8712C110.016 92.1112 116.64 87.9832 123.792 87.3112C124.656 87.2152 125.568 87.2152 126.432 87.2152C126.912 87.2152 127.104 86.9272 126.816 86.5432C126.48 86.1112 125.952 85.8232 125.376 85.7752Z" fill="#909090"/>
<path d="M114.912 115.919C114.912 115.919 161.52 117.599 164.496 118.079C167.472 118.559 160.176 181.919 160.176 181.919L106.848 177.551L114.912 115.919Z" fill="white"/>
<path d="M115.824 116.687L122.112 116.927C126.96 117.119 131.76 117.311 136.608 117.455C141.984 117.647 147.312 117.887 152.688 118.127C156.384 118.271 160.176 118.415 163.776 118.703C164.208 118.751 164.592 118.751 165.024 118.799C165.264 118.847 165.456 118.895 165.024 118.751C164.688 118.607 164.4 118.415 164.112 118.127L163.92 117.935C163.776 117.743 163.872 117.791 163.872 117.935C163.872 118.079 163.872 117.839 163.872 117.983C163.872 118.127 163.92 118.127 163.92 118.175C163.968 118.367 164.016 118.559 164.016 118.703C164.112 119.183 164.112 119.663 164.16 120.143C164.256 123.599 164.208 127.055 163.92 130.511C163.632 135.455 163.248 140.399 162.816 145.391C162.336 150.623 161.856 155.903 161.328 161.135C160.896 165.455 160.416 169.823 159.936 174.143C159.696 176.399 159.456 178.703 159.168 180.959C159.168 181.055 159.168 181.151 159.12 181.247L159.36 181.103L154.032 180.671L141.36 179.615L125.904 178.367L112.656 177.263C110.496 177.071 108.336 176.783 106.128 176.735H106.08L107.808 178.079L108.624 171.935L110.544 157.247L112.848 139.487L114.864 124.079L115.584 118.991C115.728 118.175 115.824 117.407 115.92 116.591C115.92 116.543 115.92 116.543 115.92 116.495C115.968 115.967 114 114.863 113.952 115.247L113.184 121.391L111.264 136.079L108.912 153.839L106.896 169.247L106.224 174.287C106.08 175.103 105.984 175.871 105.936 176.687C105.936 176.735 105.936 176.783 105.936 176.783C105.888 177.023 106.464 177.455 106.608 177.551C106.896 177.839 107.28 178.031 107.664 178.127L112.992 178.559L125.664 179.615L141.12 180.863L154.368 181.967C156.528 182.159 158.688 182.447 160.848 182.495H160.944C161.088 182.495 161.184 182.495 161.184 182.351C161.376 180.719 161.568 179.087 161.712 177.455C162.144 173.375 162.576 169.343 163.008 165.263C163.536 160.031 164.064 154.799 164.544 149.615C165.024 144.431 165.456 139.295 165.792 134.111C166.032 130.271 166.272 126.383 166.224 122.495C166.224 121.439 166.176 120.383 165.984 119.327C165.696 118.175 164.784 117.311 163.68 117.119C162.672 116.975 161.568 116.927 160.56 116.879C158.688 116.783 156.864 116.687 154.992 116.591C149.808 116.351 144.576 116.111 139.392 115.919C134.208 115.727 128.928 115.535 123.648 115.295L114.528 114.959H114.096C113.712 114.959 114.48 115.727 114.528 115.775C114.864 116.351 115.296 116.591 115.824 116.687Z" fill="#3D3D3D"/>
<path d="M120.288 127.104C120.288 127.104 119.184 132.624 119.904 132.72C120.624 132.816 126.288 133.008 126.672 133.008C127.056 133.008 127.824 127.392 127.824 127.392L120.288 127.104Z" fill="#3D3D3D"/>
<path d="M126.672 133.247H126C123.408 133.151 120.384 133.055 119.856 132.959C119.76 132.959 119.664 132.863 119.568 132.767C119.04 131.999 119.856 127.871 120.048 127.055L120.096 126.863L128.064 127.199L128.016 127.439C127.248 133.055 126.912 133.247 126.672 133.247ZM120 132.479C120.672 132.575 124.56 132.719 126.048 132.719H126.576C126.816 132.239 127.2 129.839 127.536 127.583L120.48 127.295C120.048 129.599 119.712 132.095 120 132.479Z" fill="#3D3D3D"/>
<path d="M118.944 139.344C118.944 139.344 117.84 144.864 118.56 144.96C119.28 145.056 124.944 145.248 125.328 145.248C125.712 145.248 126.48 139.68 126.48 139.68L118.944 139.344Z" fill="#3D3D3D"/>
<path d="M125.328 145.488H124.656C122.064 145.392 119.04 145.296 118.464 145.2C118.368 145.2 118.272 145.104 118.176 145.008C117.648 144.24 118.464 140.112 118.656 139.296L118.704 139.104L126.672 139.44L126.72 139.68C125.952 145.296 125.568 145.488 125.328 145.488ZM119.136 139.584C118.704 141.888 118.368 144.432 118.656 144.768C119.184 144.864 123.216 144.96 124.704 145.008H125.232C125.472 144.528 125.904 142.128 126.192 139.872L119.136 139.584Z" fill="#3D3D3D"/>
<path d="M118.128 151.583C118.128 151.583 117.024 157.103 117.744 157.199C118.464 157.295 124.128 157.487 124.512 157.487C124.896 157.487 125.664 151.871 125.664 151.871L118.128 151.583Z" fill="#3D3D3D"/>
<path d="M124.512 157.728H123.84C121.248 157.632 118.224 157.536 117.648 157.44C117.552 157.44 117.456 157.344 117.36 157.248C116.832 156.48 117.648 152.352 117.84 151.536L117.888 151.344L125.856 151.68L125.808 151.92C125.136 157.488 124.752 157.728 124.512 157.728ZM117.792 156.96C118.464 157.056 122.4 157.2 123.84 157.2H124.368C124.608 156.72 125.04 154.32 125.328 152.064L118.272 151.776C117.888 154.08 117.552 156.576 117.792 156.96Z" fill="#3D3D3D"/>
<path d="M128.928 103.247C128.4 104.543 128.16 105.935 128.112 107.327C128.112 107.471 128.4 107.711 128.544 107.807C128.784 107.999 129.072 108.095 129.408 108.191C129.648 108.287 129.888 108.287 130.128 108.239C130.32 108.191 130.368 108.143 130.368 107.951C130.368 107.903 130.368 107.807 130.368 107.711V107.855C130.416 106.559 130.704 105.311 131.184 104.111C131.232 103.967 131.088 103.775 130.992 103.679C130.56 103.295 129.984 103.103 129.408 103.055C129.216 103.103 128.976 103.103 128.928 103.247Z" fill="#909090"/>
<path d="M135.12 99.455L132.912 109.535C132.816 109.919 133.728 109.631 133.872 109.583C134.208 109.487 135.024 109.151 135.12 108.767L137.328 98.687C137.424 98.303 136.512 98.591 136.368 98.639C136.032 98.783 135.216 99.071 135.12 99.455Z" fill="#909090"/>
<path d="M133.296 133.631C134.256 133.391 135.12 133.055 135.984 132.575C136.8 132.143 137.664 131.567 137.424 130.511C137.232 129.599 136.176 128.783 135.216 129.119C134.4 129.455 134.16 130.511 134.16 131.327C134.16 132.383 134.784 133.343 135.792 133.775C136.608 134.015 137.52 133.967 138.288 133.631C139.2 133.295 140.112 132.863 140.928 132.335C141.6 131.903 142.512 131.327 142.848 130.511C143.184 129.503 142.704 128.447 141.744 128.015C140.784 127.631 140.064 128.399 139.776 129.263C139.248 130.943 140.256 132.911 141.744 133.727C143.232 134.543 145.536 134.543 146.832 133.343C147.552 132.719 147.648 131.567 147.024 130.847C146.496 130.127 145.488 129.647 144.768 130.271C143.904 131.039 144.24 132.335 144.864 133.151C145.584 134.111 146.736 134.351 147.84 134.543C149.76 134.879 152.448 134.447 152.784 132.095C152.88 131.471 152.592 130.895 152.064 130.607C151.68 130.367 150.96 130.367 150.864 130.943C150.672 132.239 149.328 132.575 148.176 132.479C147.792 132.431 147.456 132.383 147.072 132.335C146.784 132.239 146.496 132.143 146.208 132.095C146.256 132.095 145.92 132.047 146.16 132.143C146.16 132.143 146.256 132.335 146.208 132.191C146.16 131.999 146.016 131.855 145.824 131.759C145.152 131.039 145.632 131.327 145.344 131.471C144.432 131.999 143.184 132.431 142.176 131.855C141.888 131.711 141.696 131.423 141.648 131.135C141.6 130.943 141.6 130.799 141.648 130.607C141.648 130.559 141.792 130.079 141.888 130.127L141.408 129.935C141.312 129.167 141.168 128.927 140.976 129.215C140.928 129.263 140.928 129.311 140.88 129.359C140.784 129.455 140.64 129.551 140.544 129.647C140.256 129.887 139.968 130.079 139.632 130.319C139.008 130.751 138.384 131.087 137.712 131.327C137.424 131.423 137.088 131.567 136.8 131.663C136.656 131.711 136.464 131.759 136.32 131.759C136.224 131.759 136.08 131.711 135.984 131.759C135.888 131.807 136.128 132.191 136.224 132.047C136.32 131.903 136.224 131.855 136.224 131.759C136.272 131.615 136.32 131.519 136.32 131.375L136.416 131.231C136.272 131.231 136.128 131.183 136.032 131.087L135.648 130.559L135.696 130.655L135.552 130.079C135.552 129.983 135.504 130.079 135.408 130.127C135.312 130.175 135.168 130.271 135.072 130.319C134.784 130.511 134.496 130.655 134.16 130.799C133.584 131.087 132.96 131.279 132.336 131.423C131.184 131.807 132.288 133.919 133.296 133.631Z" fill="#3D3D3D"/>
<path d="M132.192 145.536C133.344 145.488 134.4 145.008 135.168 144.192C135.36 143.904 135.408 143.52 135.264 143.184C135.072 142.56 134.544 142.032 133.872 141.84C133.296 141.696 132.672 141.984 132.432 142.512C131.808 143.808 132.816 145.2 133.92 145.824C135.888 146.88 138.576 146.736 140.304 145.248C141.312 144.336 141.744 142.992 140.736 141.888C140.16 141.168 139.104 141.024 138.336 141.6C138.096 141.792 137.904 142.08 137.808 142.368C136.8 145.008 139.776 147.504 142.032 148.128C143.28 148.512 144.864 148.176 145.632 147.024C146.064 146.304 146.064 145.392 145.632 144.672C145.248 143.952 144.384 143.568 143.616 143.856C143.088 144.048 143.28 144.96 143.472 145.296C144.336 146.736 145.776 147.792 147.408 148.08C149.04 148.32 150.72 147.744 151.824 146.496C152.544 145.728 151.152 143.808 150.288 144.72C148.848 146.208 146.064 146.4 144.912 144.48L144.768 145.92L144.672 145.968L144.24 145.632C143.856 145.248 144.192 145.152 143.904 145.488C143.808 145.584 143.712 145.68 143.568 145.776C143.328 145.92 143.04 146.016 142.752 146.064C142.032 146.112 141.312 145.872 140.736 145.44C140.304 145.2 139.92 144.816 139.632 144.384C139.536 144.144 139.536 143.904 139.632 143.664C139.68 143.568 139.776 143.52 139.824 143.472H139.872C140.064 143.424 139.968 143.28 139.536 143.088L139.44 142.512C139.44 143.04 138.72 143.52 138.24 143.76C137.712 144.048 137.088 144.192 136.464 144.24C135.888 144.288 135.264 144.192 134.688 144.048C134.592 144.048 133.968 143.712 133.968 143.712C133.968 143.712 134.16 143.952 134.064 144.048C133.968 144 133.824 143.952 133.776 143.856L133.44 143.328L133.488 143.424L133.584 142.416C133.008 142.992 132.192 143.328 131.376 143.328C130.8 143.328 130.752 144.192 130.896 144.576C131.136 145.056 131.616 145.488 132.192 145.536Z" fill="#3D3D3D"/>
<path d="M129.696 156.479L132.48 156.575C133.296 156.671 134.16 156.623 134.976 156.527C135.648 156.383 136.704 156.047 136.896 155.327C136.992 154.847 136.752 154.319 136.32 154.079C135.648 153.695 134.736 153.935 134.064 154.175C133.392 154.367 132.912 154.847 132.672 155.519C132.336 156.911 133.776 157.679 134.976 157.679C136.8 157.727 138.576 156.767 140.064 155.807C141.168 155.135 142.896 153.983 142.704 152.447C142.56 151.439 141.36 151.775 140.688 152.015C140.016 152.303 139.536 152.879 139.344 153.551C139.008 154.703 139.152 155.951 139.776 157.007C140.544 158.399 142.08 159.167 143.664 158.927C144.528 158.783 145.536 158.495 146.016 157.727C146.4 157.199 146.352 156.479 145.872 156.047C145.44 155.663 143.856 156.191 143.664 156.671C143.136 158.063 145.2 158.831 146.208 159.119C147.744 159.503 149.376 159.455 150.864 158.927C151.104 158.831 152.016 158.591 151.92 158.207C151.824 157.823 150.864 158.111 150.672 158.159C149.76 158.447 148.8 158.399 147.936 158.111C147.216 157.871 145.584 157.199 145.968 156.239L143.76 156.863C144 157.103 144.096 157.439 143.952 157.775C143.904 157.871 143.904 157.967 143.856 158.015C143.664 158.255 143.808 158.207 144.288 157.967C144.096 157.871 143.904 157.823 143.712 157.775C143.04 157.487 142.512 156.959 142.176 156.335C141.84 155.711 141.6 155.039 141.6 154.319C141.6 153.935 141.6 153.599 141.696 153.263C141.744 152.927 141.888 152.591 142.08 152.303L141.312 152.639L141.456 152.591L140.4 152.687L140.544 152.735L140.352 152.591C141.168 153.887 139.296 155.087 138.432 155.663C137.568 156.239 136.272 157.151 135.36 155.999C135.216 155.807 135.072 155.567 135.072 155.279C135.072 154.991 135.216 154.847 135.264 154.559C135.456 154.319 135.312 154.367 134.784 154.607C134.256 154.607 134.112 154.703 134.352 154.799C134.4 154.895 134.544 154.943 134.592 155.039C134.736 155.279 134.64 155.423 134.736 155.615C134.736 155.663 134.688 155.711 134.688 155.759L135.504 155.471C135.36 155.471 135.168 155.471 135.024 155.471L133.872 155.423L131.328 155.327C130.752 155.327 130.176 155.471 129.696 155.807C129.168 156.239 129.168 156.479 129.696 156.479Z" fill="#3D3D3D"/>
<path d="M87.2641 89.3272L69.5041 80.8312C68.7361 80.4472 52.5601 116.111 52.1761 116.879C51.7921 117.647 77.7121 130.847 78.3841 129.455C79.0561 128.063 91.2481 104.111 91.2481 104.111C88.5601 99.9352 87.2641 89.3272 87.2641 89.3272Z" fill="white"/>
<path d="M86.9281 88.5107L74.4481 82.5107C72.7201 81.6947 71.0401 80.7827 69.2641 80.0147C68.8321 79.8227 68.6401 79.9667 68.4001 80.3027C68.0641 80.7827 67.7761 81.3107 67.5361 81.7907C65.1841 86.1587 63.1201 90.7187 60.9601 95.2307C58.5121 100.463 56.1121 105.647 53.7121 110.927L51.6481 115.439L51.4081 115.919C51.4081 115.967 51.3601 116.015 51.3601 116.063V116.111C51.4561 115.871 51.3601 116.111 51.3601 116.159C51.4561 117.023 52.3201 117.647 52.9921 118.127C54.6721 119.231 56.4001 120.239 58.1761 121.103C60.7681 122.495 63.3601 123.839 66.0001 125.135C68.5441 126.383 71.1361 127.631 73.7281 128.735C74.7361 129.167 75.7921 129.599 76.8001 129.983C77.3761 130.223 78.0001 130.367 78.6241 130.463C79.0561 130.511 79.2481 130.415 79.4401 130.031L80.4001 128.159L83.8561 121.295L91.3441 106.559L92.1121 105.071C92.2561 104.783 92.2081 104.399 91.9681 104.159C91.5841 103.535 91.2961 102.863 91.0081 102.143C89.7121 98.8787 89.0401 95.3747 88.5121 91.9187C88.4161 91.2467 88.3201 90.5747 88.2241 89.9027C88.1761 89.3747 87.6001 88.8947 87.1681 88.6067C86.9281 88.4147 86.4001 88.2227 86.4481 88.7027C86.8801 92.5907 87.6961 96.4307 88.8961 100.127C89.3281 101.471 89.9041 102.719 90.6241 103.919L90.4801 103.247L85.9681 112.127C83.6161 116.735 81.3121 121.343 78.9601 125.951L78.0001 127.919C77.9041 128.111 77.8081 128.303 77.7121 128.495C77.6161 128.687 77.5201 128.735 77.6641 128.687C77.6161 128.687 77.5681 128.735 77.5201 128.735C77.3281 128.735 77.6161 128.783 77.3761 128.735C77.1361 128.687 76.8961 128.639 76.6561 128.543C75.9361 128.351 75.2161 128.063 74.5441 127.775C69.8401 125.903 65.3281 123.647 60.8641 121.343C58.8001 120.287 56.7361 119.183 54.7201 118.079L54.5761 117.983C54.4321 117.935 54.7201 118.079 54.5761 117.983L54.2881 117.791L53.8081 117.503C53.5201 117.311 53.2321 117.167 52.9441 116.975L52.6561 116.783L52.5121 116.687C52.4161 116.639 52.8001 116.879 52.6081 116.735C52.4161 116.591 52.7521 116.879 52.6561 116.783C52.8961 117.023 53.0401 117.359 53.1361 117.695C53.1361 117.791 53.0881 117.839 53.1361 117.647V117.599C53.1361 117.551 53.1841 117.503 53.1841 117.455C53.2801 117.311 53.3281 117.167 53.3761 117.023L54.0481 115.535C54.8161 113.807 55.6321 112.127 56.4001 110.399C58.6081 105.551 60.8641 100.751 63.1201 95.9507C65.0401 91.9187 66.9121 87.8387 68.9761 83.9027C69.2641 83.4227 69.5041 82.8947 69.7921 82.4147C69.8881 82.2707 70.2721 81.8867 70.2721 81.7907C70.2241 81.9347 69.6961 81.5987 69.8881 81.7907C69.9361 81.8387 70.0321 81.8867 70.0801 81.8867L70.8481 82.2707L73.4401 83.5187L86.6401 89.8547L87.5521 90.2867C87.9841 90.4787 88.1761 90.2387 87.9841 89.8547C87.8881 89.1827 87.4561 88.7507 86.9281 88.5107Z" fill="#CECECE"/>
<path d="M81.9841 98.7351C81.9841 98.7351 86.8321 91.6311 87.2641 89.3271C88.2241 94.3671 89.5681 99.3111 91.2961 104.111L81.9841 98.7351Z" fill="white"/>
<path d="M83.0402 98.9271C83.9042 97.6311 84.7682 96.3351 85.5362 95.0391C86.1602 93.9831 86.7842 92.9271 87.3602 91.8711C87.8402 91.1031 88.1762 90.2871 88.4162 89.3751L86.0642 89.5191C86.9762 94.5591 88.3202 99.5031 90.0962 104.303L92.2562 103.679L84.0962 98.9751L82.9442 98.3031C82.4162 98.0151 81.7922 98.0151 81.2642 98.2551C80.9282 98.3991 80.4482 98.9271 80.9762 99.2151L89.0882 103.919L90.2402 104.591C90.6722 104.831 91.1522 104.879 91.6322 104.735C91.8722 104.687 92.5442 104.351 92.4002 103.967C90.6722 99.1671 89.3282 94.2231 88.3682 89.1831C88.2242 88.3191 86.1602 88.5591 86.0162 89.3271C85.7762 90.1911 85.4402 90.9591 85.0082 91.7271C84.4802 92.7351 83.8562 93.7431 83.2802 94.7511C82.5122 96.0471 81.6962 97.2951 80.8322 98.5431C80.2562 99.5031 82.6082 99.5991 83.0402 98.9271Z" fill="#CECECE"/>
<path d="M60.0482 114.767C61.3442 114.863 62.6882 114.623 63.8402 113.999C64.3682 113.711 64.8962 113.375 65.3282 112.943C65.9042 112.319 65.4722 111.599 64.8962 111.119C63.7922 110.159 62.5442 110.543 61.8722 111.791C61.2482 112.943 61.3442 114.335 62.1602 115.391C62.9282 116.495 64.3202 117.455 65.7122 117.359C66.2402 117.311 66.7682 117.119 67.2002 116.783C67.6322 116.495 68.1122 115.871 68.0162 115.295C67.7282 113.999 65.4722 112.943 64.8962 114.575C64.4162 115.919 65.8082 117.263 66.7682 117.983C67.9682 118.943 69.4562 119.423 70.9922 119.423C71.5682 119.423 72.4322 119.327 72.4802 118.559C72.5282 117.695 71.5202 116.927 70.8002 116.735C70.6562 116.687 70.3682 116.639 70.2722 116.783C69.6482 117.695 70.1762 118.847 70.8482 119.567C71.7122 120.383 72.7682 120.959 73.9202 121.151C74.4002 121.247 74.5922 121.007 74.4002 120.575C74.1122 120.047 73.6802 119.663 73.1042 119.471C72.6722 119.375 72.2882 119.183 71.9042 119.087C72.0962 119.279 72.0962 119.327 72.0002 119.183C71.9522 119.087 71.9522 118.991 71.9042 118.895C71.9042 118.655 71.9522 118.463 72.0962 118.271L71.5682 118.319L71.7122 118.367L70.9442 117.935L71.0402 118.031L70.5122 117.359C70.6082 117.551 69.2642 117.599 69.1682 117.599C68.6402 117.551 68.1602 117.455 67.6802 117.215C67.3922 117.071 67.1042 116.831 66.9122 116.591C66.7682 116.399 66.7202 116.159 66.8162 115.919C66.8642 115.775 66.9122 115.679 67.0082 115.535C67.2482 115.295 67.2962 115.535 66.9122 115.247L66.0962 114.383L66.1442 114.527L66.0482 114.143C66.0482 115.007 64.2722 116.111 63.6482 115.343C63.2642 114.863 63.4082 113.951 63.6482 113.423C63.7922 113.087 64.4162 112.079 64.8962 112.223L64.1282 111.791C63.9362 111.119 63.6962 110.975 63.4562 111.263C63.3602 111.359 63.2642 111.455 63.1682 111.503C63.0722 111.551 62.8802 111.743 62.7362 111.839C61.5842 112.655 60.1922 112.991 58.7522 112.895C58.2242 112.847 58.4162 113.471 58.6082 113.759C58.9922 114.287 59.4722 114.623 60.0482 114.767Z" fill="#CECECE"/>
<path d="M67.4403 103.294C68.4003 102.67 69.3603 102.142 70.4163 101.758C71.2323 101.47 72.2403 101.23 73.0083 101.758C73.7763 102.238 74.2563 103.102 74.2083 104.062C74.1603 104.878 73.6323 105.838 72.8163 106.03L74.6883 106.414C74.3523 106.03 75.7443 105.166 75.9362 105.022C76.5603 104.638 77.2323 104.398 78.0003 104.302C78.1443 104.302 78.2883 104.302 78.3843 104.254C78.6243 104.254 78.6243 104.254 78.4803 104.254C78.3363 104.254 78.3363 104.254 78.4803 104.35C78.6243 104.686 78.8643 104.974 79.0083 105.31C79.2963 106.078 79.4883 106.894 79.5363 107.71C79.5843 108.43 81.9363 108.574 81.8883 108.046C81.8403 106.846 81.5043 105.646 80.8803 104.59C80.1123 103.438 78.5282 103.198 77.2322 103.246C76.0322 103.294 74.8323 103.582 73.8243 104.206C73.1523 104.638 71.7123 105.502 72.5283 106.414C72.9123 106.798 73.9203 106.894 74.4003 106.798C75.6483 106.558 76.5603 105.502 76.6083 104.254C76.6563 102.958 75.6963 101.854 74.6403 101.23C73.1523 100.462 71.4723 100.222 69.8403 100.558C68.2563 100.846 66.8162 101.662 65.4722 102.526C65.0402 102.766 65.5203 103.054 65.8083 103.198C66.1923 103.342 67.0083 103.534 67.4403 103.294Z" fill="#CECECE"/>
<path d="M75.2642 97.9185C75.0242 98.3505 74.9762 98.8305 75.0722 99.3105C75.1682 99.9345 75.4082 100.463 75.8402 100.943C76.5122 101.711 77.5202 102.143 78.5762 102.095C79.5842 102.047 80.1122 101.087 80.2082 100.223C80.3042 99.3585 80.1122 98.4945 79.6802 97.7265C79.2002 96.8145 78.3842 96.1425 77.4242 95.8545C76.8962 95.7105 76.5602 96.2865 76.6562 96.7665C76.7042 97.3425 77.0882 97.8705 77.6642 98.1105L77.8082 98.1585C77.9522 98.2065 77.7602 98.1105 77.7122 98.1105C77.8082 98.1585 77.9042 98.2065 77.9522 98.2545L78.0482 98.3025C78.1922 98.3985 77.8562 98.1585 77.9522 98.2545L78.1442 98.4465C78.2402 98.5425 78.0482 98.3505 78.0482 98.3505C78.0962 98.3985 78.1442 98.4465 78.1442 98.4465C78.1442 98.4945 78.2402 98.6385 78.2882 98.6385C78.3362 98.6385 78.0962 98.3505 78.1922 98.5425C78.1922 98.5905 78.2402 98.6385 78.2402 98.6385L78.2882 98.7825C78.2882 98.7825 78.1922 98.4465 78.2402 98.6385C78.2402 98.7345 78.2882 98.7825 78.3362 98.8785C78.3842 99.0705 78.3362 98.7825 78.2882 98.7825C78.2402 98.7825 78.2882 98.8785 78.3362 98.9265C78.3362 99.0225 78.3362 99.1185 78.3362 99.2145C78.3362 99.1665 78.3362 98.9265 78.3362 99.1185C78.3362 99.1665 78.3362 99.2145 78.3362 99.2625C78.3362 99.3105 78.3362 99.3585 78.3362 99.4065C78.3362 99.7425 78.6242 99.9825 78.9602 99.9825C79.2962 99.9825 79.5362 99.6945 79.5362 99.3585C79.5362 99.0225 79.2482 98.7825 78.9122 98.7825C78.6242 98.7825 78.3362 99.0225 78.3362 99.3585C78.2882 99.4545 78.2882 99.5505 78.2402 99.5985C78.2402 99.6465 78.1922 99.6945 78.1922 99.7425C78.1442 99.8865 78.2882 99.6465 78.1922 99.7425C78.1442 99.8385 78.0482 99.8865 78.0002 99.9825L78.1922 99.8385C78.0962 99.8865 78.0002 99.9345 77.9042 99.9825L78.0962 99.9345C78.0002 99.9345 77.9042 99.9825 77.8082 99.9825C77.7602 99.9825 77.5202 99.9825 77.6642 99.9825H77.5202L77.2802 99.9345L77.0882 99.8865L76.9922 99.8385C77.1362 99.8865 77.1362 99.8865 77.0402 99.8385C76.9442 99.7905 76.9442 99.7905 76.8962 99.7425L76.8002 99.6945C76.9442 99.7905 76.9442 99.7905 76.8962 99.7425C76.8482 99.6945 76.6562 99.5505 76.8002 99.6945C76.9442 99.8385 76.8002 99.6465 76.7522 99.6465C76.8482 99.8385 76.8962 99.8865 76.8482 99.7425C76.8482 99.6945 76.8002 99.6945 76.8002 99.6465L76.8962 99.8385C76.8962 99.7905 76.8482 99.7425 76.8482 99.7425C76.8002 99.5505 76.8962 100.031 76.8482 99.7425C76.8002 99.5505 76.8002 99.9825 76.8482 99.7905V99.6945C76.8002 99.8385 76.8002 99.8865 76.8482 99.7905C76.8962 99.6945 76.8962 99.6465 76.9442 99.5985C77.0402 99.3585 77.0402 99.0705 76.9442 98.7825C76.8482 98.4945 76.7042 98.2065 76.4642 98.0145C76.2722 97.8225 76.0322 97.7265 75.7922 97.7265C75.5522 97.5825 75.3602 97.7265 75.2642 97.9185Z" fill="#CECECE"/>
<path d="M156.384 80.543L143.808 93.023C143.232 93.599 168.576 118.079 169.152 118.655C169.728 119.231 188.736 101.231 187.776 100.223C186.816 99.215 170.16 81.647 170.16 81.647C165.744 82.655 156.384 80.543 156.384 80.543Z" fill="white"/>
<path d="M155.568 79.6313L146.688 88.4153C145.488 89.6153 144.144 90.7673 143.04 92.0633C142.272 92.9273 143.808 94.3193 144.384 94.9433C147.36 98.2553 150.576 101.375 153.744 104.495C157.44 108.143 161.136 111.791 164.88 115.439L168.144 118.607C168.384 118.847 168.624 119.087 168.912 119.327C169.584 119.855 170.064 119.615 170.64 119.183C172.032 118.127 173.328 117.023 174.576 115.823C176.544 114.047 178.512 112.223 180.384 110.351C182.208 108.575 184.032 106.799 185.76 104.927C186.384 104.255 187.056 103.535 187.632 102.815C188.064 102.383 188.4 101.855 188.688 101.327C189.168 100.175 187.728 99.1193 187.008 98.3513C185.424 96.7193 183.888 95.0393 182.304 93.4073C178.848 89.7593 175.392 86.1113 171.936 82.4633L170.832 81.3113C170.64 81.1193 170.448 80.9273 170.256 80.7833C169.824 80.5433 169.392 80.7353 168.912 80.7833C168.576 80.8313 168.192 80.8793 167.856 80.8793C164.64 81.0713 161.328 80.5433 158.208 79.9673C157.584 79.8713 156.912 79.7273 156.288 79.5833C155.808 79.4873 155.424 79.7273 155.52 80.2553C155.664 80.8313 156.096 81.3113 156.672 81.5033C158.496 81.9353 160.32 82.2233 162.144 82.4633C164.976 82.8473 168.048 83.2313 170.88 82.6073L169.728 82.0793L175.824 88.5593C179.04 91.9193 182.208 95.2793 185.376 98.6393C185.856 99.1193 186.288 99.5993 186.768 100.127C186.912 100.271 187.008 100.415 187.152 100.559C187.2 100.607 187.2 100.655 187.248 100.655C187.056 100.415 186.912 100.127 186.864 99.7913C186.816 99.8393 186.768 99.9353 186.768 100.031C186.768 100.127 186.672 100.223 186.624 100.271L186.528 100.415C186.576 100.319 186.576 100.367 186.48 100.463C186.048 101.039 185.568 101.615 185.088 102.143C182.064 105.551 178.752 108.719 175.44 111.791C173.952 113.183 172.416 114.575 170.88 115.919C170.352 116.351 169.872 116.783 169.296 117.215C169.104 117.359 168.96 117.455 168.768 117.599C168.576 117.743 168.912 117.599 168.768 117.599C168.624 117.599 168.768 117.599 168.864 117.599C169.632 117.743 170.064 118.415 169.632 117.983C169.536 117.887 169.44 117.791 169.344 117.695L168.288 116.639C167.088 115.487 165.888 114.287 164.688 113.135C161.28 109.823 157.92 106.463 154.512 103.151C151.632 100.271 148.752 97.4393 145.968 94.4633C145.584 94.0793 145.248 93.6473 144.912 93.2633L144.72 93.0713C144.624 92.9753 144.96 93.3593 144.768 93.1193C144.72 93.0713 144.72 93.0233 144.672 92.9753C144.768 93.1193 144.816 93.2153 144.816 93.3593C144.816 93.3593 144.816 93.9833 144.672 93.9353L144.72 93.8873C144.768 93.8393 144.816 93.7913 144.864 93.7433L145.392 93.2153L147.216 91.4393L156.576 82.1753L157.248 81.5033C157.92 80.7353 156.288 78.9593 155.568 79.6313Z" fill="#CECECE"/>
<path d="M162.72 87.887C162.72 87.887 158.16 81.647 156.384 80.543C160.944 81.263 165.552 81.599 170.112 81.599L162.72 87.887Z" fill="white"/>
<path d="M162.816 87.4552C161.952 86.3032 161.088 85.1512 160.176 84.0472C159.456 83.1352 158.688 82.2232 157.92 81.4072C157.344 80.7352 156.672 80.1112 155.952 79.6312L156.912 81.5992C161.472 82.3192 166.08 82.7032 170.64 82.6552L169.44 80.6392L162.048 86.8792C161.616 87.2632 163.008 89.1832 163.344 88.8952L170.736 82.6552C171.12 82.3192 169.968 80.6392 169.536 80.6392C164.928 80.6392 160.32 80.3032 155.808 79.5832C155.424 79.5352 155.808 80.3032 155.856 80.3992C156.048 80.8792 156.384 81.2632 156.768 81.5992C157.008 81.7432 157.248 81.9352 157.44 82.1272C157.68 82.3672 157.968 82.6552 158.256 82.9912C158.928 83.7592 159.552 84.4792 160.176 85.2952C160.992 86.3032 161.808 87.3592 162.576 88.4152C162.672 88.5592 163.152 89.2312 163.392 88.8952C163.632 88.5592 162.96 87.6472 162.816 87.4552Z" fill="#CECECE"/>
<path d="M168.816 112.656C169.056 112.176 169.344 111.696 169.68 111.264C170.352 110.4 171.12 109.68 171.984 109.008C172.416 108.672 172.896 108.384 173.376 108.144C173.136 108.624 172.848 109.104 172.512 109.536C172.176 109.968 171.84 110.352 171.456 110.736C171.072 111.12 170.688 111.456 170.256 111.792C169.776 112.176 169.344 112.464 168.816 112.656Z" fill="white"/>
<path d="M154.848 92.5432C155.376 91.9192 155.952 91.3432 156.528 90.7672C156.816 90.4792 157.104 90.2392 157.392 89.9512L157.872 89.5192L158.112 89.3272L158.208 89.2312C158.016 89.4232 158.16 89.2792 158.208 89.2312C158.352 89.1352 158.592 88.9432 158.592 88.7512C158.592 88.6072 158.496 88.4632 158.352 88.4632C158.112 88.4152 157.824 88.4632 157.584 88.5592C157.296 88.6552 157.008 88.7992 156.768 88.9912C155.472 90.1432 154.224 91.3432 153.024 92.6392C152.928 92.7352 152.784 92.9272 152.832 93.0712C152.88 93.2152 153.168 93.2632 153.312 93.2632C153.6 93.2632 153.888 93.1672 154.128 93.0712C154.464 92.9272 154.704 92.7832 154.848 92.5432Z" fill="#909090"/>
<path d="M155.232 90.7191C156.528 92.3511 157.92 93.9351 159.408 95.4711C159.792 95.8551 160.272 96.1911 160.8 96.3831C160.944 96.4311 161.184 96.6231 161.328 96.5751C161.472 96.5271 161.376 96.4311 161.328 96.3831C159.888 94.8471 158.496 93.3111 157.152 91.6311C157.008 91.4391 156.816 91.2951 156.576 91.1511C156.336 90.9591 156.048 90.8151 155.76 90.7191C155.616 90.5751 154.944 90.3351 155.232 90.7191Z" fill="#909090"/>
<path d="M161.616 104.544C162.144 104.208 162.432 103.632 162.432 103.008C162.336 102.144 161.76 101.376 160.992 100.944C160.272 100.56 160.08 101.376 160.272 101.952C160.56 102.768 161.28 103.392 162.096 103.584C163.2 103.872 164.4 103.392 164.976 102.336C165.552 101.088 164.832 99.5039 163.872 98.6399C163.728 98.4959 163.152 98.0159 162.912 98.2559C162.288 98.9279 163.152 100.032 163.632 100.512C164.16 101.04 164.832 101.424 165.6 101.52C166.848 101.616 167.952 100.704 168.048 99.4559C168.048 99.3119 168.048 99.1679 168.048 99.0239L167.424 99.2639C168.096 99.6479 168.912 99.5519 169.488 99.0239C170.016 98.3519 170.064 97.4399 169.632 96.7199L169.536 97.5359C170.544 97.6319 171.552 97.1999 172.224 96.4319C172.752 95.8559 171.168 94.0799 170.736 94.5599C170.16 95.2799 169.248 95.6159 168.336 95.5679C167.952 95.5199 168.144 96.2399 168.24 96.3839C168.528 96.9599 167.664 97.7759 167.04 97.4879C166.8 97.3919 166.416 97.3439 166.416 97.7279C166.464 98.3519 166.128 98.9759 165.6 99.3119C165.36 99.4559 165.072 99.5519 164.736 99.5519C164.592 99.5519 164.448 99.5039 164.304 99.5039C164.208 99.5039 164.16 99.4559 164.112 99.4079C163.872 99.2639 163.968 99.4559 164.496 100.128L163.536 99.7439C163.824 99.9839 163.488 99.6959 163.488 99.6959C163.536 99.8399 163.536 100.032 163.536 100.176C163.488 100.56 163.296 100.896 163.056 101.136C162.768 101.376 162.432 101.568 162.048 101.616C161.808 101.664 161.376 101.712 161.184 101.568L161.808 102.24L161.952 102.768L161.568 102.672C161.136 101.712 160.896 101.472 160.8 101.904C160.752 102 160.704 102.096 160.656 102.192C160.512 102.336 160.368 102.48 160.224 102.624C159.552 103.2 161.088 105.024 161.616 104.544Z" fill="#CECECE"/>
<path d="M166.32 109.247C166.656 108.959 167.04 108.671 167.328 108.335C167.664 108.047 167.952 107.759 168.192 107.375C168.672 106.415 167.28 105.983 166.608 105.839C166.224 105.791 165.792 105.791 165.408 105.935C165.216 105.983 164.784 106.175 164.832 106.463C165.024 107.471 166.08 107.903 166.992 107.951C168 108.047 169.248 107.759 169.92 106.991C170.448 106.367 170.64 105.551 170.448 104.735C170.16 103.919 169.536 103.247 168.72 102.959C168.288 102.815 167.856 102.815 167.424 102.959C167.184 103.055 166.704 103.199 166.704 103.535C166.704 105.167 168.864 105.503 170.064 105.407C171.264 105.311 173.424 104.687 173.04 103.055L170.688 103.391C171.072 104.063 172.176 104.063 172.848 103.919C173.568 103.775 174.144 103.295 174.336 102.575C174.624 101.759 172.224 101.759 171.984 102.479C171.936 102.623 171.888 102.767 171.792 102.863C171.6 103.247 171.504 102.911 172.176 102.863L172.8 102.911C172.896 102.911 173.04 103.103 172.896 102.911C172.656 102.527 171.888 102.575 171.552 102.623C171.312 102.671 170.448 102.815 170.544 103.247C170.64 103.535 170.544 103.871 170.352 104.111C170.304 104.207 170.208 104.255 170.112 104.303C169.968 104.351 170.208 104.303 170.016 104.303C169.824 104.303 170.256 104.303 169.92 104.303C170.112 104.303 169.68 104.255 169.776 104.303C169.68 104.303 169.536 104.255 169.488 104.207C169.2 104.015 169.056 103.679 169.056 103.343L167.04 103.871C167.904 104.303 168.288 105.263 168 106.175C167.904 106.415 167.808 106.607 167.664 106.751C167.616 106.799 167.52 106.847 167.472 106.895C167.52 106.847 167.28 106.895 167.424 106.895H167.664C167.712 106.847 167.664 106.895 167.568 106.847C167.376 106.703 167.232 106.511 167.184 106.319L165.408 106.943C165.552 106.991 165.696 106.943 165.792 107.135C165.888 107.327 165.648 107.519 165.504 107.663C165.072 108.095 164.592 108.527 164.112 108.911C163.68 109.247 164.304 109.583 164.592 109.631C165.264 109.679 165.84 109.535 166.32 109.247Z" fill="#CECECE"/>
<path d="M176.688 101.52C176.688 101.472 176.688 101.424 176.688 101.376V101.424C176.688 101.232 176.784 101.088 176.88 100.944C176.88 100.896 176.88 100.848 176.88 100.848C176.832 100.752 176.832 100.704 176.784 100.608C176.736 100.512 176.64 100.368 176.592 100.272C176.544 100.176 176.448 99.9836 176.352 99.8876C176.208 99.6476 176.016 99.4076 175.824 99.2156L175.68 99.0716C175.632 99.0236 175.584 98.9756 175.536 98.9756C175.392 99.1676 175.344 99.4076 175.344 99.6476C175.344 99.6956 175.392 99.7916 175.44 99.8396C175.488 99.9356 175.536 100.032 175.584 100.128C175.728 100.416 175.92 100.656 176.112 100.896L176.304 101.136C176.4 101.232 176.496 101.376 176.592 101.472L176.688 101.52C176.736 101.568 176.688 101.568 176.688 101.52Z" fill="#CECECE"/>
<path d="M89.9999 157.631C89.9999 157.631 169.488 156.095 171.744 158.831C174 161.567 160.512 209.231 157.344 210.863C154.176 212.495 76.7039 210.863 76.7039 210.863C76.7039 210.863 86.2079 157.679 89.9999 157.631Z" fill="#909090"/>
<mask id="path-35-outside-1_11677_231033" maskUnits="userSpaceOnUse" x="93.6895" y="177.916" width="64" height="13" fill="black">
<rect fill="white" x="93.6895" y="177.916" width="64" height="13"/>
<path d="M94.6895 189.751V179.165H97.9742C98.5657 179.165 99.1002 179.305 99.5776 179.585C100.055 179.866 100.434 180.244 100.714 180.722C100.994 181.199 101.134 181.734 101.134 182.325C101.134 182.906 100.994 183.441 100.714 183.929C100.434 184.406 100.055 184.785 99.5776 185.065C99.1002 185.345 98.5657 185.485 97.9742 185.485H95.9348V189.751H94.6895ZM95.9348 184.349H97.9275C98.2907 184.349 98.6176 184.261 98.9082 184.084C99.2092 183.898 99.4479 183.649 99.6243 183.337C99.8111 183.026 99.9045 182.689 99.9045 182.325C99.9045 181.952 99.8111 181.614 99.6243 181.313C99.4479 181.002 99.2092 180.758 98.9082 180.582C98.6176 180.395 98.2907 180.302 97.9275 180.302H95.9348V184.349Z"/>
<path d="M109.444 190L107.903 185.921C107.809 185.662 107.711 185.485 107.607 185.392C107.503 185.288 107.358 185.231 107.171 185.221H104.789V189.751H103.544V179.165H107.171C107.732 179.165 108.24 179.3 108.697 179.57C109.164 179.84 109.532 180.208 109.802 180.675C110.072 181.132 110.207 181.64 110.207 182.201C110.207 182.813 110.041 183.368 109.709 183.866C109.387 184.354 108.967 184.717 108.448 184.956C108.78 185.081 109.013 185.33 109.148 185.703L110.627 189.626L109.444 190ZM104.789 184.131H107.109C107.451 184.131 107.763 184.043 108.043 183.866C108.323 183.69 108.546 183.457 108.712 183.166C108.878 182.865 108.961 182.543 108.961 182.201C108.961 181.848 108.878 181.531 108.712 181.251C108.546 180.961 108.323 180.732 108.043 180.566C107.763 180.39 107.451 180.302 107.109 180.302H104.789V184.131Z"/>
<path d="M117.323 190C115.922 190 114.827 189.512 114.038 188.537C113.26 187.561 112.87 186.202 112.87 184.458C112.87 182.714 113.26 181.355 114.038 180.379C114.827 179.404 115.922 178.916 117.323 178.916C118.257 178.916 119.056 179.139 119.72 179.585C120.395 180.021 120.908 180.654 121.261 181.485C121.625 182.305 121.806 183.296 121.806 184.458C121.806 185.61 121.625 186.601 121.261 187.431C120.908 188.262 120.395 188.9 119.72 189.346C119.056 189.782 118.257 190 117.323 190ZM117.323 188.864C118.34 188.864 119.134 188.474 119.705 187.696C120.275 186.918 120.561 185.838 120.561 184.458C120.561 183.078 120.275 181.998 119.705 181.22C119.134 180.442 118.34 180.052 117.323 180.052C116.316 180.052 115.527 180.442 114.956 181.22C114.396 181.988 114.116 183.067 114.116 184.458C114.116 185.838 114.396 186.918 114.956 187.696C115.527 188.474 116.316 188.864 117.323 188.864Z"/>
<path d="M126.349 190C125.218 190 124.273 189.621 123.516 188.864L124.201 187.992C124.502 188.272 124.824 188.49 125.166 188.646C125.509 188.801 125.846 188.879 126.178 188.879C127.226 188.879 127.75 188.173 127.75 186.762V179.165H128.996V186.762C128.996 187.748 128.757 188.537 128.28 189.128C127.802 189.709 127.159 190 126.349 190Z"/>
<path d="M132.308 189.751V179.165H138.068V180.286H133.553V183.898H137.243V185.018H133.553V188.63H138.379V189.751H132.308Z"/>
<path d="M145.194 190C143.793 190 142.698 189.512 141.909 188.537C141.131 187.561 140.742 186.202 140.742 184.458C140.742 182.714 141.131 181.355 141.909 180.379C142.698 179.404 143.793 178.916 145.194 178.916C146.159 178.916 147.046 179.16 147.856 179.648L147.42 180.691C146.745 180.265 146.003 180.052 145.194 180.052C144.187 180.052 143.398 180.442 142.828 181.22C142.267 181.988 141.987 183.067 141.987 184.458C141.987 185.838 142.267 186.918 142.828 187.696C143.398 188.474 144.187 188.864 145.194 188.864C145.609 188.864 146.024 188.806 146.439 188.692C146.854 188.578 147.233 188.417 147.576 188.21L148.121 189.175C147.228 189.725 146.252 190 145.194 190Z"/>
<path d="M152.249 189.751V180.286H149.291V179.165H156.452V180.286H153.494V189.751H152.249Z"/>
</mask>
<path d="M94.6895 189.751V179.165H97.9742C98.5657 179.165 99.1002 179.305 99.5776 179.585C100.055 179.866 100.434 180.244 100.714 180.722C100.994 181.199 101.134 181.734 101.134 182.325C101.134 182.906 100.994 183.441 100.714 183.929C100.434 184.406 100.055 184.785 99.5776 185.065C99.1002 185.345 98.5657 185.485 97.9742 185.485H95.9348V189.751H94.6895ZM95.9348 184.349H97.9275C98.2907 184.349 98.6176 184.261 98.9082 184.084C99.2092 183.898 99.4479 183.649 99.6243 183.337C99.8111 183.026 99.9045 182.689 99.9045 182.325C99.9045 181.952 99.8111 181.614 99.6243 181.313C99.4479 181.002 99.2092 180.758 98.9082 180.582C98.6176 180.395 98.2907 180.302 97.9275 180.302H95.9348V184.349Z" fill="white"/>
<path d="M109.444 190L107.903 185.921C107.809 185.662 107.711 185.485 107.607 185.392C107.503 185.288 107.358 185.231 107.171 185.221H104.789V189.751H103.544V179.165H107.171C107.732 179.165 108.24 179.3 108.697 179.57C109.164 179.84 109.532 180.208 109.802 180.675C110.072 181.132 110.207 181.64 110.207 182.201C110.207 182.813 110.041 183.368 109.709 183.866C109.387 184.354 108.967 184.717 108.448 184.956C108.78 185.081 109.013 185.33 109.148 185.703L110.627 189.626L109.444 190ZM104.789 184.131H107.109C107.451 184.131 107.763 184.043 108.043 183.866C108.323 183.69 108.546 183.457 108.712 183.166C108.878 182.865 108.961 182.543 108.961 182.201C108.961 181.848 108.878 181.531 108.712 181.251C108.546 180.961 108.323 180.732 108.043 180.566C107.763 180.39 107.451 180.302 107.109 180.302H104.789V184.131Z" fill="white"/>
<path d="M117.323 190C115.922 190 114.827 189.512 114.038 188.537C113.26 187.561 112.87 186.202 112.87 184.458C112.87 182.714 113.26 181.355 114.038 180.379C114.827 179.404 115.922 178.916 117.323 178.916C118.257 178.916 119.056 179.139 119.72 179.585C120.395 180.021 120.908 180.654 121.261 181.485C121.625 182.305 121.806 183.296 121.806 184.458C121.806 185.61 121.625 186.601 121.261 187.431C120.908 188.262 120.395 188.9 119.72 189.346C119.056 189.782 118.257 190 117.323 190ZM117.323 188.864C118.34 188.864 119.134 188.474 119.705 187.696C120.275 186.918 120.561 185.838 120.561 184.458C120.561 183.078 120.275 181.998 119.705 181.22C119.134 180.442 118.34 180.052 117.323 180.052C116.316 180.052 115.527 180.442 114.956 181.22C114.396 181.988 114.116 183.067 114.116 184.458C114.116 185.838 114.396 186.918 114.956 187.696C115.527 188.474 116.316 188.864 117.323 188.864Z" fill="white"/>
<path d="M126.349 190C125.218 190 124.273 189.621 123.516 188.864L124.201 187.992C124.502 188.272 124.824 188.49 125.166 188.646C125.509 188.801 125.846 188.879 126.178 188.879C127.226 188.879 127.75 188.173 127.75 186.762V179.165H128.996V186.762C128.996 187.748 128.757 188.537 128.28 189.128C127.802 189.709 127.159 190 126.349 190Z" fill="white"/>
<path d="M132.308 189.751V179.165H138.068V180.286H133.553V183.898H137.243V185.018H133.553V188.63H138.379V189.751H132.308Z" fill="white"/>
<path d="M145.194 190C143.793 190 142.698 189.512 141.909 188.537C141.131 187.561 140.742 186.202 140.742 184.458C140.742 182.714 141.131 181.355 141.909 180.379C142.698 179.404 143.793 178.916 145.194 178.916C146.159 178.916 147.046 179.16 147.856 179.648L147.42 180.691C146.745 180.265 146.003 180.052 145.194 180.052C144.187 180.052 143.398 180.442 142.828 181.22C142.267 181.988 141.987 183.067 141.987 184.458C141.987 185.838 142.267 186.918 142.828 187.696C143.398 188.474 144.187 188.864 145.194 188.864C145.609 188.864 146.024 188.806 146.439 188.692C146.854 188.578 147.233 188.417 147.576 188.21L148.121 189.175C147.228 189.725 146.252 190 145.194 190Z" fill="white"/>
<path d="M152.249 189.751V180.286H149.291V179.165H156.452V180.286H153.494V189.751H152.249Z" fill="white"/>
<path d="M94.6895 189.751V179.165H97.9742C98.5657 179.165 99.1002 179.305 99.5776 179.585C100.055 179.866 100.434 180.244 100.714 180.722C100.994 181.199 101.134 181.734 101.134 182.325C101.134 182.906 100.994 183.441 100.714 183.929C100.434 184.406 100.055 184.785 99.5776 185.065C99.1002 185.345 98.5657 185.485 97.9742 185.485H95.9348V189.751H94.6895ZM95.9348 184.349H97.9275C98.2907 184.349 98.6176 184.261 98.9082 184.084C99.2092 183.898 99.4479 183.649 99.6243 183.337C99.8111 183.026 99.9045 182.689 99.9045 182.325C99.9045 181.952 99.8111 181.614 99.6243 181.313C99.4479 181.002 99.2092 180.758 98.9082 180.582C98.6176 180.395 98.2907 180.302 97.9275 180.302H95.9348V184.349Z" stroke="white" stroke-width="1.06095" mask="url(#path-35-outside-1_11677_231033)"/>
<path d="M109.444 190L107.903 185.921C107.809 185.662 107.711 185.485 107.607 185.392C107.503 185.288 107.358 185.231 107.171 185.221H104.789V189.751H103.544V179.165H107.171C107.732 179.165 108.24 179.3 108.697 179.57C109.164 179.84 109.532 180.208 109.802 180.675C110.072 181.132 110.207 181.64 110.207 182.201C110.207 182.813 110.041 183.368 109.709 183.866C109.387 184.354 108.967 184.717 108.448 184.956C108.78 185.081 109.013 185.33 109.148 185.703L110.627 189.626L109.444 190ZM104.789 184.131H107.109C107.451 184.131 107.763 184.043 108.043 183.866C108.323 183.69 108.546 183.457 108.712 183.166C108.878 182.865 108.961 182.543 108.961 182.201C108.961 181.848 108.878 181.531 108.712 181.251C108.546 180.961 108.323 180.732 108.043 180.566C107.763 180.39 107.451 180.302 107.109 180.302H104.789V184.131Z" stroke="white" stroke-width="1.06095" mask="url(#path-35-outside-1_11677_231033)"/>
<path d="M117.323 190C115.922 190 114.827 189.512 114.038 188.537C113.26 187.561 112.87 186.202 112.87 184.458C112.87 182.714 113.26 181.355 114.038 180.379C114.827 179.404 115.922 178.916 117.323 178.916C118.257 178.916 119.056 179.139 119.72 179.585C120.395 180.021 120.908 180.654 121.261 181.485C121.625 182.305 121.806 183.296 121.806 184.458C121.806 185.61 121.625 186.601 121.261 187.431C120.908 188.262 120.395 188.9 119.72 189.346C119.056 189.782 118.257 190 117.323 190ZM117.323 188.864C118.34 188.864 119.134 188.474 119.705 187.696C120.275 186.918 120.561 185.838 120.561 184.458C120.561 183.078 120.275 181.998 119.705 181.22C119.134 180.442 118.34 180.052 117.323 180.052C116.316 180.052 115.527 180.442 114.956 181.22C114.396 181.988 114.116 183.067 114.116 184.458C114.116 185.838 114.396 186.918 114.956 187.696C115.527 188.474 116.316 188.864 117.323 188.864Z" stroke="white" stroke-width="1.06095" mask="url(#path-35-outside-1_11677_231033)"/>
<path d="M126.349 190C125.218 190 124.273 189.621 123.516 188.864L124.201 187.992C124.502 188.272 124.824 188.49 125.166 188.646C125.509 188.801 125.846 188.879 126.178 188.879C127.226 188.879 127.75 188.173 127.75 186.762V179.165H128.996V186.762C128.996 187.748 128.757 188.537 128.28 189.128C127.802 189.709 127.159 190 126.349 190Z" stroke="white" stroke-width="1.06095" mask="url(#path-35-outside-1_11677_231033)"/>
<path d="M132.308 189.751V179.165H138.068V180.286H133.553V183.898H137.243V185.018H133.553V188.63H138.379V189.751H132.308Z" stroke="white" stroke-width="1.06095" mask="url(#path-35-outside-1_11677_231033)"/>
<path d="M145.194 190C143.793 190 142.698 189.512 141.909 188.537C141.131 187.561 140.742 186.202 140.742 184.458C140.742 182.714 141.131 181.355 141.909 180.379C142.698 179.404 143.793 178.916 145.194 178.916C146.159 178.916 147.046 179.16 147.856 179.648L147.42 180.691C146.745 180.265 146.003 180.052 145.194 180.052C144.187 180.052 143.398 180.442 142.828 181.22C142.267 181.988 141.987 183.067 141.987 184.458C141.987 185.838 142.267 186.918 142.828 187.696C143.398 188.474 144.187 188.864 145.194 188.864C145.609 188.864 146.024 188.806 146.439 188.692C146.854 188.578 147.233 188.417 147.576 188.21L148.121 189.175C147.228 189.725 146.252 190 145.194 190Z" stroke="white" stroke-width="1.06095" mask="url(#path-35-outside-1_11677_231033)"/>
<path d="M152.249 189.751V180.286H149.291V179.165H156.452V180.286H153.494V189.751H152.249Z" stroke="white" stroke-width="1.06095" mask="url(#path-35-outside-1_11677_231033)"/>
<path d="M89.9519 158.591L93.4079 158.543C96.4799 158.495 99.5039 158.447 102.576 158.399C106.896 158.351 111.216 158.303 115.584 158.255C120.576 158.207 125.52 158.207 130.512 158.159C135.504 158.111 140.448 158.159 145.488 158.207L149.04 158.255H149.664H150.576L152.208 158.303C154.272 158.351 156.336 158.399 158.4 158.447C161.52 158.543 164.64 158.687 167.76 158.975C168.672 159.071 169.536 159.215 170.448 159.359C170.64 159.407 170.16 159.263 170.4 159.359L170.592 159.407C170.688 159.455 170.784 159.503 170.88 159.503C171.024 159.503 170.592 159.311 170.784 159.455C170.832 159.551 170.976 159.599 170.784 159.455C170.688 159.359 170.736 159.359 170.784 159.455C170.688 159.263 170.736 159.215 170.736 159.407C170.736 159.455 170.784 159.551 170.784 159.599C170.784 159.359 170.88 159.887 170.784 159.599C170.784 159.839 170.832 159.983 170.832 160.175C170.832 160.703 170.784 161.279 170.736 161.807C170.688 162.527 170.544 163.247 170.448 163.919C170.304 164.927 170.208 165.407 170.016 166.367C169.152 170.879 168.048 175.391 166.848 179.807C165.552 184.799 164.112 189.791 162.576 194.735C161.328 198.671 160.08 202.607 158.496 206.447C158.256 207.119 157.968 207.743 157.632 208.367C157.584 208.463 157.392 208.847 157.536 208.559L157.344 208.943C157.248 209.135 157.104 209.375 157.008 209.567C156.912 209.759 156.816 209.855 156.72 209.999C156.624 210.143 156.96 209.759 156.768 209.951C156.672 210.047 156.528 210.143 156.864 209.903C156.624 210.047 157.248 209.807 156.912 209.855L156.768 209.903C156.48 209.999 157.056 209.855 156.864 209.903C154.848 210.143 152.832 210.239 150.816 210.335C147.072 210.431 143.376 210.479 139.632 210.479C134.928 210.479 130.224 210.479 125.472 210.479C120.336 210.431 115.248 210.383 110.112 210.335C105.216 210.287 100.752 210.191 95.9519 210.143C92.1119 210.095 88.2719 209.999 84.3839 209.951L77.7599 209.807H76.8959L77.7119 210.911C78.0479 209.183 78.3359 207.455 78.6719 205.679C79.4399 201.503 80.2559 197.279 81.1199 193.103C82.1279 188.015 83.2319 182.927 84.3839 177.839C85.3919 173.375 86.4479 168.911 87.7919 164.495C88.2239 163.007 88.7519 161.519 89.3279 160.031C89.4239 159.743 89.5679 159.503 89.7119 159.215C89.8079 159.023 89.6639 159.311 89.6639 159.263C89.6639 159.215 89.7119 159.167 89.7599 159.119L89.9519 158.831C90.0479 158.639 90.1919 158.495 90.2879 158.351C90.3839 158.207 90.0479 158.591 90.2399 158.399C90.3359 158.303 90.5759 158.159 90.1919 158.399C90.3839 158.255 90.1439 158.399 90.0479 158.447C90.3359 158.495 89.7119 158.591 89.9519 158.591C90.5759 158.543 91.0559 158.063 91.1519 157.487C91.1519 156.863 90.5279 156.623 89.9999 156.623C88.9439 156.671 88.2239 157.679 87.7919 158.495C87.1679 159.791 86.6399 161.087 86.2079 162.479C84.8159 166.655 83.8079 170.927 82.7999 175.151C81.5999 180.287 80.4959 185.471 79.4399 190.655C78.5279 195.119 77.6639 199.631 76.7999 204.095C76.3679 206.255 75.9839 208.463 75.5999 210.623V210.719C75.4559 211.199 75.7439 211.679 76.2239 211.823C76.2719 211.823 76.3679 211.871 76.4159 211.871L80.0639 211.919C83.2799 211.967 86.4479 212.063 89.6639 212.111C94.1759 212.207 98.7359 212.255 103.248 212.351C108.336 212.399 113.424 212.495 118.464 212.543C123.552 212.591 128.592 212.639 133.584 212.639C137.856 212.639 142.176 212.639 146.448 212.591C149.328 212.543 152.16 212.495 155.04 212.303C155.856 212.255 156.624 212.159 157.392 211.967C158.16 211.727 158.784 211.199 159.168 210.479C159.84 209.327 160.368 208.127 160.848 206.927C161.568 205.199 162.192 203.423 162.816 201.647C164.448 196.991 165.84 192.287 167.184 187.535C168.576 182.639 169.92 177.695 171.072 172.703C171.936 169.055 172.8 165.311 173.184 161.519C173.28 160.607 173.376 159.551 173.088 158.687C172.8 158.063 172.224 157.679 171.6 157.583C169.392 157.007 166.992 156.911 164.736 156.815C160.896 156.575 157.056 156.479 153.264 156.431C148.416 156.335 143.568 156.287 138.768 156.287C133.632 156.287 128.544 156.287 123.408 156.287C118.608 156.335 113.856 156.335 109.056 156.431C105.216 156.479 101.424 156.527 97.5839 156.575L91.0079 156.671H90.1439C89.5199 156.671 89.0399 157.151 88.9439 157.775C88.7999 158.399 89.4239 158.591 89.9519 158.591Z" fill="#909090"/>
<path d="M167.76 153.264C167.76 153.264 178.56 150.768 181.44 160.224C184.32 169.68 175.248 176.64 165.984 172.608C156.72 168.576 159.408 155.04 167.76 153.264Z" fill="#3D3D3D"/>
<path d="M168.048 154.271C168.24 154.223 168.432 154.175 168.624 154.175L168.96 154.127H168.864L169.104 154.079C169.392 154.031 169.728 154.031 170.016 154.031C170.784 153.983 171.552 154.031 172.32 154.079C172.56 154.079 172.176 154.079 172.416 154.079L172.752 154.127L173.424 154.223C173.856 154.319 174.336 154.415 174.768 154.559L174.912 154.607L175.2 154.703C175.44 154.799 175.632 154.895 175.872 154.991C176.112 155.087 176.304 155.231 176.544 155.327C176.688 155.423 176.88 155.519 177.024 155.663C177.888 156.287 178.608 157.055 179.184 157.919C180.576 160.079 181.104 162.719 180.72 165.263C179.856 170.255 175.056 173.183 170.256 172.607C167.808 172.319 165.264 171.311 163.68 169.583C162.336 168.095 161.52 166.175 161.472 164.159C161.376 162.191 161.808 160.223 162.72 158.447C163.584 156.719 165.024 155.375 166.8 154.607C166.992 154.511 167.184 154.463 167.376 154.415C167.52 154.415 167.808 154.319 168.048 154.271C168.624 154.175 169.008 153.647 168.864 153.071V153.023C168.624 152.447 168 152.159 167.376 152.303C162.528 153.359 159.408 157.871 158.976 162.623C158.736 165.023 159.312 167.423 160.56 169.487C162.096 171.887 164.544 173.375 167.232 174.191C172.944 175.919 179.616 173.855 182.208 168.191C184.56 163.055 182.4 156.239 177.456 153.503C174.576 151.919 170.784 151.583 167.568 152.255L167.376 152.303C166.8 152.399 166.416 152.927 166.56 153.503V153.551C166.848 154.127 167.472 154.415 168.048 154.271Z" fill="#3D3D3D"/>
<path d="M169.968 158.543V165.503C169.968 165.983 170.592 166.463 170.928 166.655C171.072 166.751 171.888 167.231 171.888 166.799V159.839C171.888 159.359 171.264 158.879 170.928 158.687C170.784 158.591 169.968 158.111 169.968 158.543Z" fill="white"/>
<path d="M167.232 163.247H174.816C175.392 163.295 175.968 162.959 176.256 162.431C176.496 161.903 175.968 161.567 175.488 161.567H167.904C167.328 161.567 166.752 161.855 166.464 162.383C166.272 162.911 166.752 163.247 167.232 163.247Z" fill="white"/>
<path d="M97.1999 64.6083C97.1999 64.6083 140.832 64.9443 145.2 63.9843C149.568 63.0243 154.752 55.4403 149.904 46.5123C145.056 37.5843 137.664 40.2243 137.664 40.2243C137.664 40.2243 138.288 27.7923 123.072 28.4163C107.856 29.0403 108.48 43.2963 108.48 43.2963C108.48 43.2963 97.0079 43.7763 98.4479 52.9923C98.4479 52.9923 93.1199 51.0723 90.2879 57.8403C87.4559 64.6083 97.1999 64.6083 97.1999 64.6083Z" fill="white"/>
<path d="M96.3361 65.2321C99.5041 65.2801 102.624 65.2801 105.792 65.2801C112.32 65.2801 118.848 65.2801 125.376 65.2321C130.848 65.1841 136.368 65.1841 141.792 64.8481C143.904 64.7041 145.776 64.4641 147.648 63.2641C151.296 60.9601 153.168 56.6881 152.928 52.4641C152.736 49.6321 151.776 46.9441 150.144 44.6401C149.04 42.8641 147.456 41.4241 145.632 40.4161C143.424 39.2641 140.832 38.9761 138.384 39.6001C138.192 39.6481 137.952 39.7441 137.76 39.7921L138.72 39.8401C138.768 38.2561 138.48 36.7201 137.904 35.2321C136.704 32.1121 134.112 29.6641 130.896 28.6561C128.352 27.8881 125.712 27.6481 123.12 27.8881C120.528 28.0321 117.936 28.7041 115.584 29.9041C110.448 32.5441 107.232 37.9201 107.376 43.6801C107.376 43.7281 107.376 43.8241 107.376 43.8721L109.296 42.7201C107.808 42.8161 106.32 43.1041 104.88 43.5841C102.24 44.4481 99.4561 45.8881 98.1121 48.3841C97.2961 49.9681 97.0081 51.7921 97.3441 53.5681L99.4081 52.4641C96.0481 51.2641 92.0161 53.5201 90.2401 56.3041C89.1361 57.9841 87.9841 60.5281 89.1841 62.4961C90.0001 63.8401 91.5841 64.5121 93.0721 64.8961C94.1281 65.0401 95.2321 65.1841 96.3361 65.2321C96.8641 65.1841 97.3921 64.9921 97.8721 64.6081C98.0161 64.5121 98.5441 63.9841 98.0161 63.9841C96.0001 63.9841 93.5521 63.5521 92.0161 62.2081C90.7201 61.0561 90.6241 59.3761 91.2001 57.7921C91.6321 56.5441 92.3041 55.3921 93.2161 54.4321C93.5041 54.1921 93.7921 53.9521 94.0801 53.7121C94.1761 53.6641 94.2241 53.6161 94.3201 53.6161C94.3201 53.6161 94.6561 53.4721 94.4161 53.5681L94.7041 53.4721C95.0401 53.3761 95.3761 53.3761 95.7121 53.3281C96.0481 53.3281 96.3361 53.3281 96.6241 53.3761C96.9121 53.4241 97.1521 53.4721 97.3921 53.5681C97.8721 53.7121 99.5521 53.0881 99.4561 52.4641C99.0721 49.8721 99.8401 47.1841 101.856 45.6961L102.192 45.4561C102 45.6001 102.336 45.3601 102.384 45.3601L102.72 45.1681C102.48 45.3121 102.864 45.0721 102.96 45.0721C103.056 45.0721 103.392 44.8801 103.104 44.9761L103.44 44.8321L103.776 44.6881L103.968 44.6401C104.256 44.5441 103.776 44.6881 104.064 44.5921C104.352 44.4961 104.496 44.4481 104.736 44.4001L105.072 44.3041L105.36 44.2561L105.6 44.2081L105.888 44.1601L106.464 44.0641C106.8 44.0161 107.088 43.9681 107.424 43.9681C107.76 43.9681 107.328 43.9681 107.52 43.9681H107.616C108.144 43.9681 109.584 43.4881 109.536 42.8161C109.536 43.0561 109.536 42.5761 109.536 42.5281C109.536 42.1921 109.584 41.8561 109.584 41.5681C109.68 40.5121 109.872 39.4561 110.16 38.4001C110.544 37.0081 111.072 35.7121 111.84 34.4641C112.272 33.7921 112.752 33.1681 113.28 32.5921C113.568 32.2561 113.904 31.9681 114.24 31.7281C114.432 31.5841 114.96 31.1521 115.104 31.1041C115.824 30.6241 116.64 30.2401 117.456 29.9521C118.512 29.6161 119.568 29.3761 120.672 29.2321C123.216 28.8961 125.808 29.0401 128.256 29.6641C131.52 30.4321 134.208 32.6881 135.6 35.7121C136.32 37.2961 136.656 38.9761 136.656 40.7041C136.656 41.1361 137.472 40.8001 137.616 40.7521C137.04 40.9441 137.616 40.7521 137.76 40.7041C137.376 40.8001 137.904 40.7041 138 40.6561C138.24 40.6081 138.432 40.6081 138.672 40.5601C139.152 40.5121 139.68 40.5121 140.16 40.5601C140.832 40.6081 141.504 40.7521 142.128 40.9441C146.304 42.2881 149.136 46.4641 150.336 50.4961C151.536 54.5281 150.72 59.4721 147.456 62.4481C147.264 62.6401 147.024 62.8321 146.784 62.9761C146.544 63.1201 146.304 63.2641 146.064 63.3601C145.872 63.4081 146.304 63.2641 145.968 63.4081L145.776 63.4561C145.824 63.4561 146.016 63.4081 145.776 63.4561L145.44 63.5041C145.152 63.5521 144.864 63.5521 144.576 63.6001H144.336C144.288 63.6001 144.288 63.6001 144.24 63.6001L143.616 63.6481C138.432 63.9841 133.2 63.9841 128.016 64.0321C121.68 64.0801 115.296 64.0801 108.96 64.0801C105.408 64.0801 101.808 63.9841 98.2561 64.0321H98.1121C97.5361 64.0801 97.0081 64.2721 96.5761 64.6561C96.3361 64.7041 95.8081 65.2321 96.3361 65.2321Z" fill="#909090"/>
<path d="M131.904 44.112C131.904 44.112 135.168 37.152 144.336 41.04L131.904 44.112Z" fill="white"/>
<path d="M133.056 44.448L133.152 44.304C133.008 44.496 133.248 44.064 133.152 44.304C133.2 44.208 133.248 44.112 133.344 44.016C133.488 43.776 133.632 43.584 133.824 43.392C133.92 43.296 134.016 43.152 134.112 43.056L134.304 42.864C134.352 42.816 134.544 42.672 134.352 42.816C134.64 42.528 134.976 42.288 135.264 42.048C135.456 41.952 135.6 41.808 135.792 41.712C135.6 41.808 135.888 41.664 135.936 41.616C135.984 41.568 136.176 41.52 136.272 41.472C137.136 41.088 138.096 40.896 139.056 40.848C140.784 40.896 142.416 41.28 144 41.952C144.576 42.144 145.248 41.904 145.536 41.328C145.776 40.704 145.296 40.272 144.768 40.032C141.888 38.832 138.672 38.304 135.696 39.408C134.016 40.032 132.528 41.184 131.472 42.624C131.232 42.96 130.992 43.344 130.8 43.68C130.176 45.024 132.528 45.6 133.056 44.448Z" fill="#909090"/>
</svg>
