<svg width="240" height="240" viewBox="0 0 240 240" fill="none" xmlns="http://www.w3.org/2000/svg">
<path d="M199.505 152.192L172.894 123.196C171.756 121.911 115.171 176.008 113.886 177.146C112.601 178.285 150.842 222.088 153.126 220.006C155.41 217.925 195.876 182.584 195.876 182.584C194.003 172.834 199.505 152.192 199.505 152.192Z" fill="white"/>
<path d="M199.49 150.428L180.813 129.997C178.216 127.195 175.779 124.252 173.058 121.503C172.399 120.825 171.936 120.949 171.24 121.394C170.259 122.034 169.332 122.798 168.529 123.51C160.91 129.859 153.683 136.779 146.314 143.538C137.874 151.419 129.558 159.246 121.171 167.251L113.98 174.082L113.177 174.793C113.141 174.882 113.017 174.936 112.981 175.025L112.945 175.114C113.302 174.74 112.945 175.114 112.909 175.203C112.443 176.877 113.581 178.678 114.47 180.07C116.763 183.369 119.217 186.527 121.868 189.453C125.638 193.967 129.444 198.392 133.375 202.763C137.164 206.974 141.042 211.221 145.027 215.201C146.574 216.753 148.211 218.342 149.795 219.805C150.684 220.68 151.734 221.412 152.82 222.055C153.586 222.466 154.014 222.431 154.656 221.862L157.832 219.105L169.358 208.949L194.23 187.196L196.764 185.008C197.246 184.581 197.443 183.833 197.176 183.209C196.929 181.766 196.896 180.304 196.898 178.754C196.927 171.734 198.292 164.734 199.888 157.93C200.211 156.612 200.534 155.294 200.857 153.975C201.161 152.96 200.451 151.641 199.864 150.785C199.562 150.25 198.726 149.5 198.457 150.426C196.36 157.96 195.012 165.691 194.483 173.441C194.283 176.256 194.421 179 194.862 181.762L195.096 180.409L180.109 193.517C172.311 200.312 164.603 207.142 156.806 213.936L153.559 216.871C153.238 217.156 152.917 217.44 152.595 217.725C152.274 218.009 152.06 218.027 152.363 218.045C152.274 218.009 152.149 218.063 152.06 218.027C151.704 217.884 152.203 218.188 151.793 217.92C151.384 217.652 150.975 217.384 150.601 217.027C149.408 216.134 148.288 215.063 147.256 214.028C139.926 207.05 133.238 199.503 126.675 191.902C123.633 188.405 120.627 184.819 117.711 181.268L117.515 180.983C117.284 180.787 117.711 181.268 117.515 180.983L117.124 180.412L116.448 179.52C116.057 178.949 115.63 178.468 115.239 177.897L114.848 177.326L114.653 177.041C114.51 176.88 115.044 177.611 114.795 177.201C114.546 176.791 114.955 177.576 114.848 177.326C115.115 177.95 115.131 178.681 115.059 179.376C114.987 179.554 114.862 179.607 115.095 179.286L115.13 179.197C115.166 179.108 115.291 179.055 115.327 178.966C115.612 178.771 115.808 178.539 116.005 178.308L118.36 176.049C121.073 173.416 123.838 170.908 126.551 168.275C134.26 160.928 142.022 153.706 149.784 146.484C156.35 140.436 162.864 134.263 169.626 128.501C170.518 127.825 171.356 127.024 172.248 126.349C172.534 126.153 173.532 125.727 173.604 125.549C173.407 125.78 172.678 124.764 172.891 125.263C172.945 125.388 173.087 125.548 173.176 125.584L174.314 126.869L178.192 131.115L197.954 152.706L199.324 154.187C199.982 154.865 200.517 154.563 200.447 153.708C200.77 152.39 200.291 151.266 199.49 150.428Z" fill="#3D3D3D"/>
<path d="M182.7 165.707C182.7 165.707 196.987 156.143 199.505 152.191C197.53 162.255 196.338 172.427 195.966 182.619L182.7 165.707Z" fill="white"/>
<path d="M184.515 166.851C187.084 165.091 189.652 163.331 192.043 161.499C193.987 160.005 195.932 158.512 197.787 156.982C199.25 155.915 200.481 154.652 201.606 153.139L197.136 151.654C195.072 161.682 193.88 171.854 193.597 182.081L198.068 182.534L186.438 167.727L184.802 165.622C184.038 164.694 182.88 164.229 181.722 164.28C180.991 164.297 179.707 164.919 180.472 165.846L192.013 180.618L193.649 182.723C194.272 183.49 195.126 183.937 196.124 184.027C196.605 184.117 198.102 183.995 198.121 183.175C198.493 172.984 199.685 162.812 201.66 152.747C202.037 151.037 198.03 149.944 197.19 151.262C196.101 152.685 194.906 153.859 193.532 154.962C191.801 156.438 189.893 157.843 188.073 159.283C185.682 161.115 183.239 162.822 180.706 164.493C178.922 165.844 183.213 167.775 184.515 166.851Z" fill="#3D3D3D"/>
<path d="M42.0481 18.7197H131.04C136.56 18.7197 141.024 23.1837 141.024 28.7037V89.4717V110.544C141.024 111.552 140.208 112.368 139.2 112.368C138.672 112.368 138.192 112.176 137.856 111.792L126.576 99.4557H42.0481C36.5281 99.4557 32.0641 94.9917 32.0641 89.5197V28.6557C32.1121 23.1837 36.5761 18.7197 42.0481 18.7197Z" fill="#CECECE"/>
<path d="M52.224 84.3836L50.928 86.8796C50.88 86.9756 51.216 87.0236 51.216 87.0236C51.408 87.0716 51.648 87.0716 51.84 87.0716C52.032 87.0716 52.272 87.0236 52.464 86.9756C52.56 86.9276 52.656 86.9276 52.704 86.8316L54 84.3356C54.048 84.2876 53.712 84.1916 53.712 84.1916C53.52 84.1436 53.28 84.1436 53.088 84.1436C52.896 84.1436 52.656 84.1916 52.464 84.2396C52.368 84.2876 52.272 84.2876 52.224 84.3836Z" fill="#3D3D3D"/>
<path d="M54.288 85.0559V89.8559C54.288 90.1439 54.912 90.2879 55.104 90.3359C55.2 90.3359 56.064 90.5759 56.064 90.3359V85.5359C56.064 85.2479 55.44 85.1039 55.248 85.0559C55.152 85.0559 54.288 84.8159 54.288 85.0559Z" fill="#3D3D3D"/>
<path d="M102.24 99.7916C102.24 99.7916 99.072 85.8716 98.448 82.2236C105.216 84.9596 112.752 87.1676 116.736 85.6316C121.968 83.5676 130.368 75.3596 133.008 67.9676C134.544 63.6956 133.152 59.0396 129.36 56.5436L128.736 55.3436C124.032 52.2716 119.376 54.3356 114.288 58.6076L107.616 63.8396C107.616 63.8396 94.368 58.1756 86.688 57.5996C83.328 54.8636 79.296 53.6636 74.4 54.4796C74.4 54.4796 66.384 52.1276 60.384 72.8156C54.384 93.5036 55.296 99.6956 55.296 99.6956" fill="white"/>
<path d="M103.344 99.8872C102.288 95.2792 101.232 90.6232 100.272 85.9672C100.032 84.7672 99.744 83.5192 99.552 82.3192L98.112 82.9432C102.336 84.6712 106.752 86.2072 111.312 86.8312C114.576 87.5032 117.936 86.7352 120.576 84.7672C123.648 82.7032 126.384 80.1592 128.736 77.2792C131.136 74.3992 133.536 71.0392 134.4 67.3432C135.456 62.9752 133.68 58.4632 129.936 56.0152L130.32 56.3992C129.984 55.7272 129.792 55.0552 129.12 54.6712C127.968 53.9032 126.672 53.3752 125.328 53.1352C122.736 52.6552 120.144 53.3752 117.888 54.6232C116.112 55.6792 114.432 56.8792 112.848 58.2232L109.392 60.9112L106.56 63.1192L107.856 63.0712C102.816 60.8632 97.584 59.0872 92.208 57.6952C90.288 57.2152 88.32 56.8792 86.352 56.6872L87.216 57.0232C83.424 53.9992 78.528 52.7512 73.776 53.6152L74.352 53.6632C73.152 53.3272 71.76 53.6152 70.656 54.0472C67.536 55.2952 65.328 58.2712 63.744 61.1032C62.208 63.8392 60.96 66.7672 60.048 69.7432C58.848 73.4392 57.84 77.1832 56.928 80.9752C55.728 85.5832 54.816 90.2392 54.288 94.9432C54.096 96.4312 54 97.9192 54.144 99.4072C54.144 99.5032 54.144 99.5992 54.192 99.6952C54.336 100.655 56.592 101.135 56.4 99.8392C56.496 100.367 56.4 99.7432 56.4 99.5992C56.4 99.1672 56.4 98.6872 56.4 98.2552C56.496 96.2392 56.688 94.2232 57.024 92.2552C57.6 88.4152 58.464 84.6232 59.424 80.8792C60.72 75.6952 62.064 70.4632 64.224 65.6152C65.472 62.7352 67.056 59.8072 69.36 57.6472C69.744 57.2632 70.128 56.9752 70.56 56.6392C70.656 56.5912 70.752 56.4952 70.848 56.4472L70.944 56.3512L70.992 56.3032C71.184 56.2072 71.376 56.0632 71.568 55.9672C71.856 55.8232 72.192 55.6792 72.528 55.5352C72.624 55.4872 73.104 55.3912 72.768 55.4392L73.2 55.3432C73.44 55.2952 73.68 55.2952 73.872 55.2472C74.064 55.1992 73.584 55.2472 73.776 55.2472C73.824 55.2472 73.872 55.2472 73.92 55.2472H74.16C74.208 55.2472 74.304 55.2472 74.352 55.2472C74.592 55.2472 74.016 55.1512 74.208 55.2472H74.304C74.976 55.2952 75.648 55.2472 76.272 55.1032C76.896 55.0552 77.52 55.0072 78.144 55.0552C79.296 55.1032 80.448 55.2952 81.552 55.6792C82.56 56.0152 83.52 56.4472 84.432 57.0232C84.864 57.3112 85.344 57.6472 85.776 57.9832C86.304 58.3672 86.928 58.5592 87.6 58.5592C91.44 58.9432 95.28 60.1912 98.976 61.4392C101.568 62.3032 104.208 63.3112 106.848 64.4152L107.28 64.6072C107.664 64.8472 108.192 64.7992 108.576 64.5592L113.616 60.6232C116.208 58.6072 118.656 56.3512 121.824 55.2472C123.936 54.4792 126.24 54.7192 128.112 55.9672L127.728 55.5832C127.92 55.9672 128.112 56.3992 128.304 56.7832C128.592 57.1192 128.928 57.4072 129.312 57.6472C131.088 59.0392 132.192 61.0552 132.432 63.3112C132.816 67.0552 130.752 70.6072 128.688 73.5832C126.48 76.7512 123.792 79.5832 120.768 81.9832C119.568 82.9912 118.272 83.8072 116.88 84.5272C115.584 85.1512 114.192 85.4392 112.752 85.3912C110.544 85.2472 108.336 84.8632 106.224 84.2392C103.68 83.5192 101.232 82.6552 98.784 81.6472C98.208 81.4072 97.2 81.4072 97.344 82.2712C98.256 87.5992 99.552 92.8312 100.752 98.0632L101.136 99.8392C101.328 100.799 103.632 101.279 103.344 99.9832V99.8872Z" fill="#909090"/>
<path d="M44.6881 107.472C44.3521 107.952 39.7921 114.144 39.1201 115.632C36.9601 120.144 32.5921 122.208 32.5921 122.208C32.5921 122.208 27.6001 128.112 26.8321 126.912C26.0641 125.712 28.6561 118.992 28.6561 118.992C28.6561 118.992 15.4561 124.176 13.6801 123.312C11.9041 122.448 15.7921 120.576 15.7921 120.576C15.7921 120.576 13.2961 120.24 13.8241 119.04C14.3521 117.84 29.7121 111.072 29.7121 111.072C29.7121 111.072 32.4001 106.848 36.5281 101.616C36.3841 101.568 45.2641 106.656 44.6881 107.472Z" fill="white"/>
<path d="M43.584 107.424C42.192 109.392 40.752 111.312 39.408 113.328C38.688 114.384 38.112 115.488 37.488 116.544C36.576 118.032 35.424 119.328 34.032 120.336C33.552 120.672 33.072 121.008 32.544 121.344C32.832 121.152 32.352 121.44 32.256 121.488L32.064 121.584C31.392 121.968 30.912 122.688 30.384 123.264C29.952 123.744 29.52 124.176 29.088 124.656C28.656 125.088 28.224 125.472 27.744 125.856C27.552 126 27.36 126.144 27.168 126.288C26.976 126.432 27.36 126.192 27.072 126.336C26.784 126.48 27.216 126.288 27.312 126.288C27.456 126.24 27.648 126.288 27.792 126.336C27.888 126.384 27.888 126.384 27.888 126.432C27.888 126.24 27.792 126.096 27.792 125.952C27.792 124.512 28.32 123.024 28.752 121.68C29.04 120.72 29.328 119.904 29.712 118.992C30.096 118.08 28.608 118.176 28.128 118.416L27.552 118.608C27.264 118.704 27.84 118.512 27.504 118.608L27.168 118.704L26.4 119.04C24.912 119.616 23.376 120.144 21.84 120.672C20.208 121.248 18.576 121.776 16.896 122.208C16.56 122.304 16.224 122.352 15.888 122.448C16.224 122.4 15.744 122.496 15.648 122.496C15.504 122.544 15.312 122.544 15.168 122.592L14.784 122.64H14.592C14.928 122.592 14.736 122.64 14.688 122.64C14.592 122.64 14.496 122.64 14.4 122.64C14.688 122.64 14.352 122.592 14.448 122.64C14.544 122.688 14.4 122.64 14.4 122.592C14.352 122.544 14.352 122.544 14.304 122.544C14.256 122.496 14.304 122.448 14.304 122.496C14.4 122.256 14.592 122.16 14.88 121.92C15.072 121.776 15.216 121.68 15.408 121.584L15.648 121.44C15.408 121.584 15.696 121.392 15.744 121.392L16.224 121.104C16.704 120.864 17.328 119.952 16.416 119.856C16.128 119.808 15.792 119.76 15.504 119.664C15.312 119.616 15.12 119.472 14.976 119.328C14.928 119.28 14.88 119.232 14.88 119.136C14.88 119.184 14.88 119.04 14.88 119.04C14.784 118.896 14.928 118.992 14.88 118.992C14.736 119.184 14.832 118.992 14.88 118.992C14.928 118.944 14.64 119.184 14.832 119.04C14.88 118.992 14.928 118.944 15.024 118.896C15.312 118.704 15.6 118.512 15.888 118.368C16.032 118.272 15.84 118.368 15.84 118.416L15.984 118.32L16.272 118.128L16.896 117.792C17.376 117.552 17.856 117.264 18.384 117.024C19.488 116.448 20.64 115.92 21.744 115.392C23.856 114.384 25.968 113.424 28.08 112.464C29.04 112.032 30.288 111.696 30.912 110.784C32.928 107.664 35.136 104.688 37.392 101.76L35.52 102.24C36.912 103.056 38.304 103.872 39.696 104.736C40.656 105.36 41.616 105.984 42.48 106.656C42.768 106.896 43.104 107.136 43.344 107.424C43.44 107.52 43.488 107.664 43.584 107.76C43.44 107.616 43.584 107.664 43.536 107.76C43.584 107.616 43.584 107.52 43.584 107.424C43.296 107.904 43.872 108.24 44.304 108.24C44.88 108.288 45.456 108 45.792 107.52C46.08 106.992 45.648 106.512 45.264 106.176C44.64 105.6 43.968 105.12 43.248 104.64C41.712 103.584 40.08 102.576 38.448 101.616C38.064 101.376 37.68 101.136 37.296 100.944C36.672 100.704 35.904 100.848 35.472 101.328C33.024 104.448 30.672 107.664 28.512 110.976L29.088 110.448C26.736 111.504 24.384 112.56 22.032 113.664C20.256 114.48 18.48 115.344 16.704 116.256C15.456 116.832 14.304 117.504 13.2 118.272C12.576 118.752 12.096 119.52 12.72 120.288C13.248 120.912 14.208 121.152 14.976 121.248L15.168 120C14.592 120.288 14.064 120.576 13.536 120.96C12.912 121.392 12 122.064 11.952 122.88C11.856 124.464 14.352 124.176 15.312 123.984C18.912 123.312 22.464 121.968 25.92 120.72C26.976 120.336 28.032 119.952 29.088 119.52L27.504 118.944C26.688 121.104 25.776 123.456 25.488 125.808C25.392 126.336 25.44 126.864 25.68 127.344C26.064 127.872 26.88 127.824 27.408 127.68C28.704 127.344 29.76 126.288 30.672 125.376C31.584 124.464 32.352 123.648 33.168 122.736C33.264 122.64 33.36 122.544 33.408 122.448L33.456 122.4C33.504 122.448 32.832 122.784 33.072 122.688C33.456 122.544 33.84 122.304 34.128 122.064C35.52 121.2 36.816 120.144 37.92 118.896C38.64 118.128 39.264 117.216 39.792 116.304C40.08 115.776 40.368 115.2 40.656 114.72C42.24 112.224 44.016 109.92 45.696 107.52C46.032 107.04 45.36 106.752 45.024 106.752C44.496 106.704 43.968 106.944 43.584 107.424Z" fill="#909090"/>
<path d="M24.096 116.783L16.032 120.287L14.88 120.767C14.64 120.863 14.016 121.199 14.064 121.535C14.112 121.871 14.688 121.631 14.832 121.583L22.896 118.079L24.048 117.599C24.288 117.503 24.912 117.167 24.864 116.831C24.816 116.495 24.24 116.735 24.096 116.783Z" fill="#909090"/>
<path d="M94.176 71.1838C94.512 71.9518 94.8 72.7678 94.992 73.5838C95.376 74.8798 95.712 76.1758 96.048 77.4718C96.624 79.5838 97.152 81.6958 97.632 83.8078C97.776 84.3838 99.552 84.1438 99.408 83.6158C98.88 81.4558 98.352 79.2958 97.776 77.1358C97.44 75.8398 97.104 74.5438 96.72 73.2958C96.48 72.4318 96.192 71.6158 95.856 70.7998C95.664 70.2718 93.888 70.5598 94.176 71.1838Z" fill="#909090"/>
<path d="M71.6161 80.9275C71.6161 80.9275 49.0561 118.944 40.3681 119.76C31.6801 120.576 27.5041 112.368 30.2401 104.736C32.9761 97.1035 63.1681 58.2235 72.0001 55.7275" fill="white"/>
<path d="M70.704 80.1118C69.696 81.8398 68.64 83.5678 67.536 85.2478C65.04 89.2318 62.496 93.1198 59.856 96.9598C56.88 101.328 53.76 105.648 50.352 109.776C48.912 111.552 47.376 113.232 45.744 114.816C44.544 116.064 43.2 117.12 41.76 118.032C41.232 118.368 40.656 118.608 40.032 118.752C40.224 118.704 39.888 118.752 39.792 118.8C39.36 118.848 38.976 118.848 38.544 118.848C37.728 118.848 36.912 118.752 36.144 118.56C35.472 118.416 34.848 118.128 34.272 117.792C34.032 117.648 33.648 117.408 33.552 117.312C33.312 117.12 32.976 116.832 32.88 116.736C31.92 115.776 31.2 114.576 30.816 113.232C30 110.496 30.192 107.568 31.296 104.928C31.488 104.448 31.728 103.968 32.016 103.488C32.4 102.816 32.784 102.144 33.168 101.472C35.52 97.6318 38.16 93.9358 40.848 90.2878C44.256 85.6798 47.808 81.1678 51.504 76.7998C55.008 72.5758 58.656 68.4478 62.496 64.5598C64.032 63.0238 65.616 61.4878 67.296 60.0478C68.496 58.9918 69.744 58.0318 71.136 57.2158C71.616 56.9278 72.096 56.7358 72.624 56.5918C73.152 56.4478 72.72 55.6798 72.528 55.4398C72.192 55.0078 71.664 54.7678 71.088 54.8638C69.792 55.3438 68.592 56.0158 67.536 56.8798C65.952 58.0798 64.464 59.3278 63.024 60.7198C59.184 64.4158 55.536 68.3038 52.08 72.3838C48.24 76.8478 44.544 81.4558 40.944 86.2078C37.968 90.1438 34.992 94.1758 32.304 98.3038C31.392 99.6958 30.576 101.088 29.808 102.528C28.752 104.544 28.224 106.8 28.224 109.056C28.224 112.32 29.52 115.44 31.872 117.744C34.32 120.048 37.632 121.104 40.944 120.672C42.384 120.48 43.632 119.664 44.784 118.8C46.368 117.552 47.808 116.208 49.152 114.72C52.656 110.832 55.92 106.752 58.896 102.48C61.872 98.3038 64.752 93.9838 67.488 89.6638C69.072 87.1678 70.656 84.6718 72.144 82.1278L72.384 81.7438C73.008 80.8318 71.136 79.3918 70.704 80.1118Z" fill="#909090"/>
<path d="M89.1361 44.8799C89.1361 44.8799 87.2641 48.0959 90.6721 48.8159L89.1361 44.8799Z" fill="white"/>
<path d="M88.2721 45.0717C87.7441 45.9837 87.4081 47.4237 88.2241 48.2877C88.6561 48.7197 89.2321 49.0077 89.8081 49.1037C90.1921 49.1517 90.5761 49.1037 90.9121 48.9597C91.1041 48.9117 91.2481 48.8157 91.3921 48.7677C91.4401 48.7677 91.5841 48.6237 91.4401 48.6237C90.5281 48.4317 89.6641 47.9997 89.4721 47.0397C89.3761 46.4157 89.4721 45.7917 89.7121 45.2157C89.7601 45.0717 89.8561 44.9277 89.9041 44.8317C90.0001 44.6397 89.2801 44.7357 89.2321 44.7837C88.9921 44.8317 88.8001 44.8797 88.5601 44.9757C88.5121 44.9277 88.3201 44.9757 88.2721 45.0717Z" fill="#3D3D3D"/>
<path d="M95.7121 39.4561C96.1921 39.6001 96.4321 40.1281 96.2881 40.6081C96.2881 40.6561 96.2401 40.7041 96.2401 40.7521C95.8081 41.6641 94.7041 41.0881 94.8001 40.2241C94.8001 39.7921 95.1841 39.4561 95.5681 39.4561C95.6161 39.4561 95.6641 39.4561 95.7121 39.4561Z" fill="#3D3D3D"/>
<path d="M102.72 40.751C103.2 40.895 103.44 41.423 103.296 41.903C103.296 41.951 103.248 41.999 103.248 42.047C102.816 42.959 101.712 42.383 101.808 41.519C101.808 41.087 102.192 40.751 102.576 40.751C102.624 40.751 102.672 40.751 102.72 40.751Z" fill="#3D3D3D"/>
<path d="M134.064 63.0715C138.96 62.4955 143.328 56.7355 146.448 51.6955C150.72 44.7835 142.176 48.6715 142.176 48.6715C142.176 48.6715 147.264 43.9675 146.064 42.1435C144.864 40.3195 138.24 46.0795 138.24 46.0795C138.24 46.0795 142.608 40.6555 140.736 39.3115C139.008 38.1115 130.56 49.1995 130.56 49.1995C130.56 49.1995 130.56 45.5515 128.4 43.8715C126.24 42.1915 125.664 45.6475 125.856 48.2395C126.048 50.8315 125.328 53.4235 123.888 56.0635C123.888 56.0635 124.56 64.1755 134.064 63.0715Z" fill="white"/>
<path d="M134.448 63.7435C137.184 63.4075 139.536 61.7275 141.408 59.8075C143.568 57.5515 145.44 55.1035 147.024 52.4635C147.792 51.2635 149.232 49.1035 148.032 47.7595C147.072 46.7035 145.536 46.8955 144.288 47.1835C143.376 47.3755 142.512 47.7115 141.648 48.0955L142.896 49.2475C143.664 48.5275 144.432 47.7595 145.104 46.8955C145.968 45.8395 147.216 44.3995 147.12 42.9595C147.024 41.4235 145.392 40.9915 144.096 41.3275C142.656 41.7115 141.36 42.6715 140.16 43.5355C139.248 44.1595 138.384 44.8795 137.568 45.5995L139.056 46.5595C140.064 45.3595 140.88 44.0155 141.552 42.6235C141.888 41.8555 142.272 40.8955 141.984 40.0315C141.696 39.1675 140.88 38.5915 140.016 38.6395C139.392 38.7355 138.816 39.0235 138.336 39.4075C137.664 39.9355 136.992 40.5595 136.368 41.1835C134.928 42.6235 133.584 44.2075 132.288 45.7915C131.472 46.7995 130.656 47.8075 129.84 48.8155L131.472 49.4875C131.472 47.0875 130.512 44.1115 128.208 43.0555C127.632 42.7195 126.864 42.7195 126.288 43.0555C125.808 43.4395 125.472 43.9675 125.328 44.5435C124.848 46.2235 125.136 47.9035 125.04 49.6315C124.944 50.7355 124.752 51.8395 124.368 52.8475C124.176 53.3755 123.984 53.9035 123.744 54.3835C123.552 54.8155 123.12 55.3435 123.072 55.7755C123.072 56.1115 123.12 56.4475 123.216 56.7355C123.6 58.3675 124.368 59.9035 125.568 61.1035C127.872 63.4555 131.232 64.0315 134.448 63.7435C134.688 63.6955 134.88 63.4555 134.88 63.2155C134.88 63.1195 134.832 63.0715 134.832 62.9755C134.592 62.5915 134.16 62.3515 133.68 62.3995C131.376 62.6395 128.928 62.4475 127.152 60.9595C126.096 60.0475 125.376 58.8475 124.992 57.5035C124.896 57.1195 124.8 56.7355 124.752 56.3035C124.752 56.2555 124.752 56.2075 124.752 56.2075C124.704 56.4955 124.848 56.2075 124.944 56.0635C125.424 55.1515 125.856 54.1915 126.144 53.1835C126.432 52.3195 126.624 51.4075 126.72 50.4475C126.768 49.5835 126.768 48.7675 126.72 47.9035C126.72 46.7995 126.672 45.1675 127.44 44.3035C127.776 43.9195 127.92 44.1595 128.256 44.4955C128.784 45.0235 129.12 45.6955 129.36 46.3675C129.648 47.1835 129.792 48.0475 129.84 48.9595C129.84 49.6315 131.04 50.2555 131.472 49.6315C133.104 47.4715 134.88 45.3595 136.704 43.3435C137.76 42.1915 138.864 40.9435 140.208 40.1275C140.4 40.0315 140.592 39.9835 140.736 39.8875C140.496 39.9835 140.736 39.8395 140.736 39.8875C140.736 39.9355 140.592 39.8395 140.688 39.8875C140.208 39.6955 140.928 40.0315 140.448 39.7915C140.208 39.6955 140.352 39.6955 140.352 39.7435C140.352 39.5995 140.352 39.8395 140.352 39.7435C140.352 39.8395 140.4 39.8875 140.4 39.9835C140.4 40.0795 140.4 40.2235 140.4 40.3195C140.352 40.7515 140.208 41.1835 140.064 41.5675C139.392 43.0555 138.528 44.4475 137.52 45.6475C137.04 46.2235 138.528 46.9915 139.008 46.6075C140.544 45.2155 142.272 43.9675 144.096 42.9595C144.528 42.7195 145.056 42.5275 145.536 42.4315C145.68 42.4315 145.632 42.4795 145.728 42.4315C145.824 42.3835 145.632 42.3835 145.632 42.3835C145.584 42.3355 145.488 42.2875 145.44 42.2395C145.392 42.2875 145.584 42.2875 145.44 42.2395C145.488 42.1915 145.488 42.3835 145.488 42.3835C145.488 42.9595 145.296 43.4875 145.008 43.9675C144.672 44.5915 144.24 45.1675 143.76 45.7435C143.088 46.5595 142.32 47.3755 141.552 48.0955C140.928 48.6715 142.272 49.4875 142.8 49.2475C143.376 48.9595 144 48.7675 144.624 48.5755C145.104 48.4315 145.584 48.2875 146.112 48.2395C146.256 48.2395 146.352 48.1915 146.496 48.1915C146.64 48.1915 146.496 48.1915 146.688 48.1915H146.832C146.88 48.1915 146.928 48.1915 146.976 48.2395C146.784 48.1435 147.024 48.2875 146.976 48.2395C146.88 48.1915 146.832 48.0475 146.88 48.1915C146.928 48.4315 146.928 48.6235 146.88 48.8635C146.64 49.7755 146.208 50.6395 145.68 51.4075C144.24 53.7595 142.56 56.0155 140.688 58.0315C138.864 59.9995 136.56 61.9675 133.776 62.3515C132.624 62.5435 133.68 63.8395 134.448 63.7435Z" fill="#909090"/>
<path d="M135.6 49.7276C136.32 48.9116 137.088 48.1916 137.904 47.4716C138.528 46.8956 139.104 46.3676 139.728 45.7916C140.064 45.5036 139.824 44.9276 139.536 44.6876C139.248 44.3516 138.768 44.3036 138.432 44.5436C137.088 45.7436 135.696 46.9916 134.448 48.3356L134.304 48.4796C134.064 48.8636 134.16 49.3436 134.496 49.5836C134.736 49.8716 135.264 50.1116 135.6 49.7276Z" fill="#909090"/>
<path d="M142.08 47.9521C140.592 49.1041 139.104 50.3521 137.712 51.6001C137.568 51.6961 138.384 52.6081 138.48 52.5121C139.872 51.2161 141.36 50.0161 142.848 48.8641C142.944 48.8161 142.224 47.8561 142.08 47.9521Z" fill="#909090"/>
<path d="M131.28 53.8079C131.376 53.2799 131.472 52.7039 131.472 52.1759C131.568 51.1679 131.568 50.2079 131.472 49.1999C131.472 49.0559 131.232 48.8639 131.088 48.8159C130.896 48.7199 130.656 48.6719 130.416 48.6719C130.08 48.6719 129.648 48.8159 129.696 49.2479C129.744 50.1599 129.744 51.0719 129.696 51.9839C129.696 52.5119 129.6 53.0399 129.504 53.5679C129.456 53.7119 129.6 53.9039 129.696 53.9999C129.888 54.1439 130.08 54.2399 130.32 54.2399C130.656 54.2399 131.184 54.1919 131.28 53.8079Z" fill="#909090"/>
<path d="M70.088 37.7304C75.2634 20.3797 87.6546 20.461 95.2872 23.1315C102.92 25.802 106.564 30.7158 106.611 34.3857C106.643 37.1247 95.2855 48.2453 95.2855 48.2453L77.6327 54.1244C77.5997 54.1037 66.1533 50.975 70.088 37.7304Z" fill="#3D3D3D"/>
<path d="M70.7821 38.1658C72.002 34.0928 73.8508 30.0458 76.9635 27.0686C79.1686 24.9503 81.9888 23.5406 85.006 22.9919C87.6588 22.5831 90.3809 22.7248 92.9986 23.4C96.9024 24.3755 100.821 26.2819 103.505 29.3486C104.074 29.9827 104.582 30.7159 104.982 31.4738C105.163 31.772 105.291 32.0826 105.398 32.4262C105.456 32.5545 105.492 32.716 105.562 32.8982C105.632 33.0803 105.632 33.0803 105.624 33.1672C105.616 33.2541 105.722 33.5977 105.673 33.3824C105.747 33.7053 105.734 34.0197 105.754 34.3549C105.77 34.5493 105.8 34.0612 105.733 34.3879C105.696 34.5947 105.825 34.1688 105.713 34.421C105.642 34.607 105.571 34.7931 105.48 35.0122C105.571 34.7931 105.459 35.0453 105.418 35.1114C105.335 35.2436 105.252 35.3759 105.169 35.5081C103.666 37.9753 101.656 40.0774 99.7112 42.221C98.1441 43.9103 96.5647 45.5457 94.9315 47.1934C94.857 47.2388 94.8155 47.3049 94.774 47.3711C94.691 47.5033 94.9023 47.3134 94.9023 47.3134C94.8693 47.2926 94.4511 47.4449 94.4304 47.478L91.876 48.3172L77.6139 53.0525L77.2703 53.1594L77.6593 53.1271C77.2995 53.0395 76.9274 52.8981 76.6091 52.7444C76.4892 52.7153 76.7952 52.8151 76.6422 52.7652L76.543 52.7029L76.2578 52.57C76.0386 52.4786 75.8733 52.3748 75.675 52.2503C75.2245 52.0137 74.7616 51.7232 74.3526 51.4204C74.0881 51.2544 73.8774 51.0761 73.6337 50.877L73.423 50.6987C73.3116 50.5827 73.1793 50.4997 73.0678 50.3836C72.8448 50.1515 72.6219 49.9194 72.3989 49.6873C72.2874 49.5712 72.1759 49.4552 72.1182 49.3268L71.9614 49.1362C71.9283 49.1155 71.7922 48.8918 71.8829 49.0409C71.6684 48.7219 71.4869 48.4237 71.3054 48.1255C71.2147 47.9763 71.1239 47.8272 71.087 47.6658C71.0416 47.5912 70.9963 47.5167 70.9716 47.4091C70.947 47.3014 70.8109 47.0778 70.9016 47.2269C70.7617 46.8625 70.6217 46.4982 70.4817 46.1338C70.4117 45.9517 70.3955 45.7572 70.3255 45.575C70.264 45.306 70.2393 45.1983 70.2024 45.0369C69.8675 42.7069 70.0953 40.3615 70.7821 38.1658C70.9734 37.6407 70.7965 37.115 70.4206 36.8329C70.0692 36.6585 69.6718 36.7777 69.4643 37.1083C69.4228 37.1744 69.4021 37.2075 69.4144 37.2613C68.64 39.8168 68.2708 42.5343 68.7334 45.1748C69.0482 47.1696 69.9011 49.0413 71.1476 50.6531C72.7285 52.613 74.7944 54.094 77.1554 54.8845C77.4075 54.9967 77.6681 55.022 77.9372 54.9604C78.1524 54.9112 78.3346 54.8412 78.5168 54.7712L82.3586 53.4958L92.9941 49.9867C93.8097 49.7151 94.7244 49.5058 95.5484 49.1474C95.7514 49.0444 95.8882 48.8998 96.025 48.7553C96.3939 48.3878 96.7836 47.9872 97.1525 47.6196C100 44.8447 102.637 41.8914 105.076 38.8137C105.975 37.6734 107.054 36.3226 107.317 34.875C107.422 33.9732 107.333 33.0877 106.995 32.2306C106.662 31.146 106.168 30.0983 105.503 29.1744C102.483 24.8824 97.2787 22.3075 92.204 21.2884C88.4694 20.5574 84.5096 20.6989 80.9569 22.2478C76.3441 24.2375 73.0886 28.3232 71.057 32.8085C70.4047 34.2884 69.8392 35.7768 69.3729 37.3274C69.2023 37.8195 69.3462 38.3245 69.7552 38.6273C70.0858 38.8348 70.5163 38.7363 70.6907 38.3849C70.753 38.2858 70.7737 38.2527 70.7821 38.1658Z" fill="#3D3D3D"/>
<path d="M99.3296 58.2484C106.105 54.943 105.046 36.9517 105.046 36.9517C102.492 35.4409 98.8881 31.1975 98.8881 31.1975C97.2579 40.036 86.5776 38.7706 86.5776 38.7706C86.2275 33.5279 80.382 33.2231 79.0661 37.7428C77.7502 42.2624 81.8134 44.3057 81.8134 44.3057C81.8134 44.3057 75.6256 54.3851 75.4069 56.2754C75.4069 56.2754 80.7174 63.894 87.5735 59.211C87.5197 59.2233 94.7246 60.5194 99.3296 58.2484Z" fill="white"/>
<path d="M100.227 58.5813C102.161 57.6292 103.286 55.6164 104.034 53.6898C104.878 51.3166 105.417 48.8434 105.661 46.3242C105.872 44.1525 105.996 41.9723 106.001 39.763C105.993 39.1134 105.986 38.4638 105.979 37.8143C105.996 37.6405 105.992 37.4998 105.955 37.3384C105.873 37.1024 105.621 36.9903 105.39 36.845C103.249 35.4095 101.428 33.3911 99.7936 31.4435C99.6698 31.2736 98.0284 30.6582 97.9785 30.8112C97.514 33.6072 95.7056 35.9745 93.1837 37.2027C91.2582 38.0679 89.2011 38.4819 87.0994 38.4532C86.6774 38.4648 86.2761 38.4433 85.8417 38.4011L87.5285 39.0911C87.3951 37.3946 86.6491 35.8665 85.0784 35.065C83.6069 34.3258 81.8703 33.7888 80.3545 34.5886C78.8056 35.3676 78.0411 37.0998 77.9469 38.7918C77.8657 40.1694 78.3472 41.5315 79.243 42.6006C79.7797 43.2139 80.4117 43.7488 81.1475 44.1184L80.9038 43.9194C78.858 47.1054 77.0107 50.416 75.2956 53.8096C75.1004 54.194 74.9383 54.5991 74.7762 55.0043C74.6309 55.2357 74.5311 55.5417 74.5388 55.823C74.5465 56.1044 74.9018 56.4195 75.0586 56.6101C76.3012 58.0812 77.8712 59.2509 79.6033 60.0154C80.9757 60.6924 82.4686 61.0303 84.0284 61.0415C85.6296 60.9866 87.1739 60.4351 88.4583 59.4901L88.3176 59.494C89.7321 59.7366 91.1758 59.8593 92.6157 59.8413C95.1433 59.9991 97.8538 59.7187 100.227 58.5813C100.227 58.5813 99.4455 58.1371 99.3586 58.1287C99.1395 58.0373 98.656 57.7798 98.3992 57.8952C95.2147 59.4449 91.3256 59.4003 87.8716 59.0297C87.5242 58.996 87.1644 58.9084 86.8169 58.8747C86.6432 58.8578 86.5479 58.9362 86.3449 59.0393C85.8768 59.3446 85.3964 59.596 84.9037 59.7937C84.1335 60.1398 83.2933 60.3037 82.4285 60.36C82.0603 60.3593 81.692 60.3586 81.3446 60.3249C81.1708 60.308 80.9971 60.2911 80.8441 60.2412L80.5381 60.1413C80.2322 60.0414 80.7242 60.212 80.4182 60.1121C80.6043 60.1828 80.3521 60.0706 80.319 60.0499L80.133 59.9792C79.8478 59.8463 79.5502 59.6595 79.2857 59.4935C78.7898 59.1823 78.3024 58.7842 77.8687 58.3738C77.249 57.8927 76.7246 57.3331 76.2955 56.6952C76.1717 56.5253 76.267 56.4469 76.3254 56.207C76.4752 55.7481 76.6788 55.2768 76.8948 54.8593C77.5302 53.5531 78.1988 52.2676 78.9211 50.9699C80.1084 48.8579 81.3494 46.7336 82.6236 44.6301C82.6443 44.5971 82.3798 44.4311 82.3798 44.4311L82.2807 44.3688C82.479 44.4933 82.1484 44.2858 82.0823 44.2443C81.7847 44.0576 81.508 43.8378 81.285 43.6057C80.4838 42.8263 79.9147 41.824 79.6893 40.7148C79.2513 38.1819 80.8841 34.5524 83.9492 34.9553L84.0691 34.9845C84.2221 35.0344 84.189 35.0137 84.036 34.9637L83.697 34.8431C83.7093 34.8969 83.9615 35.0091 84.0276 35.0506C84.3044 35.2704 84.5397 35.5563 84.775 35.8423C85.2617 36.6086 85.5786 37.4987 85.5934 38.4297C85.5973 38.5703 86.1224 38.7616 86.2423 38.7908C86.5606 38.9445 86.9327 39.0859 87.2802 39.1196C90.8003 39.5317 95.022 38.6791 97.5052 36.0441C98.6619 34.7885 99.4303 33.1971 99.7313 31.5427L97.9162 30.9104C98.6098 31.7143 99.3241 32.4852 100.071 33.2769C101.277 34.5866 102.653 35.7724 104.153 36.7599L104.041 36.6439C104.153 38.7417 104.145 40.8104 103.996 42.8829C103.774 46.6144 103.308 50.5151 101.766 53.9255C101.031 55.5377 99.9688 57.0831 98.3454 57.9075C98.3247 57.9406 99.1265 58.3517 99.2134 58.3601C99.4863 58.4392 99.9699 58.6967 100.227 58.5813Z" fill="#3D3D3D"/>
<path d="M87.3146 45.0859C86.9288 45.6271 86.6091 46.2099 86.3886 46.8549C86.135 47.4792 86.0014 48.1326 85.9877 48.8153C85.9287 49.4234 86.1302 50.0568 86.5016 50.5664C87.0014 51.0183 87.6256 51.2718 88.2752 51.2648C88.4159 51.2609 88.5527 51.1163 88.6149 51.0172C88.7394 50.8188 88.7978 50.5789 88.8024 50.3514C88.8608 50.1115 88.8115 49.8963 88.783 49.648C88.7584 49.5404 88.6884 49.3582 88.5354 49.3083C88.1341 49.2868 87.7743 49.1993 87.4022 49.0579L87.5014 49.1202C87.3154 49.0495 87.1501 48.9457 87.0263 48.7759L86.9478 48.6806C86.8817 48.6391 87.0386 48.8297 86.9809 48.7013L86.9686 48.6475L86.8902 48.5522C86.8448 48.4776 86.8409 48.337 86.9025 48.606C86.8902 48.5522 86.8571 48.5314 86.8779 48.4984C86.8986 48.4653 86.8494 48.2501 86.8902 48.5522C86.8779 48.4984 86.8778 48.4984 86.8655 48.4446L86.8532 48.3908C86.8163 48.2293 86.8817 48.6391 86.8571 48.5314L86.8655 48.4446L86.8532 48.3908C86.8494 48.2501 86.8402 48.7052 86.8364 48.5645C86.8325 48.4238 86.8993 48.0971 86.824 48.5107C86.8325 48.4238 86.874 48.3577 86.8824 48.2708L86.9116 48.1509C86.9408 48.031 86.8325 48.4238 86.8617 48.3039L86.8701 48.217C86.92 48.064 86.9907 47.878 87.0737 47.7457L87.1152 47.6796C87.1775 47.5805 87.0238 47.8987 87.086 47.7996C87.1068 47.7665 87.1275 47.7334 87.1483 47.7004L87.2605 47.4482C87.3227 47.349 87.4057 47.2168 87.468 47.1176C87.5302 47.0184 87.5924 46.9193 87.6339 46.8531C87.6754 46.787 87.7999 46.5886 87.6132 46.8862C87.8622 46.4895 87.9582 46.0428 87.9135 45.6C87.8766 45.4386 87.8604 45.2441 87.7158 45.1073C87.6167 45.0451 87.476 45.0489 87.393 45.1812L87.3146 45.0859Z" fill="#3D3D3D"/>
<path d="M99.0576 44.4372C100.167 46.1936 101.554 47.8015 103.12 49.1987C108.374 53.9707 107.748 56.4354 105.191 56.3975C102.635 56.3596 95.2028 50.3588 95.2028 50.3588" fill="white"/>
<path d="M98.5518 44.9496C99.5869 46.7513 101.115 48.3553 102.626 49.7649C103.758 50.7517 104.774 51.85 105.64 53.0391L105.855 53.3581L105.979 53.5279C106.082 53.7308 106.185 53.9338 106.267 54.1698C106.35 54.4057 106.276 54.0829 106.313 54.2443L106.374 54.5134L106.399 54.621C106.423 54.7286 106.383 54.4265 106.386 54.5672L106.394 54.8485C106.444 54.6955 106.398 54.9892 106.394 54.8485C106.373 54.8816 106.365 54.9684 106.344 55.0015C106.394 54.8485 106.386 54.9354 106.344 55.0015C106.241 55.1668 106.398 54.9892 106.324 55.0346C106.249 55.0799 106.017 55.3029 106.187 55.1791C106.058 55.2368 105.963 55.3152 105.802 55.3522C105.748 55.3645 105.533 55.4137 105.727 55.3975C105.673 55.4098 105.586 55.4014 105.512 55.4468C105.35 55.4837 105.177 55.4668 104.982 55.483C104.808 55.4661 105.069 55.4915 104.928 55.4953L104.722 55.4577C104.548 55.4408 104.362 55.3701 104.176 55.2995C103.804 55.1581 103.432 55.0167 103.101 54.8092C102.65 54.5725 102.233 54.3566 101.803 54.0869C100.857 53.539 99.9518 52.9249 99.0677 52.2779C97.919 51.4648 96.758 50.5979 95.5847 49.6772C95.2418 49.4159 94.7744 49.3529 94.5254 49.7497C94.3218 50.2209 94.4449 50.759 94.8332 51.0949C95.9404 51.9741 97.0352 52.7995 98.1839 53.6126C99.9853 54.9275 101.874 56.2509 103.974 57.0161C105.276 57.5109 107.171 57.502 107.724 55.9598C108.036 55.0957 107.794 54.1602 107.469 53.3569C106.883 52.1601 106.083 51.0126 105.125 50.0426C103.25 48.0366 101.015 46.3113 99.6048 43.8593C99.411 43.5073 98.952 43.3575 98.6 43.5513C98.5792 43.5843 98.5254 43.5966 98.5254 43.5966C98.1565 43.9642 98.3457 44.5438 98.5395 44.8958L98.5518 44.9496Z" fill="#3D3D3D"/>
<path d="M94.7735 41.057C95.1495 41.339 95.1858 41.8687 94.9037 42.2446C94.883 42.2777 94.8622 42.3108 94.8084 42.3231C94.1328 42.959 93.3524 42.1466 93.755 41.4316C93.8964 41.0595 94.2815 40.8864 94.6536 41.0278C94.7074 41.0155 94.7405 41.0362 94.7735 41.057Z" fill="#3D3D3D"/>
<path d="M101.576 42.6996C101.952 42.9816 101.989 43.5113 101.707 43.8872C101.686 43.9203 101.665 43.9533 101.611 43.9656C100.936 44.6015 100.155 43.7891 100.558 43.0741C100.699 42.702 101.084 42.529 101.456 42.6704C101.51 42.6581 101.543 42.6788 101.576 42.6996Z" fill="#3D3D3D"/>
<path d="M72.7412 32.6212C72.7412 32.6212 67.3099 43.0372 58.7561 46.24C58.7561 46.24 60.7541 57.4477 75.9208 55.6765L72.7412 32.6212Z" fill="#3D3D3D"/>
<path d="M72.1888 31.8132C71.4995 33.1317 70.711 34.388 69.8441 35.549C68.0312 38.1438 65.8754 40.4774 63.4389 42.4505C61.8602 43.7177 60.1331 44.7074 58.2368 45.4527L58.216 45.4857C58.5853 47.1 59.2445 48.6197 60.2018 49.9578C61.9713 52.8656 64.7807 54.9975 68.0349 55.98C70.7641 56.7712 73.6561 56.7891 76.4742 56.4841L76.495 56.451L75.4133 48.6294L73.7195 36.2762L73.3153 33.3958C73.1961 32.9984 73.0023 32.6463 72.7339 32.3397C72.6885 32.2651 72.1972 31.7263 72.2011 31.867L73.4544 40.8102L75.2221 53.4863C75.3206 53.9167 75.386 54.3265 75.3976 54.7485L75.4222 54.8561C75.4222 54.8561 74.8388 54.9047 74.6651 54.8878C73.585 54.9933 72.4596 55.0243 71.3426 54.9684C68.1654 54.8176 64.915 53.9758 62.3993 51.89C61.9779 51.5334 61.5443 51.1229 61.1644 50.7002L60.9414 50.4681L60.83 50.3521C60.6731 50.1614 60.8753 50.4266 60.7969 50.3313L60.5824 50.0123L60.4586 49.8425C60.3224 49.6188 60.5493 49.9916 60.4586 49.8425L60.3678 49.6933L60.3101 49.565C60.2071 49.362 60.3678 49.6933 60.3101 49.565L60.1617 49.2875C60.1494 49.2337 60.104 49.1591 60.0917 49.1053C59.9187 48.7202 59.8156 48.5173 59.6879 48.2068C59.5603 47.8962 59.511 47.681 59.4287 47.445L59.3672 47.1759C59.3756 47.0891 59.3549 47.1221 59.3672 47.1759L59.3549 47.1221L59.3425 47.0683C59.504 47.0314 59.6861 46.9614 59.8476 46.9245C60.0505 46.8214 60.2865 46.7391 60.4894 46.6361C61.2804 46.2569 62.0382 45.857 62.7508 45.3826C65.4725 43.5424 67.8805 41.321 69.8548 38.6892C71.0906 37.1607 72.1818 35.4954 73.1409 33.7471C73.2031 33.648 73.2446 33.5818 73.3069 33.4827C73.3983 33.2635 73.0269 32.7539 72.9031 32.5841C72.8247 32.4888 72.2303 31.7471 72.1888 31.8132Z" fill="#3D3D3D"/>
<path d="M154.176 83.088C156.864 90.192 156.288 98.256 153.456 105.216C152.016 108.768 150 112.032 147.456 114.912C146.16 116.4 144.672 117.696 142.992 118.752C141.12 119.808 139.056 120.48 136.896 120.768C134.784 121.104 132.624 121.296 130.512 121.488C128.352 121.68 126.192 121.776 124.032 121.728C120.192 121.584 115.728 120.672 113.04 117.696C111.84 116.496 111.312 114.768 111.6 113.088C111.744 112.368 112.08 111.744 112.56 111.216C113.04 110.784 113.664 110.496 114.144 111.12C114.672 111.84 114.912 112.944 115.152 113.808C115.536 114.912 115.776 116.064 115.872 117.216C116.016 118.896 115.68 120.816 114.432 122.016C113.184 123.216 111.216 122.928 109.728 122.256C107.856 121.392 106.368 120 104.688 118.896C103.152 117.888 101.28 117.024 99.408 117.216C97.728 117.408 95.952 118.176 94.944 119.616C94.464 120.288 94.224 121.104 94.224 121.968C94.224 122.592 95.04 122.736 95.472 122.64C96.048 122.496 96.48 122.016 96.48 121.392C96.48 120 97.968 119.28 99.168 119.184C101.136 119.04 102.96 120.384 104.4 121.488C106.176 122.832 108 124.176 110.208 124.704C112.368 125.232 114.672 124.56 116.208 122.928C117.552 121.392 118.272 119.376 118.176 117.312C118.128 116.016 117.888 114.72 117.504 113.52C117.264 112.416 116.88 111.36 116.4 110.352C115.152 107.952 112.32 108.624 110.736 110.256C109.488 111.648 108.912 113.568 109.2 115.392C109.872 119.76 114.576 122.112 118.416 123.024C122.976 124.128 127.776 123.696 132.384 123.216C134.784 123.024 137.136 122.688 139.44 122.112C141.744 121.536 143.856 120.48 145.728 119.04C149.136 116.4 151.824 112.752 153.84 109.008C157.728 101.76 159.312 93.024 157.2 85.008C156.912 84 156.624 82.992 156.24 82.032C155.904 80.88 153.744 81.936 154.176 83.088Z" fill="#CECECE"/>
<path d="M67.984 148.662L45.232 160.806C43.792 161.574 43.264 163.35 44.032 164.742L50.848 177.51C51.616 178.95 53.392 179.478 54.784 178.71L63.952 173.814C65.296 174.678 67.216 175.83 68.416 176.55C68.752 176.742 69.232 176.646 69.424 176.262C69.52 176.118 69.52 175.974 69.52 175.83L69.232 170.982L77.584 166.566C79.024 165.798 79.552 164.022 78.784 162.63L71.968 149.862C71.2 148.47 69.424 147.894 67.984 148.662Z" fill="#909090"/>
<path d="M62.944 168.294C61.072 167.814 59.2 167.094 57.472 166.182C56.704 165.846 56.032 165.27 55.504 164.598C54.976 163.878 55.024 162.918 55.6 162.246C56.272 161.574 57.376 161.718 58.24 162.054C59.296 162.438 60.256 163.014 61.072 163.734C60.064 161.478 60.784 158.838 62.8 157.494C63.136 157.254 63.472 157.11 63.856 157.062C65.248 156.822 66.448 158.166 66.64 159.558C66.832 160.95 66.256 162.294 65.728 163.542L63.904 167.958" fill="white"/>
<path d="M124.625 134.582L96.5063 134.812C94.7308 134.855 93.3205 136.299 93.3473 138.03L93.5199 153.834C93.5633 155.609 95.0071 157.02 96.7376 156.993L108.064 156.892C108.934 158.413 110.201 160.451 111.005 161.792C111.245 162.163 111.75 162.283 112.122 162.043C112.24 161.948 112.359 161.853 112.444 161.668L114.592 156.829L124.902 156.746C126.677 156.703 128.087 155.259 128.061 153.529L127.888 137.724C127.8 135.966 126.401 134.539 124.625 134.582Z" fill="white"/>
<path d="M124.915 133.707L113.954 133.826L98.5434 133.955L96.9647 133.977C95.476 133.965 94.0406 134.65 93.0754 135.776C91.7768 137.383 92.2054 139.784 92.1922 141.682L92.2427 150.11L92.2862 153.267C92.2379 154.104 92.3413 154.936 92.6698 155.684C93.4334 157.193 94.9588 157.857 96.5826 157.818L99.4817 157.768L107.134 157.698L107.651 157.711L106.832 157.297C107.736 158.908 108.729 160.485 109.723 162.062C110.717 163.639 112.837 163.007 113.501 161.482C114.164 159.956 114.901 158.352 115.593 156.765L114.179 157.647L121.027 157.618L124.292 157.587C126.207 157.645 127.919 156.601 128.774 154.902C129.081 154.072 129.219 153.202 129.099 152.325L129.079 148.954L129.002 140.178C128.988 139.313 128.975 138.448 129.007 137.566C128.932 135.29 127.134 133.755 124.915 133.707C124.292 133.682 123.757 134.034 123.502 134.589C123.353 135.156 123.819 135.444 124.335 135.457C125.779 135.486 126.673 136.793 126.701 138.113C126.71 138.826 126.735 139.585 126.698 140.315L126.755 148.484C126.799 150.259 126.842 152.035 126.824 153.782C126.802 154.967 126.119 155.886 124.95 155.909L122.096 155.943L114.809 156.032C114.202 156.052 113.65 156.358 113.395 156.914L111.587 161.013C111.457 161.215 111.343 161.462 111.275 161.692C111.275 161.692 111.23 161.708 111.247 161.753C111.298 161.478 112.035 161.257 112.024 161.363C112.002 161.167 111.655 160.783 111.543 160.62C110.678 159.251 109.858 157.866 109.037 156.48C108.876 156.182 108.567 156.04 108.219 156.067L102.404 156.122L98.4713 156.146C97.8195 156.183 97.1677 156.219 96.5108 156.104C95.2421 155.858 94.5335 154.636 94.5385 153.405C94.5134 152.647 94.5334 151.872 94.5083 151.113L94.4229 143.006C94.3961 141.276 94.3693 139.545 94.3592 137.86C94.3692 136.781 94.9743 135.789 96.1262 135.721C96.5363 135.722 96.9465 135.724 97.2949 135.697L111.672 135.541C115.756 135.513 119.858 135.529 123.97 135.439L124.167 135.417C124.79 135.442 125.326 135.091 125.581 134.535C125.897 134.009 125.416 133.675 124.915 133.707Z" fill="#3D3D3D"/>
<path d="M104.749 142.969C103.365 143.379 102.132 144.194 101.211 145.303C100.483 146.238 99.9212 147.624 100.371 148.839C100.788 149.964 102.05 150.469 103.146 150.524C104.376 150.529 105.596 150.231 106.716 149.662C107.763 149.172 108.649 148.383 109.225 147.453C109.599 146.803 110.065 145.299 109.067 144.952C108.467 144.714 107.571 145.199 107.093 145.428C106.496 145.751 106.011 146.238 105.728 146.855C105.184 147.875 105.409 149.174 106.316 149.964C107.442 150.929 109.005 150.452 110.221 150.002C111.616 149.485 112.866 148.715 113.988 147.736C115.054 146.881 115.884 145.806 116.512 144.6C116.966 143.613 116.96 142.079 115.618 141.911C114.265 141.85 112.976 142.378 112.068 143.38C111.311 144.377 111.356 145.742 111.621 146.873C112.156 149.285 114.137 151.315 116.704 151.337C118.221 151.287 119.678 150.798 120.895 149.938C121.74 149.318 123.016 147.924 122.295 146.809C121.525 145.558 119.201 146.471 118.534 147.434C117.738 148.6 119.338 150.156 120.15 150.828C120.447 151.077 121.105 150.782 121.359 150.637C121.449 150.603 122.524 150.051 122.351 149.86C121.774 149.408 121.299 148.816 120.914 148.191C120.735 147.847 120.312 146.981 120.712 146.679L119.952 147.114C119.068 147.492 119.39 147.117 119.827 147.467C120.028 147.597 120.157 147.806 120.195 148.048C120.288 148.576 120.123 149.098 119.773 149.535C119.457 150.061 118.843 150.34 118.231 150.208C116.164 150.155 114.575 148.491 113.937 146.629C113.508 145.611 113.456 144.504 113.725 143.432C113.838 143.185 113.906 142.955 114.036 142.753C114.235 142.321 114.41 143.485 113.435 142.925C113.541 142.937 113.603 142.965 113.71 142.977C114.186 143.158 114.443 143.575 114.475 144.075C114.572 145.165 113.741 146.241 113.098 146.991C112.426 147.803 111.569 148.53 110.629 149.032C109.722 149.624 108.544 149.344 107.968 148.482L107.952 148.437C107.633 147.992 107.54 147.463 107.598 146.93C107.65 146.655 107.747 146.363 107.86 146.116C107.917 145.993 107.99 145.914 108.047 145.791C108.352 145.371 108.66 145.513 107.563 145.868L106.855 146.028C107.4 145.979 107.475 146.873 107.367 147.271C107.247 147.777 107.02 148.27 106.698 148.645C106.28 149.312 105.469 149.612 104.689 149.44C103.286 149.244 102.234 148.2 102.459 146.735C102.557 146.033 102.824 145.371 103.247 144.856C103.552 144.436 103.935 144.089 104.414 143.861C104.729 143.744 105.646 143.455 105.664 143.09C105.682 142.725 104.839 142.935 104.749 142.969Z" fill="#3D3D3D"/>
<path d="M189.304 114.22L168.376 100.684C167.08 99.8203 165.304 100.204 164.488 101.5L156.904 113.26C156.04 114.556 156.424 116.332 157.768 117.148L173.32 127.228C173.224 128.764 173.176 130.924 173.128 132.268C173.128 132.652 173.416 132.988 173.848 132.988C173.992 132.988 174.136 132.94 174.232 132.892L178.168 130.348L178.744 130.636C180.04 131.5 181.816 131.116 182.632 129.82L190.216 118.06C190.984 116.812 190.648 115.084 189.304 114.22Z" fill="#909090"/>
<path d="M189.16 113.5L178.888 106.876C175.336 104.572 171.784 102.268 168.232 100.012C166.696 99.0519 164.728 99.0519 163.624 100.684C163.24 101.212 162.904 101.74 162.568 102.316L157.96 109.42L156.28 112.012C155.656 113.02 155.272 114.028 155.704 115.228C156.376 117.34 158.584 118.396 160.312 119.548L173.032 127.804L173.32 127.996L172.312 126.508C172.216 128.188 172.072 129.868 172.12 131.548C172.12 132.748 173.704 134.524 175 133.756C176.296 132.988 177.592 132.124 178.888 131.26L178.408 131.212C179.416 131.788 180.424 132.316 181.576 131.98C182.344 131.788 182.968 131.308 183.4 130.636C184.072 129.628 184.696 128.668 185.32 127.66L190.696 119.356C191.032 118.876 191.272 118.396 191.416 117.82C191.704 116.14 190.504 114.46 189.16 113.5C188.92 113.356 188.392 113.116 188.44 113.596C188.488 114.076 189.064 114.652 189.448 114.892C189.688 115.084 189.544 115.036 189.496 114.892C189.544 114.94 189.592 115.036 189.592 115.084C189.688 115.324 189.736 115.564 189.736 115.804C189.736 116.284 189.592 116.812 189.352 117.196C189.208 117.388 189.064 117.628 188.92 117.82L186.712 121.228L181.912 128.62C181.672 129.1 181.288 129.484 180.856 129.772C180.28 130.156 179.608 130.252 178.936 130.108C178.504 129.964 178.072 129.772 177.688 129.484C177.544 129.388 177.352 129.388 177.208 129.436L173.848 131.596C173.656 131.74 173.464 131.836 173.272 131.98C173.176 132.028 173.08 132.028 172.984 132.076C173.224 131.836 173.848 133.756 173.848 132.748C173.848 132.604 173.848 132.46 173.848 132.316C173.896 130.876 173.944 129.436 174.04 127.996C174.088 127.468 173.464 126.796 173.032 126.508L162.04 119.404C160.552 118.444 159.016 117.484 157.528 116.476L157.336 116.332C157.288 116.332 157.384 116.524 157.384 116.332C157.336 116.092 157.192 115.852 157.192 115.564C157.192 114.988 157.336 114.46 157.624 113.98C158.056 113.308 158.44 112.684 158.872 112.06L163.384 105.052L164.92 102.652C165.592 101.644 166.504 100.876 167.8 101.116C168.04 101.164 168.232 101.26 168.424 101.356C168.328 101.308 168.328 101.308 168.376 101.308L168.472 101.404L169 101.74L171.016 103.036L177.736 107.308L189.16 114.7L189.352 114.844C189.592 115.036 190.12 115.276 190.072 114.748C190.024 114.22 189.496 113.74 189.16 113.5Z" fill="#909090"/>
<path d="M161.944 114.7C163.96 115.228 166.072 115.228 168.04 114.7C169.144 114.412 170.2 113.98 171.208 113.452C172.216 113.02 173.128 112.396 173.944 111.676C174.52 111.1 175 109.948 174.088 109.42C173.272 108.94 171.976 109.66 171.256 110.044C169.432 111.148 168.04 112.876 167.464 114.892C166.84 117.004 168.616 118.636 170.392 119.356C172.456 120.172 174.76 119.404 176.536 118.204C177.256 117.772 177.784 117.1 178.072 116.284C178.264 115.564 178.072 114.748 177.256 114.556C176.296 114.316 174.952 115.084 174.232 115.612C173.512 116.188 173.128 117.052 173.176 117.964C173.176 119.884 174.136 122.188 176.248 122.572C177.256 122.668 178.312 122.476 179.224 121.996C180.136 121.564 181.096 121.036 181.432 120.028C181.528 119.788 180.664 120.124 180.568 120.172C180.28 120.268 179.416 120.604 179.272 120.94C179.176 121.18 179.08 121.42 178.888 121.612C178.84 121.708 178.696 121.756 178.648 121.852C178.936 121.372 179.656 121.516 179.08 121.564C178.504 121.612 177.928 121.516 177.448 121.228C176.44 120.604 175.72 119.548 175.48 118.348C175.336 117.724 175.288 117.1 175.336 116.476C175.336 116.14 175.432 115.804 175.624 115.468C175.672 115.324 175.864 115.228 175.864 115.084C174.76 115.42 174.472 115.564 175 115.564C175.096 115.564 175.192 115.612 175.24 115.612C176.44 116.092 175.768 117.772 175.096 118.396C175.048 118.444 174.568 118.732 175 118.54C175.432 118.348 175 118.492 174.904 118.54C174.568 118.588 174.28 118.636 173.944 118.588C173.224 118.54 172.504 118.348 171.88 118.012C170.776 117.436 169.48 116.284 169.432 114.94C169.384 113.596 170.392 112.06 171.16 111.004C171.352 110.716 171.592 110.476 171.832 110.236L171.976 110.14C172.312 109.852 172.12 109.948 171.304 110.38C171.4 110.428 171.592 110.38 171.688 110.38C172.408 110.572 172.504 111.484 172.168 112.012C171.496 113.164 169.864 113.644 168.616 113.836C167.032 114.076 165.448 113.98 163.864 113.548C163.48 113.452 162.808 113.884 162.472 114.076C162.472 114.172 161.704 114.604 161.944 114.7Z" fill="white"/>
<path d="M172.089 77.62C176.876 77.62 180.756 73.7397 180.756 68.9531C180.756 64.1664 176.876 60.2861 172.089 60.2861C167.302 60.2861 163.422 64.1664 163.422 68.9531C163.422 73.7397 167.302 77.62 172.089 77.62Z" fill="#CECECE"/>
<path d="M179.321 69.2528C179.262 72.2414 177.349 74.9311 174.54 75.9473C171.551 76.9036 168.323 75.8875 166.411 73.3771C164.498 70.8667 164.319 67.4597 165.992 64.7699C167.606 62.3193 170.595 61.1238 173.464 61.7813C176.931 62.6779 179.321 65.786 179.321 69.2528C179.321 70.0896 180.278 70.3885 180.935 70.2689C181.712 70.1494 182.25 69.4919 182.25 68.7149C182.191 64.5906 179.501 60.9445 175.616 59.5698C171.551 58.195 167.008 59.51 164.259 62.8572C161.569 66.0849 161.27 70.6873 163.422 74.2736C165.693 77.86 169.937 79.6531 174.121 78.8163C178.843 77.8002 182.25 73.6162 182.31 68.7746C182.31 67.9976 181.354 67.6987 180.696 67.8183C179.859 67.8781 179.321 68.5355 179.321 69.2528Z" fill="#CECECE"/>
<path d="M173.942 66.9209C173.643 67.0404 173.464 67.3393 173.523 67.6382C173.523 67.6382 173.523 67.6382 173.523 67.6979C173.763 68.2957 174.48 67.9968 174.42 67.4588C174.42 67.2198 174.241 66.9807 173.942 66.9209Z" fill="#3D3D3D"/>
<path d="M168.981 66.8613C168.682 66.9211 168.503 67.2797 168.562 67.5786C168.562 67.5786 168.562 67.5786 168.562 67.6384C168.801 68.2361 169.519 67.9372 169.459 67.3993C169.459 67.1602 169.28 66.9211 168.981 66.8613C169.041 66.8613 169.041 66.8613 168.981 66.8613Z" fill="#3D3D3D"/>
<path d="M166.889 71.0454C167.008 71.942 167.905 72.4202 168.682 72.719C169.638 73.0777 170.714 73.257 171.73 73.1972C172.806 73.1972 173.822 72.9581 174.779 72.5397C175.616 72.2409 176.273 71.5236 176.452 70.627C176.452 70.3879 176.154 70.2086 175.974 70.1489C175.616 70.0293 175.257 69.9695 174.898 70.0293C174.42 70.0293 173.524 70.1489 173.464 70.7466C173.404 71.165 173.105 71.5236 172.627 71.6432C172.866 71.5236 172.448 71.7029 172.388 71.7029L172.209 71.7627C172.388 71.7029 172.388 71.7029 172.268 71.7627C172.149 71.8225 171.97 71.8225 171.85 71.8225C172.089 71.8225 172.089 71.8225 171.91 71.8225H171.671C171.491 71.8225 171.551 71.8225 171.73 71.8225H171.491H171.252H171.312L170.894 71.7029C171.192 71.7627 170.774 71.6432 170.714 71.6432C170.655 71.6432 170.356 71.4638 170.475 71.5236C170.356 71.4638 170.236 71.4041 170.117 71.2845C169.997 71.165 169.878 71.0454 169.818 70.8661C169.758 70.2684 168.742 70.2684 168.323 70.2684C167.965 70.2684 167.606 70.3282 167.248 70.5075C167.188 70.6868 166.889 70.8661 166.889 71.0454Z" fill="#3D3D3D"/>
</svg>
