<svg width="28" height="28" viewBox="0 0 48 48" fill="currentColor" xmlns="http://www.w3.org/2000/svg">
<path fill-rule="evenodd" clip-rule="evenodd" d="M8.3799 30.6553L12.1942 11.303C12.3434 10.5459 13.0073 10 13.7791 10H33.1121C34.131 10 34.8954 10.9317 34.6964 11.931L33.9334 15.7617H38.031C39.0499 15.7617 39.8144 16.6934 39.6153 17.6927L35.7609 37.045C35.6104 37.8007 34.9472 38.3449 34.1766 38.3449H14.8838C13.8662 38.3449 13.1021 37.4154 13.2988 36.4171L14.0545 32.5832H9.96484C8.94727 32.5832 8.18313 31.6537 8.3799 30.6553ZM30.5824 32.582L33.9334 15.7617H18.6979C17.9262 15.7617 17.2622 16.3076 17.113 17.0648L14.0546 32.582H25.5691L28.8685 35.2782C29.3442 35.667 30.0626 35.4034 30.1739 34.7991L30.5824 32.582Z" />
</svg>
