<svg width="123" height="24" viewBox="0 0 123 24" fill="currentColor" xmlns="http://www.w3.org/2000/svg">
<path d="M7.637 19.0267C7.00822 19.0267 6.37943 18.9384 5.75064 18.7619C5.13289 18.5744 4.57029 18.2821 4.06285 17.8849C3.55541 17.4768 3.14725 16.9418 2.83837 16.2799C2.54052 15.618 2.3916 14.8072 2.3916 13.8475V6.91427C2.3916 6.73777 2.47434 6.64952 2.63981 6.64952H5.22114C5.38661 6.64952 5.46935 6.73777 5.46935 6.91427V13.2352C5.46935 14.195 5.66791 14.901 6.06504 15.3532C6.4732 15.8055 6.99719 16.0317 7.637 16.0317C8.26579 16.0317 8.77875 15.8055 9.17588 15.3532C9.58403 14.901 9.78811 14.195 9.78811 13.2352V6.91427C9.78811 6.73777 9.87636 6.64952 10.0529 6.64952H12.6177C12.7942 6.64952 12.8824 6.73777 12.8824 6.91427V13.8475C12.8824 14.8072 12.728 15.618 12.4191 16.2799C12.1212 16.9418 11.7186 17.4768 11.2112 17.8849C10.7037 18.2821 10.1356 18.5744 9.50682 18.7619C8.88906 18.9384 8.26579 19.0267 7.637 19.0267Z" fill="currentColor"/>
<path d="M18.2367 18.9605C17.2438 18.9605 16.411 18.7619 15.7381 18.3648C15.0651 17.9677 14.5853 17.3996 14.2985 16.6605C14.2323 16.495 14.293 16.3957 14.4805 16.3626L16.4661 15.9489C16.6095 15.9158 16.7198 15.9655 16.7971 16.0979C16.9515 16.3405 17.1446 16.5171 17.3762 16.6274C17.6079 16.7377 17.8616 16.7928 18.1374 16.7928C18.3911 16.7928 18.5952 16.7542 18.7496 16.677C18.904 16.5998 18.9813 16.484 18.9813 16.3295C18.9813 16.2082 18.9151 16.0979 18.7827 15.9986C18.6614 15.8993 18.4187 15.8 18.0546 15.7007L17.7237 15.618C16.5875 15.3202 15.7877 14.9065 15.3244 14.377C14.8721 13.8364 14.646 13.2297 14.646 12.5568C14.646 12.0273 14.7949 11.5585 15.0927 11.1503C15.4016 10.7421 15.8263 10.4222 16.3668 10.1906C16.9184 9.95892 17.5472 9.84309 18.2532 9.84309C19.1909 9.84309 19.9575 10.0251 20.5532 10.3891C21.16 10.7421 21.6012 11.2937 21.877 12.0438C21.9432 12.2203 21.8825 12.3251 21.695 12.3582L19.7755 12.805C19.6321 12.8381 19.5273 12.7829 19.4611 12.6395C19.3398 12.4299 19.1909 12.2755 19.0144 12.1762C18.8489 12.0659 18.6338 12.0107 18.369 12.0107C18.1705 12.0107 18.005 12.0494 17.8726 12.1266C17.7402 12.1928 17.6741 12.3031 17.6741 12.4575C17.6741 12.7333 17.9995 12.9539 18.6503 13.1194L18.9647 13.2021C20.123 13.4889 20.9228 13.8695 21.364 14.3439C21.8053 14.8182 22.0259 15.4305 22.0259 16.1806C22.0259 16.7432 21.8604 17.2341 21.5295 17.6533C21.2096 18.0614 20.7628 18.3813 20.1892 18.613C19.6266 18.8447 18.9758 18.9605 18.2367 18.9605Z" fill="currentColor"/>
<path d="M27.4676 18.9605C26.5409 18.9605 25.7301 18.7674 25.0351 18.3813C24.3512 17.9953 23.8162 17.4602 23.4301 16.7763C23.055 16.0813 22.8675 15.2871 22.8675 14.3935C22.8675 13.5 23.055 12.7112 23.4301 12.0273C23.8162 11.3434 24.3512 10.8083 25.0351 10.4222C25.7301 10.0361 26.5409 9.84309 27.4676 9.84309C28.4493 9.84309 29.2712 10.0582 29.9331 10.4884C30.5949 10.9186 31.0858 11.5143 31.4057 12.2755C31.7367 13.0256 31.8746 13.9026 31.8194 14.9065C31.8084 15.0719 31.7146 15.1547 31.5381 15.1547H25.879C26.0997 16.0482 26.6347 16.495 27.4841 16.495C28.146 16.495 28.6314 16.2854 28.9402 15.8662C29.0395 15.7559 29.1554 15.7173 29.2877 15.7504L31.4057 16.4619C31.5712 16.5391 31.6153 16.6549 31.5381 16.8094C31.13 17.5595 30.5563 18.1056 29.8172 18.4475C29.0892 18.7895 28.3059 18.9605 27.4676 18.9605ZM27.4345 12.1762C26.5851 12.1762 26.0666 12.6285 25.879 13.5331H28.8906C28.7141 12.6285 28.2287 12.1762 27.4345 12.1762Z" fill="currentColor"/>
<path d="M33.5008 18.795C33.3242 18.795 33.236 18.7068 33.236 18.5303V10.2568C33.236 10.0913 33.3242 10.0086 33.5008 10.0086H35.5691C35.7567 10.0086 35.8504 10.0913 35.8504 10.2568L35.9001 11.1503C36.1979 10.7091 36.573 10.3891 37.0253 10.1906C37.4776 9.99201 37.9629 9.89273 38.4814 9.89273C38.6027 9.89273 38.7131 9.89825 38.8123 9.90928C38.9227 9.92031 39.0219 9.93686 39.1102 9.95892C39.2646 10.0141 39.3418 10.1134 39.3418 10.2568V12.5237C39.3418 12.7002 39.2426 12.7719 39.044 12.7388C38.9337 12.7168 38.8068 12.7002 38.6634 12.6892C38.531 12.6671 38.3766 12.6561 38.2001 12.6561C37.9133 12.6561 37.6154 12.7223 37.3066 12.8546C36.9977 12.976 36.7384 13.1746 36.5289 13.4503C36.3193 13.7261 36.2145 14.0791 36.2145 14.5093V18.5303C36.2145 18.7068 36.1262 18.795 35.9497 18.795H33.5008Z" fill="currentColor"/>
<path d="M41.0198 18.795C40.8433 18.795 40.7551 18.7068 40.7551 18.5303V6.91427C40.7551 6.73777 40.8433 6.64952 41.0198 6.64952H48.7473C48.9238 6.64952 49.012 6.73777 49.012 6.91427V9.14812C49.012 9.31359 48.9238 9.39632 48.7473 9.39632H43.8494V11.7295H47.953C48.1295 11.7295 48.2178 11.8177 48.2178 11.9942V14.228C48.2178 14.3935 48.1295 14.4763 47.953 14.4763H43.8494V18.5303C43.8494 18.7068 43.7611 18.795 43.5846 18.795H41.0198Z" fill="currentColor"/>
<path d="M54.1302 18.9605C53.2036 18.9605 52.3928 18.7674 51.6978 18.3813C51.0139 17.9953 50.4788 17.4602 50.0927 16.7763C49.7177 16.0813 49.5302 15.2871 49.5302 14.3935C49.5302 13.5 49.7177 12.7112 50.0927 12.0273C50.4788 11.3434 51.0139 10.8083 51.6978 10.4222C52.3928 10.0361 53.2036 9.84309 54.1302 9.84309C55.112 9.84309 55.9338 10.0582 56.5957 10.4884C57.2576 10.9186 57.7485 11.5143 58.0684 12.2755C58.3993 13.0256 58.5372 13.9026 58.4821 14.9065C58.4711 15.0719 58.3773 15.1547 58.2008 15.1547H52.5417C52.7623 16.0482 53.2974 16.495 54.1468 16.495C54.8086 16.495 55.294 16.2854 55.6029 15.8662C55.7022 15.7559 55.818 15.7173 55.9504 15.7504L58.0684 16.4619C58.2339 16.5391 58.278 16.6549 58.2008 16.8094C57.7926 17.5595 57.219 18.1056 56.4799 18.4475C55.7518 18.7895 54.9686 18.9605 54.1302 18.9605ZM54.0971 12.1762C53.2477 12.1762 52.7292 12.6285 52.5417 13.5331H55.5533C55.3768 12.6285 54.8914 12.1762 54.0971 12.1762Z" fill="currentColor"/>
<path d="M64.052 18.9605C63.1253 18.9605 62.3145 18.7674 61.6195 18.3813C60.9356 17.9953 60.4006 17.4602 60.0145 16.7763C59.6394 16.0813 59.4519 15.2871 59.4519 14.3935C59.4519 13.5 59.6394 12.7112 60.0145 12.0273C60.4006 11.3434 60.9356 10.8083 61.6195 10.4222C62.3145 10.0361 63.1253 9.84309 64.052 9.84309C65.0337 9.84309 65.8556 10.0582 66.5175 10.4884C67.1793 10.9186 67.6702 11.5143 67.9902 12.2755C68.3211 13.0256 68.459 13.9026 68.4038 14.9065C68.3928 15.0719 68.299 15.1547 68.1225 15.1547H62.4634C62.6841 16.0482 63.2191 16.495 64.0685 16.495C64.7304 16.495 65.2158 16.2854 65.5246 15.8662C65.6239 15.7559 65.7398 15.7173 65.8721 15.7504L67.9902 16.4619C68.1556 16.5391 68.1997 16.6549 68.1225 16.8094C67.7144 17.5595 67.1407 18.1056 66.4016 18.4475C65.6736 18.7895 64.8903 18.9605 64.052 18.9605ZM64.0189 12.1762C63.1695 12.1762 62.651 12.6285 62.4634 13.5331H65.475C65.2985 12.6285 64.8131 12.1762 64.0189 12.1762Z" fill="currentColor"/>
<path d="M73.4607 18.9605C72.6444 18.9605 71.9274 18.773 71.3096 18.3979C70.7029 18.0118 70.2286 17.4768 69.8866 16.7928C69.5446 16.0979 69.3736 15.2981 69.3736 14.3935C69.3736 13.4779 69.5446 12.6837 69.8866 12.0107C70.2286 11.3268 70.7029 10.7973 71.3096 10.4222C71.9274 10.0361 72.6444 9.84309 73.4607 9.84309C74.3764 9.84309 75.143 10.1244 75.7608 10.687V6.64952C75.7608 6.47302 75.849 6.38477 76.0255 6.38477H78.4745C78.651 6.38477 78.7392 6.47302 78.7392 6.64952V18.5303C78.7392 18.7068 78.651 18.795 78.4745 18.795H76.3896C76.2131 18.795 76.1248 18.7068 76.1248 18.5303L76.0917 17.7526C75.4519 18.5578 74.5749 18.9605 73.4607 18.9605ZM74.1888 16.3461C74.7294 16.3461 75.1651 16.164 75.496 15.8C75.827 15.436 75.9924 14.9671 75.9924 14.3935C75.9924 13.8199 75.827 13.3566 75.496 13.0036C75.1651 12.6395 74.7294 12.4575 74.1888 12.4575C73.6483 12.4575 73.2125 12.6395 72.8816 13.0036C72.5507 13.3566 72.3852 13.8199 72.3852 14.3935C72.3852 14.9671 72.5507 15.436 72.8816 15.8C73.2125 16.164 73.6483 16.3461 74.1888 16.3461Z" fill="currentColor"/>
<path d="M85.9417 18.9605C84.8275 18.9605 83.9506 18.5578 83.3107 17.7526L83.2776 18.5303C83.2776 18.7068 83.1839 18.795 82.9963 18.795H80.928C80.7515 18.795 80.6632 18.7068 80.6632 18.5303V6.64952C80.6632 6.47302 80.7515 6.38477 80.928 6.38477H83.3769C83.5534 6.38477 83.6417 6.47302 83.6417 6.64952V10.687C84.2594 10.1244 85.0261 9.84309 85.9417 9.84309C86.758 9.84309 87.4696 10.0361 88.0763 10.4222C88.694 10.7973 89.1739 11.3268 89.5159 12.0107C89.8578 12.6837 90.0288 13.4779 90.0288 14.3935C90.0288 15.2981 89.8578 16.0979 89.5159 16.7928C89.1739 17.4768 88.694 18.0118 88.0763 18.3979C87.4696 18.773 86.758 18.9605 85.9417 18.9605ZM85.2136 16.3461C85.7542 16.3461 86.1899 16.164 86.5209 15.8C86.8518 15.436 87.0173 14.9671 87.0173 14.3935C87.0173 13.8199 86.8518 13.3566 86.5209 13.0036C86.1899 12.6395 85.7542 12.4575 85.2136 12.4575C84.6731 12.4575 84.2374 12.6395 83.9064 13.0036C83.5755 13.3566 83.41 13.8199 83.41 14.3935C83.41 14.9671 83.5755 15.436 83.9064 15.8C84.2374 16.164 84.6731 16.3461 85.2136 16.3461Z" fill="currentColor"/>
<path d="M95.1464 18.9605C94.33 18.9605 93.613 18.773 92.9953 18.3979C92.3885 18.0118 91.9142 17.4768 91.5722 16.7928C91.2302 16.0979 91.0593 15.2981 91.0593 14.3935C91.0593 13.4779 91.2302 12.6837 91.5722 12.0107C91.9142 11.3268 92.3885 10.7973 92.9953 10.4222C93.613 10.0361 94.33 9.84309 95.1464 9.84309C95.6979 9.84309 96.1944 9.94789 96.6356 10.1575C97.0879 10.356 97.4685 10.6484 97.7773 11.0345L97.8104 10.2568C97.8104 10.0913 97.8987 10.0086 98.0752 10.0086H100.16C100.337 10.0086 100.425 10.0913 100.425 10.2568V18.5303C100.425 18.7068 100.337 18.795 100.16 18.795H98.0752C97.8987 18.795 97.8104 18.7068 97.8104 18.5303L97.7773 17.7526C97.1375 18.5578 96.2605 18.9605 95.1464 18.9605ZM95.8744 16.3461C96.415 16.3461 96.8507 16.164 97.1817 15.8C97.5126 15.436 97.6781 14.9671 97.6781 14.3935C97.6781 13.8199 97.5126 13.3566 97.1817 13.0036C96.8507 12.6395 96.415 12.4575 95.8744 12.4575C95.3339 12.4575 94.8982 12.6395 94.5672 13.0036C94.2363 13.3566 94.0708 13.8199 94.0708 14.3935C94.0708 14.9671 94.2363 15.436 94.5672 15.8C94.8982 16.164 95.3339 16.3461 95.8744 16.3461Z" fill="currentColor"/>
<path d="M106.453 18.9605C105.526 18.9605 104.721 18.7674 104.037 18.3813C103.353 17.9953 102.823 17.4602 102.448 16.7763C102.084 16.0923 101.902 15.2981 101.902 14.3935C101.902 13.4889 102.084 12.7002 102.448 12.0273C102.823 11.3434 103.353 10.8083 104.037 10.4222C104.721 10.0361 105.526 9.84309 106.453 9.84309C107.434 9.84309 108.295 10.0582 109.034 10.4884C109.784 10.9076 110.319 11.5916 110.639 12.5403C110.694 12.7278 110.633 12.8381 110.457 12.8712L108.405 13.4503C108.251 13.4834 108.135 13.4283 108.058 13.2849C107.903 12.9981 107.705 12.7885 107.462 12.6561C107.219 12.5237 106.938 12.4575 106.618 12.4575C106.055 12.4575 105.631 12.6451 105.344 13.0201C105.068 13.3842 104.93 13.842 104.93 14.3935C104.93 14.9341 105.068 15.3974 105.344 15.7835C105.631 16.1585 106.055 16.3461 106.618 16.3461C106.927 16.3461 107.208 16.2799 107.462 16.1475C107.716 16.0041 107.914 15.778 108.058 15.4691C108.146 15.3146 108.256 15.254 108.389 15.2871L110.622 15.8497C110.81 15.8827 110.865 15.9931 110.788 16.1806C110.446 17.1183 109.883 17.8187 109.1 18.2821C108.328 18.7344 107.445 18.9605 106.453 18.9605Z" fill="currentColor"/>
<path d="M112.438 18.795C112.262 18.795 112.174 18.7068 112.174 18.5303V6.64952C112.174 6.47302 112.262 6.38477 112.438 6.38477H114.887C115.064 6.38477 115.152 6.47302 115.152 6.64952V12.9539L117.601 10.1575C117.689 10.0582 117.794 10.0086 117.915 10.0086H120.811C120.921 10.0086 120.993 10.0417 121.026 10.1078C121.059 10.163 121.032 10.2347 120.944 10.323L118.329 13.0367L121.291 18.4806C121.346 18.5689 121.357 18.6461 121.324 18.7123C121.291 18.7674 121.219 18.795 121.109 18.795H118.362C118.219 18.795 118.114 18.7344 118.048 18.613L116.244 15.2043L115.152 16.3295V18.5303C115.152 18.7068 115.064 18.795 114.887 18.795H112.438Z" fill="currentColor"/>
</svg>
