<svg width="24" height="24" viewBox="0 0 24 24"   xmlns="http://www.w3.org/2000/svg">
<path fill-rule="evenodd" clip-rule="evenodd" d="M16.4917 6.22839C16.2605 3.9138 14.5166 2 12 2C9.48339 2 7.73952 3.9138 7.50829 6.22839H6.64616C5.09387 6.22839 3.80742 7.43193 3.70416 8.98078L3.00666 19.1622C2.89321 20.864 4.24304 22.3068 5.94866 22.3068H18.0513C19.757 22.3068 21.1068 20.864 20.9933 19.1622L20.2958 8.98078C20.1926 7.43193 18.9061 6.22839 17.3538 6.22839H16.4917ZM9.42366 6.22839C9.63397 4.84974 10.6671 3.90227 12 3.90227C13.3329 3.90227 14.366 4.84974 14.5763 6.22839H9.42366ZM7.50829 6.22839H9.42366C9.3978 6.39796 9.38438 6.57404 9.38438 6.75569V9.84689C9.38438 10.3722 8.95854 10.798 8.43324 10.798C7.90794 10.798 7.48211 10.3722 7.48211 9.84689V6.75569C7.48211 6.57809 7.49094 6.40212 7.50829 6.22839ZM16.4917 6.22839H14.5763C14.6022 6.39796 14.6156 6.57404 14.6156 6.75569V9.84689C14.6156 10.3722 15.0415 10.798 15.5668 10.798C16.0921 10.798 16.5179 10.3722 16.5179 9.84689V6.75569C16.5179 6.57809 16.5091 6.40212 16.4917 6.22839Z"/>
</svg>
