<svg width="24" height="24" viewBox="0 0 24 24"  fill="currentColor" xmlns="http://www.w3.org/2000/svg">
<path d="M12.9476 3.04783C12.9476 2.52462 12.5235 2.10046 12.0003 2.10046C11.477 2.10046 11.0529 2.52462 11.0529 3.04783V3.76754C7.69883 3.94317 4.98001 6.61689 4.78398 10.0071L4.52083 14.558C4.46425 15.5365 4.19148 16.4903 3.72215 17.3507L3.11568 18.4626C2.95557 18.7561 2.96205 19.1123 3.13273 19.3999C3.30341 19.6874 3.61301 19.8636 3.94737 19.8636H20.0526C20.387 19.8636 20.6966 19.6874 20.8673 19.3999C21.038 19.1123 21.0444 18.7561 20.8843 18.4626L20.2779 17.3507C19.8085 16.4903 19.5357 15.5365 19.4792 14.558L19.216 10.0071C19.02 6.61706 16.3015 3.94345 12.9476 3.76757V3.04783Z"  />
<path d="M10.1055 20.7587C9.55318 20.7587 9.10547 21.2064 9.10547 21.7587C9.10547 22.311 9.55318 22.7587 10.1055 22.7587H13.8949C14.4472 22.7587 14.8949 22.311 14.8949 21.7587C14.8949 21.2064 14.4472 20.7587 13.8949 20.7587H10.1055Z"  />
</svg>
