<svg width="24" height="24" viewBox="0 0 24 24"  fill="currentColor" xmlns="http://www.w3.org/2000/svg">
<path fill-rule="evenodd" clip-rule="evenodd" d="M5.36862 21.0979C3.22218 21.0979 1.48214 19.3579 1.48214 17.2114C1.48214 16.7033 1.57965 16.218 1.75697 15.7731L1.28327 14.2336C1.05587 13.4945 1.12893 12.6956 1.4866 12.0101L3.17454 8.77489H2.52444C1.94856 8.77489 1.48172 8.30805 1.48172 7.73218C1.48172 7.1563 1.94856 6.68946 2.52444 6.68946H9.63386C10.2097 6.68946 10.6766 7.1563 10.6766 7.73218C10.6766 8.30805 10.2097 8.77489 9.63386 8.77489H9.25511V10.4812H12.4509L14.5742 7.82697H14.3739C13.798 7.82697 13.3312 7.36013 13.3312 6.78425C13.3312 6.20838 13.798 5.74154 14.3739 5.74154H15.701V4.79362C15.701 3.69422 16.5922 2.80298 17.6916 2.80298H21.4833C22.0592 2.80298 22.526 3.26982 22.526 3.84569V6.78425C22.526 7.36013 22.0592 7.82697 21.4833 7.82697H18.4308L21.1798 13.3249H21.9573C22.5331 13.3249 23 13.7918 23 14.3676V15.3156C23 15.8914 22.5331 16.3583 21.9573 16.3583H21.4842C21.5457 16.6328 21.5781 16.9183 21.5781 17.2114C21.5781 19.3579 19.8381 21.0979 17.6916 21.0979C15.9064 21.0979 14.4023 19.8942 13.9466 18.2541H9.11364C8.65798 19.8942 7.15387 21.0979 5.36862 21.0979ZM5.36863 15.4104C4.37393 15.4104 3.56757 16.2167 3.56757 17.2114C3.56757 18.2061 4.37393 19.0125 5.36863 19.0125C6.36332 19.0125 7.16968 18.2061 7.16968 17.2114C7.16968 16.2167 6.36332 15.4104 5.36863 15.4104ZM17.6916 15.4104C16.6969 15.4104 15.8906 16.2167 15.8906 17.2114C15.8906 18.2061 16.6969 19.0125 17.6916 19.0125C18.6863 19.0125 19.4927 18.2061 19.4927 17.2114C19.4927 16.2167 18.6863 15.4104 17.6916 15.4104Z"  />
</svg>
