<svg width="24" height="24" viewBox="0 0 24 24"  fill="currentColor" xmlns="http://www.w3.org/2000/svg">
<path fill-rule="evenodd" clip-rule="evenodd" d="M6.14266 2.5C3.44699 2.5 1.26172 4.68527 1.26172 7.38095V14.7024C1.26172 17.398 3.44699 19.5833 6.14266 19.5833H11.633L15.2617 22.7584C15.5133 22.9786 15.8601 23.0547 16.1807 22.9601C16.5014 22.8655 16.7513 22.6134 16.8432 22.292L17.6171 19.5833H17.8569C20.5526 19.5833 22.7379 17.398 22.7379 14.7024V7.38095C22.7379 4.68527 20.5526 2.5 17.8569 2.5H6.14266ZM8 10C8.69036 10 9.25 10.5596 9.25 11.25C9.25 11.9404 8.69036 12.5 8 12.5C7.30964 12.5 6.75 11.9404 6.75 11.25C6.75 10.5596 7.30964 10 8 10ZM13.25 11.25C13.25 11.9404 12.6904 12.5 12 12.5C11.3096 12.5 10.75 11.9404 10.75 11.25C10.75 10.5596 11.3096 10 12 10C12.6904 10 13.25 10.5596 13.25 11.25ZM16.0059 10C16.6962 10 17.2559 10.5596 17.2559 11.25C17.2559 11.9404 16.6962 12.5 16.0059 12.5C15.3155 12.5 14.7559 11.9404 14.7559 11.25C14.7559 10.5596 15.3155 10 16.0059 10Z"  />
</svg>
