<svg width="24" height="24" viewBox="0 0 24 24"  fill="currentColor" xmlns="http://www.w3.org/2000/svg">
<path fill-rule="evenodd" clip-rule="evenodd" d="M5.51293 12.325C3.15858 12.325 1.25 14.2335 1.25 16.5879C1.25 18.9422 3.15858 20.8508 5.51293 20.8508C7.64686 20.8508 9.41458 19.2829 9.72688 17.2362H11.5366C11.9343 17.2362 12.2956 17.005 12.4622 16.644L15.2357 10.6348L15.5181 10.0701L16.4433 12.8459C15.1209 13.5697 14.2241 14.9741 14.2241 16.5879C14.2241 18.9422 16.1327 20.8508 18.4871 20.8508C20.8414 20.8508 22.75 18.9422 22.75 16.5879C22.75 14.2335 20.8414 12.325 18.4871 12.325C18.4643 12.325 18.4416 12.3251 18.4189 12.3255L17.1212 8.43235H18.2554C19.7141 8.43235 20.8966 7.24986 20.8966 5.79119C20.8966 4.33251 19.7141 3.15002 18.2554 3.15002H15.2435C14.6805 3.15002 14.2241 3.60642 14.2241 4.16942C14.2241 4.73242 14.6805 5.18882 15.2435 5.18882H18.2554C18.5881 5.18882 18.8578 5.45851 18.8578 5.79119C18.8578 6.12387 18.5881 6.39356 18.2554 6.39356H15.7069C15.3208 6.39356 14.9678 6.61171 14.7951 6.95707L13.6868 9.17373H9.44876L8.73535 7.645H9.45151C10.0145 7.645 10.4709 7.1886 10.4709 6.6256C10.4709 6.0626 10.0145 5.60621 9.45151 5.60621H4.81789C4.25489 5.60621 3.79849 6.0626 3.79849 6.6256C3.79849 7.1886 4.25489 7.645 4.81789 7.645H6.48548L7.64499 10.1297L6.47275 12.4334C6.16426 12.3625 5.84298 12.325 5.51293 12.325ZM3.28912 16.5878C3.28912 15.3595 4.2849 14.3637 5.51326 14.3637C6.74162 14.3637 7.7374 15.3595 7.7374 16.5878C7.7374 17.8162 6.74162 18.812 5.51326 18.812C4.2849 18.812 3.28912 17.8162 3.28912 16.5878ZM16.2633 16.5878C16.2633 15.3595 17.259 14.3637 18.4874 14.3637C19.7158 14.3637 20.7115 15.3595 20.7115 16.5878C20.7115 17.8162 19.7158 18.812 18.4874 18.812C17.259 18.812 16.2633 17.8162 16.2633 16.5878Z"  />
</svg>
