<svg width="24" height="24" viewBox="0 0 24 24"  fill="currentColor" xmlns="http://www.w3.org/2000/svg">
<path d="M2.5 5.35C2.5 3.77599 3.77599 2.5 5.35 2.5H18.65C20.224 2.5 21.5 3.77599 21.5 5.35V6.77539H2.5V5.35Z"  />
<path fill-rule="evenodd" clip-rule="evenodd" d="M21.5 18.65C21.5 20.224 20.224 21.5 18.65 21.5H5.35C3.77599 21.5 2.5 20.224 2.5 18.65V8.67539H21.5V18.65ZM16.1238 13.9867C16.1238 14.6426 16.6555 15.1742 17.3113 15.1742C17.9672 15.1742 18.4988 14.6426 18.4988 13.9867C18.4988 13.3309 17.9672 12.7992 17.3113 12.7992C16.6555 12.7992 16.1238 13.3309 16.1238 13.9867ZM13.9863 18.4992C14.6422 18.4992 15.1738 17.9676 15.1738 17.3117C15.1738 16.6559 14.6422 16.1242 13.9863 16.1242C13.3305 16.1242 12.7988 16.6559 12.7988 17.3117C12.7988 17.9676 13.3305 18.4992 13.9863 18.4992ZM17.3113 18.4992C17.9672 18.4992 18.4988 17.9676 18.4988 17.3117C18.4988 16.6559 17.9672 16.1242 17.3113 16.1242C16.6555 16.1242 16.1238 16.6559 16.1238 17.3117C16.1238 17.9676 16.6555 18.4992 17.3113 18.4992ZM13.9863 15.1742C14.6422 15.1742 15.1738 14.6426 15.1738 13.9867C15.1738 13.3309 14.6422 12.7992 13.9863 12.7992C13.3305 12.7992 12.7988 13.3309 12.7988 13.9867C12.7988 14.6426 13.3305 15.1742 13.9863 15.1742Z"  />
</svg>
