<svg width="24" height="24" viewBox="0 0 24 24"  fill="currentColor" xmlns="http://www.w3.org/2000/svg">
<path d="M8.1001 2C8.6389 2 9.07568 2.43678 9.07568 2.97559V4.43896H14.9292V2.97559C14.9292 2.43678 15.366 2 15.9048 2C16.4436 2 16.8804 2.43678 16.8804 2.97559V4.43896H18.8315C20.4479 4.43896 21.7583 5.74932 21.7583 7.36572V8.82812H2.24658V7.36572C2.24658 5.74932 3.55694 4.43896 5.17334 4.43896H7.12451V2.97559C7.12451 2.43678 7.5613 2 8.1001 2Z"  />
<path fill-rule="evenodd" clip-rule="evenodd" d="M21.7583 19.0728C21.7583 20.6892 20.4479 21.9995 18.8315 21.9995H5.17334C3.55694 21.9995 2.24658 20.6892 2.24658 19.0728V10.7793H21.7583V19.0728ZM14.22 18.939C14.8935 18.939 15.4395 18.393 15.4395 17.7195C15.4395 17.046 14.8935 16.5 14.22 16.5C13.5465 16.5 13.0005 17.046 13.0005 17.7195C13.0005 18.393 13.5465 18.939 14.22 18.939ZM17.6345 18.939C18.308 18.939 18.854 18.393 18.854 17.7195C18.854 17.046 18.308 16.5 17.6345 16.5C16.961 16.5 16.415 17.046 16.415 17.7195C16.415 18.393 16.961 18.939 17.6345 18.939Z"  />
</svg>
