<svg width="24" height="24" viewBox="0 0 24 24"  fill="currentColor" xmlns="http://www.w3.org/2000/svg">
<path fill-rule="evenodd" clip-rule="evenodd" d="M12 2C6.47715 2 2 6.47715 2 12C2 17.5228 6.47715 22 12 22C17.5228 22 22 17.5228 22 12C22 6.47715 17.5228 2 12 2ZM11.0004 10.4561L10.196 11.2605C10.2016 11.2711 10.2075 11.2823 10.2138 11.2939C10.3393 11.5246 10.6192 11.9338 11.3427 12.6573C12.0662 13.3808 12.4736 13.659 12.7043 13.7844L12.7218 13.7938L12.7378 13.8022L13.5421 12.9978C14.0213 12.5186 14.811 12.4828 15.4293 12.9124L16.2584 13.4517C17.0779 14.021 17.25 15.1455 16.6148 15.7807L15.9198 16.4757C15.2322 17.1633 14.1053 17.1021 13.0311 16.7075C11.9271 16.3019 10.7067 15.4922 9.60724 14.3928C8.50782 13.2933 7.69814 12.0729 7.29252 10.9689C6.89787 9.89473 6.83665 8.76779 7.52427 8.08018L8.21926 7.38519C8.85446 6.74999 9.97901 6.9221 10.5483 7.74164L11.0859 8.56891C11.5154 9.18722 11.4796 9.97686 11.0004 10.4561Z"  />
</svg>
