<svg width="24" height="24" viewBox="0 0 24 24"  fill="currentColor" xmlns="http://www.w3.org/2000/svg">
<path d="M8.57249 10.5949L10.1008 9.06657C11.0113 8.15604 11.0792 6.65571 10.2631 5.48092L9.24185 3.90912C8.16012 2.35199 6.02347 2.02498 4.81659 3.23185L3.49611 4.55234C2.18964 5.85881 2.30596 7.99999 3.05579 10.0409C3.82646 12.1385 5.36486 14.4574 7.45375 16.5462C9.54265 18.6351 11.8615 20.1735 13.9591 20.9442C16 21.694 18.1412 21.8104 19.4477 20.5039L20.7681 19.1834C21.975 17.9765 21.648 15.8399 20.0909 14.7582L18.5157 13.7335C17.3409 12.9174 15.8406 12.9853 14.93 13.8958L13.4017 15.4241C13.384 15.4149 13.3655 15.4051 13.3464 15.3948L13.3382 15.3903C12.8998 15.152 12.1257 14.6235 10.7511 13.2489C9.3765 11.8743 8.84459 11.0968 8.60627 10.6584C8.60477 10.6557 8.60328 10.6529 8.60181 10.6502C8.59147 10.6311 8.58171 10.6126 8.57249 10.5949Z"  />
</svg>
