<svg width="24" height="24" viewBox="0 0 24 24"  fill="currentColor" xmlns="http://www.w3.org/2000/svg">
<path d="M13.125 15.833C14.2641 15.833 15.1875 14.9096 15.1875 13.7705C15.1875 12.6314 14.2641 11.708 13.125 11.708C11.9859 11.708 11.0625 12.6314 11.0625 13.7705C11.0625 14.9096 11.9859 15.833 13.125 15.833Z"  />
<path fill-rule="evenodd" clip-rule="evenodd" d="M9.91667 2.99963C9.58771 2.99963 9.28398 3.1759 9.12078 3.46151L7.55137 6.20797H3.75C2.23122 6.20797 1 7.43918 1 8.95797V18.583C1 20.1018 2.23122 21.333 3.75 21.333H19.75C21.2688 21.333 22.5 20.1018 22.5 18.583V8.95797C22.5 7.43918 21.2688 6.20797 19.75 6.20797H18.6986L17.1292 3.46151C16.966 3.1759 16.6623 2.99963 16.3333 2.99963H9.91667ZM13.125 9.87463C15.2766 9.87463 17.0208 11.6189 17.0208 13.7705C17.0208 15.9221 15.2766 17.6663 13.125 17.6663C10.9734 17.6663 9.22917 15.9221 9.22917 13.7705C9.22917 11.6189 10.9734 9.87463 13.125 9.87463ZM6.04167 10.166C6.04167 10.9254 5.42606 11.541 4.66667 11.541C3.90727 11.541 3.29167 10.9254 3.29167 10.166C3.29167 9.40658 3.90727 8.79097 4.66667 8.79097C5.42606 8.79097 6.04167 9.40658 6.04167 10.166Z"  />
</svg>
