<svg width="24" height="24" viewBox="0 0 24 24"  fill="currentColor" xmlns="http://www.w3.org/2000/svg">
<path fill-rule="evenodd" clip-rule="evenodd" d="M5.09152 3.00067C4.05013 3.00067 3.09811 3.58902 2.63234 4.52044L0.763665 8.57063C0.682418 8.7331 0.64688 8.91107 0.656251 9.08672L0.65625 15.7485C0.65625 16.4617 1.03555 17.0863 1.60342 17.4316C1.74543 19.4247 3.40737 20.9975 5.43667 20.9975C7.3681 20.9975 8.96675 19.5727 9.23889 17.7169H13.8198C14.092 19.5727 15.6906 20.9975 17.6221 20.9975C19.7445 20.9975 21.4651 19.2769 21.4651 17.1545L21.4651 17.1314L23.0154 15.6722C23.2224 15.4774 23.3398 15.2057 23.3398 14.9214V12.0411C23.3398 10.9969 22.7796 10.0331 21.8724 9.51627L18.8993 8.1359C18.8072 8.08339 18.7078 8.04563 18.6049 8.02359L15.9207 4.35502C15.2359 3.49899 14.199 3.00067 13.1028 3.00067H5.09152ZM3.35512 7.99998L4.47758 5.44202C4.59402 5.20917 4.83202 5.06208 5.09237 5.06208H7.68663L7.68663 7.99998H3.35512ZM13.1036 5.06208C13.5734 5.06208 14.0178 5.27565 14.3113 5.64252L15.9466 7.99998H9.74878L9.74878 5.06208H13.1036ZM5.4363 18.9347C4.45272 18.9347 3.65536 18.1373 3.65536 17.1537C3.65536 16.1701 4.45272 15.3728 5.4363 15.3728C6.41989 15.3728 7.21724 16.1701 7.21724 17.1537C7.21724 18.1373 6.41989 18.9347 5.4363 18.9347ZM15.8407 17.1537C15.8407 16.1701 16.6381 15.3728 17.6217 15.3728C18.6053 15.3728 19.4026 16.1701 19.4026 17.1537C19.4026 18.1373 18.6053 18.9347 17.6217 18.9347C16.6381 18.9347 15.8407 18.1373 15.8407 17.1537Z"  />
</svg>
