<svg width="12" height="12" viewBox="0 0 12 12" fill="currentColor" xmlns="http://www.w3.org/2000/svg">
<path d="M6.32418 6.40999H5.49445L5.68161 5.54686H6.51758L6.32418 6.40999Z" />
<path fill-rule="evenodd" clip-rule="evenodd" d="M2.5 1C1.67157 1 1 1.67157 1 2.5V9.5C1 10.3284 1.67157 11 2.5 11H9.5C10.3284 11 11 10.3284 11 9.5V2.5C11 1.67157 10.3284 1 9.5 1H2.5ZM3.99717 8.38286C3.9847 8.45684 4.02837 8.5 4.09699 8.5H4.93297C4.99536 8.5 5.03903 8.46301 5.0515 8.40136L5.26986 7.40875H6.09959L5.88748 8.38286C5.86876 8.45684 5.9062 8.5 5.9873 8.5H6.81704C6.87942 8.5 6.91686 8.46301 6.92933 8.40136L7.15392 7.40875H7.7965C7.85889 7.40875 7.90256 7.37176 7.91504 7.31011L8.08972 6.53329C8.1022 6.45314 8.05853 6.40999 7.98366 6.40999H7.37228L7.56567 5.54686H8.21449C8.27688 5.54686 8.31431 5.5037 8.32679 5.44821L8.49523 4.66523C8.51395 4.59124 8.47651 4.54809 8.40165 4.54809H7.79026L7.99614 3.61714C8.02109 3.54316 7.97742 3.5 7.90256 3.5H7.06658C7.0042 3.5 6.96053 3.53699 6.94805 3.59248L6.7297 4.54809H5.89996L6.10583 3.61714C6.13079 3.54316 6.08712 3.5 6.01225 3.5H5.18252C5.11389 3.5 5.07022 3.53699 5.05774 3.59248L4.84563 4.54809H4.20305C4.1469 4.54809 4.10323 4.59124 4.09075 4.64673L3.92231 5.42972C3.9036 5.5037 3.94103 5.54686 4.02213 5.54686H4.62728L4.43388 6.40999H3.7913C3.72891 6.40999 3.69148 6.44698 3.679 6.50863L3.50432 7.29161C3.48561 7.3656 3.52928 7.40875 3.60414 7.40875H4.21553L3.99717 8.38286Z" />
</svg>
