<svg width="24" height="24" viewBox="0 0 24 24"  fill="currentColor" xmlns="http://www.w3.org/2000/svg">
<path d="M12 2C6.47715 2 2 6.47715 2 12C2 17.5228 6.47715 22 12 22C17.5228 22 22 17.5228 22 12C22 6.47715 17.5228 2 12 2ZM9.46101 8.17536L12 10.7144L14.539 8.17536C14.894 7.82034 15.4696 7.82034 15.8246 8.17536C16.1797 8.53038 16.1797 9.10598 15.8246 9.46101L13.2856 12L15.8246 14.539C16.1797 14.894 16.1797 15.4696 15.8246 15.8246C15.4696 16.1797 14.894 16.1797 14.539 15.8246L12 13.2856L9.46101 15.8246C9.10598 16.1797 8.53038 16.1797 8.17536 15.8246C7.82034 15.4696 7.82034 14.894 8.17536 14.539L10.7144 12L8.17536 9.46101C7.82034 9.10598 7.82034 8.53038 8.17536 8.17536C8.53038 7.82034 9.10598 7.82034 9.46101 8.17536Z"  />
</svg>
