<svg width="12" height="12" viewBox="0 0 12 12" fill="currentColor" xmlns="http://www.w3.org/2000/svg">
<path d="M1.5 6.5C1.5 5.94772 1.94772 5.5 2.5 5.5H9.5C10.0523 5.5 10.5 5.94772 10.5 6.5V9C10.5 9.55228 10.0523 10 9.5 10H2.5C1.94772 10 1.5 9.55228 1.5 9V6.5Z" />
<path d="M3.5 2.5C3.5 2.22386 3.72386 2 4 2H8C8.27614 2 8.5 2.22386 8.5 2.5C8.5 2.77614 8.27614 3 8 3H4C3.72386 3 3.5 2.77614 3.5 2.5Z" />
<path d="M2.5 4.25C2.5 3.90482 2.77982 3.625 3.125 3.625H8.875C9.22018 3.625 9.5 3.90482 9.5 4.25C9.5 4.59518 9.22018 4.875 8.875 4.875H3.125C2.77982 4.875 2.5 4.59518 2.5 4.25Z" />
</svg>
