<svg width="24" height="24" viewBox="0 0 24 24"  fill="currentColor" xmlns="http://www.w3.org/2000/svg">
<path d="M8.66667 5.33333C8.66667 3.49238 10.1591 2 12 2H18.6667C20.5076 2 22 3.49238 22 5.33333V12C22 13.841 20.5076 15.3333 18.6667 15.3333H12C10.1591 15.3333 8.66667 13.841 8.66667 12V5.33333Z"  />
<path d="M15.3333 18.6667C15.3333 20.5076 13.8409 22 12 22H5.33333C3.49238 22 2 20.5076 2 18.6667V12C2 10.1591 3.49238 8.66667 5.33333 8.66667H6.19753V13.358C6.19753 15.8126 8.18737 17.8025 10.642 17.8025H15.3333V18.6667Z"  />
</svg>
