<svg width="24" height="24" viewBox="0 0 24 24"  fill="currentColor" xmlns="http://www.w3.org/2000/svg">
<path fill-rule="evenodd" clip-rule="evenodd" d="M7.83654 3.25C6.8088 3.25 5.85355 3.77944 5.30885 4.65096L1.70308 10.4202C1.09897 11.3868 1.09897 12.6132 1.70308 13.5798L5.30885 19.349C5.85355 20.2206 6.8088 20.75 7.83654 20.75H19.7514C21.3977 20.75 22.7322 19.4155 22.7322 17.7692V6.23077C22.7322 4.58454 21.3977 3.25 19.7514 3.25H7.83654ZM10.0598 9.86333C9.64674 9.45028 9.64674 8.78058 10.0598 8.36753C10.4728 7.95448 11.1425 7.95448 11.5556 8.36753L13.6923 10.5042L15.829 8.36753C16.2421 7.95448 16.9118 7.95448 17.3248 8.36753C17.7379 8.78058 17.7379 9.45028 17.3248 9.86333L15.1881 12L17.3248 14.1368C17.7379 14.5498 17.7379 15.2195 17.3248 15.6326C16.9118 16.0456 16.2421 16.0456 15.829 15.6326L13.6923 13.4958L11.5556 15.6326C11.1425 16.0456 10.4728 16.0456 10.0598 15.6326C9.64674 15.2195 9.64674 14.5498 10.0598 14.1368L12.1965 12L10.0598 9.86333Z"  />
</svg>
