<svg width="24" height="24" viewBox="0 0 24 24"  fill="currentColor" xmlns="http://www.w3.org/2000/svg">
<path fill-rule="evenodd" clip-rule="evenodd" d="M3.75 15.0588L3.75 12.9174H2.83333C2.32707 12.9174 1.91667 12.507 1.91667 12.0008C1.91667 11.4945 2.32707 11.0841 2.83333 11.0841H3.75L3.75 12.9162L10.1667 12.9162C10.6729 12.9162 11.0833 12.5058 11.0833 11.9995C11.0833 11.4932 10.6729 11.0828 10.1667 11.0828L3.75 11.0828L3.75 9.25075H1.91667C1.41041 9.25075 1 8.84035 1 8.33408C1 7.82782 1.41041 7.41742 1.91667 7.41742H3.75L3.75 9.24949L7.41667 9.24949C7.92293 9.24949 8.33333 8.83909 8.33333 8.33282C8.33333 7.82656 7.92293 7.41616 7.41667 7.41616L3.75 7.41616V2.83282L15.5001 2.83359C16.6046 2.83366 17.5 3.72908 17.5 4.83359V5.16644H20.4333C20.8517 5.16644 21.2169 5.44967 21.3211 5.85482L22.9711 11.7718C22.9903 11.8464 23 11.9231 23 12.0001V17.5001C23 18.0064 22.5896 18.4168 22.0833 18.4168H20.2175C19.9951 19.9715 18.658 21.1667 17.0417 21.1667C15.4252 21.1667 14.0879 19.9712 13.8657 18.4162H8.30092C8.07877 19.9712 6.7415 21.1667 5.125 21.1667C3.35309 21.1667 1.91667 19.7303 1.91667 17.9584C1.91667 16.6785 2.66607 15.5737 3.75 15.0588ZM20.9011 11.0834L19.7226 6.99978H17.5V11.0834H20.9011ZM3.91667 17.9584C3.91667 18.6257 4.45766 19.1667 5.125 19.1667C5.79234 19.1667 6.33333 18.6257 6.33333 17.9584C6.33333 17.2911 5.79234 16.7501 5.125 16.7501C4.45766 16.7501 3.91667 17.2911 3.91667 17.9584ZM15.8333 17.9584C15.8333 18.6257 16.3743 19.1667 17.0417 19.1667C17.709 19.1667 18.25 18.6257 18.25 17.9584C18.25 17.2911 17.709 16.7501 17.0417 16.7501C16.3743 16.7501 15.8333 17.2911 15.8333 17.9584Z"  />
</svg>
