<svg width="24" height="24" viewBox="0 0 24 24"  fill="currentColor" xmlns="http://www.w3.org/2000/svg">
<path fill-rule="evenodd" clip-rule="evenodd" d="M6.33957 2C4.7244 2 3.41504 3.30936 3.41504 4.92454V20.0189C3.41504 21.1131 4.30202 22 5.39618 22H18.6038C19.6979 22 20.5849 21.1131 20.5849 20.0189V4.92454C20.5849 3.30936 19.2755 2 17.6604 2H6.33957ZM8.93392 9.26417C8.36079 9.26417 7.89618 8.79956 7.89618 8.22643C7.89618 7.6533 8.36079 7.18869 8.93392 7.18869H15.066C15.6391 7.18869 16.1037 7.6533 16.1037 8.22643C16.1037 8.79956 15.6391 9.26417 15.066 9.26417H8.93392ZM7.89618 12C7.89618 11.4269 8.36079 10.9623 8.93392 10.9623H15.066C15.6391 10.9623 16.1037 11.4269 16.1037 12C16.1037 12.5732 15.6391 13.0378 15.066 13.0378H8.93392C8.36079 13.0378 7.89618 12.5732 7.89618 12ZM8.93392 16.8114C8.36079 16.8114 7.89618 16.3467 7.89618 15.7736C7.89618 15.2005 8.36079 14.7359 8.93392 14.7359H11.7641C12.3372 14.7359 12.8019 15.2005 12.8019 15.7736C12.8019 16.3467 12.3372 16.8114 11.7641 16.8114H8.93392Z"  />
</svg>
