<svg width="20" height="20" viewBox="0 0 20 20" fill="currentColor" xmlns="http://www.w3.org/2000/svg">
<path fill-rule="evenodd" clip-rule="evenodd" d="M5 0.833252C3.61929 0.833252 2.5 1.95254 2.5 3.33325V16.6666C2.5 18.0473 3.61929 19.1666 5 19.1666H15C16.3807 19.1666 17.5 18.0473 17.5 16.6666V5.69027C17.5 5.02723 17.2366 4.39135 16.7678 3.92251L14.4107 1.56549C13.9419 1.09664 13.306 0.833252 12.643 0.833252H5ZM9.9997 7.72719C9.47671 7.72719 9.05273 7.30322 9.05273 6.78022C9.05273 6.25723 9.47671 5.83325 9.9997 5.83325C10.5227 5.83325 10.9467 6.25723 10.9467 6.78022C10.9467 7.30322 10.5227 7.72719 9.9997 7.72719ZM10.7573 13.7878C10.7573 14.2062 10.4181 14.5454 9.9997 14.5454C9.58131 14.5454 9.24213 14.2062 9.24213 13.7878V9.24234C9.24213 8.82395 9.58131 8.48477 9.9997 8.48477C10.4181 8.48477 10.7573 8.82395 10.7573 9.24234V13.7878Z" />
</svg>
