<svg width="20" height="20" viewBox="0 0 20 20" fill="currentColor" xmlns="http://www.w3.org/2000/svg">
<path fill-rule="evenodd" clip-rule="evenodd" d="M4.99992 1.66675C4.07944 1.66675 3.33325 2.41294 3.33325 3.33342V16.6667C3.33325 17.5872 4.07944 18.3334 4.99992 18.3334H14.9999C15.9204 18.3334 16.6666 17.5872 16.6666 16.6667V5.34526C16.6666 5.12425 16.5788 4.91228 16.4225 4.756L13.5773 1.91083C13.4211 1.75455 13.2091 1.66675 12.9881 1.66675H4.99992ZM6.66659 5.83342C6.20635 5.83342 5.83325 6.20651 5.83325 6.66675V8.33342C5.83325 8.79365 6.20635 9.16675 6.66659 9.16675H8.33325C8.79349 9.16675 9.16659 8.79365 9.16659 8.33342V6.66675C9.16659 6.20651 8.79349 5.83342 8.33325 5.83342H6.66659ZM6.66659 10.8334C6.20635 10.8334 5.83325 11.2065 5.83325 11.6667V13.3334C5.83325 13.7937 6.20635 14.1667 6.66659 14.1667H8.33325C8.79349 14.1667 9.16659 13.7937 9.16659 13.3334V11.6667C9.16659 11.2065 8.79349 10.8334 8.33325 10.8334H6.66659ZM10.8333 6.66675C10.8333 6.20651 11.2063 5.83342 11.6666 5.83342H13.3333C13.7935 5.83342 14.1666 6.20651 14.1666 6.66675V8.33342C14.1666 8.79365 13.7935 9.16675 13.3333 9.16675H11.6666C11.2063 9.16675 10.8333 8.79365 10.8333 8.33342V6.66675ZM11.6666 10.8334C11.2063 10.8334 10.8333 11.2065 10.8333 11.6667V13.3334C10.8333 13.7937 11.2063 14.1667 11.6666 14.1667H13.3333C13.7935 14.1667 14.1666 13.7937 14.1666 13.3334V11.6667C14.1666 11.2065 13.7935 10.8334 13.3333 10.8334H11.6666Z"/>
</svg>
