<svg width="24" height="24" viewBox="0 0 24 24"  fill="currentColor" xmlns="http://www.w3.org/2000/svg">
<path fill-rule="evenodd" clip-rule="evenodd" d="M12 22C17.5228 22 22 17.5228 22 12C22 6.47715 17.5228 2 12 2C6.47715 2 2 6.47715 2 12C2 17.5228 6.47715 22 12 22ZM8.17536 13.5519C7.82034 13.1969 7.82034 12.6213 8.17536 12.2663C8.53038 11.9112 9.10598 11.9112 9.46101 12.2663L11.0909 13.8962L11.0909 7.90909C11.0909 7.40701 11.4979 7 12 7C12.5021 7 12.9091 7.40701 12.9091 7.90909V13.8962L14.539 12.2663C14.894 11.9112 15.4696 11.9112 15.8246 12.2663C16.1797 12.6213 16.1797 13.1969 15.8246 13.5519L12.6428 16.7337C12.4723 16.9042 12.2411 17 12 17C11.7589 17 11.5277 16.9042 11.3572 16.7337L8.17536 13.5519Z"  />
</svg>
