<svg width="24" height="24" viewBox="0 0 24 24" fill="currentColor" xmlns="http://www.w3.org/2000/svg">
<path d="M3.95156 15.7571C5.28077 14.48 7.91959 12.6294 12.0005 12.6294C13.6801 12.6294 15.1154 12.9428 16.3157 13.4008C14.2036 14.4393 12.75 16.6124 12.75 19.125C12.75 19.9764 12.9169 20.7888 13.2198 21.5313H6.10931C4.79967 21.5313 3.64143 20.6817 3.24816 19.4325L3.17695 19.2063C2.82485 18.0878 2.95666 16.7129 3.95156 15.7571Z" />
<path fill-rule="evenodd" clip-rule="evenodd" d="M14.25 19.125C14.25 16.7454 15.9549 14.764 18.2099 14.3358C18.5063 14.2795 18.8122 14.25 19.125 14.25C21.8174 14.25 24 16.4326 24 19.125C24 21.8174 21.8174 24 19.125 24C17.3077 24 15.7227 23.0056 14.8843 21.5313C14.4806 20.8214 14.25 20.0001 14.25 19.125ZM18.6141 21.4433C18.7116 21.6263 18.9044 21.751 19.1264 21.751C19.4467 21.751 19.7064 21.4912 19.7064 21.1709V19.705H21.1692C21.4895 19.705 21.7492 19.4453 21.7492 19.1249C21.7492 18.8045 21.4895 18.5448 21.1692 18.5448H19.7064V17.0783C19.7064 16.7579 19.4467 16.4982 19.1264 16.4982C19.1063 16.4982 19.0866 16.4992 19.0671 16.5012C18.7745 16.5309 18.5463 16.7779 18.5463 17.0783V18.5448H17.0815C16.7611 18.5448 16.5014 18.8045 16.5014 19.1249C16.5014 19.4453 16.7611 19.705 17.0815 19.705H18.5463V21.1709C18.5463 21.2693 18.5708 21.3621 18.6141 21.4433Z" />
<path fill-rule="evenodd" clip-rule="evenodd" d="M8 6.75C8 4.26472 10.0147 2.25 12.5 2.25C14.9853 2.25 17 4.26472 17 6.75C17 9.23528 14.9853 11.25 12.5 11.25C10.0147 11.25 8 9.23528 8 6.75Z" />
</svg>
