<svg width="24" height="24" viewBox="0 0 24 24"  fill="currentColor" xmlns="http://www.w3.org/2000/svg">
<path fill-rule="evenodd" clip-rule="evenodd" d="M12 2C6.47715 2 2 6.47715 2 12C2 17.5228 6.47715 22 12 22C17.5228 22 22 17.5228 22 12C22 6.47715 17.5228 2 12 2ZM8.36364 7.90909C8.36364 7.40701 8.77066 7 9.27273 7C9.77481 7 10.1818 7.40701 10.1818 7.90909L10.1818 13.8962L10.4481 13.6299C10.8031 13.2749 11.3787 13.2749 11.7337 13.6299C12.0888 13.9849 12.0888 14.5605 11.7337 14.9156L9.91555 16.7337C9.74506 16.9042 9.51383 17 9.27273 17C9.03162 17 8.80039 16.9042 8.6299 16.7337L6.81172 14.9156C6.4567 14.5605 6.4567 13.9849 6.81172 13.6299C7.16674 13.2749 7.74235 13.2749 8.09737 13.6299L8.36364 13.8962L8.36364 7.90909ZM14.0844 7.26627C14.2549 7.09578 14.4862 7 14.7273 7C14.9684 7 15.1996 7.09578 15.3701 7.26627L17.1883 9.08445C17.5433 9.43947 17.5433 10.0151 17.1883 10.3701C16.8333 10.7251 16.2577 10.7251 15.9026 10.3701L15.6364 10.1038L15.6364 16.0909C15.6364 16.593 15.2294 17 14.7273 17C14.2252 17 13.8182 16.593 13.8182 16.0909V10.1038L13.5519 10.3701C13.1969 10.7251 12.6213 10.7251 12.2663 10.3701C11.9112 10.0151 11.9112 9.43947 12.2663 9.08445L14.0844 7.26627Z"  />
</svg>
