<svg width="24" height="24" viewBox="0 0 24 24"  fill="currentColor" xmlns="http://www.w3.org/2000/svg">
<path fill-rule="evenodd" clip-rule="evenodd" d="M11.9995 3.92004C7.6424 3.92004 3.7377 6.98286 1.59594 11.6188C1.46802 11.8957 1.46802 12.2147 1.59594 12.4916C3.7377 17.1275 7.6424 20.1903 11.9995 20.1903C16.3575 20.1903 20.2623 17.1276 22.4041 12.4916C22.532 12.2147 22.532 11.8957 22.4041 11.6188C20.2623 6.98279 16.3575 3.92004 11.9995 3.92004ZM12 15.4606C10.1192 15.4606 8.59459 13.9359 8.59459 12.0552C8.59459 10.1744 10.1192 8.64977 12 8.64977C13.8808 8.64977 15.4054 10.1744 15.4054 12.0552C15.4054 13.9359 13.8808 15.4606 12 15.4606Z"  />
</svg>
