<svg width="24" height="24" viewBox="0 0 24 24"  fill="currentColor" xmlns="http://www.w3.org/2000/svg">
<path fill-rule="evenodd" clip-rule="evenodd" d="M21.9702 4.99964C22.3998 4.57007 22.3998 3.87359 21.9702 3.44401C21.5406 3.01443 20.8441 3.01443 20.4146 3.44401L3.444 20.4146C3.01443 20.8441 3.01443 21.5406 3.444 21.9702C3.87358 22.3998 4.57006 22.3998 4.99964 21.9702L7.77678 19.1931C9.0984 19.8385 10.523 20.1903 11.9995 20.1903C16.3575 20.1903 20.2623 17.1275 22.4041 12.4915C22.532 12.2147 22.532 11.8956 22.4041 11.6187C21.6559 9.9993 20.6926 8.57183 19.57 7.39983L21.9702 4.99964ZM15.3746 11.5952C15.3949 11.7456 15.4054 11.8991 15.4054 12.0551C15.4054 13.9359 13.8807 15.4605 11.9999 15.4605C11.844 15.4605 11.6904 15.45 11.54 15.4297L15.3746 11.5952Z"  />
<path d="M12 8.64974C12.1215 8.64974 12.2416 8.6561 12.3599 8.66852L16.1476 4.8808C14.8471 4.25851 13.4483 3.92001 11.9995 3.92001C7.6424 3.92001 3.7377 6.98282 1.59594 11.6187C1.46802 11.8956 1.46802 12.2147 1.59594 12.4915C2.33194 14.0846 3.27612 15.492 4.3753 16.6531L8.61338 12.415C8.60096 12.2967 8.59459 12.1767 8.59459 12.0551C8.59459 10.1744 10.1192 8.64974 12 8.64974Z"  />
</svg>
