<svg width="24" height="24" viewBox="0 0 24 24"  fill="currentColor" xmlns="http://www.w3.org/2000/svg">
<path fill-rule="evenodd" clip-rule="evenodd" d="M1.99902 11.9997C1.99902 6.4766 6.47635 1.99927 11.9994 1.99927C17.5225 1.99927 21.9998 6.4766 21.9998 11.9997C21.9998 17.5227 17.5225 22 11.9994 22C6.47635 22 1.99902 17.5227 1.99902 11.9997ZM8.39567 8.30582C7.84834 8.30582 7.40464 8.74952 7.40464 9.29685C7.40464 9.84418 7.84834 10.2879 8.39567 10.2879H15.6032C16.1505 10.2879 16.5942 9.84418 16.5942 9.29685C16.5942 8.74952 16.1505 8.30582 15.6032 8.30582H8.39567ZM9.29661 11.4591C8.74928 11.4591 8.30558 11.9028 8.30558 12.4501C8.30558 12.9975 8.74928 13.4412 9.29661 13.4412H14.7022C15.2496 13.4412 15.6933 12.9975 15.6933 12.4501C15.6933 11.9028 15.2496 11.4591 14.7022 11.4591H9.29661ZM14.7923 15.6034C14.7923 15.0561 14.3486 14.6124 13.8013 14.6124H10.1975C9.65021 14.6124 9.20651 15.0561 9.20651 15.6034C9.20651 16.1507 9.65021 16.5944 10.1975 16.5944H13.8013C14.3486 16.5944 14.7923 16.1507 14.7923 15.6034Z"  />
</svg>
