<svg width="24" height="24" viewBox="0 0 24 24"  fill="currentColor" xmlns="http://www.w3.org/2000/svg">
<path d="M16.1443 20.1261C16.6528 20.1261 17.065 20.5456 17.065 21.0631C17.065 21.5805 16.6528 22 16.1443 22H7.85807C7.34958 22 6.93737 21.5805 6.93737 21.0631C6.93737 20.5456 7.34958 20.1261 7.85807 20.1261H11.0804V16.9568C7.1435 16.8647 4.19185 13.216 4.8883 9.24717L6.03018 2.73994C6.10859 2.29309 6.49049 1.96771 6.93655 1.96771H12.8891L9.85359 6.60122C9.66525 6.88872 9.64768 7.25838 9.8079 7.56303C9.96812 7.86768 10.2801 8.05787 10.6197 8.05787H11.7952L10.741 9.93535C10.4887 10.3846 10.6421 10.957 11.0836 11.2137C11.5251 11.4704 12.0875 11.3143 12.3398 10.865L14.1812 7.58578C14.344 7.2958 14.3428 6.93953 14.1781 6.65066C14.0134 6.36179 13.71 6.184 13.3818 6.184H12.34L15.0686 2.01906C15.0796 2.00217 15.0901 1.98504 15.0999 1.96771H17.0643C17.5104 1.96771 17.8923 2.29309 17.9707 2.73994L19.1126 9.24717C19.8089 13.2156 16.858 16.8639 12.9218 16.9568V20.1261H16.1443Z"  />
</svg>
