<svg width="24" height="24" viewBox="0 0 24 24"  fill="currentColor" xmlns="http://www.w3.org/2000/svg">
<path fill-rule="evenodd" clip-rule="evenodd" d="M1.9998 9.93616C1.9998 6.33291 4.7794 3.74329 7.7988 3.74329C8.95807 3.74329 9.98424 4.22221 10.8138 4.84076C11.2486 5.16494 11.6456 5.53902 11.9999 5.93178C12.3542 5.53902 12.7511 5.16495 13.1859 4.84076C14.0155 4.22221 15.0417 3.74329 16.201 3.74329C19.2204 3.74329 22 6.33291 22 9.93616C22 13.6766 19.4003 16.6701 17.2958 18.5253C16.1916 19.4986 15.0964 20.2701 14.2814 20.797C14.028 20.9608 13.5431 21.2107 13.1781 21.3945C12.9837 21.4924 12.8023 21.582 12.6697 21.6469C12.6034 21.6795 12.549 21.706 12.5111 21.7244L12.467 21.7458L12.4512 21.7534C12.1663 21.8908 11.8338 21.891 11.549 21.7536L11.5328 21.7458L11.4887 21.7244C11.4508 21.706 11.3964 21.6795 11.3301 21.6469C11.1975 21.582 11.0161 21.4924 10.8217 21.3945C10.4567 21.2107 9.97182 20.9608 9.71842 20.797C8.90336 20.2701 7.80818 19.4986 6.70402 18.5254C4.59956 16.6701 1.9998 13.6766 1.9998 9.93616Z"  />
</svg>
