<svg width="24" height="24" viewBox="0 0 24 24"  fill="currentColor" xmlns="http://www.w3.org/2000/svg">
<path d="M10.4944 2.9648C11.4061 2.34507 12.5939 2.34507 13.5056 2.9648L20.2913 7.57728C21.0464 8.09055 21.5 8.95465 21.5 9.87997V18.7325C21.5 20.2609 20.2848 21.5 18.7857 21.5L15 21.5C14.76 21.5 14.5299 21.4028 14.3602 21.2298C14.1906 21.0568 14.0952 20.8222 14.0952 20.5775V16.5C14.0952 15.9477 13.6475 15.5 13.0952 15.5H10.9048C10.3525 15.5 9.90477 15.9477 9.90477 16.5V20.5775C9.90477 20.8222 9.80944 21.0568 9.63977 21.2298C9.47009 21.4028 9.23996 21.5 9 21.5L5.21427 21.5C3.71522 21.5 2.5 20.2609 2.5 18.7325V9.87997C2.5 8.95465 2.95356 8.09055 3.70867 7.57728L10.4944 2.9648Z"  />
</svg>
