<svg width="24" height="24" viewBox="0 0 24 24"  fill="currentColor" xmlns="http://www.w3.org/2000/svg">
<path fill-rule="evenodd" clip-rule="evenodd" d="M2 12C2 6.47715 6.47715 2 12 2C17.5228 2 22 6.47715 22 12C22 17.5228 17.5228 22 12 22C6.47715 22 2 17.5228 2 12ZM10.8636 8.13636C10.8636 8.76396 11.3724 9.27273 12 9.27273C12.6276 9.27273 13.1364 8.76396 13.1364 8.13636C13.1364 7.50877 12.6276 7 12 7C11.3724 7 10.8636 7.50877 10.8636 8.13636ZM12 17.4545C12.5021 17.4545 12.9091 17.0475 12.9091 16.5455V11.0909C12.9091 10.5888 12.5021 10.1818 12 10.1818C11.4979 10.1818 11.0909 10.5888 11.0909 11.0909V16.5455C11.0909 17.0475 11.4979 17.4545 12 17.4545Z"  />
</svg>
