<svg width="24" height="24" viewBox="0 0 24 24"  fill="currentColor" xmlns="http://www.w3.org/2000/svg">
<path fill-rule="evenodd" clip-rule="evenodd" d="M2 12C2 17.5228 6.47715 22 12 22C17.5228 22 22 17.5228 22 12C22 6.47715 17.5228 2 12 2C6.47715 2 2 6.47715 2 12ZM10.4481 8.17536C10.8031 7.82034 11.3787 7.82034 11.7337 8.17536C12.0888 8.53038 12.0888 9.10598 11.7337 9.46101L10.1038 11.0909L16.0909 11.0909C16.593 11.0909 17 11.4979 17 12C17 12.5021 16.593 12.9091 16.0909 12.9091H10.1038L11.7337 14.539C12.0888 14.894 12.0888 15.4696 11.7337 15.8246C11.3787 16.1797 10.8031 16.1797 10.4481 15.8246L7.26627 12.6428C7.09578 12.4723 7 12.2411 7 12C7 11.7589 7.09578 11.5277 7.26627 11.3572L10.4481 8.17536Z"  />
</svg>
