<svg width="24" height="24" viewBox="0 0 24 24"  fill="currentColor" xmlns="http://www.w3.org/2000/svg">
<path d="M13.0868 9.92803C12.8448 9.73736 12.5148 9.64202 12.0968 9.64202H11.3048V12.128H12.0968C12.5148 12.128 12.8448 12.0327 13.0868 11.842C13.3288 11.6514 13.4498 11.325 13.4498 10.863C13.4498 10.423 13.3288 10.1114 13.0868 9.92803Z"  />
<path fill-rule="evenodd" clip-rule="evenodd" d="M23 12C23 18.0751 18.0751 23 12 23C5.92487 23 1 18.0751 1 12C1 5.92487 5.92487 1 12 1C18.0751 1 23 5.92487 23 12ZM9.45676 7.92603C9.33943 7.92603 9.28076 7.98469 9.28076 8.10203V15.824C9.28076 15.9414 9.33943 16 9.45676 16H11.1288C11.2461 16 11.3048 15.9414 11.3048 15.824V13.844H12.1518C13.2664 13.844 14.1098 13.5947 14.6818 13.096C15.2538 12.59 15.5398 11.853 15.5398 10.885C15.5398 9.90969 15.2538 9.17269 14.6818 8.67403C14.1098 8.17536 13.2664 7.92603 12.1518 7.92603H9.45676Z"  />
</svg>
