<svg width="24" height="24" viewBox="0 0 24 24"  fill="currentColor" xmlns="http://www.w3.org/2000/svg">
<path fill-rule="evenodd" clip-rule="evenodd" d="M2.5 10.1C2.5 8.52599 3.77599 7.25 5.35 7.25H6.37881C6.83108 4.55417 9.17565 2.5 12 2.5C14.8243 2.5 17.1689 4.55417 17.6212 7.25H18.65C20.224 7.25 21.5 8.52599 21.5 10.1V18.65C21.5 20.224 20.224 21.5 18.65 21.5H5.35C3.77599 21.5 2.5 20.224 2.5 18.65V10.1ZM15.6812 7.25C15.2593 5.61103 13.7715 4.4 12.0009 4.4C10.2302 4.4 8.74245 5.61103 8.32061 7.25H15.6812ZM10.8125 12.9492C10.8125 13.6051 11.3442 14.1367 12 14.1367C12.6558 14.1367 13.1875 13.6051 13.1875 12.9492C13.1875 12.2934 12.6558 11.7617 12 11.7617C11.3442 11.7617 10.8125 12.2934 10.8125 12.9492ZM10.8125 16.2742C10.8125 16.9301 11.3442 17.4617 12 17.4617C12.6558 17.4617 13.1875 16.9301 13.1875 16.2742C13.1875 15.6184 12.6558 15.0867 12 15.0867C11.3442 15.0867 10.8125 15.6184 10.8125 16.2742Z"  />
</svg>
