<svg width="24" height="24" viewBox="0 0 24 24" fill="currentColor" xmlns="http://www.w3.org/2000/svg">
<path fill-rule="evenodd" clip-rule="evenodd" d="M1.27828 6.31933L2.46995 7.12576L2.47078 7.12633L2.47174 7.12698L3.86331 8.06869L11.3449 12.6727C11.7466 12.92 12.2534 12.92 12.6551 12.6727L20.1367 8.06869L21.5081 7.14059L21.5166 7.13484L21.5266 7.12806L21.5275 7.12749L21.5284 7.1269L21.5292 7.12633L21.53 7.12576L21.531 7.12512L21.5319 7.12451L21.5327 7.12393L21.5338 7.12325L21.5368 7.12119L21.5379 7.12046L21.539 7.11968L21.5417 7.1179L21.5431 7.1169L21.5492 7.11281L21.5533 7.11001L21.5544 7.10926L22.7217 6.31932C22.511 4.72798 21.1489 3.5 19.5 3.5H4.5C2.85108 3.5 1.48897 4.72798 1.27828 6.31933ZM22.75 8.7151L22.6711 8.76851L22.6626 8.77427L22.6612 8.77519L22.6537 8.7803L22.6526 8.78104L22.6517 8.78162L22.6508 8.78221L22.65 8.78278L22.6492 8.78334L22.6482 8.78399L22.6473 8.7846L22.6465 8.78518L22.6454 8.78586L22.6443 8.78666L22.6424 8.78792L22.6413 8.78864L22.6402 8.78943L22.6375 8.79121L22.6361 8.7922L22.63 8.7963L22.6259 8.79909L22.6248 8.79985L21.2397 9.73719C21.2277 9.74528 21.2156 9.7531 21.2033 9.76066L13.7033 14.376C12.6587 15.0189 11.3413 15.0189 10.2967 14.376L2.79668 9.76067C2.78439 9.7531 2.77227 9.74528 2.76032 9.73719L1.34993 8.78274L1.25 8.71511V17.25C1.25 19.0449 2.70508 20.5 4.5 20.5H19.5C21.2949 20.5 22.75 19.0449 22.75 17.25V8.7151Z" />
</svg>
