<svg width="24" height="24" viewBox="0 0 24 24"  fill="currentColor" xmlns="http://www.w3.org/2000/svg">
<path fill-rule="evenodd" clip-rule="evenodd" d="M3 10.5921C3 5.30972 7.05202 1.5921 12 1.5921C16.9479 1.5921 21 5.30972 21 10.5921C21 15.7192 17.7565 19.2464 13.3175 22.5373C12.991 22.7794 12.5959 22.9079 12.1936 22.9079H11.8064C11.4041 22.9079 11.009 22.7794 10.6824 22.5373C6.24348 19.2464 3 15.7192 3 10.5921ZM10.1052 10.1184C10.1052 11.1649 10.9535 12.0132 12 12.0132C13.0464 12.0132 13.8947 11.1649 13.8947 10.1184C13.8947 9.07199 13.0464 8.22369 12 8.22369C10.9535 8.22369 10.1052 9.07199 10.1052 10.1184Z"  />
</svg>
