<svg width="24" height="24" viewBox="0 0 24 24" fill="currentColor" xmlns="http://www.w3.org/2000/svg">
<path d="M21.9887 20.5912C21.8942 21.3847 21.219 22 20.4 22H3.6C2.71634 22 2 21.2837 2 20.4V18.5884L10.0075 14.1398L21.9887 20.5912Z" />
<path fill-rule="evenodd" clip-rule="evenodd" d="M22 18.3258L10.4741 12.1195C10.174 11.9579 9.81229 11.9603 9.51436 12.1258L2 16.3005V3.6C2 2.71634 2.71635 2 3.6 2H20.4C21.2837 2 22 2.71635 22 3.6V18.3258ZM19 8C19 6.34315 17.6569 5 16 5C14.3431 5 13 6.34315 13 8C13 9.65685 14.3431 11 16 11C17.6569 11 19 9.65685 19 8Z" />
</svg>
