<svg width="24" height="24" viewBox="0 0 24 24"  fill="currentColor" xmlns="http://www.w3.org/2000/svg">
<path fill-rule="evenodd" clip-rule="evenodd" d="M3.86364 3.40997C2.28209 3.40997 1 4.69207 1 6.27361V17.7282C1 19.3097 2.28209 20.5918 3.86364 20.5918H19.1364C20.7179 20.5918 22 19.3097 22 17.7282V6.27361C22 4.69207 20.7179 3.40997 19.1364 3.40997H3.86364ZM16.0061 9.0181C16.3354 8.60644 16.9361 8.5397 17.3478 8.86902C17.7594 9.19835 17.8262 9.79904 17.4968 10.2107L16.0648 12.0008L17.4968 13.7908C17.8262 14.2025 17.7594 14.8032 17.3478 15.1325C16.9361 15.4618 16.3354 15.3951 16.0061 14.9834L14.097 12.5971C13.8181 12.2484 13.8181 11.7531 14.097 11.4045L16.0061 9.0181ZM5.50608 10.2112C5.17675 9.79953 5.2435 9.19884 5.65516 8.86952C6.06682 8.54019 6.6675 8.60693 6.99683 9.01859L8.90592 11.405C9.18482 11.7536 9.18482 12.2489 8.90592 12.5976L6.99683 14.9839C6.6675 15.3956 6.06681 15.4623 5.65516 15.133C5.2435 14.8037 5.17675 14.203 5.50608 13.7913L6.93813 12.0013L5.50608 10.2112Z"  />
</svg>
