<svg width="24" height="24" viewBox="0 0 24 24"  fill="currentColor" xmlns="http://www.w3.org/2000/svg">
<path fill-rule="evenodd" clip-rule="evenodd" d="M12 2C6.47715 2 2 6.47715 2 12C2 17.5228 6.47715 22 12 22C17.5228 22 22 17.5228 22 12C22 6.47715 17.5228 2 12 2ZM10.3707 15.0895C10.3707 15.7333 9.99582 16.0909 9.36717 16.0909C8.73275 16.0909 8.36364 15.7333 8.36364 15.0895V8.86648C8.36364 8.24473 8.73275 7.90909 9.39024 7.90909C9.79396 7.90909 10.0823 8.07416 10.3995 8.47032L13.5832 12.6465H13.6293V8.9105C13.6293 8.26674 14.0042 7.90909 14.6328 7.90909C15.2672 7.90909 15.6364 8.26674 15.6364 8.9105V15.1445C15.6364 15.7553 15.2788 16.0909 14.6386 16.0909C14.2118 16.0909 13.9292 15.9313 13.6235 15.5297L10.4168 11.3095H10.3707V15.0895Z"  />
</svg>
