<svg width="12" height="12" viewBox="0 0 12 12" fill="currentColor" xmlns="http://www.w3.org/2000/svg">
<path fill-rule="evenodd" clip-rule="evenodd" d="M3.5 1C2.67157 1 2 1.67157 2 2.5V10H1.5C1.22386 10 1 10.2239 1 10.5C1 10.7761 1.22386 11 1.5 11H4.75V8.8125C4.75 8.08763 5.30964 7.5 6 7.5C6.69036 7.5 7.25 8.08763 7.25 8.8125V11H10.5C10.7761 11 11 10.7761 11 10.5C11 10.2239 10.7761 10 10.5 10H10V2.5C10 1.67157 9.32843 1 8.5 1H3.5ZM6.5 5.5C6.5 5.22386 6.72386 5 7 5H7.5C7.77614 5 8 5.22386 8 5.5C8 5.77614 7.77614 6 7.5 6H7C6.72386 6 6.5 5.77614 6.5 5.5ZM7 3C6.72386 3 6.5 3.22386 6.5 3.5C6.5 3.77614 6.72386 4 7 4H7.5C7.77614 4 8 3.77614 8 3.5C8 3.22386 7.77614 3 7.5 3H7ZM4 3.5C4 3.22386 4.22386 3 4.5 3H5C5.27614 3 5.5 3.22386 5.5 3.5C5.5 3.77614 5.27614 4 5 4H4.5C4.22386 4 4 3.77614 4 3.5ZM4.5 5C4.22386 5 4 5.22386 4 5.5C4 5.77614 4.22386 6 4.5 6H5C5.27614 6 5.5 5.77614 5.5 5.5C5.5 5.22386 5.27614 5 5 5H4.5Z" />
</svg>
