<svg width="24" height="24" viewBox="0 0 24 24"  fill="currentColor" xmlns="http://www.w3.org/2000/svg">
<path fill-rule="evenodd" clip-rule="evenodd" d="M12 2C6.47715 2 2 6.47715 2 12C2 17.5228 6.47715 22 12 22C17.5228 22 22 17.5228 22 12C22 6.47715 17.5228 2 12 2ZM11.0909 8.36364C11.0909 7.86156 11.4979 7.45455 12 7.45455C12.5021 7.45455 12.9091 7.86156 12.9091 8.36364V11.0909H15.6364C16.1384 11.0909 16.5455 11.4979 16.5455 12C16.5455 12.5021 16.1384 12.9091 15.6364 12.9091H12.9091V15.6364C12.9091 16.1384 12.5021 16.5455 12 16.5455C11.4979 16.5455 11.0909 16.1384 11.0909 15.6364L11.0909 12.9091H8.36364C7.86156 12.9091 7.45455 12.5021 7.45455 12C7.45455 11.4979 7.86156 11.0909 8.36364 11.0909H11.0909V8.36364Z"  />
</svg>
