<svg width="24" height="24" viewBox="0 0 24 24"  fill="currentColor" xmlns="http://www.w3.org/2000/svg">
<path d="M6.81852 2.5C6.34155 2.5 5.95488 2.88666 5.95488 3.36364V5.09091H18.0458V3.36364C18.0458 2.88666 17.6591 2.5 17.1822 2.5H6.81852Z"  />
<path fill-rule="evenodd" clip-rule="evenodd" d="M18.9091 17.1822C20.34 17.1822 21.5 16.0222 21.5 14.5913V8.97763C21.5 7.54671 20.34 6.38672 18.9091 6.38672H5.09091C3.65999 6.38672 2.5 7.54671 2.5 8.97763V14.5913C2.5 16.0222 3.65999 17.1822 5.09091 17.1822V12.1574C5.09091 11.5937 5.53281 11.1367 6.07792 11.1367H17.9221C18.4672 11.1367 18.9091 11.5937 18.9091 12.1574V17.1822ZM18.65 8.67637C18.65 9.20104 18.2247 9.62637 17.7 9.62637C17.1753 9.62637 16.75 9.20104 16.75 8.67637C16.75 8.1517 17.1753 7.72637 17.7 7.72637C18.2247 7.72637 18.65 8.1517 18.65 8.67637Z"  />
<path d="M6.81836 13.6484C6.81836 13.2148 7.14979 12.8633 7.55862 12.8633H16.4417C16.8506 12.8633 17.182 13.2148 17.182 13.6484V20.7145C17.182 21.1481 16.8506 21.4996 16.4417 21.4996H7.55862C7.14979 21.4996 6.81836 21.1481 6.81836 20.7145V13.6484Z"  />
</svg>
