<svg width="24" height="24" viewBox="0 0 24 24"  fill="currentColor" xmlns="http://www.w3.org/2000/svg">
<path fill-rule="evenodd" clip-rule="evenodd" d="M22 12C22 17.5228 17.5228 22 12 22C6.47715 22 2 17.5228 2 12C2 6.47715 6.47715 2 12 2C17.5228 2 22 6.47715 22 12ZM11.6787 14.1289C12.1641 14.1289 12.4307 13.8623 12.5332 13.4043C12.6221 12.8301 12.8271 12.5361 13.7363 12.0098C14.7002 11.4424 15.1992 10.7383 15.1992 9.70605C15.1992 8.11328 13.8936 7.04688 11.9521 7.04688C10.4824 7.04688 9.38867 7.62793 8.95117 8.53027C8.81445 8.79004 8.74609 9.0498 8.74609 9.34375C8.74609 9.86328 9.08105 10.1982 9.62109 10.1982C10.0381 10.1982 10.3457 10.0068 10.5166 9.56934C10.7354 8.96094 11.1865 8.63281 11.8564 8.63281C12.6084 8.63281 13.1279 9.09766 13.1279 9.76758C13.1279 10.3965 12.8613 10.7383 11.9795 11.2646C11.1729 11.7363 10.7559 12.2695 10.7559 13.0762V13.1719C10.7559 13.7324 11.0977 14.1289 11.6787 14.1289ZM11.6924 17.1709C12.3145 17.1709 12.8135 16.6992 12.8135 16.0977C12.8135 15.4961 12.3145 15.0244 11.6924 15.0244C11.0771 15.0244 10.5781 15.4961 10.5781 16.0977C10.5781 16.6992 11.0771 17.1709 11.6924 17.1709Z"  />
</svg>
