<svg width="24" height="24" viewBox="0 0 24 24"  fill="currentColor" xmlns="http://www.w3.org/2000/svg">
<path d="M14.0998 2.78222C14.5119 3.15441 14.8165 3.6457 14.9701 4.23633H16.1679V8.85381H7.85642V4.23633H9.02905C9.18265 3.6457 9.48724 3.15441 9.89937 2.78222C10.4929 2.2462 11.2606 2 11.9996 2C12.7385 2 13.5063 2.2462 14.0998 2.78222Z"  />
<path fill-rule="evenodd" clip-rule="evenodd" d="M16.6296 10.2391C17.1397 10.2391 17.5531 9.8256 17.5531 9.31556V4.23633H17.7137C19.1551 4.23633 20.3236 5.40481 20.3236 6.84621V19.4038C20.3236 20.8452 19.1551 22.0136 17.7137 22.0136H6.31057C4.86917 22.0136 3.70068 20.8452 3.70068 19.4038V6.84621C3.70068 5.40481 4.86917 4.23633 6.31057 4.23633H6.47117V9.31556C6.47117 9.8256 6.88464 10.2391 7.39467 10.2391H16.6296ZM13.0511 19.1137C13.6886 19.1137 14.2055 18.5969 14.2055 17.9594C14.2055 17.3218 13.6886 16.805 13.0511 16.805C12.4135 16.805 11.8967 17.3218 11.8967 17.9594C11.8967 18.5969 12.4135 19.1137 13.0511 19.1137ZM16.2833 19.1137C16.9209 19.1137 17.4377 18.5969 17.4377 17.9594C17.4377 17.3218 16.9209 16.805 16.2833 16.805C15.6458 16.805 15.129 17.3218 15.129 17.9594C15.129 18.5969 15.6458 19.1137 16.2833 19.1137Z"  />
</svg>
