<svg width="24" height="24" viewBox="0 0 24 24"  fill="currentColor" xmlns="http://www.w3.org/2000/svg">
<path fill-rule="evenodd" clip-rule="evenodd" d="M22 12C22 6.47715 17.5228 2 12 2C6.47715 2 2 6.47715 2 12C2 17.5228 6.47715 22 12 22C17.5228 22 22 17.5228 22 12ZM13.5519 15.8246C13.1969 16.1797 12.6213 16.1797 12.2663 15.8246C11.9112 15.4696 11.9112 14.894 12.2663 14.539L13.8962 12.9091L7.90909 12.9091C7.40701 12.9091 7 12.5021 7 12C7 11.4979 7.40701 11.0909 7.90909 11.0909H13.8962L12.2663 9.46101C11.9112 9.10598 11.9112 8.53038 12.2663 8.17536C12.6213 7.82034 13.1969 7.82033 13.5519 8.17536L16.7337 11.3572C16.9042 11.5277 17 11.7589 17 12C17 12.2411 16.9042 12.4723 16.7337 12.6428L13.5519 15.8246Z"  />
</svg>
