<svg width="24" height="24" viewBox="0 0 24 24"  fill="currentColor" xmlns="http://www.w3.org/2000/svg">
<path fill-rule="evenodd" clip-rule="evenodd" d="M11.9309 1.40002C10.5452 1.40002 9.32772 2.31975 8.94897 3.65275L8.71255 4.48485C8.45314 4.60402 8.10144 4.77173 7.83355 4.92673C7.59084 5.06715 7.33434 5.24464 7.13614 5.38821L6.31516 5.18146C4.9704 4.8428 3.5643 5.43845 2.87202 6.64004L2.79923 6.76637C2.10887 7.96462 2.29567 9.47521 3.25712 10.4692L3.85047 11.0826C3.82148 11.3475 3.79001 11.6987 3.79001 12C3.79001 12.3014 3.82148 12.6526 3.85047 12.9175L3.25712 13.5309C2.29567 14.5249 2.10887 16.0355 2.79923 17.2337L2.87202 17.3601C3.5643 18.5617 4.9704 19.1573 6.31516 18.8186L7.10668 18.6193C7.30433 18.774 7.56456 18.9657 7.81963 19.1133C8.09841 19.2746 8.45763 19.4327 8.72018 19.5421L8.94897 20.3473C9.32772 21.6803 10.5452 22.6 11.9309 22.6H12.0692C13.4549 22.6 14.6724 21.6803 15.0511 20.3473L15.2837 19.5289C15.5318 19.4196 15.8599 19.2673 16.127 19.1117C16.3797 18.9645 16.6584 18.7676 16.8681 18.6129L17.685 18.8186C19.0297 19.1573 20.4358 18.5617 21.1281 17.3601L21.2009 17.2337C21.8912 16.0355 21.7044 14.5249 20.743 13.5309L20.1497 12.9175C20.1787 12.6526 20.2101 12.3014 20.2101 12C20.2101 11.6987 20.1787 11.3475 20.1497 11.0826L20.743 10.4692C21.7044 9.47521 21.8912 7.96462 21.2009 6.76638L21.1281 6.64004C20.4358 5.43845 19.0297 4.8428 17.685 5.18146L16.8382 5.39471C16.625 5.25016 16.3474 5.06708 16.1081 4.92793C15.8529 4.77957 15.5349 4.61924 15.2921 4.50073L15.0511 3.65274C14.6724 2.31974 13.4549 1.40002 12.0692 1.40002H11.9309ZM11.9949 14.0051C10.8875 14.0051 9.98981 13.1074 9.98981 12C9.98981 10.8926 10.8875 9.99487 11.9949 9.99487C13.1023 9.99487 14.0001 10.8926 14.0001 12C14.0001 13.1074 13.1023 14.0051 11.9949 14.0051Z"  />
</svg>
