<svg width="24" height="24" viewBox="0 0 24 24" fill="currentColor" xmlns="http://www.w3.org/2000/svg">
<path fill-rule="evenodd" clip-rule="evenodd" d="M12.3438 2.35181C12.151 2.16919 11.849 2.16919 11.6562 2.35181C9.59485 4.304 6.8127 5.50059 3.75 5.50059C3.70129 5.50059 3.65266 5.50029 3.6041 5.49969C3.38586 5.49698 3.19108 5.63614 3.12291 5.84348C2.71855 7.07336 2.5 8.38698 2.5 9.75064C2.5 15.5758 6.48414 20.4692 11.8754 21.8568C11.9571 21.8778 12.0429 21.8778 12.1246 21.8568C17.5159 20.4692 21.5 15.5758 21.5 9.75064C21.5 8.38698 21.2815 7.07336 20.8771 5.84348C20.8089 5.63614 20.6141 5.49698 20.3959 5.49969C20.3473 5.50029 20.2987 5.50059 20.25 5.50059C17.1873 5.50059 14.4051 4.304 12.3438 2.35181ZM9.7501 8C9.25304 8 8.8501 8.40294 8.8501 8.9V16.1C8.8501 16.5971 9.25304 17 9.7501 17H14.2501C14.7472 17 15.1501 16.5971 15.1501 16.1V10.6047C15.1501 10.3768 15.0636 10.1573 14.908 9.99066L13.3169 8.28591C13.1467 8.10354 12.9085 8 12.659 8H9.7501Z" />
</svg>
