<svg width="24" height="24" viewBox="0 0 24 24" fill="currentColor" xmlns="http://www.w3.org/2000/svg">
<path fill-rule="evenodd" clip-rule="evenodd" d="M12.3438 2.35181C12.151 2.16919 11.849 2.16919 11.6562 2.35181C9.59485 4.304 6.8127 5.50059 3.75 5.50059C3.70129 5.50059 3.65266 5.50029 3.6041 5.49969C3.38586 5.49698 3.19108 5.63614 3.12291 5.84348C2.71855 7.07336 2.5 8.38698 2.5 9.75064C2.5 15.5758 6.48414 20.4692 11.8754 21.8568C11.9571 21.8778 12.0429 21.8778 12.1246 21.8568C17.5159 20.4692 21.5 15.5758 21.5 9.75064C21.5 8.38698 21.2815 7.07336 20.8771 5.84348C20.8089 5.63614 20.6141 5.49698 20.3959 5.49969C20.3473 5.50029 20.2987 5.50059 20.25 5.50059C17.1873 5.50059 14.4051 4.304 12.3438 2.35181ZM15.25 15.1333V12.4667C15.25 11.988 14.8862 11.6 14.4375 11.6C14.4375 10.1641 13.3462 9 12 9C10.6538 9 9.5625 10.1641 9.5625 11.6C9.11377 11.6 8.75 11.988 8.75 12.4667V15.1333C8.75 15.612 9.11377 16 9.5625 16H14.4375C14.8862 16 15.25 15.612 15.25 15.1333ZM13.1374 11.5997C13.1374 10.9296 12.6281 10.3863 11.9999 10.3863C11.3717 10.3863 10.8624 10.9296 10.8624 11.5997H13.1374Z" />
</svg>
