<svg width="24" height="24" viewBox="0 0 24 24"  fill="currentColor" xmlns="http://www.w3.org/2000/svg">
<path d="M5.12589 2.85801L3.4502 5.35H20.5502L18.8745 2.85801C18.724 2.63422 18.472 2.5 18.2023 2.5H5.79806C5.52837 2.5 5.27638 2.63422 5.12589 2.85801Z"  />
<path d="M5.13889 11.0492C6.59631 11.0492 7.77778 9.83399 7.77778 8.33493V7.24922H2.5V8.33493C2.5 9.83399 3.68147 11.0492 5.13889 11.0492Z"  />
<path d="M14.6389 8.33493C14.6389 9.83399 13.4574 11.0492 12 11.0492C10.5426 11.0492 9.36111 9.83399 9.36111 8.33493V7.24922H14.6389V8.33493Z"  />
<path d="M18.8611 11.0492C17.4037 11.0492 16.2222 9.83399 16.2222 8.33493V7.24922H21.5V8.33493C21.5 9.83399 20.3185 11.0492 18.8611 11.0492Z"  />
<path d="M20.5502 19.5007C20.5502 20.6053 19.6548 21.5007 18.5503 21.5007L17.4702 21.5008C17.0726 21.5008 16.7502 21.1784 16.7502 20.7808V16.7508C16.7502 16.2261 16.3249 15.8008 15.8002 15.8008H13.9002C13.3755 15.8008 12.9502 16.2261 12.9502 16.7508V20.7808C12.9502 21.1784 12.6278 21.5008 12.2302 21.5008L5.45016 21.5007C4.34561 21.5007 3.4502 20.6052 3.4502 19.5007V12.6228C3.96925 12.834 4.5383 12.9509 5.13908 12.9509C6.52701 12.9509 7.74555 12.3272 8.56964 11.3574C9.39373 12.3272 10.6123 12.9509 12.0002 12.9509C13.3881 12.9509 14.6067 12.3272 15.4308 11.3574C16.2548 12.3272 17.4734 12.9509 18.8613 12.9509C19.4621 12.9509 20.0311 12.834 20.5502 12.6228V19.5007Z"  />
</svg>
