<svg width="24" height="24" viewBox="0 0 24 24"  fill="currentColor" xmlns="http://www.w3.org/2000/svg">
<path d="M11.9384 2.40002C11.5114 2.40002 11.4152 2.43999 11.0491 2.59207C10.987 2.61788 10.9169 2.64702 10.8363 2.67964C10.2537 2.91539 9.6364 3.38929 9.43798 4.23506C9.36962 4.52646 9.01394 5.71075 8.48043 7.1031C8.05071 8.22457 7.53458 9.40334 6.99991 10.3226V21.6H17.5423C18.8587 21.6 19.992 20.6446 20.1899 19.3338L21.2354 12.4944C21.5223 10.6175 20.0697 8.92601 18.1709 8.92601H13.6698L14.4911 5.26052C14.4911 4.71955 14.3926 4.03108 13.9999 3.44493C13.5614 2.79042 12.8458 2.40002 11.9384 2.40002Z"  />
<path d="M3.4999 10.4C2.89239 10.4 2.3999 10.8925 2.3999 11.5V20.5C2.3999 21.1075 2.89239 21.6 3.4999 21.6H5.49991V10.4H3.4999Z"  />
</svg>
