<svg width="24" height="24" viewBox="0 0 24 24"  fill="currentColor" xmlns="http://www.w3.org/2000/svg">
<path d="M1.99999 3.40002C1.39248 3.40002 0.899994 3.89251 0.899994 4.50002V19.5C0.899994 20.1075 1.39248 20.6 1.99999 20.6H5.6842C5.92542 20.6 6.15994 20.5207 6.35168 20.3744L7.78947 19.2768L9.22726 20.3744C9.41899 20.5207 9.65352 20.6 9.89473 20.6H22C22.6075 20.6 23.1 20.1075 23.1 19.5V4.50002C23.1 3.89251 22.6075 3.40002 22 3.40002H9.89473C9.65352 3.40002 9.41899 3.47931 9.22726 3.62568L7.78947 4.72328L6.35168 3.62568C6.15994 3.47931 5.92542 3.40002 5.6842 3.40002H1.99999ZM6.5 9.75C6.5 9.05964 7.05964 8.5 7.75 8.5C8.44036 8.5 9 9.05964 9 9.75C9 10.4404 8.44036 11 7.75 11C7.05964 11 6.5 10.4404 6.5 9.75ZM6.5 14.25C6.5 13.5596 7.05964 13 7.75 13C8.44036 13 9 13.5596 9 14.25C9 14.9404 8.44036 15.5 7.75 15.5C7.05964 15.5 6.5 14.9404 6.5 14.25Z"  />
</svg>
