<svg width="24" height="24" viewBox="0 0 24 24"  fill="currentColor" xmlns="http://www.w3.org/2000/svg">
<path d="M13.1445 1.89193C13.2775 1.81709 13.4276 1.77777 13.5802 1.77777H19.1111C19.602 1.77777 20 2.17574 20 2.66666V4.44444C20 4.93536 19.602 5.33333 19.1111 5.33333H4.88889C4.39797 5.33333 4 4.93536 4 4.44444C4 3.95352 4.39797 3.55555 4.88889 3.55555H10.1869L13.1445 1.89193Z"  />
<path fill-rule="evenodd" clip-rule="evenodd" d="M4.88889 6.22178C4.63871 6.22178 4.40012 6.32721 4.23167 6.51218C4.06323 6.69716 3.98053 6.94455 4.00388 7.19364L5.18611 19.804C5.31458 21.1743 6.4648 22.2218 7.84113 22.2218H16.1589C17.5352 22.2218 18.6854 21.1743 18.8139 19.804L19.9961 7.19364C20.0195 6.94455 19.9368 6.69716 19.7683 6.51218C19.5999 6.32721 19.3613 6.22178 19.1111 6.22178H4.88889ZM11.3333 16.2853C11.3333 16.7411 10.9354 17.1107 10.4444 17.1107C9.95352 17.1107 9.55556 16.7411 9.55556 16.2853V12.1583C9.55556 11.7024 9.95352 11.3329 10.4444 11.3329C10.9354 11.3329 11.3333 11.7024 11.3333 12.1583L11.3333 16.2853ZM14.4444 16.2853C14.4444 16.7411 14.0465 17.1107 13.5556 17.1107C13.0646 17.1107 12.6667 16.7411 12.6667 16.2853L12.6667 12.1583C12.6667 11.7024 13.0646 11.3329 13.5556 11.3329C14.0465 11.3329 14.4444 11.7024 14.4444 12.1583V16.2853Z"  />
</svg>
