<svg width="24" height="24" viewBox="0 0 24 24"  fill="currentColor" xmlns="http://www.w3.org/2000/svg">
<path fill-rule="evenodd" clip-rule="evenodd" d="M2 12C2 6.47715 6.47715 2 12 2C17.5228 2 22 6.47715 22 12C22 17.5228 17.5228 22 12 22C6.47715 22 2 17.5228 2 12ZM15.8246 11.7337C16.1797 11.3787 16.1797 10.8031 15.8246 10.4481L12.6428 7.26627C12.4723 7.09578 12.2411 7 12 7C11.7589 7 11.5277 7.09578 11.3572 7.26627L8.17536 10.4481C7.82033 10.8031 7.82034 11.3787 8.17536 11.7337C8.53038 12.0888 9.10598 12.0888 9.46101 11.7337L11.0909 10.1038V16.0909C11.0909 16.593 11.4979 17 12 17C12.5021 17 12.9091 16.593 12.9091 16.0909L12.9091 10.1038L14.539 11.7337C14.894 12.0888 15.4696 12.0888 15.8246 11.7337Z"  />
</svg>
