<svg width="24" height="24" viewBox="0 0 24 24" fill="currentColor" xmlns="http://www.w3.org/2000/svg">
<path fill-rule="evenodd" clip-rule="evenodd" d="M4 2.00001L20 2C21.1046 2 22 2.82081 22 3.83333V5.66667C22 6.67919 21.1046 7.5 20 7.5H4C2.89543 7.5 2 6.67919 2 5.66667V3.83334C2 2.82082 2.89543 2.00001 4 2.00001Z" />
<path fill-rule="evenodd" clip-rule="evenodd" d="M4 9.25001L20 9.25C21.1046 9.25 22 10.0708 22 11.0833V12.9167C22 13.9292 21.1046 14.75 20 14.75H4C2.89543 14.75 2 13.9292 2 12.9167V11.0833C2 10.0708 2.89543 9.25001 4 9.25001Z" />
<path fill-rule="evenodd" clip-rule="evenodd" d="M4 16.5L20 16.5C21.1046 16.5 22 17.3208 22 18.3333V20.1667C22 21.1792 21.1046 22 20 22H4C2.89543 22 2 21.1792 2 20.1667V18.3333C2 17.3208 2.89543 16.5 4 16.5Z" />
</svg>
