<svg width="24" height="24" viewBox="0 0 24 24"  fill="currentColor" xmlns="http://www.w3.org/2000/svg">
<path fill-rule="evenodd" clip-rule="evenodd" d="M22 12C22 17.5228 17.5228 22 12 22C6.47715 22 2 17.5228 2 12C2 6.47715 6.47715 2 12 2C17.5228 2 22 6.47715 22 12ZM12 13.8691C12.6904 13.8691 13.0459 13.459 13.0664 12.7549L13.1895 8.50293C13.1963 8.39355 13.2031 8.27051 13.2031 8.18164C13.2031 7.42285 12.7588 6.97852 12.0068 6.97852C11.248 6.97852 10.7969 7.42285 10.7969 8.18164C10.7969 8.22375 10.7984 8.27354 10.8 8.32591C10.8018 8.38403 10.8037 8.44541 10.8037 8.50293L10.9336 12.7549C10.9541 13.459 11.3027 13.8691 12 13.8691ZM12 17.2256C12.7109 17.2256 13.292 16.6855 13.292 15.9951C13.292 15.3115 12.7109 14.7715 12 14.7715C11.2822 14.7715 10.7012 15.3115 10.7012 15.9951C10.7012 16.6855 11.2822 17.2256 12 17.2256Z"  />
</svg>
