<svg width="24" height="24" viewBox="0 0 24 24"  fill="currentColor" xmlns="http://www.w3.org/2000/svg">
<path fill-rule="evenodd" clip-rule="evenodd" d="M11.5891 2C10.874 2 10.2145 2.38973 9.86387 3.01948L1.50421 18.0354C1.17489 18.6269 1.16495 19.3468 1.4778 19.9474L1.99043 20.9315C2.33272 21.5886 3.00716 22 3.74209 22H20.2579C20.9928 22 21.6673 21.5886 22.0096 20.9315L22.5222 19.9474C22.8351 19.3468 22.8251 18.6269 22.4958 18.0354L14.1361 3.01948C13.7855 2.38972 13.126 2 12.4109 2H11.5891ZM13.0558 14.4764C13.0355 15.1805 12.6837 15.5906 12.0003 15.5906C11.3102 15.5906 10.9652 15.1805 10.9449 14.4764L10.8163 10.2244C10.8163 10.1669 10.8145 10.1056 10.8127 10.0475C10.8125 10.0409 10.8123 10.0344 10.8121 10.0279C10.8107 9.98273 10.8096 9.93999 10.8096 9.90312C10.8096 9.14434 11.2561 8.7 12.0071 8.7C12.7513 8.7 13.1911 9.14434 13.1911 9.90312C13.1911 9.99199 13.1843 10.115 13.1776 10.2244L13.0558 14.4764ZM13.279 17.7166C13.279 18.407 12.704 18.9471 12.0003 18.9471C11.2899 18.9471 10.7148 18.407 10.7148 17.7166C10.7148 17.033 11.2899 16.493 12.0003 16.493C12.704 16.493 13.279 17.033 13.279 17.7166Z"  />
</svg>
