<svg width="24" height="24" viewBox="0 0 24 24"  fill="currentColor" xmlns="http://www.w3.org/2000/svg">
<path fill-rule="evenodd" clip-rule="evenodd" d="M3.86364 3.40979C2.28209 3.40979 1 4.69188 1 6.27343V17.728C1 19.3095 2.28209 20.5916 3.86364 20.5916H19.1364C20.7179 20.5916 22 19.3095 22 17.728V6.27343C22 4.69188 20.7179 3.40979 19.1364 3.40979H3.86364ZM6.93682 14.9834L5.02773 12.597C4.74883 12.2484 4.74883 11.7531 5.02773 11.4044L6.93682 9.01807C7.26614 8.60641 7.86683 8.53967 8.27849 8.869C8.69015 9.19832 8.75689 9.79901 8.42757 10.2107L6.99551 12.0007L8.42757 13.7908C8.75689 14.2025 8.69015 14.8031 8.27849 15.1325C7.86683 15.4618 7.26614 15.3951 6.93682 14.9834ZM16.0639 9.01807L17.973 11.4044C18.2519 11.7531 18.2519 12.2484 17.973 12.597L16.0639 14.9834C15.7346 15.3951 15.1339 15.4618 14.7223 15.1325C14.3106 14.8031 14.2439 14.2025 14.5732 13.7908L16.0052 12.0007L14.5732 10.2107C14.2439 9.79901 14.3106 9.19832 14.7223 8.869C15.1339 8.53967 15.7346 8.60641 16.0639 9.01807Z"  />
</svg>
