<svg width="16" height="16" viewBox="0 0 16 16" fill="none" xmlns="http://www.w3.org/2000/svg">
<path d="M11.0873 8.30978L11.0875 8.31012C11.1113 8.34641 11.1351 8.38179 11.1592 8.41711L11.1594 8.41737C11.2451 8.54266 11.3029 8.59562 11.3454 8.62673C11.3953 8.66332 11.449 8.68955 11.5788 8.74858C11.579 8.74865 11.5791 8.74873 11.5793 8.7488L11.3723 9.20394C11.482 9.25367 11.6188 9.31641 11.8022 9.42061L11.0873 8.30978ZM11.0873 8.30978C11.0816 8.30113 11.0757 8.29217 11.0696 8.28293C10.9686 8.1287 10.8161 7.89589 10.5732 7.74247C10.2857 7.56086 9.94975 7.52779 9.56335 7.58904L9.56325 7.58906C8.9654 7.68395 8.54216 7.79432 8.25815 7.97251C8.10074 8.07127 7.97809 8.19496 7.8931 8.34905C7.81281 8.4946 7.78266 8.63869 7.76538 8.7428L7.76534 8.7428L7.76443 8.74872L7.74837 8.85325L7.74836 8.85325L7.74787 8.85653L7.73167 8.9668L7.7314 8.96868C7.7002 9.18682 7.67134 9.41391 7.70198 9.62378C7.73871 9.87537 7.85158 10.0645 8.01053 10.2315L8.01083 10.2318C8.42674 10.6682 8.75267 11.0368 8.99063 11.3372C9.23531 11.6461 9.36306 11.8535 9.41184 11.9722L11.0873 8.30978ZM3.30347 4.30897L3.70871 3.88628C4.79004 2.75842 6.31341 2.05523 8.00016 2.05523C8.85852 2.05523 9.67565 2.23748 10.4139 2.56586L11.2407 2.9336L10.4893 3.43786C10.3033 3.56274 10.0724 3.71833 9.86491 3.87411C9.66127 4.02702 9.52712 4.14622 9.4688 4.21571C9.46067 4.23442 9.45081 4.25892 9.43537 4.29727L9.43501 4.29815C9.40439 4.3742 9.35843 4.48834 9.29746 4.60357C9.18947 4.8077 8.94782 5.18353 8.47956 5.24229L3.30347 4.30897ZM3.30347 4.30897L3.78441 4.64299M3.30347 4.30897L3.78441 4.64299M3.78441 4.64299C3.83064 4.67509 3.87238 4.71979 3.90421 4.79132L3.90433 4.79159M3.78441 4.64299L3.90433 4.79159M3.90433 4.79159C3.99092 4.98589 3.99702 5.19545 3.99702 5.48477L3.99701 5.49433C3.99687 5.59678 3.9967 5.72249 4.00737 5.84302C4.01835 5.96704 4.04325 6.12237 4.11377 6.27332L4.11404 6.27389M3.90433 4.79159L4.11404 6.27389M7.46424 6.44598C7.68568 6.70716 7.65115 7.04779 7.59518 7.24921L7.59515 7.24931C7.55233 7.40327 7.48731 7.52878 7.42362 7.6234C7.36743 7.70689 7.29326 7.79434 7.21057 7.85368L6.94902 8.0414L6.66989 7.88099C6.6033 7.84271 6.54969 7.7949 6.52102 7.76839C6.48626 7.73624 6.45236 7.70139 6.42262 7.66959C6.36335 7.60619 6.30298 7.53586 6.26043 7.48623C6.15275 7.3611 6.05686 7.25097 5.95329 7.15963C5.85044 7.06892 5.76685 7.02164 5.69833 7.00261L7.46424 6.44598ZM7.46424 6.44598C7.37414 6.33965 7.30231 6.13796 7.2792 5.87736C7.25608 5.61667 7.29092 5.40685 7.31457 5.34275L7.31467 5.34248C7.3282 5.30575 7.34164 5.29394 7.35017 5.28738C7.36315 5.2774 7.39176 5.26103 7.45029 5.24773C7.58308 5.21756 7.75336 5.22482 7.97574 5.23927L7.97605 5.23929C7.98427 5.23982 7.99275 5.24037 8.00144 5.24094C8.13575 5.24972 8.3229 5.26195 8.47954 5.24229L7.46424 6.44598ZM4.11404 6.27389C4.1908 6.43767 4.31461 6.54487 4.41799 6.61295M4.11404 6.27389L4.41799 6.61295M4.41799 6.61295C4.52266 6.68187 4.6363 6.73039 4.73743 6.76616M4.41799 6.61295L4.73743 6.76616M4.73743 6.76616C4.93134 6.83474 5.15474 6.88154 5.32756 6.91775M4.73743 6.76616L5.32756 6.91775M5.32756 6.91775L5.34079 6.92052M5.32756 6.91775L5.34079 6.92052M5.34079 6.92052L5.34124 6.92061L5.34079 6.92052ZM10.7467 8.69961C10.7206 8.66154 10.6952 8.62354 10.6697 8.58481L10.6695 8.58457C10.4394 8.2351 10.2732 7.98276 9.64163 8.08287L10.7467 8.69961ZM8.00016 1.83301C11.4059 1.83301 14.1668 4.59392 14.1668 7.99967C14.1668 11.4054 11.4059 14.1663 8.00016 14.1663C4.59441 14.1663 1.8335 11.4054 1.8335 7.99967C1.8335 4.59392 4.59441 1.83301 8.00016 1.83301Z" fill="black" stroke="black"/>
</svg>
