<svg width="48" height="48" viewBox="0 0 48 48" fill="none" xmlns="http://www.w3.org/2000/svg">
<path d="M8.37996 30.6553L12.1942 11.303C12.3434 10.5459 13.0074 10 13.7791 10H33.1121C34.131 10 34.8955 10.9317 34.6965 11.931L30.5832 32.5832L29.9272 36.144L25.5699 32.5832H9.96489C8.94733 32.5832 8.18319 31.6537 8.37996 30.6553Z" fill="#5D7BE7"/>
<path d="M13.2989 36.4171L17.1132 17.0648C17.2624 16.3076 17.9264 15.7617 18.6981 15.7617H38.0311C39.05 15.7617 39.8144 16.6934 39.6154 17.6927L35.761 37.045C35.6105 37.8007 34.9472 38.3449 34.1767 38.3449H14.8838C13.8663 38.3449 13.1021 37.4154 13.2989 36.4171Z" fill="#48DECC"/>
<path fill-rule="evenodd" clip-rule="evenodd" d="M33.9325 15.7617L30.5824 32.582L30.174 34.7991C30.0627 35.4034 29.3443 35.667 28.8686 35.2782L25.5692 32.582H14.0547L17.1131 17.0648C17.2623 16.3076 17.9263 15.7617 18.698 15.7617H33.9325Z" fill="#3C53A5"/>
</svg>
